<svg xmlns="http://www.w3.org/2000/svg" version="1.1" xmlns:xlink="http://www.w3.org/1999/xlink" xmlns:svgjs="http://svgjs.dev/svgjs" width="33" height="32"><svg width="33" height="32" viewBox="0 0 33 32" fill="none" xmlns="http://www.w3.org/2000/svg">
<rect x="0.894531" y="-0.00012207" width="32" height="32" rx="4" fill="black"></rect>
<path d="M17.1073 19.0361L26.2355 28.7832H23.1412L13.4715 18.0305V17.6437C16.4369 17.6179 18.706 16.9733 20.2789 15.7098C21.8519 14.4463 22.6384 12.9507 22.6384 11.223C22.6384 9.34068 22.0324 7.858 20.8204 6.77499C19.6085 5.69199 17.9969 5.15049 15.9856 5.15049H9.83569V28.7832H7.55365V3.21655H16.295C18.5642 3.21655 20.5626 3.92566 22.2902 5.34388C24.0437 6.73632 24.9204 8.67025 24.9204 11.1457C24.9204 13.0796 24.1984 14.8073 22.7544 16.3286C21.3362 17.8242 19.4538 18.7267 17.1073 19.0361Z" fill="#85CEE4"></path>
</svg><style>@media (prefers-color-scheme: light) { :root { filter: none; } }
@media (prefers-color-scheme: dark) { :root { filter: none; } }
</style></svg>