<svg width="139" height="141" viewBox="0 0 139 141" fill="none" xmlns="http://www.w3.org/2000/svg">
<path opacity="0.5" d="M47.5135 60.7037L137.368 36.1494" stroke="#85CEE4" stroke-width="0.1545" stroke-miterlimit="10" stroke-linecap="round"/>
<path d="M119.323 13.3477L138.211 47.0334" stroke="#85CEE4" stroke-width="0.2575" stroke-miterlimit="10" stroke-linecap="round"/>
<path d="M138.211 85.4897L81.1556 139.137" stroke="#85CEE4" stroke-width="0.2575" stroke-miterlimit="10" stroke-linecap="round"/>
<path d="M138.211 83.3479L81.1556 129.207" stroke="#85CEE4" stroke-width="0.2575" stroke-miterlimit="10" stroke-linecap="round"/>
<path d="M1 55.8627L44.0959 39.7651" stroke="#85CEE4" stroke-width="0.2575" stroke-miterlimit="10" stroke-linecap="round"/>
<path d="M119.323 62.0265L39.2918 39.7651" stroke="#85CEE4" stroke-width="0.2575" stroke-miterlimit="10" stroke-linecap="round"/>
<path d="M1 86.5608L47.1375 100.876" stroke="#85CEE4" stroke-width="0.2575" stroke-miterlimit="10" stroke-linecap="round"/>
<path d="M88.3601 129.207L1 90.6499" stroke="#85CEE4" stroke-width="0.2575" stroke-miterlimit="10" stroke-linecap="round"/>
<path d="M88.3601 139.137L1 94.7388" stroke="#85CEE4" stroke-width="0.2575" stroke-miterlimit="10" stroke-linecap="round"/>
<path d="M85.0533 56.3831L138.211 67.3509" stroke="#85CEE4" stroke-width="0.2575" stroke-miterlimit="10" stroke-linecap="round"/>
<path d="M90.7638 56.7693L1 68.8416" stroke="#85CEE4" stroke-width="0.2575" stroke-miterlimit="10" stroke-linecap="round"/>
<path d="M1 85.7183L93.2749 110.904" stroke="#85CEE4" stroke-width="0.2575" stroke-miterlimit="10" stroke-linecap="round"/>
<path d="M86.3189 110.903L138.211 80.397" stroke="#85CEE4" stroke-width="0.2575" stroke-miterlimit="10" stroke-linecap="round"/>
<path d="M128.085 16.2683L1 61.8687" stroke="#85CEE4" stroke-width="0.2575" stroke-miterlimit="10" stroke-linecap="round"/>
<path d="M47.1375 71.675L1 72.6083" stroke="#85CEE4" stroke-width="0.2575" stroke-miterlimit="10" stroke-linecap="round"/>
<path d="M39.2918 71.675L138.211 73.404" stroke="#85CEE4" stroke-width="0.2575" stroke-miterlimit="10" stroke-linecap="round"/>
<path d="M41.6284 100.876L138.211 76.4355" stroke="#85CEE4" stroke-width="0.2575" stroke-miterlimit="10" stroke-linecap="round"/>
<g opacity="0.5">
<path d="M119.323 12.2935L138.211 45.9826" stroke="#85CEE4" stroke-width="0.1545" stroke-miterlimit="10" stroke-linecap="round"/>
<path d="M138.211 84.439L81.1556 138.083" stroke="#85CEE4" stroke-width="0.1545" stroke-miterlimit="10" stroke-linecap="round"/>
<path d="M138.211 82.2971L81.1556 128.153" stroke="#85CEE4" stroke-width="0.1545" stroke-miterlimit="10" stroke-linecap="round"/>
<path d="M1 54.8085L44.0959 38.7109" stroke="#85CEE4" stroke-width="0.1545" stroke-miterlimit="10" stroke-linecap="round"/>
<path d="M119.323 60.9756L39.2918 38.7109" stroke="#85CEE4" stroke-width="0.1545" stroke-miterlimit="10" stroke-linecap="round"/>
<path d="M1 85.51L47.1375 99.8216" stroke="#85CEE4" stroke-width="0.1545" stroke-miterlimit="10" stroke-linecap="round"/>
<path d="M88.3601 128.153L1 89.5989" stroke="#85CEE4" stroke-width="0.1545" stroke-miterlimit="10" stroke-linecap="round"/>
<path d="M88.3601 138.083L1 93.688" stroke="#85CEE4" stroke-width="0.1545" stroke-miterlimit="10" stroke-linecap="round"/>
<path d="M85.0533 55.3325L138.211 66.3004" stroke="#85CEE4" stroke-width="0.1545" stroke-miterlimit="10" stroke-linecap="round"/>
<path d="M90.7638 55.7185L1 67.7909" stroke="#85CEE4" stroke-width="0.1545" stroke-miterlimit="10" stroke-linecap="round"/>
<path d="M1 84.6672L93.2749 109.849" stroke="#85CEE4" stroke-width="0.1545" stroke-miterlimit="10" stroke-linecap="round"/>
<path d="M86.3189 109.849L138.211 79.3428" stroke="#85CEE4" stroke-width="0.1545" stroke-miterlimit="10" stroke-linecap="round"/>
<path d="M128.085 15.2141L1 60.8145" stroke="#85CEE4" stroke-width="0.1545" stroke-miterlimit="10" stroke-linecap="round"/>
<path d="M47.1375 70.6243L1 71.5542" stroke="#85CEE4" stroke-width="0.1545" stroke-miterlimit="10" stroke-linecap="round"/>
<path d="M39.2918 70.6243L138.211 72.3532" stroke="#85CEE4" stroke-width="0.1545" stroke-miterlimit="10" stroke-linecap="round"/>
<path d="M41.6284 99.8215L138.211 75.3848" stroke="#85CEE4" stroke-width="0.1545" stroke-miterlimit="10" stroke-linecap="round"/>
</g>
<g opacity="0.5">
<path d="M119.323 14.1533L138.211 47.8391" stroke="#85CEE4" stroke-width="0.1545" stroke-miterlimit="10" stroke-linecap="round"/>
<path d="M138.211 86.2988L81.1556 139.943" stroke="#85CEE4" stroke-width="0.1545" stroke-miterlimit="10" stroke-linecap="round"/>
<path d="M138.211 84.157L81.1556 130.012" stroke="#85CEE4" stroke-width="0.1545" stroke-miterlimit="10" stroke-linecap="round"/>
<path d="M1 56.6684L44.0959 40.5708" stroke="#85CEE4" stroke-width="0.1545" stroke-miterlimit="10" stroke-linecap="round"/>
<path d="M119.323 62.8355L39.2918 40.5708" stroke="#85CEE4" stroke-width="0.1545" stroke-miterlimit="10" stroke-linecap="round"/>
<path d="M1 87.3699L47.1375 101.681" stroke="#85CEE4" stroke-width="0.1545" stroke-miterlimit="10" stroke-linecap="round"/>
<path d="M88.3601 130.012L1 91.4587" stroke="#85CEE4" stroke-width="0.1545" stroke-miterlimit="10" stroke-linecap="round"/>
<path d="M88.3601 139.943L1 95.5479" stroke="#85CEE4" stroke-width="0.1545" stroke-miterlimit="10" stroke-linecap="round"/>
<path d="M85.0533 57.1921L138.211 68.16" stroke="#85CEE4" stroke-width="0.1545" stroke-miterlimit="10" stroke-linecap="round"/>
<path d="M90.7638 57.5784L1 69.6507" stroke="#85CEE4" stroke-width="0.1545" stroke-miterlimit="10" stroke-linecap="round"/>
<path d="M1 86.5237L93.2749 111.709" stroke="#85CEE4" stroke-width="0.1545" stroke-miterlimit="10" stroke-linecap="round"/>
<path d="M86.3189 111.709L138.211 81.2026" stroke="#85CEE4" stroke-width="0.1545" stroke-miterlimit="10" stroke-linecap="round"/>
<path d="M128.085 17.0742L1 62.6745" stroke="#85CEE4" stroke-width="0.1545" stroke-miterlimit="10" stroke-linecap="round"/>
<path d="M47.1375 72.4839L1 73.4138" stroke="#85CEE4" stroke-width="0.1545" stroke-miterlimit="10" stroke-linecap="round"/>
<path d="M39.2918 72.4839L138.211 74.2128" stroke="#85CEE4" stroke-width="0.1545" stroke-miterlimit="10" stroke-linecap="round"/>
<path d="M41.6284 101.681L138.211 77.2444" stroke="#85CEE4" stroke-width="0.1545" stroke-miterlimit="10" stroke-linecap="round"/>
</g>
<path d="M2.51408 55.3928V95.5142L3.78309 96.1521V54.9194L2.51408 55.3928Z" stroke="#85CEE4" stroke-width="0.2575" stroke-miterlimit="10" stroke-linecap="round"/>
<path d="M3.78308 54.9194L5.16623 55.2115V95.7392L3.78308 96.1521" stroke="#85CEE4" stroke-width="0.2575" stroke-miterlimit="10" stroke-linecap="round"/>
<path d="M44.68 100.103V41.2625L47.5135 42.0514V99.385L44.68 100.103Z" stroke="#85CEE4" stroke-width="0.2575" stroke-miterlimit="10" stroke-linecap="round"/>
<path d="M44.68 41.2625L41.954 42.1017V99.2608L44.68 100.103V41.2625Z" stroke="#85CEE4" stroke-width="0.2575" stroke-miterlimit="10" stroke-linecap="round"/>
<path d="M57.9878 61.3853V101.272L60.0458 101.832V61.1167L57.9878 61.3853Z" stroke="#85CEE4" stroke-width="0.2575" stroke-miterlimit="10" stroke-linecap="round"/>
<path d="M60.0458 61.1167L62.1406 61.4423V101.077L60.0458 101.832" stroke="#85CEE4" stroke-width="0.2575" stroke-miterlimit="10" stroke-linecap="round"/>
<path d="M88.5246 109.604V57.095L85.6072 57.4643V108.809L88.5246 109.604Z" stroke="#85CEE4" stroke-width="0.2575" stroke-miterlimit="10" stroke-linecap="round"/>
<path d="M88.5246 57.095L91.1734 57.6455V108.047L88.5246 109.604V57.095Z" stroke="#85CEE4" stroke-width="0.2575" stroke-miterlimit="10" stroke-linecap="round"/>
<path d="M122.153 18.397V100.587L123.734 99.0998V21.217L122.153 18.397Z" stroke="#85CEE4" stroke-width="0.515" stroke-miterlimit="10" stroke-linecap="round"/>
<path d="M122.153 18.397L119.682 19.2833V100.248L122.153 100.587V18.397Z" stroke="#85CEE4" stroke-width="0.515" stroke-miterlimit="10" stroke-linecap="round"/>
<path d="M135.793 42.7228V87.7625L134.847 88.6555V41.0308L135.793 42.7228Z" stroke="#85CEE4" stroke-width="0.2575" stroke-miterlimit="10" stroke-linecap="round"/>
<path d="M134.847 41.0308L133.359 41.5343V88.6555H134.847" stroke="#85CEE4" stroke-width="0.2575" stroke-miterlimit="10" stroke-linecap="round"/>
<path d="M76.8383 34.6556V94.3526L78.9768 94.7387V33.8901L76.8383 34.6556Z" stroke="#85CEE4" stroke-width="0.2575" stroke-miterlimit="10" stroke-linecap="round"/>
<path d="M78.9768 33.8901L81.1556 35.0584V93.7181L78.9768 94.7387V33.8901Z" stroke="#85CEE4" stroke-width="0.2575" stroke-miterlimit="10" stroke-linecap="round"/>
<path d="M124.231 100.876L1 83.9153" stroke="#85CEE4" stroke-width="0.2575" stroke-miterlimit="10" stroke-linecap="round"/>
<path d="M133.359 97.3675L112.931 95.2592V62.1072" stroke="#85CEE4" stroke-width="0.515" stroke-miterlimit="10" stroke-linecap="round"/>
<path d="M110.373 27.5452L87.5107 35.1357" stroke="#85CEE4" stroke-width="0.515" stroke-miterlimit="10" stroke-linecap="round"/>
<path d="M88.9543 33.5813V57.0949" stroke="#85CEE4" stroke-width="0.515" stroke-miterlimit="10" stroke-linecap="round"/>
<path d="M88.9543 34.6589L93.6275 36.6967L109.268 31.8289" stroke="#85CEE4" stroke-width="0.515" stroke-miterlimit="10" stroke-linecap="round"/>
<path d="M93.6275 36.6968V57.8805" stroke="#85CEE4" stroke-width="0.515" stroke-miterlimit="10" stroke-linecap="round"/>
<path d="M95.2825 58.4881V37.865L109.268 33.5813" stroke="#85CEE4" stroke-width="0.515" stroke-miterlimit="10" stroke-linecap="round"/>
<path d="M95.2825 37.8652L96.4508 38.5467L109.268 34.6523" stroke="#85CEE4" stroke-width="0.515" stroke-miterlimit="10" stroke-linecap="round"/>
<path d="M96.4508 38.5466V58.7366" stroke="#85CEE4" stroke-width="0.515" stroke-miterlimit="10" stroke-linecap="round"/>
<path d="M103.823 35.2498V60.2539" stroke="#85CEE4" stroke-width="0.515" stroke-miterlimit="10" stroke-linecap="round"/>
<path d="M104.891 60.4756V34.9209L105.76 35.7165V60.6535" stroke="#85CEE4" stroke-width="0.515" stroke-miterlimit="10" stroke-linecap="round" stroke-linejoin="round"/>
<path d="M125.88 35.3506V57.0949L131.946 60.1768V43.3339L125.88 35.3506Z" stroke="#85CEE4" stroke-width="0.515" stroke-miterlimit="10" stroke-linecap="round"/>
<path d="M131.946 43.334H130.227L125.88 38.7917" stroke="#85CEE4" stroke-width="0.515" stroke-miterlimit="10" stroke-linecap="round"/>
<path d="M130.227 43.334V59.2503" stroke="#85CEE4" stroke-width="0.515" stroke-miterlimit="10" stroke-linecap="round"/>
<path d="M129.643 59.005V43.7232L125.88 39.7651" stroke="#85CEE4" stroke-width="0.515" stroke-miterlimit="10" stroke-linecap="round"/>
<path d="M129.643 43.7232H129.173L125.88 40.5608" stroke="#85CEE4" stroke-width="0.515" stroke-miterlimit="10" stroke-linecap="round"/>
<path d="M129.173 43.7234V58.7668" stroke="#85CEE4" stroke-width="0.515" stroke-miterlimit="10" stroke-linecap="round"/>
<path d="M82.8778 108.177V64.3162L63.7588 66.3103V102.846L68.6602 100.876V65.8" stroke="#85CEE4" stroke-width="0.515" stroke-miterlimit="10" stroke-linecap="round"/>
<path d="M68.6602 100.875L82.8778 104.542" stroke="#85CEE4" stroke-width="0.515" stroke-miterlimit="10" stroke-linecap="round"/>
<path d="M75.0556 69.2983L70.2549 69.6878V78.5943H75.0556V69.2983Z" stroke="#85CEE4" stroke-width="0.515" stroke-miterlimit="10" stroke-linecap="round"/>
<path d="M76.0963 69.2981V78.5941H82.0016V68.8416L76.0963 69.2981Z" stroke="#85CEE4" stroke-width="0.515" stroke-miterlimit="10" stroke-linecap="round"/>
<path d="M70.2549 79.7456H75.0556V88.3131L70.2549 87.9908V79.7456Z" stroke="#85CEE4" stroke-width="0.515" stroke-miterlimit="10" stroke-linecap="round"/>
<path d="M76.0963 79.7456V88.3131L82.0016 88.6555V79.8765L76.0963 79.7456Z" stroke="#85CEE4" stroke-width="0.515" stroke-miterlimit="10" stroke-linecap="round"/>
<path d="M94.1713 64.3162V72.6352L110.856 72.9273V66.4077L94.1713 64.3162Z" stroke="#85CEE4" stroke-width="0.515" stroke-miterlimit="10" stroke-linecap="round"/>
<path d="M108.986 72.8936V66.1726" stroke="#85CEE4" stroke-width="0.515" stroke-miterlimit="10" stroke-linecap="round"/>
<path d="M101.933 65.2898V72.7729" stroke="#85CEE4" stroke-width="0.515" stroke-miterlimit="10" stroke-linecap="round"/>
<path d="M103.299 65.4609V72.7728" stroke="#85CEE4" stroke-width="0.515" stroke-miterlimit="10" stroke-linecap="round"/>
<path d="M100.953 65.2898V72.7595" stroke="#85CEE4" stroke-width="0.515" stroke-miterlimit="10" stroke-linecap="round"/>
<path d="M125.88 68.2576V73.1892L131.946 73.2967V69.117L125.88 68.2576Z" stroke="#85CEE4" stroke-width="0.515" stroke-miterlimit="10" stroke-linecap="round"/>
<path d="M131.016 68.9827V73.2798" stroke="#85CEE4" stroke-width="0.515" stroke-miterlimit="10" stroke-linecap="round"/>
<path d="M128.911 68.6873V73.2429" stroke="#85CEE4" stroke-width="0.515" stroke-miterlimit="10" stroke-linecap="round"/>
<path d="M128.085 68.6201V73.2295" stroke="#85CEE4" stroke-width="0.515" stroke-miterlimit="10" stroke-linecap="round"/>
<path d="M127.565 68.4956V73.2191" stroke="#85CEE4" stroke-width="0.515" stroke-miterlimit="10" stroke-linecap="round"/>
<path d="M2.51408 54.4326V91.3211L83.7104 127.152L122.153 96.2125L112.931 95.2591L88.5246 109.604V57.0948L49.3633 62.3387V98.9184" stroke="#85CEE4" stroke-width="1.03" stroke-miterlimit="10" stroke-linecap="round"/>
<path d="M122.153 16.2683V64.0407" stroke="#85CEE4" stroke-width="1.03" stroke-miterlimit="10" stroke-linecap="round"/>
<path d="M42.0447 40.5305V71.7823H44.68V100.103L49.3633 98.9183L63.7588 102.846" stroke="#85CEE4" stroke-width="1.03" stroke-miterlimit="10" stroke-linecap="round"/>
<path d="M15.2344 90.9754L5.16624 92.3955V72.6084L15.043 72.323L15.2344 90.9754ZM15.2344 90.9754L44.68 100.104" stroke="#85CEE4" stroke-width="1.03" stroke-miterlimit="10" stroke-linecap="round"/>
<path d="M2.51408 91.3213V95.5144L83.6835 136.76V127.152" stroke="#85CEE4" stroke-width="1.03" stroke-miterlimit="10" stroke-linecap="round"/>
<path d="M35.4311 133.796C40.2165 133.796 44.0959 132.309 44.0959 130.476C44.0959 128.642 40.2165 127.156 35.4311 127.156C30.6456 127.156 26.7662 128.642 26.7662 130.476C26.7662 132.309 30.6456 133.796 35.4311 133.796Z" stroke="#85CEE4" stroke-width="0.515" stroke-miterlimit="10" stroke-linecap="round"/>
<path d="M29.2539 120.317C29.2539 121.233 27.3134 121.979 24.9198 121.979C22.5261 121.979 20.5857 121.237 20.5857 120.317C20.5857 119.397 22.5261 118.655 24.9198 118.655C27.3134 118.655 29.2539 119.397 29.2539 120.317Z" stroke="#85CEE4" stroke-width="0.515" stroke-miterlimit="10" stroke-linecap="round"/>
<path d="M125.88 113.975C128.273 113.975 130.214 113.231 130.214 112.313C130.214 111.396 128.273 110.652 125.88 110.652C123.486 110.652 121.546 111.396 121.546 112.313C121.546 113.231 123.486 113.975 125.88 113.975Z" stroke="#85CEE4" stroke-width="0.515" stroke-miterlimit="10" stroke-linecap="round"/>
<path d="M122.402 120.317C122.402 121.233 120.461 121.979 118.068 121.979C115.674 121.979 113.733 121.237 113.733 120.317C113.733 119.397 115.674 118.655 118.068 118.655C120.461 118.655 122.402 119.397 122.402 120.317Z" stroke="#85CEE4" stroke-width="0.515" stroke-miterlimit="10" stroke-linecap="round"/>
<path d="M108.986 132.138C111.38 132.138 113.321 131.394 113.321 130.476C113.321 129.558 111.38 128.814 108.986 128.814C106.593 128.814 104.652 129.558 104.652 130.476C104.652 131.394 106.593 132.138 108.986 132.138Z" stroke="#85CEE4" stroke-width="0.515" stroke-miterlimit="10" stroke-linecap="round"/>
<path d="M83.6835 136.76L135.793 87.7627V42.723L122.153 18.397L76.8383 34.6557V50.2094L42.0447 40.5307L2.51408 55.3929" stroke="#85CEE4" stroke-width="1.03" stroke-miterlimit="10" stroke-linecap="round"/>
<path d="M76.8383 50.2095V58.6494" stroke="#85CEE4" stroke-width="1.03" stroke-miterlimit="10" stroke-linecap="round"/>
<path d="M122.153 96.2125V64.0408" stroke="#85CEE4" stroke-width="1.03" stroke-miterlimit="10" stroke-linecap="round"/>
<path d="M88.5246 57.095L112.79 62.1072L112.931 95.2592" stroke="#85CEE4" stroke-width="1.03" stroke-miterlimit="10" stroke-linecap="round"/>
<path d="M49.6789 47.9836V57.095L74.0821 61.8689V54.2615L49.6789 47.9836Z" stroke="#85CEE4" stroke-width="0.515" stroke-miterlimit="10" stroke-linecap="round"/>
<path d="M74.0821 54.2615L72.1148 54.755L72.2155 61.5029" stroke="#85CEE4" stroke-width="0.515" stroke-miterlimit="10" stroke-linecap="round"/>
<path d="M72.1148 54.7549L49.6789 49.1753" stroke="#85CEE4" stroke-width="0.515" stroke-miterlimit="10" stroke-linecap="round"/>
<path d="M71.44 61.3518V55.1813L49.6789 49.8267" stroke="#85CEE4" stroke-width="0.515" stroke-miterlimit="10" stroke-linecap="round"/>
<path d="M71.44 55.1814H70.9028V61.2478" stroke="#85CEE4" stroke-width="0.515" stroke-miterlimit="10" stroke-linecap="round"/>
<path d="M66.3707 53.9324V60.358" stroke="#85CEE4" stroke-width="0.515" stroke-miterlimit="10" stroke-linecap="round"/>
<path d="M65.6153 53.7478V60.1533" stroke="#85CEE4" stroke-width="0.515" stroke-miterlimit="10" stroke-linecap="round"/>
<path d="M65.0949 53.7478V60.1331" stroke="#85CEE4" stroke-width="0.515" stroke-miterlimit="10" stroke-linecap="round"/>
<path d="M57.9878 51.9651V58.7197" stroke="#85CEE4" stroke-width="0.515" stroke-miterlimit="10" stroke-linecap="round"/>
<path d="M56.9471 58.5149V51.6125" stroke="#85CEE4" stroke-width="0.515" stroke-miterlimit="10" stroke-linecap="round"/>
<path d="M56.3361 51.4614V58.3705" stroke="#85CEE4" stroke-width="0.515" stroke-miterlimit="10" stroke-linecap="round"/>
<path d="M42.0447 71.7825L15.043 72.323" stroke="#85CEE4" stroke-width="1.03" stroke-miterlimit="10" stroke-linecap="round"/>
<path d="M34.8805 49.7126V64.2861" stroke="#85CEE4" stroke-width="0.515" stroke-miterlimit="10" stroke-linecap="round"/>
<path d="M24.0671 53.5898V65.7394" stroke="#85CEE4" stroke-width="0.515" stroke-miterlimit="10" stroke-linecap="round"/>
<path d="M17.5038 55.9468V66.6225" stroke="#85CEE4" stroke-width="0.515" stroke-miterlimit="10" stroke-linecap="round"/>
<path d="M8.78861 59.0723V68.0627" stroke="#85CEE4" stroke-width="0.515" stroke-miterlimit="10" stroke-linecap="round"/>
<path d="M8.78861 59.0723L10.0845 59.2536V67.6196" stroke="#85CEE4" stroke-width="0.515" stroke-miterlimit="10" stroke-linecap="round"/>
<path d="M10.0845 59.2534L17.5038 56.8665" stroke="#85CEE4" stroke-width="0.515" stroke-miterlimit="10" stroke-linecap="round"/>
<path d="M24.0671 53.5898L25.8262 53.8013V65.4675" stroke="#85CEE4" stroke-width="0.515" stroke-miterlimit="10" stroke-linecap="round"/>
<path d="M25.8262 53.8015L34.8805 50.686" stroke="#85CEE4" stroke-width="0.515" stroke-miterlimit="10" stroke-linecap="round"/>
<path d="M26.3768 65.4306V54.1405L34.8805 51.2869" stroke="#85CEE4" stroke-width="0.515" stroke-miterlimit="10" stroke-linecap="round"/>
<path d="M31.2111 52.5159V64.7796" stroke="#85CEE4" stroke-width="0.515" stroke-miterlimit="10" stroke-linecap="round"/>
<path d="M31.9128 64.6855V52.2808L32.413 52.5158V64.6183" stroke="#85CEE4" stroke-width="0.515" stroke-miterlimit="10" stroke-linecap="round"/>
<path d="M26.3768 54.1406L26.7662 54.3051V65.377" stroke="#85CEE4" stroke-width="0.515" stroke-miterlimit="10" stroke-linecap="round"/>
<path d="M26.7662 54.3052L31.2111 52.875" stroke="#85CEE4" stroke-width="0.515" stroke-miterlimit="10" stroke-linecap="round"/>
<path d="M32.413 52.5156L34.8805 51.6763" stroke="#85CEE4" stroke-width="0.515" stroke-miterlimit="10" stroke-linecap="round"/>
<path d="M10.5444 67.5591V59.5288L17.5038 57.4507" stroke="#85CEE4" stroke-width="0.515" stroke-miterlimit="10" stroke-linecap="round"/>
<path d="M14.0224 58.4915V67.0891" stroke="#85CEE4" stroke-width="0.515" stroke-miterlimit="10" stroke-linecap="round"/>
<path d="M14.4857 67.0289V58.3506L14.8248 58.4916V66.9819" stroke="#85CEE4" stroke-width="0.515" stroke-miterlimit="10" stroke-linecap="round"/>
<path d="M10.5444 59.5288L10.8566 59.643V67.5155" stroke="#85CEE4" stroke-width="0.515" stroke-miterlimit="10" stroke-linecap="round"/>
<path d="M10.8566 59.6429L14.0224 58.7163" stroke="#85CEE4" stroke-width="0.515" stroke-miterlimit="10" stroke-linecap="round"/>
<path d="M14.8248 58.4912L17.5038 57.6956" stroke="#85CEE4" stroke-width="0.515" stroke-miterlimit="10" stroke-linecap="round"/>
<path d="M3.7831 43.7234V108.876" stroke="#85CEE4" stroke-width="0.1545" stroke-miterlimit="10" stroke-linecap="round"/>
<path d="M41.954 31.54V128.72" stroke="#85CEE4" stroke-width="0.1545" stroke-miterlimit="10" stroke-linecap="round"/>
<path d="M44.68 32.6111V131.543" stroke="#85CEE4" stroke-width="0.1545" stroke-miterlimit="10" stroke-linecap="round"/>
<path d="M76.7241 30.5667V140.87" stroke="#85CEE4" stroke-width="0.1545" stroke-miterlimit="10" stroke-linecap="round"/>
<path d="M122.153 11.1487V110.736" stroke="#85CEE4" stroke-width="0.1545" stroke-miterlimit="10" stroke-linecap="round"/>
<path d="M60.0458 23.8354V106.66" stroke="#85CEE4" stroke-width="0.1545" stroke-miterlimit="10" stroke-linecap="round"/>
<path d="M135.793 33.4036V97.6328" stroke="#85CEE4" stroke-width="0.1545" stroke-miterlimit="10" stroke-linecap="round"/>
<path d="M88.6186 49.3601V113.589" stroke="#85CEE4" stroke-width="0.1545" stroke-miterlimit="10" stroke-linecap="round"/>
<path d="M1 51.2936L127.565 1" stroke="#85CEE4" stroke-width="0.1545" stroke-miterlimit="10" stroke-linecap="round"/>
<path d="M138.211 41.0308L115.201 1" stroke="#85CEE4" stroke-width="0.1545" stroke-miterlimit="10" stroke-linecap="round"/>
<path d="M109.268 26.9141V61.2981" stroke="#85CEE4" stroke-width="0.515" stroke-miterlimit="10" stroke-linecap="round"/>
<path d="M17.7455 74.2131H41.954V89.599L17.7455 86.2183V74.2131Z" stroke="#85CEE4" stroke-width="0.515" stroke-miterlimit="10" stroke-linecap="round"/>
<path d="M19.2797 74.2131V85.9766L17.7455 86.2183" stroke="#85CEE4" stroke-width="0.515" stroke-miterlimit="10" stroke-linecap="round"/>
<path d="M19.2797 85.9766L41.954 88.9644" stroke="#85CEE4" stroke-width="0.515" stroke-miterlimit="10" stroke-linecap="round"/>
<path d="M20.015 74.2131V85.51L41.954 88.0715" stroke="#85CEE4" stroke-width="0.515" stroke-miterlimit="10" stroke-linecap="round"/>
<path d="M29.8481 74.2131V86.6581" stroke="#85CEE4" stroke-width="0.515" stroke-miterlimit="10" stroke-linecap="round"/>
<path d="M31.6677 86.7891V74.2131" stroke="#85CEE4" stroke-width="0.515" stroke-miterlimit="10" stroke-linecap="round"/>
<path d="M30.9862 74.2131V86.7891" stroke="#85CEE4" stroke-width="0.515" stroke-miterlimit="10" stroke-linecap="round"/>
<path d="M20.015 85.51H20.5689V74.2131" stroke="#85CEE4" stroke-width="0.515" stroke-miterlimit="10" stroke-linecap="round"/>
</svg>
