<svg width="371" height="163" viewBox="0 0 371 163" fill="none" xmlns="http://www.w3.org/2000/svg">
<g clip-path="url(#clip0_533_22771)">
<rect width="371" height="163" rx="12" fill="white"/>
<path d="M136.837 173.547H74.0033C73.8206 173.547 73.677 173.403 73.677 173.22V149.779C73.677 149.596 73.8206 149.452 74.0033 149.452H136.837C137.019 149.452 137.163 149.596 137.163 149.779V173.22C137.163 173.403 137.019 173.547 136.837 173.547ZM74.3296 172.894H136.51V150.105H74.3296V172.894Z" fill="black"/>
<path d="M379.255 179.355C379.072 179.355 378.928 179.211 378.928 179.029V100.872H261.42V179.029C261.42 179.211 261.276 179.355 261.093 179.355C260.911 179.355 260.767 179.211 260.767 179.029V100.546C260.767 100.363 260.911 100.219 261.093 100.219H379.255C379.437 100.219 379.581 100.363 379.581 100.546V179.029C379.581 179.211 379.437 179.355 379.255 179.355Z" fill="black"/>
<path d="M338.414 179.642C338.232 179.642 338.088 179.498 338.088 179.316C338.088 165.624 344.875 152.859 356.244 145.184C356.387 145.08 356.596 145.119 356.7 145.275C356.805 145.419 356.766 145.628 356.609 145.732C345.423 153.29 338.741 165.846 338.741 179.329C338.741 179.498 338.597 179.642 338.414 179.642Z" fill="black"/>
<path d="M360.727 142.904L358.44 144.163L378.133 179.943L380.42 178.684L360.727 142.904Z" fill="black"/>
<path d="M65.6761 179.642C65.4933 179.642 65.3498 179.498 65.3498 179.315C65.3498 165.832 58.6671 153.276 47.4813 145.719C47.3378 145.615 47.2986 145.419 47.39 145.262C47.4944 145.119 47.6902 145.079 47.8468 145.171C59.2152 152.846 66.0024 165.611 66.0024 179.302C66.0024 179.498 65.8588 179.642 65.6761 179.642Z" fill="black"/>
<path d="M43.3767 142.897L23.6917 178.681L25.9789 179.939L45.6639 144.155L43.3767 142.897Z" fill="black"/>
<path d="M177.142 59.0659C177.037 59.0659 176.933 59.0137 176.868 58.9223C169.31 47.7366 156.754 41.0539 143.271 41.0539C143.089 41.0539 142.945 40.9103 142.945 40.7275C142.945 40.5448 143.089 40.4012 143.271 40.4012C156.963 40.4012 169.728 47.1884 177.403 58.5568C177.507 58.7004 177.468 58.9092 177.311 59.0137C177.259 59.0528 177.207 59.0659 177.142 59.0659Z" fill="black"/>
<path d="M144.577 40.7275H141.966V80.119H144.577V40.7275Z" fill="black"/>
<path d="M178.428 60.7539L142.644 80.439L143.902 82.7262L179.686 63.0412L178.428 60.7539Z" fill="black"/>
<path d="M23.5305 130.409H20.9201C20.7373 130.409 20.5938 130.265 20.5938 130.083V70.9955C20.5938 70.8128 20.7373 70.6692 20.9201 70.6692H23.5305C23.7132 70.6692 23.8568 70.8128 23.8568 70.9955V130.083C23.8568 130.265 23.7002 130.409 23.5305 130.409ZM21.2464 129.756H23.2042V71.3218H21.2464V129.756Z" fill="black"/>
<path d="M260.989 219.033H142.932C142.749 219.033 142.606 218.89 142.606 218.707V100.546C142.606 100.363 142.749 100.219 142.932 100.219H260.989C261.172 100.219 261.315 100.363 261.315 100.546V218.707C261.315 218.89 261.172 219.033 260.989 219.033ZM143.258 218.381H260.663V100.872H143.258V218.381Z" fill="black"/>
<path d="M260.989 135.16H182.323C182.141 135.16 181.997 135.016 181.997 134.834V100.546C181.997 100.363 182.141 100.219 182.323 100.219H260.989C261.172 100.219 261.315 100.363 261.315 100.546V134.834C261.315 135.016 261.172 135.16 260.989 135.16ZM182.65 134.507H260.663V100.872H182.65V134.507Z" fill="black"/>
<path d="M162.628 136.661C158.268 136.661 154.718 131.949 154.718 126.167C154.718 120.385 158.268 115.673 162.628 115.673C166.987 115.673 170.537 120.385 170.537 126.167C170.537 131.949 166.987 136.661 162.628 136.661ZM162.628 116.352C158.634 116.352 155.397 120.763 155.397 126.167C155.397 131.584 158.647 135.982 162.628 135.982C166.609 135.982 169.859 131.571 169.859 126.167C169.859 120.75 166.622 116.352 162.628 116.352Z" fill="black"/>
<path d="M172.704 114.773H152.551C151.612 114.773 150.842 114.002 150.842 113.063V107.698C150.842 106.758 151.612 105.988 152.551 105.988H172.704C173.644 105.988 174.414 106.758 174.414 107.698V113.063C174.401 114.015 173.644 114.773 172.704 114.773ZM152.551 106.798C152.055 106.798 151.651 107.202 151.651 107.698V113.063C151.651 113.559 152.055 113.963 152.551 113.963H172.704C173.2 113.963 173.605 113.559 173.605 113.063V107.698C173.605 107.202 173.2 106.798 172.704 106.798H152.551Z" fill="black"/>
<path d="M236.307 122.147C236.164 122.147 236.02 122.056 235.968 121.912C234.31 117.592 228.437 114.564 221.715 114.564C214.98 114.564 209.119 117.579 207.462 121.912C207.357 122.186 206.901 122.186 206.783 121.912C206.444 121.025 206.261 120.124 206.261 119.263C206.261 113.494 213.192 108.808 221.715 108.808C230.238 108.808 237.169 113.494 237.169 119.263C237.169 120.124 236.999 121.025 236.646 121.912C236.581 122.056 236.451 122.147 236.307 122.147ZM221.715 109.539C213.596 109.539 206.992 113.911 206.992 119.276C206.992 119.772 207.057 120.281 207.188 120.79C209.354 116.665 215.15 113.859 221.728 113.859C228.293 113.859 234.088 116.665 236.268 120.79C236.398 120.281 236.464 119.772 236.464 119.276C236.438 113.911 229.833 109.539 221.715 109.539Z" fill="black"/>
<path d="M221.715 129.731C214.693 129.731 208.545 126.52 206.783 121.925C206.757 121.847 206.757 121.756 206.783 121.664C208.545 117.07 214.693 113.859 221.715 113.859C228.737 113.859 234.884 117.07 236.647 121.664C236.673 121.743 236.673 121.834 236.647 121.925C234.871 126.52 228.737 129.731 221.715 129.731ZM207.501 121.795C209.237 126.05 215.045 129.013 221.702 129.013C228.371 129.013 234.18 126.05 235.903 121.795C234.167 117.54 228.358 114.577 221.702 114.577C215.045 114.577 209.237 117.54 207.501 121.795Z" fill="black"/>
<path d="M217.29 105.323C217.29 104.487 217.969 103.809 218.804 103.809C219.64 103.809 220.318 104.487 220.318 105.323C220.318 106.158 219.64 106.837 218.804 106.837C217.969 106.837 217.29 106.158 217.29 105.323Z" fill="black"/>
<path d="M222.994 105.323C222.994 104.487 223.673 103.809 224.508 103.809C225.343 103.809 226.022 104.487 226.022 105.323C226.022 106.158 225.343 106.837 224.508 106.837C223.673 106.837 222.994 106.158 222.994 105.323Z" fill="black"/>
<path d="M24.7705 179.642C24.5878 179.642 24.4442 179.498 24.4442 179.316V21.7627C24.4442 21.58 24.5878 21.4364 24.7705 21.4364H261.093C261.276 21.4364 261.42 21.58 261.42 21.7627V100.533C261.42 100.715 261.276 100.859 261.093 100.859C260.911 100.859 260.767 100.715 260.767 100.533V22.089H25.0968V179.316C25.0968 179.498 24.9532 179.642 24.7705 179.642Z" fill="black"/>
<path d="M143.258 21.7627H142.606V40.7275H143.258V21.7627Z" fill="black"/>
<path d="M143.258 80.1189H142.606V100.546H143.258V80.1189Z" fill="black"/>
<path d="M123.236 124.353H122.975C122.871 124.353 122.779 124.262 122.779 124.157C122.779 124.053 122.871 123.961 122.975 123.961H123.04V123.113C123.04 123.009 123.132 122.917 123.236 122.917C123.341 122.917 123.432 123.009 123.432 123.113V124.157C123.432 124.262 123.354 124.353 123.236 124.353ZM120.365 124.353H119.06C118.955 124.353 118.864 124.262 118.864 124.157C118.864 124.053 118.955 123.961 119.06 123.961H120.365C120.469 123.961 120.56 124.053 120.56 124.157C120.56 124.262 120.469 124.353 120.365 124.353ZM116.449 124.353H115.144C115.039 124.353 114.948 124.262 114.948 124.157C114.948 124.053 115.039 123.961 115.144 123.961H116.449C116.553 123.961 116.645 124.053 116.645 124.157C116.645 124.262 116.553 124.353 116.449 124.353ZM112.533 124.353H111.228C111.124 124.353 111.032 124.262 111.032 124.157C111.032 124.053 111.124 123.961 111.228 123.961H112.533C112.638 123.961 112.729 124.053 112.729 124.157C112.729 124.262 112.638 124.353 112.533 124.353ZM108.618 124.353H107.313C107.208 124.353 107.117 124.262 107.117 124.157C107.117 124.053 107.208 123.961 107.313 123.961H108.618C108.722 123.961 108.814 124.053 108.814 124.157C108.814 124.262 108.722 124.353 108.618 124.353ZM104.702 124.353H103.397C103.292 124.353 103.201 124.262 103.201 124.157C103.201 124.053 103.292 123.961 103.397 123.961H104.702C104.807 123.961 104.898 124.053 104.898 124.157C104.898 124.262 104.807 124.353 104.702 124.353ZM100.786 124.353H99.4812C99.3768 124.353 99.2854 124.262 99.2854 124.157C99.2854 124.053 99.3768 123.961 99.4812 123.961H100.786C100.891 123.961 100.982 124.053 100.982 124.157C100.982 124.262 100.891 124.353 100.786 124.353ZM96.8708 124.353H95.5656C95.4612 124.353 95.3698 124.262 95.3698 124.157C95.3698 124.053 95.4612 123.961 95.5656 123.961H96.8708C96.9752 123.961 97.0666 124.053 97.0666 124.157C97.0666 124.262 96.9752 124.353 96.8708 124.353ZM92.9551 124.353H91.6499C91.5455 124.353 91.4541 124.262 91.4541 124.157C91.4541 124.053 91.5455 123.961 91.6499 123.961H92.9551C93.0596 123.961 93.1509 124.053 93.1509 124.157C93.1509 124.262 93.0596 124.353 92.9551 124.353ZM89.0395 124.353H87.7343C87.6299 124.353 87.5385 124.262 87.5385 124.157C87.5385 124.053 87.6299 123.961 87.7343 123.961H89.0395C89.1439 123.961 89.2353 124.053 89.2353 124.157C89.2353 124.262 89.1439 124.353 89.0395 124.353ZM85.1238 124.353H83.8186C83.7142 124.353 83.6228 124.262 83.6228 124.157C83.6228 124.053 83.7142 123.961 83.8186 123.961H85.1238C85.2283 123.961 85.3196 124.053 85.3196 124.157C85.3196 124.262 85.2283 124.353 85.1238 124.353ZM81.2082 124.353H79.903C79.7985 124.353 79.7072 124.262 79.7072 124.157C79.7072 124.053 79.7985 123.961 79.903 123.961H81.2082C81.3126 123.961 81.404 124.053 81.404 124.157C81.404 124.262 81.3126 124.353 81.2082 124.353ZM77.2925 124.353H75.9873C75.8829 124.353 75.7915 124.262 75.7915 124.157C75.7915 124.053 75.8829 123.961 75.9873 123.961H77.2925C77.3969 123.961 77.4883 124.053 77.4883 124.157C77.4883 124.262 77.3969 124.353 77.2925 124.353ZM73.3769 124.353H72.0717C71.9672 124.353 71.8759 124.262 71.8759 124.157C71.8759 124.053 71.9672 123.961 72.0717 123.961H73.3769C73.4813 123.961 73.5726 124.053 73.5726 124.157C73.5726 124.262 73.4813 124.353 73.3769 124.353ZM69.4612 124.353H68.156C68.0516 124.353 67.9602 124.262 67.9602 124.157C67.9602 124.053 68.0516 123.961 68.156 123.961H69.4612C69.5656 123.961 69.657 124.053 69.657 124.157C69.657 124.262 69.5656 124.353 69.4612 124.353ZM65.5456 124.353H64.2403C64.1359 124.353 64.0446 124.262 64.0446 124.157C64.0446 124.053 64.1359 123.961 64.2403 123.961H65.5456C65.65 123.961 65.7413 124.053 65.7413 124.157C65.7413 124.262 65.65 124.353 65.5456 124.353ZM61.6299 124.353H60.3247C60.2203 124.353 60.1289 124.262 60.1289 124.157C60.1289 124.053 60.2203 123.961 60.3247 123.961H61.6299C61.7343 123.961 61.8257 124.053 61.8257 124.157C61.8257 124.262 61.7343 124.353 61.6299 124.353ZM57.7143 124.353H56.409C56.3046 124.353 56.2133 124.262 56.2133 124.157C56.2133 124.053 56.3046 123.961 56.409 123.961H57.7143C57.8187 123.961 57.91 124.053 57.91 124.157C57.91 124.262 57.8187 124.353 57.7143 124.353ZM53.7986 124.353H52.4934C52.389 124.353 52.2976 124.262 52.2976 124.157C52.2976 124.053 52.389 123.961 52.4934 123.961H53.7986C53.903 123.961 53.9944 124.053 53.9944 124.157C53.9944 124.262 53.903 124.353 53.7986 124.353ZM49.8829 124.353H48.5777C48.4733 124.353 48.3819 124.262 48.3819 124.157C48.3819 124.053 48.4733 123.961 48.5777 123.961H49.8829C49.9874 123.961 50.0787 124.053 50.0787 124.157C50.0787 124.262 49.9874 124.353 49.8829 124.353ZM45.9673 124.353H44.6621C44.5577 124.353 44.4663 124.262 44.4663 124.157C44.4663 124.053 44.5577 123.961 44.6621 123.961H45.9673C46.0717 123.961 46.1631 124.053 46.1631 124.157C46.1631 124.262 46.0717 124.353 45.9673 124.353ZM44.4663 121.938C44.3619 121.938 44.2705 121.847 44.2705 121.743V120.437C44.2705 120.333 44.3619 120.241 44.4663 120.241C44.5707 120.241 44.6621 120.333 44.6621 120.437V121.743C44.6621 121.847 44.5707 121.938 44.4663 121.938ZM123.236 120.698C123.132 120.698 123.04 120.607 123.04 120.503V119.197C123.04 119.093 123.132 119.002 123.236 119.002C123.341 119.002 123.432 119.093 123.432 119.197V120.503C123.432 120.607 123.354 120.698 123.236 120.698ZM44.4663 118.023C44.3619 118.023 44.2705 117.931 44.2705 117.827V116.522C44.2705 116.417 44.3619 116.326 44.4663 116.326C44.5707 116.326 44.6621 116.417 44.6621 116.522V117.827C44.6621 117.931 44.5707 118.023 44.4663 118.023ZM123.236 116.783C123.132 116.783 123.04 116.691 123.04 116.587V115.282C123.04 115.177 123.132 115.086 123.236 115.086C123.341 115.086 123.432 115.177 123.432 115.282V116.587C123.432 116.691 123.354 116.783 123.236 116.783ZM44.4663 114.107C44.3619 114.107 44.2705 114.016 44.2705 113.911V112.606C44.2705 112.502 44.3619 112.41 44.4663 112.41C44.5707 112.41 44.6621 112.502 44.6621 112.606V113.911C44.6621 114.016 44.5707 114.107 44.4663 114.107ZM123.236 112.867C123.132 112.867 123.04 112.776 123.04 112.671V111.366C123.04 111.262 123.132 111.17 123.236 111.17C123.341 111.17 123.432 111.262 123.432 111.366V112.671C123.432 112.776 123.354 112.867 123.236 112.867ZM44.4663 110.191C44.3619 110.191 44.2705 110.1 44.2705 109.996V108.69C44.2705 108.586 44.3619 108.495 44.4663 108.495C44.5707 108.495 44.6621 108.586 44.6621 108.69V109.996C44.6621 110.1 44.5707 110.191 44.4663 110.191ZM123.236 108.951C123.132 108.951 123.04 108.86 123.04 108.756V107.45C123.04 107.346 123.132 107.255 123.236 107.255C123.341 107.255 123.432 107.346 123.432 107.45V108.756C123.432 108.86 123.354 108.951 123.236 108.951ZM44.4663 106.276C44.3619 106.276 44.2705 106.184 44.2705 106.08V104.775C44.2705 104.67 44.3619 104.579 44.4663 104.579C44.5707 104.579 44.6621 104.67 44.6621 104.775V106.08C44.6621 106.184 44.5707 106.276 44.4663 106.276ZM123.236 105.036C123.132 105.036 123.04 104.944 123.04 104.84V103.535C123.04 103.43 123.132 103.339 123.236 103.339C123.341 103.339 123.432 103.43 123.432 103.535V104.84C123.432 104.944 123.354 105.036 123.236 105.036ZM44.4663 102.36C44.3619 102.36 44.2705 102.269 44.2705 102.164V100.859C44.2705 100.755 44.3619 100.663 44.4663 100.663C44.5707 100.663 44.6621 100.755 44.6621 100.859V102.164C44.6621 102.269 44.5707 102.36 44.4663 102.36ZM123.236 101.12C123.132 101.12 123.04 101.029 123.04 100.924V99.6191C123.04 99.5146 123.132 99.4233 123.236 99.4233C123.341 99.4233 123.432 99.5146 123.432 99.6191V100.924C123.432 101.029 123.354 101.12 123.236 101.12ZM44.4663 98.4444C44.3619 98.4444 44.2705 98.353 44.2705 98.2486V96.9434C44.2705 96.8389 44.3619 96.7476 44.4663 96.7476C44.5707 96.7476 44.6621 96.8389 44.6621 96.9434V98.2486C44.6621 98.353 44.5707 98.4444 44.4663 98.4444ZM123.236 97.2044C123.132 97.2044 123.04 97.113 123.04 97.0086V95.7034C123.04 95.599 123.132 95.5076 123.236 95.5076C123.341 95.5076 123.432 95.599 123.432 95.7034V97.0086C123.432 97.113 123.354 97.2044 123.236 97.2044ZM44.4663 94.5287C44.3619 94.5287 44.2705 94.4373 44.2705 94.3329V93.0277C44.2705 92.9233 44.3619 92.8319 44.4663 92.8319C44.5707 92.8319 44.6621 92.9233 44.6621 93.0277V94.3329C44.6621 94.4373 44.5707 94.5287 44.4663 94.5287ZM123.236 93.2887C123.132 93.2887 123.04 93.1974 123.04 93.093V91.7878C123.04 91.6833 123.132 91.592 123.236 91.592C123.341 91.592 123.432 91.6833 123.432 91.7878V93.093C123.432 93.1974 123.354 93.2887 123.236 93.2887ZM44.4663 90.6131C44.3619 90.6131 44.2705 90.5217 44.2705 90.4173V89.112C44.2705 89.0076 44.3619 88.9163 44.4663 88.9163C44.5707 88.9163 44.6621 89.0076 44.6621 89.112V90.4173C44.6621 90.5217 44.5707 90.6131 44.4663 90.6131ZM123.236 89.3731C123.132 89.3731 123.04 89.2817 123.04 89.1773V87.8721C123.04 87.7677 123.132 87.6763 123.236 87.6763C123.341 87.6763 123.432 87.7677 123.432 87.8721V89.1773C123.432 89.2817 123.354 89.3731 123.236 89.3731ZM44.4663 86.6974C44.3619 86.6974 44.2705 86.606 44.2705 86.5016V85.1964C44.2705 85.092 44.3619 85.0006 44.4663 85.0006C44.5707 85.0006 44.6621 85.092 44.6621 85.1964V86.5016C44.6621 86.606 44.5707 86.6974 44.4663 86.6974ZM123.236 85.4574C123.132 85.4574 123.04 85.3661 123.04 85.2617V83.9564C123.04 83.852 123.132 83.7607 123.236 83.7607C123.341 83.7607 123.432 83.852 123.432 83.9564V85.2617C123.432 85.3661 123.354 85.4574 123.236 85.4574ZM44.4663 82.7817C44.3619 82.7817 44.2705 82.6904 44.2705 82.586V81.2807C44.2705 81.1763 44.3619 81.085 44.4663 81.085C44.5707 81.085 44.6621 81.1763 44.6621 81.2807V82.586C44.6621 82.6904 44.5707 82.7817 44.4663 82.7817ZM123.236 81.5418C123.132 81.5418 123.04 81.4504 123.04 81.346V80.0408C123.04 79.9364 123.132 79.845 123.236 79.845C123.341 79.845 123.432 79.9364 123.432 80.0408V81.346C123.432 81.4504 123.354 81.5418 123.236 81.5418ZM44.4663 78.8661C44.3619 78.8661 44.2705 78.7747 44.2705 78.6703V77.3651C44.2705 77.2607 44.3619 77.1693 44.4663 77.1693C44.5707 77.1693 44.6621 77.2607 44.6621 77.3651V78.6703C44.6621 78.7747 44.5707 78.8661 44.4663 78.8661ZM123.236 77.6261C123.132 77.6261 123.04 77.5348 123.04 77.4304V76.1251C123.04 76.0207 123.132 75.9293 123.236 75.9293C123.341 75.9293 123.432 76.0207 123.432 76.1251V77.4304C123.432 77.5348 123.354 77.6261 123.236 77.6261ZM44.4663 74.9504C44.3619 74.9504 44.2705 74.8591 44.2705 74.7547V73.4494C44.2705 73.345 44.3619 73.2536 44.4663 73.2536C44.5707 73.2536 44.6621 73.345 44.6621 73.4494V74.7547C44.6621 74.8591 44.5707 74.9504 44.4663 74.9504ZM123.236 73.7105C123.132 73.7105 123.04 73.6191 123.04 73.5147V72.2095C123.04 72.1051 123.132 72.0137 123.236 72.0137C123.341 72.0137 123.432 72.1051 123.432 72.2095V73.5147C123.432 73.6191 123.354 73.7105 123.236 73.7105ZM44.4663 71.0348C44.3619 71.0348 44.2705 70.9434 44.2705 70.839V69.5338C44.2705 69.4294 44.3619 69.338 44.4663 69.338C44.5707 69.338 44.6621 69.4294 44.6621 69.5338V70.839C44.6621 70.9434 44.5707 71.0348 44.4663 71.0348ZM123.236 69.7948C123.132 69.7948 123.04 69.7035 123.04 69.599V68.2938C123.04 68.1894 123.132 68.098 123.236 68.098C123.341 68.098 123.432 68.1894 123.432 68.2938V69.599C123.432 69.7035 123.354 69.7948 123.236 69.7948ZM44.4663 67.1191C44.3619 67.1191 44.2705 67.0278 44.2705 66.9233V65.6181C44.2705 65.5137 44.3619 65.4223 44.4663 65.4223C44.5707 65.4223 44.6621 65.5137 44.6621 65.6181V66.9233C44.6621 67.0278 44.5707 67.1191 44.4663 67.1191ZM123.236 65.8792C123.132 65.8792 123.04 65.7878 123.04 65.6834V64.3782C123.04 64.2738 123.132 64.1824 123.236 64.1824C123.341 64.1824 123.432 64.2738 123.432 64.3782V65.6834C123.432 65.7878 123.354 65.8792 123.236 65.8792ZM44.4663 63.2035C44.3619 63.2035 44.2705 63.1121 44.2705 63.0077V61.7025C44.2705 61.5981 44.3619 61.5067 44.4663 61.5067C44.5707 61.5067 44.6621 61.5981 44.6621 61.7025V63.0077C44.6621 63.1121 44.5707 63.2035 44.4663 63.2035ZM123.236 61.9635C123.132 61.9635 123.04 61.8722 123.04 61.7677V60.4625C123.04 60.3581 123.132 60.2667 123.236 60.2667C123.341 60.2667 123.432 60.3581 123.432 60.4625V61.7677C123.432 61.8722 123.354 61.9635 123.236 61.9635ZM44.4663 59.2878C44.3619 59.2878 44.2705 59.1964 44.2705 59.092V57.7868C44.2705 57.6824 44.3619 57.591 44.4663 57.591C44.5707 57.591 44.6621 57.6824 44.6621 57.7868V59.092C44.6621 59.1964 44.5707 59.2878 44.4663 59.2878ZM123.236 58.0479C123.132 58.0479 123.04 57.9565 123.04 57.8521V56.5469C123.04 56.4424 123.132 56.3511 123.236 56.3511C123.341 56.3511 123.432 56.4424 123.432 56.5469V57.8521C123.432 57.9565 123.354 58.0479 123.236 58.0479ZM44.4663 55.3722C44.3619 55.3722 44.2705 55.2808 44.2705 55.1764V53.8712C44.2705 53.7667 44.3619 53.6754 44.4663 53.6754C44.5707 53.6754 44.6621 53.7667 44.6621 53.8712V55.1764C44.6621 55.2808 44.5707 55.3722 44.4663 55.3722ZM123.236 54.1322C123.132 54.1322 123.04 54.0408 123.04 53.9364V52.6312C123.04 52.5268 123.132 52.4354 123.236 52.4354C123.341 52.4354 123.432 52.5268 123.432 52.6312V53.9364C123.432 54.0408 123.354 54.1322 123.236 54.1322ZM44.4663 51.4565C44.3619 51.4565 44.2705 51.3651 44.2705 51.2607V49.9555C44.2705 49.8511 44.3619 49.7597 44.4663 49.7597C44.5707 49.7597 44.6621 49.8511 44.6621 49.9555V51.2607C44.6621 51.3651 44.5707 51.4565 44.4663 51.4565ZM123.236 50.2166C123.132 50.2166 123.04 50.1252 123.04 50.0208V48.7156C123.04 48.6111 123.132 48.5198 123.236 48.5198C123.341 48.5198 123.432 48.6111 123.432 48.7156V50.0208C123.432 50.1252 123.354 50.2166 123.236 50.2166ZM44.4663 47.5409C44.3619 47.5409 44.2705 47.4495 44.2705 47.3451V46.0399C44.2705 45.9354 44.3619 45.8441 44.4663 45.8441C44.5707 45.8441 44.6621 45.9354 44.6621 46.0399V47.3451C44.6621 47.4495 44.5707 47.5409 44.4663 47.5409ZM123.236 46.3009C123.132 46.3009 123.04 46.2095 123.04 46.1051V44.7999C123.04 44.6955 123.132 44.6041 123.236 44.6041C123.341 44.6041 123.432 44.6955 123.432 44.7999V46.1051C123.432 46.2095 123.354 46.3009 123.236 46.3009ZM44.4663 43.6252C44.3619 43.6252 44.2705 43.5338 44.2705 43.4294V42.1242C44.2705 42.0198 44.3619 41.9284 44.4663 41.9284C44.5707 41.9284 44.6621 42.0198 44.6621 42.1242V43.4294C44.6621 43.5338 44.5707 43.6252 44.4663 43.6252ZM123.236 42.3853C123.132 42.3853 123.04 42.2939 123.04 42.1895V40.8842C123.04 40.7798 123.132 40.6885 123.236 40.6885C123.341 40.6885 123.432 40.7798 123.432 40.8842V42.1895C123.432 42.2939 123.354 42.3853 123.236 42.3853ZM44.4663 39.7095C44.3619 39.7095 44.2705 39.6182 44.2705 39.5138V38.2085C44.2705 38.1041 44.3619 38.0128 44.4663 38.0128C44.5707 38.0128 44.6621 38.1041 44.6621 38.2085V39.5138C44.6621 39.6182 44.5707 39.7095 44.4663 39.7095ZM123.236 38.4696C123.132 38.4696 123.04 38.3782 123.04 38.2738V36.9686C123.04 36.8642 123.132 36.7728 123.236 36.7728C123.341 36.7728 123.432 36.8642 123.432 36.9686V38.2738C123.432 38.3782 123.354 38.4696 123.236 38.4696ZM44.4663 35.7939C44.3619 35.7939 44.2705 35.7025 44.2705 35.5981V34.2929C44.2705 34.1885 44.3619 34.0971 44.4663 34.0971C44.5707 34.0971 44.6621 34.1885 44.6621 34.2929V35.5981C44.6621 35.7025 44.5707 35.7939 44.4663 35.7939ZM123.236 34.5539C123.132 34.5539 123.04 34.4626 123.04 34.3582V33.0529C123.04 32.9485 123.132 32.8572 123.236 32.8572C123.341 32.8572 123.432 32.9485 123.432 33.0529V34.3582C123.432 34.4626 123.354 34.5539 123.236 34.5539ZM44.4663 31.8782C44.3619 31.8782 44.2705 31.7869 44.2705 31.6825V30.3772C44.2705 30.2728 44.3619 30.1815 44.4663 30.1815C44.5707 30.1815 44.6621 30.2728 44.6621 30.3772V31.6825C44.6621 31.7869 44.5707 31.8782 44.4663 31.8782ZM123.236 30.6383C123.132 30.6383 123.04 30.5469 123.04 30.4425V29.1373C123.04 29.0329 123.132 28.9415 123.236 28.9415C123.341 28.9415 123.432 29.0329 123.432 29.1373V30.4425C123.432 30.5469 123.354 30.6383 123.236 30.6383ZM44.4663 27.9626C44.3619 27.9626 44.2705 27.8712 44.2705 27.7668V26.4616C44.2705 26.3572 44.3619 26.2658 44.4663 26.2658C44.5707 26.2658 44.6621 26.3572 44.6621 26.4616V27.7668C44.6621 27.8712 44.5707 27.9626 44.4663 27.9626ZM123.236 26.7226C123.132 26.7226 123.04 26.6313 123.04 26.5268V25.2216C123.04 25.1172 123.132 25.0258 123.236 25.0258C123.341 25.0258 123.432 25.1172 123.432 25.2216V26.5268C123.432 26.6313 123.354 26.7226 123.236 26.7226ZM44.4663 24.0469C44.3619 24.0469 44.2705 23.9556 44.2705 23.8511V22.5459C44.2705 22.4415 44.3619 22.3502 44.4663 22.3502C44.5707 22.3502 44.6621 22.4415 44.6621 22.5459V23.8511C44.6621 23.9556 44.5707 24.0469 44.4663 24.0469ZM123.236 22.807C123.132 22.807 123.04 22.7156 123.04 22.6112V21.9586H122.779C122.675 21.9586 122.584 21.8672 122.584 21.7628C122.584 21.6584 122.675 21.567 122.779 21.567H123.236C123.341 21.567 123.432 21.6584 123.432 21.7628V22.6112C123.432 22.7156 123.354 22.807 123.236 22.807ZM120.169 21.9586H118.864C118.759 21.9586 118.668 21.8672 118.668 21.7628C118.668 21.6584 118.759 21.567 118.864 21.567H120.169C120.273 21.567 120.365 21.6584 120.365 21.7628C120.365 21.8803 120.273 21.9586 120.169 21.9586ZM116.253 21.9586H114.948C114.844 21.9586 114.752 21.8672 114.752 21.7628C114.752 21.6584 114.844 21.567 114.948 21.567H116.253C116.358 21.567 116.449 21.6584 116.449 21.7628C116.449 21.8803 116.358 21.9586 116.253 21.9586ZM112.338 21.9586H111.032C110.928 21.9586 110.837 21.8672 110.837 21.7628C110.837 21.6584 110.928 21.567 111.032 21.567H112.338C112.442 21.567 112.533 21.6584 112.533 21.7628C112.533 21.8803 112.442 21.9586 112.338 21.9586ZM108.422 21.9586H107.117C107.012 21.9586 106.921 21.8672 106.921 21.7628C106.921 21.6584 107.012 21.567 107.117 21.567H108.422C108.526 21.567 108.618 21.6584 108.618 21.7628C108.618 21.8803 108.526 21.9586 108.422 21.9586ZM104.506 21.9586H103.201C103.097 21.9586 103.005 21.8672 103.005 21.7628C103.005 21.6584 103.097 21.567 103.201 21.567H104.506C104.611 21.567 104.702 21.6584 104.702 21.7628C104.702 21.8803 104.611 21.9586 104.506 21.9586ZM100.591 21.9586H99.2854C99.181 21.9586 99.0897 21.8672 99.0897 21.7628C99.0897 21.6584 99.181 21.567 99.2854 21.567H100.591C100.695 21.567 100.786 21.6584 100.786 21.7628C100.786 21.8803 100.695 21.9586 100.591 21.9586ZM96.675 21.9586H95.3698C95.2654 21.9586 95.174 21.8672 95.174 21.7628C95.174 21.6584 95.2654 21.567 95.3698 21.567H96.675C96.7794 21.567 96.8708 21.6584 96.8708 21.7628C96.8708 21.8803 96.7794 21.9586 96.675 21.9586ZM92.7594 21.9586H91.4541C91.3497 21.9586 91.2584 21.8672 91.2584 21.7628C91.2584 21.6584 91.3497 21.567 91.4541 21.567H92.7594C92.8638 21.567 92.9551 21.6584 92.9551 21.7628C92.9551 21.8803 92.8638 21.9586 92.7594 21.9586ZM88.8437 21.9586H87.5385C87.4341 21.9586 87.3427 21.8672 87.3427 21.7628C87.3427 21.6584 87.4341 21.567 87.5385 21.567H88.8437C88.9481 21.567 89.0395 21.6584 89.0395 21.7628C89.0395 21.8803 88.9481 21.9586 88.8437 21.9586ZM84.9281 21.9586H83.6228C83.5184 21.9586 83.427 21.8672 83.427 21.7628C83.427 21.6584 83.5184 21.567 83.6228 21.567H84.9281C85.0325 21.567 85.1238 21.6584 85.1238 21.7628C85.1238 21.8803 85.0325 21.9586 84.9281 21.9586ZM81.0124 21.9586H79.7072C79.6028 21.9586 79.5114 21.8672 79.5114 21.7628C79.5114 21.6584 79.6028 21.567 79.7072 21.567H81.0124C81.1168 21.567 81.2082 21.6584 81.2082 21.7628C81.2082 21.8803 81.1168 21.9586 81.0124 21.9586ZM77.0967 21.9586H75.7915C75.6871 21.9586 75.5957 21.8672 75.5957 21.7628C75.5957 21.6584 75.6871 21.567 75.7915 21.567H77.0967C77.2012 21.567 77.2925 21.6584 77.2925 21.7628C77.2925 21.8803 77.2012 21.9586 77.0967 21.9586ZM73.1811 21.9586H71.8759C71.7715 21.9586 71.6801 21.8672 71.6801 21.7628C71.6801 21.6584 71.7715 21.567 71.8759 21.567H73.1811C73.2855 21.567 73.3769 21.6584 73.3769 21.7628C73.3769 21.8803 73.2855 21.9586 73.1811 21.9586ZM69.2654 21.9586H67.9602C67.8558 21.9586 67.7644 21.8672 67.7644 21.7628C67.7644 21.6584 67.8558 21.567 67.9602 21.567H69.2654C69.3699 21.567 69.4612 21.6584 69.4612 21.7628C69.4612 21.8803 69.3699 21.9586 69.2654 21.9586ZM65.3498 21.9586H64.0446C63.9401 21.9586 63.8488 21.8672 63.8488 21.7628C63.8488 21.6584 63.9401 21.567 64.0446 21.567H65.3498C65.4542 21.567 65.5456 21.6584 65.5456 21.7628C65.5456 21.8803 65.4542 21.9586 65.3498 21.9586ZM61.4341 21.9586H60.1289C60.0245 21.9586 59.9331 21.8672 59.9331 21.7628C59.9331 21.6584 60.0245 21.567 60.1289 21.567H61.4341C61.5385 21.567 61.6299 21.6584 61.6299 21.7628C61.6299 21.8803 61.5385 21.9586 61.4341 21.9586ZM57.5185 21.9586H56.2133C56.1088 21.9586 56.0175 21.8672 56.0175 21.7628C56.0175 21.6584 56.1088 21.567 56.2133 21.567H57.5185C57.6229 21.567 57.7143 21.6584 57.7143 21.7628C57.7143 21.8803 57.6229 21.9586 57.5185 21.9586ZM53.6028 21.9586H52.2976C52.1932 21.9586 52.1018 21.8672 52.1018 21.7628C52.1018 21.6584 52.1932 21.567 52.2976 21.567H53.6028C53.7072 21.567 53.7986 21.6584 53.7986 21.7628C53.7986 21.8803 53.7072 21.9586 53.6028 21.9586ZM49.6872 21.9586H48.3819C48.2775 21.9586 48.1862 21.8672 48.1862 21.7628C48.1862 21.6584 48.2775 21.567 48.3819 21.567H49.6872C49.7916 21.567 49.8829 21.6584 49.8829 21.7628C49.8829 21.8803 49.7916 21.9586 49.6872 21.9586ZM45.7715 21.9586H44.4663C44.3619 21.9586 44.2705 21.8672 44.2705 21.7628C44.2705 21.6584 44.3619 21.567 44.4663 21.567H45.7715C45.8759 21.567 45.9673 21.6584 45.9673 21.7628C45.9673 21.8803 45.8759 21.9586 45.7715 21.9586Z" fill="black"/>
<path d="M118.015 119.249H49.6871C49.5044 119.249 49.3608 119.106 49.3608 118.923V25.6784C49.3608 25.4956 49.5044 25.3521 49.6871 25.3521H118.015C118.198 25.3521 118.342 25.4956 118.342 25.6784V118.923C118.342 119.106 118.198 119.249 118.015 119.249ZM50.0134 118.597H117.689V26.0047H50.0134V118.597Z" fill="black"/>
<path d="M118.015 119.197H49.6872C49.5436 119.197 49.4131 119.08 49.4131 118.923V45.3743C49.4131 45.2308 49.5306 45.1002 49.6872 45.1002H118.015C118.159 45.1002 118.289 45.2177 118.289 45.3743V118.923C118.289 119.08 118.172 119.197 118.015 119.197ZM49.9613 118.662H117.754V45.6484H49.9613V118.662Z" fill="black"/>
<path d="M111.032 42.1636H88.922C88.7785 42.1636 88.6479 42.0461 88.6479 41.8895V29.1506C88.6479 29.007 88.7654 28.8765 88.922 28.8765H111.032C111.176 28.8765 111.307 28.9939 111.307 29.1506V41.8895C111.293 42.0461 111.176 42.1636 111.032 42.1636ZM89.1961 41.6284H110.758V29.4247H89.1961V41.6284Z" fill="black"/>
<path d="M78.7805 42.1636H56.6701C56.5265 42.1636 56.396 42.0461 56.396 41.8895V29.1506C56.396 29.007 56.5135 28.8765 56.6701 28.8765H78.7805C78.9241 28.8765 79.0546 28.9939 79.0546 29.1506V41.8895C79.0546 42.0461 78.9241 42.1636 78.7805 42.1636ZM56.9442 41.6284H78.5064V29.4247H56.9442V41.6284Z" fill="black"/>
<path d="M236.307 73.4361C236.242 73.4361 236.164 73.41 236.124 73.3448L232.117 68.398C232.039 68.2936 232.052 68.15 232.157 68.0586C232.261 67.9803 232.405 67.9934 232.496 68.0978L236.503 73.0446C236.581 73.149 236.568 73.2926 236.464 73.3839C236.412 73.41 236.359 73.4361 236.307 73.4361Z" fill="black"/>
<path d="M232.3 67.2233C232.248 67.2233 232.196 67.2102 232.157 67.171C232.052 67.0927 232.039 66.9361 232.117 66.8317L236.124 61.8849C236.203 61.7805 236.359 61.7674 236.464 61.8458C236.568 61.9241 236.581 62.0807 236.503 62.1851L232.496 67.1319C232.431 67.1972 232.365 67.2233 232.3 67.2233Z" fill="black"/>
<path d="M236.307 60.7103C236.242 60.7103 236.164 60.6842 236.124 60.6189L232.117 55.6722C232.039 55.5678 232.052 55.4242 232.157 55.3328C232.261 55.2545 232.405 55.2676 232.496 55.372L236.503 60.3187C236.581 60.4232 236.568 60.5667 236.464 60.6581C236.412 60.6973 236.359 60.7103 236.307 60.7103Z" fill="black"/>
<path d="M232.3 54.4974C232.248 54.4974 232.196 54.4844 232.157 54.4452C232.052 54.3669 232.039 54.2103 232.117 54.1059L236.124 49.1591C236.203 49.0547 236.359 49.0416 236.464 49.1199C236.568 49.1982 236.581 49.3549 236.503 49.4593L232.496 54.4061C232.431 54.4713 232.365 54.4974 232.3 54.4974Z" fill="black"/>
<path d="M261.093 100.872H251.852C251.67 100.872 251.526 100.728 251.526 100.546V21.8018C251.526 21.619 251.67 21.4755 251.852 21.4755H261.093C261.276 21.4755 261.42 21.619 261.42 21.8018V100.546C261.42 100.715 261.276 100.872 261.093 100.872ZM252.179 100.219H260.767V22.1281H252.179V100.219Z" fill="black"/>
<path d="M251.865 26.5262C251.787 26.5262 251.696 26.5001 251.63 26.4349C251.5 26.3043 251.5 26.0955 251.63 25.978L256.029 21.5795C256.159 21.4489 256.368 21.4489 256.486 21.5795C256.616 21.71 256.616 21.9188 256.486 22.0363L252.087 26.4349C252.035 26.5001 251.944 26.5262 251.865 26.5262Z" fill="black"/>
<path d="M251.865 31.3555C251.787 31.3555 251.696 31.3294 251.63 31.2642C251.5 31.1337 251.5 30.9248 251.63 30.8073L260.858 21.5795C260.989 21.4489 261.198 21.4489 261.315 21.5795C261.446 21.71 261.446 21.9188 261.315 22.0363L252.087 31.2642C252.035 31.3294 251.944 31.3555 251.865 31.3555Z" fill="black"/>
<path d="M251.865 36.1983C251.787 36.1983 251.696 36.1722 251.63 36.107C251.5 35.9764 251.5 35.7676 251.63 35.6501L260.858 26.4222C260.989 26.2917 261.198 26.2917 261.315 26.4222C261.446 26.5528 261.446 26.7616 261.315 26.8791L252.087 36.107C252.035 36.1592 251.944 36.1983 251.865 36.1983Z" fill="black"/>
<path d="M251.865 41.0275C251.787 41.0275 251.696 41.0014 251.63 40.9362C251.5 40.8056 251.5 40.5968 251.63 40.4793L260.858 31.2515C260.989 31.1209 261.198 31.1209 261.315 31.2515C261.446 31.382 261.446 31.5908 261.315 31.7083L252.087 40.9362C252.035 41.0014 251.944 41.0275 251.865 41.0275Z" fill="black"/>
<path d="M251.865 45.8568C251.787 45.8568 251.696 45.8307 251.63 45.7654C251.5 45.6349 251.5 45.426 251.63 45.3086L260.858 36.0807C260.989 35.9502 261.198 35.9502 261.315 36.0807C261.446 36.2112 261.446 36.42 261.315 36.5375L252.087 45.7654C252.035 45.8307 251.944 45.8568 251.865 45.8568Z" fill="black"/>
<path d="M251.865 50.6861C251.787 50.6861 251.696 50.66 251.63 50.5947C251.5 50.4642 251.5 50.2554 251.63 50.1379L260.858 40.91C260.989 40.7795 261.198 40.7795 261.315 40.91C261.446 41.0405 261.446 41.2494 261.315 41.3668L252.087 50.5947C252.035 50.66 251.944 50.6861 251.865 50.6861Z" fill="black"/>
<path d="M251.865 55.5284C251.787 55.5284 251.696 55.5023 251.63 55.437C251.5 55.3065 251.5 55.0977 251.63 54.9802L260.858 45.7523C260.989 45.6218 261.198 45.6218 261.315 45.7523C261.446 45.8828 261.446 46.0917 261.315 46.2091L252.087 55.437C252.035 55.4892 251.944 55.5284 251.865 55.5284Z" fill="black"/>
<path d="M251.865 60.358C251.787 60.358 251.696 60.3319 251.63 60.2666C251.5 60.1361 251.5 59.9273 251.63 59.8098L260.858 50.5819C260.989 50.4514 261.198 50.4514 261.315 50.5819C261.446 50.7124 261.446 50.9213 261.315 51.0387L252.087 60.2666C252.035 60.3319 251.944 60.358 251.865 60.358Z" fill="black"/>
<path d="M251.865 65.2003C251.787 65.2003 251.696 65.1742 251.63 65.1089C251.5 64.9784 251.5 64.7695 251.63 64.6521L260.858 55.4242C260.989 55.2937 261.198 55.2937 261.315 55.4242C261.446 55.5547 261.446 55.7635 261.315 55.881L252.087 65.1089C252.035 65.1742 251.944 65.2003 251.865 65.2003Z" fill="black"/>
<path d="M251.865 70.0426C251.787 70.0426 251.696 70.0164 251.63 69.9512C251.5 69.8207 251.5 69.6118 251.63 69.4944L260.858 60.2665C260.989 60.1359 261.198 60.1359 261.315 60.2665C261.446 60.397 261.446 60.6058 261.315 60.7233L252.087 69.9512C252.035 70.0164 251.944 70.0426 251.865 70.0426Z" fill="black"/>
<path d="M251.865 74.8848C251.787 74.8848 251.696 74.8587 251.63 74.7935C251.5 74.6629 251.5 74.4541 251.63 74.3366L260.858 65.1088C260.989 64.9782 261.198 64.9782 261.315 65.1088C261.446 65.2393 261.446 65.4481 261.315 65.5656L252.087 74.7935C252.035 74.8587 251.944 74.8848 251.865 74.8848Z" fill="black"/>
<path d="M251.865 79.7402C251.787 79.7402 251.696 79.7141 251.63 79.6488C251.5 79.5183 251.5 79.3095 251.63 79.192L260.858 69.9641C260.989 69.8336 261.198 69.8336 261.315 69.9641C261.446 70.0946 261.446 70.3035 261.315 70.4209L252.087 79.6488C252.035 79.701 251.944 79.7402 251.865 79.7402Z" fill="black"/>
<path d="M251.865 84.5826C251.787 84.5826 251.696 84.5565 251.63 84.4912C251.5 84.3607 251.5 84.1519 251.63 84.0344L260.858 74.8065C260.989 74.676 261.198 74.676 261.315 74.8065C261.446 74.937 261.446 75.1459 261.315 75.2633L252.087 84.4912C252.035 84.5434 251.944 84.5826 251.865 84.5826Z" fill="black"/>
<path d="M251.865 89.4251C251.787 89.4251 251.696 89.399 251.63 89.3338C251.5 89.2032 251.5 88.9944 251.63 88.8769L260.858 79.649C260.989 79.5185 261.198 79.5185 261.315 79.649C261.446 79.7796 261.446 79.9884 261.315 80.1059L252.087 89.3338C252.035 89.386 251.944 89.4251 251.865 89.4251Z" fill="black"/>
<path d="M251.865 94.2675C251.787 94.2675 251.696 94.2414 251.63 94.1762C251.5 94.0456 251.5 93.8368 251.63 93.7193L260.858 84.4914C260.989 84.3609 261.198 84.3609 261.315 84.4914C261.446 84.622 261.446 84.8308 261.315 84.9483L252.087 94.1762C252.035 94.2414 251.944 94.2675 251.865 94.2675Z" fill="black"/>
<path d="M251.865 99.1098C251.787 99.1098 251.696 99.0837 251.63 99.0185C251.5 98.8879 251.5 98.6791 251.63 98.5616L260.858 89.3337C260.989 89.2032 261.198 89.2032 261.315 89.3337C261.446 89.4643 261.446 89.6731 261.315 89.7906L252.087 99.0185C252.035 99.0837 251.944 99.1098 251.865 99.1098Z" fill="black"/>
<path d="M255.141 100.676C255.063 100.676 254.972 100.65 254.906 100.585C254.776 100.454 254.776 100.245 254.906 100.128L260.858 94.176C260.989 94.0455 261.198 94.0455 261.315 94.176C261.446 94.3065 261.446 94.5154 261.315 94.6328L255.363 100.585C255.311 100.637 255.233 100.676 255.141 100.676Z" fill="black"/>
<path d="M259.984 100.676C259.906 100.676 259.814 100.65 259.749 100.585C259.618 100.454 259.618 100.245 259.749 100.128L260.858 99.0183C260.989 98.8878 261.198 98.8878 261.315 99.0183C261.446 99.1488 261.446 99.3577 261.315 99.4751L260.206 100.585C260.153 100.637 260.075 100.676 259.984 100.676Z" fill="black"/>
<path d="M236.307 100.885C236.124 100.885 235.968 100.728 235.968 100.546V75.6681C235.968 75.4854 236.124 75.3287 236.307 75.3287C236.49 75.3287 236.646 75.4854 236.646 75.6681V100.546C236.646 100.728 236.49 100.885 236.307 100.885Z" fill="black"/>
<path d="M236.307 47.1884C236.124 47.1884 235.968 47.0317 235.968 46.849V21.9716C235.968 21.7888 236.124 21.6322 236.307 21.6322C236.49 21.6322 236.646 21.7888 236.646 21.9716V46.849C236.646 47.0317 236.49 47.1884 236.307 47.1884Z" fill="black"/>
<path d="M226.466 90.8868H225.161C225.056 90.8868 224.965 90.7955 224.965 90.691C224.965 90.5866 225.056 90.4953 225.161 90.4953H226.466C226.57 90.4953 226.662 90.5866 226.662 90.691C226.662 90.7955 226.57 90.8868 226.466 90.8868ZM222.55 90.8868H221.245C221.141 90.8868 221.049 90.7955 221.049 90.691C221.049 90.5866 221.141 90.4953 221.245 90.4953H222.55C222.655 90.4953 222.746 90.5866 222.746 90.691C222.746 90.7955 222.655 90.8868 222.55 90.8868ZM218.634 90.8868H217.329C217.225 90.8868 217.133 90.7955 217.133 90.691C217.133 90.5866 217.225 90.4953 217.329 90.4953H218.634C218.739 90.4953 218.83 90.5866 218.83 90.691C218.83 90.7955 218.739 90.8868 218.634 90.8868ZM214.719 90.8868H213.414C213.309 90.8868 213.218 90.7955 213.218 90.691C213.218 90.5866 213.309 90.4953 213.414 90.4953H214.719C214.823 90.4953 214.915 90.5866 214.915 90.691C214.915 90.7955 214.823 90.8868 214.719 90.8868ZM210.803 90.8868H209.498C209.394 90.8868 209.302 90.7955 209.302 90.691C209.302 90.5866 209.394 90.4953 209.498 90.4953H210.803C210.908 90.4953 210.999 90.5866 210.999 90.691C210.999 90.7955 210.908 90.8868 210.803 90.8868ZM206.888 90.8868H205.582C205.478 90.8868 205.387 90.7955 205.387 90.691C205.387 90.5866 205.478 90.4953 205.582 90.4953H206.888C206.992 90.4953 207.083 90.5866 207.083 90.691C207.083 90.7955 206.992 90.8868 206.888 90.8868ZM202.972 90.8868H201.667C201.562 90.8868 201.471 90.7955 201.471 90.691C201.471 90.5866 201.562 90.4953 201.667 90.4953H202.972C203.076 90.4953 203.168 90.5866 203.168 90.691C203.168 90.7955 203.076 90.8868 202.972 90.8868ZM199.056 90.8868H197.751C197.647 90.8868 197.555 90.7955 197.555 90.691C197.555 90.5866 197.647 90.4953 197.751 90.4953H199.056C199.161 90.4953 199.252 90.5866 199.252 90.691C199.252 90.7955 199.161 90.8868 199.056 90.8868ZM195.141 90.8868H193.835C193.731 90.8868 193.64 90.7955 193.64 90.691C193.64 90.5866 193.731 90.4953 193.835 90.4953H195.141C195.245 90.4953 195.336 90.5866 195.336 90.691C195.336 90.7955 195.245 90.8868 195.141 90.8868ZM191.225 90.8868H189.92C189.815 90.8868 189.724 90.7955 189.724 90.691C189.724 90.5866 189.815 90.4953 189.92 90.4953H191.225C191.329 90.4953 191.421 90.5866 191.421 90.691C191.421 90.7955 191.329 90.8868 191.225 90.8868ZM187.309 90.8868H186.004C185.9 90.8868 185.808 90.7955 185.808 90.691C185.808 90.5866 185.9 90.4953 186.004 90.4953H187.309C187.414 90.4953 187.505 90.5866 187.505 90.691C187.505 90.7955 187.414 90.8868 187.309 90.8868ZM183.394 90.8868H182.088C181.984 90.8868 181.893 90.7955 181.893 90.691C181.893 90.5866 181.984 90.4953 182.088 90.4953H183.394C183.498 90.4953 183.589 90.5866 183.589 90.691C183.589 90.7955 183.498 90.8868 183.394 90.8868ZM179.478 90.8868H178.173C178.068 90.8868 177.977 90.7955 177.977 90.691C177.977 90.5866 178.068 90.4953 178.173 90.4953H179.478C179.582 90.4953 179.674 90.5866 179.674 90.691C179.674 90.7955 179.582 90.8868 179.478 90.8868ZM175.562 90.8868H174.257C174.153 90.8868 174.061 90.7955 174.061 90.691C174.061 90.5866 174.153 90.4953 174.257 90.4953H175.562C175.667 90.4953 175.758 90.5866 175.758 90.691C175.758 90.7955 175.667 90.8868 175.562 90.8868ZM171.647 90.8868H170.341C170.237 90.8868 170.146 90.7955 170.146 90.691C170.146 90.5866 170.237 90.4953 170.341 90.4953H171.647C171.751 90.4953 171.842 90.5866 171.842 90.691C171.842 90.7955 171.751 90.8868 171.647 90.8868ZM167.731 90.8868H166.426C166.321 90.8868 166.23 90.7955 166.23 90.691C166.23 90.5866 166.321 90.4953 166.426 90.4953H167.731C167.835 90.4953 167.927 90.5866 167.927 90.691C167.927 90.7955 167.835 90.8868 167.731 90.8868ZM163.815 90.8868H162.51C162.406 90.8868 162.314 90.7955 162.314 90.691C162.314 90.5866 162.406 90.4953 162.51 90.4953H163.815C163.92 90.4953 164.011 90.5866 164.011 90.691C164.011 90.7955 163.92 90.8868 163.815 90.8868ZM159.9 90.8868H158.594C158.49 90.8868 158.399 90.7955 158.399 90.691C158.399 90.5866 158.49 90.4953 158.594 90.4953H159.9C160.004 90.4953 160.095 90.5866 160.095 90.691C160.095 90.7955 160.004 90.8868 159.9 90.8868ZM155.984 90.8868H154.679C154.574 90.8868 154.483 90.7955 154.483 90.691C154.483 90.5866 154.574 90.4953 154.679 90.4953H155.984C156.088 90.4953 156.18 90.5866 156.18 90.691C156.18 90.7955 156.088 90.8868 155.984 90.8868ZM152.786 90.182C152.682 90.182 152.59 90.0906 152.59 89.9862V88.681C152.59 88.5766 152.682 88.4852 152.786 88.4852C152.891 88.4852 152.982 88.5766 152.982 88.681V89.9862C152.982 90.0906 152.891 90.182 152.786 90.182ZM227.171 88.9812C227.066 88.9812 226.975 88.8898 226.975 88.7854V87.4802C226.975 87.3758 227.066 87.2844 227.171 87.2844C227.275 87.2844 227.366 87.3758 227.366 87.4802V88.7854C227.366 88.8898 227.275 88.9812 227.171 88.9812ZM152.786 86.2663C152.682 86.2663 152.59 86.175 152.59 86.0706V84.7653C152.59 84.6609 152.682 84.5696 152.786 84.5696C152.891 84.5696 152.982 84.6609 152.982 84.7653V86.0706C152.982 86.175 152.891 86.2663 152.786 86.2663ZM227.171 85.0656C227.066 85.0656 226.975 84.9742 226.975 84.8698V83.5645C226.975 83.4601 227.066 83.3688 227.171 83.3688C227.275 83.3688 227.366 83.4601 227.366 83.5645V84.8698C227.366 84.9742 227.275 85.0656 227.171 85.0656ZM227.171 81.1499C227.066 81.1499 226.975 81.0585 226.975 80.9541V79.6489C226.975 79.5445 227.066 79.4531 227.171 79.4531C227.275 79.4531 227.366 79.5445 227.366 79.6489V80.9541C227.366 81.0585 227.275 81.1499 227.171 81.1499ZM227.171 77.2342C227.066 77.2342 226.975 77.1429 226.975 77.0385V75.7332C226.975 75.6288 227.066 75.5375 227.171 75.5375C227.275 75.5375 227.366 75.6288 227.366 75.7332V77.0385C227.366 77.1429 227.275 77.2342 227.171 77.2342ZM227.171 73.3186C227.066 73.3186 226.975 73.2272 226.975 73.1228V71.8176C226.975 71.7132 227.066 71.6218 227.171 71.6218C227.275 71.6218 227.366 71.7132 227.366 71.8176V73.1228C227.366 73.2272 227.275 73.3186 227.171 73.3186ZM227.171 69.4029C227.066 69.4029 226.975 69.3116 226.975 69.2071V67.9019C226.975 67.7975 227.066 67.7061 227.171 67.7061C227.275 67.7061 227.366 67.7975 227.366 67.9019V69.2071C227.366 69.3116 227.275 69.4029 227.171 69.4029ZM227.171 65.4873C227.066 65.4873 226.975 65.3959 226.975 65.2915V63.9863C226.975 63.8819 227.066 63.7905 227.171 63.7905C227.275 63.7905 227.366 63.8819 227.366 63.9863V65.2915C227.366 65.3959 227.275 65.4873 227.171 65.4873ZM227.171 61.5716C227.066 61.5716 226.975 61.4803 226.975 61.3758V60.0706C226.975 59.9662 227.066 59.8748 227.171 59.8748C227.275 59.8748 227.366 59.9662 227.366 60.0706V61.3758C227.366 61.4803 227.275 61.5716 227.171 61.5716ZM227.171 57.656C227.066 57.656 226.975 57.5646 226.975 57.4602V56.155C226.975 56.0506 227.066 55.9592 227.171 55.9592C227.275 55.9592 227.366 56.0506 227.366 56.155V57.4602C227.366 57.5646 227.275 57.656 227.171 57.656ZM227.171 53.7403C227.066 53.7403 226.975 53.649 226.975 53.5445V52.2393C226.975 52.1349 227.066 52.0435 227.171 52.0435C227.275 52.0435 227.366 52.1349 227.366 52.2393V53.5445C227.366 53.649 227.275 53.7403 227.171 53.7403ZM227.171 49.8247C227.066 49.8247 226.975 49.7333 226.975 49.6289V48.3237C226.975 48.2192 227.066 48.1279 227.171 48.1279C227.275 48.1279 227.366 48.2192 227.366 48.3237V49.6289C227.366 49.7333 227.275 49.8247 227.171 49.8247ZM227.171 45.909C227.066 45.909 226.975 45.8176 226.975 45.7132V44.408C226.975 44.3036 227.066 44.2122 227.171 44.2122C227.275 44.2122 227.366 44.3036 227.366 44.408V45.7132C227.366 45.8176 227.275 45.909 227.171 45.909ZM227.171 41.9934C227.066 41.9934 226.975 41.902 226.975 41.7976V40.4924C226.975 40.3879 227.066 40.2966 227.171 40.2966C227.275 40.2966 227.366 40.3879 227.366 40.4924V41.7976C227.366 41.902 227.275 41.9934 227.171 41.9934ZM227.171 38.0777C227.066 38.0777 226.975 37.9863 226.975 37.8819V36.5767C226.975 36.4723 227.066 36.3809 227.171 36.3809C227.275 36.3809 227.366 36.4723 227.366 36.5767V37.8819C227.366 37.9863 227.275 38.0777 227.171 38.0777ZM152.786 37.4512C152.682 37.4512 152.59 37.3598 152.59 37.2554V35.9502C152.59 35.8458 152.682 35.7544 152.786 35.7544C152.891 35.7544 152.982 35.8458 152.982 35.9502V37.2554C152.982 37.3598 152.891 37.4512 152.786 37.4512ZM227.171 34.162C227.066 34.162 226.975 34.0707 226.975 33.9663V32.661C226.975 32.5566 227.066 32.4653 227.171 32.4653C227.275 32.4653 227.366 32.5566 227.366 32.661V33.9663C227.366 34.0707 227.275 34.162 227.171 34.162ZM152.786 33.5355C152.682 33.5355 152.59 33.4442 152.59 33.3398V32.0345C152.59 31.9301 152.682 31.8388 152.786 31.8388C152.891 31.8388 152.982 31.9301 152.982 32.0345V33.3398C152.982 33.4442 152.891 33.5355 152.786 33.5355ZM226.179 31.2253H224.873C224.769 31.2253 224.678 31.1339 224.678 31.0295C224.678 30.9251 224.769 30.8337 224.873 30.8337H226.179C226.283 30.8337 226.374 30.9251 226.374 31.0295C226.374 31.1339 226.283 31.2253 226.179 31.2253ZM222.263 31.2253H220.958C220.853 31.2253 220.762 31.1339 220.762 31.0295C220.762 30.9251 220.853 30.8337 220.958 30.8337H222.263C222.367 30.8337 222.459 30.9251 222.459 31.0295C222.459 31.1339 222.367 31.2253 222.263 31.2253ZM218.347 31.2253H217.042C216.938 31.2253 216.846 31.1339 216.846 31.0295C216.846 30.9251 216.938 30.8337 217.042 30.8337H218.347C218.452 30.8337 218.543 30.9251 218.543 31.0295C218.543 31.1339 218.452 31.2253 218.347 31.2253ZM214.432 31.2253H213.126C213.022 31.2253 212.931 31.1339 212.931 31.0295C212.931 30.9251 213.022 30.8337 213.126 30.8337H214.432C214.536 30.8337 214.627 30.9251 214.627 31.0295C214.627 31.1339 214.536 31.2253 214.432 31.2253ZM210.516 31.2253H209.211C209.106 31.2253 209.015 31.1339 209.015 31.0295C209.015 30.9251 209.106 30.8337 209.211 30.8337H210.516C210.62 30.8337 210.712 30.9251 210.712 31.0295C210.712 31.1339 210.62 31.2253 210.516 31.2253ZM206.6 31.2253H205.295C205.191 31.2253 205.099 31.1339 205.099 31.0295C205.099 30.9251 205.191 30.8337 205.295 30.8337H206.6C206.705 30.8337 206.796 30.9251 206.796 31.0295C206.796 31.1339 206.705 31.2253 206.6 31.2253ZM202.685 31.2253H201.38C201.275 31.2253 201.184 31.1339 201.184 31.0295C201.184 30.9251 201.275 30.8337 201.38 30.8337H202.685C202.789 30.8337 202.881 30.9251 202.881 31.0295C202.881 31.1339 202.789 31.2253 202.685 31.2253ZM198.769 31.2253H197.464C197.359 31.2253 197.268 31.1339 197.268 31.0295C197.268 30.9251 197.359 30.8337 197.464 30.8337H198.769C198.873 30.8337 198.965 30.9251 198.965 31.0295C198.965 31.1339 198.873 31.2253 198.769 31.2253ZM194.853 31.2253H193.548C193.444 31.2253 193.352 31.1339 193.352 31.0295C193.352 30.9251 193.444 30.8337 193.548 30.8337H194.853C194.958 30.8337 195.049 30.9251 195.049 31.0295C195.049 31.1339 194.958 31.2253 194.853 31.2253ZM190.938 31.2253H189.633C189.528 31.2253 189.437 31.1339 189.437 31.0295C189.437 30.9251 189.528 30.8337 189.633 30.8337H190.938C191.042 30.8337 191.134 30.9251 191.134 31.0295C191.134 31.1339 191.042 31.2253 190.938 31.2253ZM187.022 31.2253H185.717C185.612 31.2253 185.521 31.1339 185.521 31.0295C185.521 30.9251 185.612 30.8337 185.717 30.8337H187.022C187.127 30.8337 187.218 30.9251 187.218 31.0295C187.218 31.1339 187.127 31.2253 187.022 31.2253ZM183.106 31.2253H181.801C181.697 31.2253 181.605 31.1339 181.605 31.0295C181.605 30.9251 181.697 30.8337 181.801 30.8337H183.106C183.211 30.8337 183.302 30.9251 183.302 31.0295C183.302 31.1339 183.211 31.2253 183.106 31.2253ZM179.191 31.2253H177.886C177.781 31.2253 177.69 31.1339 177.69 31.0295C177.69 30.9251 177.781 30.8337 177.886 30.8337H179.191C179.295 30.8337 179.387 30.9251 179.387 31.0295C179.387 31.1339 179.295 31.2253 179.191 31.2253ZM175.275 31.2253H173.97C173.866 31.2253 173.774 31.1339 173.774 31.0295C173.774 30.9251 173.866 30.8337 173.97 30.8337H175.275C175.38 30.8337 175.471 30.9251 175.471 31.0295C175.471 31.1339 175.38 31.2253 175.275 31.2253ZM171.359 31.2253H170.054C169.95 31.2253 169.858 31.1339 169.858 31.0295C169.858 30.9251 169.95 30.8337 170.054 30.8337H171.359C171.464 30.8337 171.555 30.9251 171.555 31.0295C171.555 31.1339 171.464 31.2253 171.359 31.2253ZM167.444 31.2253H166.139C166.034 31.2253 165.943 31.1339 165.943 31.0295C165.943 30.9251 166.034 30.8337 166.139 30.8337H167.444C167.548 30.8337 167.64 30.9251 167.64 31.0295C167.64 31.1339 167.548 31.2253 167.444 31.2253ZM163.528 31.2253H162.223C162.119 31.2253 162.027 31.1339 162.027 31.0295C162.027 30.9251 162.119 30.8337 162.223 30.8337H163.528C163.633 30.8337 163.724 30.9251 163.724 31.0295C163.724 31.1339 163.633 31.2253 163.528 31.2253ZM159.613 31.2253H158.307C158.203 31.2253 158.112 31.1339 158.112 31.0295C158.112 30.9251 158.203 30.8337 158.307 30.8337H159.613C159.717 30.8337 159.808 30.9251 159.808 31.0295C159.808 31.1339 159.717 31.2253 159.613 31.2253ZM155.697 31.2253H154.392C154.287 31.2253 154.196 31.1339 154.196 31.0295C154.196 30.9251 154.287 30.8337 154.392 30.8337H155.697C155.801 30.8337 155.893 30.9251 155.893 31.0295C155.893 31.1339 155.801 31.2253 155.697 31.2253Z" fill="black"/>
<path d="M539.418 418.575H22.16C21.9773 418.575 21.8337 418.431 21.8337 418.249V19.1522C21.8337 18.9695 21.9773 18.8259 22.16 18.8259H263.704C263.886 18.8259 264.03 18.9695 264.03 19.1522V97.5958H539.418C539.601 97.5958 539.744 97.7394 539.744 97.9221V418.249C539.744 418.431 539.601 418.575 539.418 418.575ZM22.4863 417.922H539.092V98.2615H263.704C263.521 98.2615 263.377 98.1179 263.377 97.9352V19.4916H22.4863V417.922Z" fill="black"/>
<path d="M536.808 416.291H24.7705C24.4051 416.291 24.1179 416.004 24.1179 415.638V21.7627C24.1179 21.3973 24.4051 21.1101 24.7705 21.1101H261.093C261.459 21.1101 261.746 21.3973 261.746 21.7627V99.88H536.808C537.173 99.88 537.46 100.167 537.46 100.533V415.625C537.46 416.004 537.173 416.291 536.808 416.291ZM25.4231 414.986H536.155V101.198H261.132C260.832 101.224 260.519 101.055 260.428 100.768C260.402 100.689 260.388 100.598 260.388 100.52C260.388 100.428 260.415 100.324 260.454 100.245V22.4153H25.4231V414.986Z" fill="black"/>
<path d="M12.0838 448.895H11.2876L12.2926 452.628L13.2976 448.895H12.5015V24.7647H13.2976L12.2926 21.0317L11.2876 24.7647H12.0838V448.895Z" fill="black"/>
<path d="M273.075 82.6119H272.279L273.284 86.3449L274.289 82.6119H273.493V24.7647H274.289L273.284 21.0317L272.279 24.7647H273.075V82.6119Z" fill="black"/>
<path d="M277.056 88.7988L280.789 89.7908V88.9946H533.075V89.7908L536.808 88.7988L533.075 87.7938V88.59H280.789V87.7938L277.056 88.7988Z" fill="black"/>
<path d="M24.7705 10.0158L28.5034 11.0208V10.2246H257.36V11.0208L261.093 10.0158L257.36 9.0238V9.80693H28.5034V9.0238L24.7705 10.0158Z" fill="black"/>
<path d="M268.233 10.0158L271.966 11.0208V10.2246H533.597V11.0208L537.33 10.0158L533.597 9.0238V9.80693H271.966V9.0238L268.233 10.0158Z" fill="black"/>
<path d="M277.239 19.4655H269.329C269.16 19.4655 269.029 19.335 269.029 19.1653C269.029 18.9956 269.16 18.8651 269.329 18.8651H277.239C277.409 18.8651 277.539 18.9956 277.539 19.1653C277.539 19.3219 277.409 19.4655 277.239 19.4655Z" fill="black"/>
<path d="M263.704 14.2838C263.534 14.2838 263.404 14.1533 263.404 13.9836V6.074C263.404 5.90432 263.534 5.7738 263.704 5.7738C263.873 5.7738 264.004 5.90432 264.004 6.074V13.9836C264.017 14.1403 263.873 14.2838 263.704 14.2838Z" fill="black"/>
<path d="M22.1601 14.2838C21.9904 14.2838 21.8599 14.1533 21.8599 13.9836V6.074C21.8599 5.90432 21.9904 5.7738 22.1601 5.7738C22.3297 5.7738 22.4603 5.90432 22.4603 6.074V13.9836C22.4603 14.1403 22.3297 14.2838 22.1601 14.2838Z" fill="black"/>
<path d="M16.2474 19.4655H8.3378C8.16812 19.4655 8.0376 19.335 8.0376 19.1653C8.0376 18.9956 8.16812 18.8651 8.3378 18.8651H16.2474C16.4171 18.8651 16.5476 18.9956 16.5476 19.1653C16.5476 19.3219 16.4171 19.4655 16.2474 19.4655Z" fill="black"/>
<path d="M337.462 134.729C337.396 134.729 337.331 134.716 337.279 134.677C325.91 127.003 319.123 114.238 319.123 100.546C319.123 100.363 319.267 100.219 319.45 100.219C319.632 100.219 319.776 100.363 319.776 100.546C319.776 114.029 326.459 126.585 337.644 134.142C337.788 134.247 337.827 134.442 337.736 134.599C337.67 134.69 337.566 134.729 337.462 134.729Z" fill="black"/>
<path d="M358.841 99.2406H319.45V101.851H358.841V99.2406Z" fill="black"/>
<path d="M359.154 99.8953L339.452 135.671L341.739 136.931L361.44 101.155L359.154 99.8953Z" fill="black"/>
<path d="M177.142 157.531C177.037 157.531 176.933 157.479 176.868 157.388C169.31 146.202 156.754 139.519 143.271 139.519C143.089 139.519 142.945 139.376 142.945 139.193C142.945 139.01 143.089 138.867 143.271 138.867C156.963 138.867 169.728 145.654 177.403 157.022C177.507 157.166 177.468 157.375 177.311 157.479C177.259 157.518 177.207 157.531 177.142 157.531Z" fill="black"/>
<path d="M144.577 139.206H141.966V178.598H144.577V139.206Z" fill="black"/>
<path d="M178.423 159.224L142.639 178.909L143.897 181.196L179.682 161.511L178.423 159.224Z" fill="black"/>
<path d="M535.202 79.6098H534.602C534.497 79.6098 534.406 79.5184 534.406 79.414C534.406 79.3096 534.497 79.2182 534.602 79.2182H535.006V78.7092C535.006 78.6048 535.098 78.5134 535.202 78.5134C535.307 78.5134 535.398 78.6048 535.398 78.7092V79.414C535.398 79.5184 535.307 79.6098 535.202 79.6098ZM532.004 79.6098H530.699C530.595 79.6098 530.503 79.5184 530.503 79.414C530.503 79.3096 530.595 79.2182 530.699 79.2182H532.004C532.109 79.2182 532.2 79.3096 532.2 79.414C532.2 79.5184 532.109 79.6098 532.004 79.6098ZM528.089 79.6098H526.783C526.679 79.6098 526.588 79.5184 526.588 79.414C526.588 79.3096 526.679 79.2182 526.783 79.2182H528.089C528.193 79.2182 528.284 79.3096 528.284 79.414C528.284 79.5184 528.193 79.6098 528.089 79.6098ZM524.173 79.6098H522.868C522.763 79.6098 522.672 79.5184 522.672 79.414C522.672 79.3096 522.763 79.2182 522.868 79.2182H524.173C524.277 79.2182 524.369 79.3096 524.369 79.414C524.369 79.5184 524.277 79.6098 524.173 79.6098ZM520.257 79.6098H518.952C518.848 79.6098 518.756 79.5184 518.756 79.414C518.756 79.3096 518.848 79.2182 518.952 79.2182H520.257C520.362 79.2182 520.453 79.3096 520.453 79.414C520.453 79.5184 520.362 79.6098 520.257 79.6098ZM516.342 79.6098H515.037C514.932 79.6098 514.841 79.5184 514.841 79.414C514.841 79.3096 514.932 79.2182 515.037 79.2182H516.342C516.446 79.2182 516.538 79.3096 516.538 79.414C516.538 79.5184 516.446 79.6098 516.342 79.6098ZM512.426 79.6098H511.121C511.016 79.6098 510.925 79.5184 510.925 79.414C510.925 79.3096 511.016 79.2182 511.121 79.2182H512.426C512.531 79.2182 512.622 79.3096 512.622 79.414C512.622 79.5184 512.531 79.6098 512.426 79.6098ZM508.51 79.6098H507.205C507.101 79.6098 507.009 79.5184 507.009 79.414C507.009 79.3096 507.101 79.2182 507.205 79.2182H508.51C508.615 79.2182 508.706 79.3096 508.706 79.414C508.706 79.5184 508.615 79.6098 508.51 79.6098ZM504.595 79.6098H503.29C503.185 79.6098 503.094 79.5184 503.094 79.414C503.094 79.3096 503.185 79.2182 503.29 79.2182H504.595C504.699 79.2182 504.791 79.3096 504.791 79.414C504.791 79.5184 504.699 79.6098 504.595 79.6098ZM500.679 79.6098H499.374C499.27 79.6098 499.178 79.5184 499.178 79.414C499.178 79.3096 499.27 79.2182 499.374 79.2182H500.679C500.784 79.2182 500.875 79.3096 500.875 79.414C500.875 79.5184 500.784 79.6098 500.679 79.6098ZM496.763 79.6098H495.458C495.354 79.6098 495.262 79.5184 495.262 79.414C495.262 79.3096 495.354 79.2182 495.458 79.2182H496.763C496.868 79.2182 496.959 79.3096 496.959 79.414C496.959 79.5184 496.868 79.6098 496.763 79.6098ZM492.848 79.6098H491.543C491.438 79.6098 491.347 79.5184 491.347 79.414C491.347 79.3096 491.438 79.2182 491.543 79.2182H492.848C492.952 79.2182 493.044 79.3096 493.044 79.414C493.044 79.5184 492.952 79.6098 492.848 79.6098ZM488.932 79.6098H487.627C487.523 79.6098 487.431 79.5184 487.431 79.414C487.431 79.3096 487.523 79.2182 487.627 79.2182H488.932C489.037 79.2182 489.128 79.3096 489.128 79.414C489.128 79.5184 489.037 79.6098 488.932 79.6098ZM485.017 79.6098H483.711C483.607 79.6098 483.516 79.5184 483.516 79.414C483.516 79.3096 483.607 79.2182 483.711 79.2182H485.017C485.121 79.2182 485.212 79.3096 485.212 79.414C485.212 79.5184 485.121 79.6098 485.017 79.6098ZM481.101 79.6098H479.796C479.691 79.6098 479.6 79.5184 479.6 79.414C479.6 79.3096 479.691 79.2182 479.796 79.2182H481.101C481.205 79.2182 481.297 79.3096 481.297 79.414C481.297 79.5184 481.205 79.6098 481.101 79.6098ZM477.185 79.6098H475.88C475.776 79.6098 475.684 79.5184 475.684 79.414C475.684 79.3096 475.776 79.2182 475.88 79.2182H477.185C477.29 79.2182 477.381 79.3096 477.381 79.414C477.381 79.5184 477.29 79.6098 477.185 79.6098ZM473.27 79.6098H471.964C471.86 79.6098 471.769 79.5184 471.769 79.414C471.769 79.3096 471.86 79.2182 471.964 79.2182H473.27C473.374 79.2182 473.465 79.3096 473.465 79.414C473.465 79.5184 473.374 79.6098 473.27 79.6098ZM469.354 79.6098H468.049C467.944 79.6098 467.853 79.5184 467.853 79.414C467.853 79.3096 467.944 79.2182 468.049 79.2182H469.354C469.458 79.2182 469.55 79.3096 469.55 79.414C469.55 79.5184 469.458 79.6098 469.354 79.6098ZM465.438 79.6098H464.133C464.029 79.6098 463.937 79.5184 463.937 79.414C463.937 79.3096 464.029 79.2182 464.133 79.2182H465.438C465.543 79.2182 465.634 79.3096 465.634 79.414C465.634 79.5184 465.543 79.6098 465.438 79.6098ZM461.523 79.6098H460.217C460.113 79.6098 460.022 79.5184 460.022 79.414C460.022 79.3096 460.113 79.2182 460.217 79.2182H461.523C461.627 79.2182 461.718 79.3096 461.718 79.414C461.718 79.5184 461.627 79.6098 461.523 79.6098ZM457.607 79.6098H456.302C456.197 79.6098 456.106 79.5184 456.106 79.414C456.106 79.3096 456.197 79.2182 456.302 79.2182H457.607C457.711 79.2182 457.803 79.3096 457.803 79.414C457.803 79.5184 457.711 79.6098 457.607 79.6098ZM453.691 79.6098H452.386C452.282 79.6098 452.19 79.5184 452.19 79.414C452.19 79.3096 452.282 79.2182 452.386 79.2182H453.691C453.796 79.2182 453.887 79.3096 453.887 79.414C453.887 79.5184 453.796 79.6098 453.691 79.6098ZM449.776 79.6098H448.47C448.366 79.6098 448.275 79.5184 448.275 79.414C448.275 79.3096 448.366 79.2182 448.47 79.2182H449.776C449.88 79.2182 449.971 79.3096 449.971 79.414C449.971 79.5184 449.88 79.6098 449.776 79.6098ZM445.86 79.6098H444.555C444.45 79.6098 444.359 79.5184 444.359 79.414C444.359 79.3096 444.45 79.2182 444.555 79.2182H445.86C445.964 79.2182 446.056 79.3096 446.056 79.414C446.056 79.5184 445.964 79.6098 445.86 79.6098ZM441.944 79.6098H440.639C440.535 79.6098 440.443 79.5184 440.443 79.414C440.443 79.3096 440.535 79.2182 440.639 79.2182H441.944C442.049 79.2182 442.14 79.3096 442.14 79.414C442.14 79.5184 442.049 79.6098 441.944 79.6098ZM438.029 79.6098H436.723C436.619 79.6098 436.528 79.5184 436.528 79.414C436.528 79.3096 436.619 79.2182 436.723 79.2182H438.029C438.133 79.2182 438.224 79.3096 438.224 79.414C438.224 79.5184 438.133 79.6098 438.029 79.6098ZM434.113 79.6098H432.808C432.703 79.6098 432.612 79.5184 432.612 79.414C432.612 79.3096 432.703 79.2182 432.808 79.2182H434.113C434.217 79.2182 434.309 79.3096 434.309 79.414C434.309 79.5184 434.217 79.6098 434.113 79.6098ZM430.197 79.6098H428.892C428.788 79.6098 428.696 79.5184 428.696 79.414C428.696 79.3096 428.788 79.2182 428.892 79.2182H430.197C430.302 79.2182 430.393 79.3096 430.393 79.414C430.393 79.5184 430.302 79.6098 430.197 79.6098ZM426.282 79.6098H424.976C424.872 79.6098 424.781 79.5184 424.781 79.414C424.781 79.3096 424.872 79.2182 424.976 79.2182H426.282C426.386 79.2182 426.477 79.3096 426.477 79.414C426.477 79.5184 426.386 79.6098 426.282 79.6098ZM422.366 79.6098H421.061C420.956 79.6098 420.865 79.5184 420.865 79.414C420.865 79.3096 420.956 79.2182 421.061 79.2182H422.366C422.47 79.2182 422.562 79.3096 422.562 79.414C422.562 79.5184 422.47 79.6098 422.366 79.6098ZM418.45 79.6098H417.145C417.041 79.6098 416.949 79.5184 416.949 79.414C416.949 79.3096 417.041 79.2182 417.145 79.2182H418.45C418.555 79.2182 418.646 79.3096 418.646 79.414C418.646 79.5184 418.555 79.6098 418.45 79.6098ZM414.535 79.6098H413.23C413.125 79.6098 413.034 79.5184 413.034 79.414C413.034 79.3096 413.125 79.2182 413.23 79.2182H414.535C414.639 79.2182 414.731 79.3096 414.731 79.414C414.731 79.5184 414.639 79.6098 414.535 79.6098ZM410.619 79.6098H409.314C409.209 79.6098 409.118 79.5184 409.118 79.414C409.118 79.3096 409.209 79.2182 409.314 79.2182H410.619C410.723 79.2182 410.815 79.3096 410.815 79.414C410.815 79.5184 410.723 79.6098 410.619 79.6098ZM406.703 79.6098H405.398C405.294 79.6098 405.202 79.5184 405.202 79.414C405.202 79.3096 405.294 79.2182 405.398 79.2182H406.703C406.808 79.2182 406.899 79.3096 406.899 79.414C406.899 79.5184 406.808 79.6098 406.703 79.6098ZM402.788 79.6098H401.483C401.378 79.6098 401.287 79.5184 401.287 79.414C401.287 79.3096 401.378 79.2182 401.483 79.2182H402.788C402.892 79.2182 402.984 79.3096 402.984 79.414C402.984 79.5184 402.892 79.6098 402.788 79.6098ZM398.872 79.6098H397.567C397.462 79.6098 397.371 79.5184 397.371 79.414C397.371 79.3096 397.462 79.2182 397.567 79.2182H398.872C398.977 79.2182 399.068 79.3096 399.068 79.414C399.068 79.5184 398.977 79.6098 398.872 79.6098ZM394.956 79.6098H393.651C393.547 79.6098 393.455 79.5184 393.455 79.414C393.455 79.3096 393.547 79.2182 393.651 79.2182H394.956C395.061 79.2182 395.152 79.3096 395.152 79.414C395.152 79.5184 395.061 79.6098 394.956 79.6098ZM391.041 79.6098H389.736C389.631 79.6098 389.54 79.5184 389.54 79.414C389.54 79.3096 389.631 79.2182 389.736 79.2182H391.041C391.145 79.2182 391.237 79.3096 391.237 79.414C391.237 79.5184 391.145 79.6098 391.041 79.6098ZM387.125 79.6098H385.82C385.716 79.6098 385.624 79.5184 385.624 79.414C385.624 79.3096 385.716 79.2182 385.82 79.2182H387.125C387.23 79.2182 387.321 79.3096 387.321 79.414C387.321 79.5184 387.23 79.6098 387.125 79.6098ZM383.21 79.6098H381.904C381.8 79.6098 381.709 79.5184 381.709 79.414C381.709 79.3096 381.8 79.2182 381.904 79.2182H383.21C383.314 79.2182 383.405 79.3096 383.405 79.414C383.405 79.5184 383.314 79.6098 383.21 79.6098ZM379.294 79.6098H377.989C377.884 79.6098 377.793 79.5184 377.793 79.414C377.793 79.3096 377.884 79.2182 377.989 79.2182H379.294C379.398 79.2182 379.49 79.3096 379.49 79.414C379.49 79.5184 379.398 79.6098 379.294 79.6098ZM375.378 79.6098H374.073C373.969 79.6098 373.877 79.5184 373.877 79.414C373.877 79.3096 373.969 79.2182 374.073 79.2182H375.378C375.483 79.2182 375.574 79.3096 375.574 79.414C375.574 79.5184 375.483 79.6098 375.378 79.6098ZM371.463 79.6098H370.157C370.053 79.6098 369.962 79.5184 369.962 79.414C369.962 79.3096 370.053 79.2182 370.157 79.2182H371.463C371.567 79.2182 371.658 79.3096 371.658 79.414C371.658 79.5184 371.567 79.6098 371.463 79.6098ZM367.547 79.6098H366.242C366.137 79.6098 366.046 79.5184 366.046 79.414C366.046 79.3096 366.137 79.2182 366.242 79.2182H367.547C367.651 79.2182 367.743 79.3096 367.743 79.414C367.743 79.5184 367.651 79.6098 367.547 79.6098ZM363.631 79.6098H362.326C362.222 79.6098 362.13 79.5184 362.13 79.414C362.13 79.3096 362.222 79.2182 362.326 79.2182H363.631C363.736 79.2182 363.827 79.3096 363.827 79.414C363.827 79.5184 363.736 79.6098 363.631 79.6098ZM359.716 79.6098H358.41C358.306 79.6098 358.215 79.5184 358.215 79.414C358.215 79.3096 358.306 79.2182 358.41 79.2182H359.716C359.82 79.2182 359.911 79.3096 359.911 79.414C359.911 79.5184 359.82 79.6098 359.716 79.6098ZM355.8 79.6098H354.495C354.39 79.6098 354.299 79.5184 354.299 79.414C354.299 79.3096 354.39 79.2182 354.495 79.2182H355.8C355.904 79.2182 355.996 79.3096 355.996 79.414C355.996 79.5184 355.904 79.6098 355.8 79.6098ZM351.884 79.6098H350.579C350.475 79.6098 350.383 79.5184 350.383 79.414C350.383 79.3096 350.475 79.2182 350.579 79.2182H351.884C351.989 79.2182 352.08 79.3096 352.08 79.414C352.08 79.5184 351.989 79.6098 351.884 79.6098ZM347.969 79.6098H346.663C346.559 79.6098 346.468 79.5184 346.468 79.414C346.468 79.3096 346.559 79.2182 346.663 79.2182H347.969C348.073 79.2182 348.164 79.3096 348.164 79.414C348.164 79.5184 348.073 79.6098 347.969 79.6098ZM344.053 79.6098H342.748C342.643 79.6098 342.552 79.5184 342.552 79.414C342.552 79.3096 342.643 79.2182 342.748 79.2182H344.053C344.157 79.2182 344.249 79.3096 344.249 79.414C344.249 79.5184 344.157 79.6098 344.053 79.6098ZM340.137 79.6098H338.832C338.728 79.6098 338.636 79.5184 338.636 79.414C338.636 79.3096 338.728 79.2182 338.832 79.2182H340.137C340.242 79.2182 340.333 79.3096 340.333 79.414C340.333 79.5184 340.242 79.6098 340.137 79.6098ZM336.222 79.6098H334.916C334.812 79.6098 334.721 79.5184 334.721 79.414C334.721 79.3096 334.812 79.2182 334.916 79.2182H336.222C336.326 79.2182 336.417 79.3096 336.417 79.414C336.417 79.5184 336.326 79.6098 336.222 79.6098ZM332.306 79.6098H331.001C330.896 79.6098 330.805 79.5184 330.805 79.414C330.805 79.3096 330.896 79.2182 331.001 79.2182H332.306C332.41 79.2182 332.502 79.3096 332.502 79.414C332.502 79.5184 332.41 79.6098 332.306 79.6098ZM328.39 79.6098H327.085C326.981 79.6098 326.889 79.5184 326.889 79.414C326.889 79.3096 326.981 79.2182 327.085 79.2182H328.39C328.495 79.2182 328.586 79.3096 328.586 79.414C328.586 79.5184 328.495 79.6098 328.39 79.6098ZM324.475 79.6098H323.169C323.065 79.6098 322.974 79.5184 322.974 79.414C322.974 79.3096 323.065 79.2182 323.169 79.2182H324.475C324.579 79.2182 324.67 79.3096 324.67 79.414C324.67 79.5184 324.579 79.6098 324.475 79.6098ZM320.559 79.6098H319.254C319.149 79.6098 319.058 79.5184 319.058 79.414C319.058 79.3096 319.149 79.2182 319.254 79.2182H320.559C320.663 79.2182 320.755 79.3096 320.755 79.414C320.755 79.5184 320.663 79.6098 320.559 79.6098ZM316.643 79.6098H315.338C315.234 79.6098 315.142 79.5184 315.142 79.414C315.142 79.3096 315.234 79.2182 315.338 79.2182H316.643C316.748 79.2182 316.839 79.3096 316.839 79.414C316.839 79.5184 316.748 79.6098 316.643 79.6098ZM312.728 79.6098H311.423C311.318 79.6098 311.227 79.5184 311.227 79.414C311.227 79.3096 311.318 79.2182 311.423 79.2182H312.728C312.832 79.2182 312.924 79.3096 312.924 79.414C312.924 79.5184 312.832 79.6098 312.728 79.6098ZM308.812 79.6098H307.507C307.402 79.6098 307.311 79.5184 307.311 79.414C307.311 79.3096 307.402 79.2182 307.507 79.2182H308.812C308.916 79.2182 309.008 79.3096 309.008 79.414C309.008 79.5184 308.916 79.6098 308.812 79.6098ZM304.896 79.6098H303.591C303.487 79.6098 303.395 79.5184 303.395 79.414C303.395 79.3096 303.487 79.2182 303.591 79.2182H304.896C305.001 79.2182 305.092 79.3096 305.092 79.414C305.092 79.5184 305.001 79.6098 304.896 79.6098ZM300.981 79.6098H299.676C299.571 79.6098 299.48 79.5184 299.48 79.414C299.48 79.3096 299.571 79.2182 299.676 79.2182H300.981C301.085 79.2182 301.177 79.3096 301.177 79.414C301.177 79.5184 301.085 79.6098 300.981 79.6098ZM297.065 79.6098H295.76C295.655 79.6098 295.564 79.5184 295.564 79.414C295.564 79.3096 295.655 79.2182 295.76 79.2182H297.065C297.17 79.2182 297.261 79.3096 297.261 79.414C297.261 79.5184 297.17 79.6098 297.065 79.6098ZM293.149 79.6098H291.844C291.74 79.6098 291.648 79.5184 291.648 79.414C291.648 79.3096 291.74 79.2182 291.844 79.2182H293.149C293.254 79.2182 293.345 79.3096 293.345 79.414C293.345 79.5184 293.254 79.6098 293.149 79.6098ZM289.234 79.6098H287.929C287.824 79.6098 287.733 79.5184 287.733 79.414C287.733 79.3096 287.824 79.2182 287.929 79.2182H289.234C289.338 79.2182 289.43 79.3096 289.43 79.414C289.43 79.5184 289.338 79.6098 289.234 79.6098ZM285.318 79.6098H284.013C283.909 79.6098 283.817 79.5184 283.817 79.414C283.817 79.3096 283.909 79.2182 284.013 79.2182H285.318C285.423 79.2182 285.514 79.3096 285.514 79.414C285.514 79.5184 285.423 79.6098 285.318 79.6098ZM281.389 79.6098H280.789C280.685 79.6098 280.593 79.5184 280.593 79.414V78.7092C280.593 78.6048 280.685 78.5134 280.789 78.5134C280.893 78.5134 280.985 78.6048 280.985 78.7092V79.2182H281.389C281.494 79.2182 281.585 79.3096 281.585 79.414C281.585 79.5184 281.507 79.6098 281.389 79.6098ZM280.789 76.2945C280.685 76.2945 280.593 76.2032 280.593 76.0988V74.7935C280.593 74.6891 280.685 74.5978 280.789 74.5978C280.893 74.5978 280.985 74.6891 280.985 74.7935V76.0988C280.985 76.2032 280.893 76.2945 280.789 76.2945ZM535.202 76.2815C535.098 76.2815 535.006 76.1901 535.006 76.0857V74.7805C535.006 74.6761 535.098 74.5847 535.202 74.5847C535.307 74.5847 535.398 74.6761 535.398 74.7805V76.0857C535.398 76.1901 535.307 76.2815 535.202 76.2815ZM280.789 72.3789C280.685 72.3789 280.593 72.2875 280.593 72.1831V70.8779C280.593 70.7735 280.685 70.6821 280.789 70.6821C280.893 70.6821 280.985 70.7735 280.985 70.8779V72.1831C280.985 72.2875 280.893 72.3789 280.789 72.3789ZM535.202 72.3658C535.098 72.3658 535.006 72.2745 535.006 72.1701V70.8648C535.006 70.7604 535.098 70.6691 535.202 70.6691C535.307 70.6691 535.398 70.7604 535.398 70.8648V72.1701C535.398 72.2745 535.307 72.3658 535.202 72.3658ZM280.789 68.4632C280.685 68.4632 280.593 68.3719 280.593 68.2674V66.9622C280.593 66.8578 280.685 66.7665 280.789 66.7665C280.893 66.7665 280.985 66.8578 280.985 66.9622V68.2674C280.985 68.3719 280.893 68.4632 280.789 68.4632ZM535.202 68.4502C535.098 68.4502 535.006 68.3588 535.006 68.2544V66.9492C535.006 66.8448 535.098 66.7534 535.202 66.7534C535.307 66.7534 535.398 66.8448 535.398 66.9492V68.2544C535.398 68.3588 535.307 68.4502 535.202 68.4502ZM280.789 64.5476C280.685 64.5476 280.593 64.4562 280.593 64.3518V63.0466C280.593 62.9422 280.685 62.8508 280.789 62.8508C280.893 62.8508 280.985 62.9422 280.985 63.0466V64.3518C280.985 64.4562 280.893 64.5476 280.789 64.5476ZM535.202 64.5345C535.098 64.5345 535.006 64.4432 535.006 64.3387V63.0335C535.006 62.9291 535.098 62.8377 535.202 62.8377C535.307 62.8377 535.398 62.9291 535.398 63.0335V64.3387C535.398 64.4432 535.307 64.5345 535.202 64.5345ZM280.789 60.6319C280.685 60.6319 280.593 60.5406 280.593 60.4361V59.1309C280.593 59.0265 280.685 58.9351 280.789 58.9351C280.893 58.9351 280.985 59.0265 280.985 59.1309V60.4361C280.985 60.5406 280.893 60.6319 280.789 60.6319ZM535.202 60.6189C535.098 60.6189 535.006 60.5275 535.006 60.4231V59.1179C535.006 59.0135 535.098 58.9221 535.202 58.9221C535.307 58.9221 535.398 59.0135 535.398 59.1179V60.4231C535.398 60.5275 535.307 60.6189 535.202 60.6189ZM280.789 56.7163C280.685 56.7163 280.593 56.6249 280.593 56.5205V55.2153C280.593 55.1108 280.685 55.0195 280.789 55.0195C280.893 55.0195 280.985 55.1108 280.985 55.2153V56.5205C280.985 56.6249 280.893 56.7163 280.789 56.7163ZM535.202 56.7032C535.098 56.7032 535.006 56.6119 535.006 56.5074V55.2022C535.006 55.0978 535.098 55.0064 535.202 55.0064C535.307 55.0064 535.398 55.0978 535.398 55.2022V56.5074C535.398 56.6119 535.307 56.7032 535.202 56.7032ZM280.789 52.8006C280.685 52.8006 280.593 52.7092 280.593 52.6048V51.2996C280.593 51.1952 280.685 51.1038 280.789 51.1038C280.893 51.1038 280.985 51.1952 280.985 51.2996V52.6048C280.985 52.7092 280.893 52.8006 280.789 52.8006ZM535.202 52.7876C535.098 52.7876 535.006 52.6962 535.006 52.5918V51.2866C535.006 51.1821 535.098 51.0908 535.202 51.0908C535.307 51.0908 535.398 51.1821 535.398 51.2866V52.5918C535.398 52.6962 535.307 52.7876 535.202 52.7876ZM280.789 48.885C280.685 48.885 280.593 48.7936 280.593 48.6892V47.384C280.593 47.2795 280.685 47.1882 280.789 47.1882C280.893 47.1882 280.985 47.2795 280.985 47.384V48.6892C280.985 48.7936 280.893 48.885 280.789 48.885ZM535.202 48.8719C535.098 48.8719 535.006 48.7805 535.006 48.6761V47.3709C535.006 47.2665 535.098 47.1751 535.202 47.1751C535.307 47.1751 535.398 47.2665 535.398 47.3709V48.6761C535.398 48.7805 535.307 48.8719 535.202 48.8719ZM280.789 44.9693C280.685 44.9693 280.593 44.8779 280.593 44.7735V43.4683C280.593 43.3639 280.685 43.2725 280.789 43.2725C280.893 43.2725 280.985 43.3639 280.985 43.4683V44.7735C280.985 44.8779 280.893 44.9693 280.789 44.9693ZM535.202 44.9563C535.098 44.9563 535.006 44.8649 535.006 44.7605V43.4553C535.006 43.3508 535.098 43.2595 535.202 43.2595C535.307 43.2595 535.398 43.3508 535.398 43.4553V44.7605C535.398 44.8649 535.307 44.9563 535.202 44.9563ZM280.789 41.0537C280.685 41.0537 280.593 40.9623 280.593 40.8579V39.5527C280.593 39.4482 280.685 39.3569 280.789 39.3569C280.893 39.3569 280.985 39.4482 280.985 39.5527V40.8579C280.985 40.9623 280.893 41.0537 280.789 41.0537ZM535.202 41.0406C535.098 41.0406 535.006 40.9492 535.006 40.8448V39.5396C535.006 39.4352 535.098 39.3438 535.202 39.3438C535.307 39.3438 535.398 39.4352 535.398 39.5396V40.8448C535.398 40.9492 535.307 41.0406 535.202 41.0406ZM280.789 37.138C280.685 37.138 280.593 37.0466 280.593 36.9422V35.637C280.593 35.5326 280.685 35.4412 280.789 35.4412C280.893 35.4412 280.985 35.5326 280.985 35.637V36.9422C280.985 37.0466 280.893 37.138 280.789 37.138ZM535.202 37.1249C535.098 37.1249 535.006 37.0336 535.006 36.9292V35.6239C535.006 35.5195 535.098 35.4282 535.202 35.4282C535.307 35.4282 535.398 35.5195 535.398 35.6239V36.9292C535.398 37.0336 535.307 37.1249 535.202 37.1249ZM280.789 33.2223C280.685 33.2223 280.593 33.131 280.593 33.0266V31.7213C280.593 31.6169 280.685 31.5256 280.789 31.5256C280.893 31.5256 280.985 31.6169 280.985 31.7213V33.0266C280.985 33.131 280.893 33.2223 280.789 33.2223ZM535.202 33.2093C535.098 33.2093 535.006 33.1179 535.006 33.0135V31.7083C535.006 31.6039 535.098 31.5125 535.202 31.5125C535.307 31.5125 535.398 31.6039 535.398 31.7083V33.0135C535.398 33.1179 535.307 33.2093 535.202 33.2093ZM280.789 29.3067C280.685 29.3067 280.593 29.2153 280.593 29.1109V27.8057C280.593 27.7013 280.685 27.6099 280.789 27.6099C280.893 27.6099 280.985 27.7013 280.985 27.8057V29.1109C280.985 29.2153 280.893 29.3067 280.789 29.3067ZM535.202 29.2936C535.098 29.2936 535.006 29.2023 535.006 29.0979V27.7926C535.006 27.6882 535.098 27.5969 535.202 27.5969C535.307 27.5969 535.398 27.6882 535.398 27.7926V29.0979C535.398 29.2023 535.307 29.2936 535.202 29.2936ZM280.789 25.391C280.685 25.391 280.593 25.2997 280.593 25.1953V23.89C280.593 23.8639 280.593 23.8509 280.606 23.8378C280.606 23.8248 280.593 23.7987 280.593 23.7856C280.593 23.6812 280.685 23.5898 280.789 23.5898H282.094C282.199 23.5898 282.29 23.6812 282.29 23.7856C282.29 23.89 282.199 23.9814 282.094 23.9814H280.985V25.2083C280.985 25.2997 280.893 25.391 280.789 25.391ZM535.202 25.378C535.098 25.378 535.006 25.2866 535.006 25.1822V23.877C535.006 23.7726 535.098 23.6812 535.202 23.6812C535.307 23.6812 535.398 23.7726 535.398 23.877V25.1822C535.398 25.2866 535.307 25.378 535.202 25.378ZM532.696 23.9683H531.391C531.286 23.9683 531.195 23.877 531.195 23.7726C531.195 23.6681 531.286 23.5768 531.391 23.5768H532.696C532.801 23.5768 532.892 23.6681 532.892 23.7726C532.892 23.877 532.801 23.9683 532.696 23.9683ZM528.78 23.9683H527.475C527.371 23.9683 527.279 23.877 527.279 23.7726C527.279 23.6681 527.371 23.5768 527.475 23.5768H528.78C528.885 23.5768 528.976 23.6681 528.976 23.7726C528.976 23.877 528.885 23.9683 528.78 23.9683ZM524.865 23.9683H523.56C523.455 23.9683 523.364 23.877 523.364 23.7726C523.364 23.6681 523.455 23.5768 523.56 23.5768H524.865C524.969 23.5768 525.061 23.6681 525.061 23.7726C525.061 23.877 524.969 23.9683 524.865 23.9683ZM520.949 23.9683H519.644C519.54 23.9683 519.448 23.877 519.448 23.7726C519.448 23.6681 519.54 23.5768 519.644 23.5768H520.949C521.054 23.5768 521.145 23.6681 521.145 23.7726C521.145 23.877 521.054 23.9683 520.949 23.9683ZM517.034 23.9683H515.728C515.624 23.9683 515.533 23.877 515.533 23.7726C515.533 23.6681 515.624 23.5768 515.728 23.5768H517.034C517.138 23.5768 517.229 23.6681 517.229 23.7726C517.229 23.877 517.138 23.9683 517.034 23.9683ZM513.118 23.9683H511.813C511.708 23.9683 511.617 23.877 511.617 23.7726C511.617 23.6681 511.708 23.5768 511.813 23.5768H513.118C513.222 23.5768 513.314 23.6681 513.314 23.7726C513.314 23.877 513.222 23.9683 513.118 23.9683ZM509.202 23.9683H507.897C507.793 23.9683 507.701 23.877 507.701 23.7726C507.701 23.6681 507.793 23.5768 507.897 23.5768H509.202C509.307 23.5768 509.398 23.6681 509.398 23.7726C509.398 23.877 509.307 23.9683 509.202 23.9683ZM505.287 23.9683H503.981C503.877 23.9683 503.786 23.877 503.786 23.7726C503.786 23.6681 503.877 23.5768 503.981 23.5768H505.287C505.391 23.5768 505.482 23.6681 505.482 23.7726C505.482 23.877 505.391 23.9683 505.287 23.9683ZM501.371 23.9683H500.066C499.961 23.9683 499.87 23.877 499.87 23.7726C499.87 23.6681 499.961 23.5768 500.066 23.5768H501.371C501.475 23.5768 501.567 23.6681 501.567 23.7726C501.567 23.877 501.475 23.9683 501.371 23.9683ZM497.455 23.9683H496.15C496.046 23.9683 495.954 23.877 495.954 23.7726C495.954 23.6681 496.046 23.5768 496.15 23.5768H497.455C497.56 23.5768 497.651 23.6681 497.651 23.7726C497.651 23.877 497.56 23.9683 497.455 23.9683ZM493.54 23.9683H492.234C492.13 23.9683 492.039 23.877 492.039 23.7726C492.039 23.6681 492.13 23.5768 492.234 23.5768H493.54C493.644 23.5768 493.735 23.6681 493.735 23.7726C493.735 23.877 493.644 23.9683 493.54 23.9683ZM489.624 23.9683H488.319C488.214 23.9683 488.123 23.877 488.123 23.7726C488.123 23.6681 488.214 23.5768 488.319 23.5768H489.624C489.728 23.5768 489.82 23.6681 489.82 23.7726C489.82 23.877 489.728 23.9683 489.624 23.9683ZM485.708 23.9683H484.403C484.299 23.9683 484.207 23.877 484.207 23.7726C484.207 23.6681 484.299 23.5768 484.403 23.5768H485.708C485.813 23.5768 485.904 23.6681 485.904 23.7726C485.904 23.877 485.813 23.9683 485.708 23.9683ZM481.793 23.9683H480.487C480.383 23.9683 480.292 23.877 480.292 23.7726C480.292 23.6681 480.383 23.5768 480.487 23.5768H481.793C481.897 23.5768 481.988 23.6681 481.988 23.7726C481.988 23.877 481.897 23.9683 481.793 23.9683ZM477.877 23.9683H476.572C476.467 23.9683 476.376 23.877 476.376 23.7726C476.376 23.6681 476.467 23.5768 476.572 23.5768H477.877C477.981 23.5768 478.073 23.6681 478.073 23.7726C478.073 23.877 477.981 23.9683 477.877 23.9683ZM473.961 23.9683H472.656C472.552 23.9683 472.46 23.877 472.46 23.7726C472.46 23.6681 472.552 23.5768 472.656 23.5768H473.961C474.066 23.5768 474.157 23.6681 474.157 23.7726C474.157 23.877 474.066 23.9683 473.961 23.9683ZM470.046 23.9683H468.74C468.636 23.9683 468.545 23.877 468.545 23.7726C468.545 23.6681 468.636 23.5768 468.74 23.5768H470.046C470.15 23.5768 470.241 23.6681 470.241 23.7726C470.241 23.877 470.15 23.9683 470.046 23.9683ZM466.13 23.9683H464.825C464.72 23.9683 464.629 23.877 464.629 23.7726C464.629 23.6681 464.72 23.5768 464.825 23.5768H466.13C466.234 23.5768 466.326 23.6681 466.326 23.7726C466.326 23.877 466.234 23.9683 466.13 23.9683ZM462.214 23.9683H460.909C460.805 23.9683 460.713 23.877 460.713 23.7726C460.713 23.6681 460.805 23.5768 460.909 23.5768H462.214C462.319 23.5768 462.41 23.6681 462.41 23.7726C462.41 23.877 462.319 23.9683 462.214 23.9683ZM458.299 23.9683H456.993C456.889 23.9683 456.798 23.877 456.798 23.7726C456.798 23.6681 456.889 23.5768 456.993 23.5768H458.299C458.403 23.5768 458.494 23.6681 458.494 23.7726C458.494 23.877 458.403 23.9683 458.299 23.9683ZM454.383 23.9683H453.078C452.973 23.9683 452.882 23.877 452.882 23.7726C452.882 23.6681 452.973 23.5768 453.078 23.5768H454.383C454.487 23.5768 454.579 23.6681 454.579 23.7726C454.579 23.877 454.487 23.9683 454.383 23.9683ZM450.467 23.9683H449.162C449.058 23.9683 448.966 23.877 448.966 23.7726C448.966 23.6681 449.058 23.5768 449.162 23.5768H450.467C450.572 23.5768 450.663 23.6681 450.663 23.7726C450.663 23.877 450.572 23.9683 450.467 23.9683ZM446.552 23.9683H445.247C445.142 23.9683 445.051 23.877 445.051 23.7726C445.051 23.6681 445.142 23.5768 445.247 23.5768H446.552C446.656 23.5768 446.748 23.6681 446.748 23.7726C446.748 23.877 446.656 23.9683 446.552 23.9683ZM442.636 23.9683H441.331C441.226 23.9683 441.135 23.877 441.135 23.7726C441.135 23.6681 441.226 23.5768 441.331 23.5768H442.636C442.74 23.5768 442.832 23.6681 442.832 23.7726C442.832 23.877 442.74 23.9683 442.636 23.9683ZM438.72 23.9683H437.415C437.311 23.9683 437.219 23.877 437.219 23.7726C437.219 23.6681 437.311 23.5768 437.415 23.5768H438.72C438.825 23.5768 438.916 23.6681 438.916 23.7726C438.916 23.877 438.825 23.9683 438.72 23.9683ZM434.805 23.9683H433.5C433.395 23.9683 433.304 23.877 433.304 23.7726C433.304 23.6681 433.395 23.5768 433.5 23.5768H434.805C434.909 23.5768 435.001 23.6681 435.001 23.7726C435.001 23.877 434.909 23.9683 434.805 23.9683ZM430.889 23.9683H429.584C429.479 23.9683 429.388 23.877 429.388 23.7726C429.388 23.6681 429.479 23.5768 429.584 23.5768H430.889C430.994 23.5768 431.085 23.6681 431.085 23.7726C431.085 23.877 430.994 23.9683 430.889 23.9683ZM426.973 23.9683H425.668C425.564 23.9683 425.472 23.877 425.472 23.7726C425.472 23.6681 425.564 23.5768 425.668 23.5768H426.973C427.078 23.5768 427.169 23.6681 427.169 23.7726C427.169 23.877 427.078 23.9683 426.973 23.9683ZM423.058 23.9683H421.753C421.648 23.9683 421.557 23.877 421.557 23.7726C421.557 23.6681 421.648 23.5768 421.753 23.5768H423.058C423.162 23.5768 423.254 23.6681 423.254 23.7726C423.254 23.877 423.162 23.9683 423.058 23.9683ZM419.142 23.9683H417.837C417.733 23.9683 417.641 23.877 417.641 23.7726C417.641 23.6681 417.733 23.5768 417.837 23.5768H419.142C419.247 23.5768 419.338 23.6681 419.338 23.7726C419.338 23.877 419.247 23.9683 419.142 23.9683ZM415.227 23.9683H413.921C413.817 23.9683 413.726 23.877 413.726 23.7726C413.726 23.6681 413.817 23.5768 413.921 23.5768H415.227C415.331 23.5768 415.422 23.6681 415.422 23.7726C415.422 23.877 415.331 23.9683 415.227 23.9683ZM411.311 23.9683H410.006C409.901 23.9683 409.81 23.877 409.81 23.7726C409.81 23.6681 409.901 23.5768 410.006 23.5768H411.311C411.415 23.5768 411.507 23.6681 411.507 23.7726C411.507 23.877 411.415 23.9683 411.311 23.9683ZM407.395 23.9683H406.09C405.986 23.9683 405.894 23.877 405.894 23.7726C405.894 23.6681 405.986 23.5768 406.09 23.5768H407.395C407.5 23.5768 407.591 23.6681 407.591 23.7726C407.591 23.877 407.5 23.9683 407.395 23.9683ZM403.48 23.9683H402.174C402.07 23.9683 401.979 23.877 401.979 23.7726C401.979 23.6681 402.07 23.5768 402.174 23.5768H403.48C403.584 23.5768 403.675 23.6681 403.675 23.7726C403.675 23.877 403.584 23.9683 403.48 23.9683ZM399.564 23.9683H398.259C398.154 23.9683 398.063 23.877 398.063 23.7726C398.063 23.6681 398.154 23.5768 398.259 23.5768H399.564C399.668 23.5768 399.76 23.6681 399.76 23.7726C399.76 23.877 399.668 23.9683 399.564 23.9683ZM395.648 23.9683H394.343C394.239 23.9683 394.147 23.877 394.147 23.7726C394.147 23.6681 394.239 23.5768 394.343 23.5768H395.648C395.753 23.5768 395.844 23.6681 395.844 23.7726C395.844 23.877 395.753 23.9683 395.648 23.9683ZM391.733 23.9683H390.427C390.323 23.9683 390.232 23.877 390.232 23.7726C390.232 23.6681 390.323 23.5768 390.427 23.5768H391.733C391.837 23.5768 391.928 23.6681 391.928 23.7726C391.928 23.877 391.837 23.9683 391.733 23.9683ZM387.817 23.9683H386.512C386.407 23.9683 386.316 23.877 386.316 23.7726C386.316 23.6681 386.407 23.5768 386.512 23.5768H387.817C387.921 23.5768 388.013 23.6681 388.013 23.7726C388.013 23.877 387.921 23.9683 387.817 23.9683ZM383.901 23.9683H382.596C382.492 23.9683 382.4 23.877 382.4 23.7726C382.4 23.6681 382.492 23.5768 382.596 23.5768H383.901C384.006 23.5768 384.097 23.6681 384.097 23.7726C384.097 23.877 384.006 23.9683 383.901 23.9683ZM379.986 23.9683H378.68C378.576 23.9683 378.485 23.877 378.485 23.7726C378.485 23.6681 378.576 23.5768 378.68 23.5768H379.986C380.09 23.5768 380.181 23.6681 380.181 23.7726C380.181 23.877 380.09 23.9683 379.986 23.9683ZM376.07 23.9683H374.765C374.66 23.9683 374.569 23.877 374.569 23.7726C374.569 23.6681 374.66 23.5768 374.765 23.5768H376.07C376.174 23.5768 376.266 23.6681 376.266 23.7726C376.266 23.877 376.174 23.9683 376.07 23.9683ZM372.154 23.9683H370.849C370.745 23.9683 370.653 23.877 370.653 23.7726C370.653 23.6681 370.745 23.5768 370.849 23.5768H372.154C372.259 23.5768 372.35 23.6681 372.35 23.7726C372.35 23.877 372.259 23.9683 372.154 23.9683ZM368.239 23.9683H366.933C366.829 23.9683 366.738 23.877 366.738 23.7726C366.738 23.6681 366.829 23.5768 366.933 23.5768H368.239C368.343 23.5768 368.434 23.6681 368.434 23.7726C368.434 23.877 368.343 23.9683 368.239 23.9683ZM364.323 23.9683H363.018C362.913 23.9683 362.822 23.877 362.822 23.7726C362.822 23.6681 362.913 23.5768 363.018 23.5768H364.323C364.427 23.5768 364.519 23.6681 364.519 23.7726C364.519 23.877 364.427 23.9683 364.323 23.9683ZM360.407 23.9683H359.102C358.998 23.9683 358.906 23.877 358.906 23.7726C358.906 23.6681 358.998 23.5768 359.102 23.5768H360.407C360.512 23.5768 360.603 23.6681 360.603 23.7726C360.603 23.877 360.512 23.9683 360.407 23.9683ZM356.492 23.9683H355.186C355.082 23.9683 354.991 23.877 354.991 23.7726C354.991 23.6681 355.082 23.5768 355.186 23.5768H356.492C356.596 23.5768 356.687 23.6681 356.687 23.7726C356.687 23.877 356.596 23.9683 356.492 23.9683ZM352.576 23.9683H351.271C351.166 23.9683 351.075 23.877 351.075 23.7726C351.075 23.6681 351.166 23.5768 351.271 23.5768H352.576C352.68 23.5768 352.772 23.6681 352.772 23.7726C352.772 23.877 352.68 23.9683 352.576 23.9683ZM348.66 23.9683H347.355C347.251 23.9683 347.159 23.877 347.159 23.7726C347.159 23.6681 347.251 23.5768 347.355 23.5768H348.66C348.765 23.5768 348.856 23.6681 348.856 23.7726C348.856 23.877 348.765 23.9683 348.66 23.9683ZM344.745 23.9683H343.44C343.335 23.9683 343.244 23.877 343.244 23.7726C343.244 23.6681 343.335 23.5768 343.44 23.5768H344.745C344.849 23.5768 344.94 23.6681 344.94 23.7726C344.94 23.877 344.849 23.9683 344.745 23.9683ZM340.829 23.9683H339.524C339.419 23.9683 339.328 23.877 339.328 23.7726C339.328 23.6681 339.419 23.5768 339.524 23.5768H340.829C340.933 23.5768 341.025 23.6681 341.025 23.7726C341.025 23.877 340.933 23.9683 340.829 23.9683ZM336.913 23.9683H335.608C335.504 23.9683 335.412 23.877 335.412 23.7726C335.412 23.6681 335.504 23.5768 335.608 23.5768H336.913C337.018 23.5768 337.109 23.6681 337.109 23.7726C337.109 23.877 337.018 23.9683 336.913 23.9683ZM332.998 23.9683H331.693C331.588 23.9683 331.497 23.877 331.497 23.7726C331.497 23.6681 331.588 23.5768 331.693 23.5768H332.998C333.102 23.5768 333.194 23.6681 333.194 23.7726C333.194 23.877 333.102 23.9683 332.998 23.9683ZM329.082 23.9683H327.777C327.672 23.9683 327.581 23.877 327.581 23.7726C327.581 23.6681 327.672 23.5768 327.777 23.5768H329.082C329.187 23.5768 329.278 23.6681 329.278 23.7726C329.278 23.877 329.187 23.9683 329.082 23.9683ZM325.166 23.9683H323.861C323.757 23.9683 323.665 23.877 323.665 23.7726C323.665 23.6681 323.757 23.5768 323.861 23.5768H325.166C325.271 23.5768 325.362 23.6681 325.362 23.7726C325.362 23.877 325.271 23.9683 325.166 23.9683ZM321.251 23.9683H319.946C319.841 23.9683 319.75 23.877 319.75 23.7726C319.75 23.6681 319.841 23.5768 319.946 23.5768H321.251C321.355 23.5768 321.447 23.6681 321.447 23.7726C321.447 23.877 321.355 23.9683 321.251 23.9683ZM317.335 23.9683H316.03C315.926 23.9683 315.834 23.877 315.834 23.7726C315.834 23.6681 315.926 23.5768 316.03 23.5768H317.335C317.44 23.5768 317.531 23.6681 317.531 23.7726C317.531 23.877 317.44 23.9683 317.335 23.9683ZM313.419 23.9683H312.114C312.01 23.9683 311.918 23.877 311.918 23.7726C311.918 23.6681 312.01 23.5768 312.114 23.5768H313.419C313.524 23.5768 313.615 23.6681 313.615 23.7726C313.615 23.877 313.524 23.9683 313.419 23.9683ZM309.504 23.9683H308.199C308.094 23.9683 308.003 23.877 308.003 23.7726C308.003 23.6681 308.094 23.5768 308.199 23.5768H309.504C309.608 23.5768 309.7 23.6681 309.7 23.7726C309.7 23.877 309.608 23.9683 309.504 23.9683ZM305.588 23.9683H304.283C304.179 23.9683 304.087 23.877 304.087 23.7726C304.087 23.6681 304.179 23.5768 304.283 23.5768H305.588C305.693 23.5768 305.784 23.6681 305.784 23.7726C305.784 23.877 305.693 23.9683 305.588 23.9683ZM301.673 23.9683H300.367C300.263 23.9683 300.172 23.877 300.172 23.7726C300.172 23.6681 300.263 23.5768 300.367 23.5768H301.673C301.777 23.5768 301.868 23.6681 301.868 23.7726C301.868 23.877 301.777 23.9683 301.673 23.9683ZM297.757 23.9683H296.452C296.347 23.9683 296.256 23.877 296.256 23.7726C296.256 23.6681 296.347 23.5768 296.452 23.5768H297.757C297.861 23.5768 297.953 23.6681 297.953 23.7726C297.953 23.877 297.861 23.9683 297.757 23.9683ZM293.841 23.9683H292.536C292.432 23.9683 292.34 23.877 292.34 23.7726C292.34 23.6681 292.432 23.5768 292.536 23.5768H293.841C293.946 23.5768 294.037 23.6681 294.037 23.7726C294.037 23.877 293.946 23.9683 293.841 23.9683ZM289.926 23.9683H288.62C288.516 23.9683 288.425 23.877 288.425 23.7726C288.425 23.6681 288.516 23.5768 288.62 23.5768H289.926C290.03 23.5768 290.121 23.6681 290.121 23.7726C290.121 23.877 290.03 23.9683 289.926 23.9683ZM286.01 23.9683H284.705C284.6 23.9683 284.509 23.877 284.509 23.7726C284.509 23.6681 284.6 23.5768 284.705 23.5768H286.01C286.114 23.5768 286.206 23.6681 286.206 23.7726C286.206 23.877 286.114 23.9683 286.01 23.9683Z" fill="black"/>
<path d="M83.4923 94.7116C75.935 94.7116 69.7744 88.564 69.7744 80.9937C69.7744 73.4365 75.922 67.2759 83.4923 67.2759C91.0495 67.2759 97.2101 73.4234 97.2101 80.9937C97.197 88.564 91.0495 94.7116 83.4923 94.7116ZM83.4923 68.5941C76.6529 68.5941 71.0796 74.1544 71.0796 81.0068C71.0796 87.8461 76.6399 93.4194 83.4923 93.4194C90.3316 93.4194 95.9049 87.8592 95.9049 81.0068C95.8918 74.1544 90.3316 68.5941 83.4923 68.5941Z" fill="black"/>
<path d="M87.0239 75.9067H85.9671C85.9046 75.6028 85.7952 75.3357 85.6389 75.1056C85.4855 74.8755 85.298 74.6823 85.0764 74.5261C84.8577 74.367 84.6148 74.2476 84.3477 74.1681C84.0807 74.0886 83.8023 74.0488 83.5125 74.0488C82.9841 74.0488 82.5054 74.1823 82.0764 74.4494C81.6503 74.7164 81.3108 75.1099 81.058 75.6297C80.808 76.1496 80.683 76.7874 80.683 77.5431C80.683 78.2988 80.808 78.9366 81.058 79.4565C81.3108 79.9763 81.6503 80.3698 82.0764 80.6369C82.5054 80.9039 82.9841 81.0374 83.5125 81.0374C83.8023 81.0374 84.0807 80.9976 84.3477 80.9181C84.6148 80.8386 84.8577 80.7207 85.0764 80.5644C85.298 80.4053 85.4855 80.2107 85.6389 79.9806C85.7952 79.7476 85.9046 79.4806 85.9671 79.1795H87.0239C86.9443 79.6255 86.7994 80.0246 86.5892 80.3769C86.379 80.7292 86.1176 81.0289 85.8051 81.2761C85.4926 81.5204 85.1418 81.7065 84.7526 81.8343C84.3662 81.9621 83.9529 82.0261 83.5125 82.0261C82.7682 82.0261 82.1063 81.8442 81.5267 81.4806C80.9472 81.117 80.4912 80.5999 80.1588 79.9295C79.8264 79.259 79.6602 78.4636 79.6602 77.5431C79.6602 76.6226 79.8264 75.8272 80.1588 75.1567C80.4912 74.4863 80.9472 73.9692 81.5267 73.6056C82.1063 73.242 82.7682 73.0601 83.5125 73.0601C83.9529 73.0601 84.3662 73.1241 84.7526 73.2519C85.1418 73.3797 85.4926 73.5672 85.8051 73.8144C86.1176 74.0587 86.379 74.357 86.5892 74.7093C86.7994 75.0587 86.9443 75.4579 87.0239 75.9067Z" fill="black"/>
<path d="M221.336 170.923C213.779 170.923 207.619 164.775 207.619 157.205C207.619 149.648 213.766 143.487 221.336 143.487C228.894 143.487 235.054 149.635 235.054 157.205C235.054 164.775 228.907 170.923 221.336 170.923ZM221.336 144.806C214.497 144.806 208.924 150.366 208.924 157.218C208.924 164.058 214.484 169.631 221.336 169.631C228.176 169.631 233.749 164.071 233.749 157.218C233.749 150.366 228.189 144.806 221.336 144.806Z" fill="black"/>
<path d="M219.876 158.116H217.183V149.389H219.996C220.842 149.389 221.567 149.564 222.169 149.913C222.771 150.26 223.233 150.758 223.554 151.409C223.875 152.057 224.036 152.832 224.036 153.736C224.036 154.645 223.874 155.427 223.55 156.084C223.226 156.737 222.754 157.24 222.135 157.592C221.516 157.941 220.763 158.116 219.876 158.116ZM218.24 157.179H219.808C220.53 157.179 221.128 157.04 221.602 156.761C222.077 156.483 222.43 156.086 222.663 155.572C222.896 155.058 223.013 154.446 223.013 153.736C223.013 153.031 222.898 152.424 222.668 151.916C222.438 151.405 222.094 151.013 221.636 150.74C221.179 150.464 220.609 150.326 219.928 150.326H218.24V157.179Z" fill="black"/>
<path d="M300.119 153.498C292.562 153.498 286.401 147.351 286.401 139.78C286.401 132.223 292.549 126.063 300.119 126.063C307.676 126.063 313.837 132.21 313.837 139.78C313.824 147.351 307.676 153.498 300.119 153.498ZM300.119 127.381C293.28 127.381 287.707 132.941 287.707 139.794C287.707 146.633 293.267 152.206 300.119 152.206C306.959 152.206 312.532 146.646 312.532 139.794C312.519 132.941 306.959 127.381 300.119 127.381Z" fill="black"/>
<path d="M297.321 140.693V131.966H302.588V132.904H298.378V135.852H302.315V136.79H298.378V139.756H302.656V140.693H297.321Z" fill="black"/>
</g>
<defs>
<clipPath id="clip0_533_22771">
<rect width="371" height="163" fill="white"/>
</clipPath>
</defs>
</svg>
