<svg width="343" height="224" viewBox="0 0 343 224" fill="none" xmlns="http://www.w3.org/2000/svg">
<g opacity="0.45">
<path opacity="0.5" d="M116.603 86.5762L339.887 25.56" stroke="#FAFAFA" stroke-width="0.1545" stroke-miterlimit="10" stroke-linecap="round"/>
<path d="M295.047 -31.1013L341.981 52.6063" stroke="#FAFAFA" stroke-width="0.2575" stroke-miterlimit="10" stroke-linecap="round"/>
<path d="M341.981 148.168L200.202 281.48" stroke="#FAFAFA" stroke-width="0.2575" stroke-miterlimit="10" stroke-linecap="round"/>
<path d="M341.981 142.846L200.202 256.803" stroke="#FAFAFA" stroke-width="0.2575" stroke-miterlimit="10" stroke-linecap="round"/>
<path d="M1.01917 74.5467L108.11 34.5449" stroke="#FAFAFA" stroke-width="0.2575" stroke-miterlimit="10" stroke-linecap="round"/>
<path d="M295.047 89.8633L96.1725 34.5449" stroke="#FAFAFA" stroke-width="0.2575" stroke-miterlimit="10" stroke-linecap="round"/>
<path d="M1.01917 150.829L115.669 186.401" stroke="#FAFAFA" stroke-width="0.2575" stroke-miterlimit="10" stroke-linecap="round"/>
<path d="M218.105 256.803L1.01917 160.99" stroke="#FAFAFA" stroke-width="0.2575" stroke-miterlimit="10" stroke-linecap="round"/>
<path d="M218.105 281.479L1.01917 171.151" stroke="#FAFAFA" stroke-width="0.2575" stroke-miterlimit="10" stroke-linecap="round"/>
<path d="M209.888 75.8395L341.981 103.094" stroke="#FAFAFA" stroke-width="0.2575" stroke-miterlimit="10" stroke-linecap="round"/>
<path d="M224.078 76.7991L1.01917 106.798" stroke="#FAFAFA" stroke-width="0.2575" stroke-miterlimit="10" stroke-linecap="round"/>
<path d="M1.01917 148.736L230.318 211.32" stroke="#FAFAFA" stroke-width="0.2575" stroke-miterlimit="10" stroke-linecap="round"/>
<path d="M213.033 211.32L341.981 135.513" stroke="#FAFAFA" stroke-width="0.2575" stroke-miterlimit="10" stroke-linecap="round"/>
<path d="M316.82 -23.8437L1.01917 89.471" stroke="#FAFAFA" stroke-width="0.2575" stroke-miterlimit="10" stroke-linecap="round"/>
<path d="M115.669 113.839L1.01917 116.158" stroke="#FAFAFA" stroke-width="0.2575" stroke-miterlimit="10" stroke-linecap="round"/>
<path d="M96.1725 113.839L341.981 118.135" stroke="#FAFAFA" stroke-width="0.2575" stroke-miterlimit="10" stroke-linecap="round"/>
<path d="M101.979 186.401L341.981 125.669" stroke="#FAFAFA" stroke-width="0.2575" stroke-miterlimit="10" stroke-linecap="round"/>
<g opacity="0.5">
<path d="M295.047 -33.7208L341.981 49.9951" stroke="#FAFAFA" stroke-width="0.1545" stroke-miterlimit="10" stroke-linecap="round"/>
<path d="M341.981 145.557L200.202 278.86" stroke="#FAFAFA" stroke-width="0.1545" stroke-miterlimit="10" stroke-linecap="round"/>
<path d="M341.981 140.235L200.202 254.183" stroke="#FAFAFA" stroke-width="0.1545" stroke-miterlimit="10" stroke-linecap="round"/>
<path d="M1.01917 71.9272L108.11 31.9254" stroke="#FAFAFA" stroke-width="0.1545" stroke-miterlimit="10" stroke-linecap="round"/>
<path d="M295.047 87.2521L96.1725 31.9254" stroke="#FAFAFA" stroke-width="0.1545" stroke-miterlimit="10" stroke-linecap="round"/>
<path d="M1.01917 148.219L115.669 183.782" stroke="#FAFAFA" stroke-width="0.1545" stroke-miterlimit="10" stroke-linecap="round"/>
<path d="M218.105 254.183L1.01917 158.379" stroke="#FAFAFA" stroke-width="0.1545" stroke-miterlimit="10" stroke-linecap="round"/>
<path d="M218.105 278.86L1.01917 168.54" stroke="#FAFAFA" stroke-width="0.1545" stroke-miterlimit="10" stroke-linecap="round"/>
<path d="M209.888 73.2288L341.981 100.483" stroke="#FAFAFA" stroke-width="0.1545" stroke-miterlimit="10" stroke-linecap="round"/>
<path d="M224.078 74.1882L1.01917 104.187" stroke="#FAFAFA" stroke-width="0.1545" stroke-miterlimit="10" stroke-linecap="round"/>
<path d="M1.01917 146.124L230.318 208.701" stroke="#FAFAFA" stroke-width="0.1545" stroke-miterlimit="10" stroke-linecap="round"/>
<path d="M213.033 208.701L341.981 132.893" stroke="#FAFAFA" stroke-width="0.1545" stroke-miterlimit="10" stroke-linecap="round"/>
<path d="M316.82 -26.4631L1.01917 86.8515" stroke="#FAFAFA" stroke-width="0.1545" stroke-miterlimit="10" stroke-linecap="round"/>
<path d="M115.669 111.228L1.01917 113.539" stroke="#FAFAFA" stroke-width="0.1545" stroke-miterlimit="10" stroke-linecap="round"/>
<path d="M96.1725 111.228L341.981 115.525" stroke="#FAFAFA" stroke-width="0.1545" stroke-miterlimit="10" stroke-linecap="round"/>
<path d="M101.979 183.782L341.981 123.058" stroke="#FAFAFA" stroke-width="0.1545" stroke-miterlimit="10" stroke-linecap="round"/>
</g>
<g opacity="0.5">
<path d="M295.047 -29.0993L341.981 54.6082" stroke="#FAFAFA" stroke-width="0.1545" stroke-miterlimit="10" stroke-linecap="round"/>
<path d="M341.981 150.179L200.202 283.482" stroke="#FAFAFA" stroke-width="0.1545" stroke-miterlimit="10" stroke-linecap="round"/>
<path d="M341.981 144.856L200.202 258.805" stroke="#FAFAFA" stroke-width="0.1545" stroke-miterlimit="10" stroke-linecap="round"/>
<path d="M1.01917 76.5486L108.11 36.5468" stroke="#FAFAFA" stroke-width="0.1545" stroke-miterlimit="10" stroke-linecap="round"/>
<path d="M295.047 91.8735L96.1725 36.5468" stroke="#FAFAFA" stroke-width="0.1545" stroke-miterlimit="10" stroke-linecap="round"/>
<path d="M1.01917 152.84L115.669 188.404" stroke="#FAFAFA" stroke-width="0.1545" stroke-miterlimit="10" stroke-linecap="round"/>
<path d="M218.105 258.805L1.01917 163.001" stroke="#FAFAFA" stroke-width="0.1545" stroke-miterlimit="10" stroke-linecap="round"/>
<path d="M218.105 283.482L1.01917 173.162" stroke="#FAFAFA" stroke-width="0.1545" stroke-miterlimit="10" stroke-linecap="round"/>
<path d="M209.888 77.8502L341.981 105.105" stroke="#FAFAFA" stroke-width="0.1545" stroke-miterlimit="10" stroke-linecap="round"/>
<path d="M224.078 78.8096L1.01917 108.809" stroke="#FAFAFA" stroke-width="0.1545" stroke-miterlimit="10" stroke-linecap="round"/>
<path d="M1.01917 150.738L230.318 213.322" stroke="#FAFAFA" stroke-width="0.1545" stroke-miterlimit="10" stroke-linecap="round"/>
<path d="M213.033 213.322L341.981 137.515" stroke="#FAFAFA" stroke-width="0.1545" stroke-miterlimit="10" stroke-linecap="round"/>
<path d="M316.82 -21.8412L1.01917 91.4734" stroke="#FAFAFA" stroke-width="0.1545" stroke-miterlimit="10" stroke-linecap="round"/>
<path d="M115.669 115.85L1.01917 118.16" stroke="#FAFAFA" stroke-width="0.1545" stroke-miterlimit="10" stroke-linecap="round"/>
<path d="M96.1725 115.85L341.981 120.146" stroke="#FAFAFA" stroke-width="0.1545" stroke-miterlimit="10" stroke-linecap="round"/>
<path d="M101.979 188.404L341.981 127.679" stroke="#FAFAFA" stroke-width="0.1545" stroke-miterlimit="10" stroke-linecap="round"/>
</g>
<path d="M4.78162 73.3787V173.079L7.93504 174.664V72.2024L4.78162 73.3787Z" stroke="#FAFAFA" stroke-width="0.2575" stroke-miterlimit="10" stroke-linecap="round"/>
<path d="M7.93506 72.2025L11.3721 72.9282V173.638L7.93506 174.664" stroke="#FAFAFA" stroke-width="0.2575" stroke-miterlimit="10" stroke-linecap="round"/>
<path d="M109.562 184.483V38.2656L116.603 40.226V182.697L109.562 184.483Z" stroke="#FAFAFA" stroke-width="0.2575" stroke-miterlimit="10" stroke-linecap="round"/>
<path d="M109.562 38.2656L102.788 40.3512V182.389L109.562 184.483V38.2656Z" stroke="#FAFAFA" stroke-width="0.2575" stroke-miterlimit="10" stroke-linecap="round"/>
<path d="M142.631 88.2697V187.386L147.745 188.779V87.6023L142.631 88.2697Z" stroke="#FAFAFA" stroke-width="0.2575" stroke-miterlimit="10" stroke-linecap="round"/>
<path d="M147.745 87.6023L152.951 88.4115V186.902L147.745 188.779" stroke="#FAFAFA" stroke-width="0.2575" stroke-miterlimit="10" stroke-linecap="round"/>
<path d="M218.514 208.092V77.6083L211.264 78.5259V206.114L218.514 208.092Z" stroke="#FAFAFA" stroke-width="0.2575" stroke-miterlimit="10" stroke-linecap="round"/>
<path d="M218.514 77.6083L225.096 78.9764V204.221L218.514 208.092V77.6083Z" stroke="#FAFAFA" stroke-width="0.2575" stroke-miterlimit="10" stroke-linecap="round"/>
<path d="M302.079 -18.5543V185.684L306.009 181.988V-11.5467L302.079 -18.5543Z" stroke="#FAFAFA" stroke-width="0.515" stroke-miterlimit="10" stroke-linecap="round"/>
<path d="M302.079 -18.5543L295.939 -16.3519V184.842L302.079 185.684V-18.5543Z" stroke="#FAFAFA" stroke-width="0.515" stroke-miterlimit="10" stroke-linecap="round"/>
<path d="M335.974 41.8943V153.816L333.622 156.035V37.6898L335.974 41.8943Z" stroke="#FAFAFA" stroke-width="0.2575" stroke-miterlimit="10" stroke-linecap="round"/>
<path d="M333.622 37.6898L329.926 38.9411V156.035H333.622" stroke="#FAFAFA" stroke-width="0.2575" stroke-miterlimit="10" stroke-linecap="round"/>
<path d="M189.474 21.8479V170.192L194.788 171.152V19.9458L189.474 21.8479Z" stroke="#FAFAFA" stroke-width="0.2575" stroke-miterlimit="10" stroke-linecap="round"/>
<path d="M194.788 19.9459L200.202 22.849V168.616L194.788 171.152V19.9459Z" stroke="#FAFAFA" stroke-width="0.2575" stroke-miterlimit="10" stroke-linecap="round"/>
<path d="M307.243 186.401L1.01917 144.256" stroke="#FAFAFA" stroke-width="0.2575" stroke-miterlimit="10" stroke-linecap="round"/>
<path d="M329.926 177.683L279.163 172.444V90.0634" stroke="#FAFAFA" stroke-width="0.515" stroke-miterlimit="10" stroke-linecap="round"/>
<path d="M272.806 4.17865L215.994 23.0408" stroke="#FAFAFA" stroke-width="0.515" stroke-miterlimit="10" stroke-linecap="round"/>
<path d="M219.581 19.1783V77.6084" stroke="#FAFAFA" stroke-width="0.515" stroke-miterlimit="10" stroke-linecap="round"/>
<path d="M219.581 21.8561L231.194 26.9199L270.061 14.8234" stroke="#FAFAFA" stroke-width="0.515" stroke-miterlimit="10" stroke-linecap="round"/>
<path d="M231.194 26.9199V79.5604" stroke="#FAFAFA" stroke-width="0.515" stroke-miterlimit="10" stroke-linecap="round"/>
<path d="M235.307 81.0705V29.8232L270.061 19.1783" stroke="#FAFAFA" stroke-width="0.515" stroke-miterlimit="10" stroke-linecap="round"/>
<path d="M235.307 29.8233L238.21 31.5168L270.061 21.8396" stroke="#FAFAFA" stroke-width="0.515" stroke-miterlimit="10" stroke-linecap="round"/>
<path d="M238.21 31.5167V81.6878" stroke="#FAFAFA" stroke-width="0.515" stroke-miterlimit="10" stroke-linecap="round"/>
<path d="M256.53 23.3244V85.4585" stroke="#FAFAFA" stroke-width="0.515" stroke-miterlimit="10" stroke-linecap="round"/>
<path d="M259.183 86.0092V22.507L261.343 24.4841V86.4513" stroke="#FAFAFA" stroke-width="0.515" stroke-miterlimit="10" stroke-linecap="round" stroke-linejoin="round"/>
<path d="M311.339 23.5746V77.6082L326.414 85.2665V43.4128L311.339 23.5746Z" stroke="#FAFAFA" stroke-width="0.515" stroke-miterlimit="10" stroke-linecap="round"/>
<path d="M326.414 43.413H322.143L311.339 32.1257" stroke="#FAFAFA" stroke-width="0.515" stroke-miterlimit="10" stroke-linecap="round"/>
<path d="M322.143 43.4129V82.9642" stroke="#FAFAFA" stroke-width="0.515" stroke-miterlimit="10" stroke-linecap="round"/>
<path d="M320.691 82.3552V44.3806L311.339 34.5449" stroke="#FAFAFA" stroke-width="0.515" stroke-miterlimit="10" stroke-linecap="round"/>
<path d="M320.691 44.3806H319.523L311.339 36.522" stroke="#FAFAFA" stroke-width="0.515" stroke-miterlimit="10" stroke-linecap="round"/>
<path d="M319.523 44.3806V81.7629" stroke="#FAFAFA" stroke-width="0.515" stroke-miterlimit="10" stroke-linecap="round"/>
<path d="M204.482 204.546V95.553L156.972 100.508V191.299L169.152 186.402V99.2403" stroke="#FAFAFA" stroke-width="0.515" stroke-miterlimit="10" stroke-linecap="round"/>
<path d="M169.152 186.401L204.482 195.511" stroke="#FAFAFA" stroke-width="0.515" stroke-miterlimit="10" stroke-linecap="round"/>
<path d="M185.044 107.933L173.114 108.901V131.033H185.044V107.933Z" stroke="#FAFAFA" stroke-width="0.515" stroke-miterlimit="10" stroke-linecap="round"/>
<path d="M187.63 107.933V131.033H202.304V106.798L187.63 107.933Z" stroke="#FAFAFA" stroke-width="0.515" stroke-miterlimit="10" stroke-linecap="round"/>
<path d="M173.114 133.894H185.044V155.184L173.114 154.383V133.894Z" stroke="#FAFAFA" stroke-width="0.515" stroke-miterlimit="10" stroke-linecap="round"/>
<path d="M187.63 133.894V155.184L202.304 156.035V134.22L187.63 133.894Z" stroke="#FAFAFA" stroke-width="0.515" stroke-miterlimit="10" stroke-linecap="round"/>
<path d="M232.545 95.553V116.225L274.007 116.951V100.75L232.545 95.553Z" stroke="#FAFAFA" stroke-width="0.515" stroke-miterlimit="10" stroke-linecap="round"/>
<path d="M269.36 116.868V100.166" stroke="#FAFAFA" stroke-width="0.515" stroke-miterlimit="10" stroke-linecap="round"/>
<path d="M251.833 97.9722V116.567" stroke="#FAFAFA" stroke-width="0.515" stroke-miterlimit="10" stroke-linecap="round"/>
<path d="M255.228 98.3976V116.567" stroke="#FAFAFA" stroke-width="0.515" stroke-miterlimit="10" stroke-linecap="round"/>
<path d="M249.397 97.9722V116.534" stroke="#FAFAFA" stroke-width="0.515" stroke-miterlimit="10" stroke-linecap="round"/>
<path d="M311.339 105.347V117.602L326.414 117.869V107.482L311.339 105.347Z" stroke="#FAFAFA" stroke-width="0.515" stroke-miterlimit="10" stroke-linecap="round"/>
<path d="M324.103 107.149V117.827" stroke="#FAFAFA" stroke-width="0.515" stroke-miterlimit="10" stroke-linecap="round"/>
<path d="M318.873 106.415V117.735" stroke="#FAFAFA" stroke-width="0.515" stroke-miterlimit="10" stroke-linecap="round"/>
<path d="M316.82 106.248V117.702" stroke="#FAFAFA" stroke-width="0.515" stroke-miterlimit="10" stroke-linecap="round"/>
<path d="M315.527 105.939V117.677" stroke="#FAFAFA" stroke-width="0.515" stroke-miterlimit="10" stroke-linecap="round"/>
<path d="M4.78162 70.9928V162.659L206.551 251.697L302.079 174.814L279.163 172.445L218.514 208.092V77.6083L121.2 90.6391V181.538" stroke="#FAFAFA" stroke-width="1.03" stroke-miterlimit="10" stroke-linecap="round"/>
<path d="M302.079 -23.8436V94.8686" stroke="#FAFAFA" stroke-width="1.03" stroke-miterlimit="10" stroke-linecap="round"/>
<path d="M103.013 36.4469V114.106H109.562V184.483L121.2 181.538L156.972 191.298" stroke="#FAFAFA" stroke-width="1.03" stroke-miterlimit="10" stroke-linecap="round"/>
<path d="M36.3909 161.8L11.3721 165.328V116.158L35.9154 115.449L36.3909 161.8ZM36.3909 161.8L109.562 184.483" stroke="#FAFAFA" stroke-width="1.03" stroke-miterlimit="10" stroke-linecap="round"/>
<path d="M4.78162 162.659V173.079L206.484 275.573V251.697" stroke="#FAFAFA" stroke-width="1.03" stroke-miterlimit="10" stroke-linecap="round"/>
<path d="M311.339 218.953C317.287 218.953 322.109 217.105 322.109 214.824C322.109 212.543 317.287 210.695 311.339 210.695C305.391 210.695 300.569 212.543 300.569 214.824C300.569 217.105 305.391 218.953 311.339 218.953Z" stroke="#FAFAFA" stroke-width="0.515" stroke-miterlimit="10" stroke-linecap="round"/>
<path d="M206.484 275.573L335.974 153.816V41.8947L302.079 -18.5543L189.474 21.8479V60.4982L103.013 36.4471L4.78162 73.3788" stroke="#FAFAFA" stroke-width="1.03" stroke-miterlimit="10" stroke-linecap="round"/>
<path d="M189.474 60.4983V81.4711" stroke="#FAFAFA" stroke-width="1.03" stroke-miterlimit="10" stroke-linecap="round"/>
<path d="M302.079 174.814V94.8687" stroke="#FAFAFA" stroke-width="1.03" stroke-miterlimit="10" stroke-linecap="round"/>
<path d="M218.514 77.6083L278.812 90.0635L279.163 172.445" stroke="#FAFAFA" stroke-width="1.03" stroke-miterlimit="10" stroke-linecap="round"/>
<path d="M121.984 54.9672V77.6084L182.625 89.4713V70.5674L121.984 54.9672Z" stroke="#FAFAFA" stroke-width="0.515" stroke-miterlimit="10" stroke-linecap="round"/>
<path d="M182.625 70.5673L177.736 71.7937L177.986 88.5618" stroke="#FAFAFA" stroke-width="0.515" stroke-miterlimit="10" stroke-linecap="round"/>
<path d="M177.736 71.7936L121.984 57.9286" stroke="#FAFAFA" stroke-width="0.515" stroke-miterlimit="10" stroke-linecap="round"/>
<path d="M176.059 88.1864V72.8531L121.984 59.547" stroke="#FAFAFA" stroke-width="0.515" stroke-miterlimit="10" stroke-linecap="round"/>
<path d="M176.059 72.8531H174.724V87.9278" stroke="#FAFAFA" stroke-width="0.515" stroke-miterlimit="10" stroke-linecap="round"/>
<path d="M163.462 69.7496V85.717" stroke="#FAFAFA" stroke-width="0.515" stroke-miterlimit="10" stroke-linecap="round"/>
<path d="M161.585 69.2911V85.2084" stroke="#FAFAFA" stroke-width="0.515" stroke-miterlimit="10" stroke-linecap="round"/>
<path d="M160.292 69.2911V85.1583" stroke="#FAFAFA" stroke-width="0.515" stroke-miterlimit="10" stroke-linecap="round"/>
<path d="M142.631 64.8611V81.646" stroke="#FAFAFA" stroke-width="0.515" stroke-miterlimit="10" stroke-linecap="round"/>
<path d="M140.045 81.1371V63.9852" stroke="#FAFAFA" stroke-width="0.515" stroke-miterlimit="10" stroke-linecap="round"/>
<path d="M138.527 63.6096V80.7782" stroke="#FAFAFA" stroke-width="0.515" stroke-miterlimit="10" stroke-linecap="round"/>
<path d="M103.013 114.107L35.9154 115.45" stroke="#FAFAFA" stroke-width="1.03" stroke-miterlimit="10" stroke-linecap="round"/>
<path d="M85.2106 59.2635V95.4779" stroke="#FAFAFA" stroke-width="0.515" stroke-miterlimit="10" stroke-linecap="round"/>
<path d="M58.3397 68.8987V99.0898" stroke="#FAFAFA" stroke-width="0.515" stroke-miterlimit="10" stroke-linecap="round"/>
<path d="M42.0304 74.755V101.284" stroke="#FAFAFA" stroke-width="0.515" stroke-miterlimit="10" stroke-linecap="round"/>
<path d="M20.3735 82.522V104.863" stroke="#FAFAFA" stroke-width="0.515" stroke-miterlimit="10" stroke-linecap="round"/>
<path d="M20.3735 82.522L23.5937 82.9725V103.762" stroke="#FAFAFA" stroke-width="0.515" stroke-miterlimit="10" stroke-linecap="round"/>
<path d="M23.5936 82.9722L42.0303 77.0408" stroke="#FAFAFA" stroke-width="0.515" stroke-miterlimit="10" stroke-linecap="round"/>
<path d="M58.3397 68.8987L62.7111 69.4243V98.4141" stroke="#FAFAFA" stroke-width="0.515" stroke-miterlimit="10" stroke-linecap="round"/>
<path d="M62.7111 69.4242L85.2105 61.6825" stroke="#FAFAFA" stroke-width="0.515" stroke-miterlimit="10" stroke-linecap="round"/>
<path d="M64.0792 98.3223V70.2669L85.2105 63.1758" stroke="#FAFAFA" stroke-width="0.515" stroke-miterlimit="10" stroke-linecap="round"/>
<path d="M76.0923 66.2293V96.7041" stroke="#FAFAFA" stroke-width="0.515" stroke-miterlimit="10" stroke-linecap="round"/>
<path d="M77.8359 96.4703V65.6452L79.079 66.2292V96.3035" stroke="#FAFAFA" stroke-width="0.515" stroke-miterlimit="10" stroke-linecap="round"/>
<path d="M64.0792 70.2672L65.0469 70.6759V98.1891" stroke="#FAFAFA" stroke-width="0.515" stroke-miterlimit="10" stroke-linecap="round"/>
<path d="M65.047 70.6758L76.0923 67.1219" stroke="#FAFAFA" stroke-width="0.515" stroke-miterlimit="10" stroke-linecap="round"/>
<path d="M79.0789 66.2292L85.2105 64.1436" stroke="#FAFAFA" stroke-width="0.515" stroke-miterlimit="10" stroke-linecap="round"/>
<path d="M24.7366 103.611V83.6564L42.0303 78.4925" stroke="#FAFAFA" stroke-width="0.515" stroke-miterlimit="10" stroke-linecap="round"/>
<path d="M33.3793 81.0787V102.444" stroke="#FAFAFA" stroke-width="0.515" stroke-miterlimit="10" stroke-linecap="round"/>
<path d="M34.5305 102.293V80.7283L35.3731 81.0787V102.177" stroke="#FAFAFA" stroke-width="0.515" stroke-miterlimit="10" stroke-linecap="round"/>
<path d="M24.7366 83.6567L25.5124 83.9404V103.503" stroke="#FAFAFA" stroke-width="0.515" stroke-miterlimit="10" stroke-linecap="round"/>
<path d="M25.5125 83.9401L33.3793 81.6376" stroke="#FAFAFA" stroke-width="0.515" stroke-miterlimit="10" stroke-linecap="round"/>
<path d="M35.3732 81.0785L42.0304 79.1014" stroke="#FAFAFA" stroke-width="0.515" stroke-miterlimit="10" stroke-linecap="round"/>
<path d="M7.93506 44.3806V206.281" stroke="#FAFAFA" stroke-width="0.1545" stroke-miterlimit="10" stroke-linecap="round"/>
<path d="M102.788 14.1059V255.593" stroke="#FAFAFA" stroke-width="0.1545" stroke-miterlimit="10" stroke-linecap="round"/>
<path d="M109.562 16.7672V262.609" stroke="#FAFAFA" stroke-width="0.1545" stroke-miterlimit="10" stroke-linecap="round"/>
<path d="M189.19 11.6867V285.784" stroke="#FAFAFA" stroke-width="0.1545" stroke-miterlimit="10" stroke-linecap="round"/>
<path d="M302.079 -36.5656V210.903" stroke="#FAFAFA" stroke-width="0.1545" stroke-miterlimit="10" stroke-linecap="round"/>
<path d="M147.745 -5.03961V200.775" stroke="#FAFAFA" stroke-width="0.1545" stroke-miterlimit="10" stroke-linecap="round"/>
<path d="M335.974 18.7362V178.343" stroke="#FAFAFA" stroke-width="0.1545" stroke-miterlimit="10" stroke-linecap="round"/>
<path d="M218.747 58.3876V217.994" stroke="#FAFAFA" stroke-width="0.1545" stroke-miterlimit="10" stroke-linecap="round"/>
<path d="M1.01917 63.1928L315.527 -61.7845" stroke="#FAFAFA" stroke-width="0.1545" stroke-miterlimit="10" stroke-linecap="round"/>
<path d="M341.981 37.6901L284.802 -61.7845" stroke="#FAFAFA" stroke-width="0.1545" stroke-miterlimit="10" stroke-linecap="round"/>
<path d="M270.061 2.61017V88.0529" stroke="#FAFAFA" stroke-width="0.515" stroke-miterlimit="10" stroke-linecap="round"/>
<path d="M42.631 120.146H102.788V158.379L42.631 149.979V120.146Z" stroke="#FAFAFA" stroke-width="0.515" stroke-miterlimit="10" stroke-linecap="round"/>
<path d="M46.4435 120.146V149.378L42.631 149.979" stroke="#FAFAFA" stroke-width="0.515" stroke-miterlimit="10" stroke-linecap="round"/>
<path d="M46.4435 149.378L102.788 156.803" stroke="#FAFAFA" stroke-width="0.515" stroke-miterlimit="10" stroke-linecap="round"/>
<path d="M48.2704 120.146V148.218L102.788 154.584" stroke="#FAFAFA" stroke-width="0.515" stroke-miterlimit="10" stroke-linecap="round"/>
<path d="M72.7053 120.146V151.071" stroke="#FAFAFA" stroke-width="0.515" stroke-miterlimit="10" stroke-linecap="round"/>
<path d="M77.2269 151.397V120.146" stroke="#FAFAFA" stroke-width="0.515" stroke-miterlimit="10" stroke-linecap="round"/>
<path d="M75.5333 120.146V151.397" stroke="#FAFAFA" stroke-width="0.515" stroke-miterlimit="10" stroke-linecap="round"/>
<path d="M48.2704 148.218H49.6469V120.146" stroke="#FAFAFA" stroke-width="0.515" stroke-miterlimit="10" stroke-linecap="round"/>
</g>
</svg>
