<svg width="17" height="14" viewBox="0 0 17 14" fill="none" xmlns="http://www.w3.org/2000/svg">
<path d="M15.7115 2.70211L15.7001 2.71454L15.6896 2.72772L7.72226 12.6918C7.63306 12.7848 7.52671 12.8596 7.40902 12.9123C7.28628 12.9672 7.15374 12.9967 7.01932 12.9992C6.88489 13.0017 6.75134 12.9771 6.62666 12.9268C6.50197 12.8764 6.38871 12.8015 6.29365 12.7064L6.29362 12.7064L1.00162 7.41442L0.995387 7.40818L0.988932 7.40217C0.890683 7.31062 0.81188 7.20022 0.757224 7.07755C0.702568 6.95489 0.673179 6.82247 0.67081 6.6882C0.668441 6.55393 0.693141 6.42056 0.743436 6.29604C0.79373 6.17152 0.86859 6.05841 0.963548 5.96345C1.05851 5.86849 1.17162 5.79363 1.29614 5.74334C1.42065 5.69304 1.55403 5.66834 1.6883 5.67071C1.82257 5.67308 1.95498 5.70247 2.07765 5.75713C2.20032 5.81178 2.31072 5.89058 2.40227 5.98883L2.40832 5.99533L2.4146 6.00161L6.6026 10.1876L7.00133 10.5861L7.34939 10.1427L14.2882 1.3019L14.3009 1.28714C14.4868 1.11778 14.7299 1.02449 14.9819 1.0264C15.2412 1.02836 15.4897 1.13098 15.6748 1.31262C15.8599 1.49426 15.9672 1.7407 15.974 1.99994C15.9809 2.25918 15.8867 2.51094 15.7115 2.70211Z" fill="black" stroke="black"/>
</svg>
