<svg width="371" height="224" viewBox="0 0 371 224" fill="none" xmlns="http://www.w3.org/2000/svg">
<g clip-path="url(#clip0_533_22120)">
<rect width="371" height="224" rx="12" fill="#85CEE4"/>
<path d="M267.815 30.3146C267.815 30.117 267.971 29.9617 268.168 29.9617L352.693 29.9617L352.693 -97.1212L268.168 -97.1212C267.971 -97.1212 267.815 -97.2765 267.815 -97.4741C267.815 -97.6718 267.971 -97.827 268.168 -97.827L353.046 -97.827C353.243 -97.827 353.398 -97.6718 353.398 -97.4741L353.398 30.3146C353.398 30.5122 353.243 30.6675 353.046 30.6675L268.168 30.6675C267.971 30.6675 267.815 30.5122 267.815 30.3146Z" fill="white"/>
<path d="M-30.6737 203.528L-30.6737 -355.875C-30.6737 -356.072 -30.5184 -356.227 -30.3208 -356.227L12.2802 -356.227C12.4778 -356.227 12.6331 -356.072 12.6331 -355.875L12.633 203.528C12.633 203.725 12.4778 203.881 12.2801 203.881L-30.3208 203.881C-30.5184 203.881 -30.6737 203.725 -30.6737 203.528ZM-29.9679 -355.522L-29.9679 203.175L11.9273 203.175L11.9273 -355.522L-29.9679 -355.522Z" fill="white"/>
<path d="M267.505 -13.853C267.505 -14.0507 267.66 -14.2059 267.858 -14.2059C282.665 -14.2059 296.47 -6.8658 304.77 5.42891C304.883 5.58418 304.841 5.81004 304.671 5.92296C304.516 6.03589 304.29 5.99353 304.177 5.82414C296.004 -6.27295 282.425 -13.5002 267.844 -13.5002C267.66 -13.5002 267.505 -13.6554 267.505 -13.853Z" fill="white"/>
<path d="M269.269 28.7477L269.269 -13.8533L266.446 -13.8533L266.446 28.7477L269.269 28.7477Z" fill="white"/>
<path d="M307.236 10.2774L305.875 7.80408L267.179 29.1018L268.541 31.5751L307.236 10.2774Z" fill="white"/>
<path d="M54.514 204.939L54.514 202.116C54.514 201.918 54.6693 201.763 54.8669 201.763L97.4679 201.763C97.6655 201.763 97.8208 201.918 97.8208 202.116L97.8208 204.939C97.8208 205.137 97.6655 205.292 97.4679 205.292L54.8669 205.292C54.6834 205.292 54.514 205.137 54.514 204.939ZM55.2198 202.469L55.2198 204.586L97.115 204.586L97.115 202.469L55.2198 202.469Z" fill="white"/>
<path d="M161.016 204.939L161.016 202.116C161.016 201.918 161.172 201.763 161.369 201.763L203.956 201.763C204.154 201.763 204.309 201.918 204.309 202.116L204.309 204.939C204.309 205.137 204.154 205.292 203.956 205.292L161.355 205.292C161.172 205.292 161.016 205.137 161.016 204.939ZM161.722 202.469L161.722 204.586L203.617 204.586L203.617 202.469L161.722 202.469Z" fill="white"/>
<path d="M267.505 204.939L267.505 202.116C267.505 201.918 267.66 201.763 267.858 201.763L310.459 201.763C310.656 201.763 310.812 201.918 310.812 202.116L310.812 204.939C310.812 205.137 310.656 205.292 310.459 205.292L267.858 205.292C267.66 205.292 267.505 205.137 267.505 204.939ZM268.211 202.469L268.211 204.586L310.106 204.586L310.106 202.469L268.211 202.469Z" fill="white"/>
<path d="M11.9274 30.3148L11.9274 -353.051C11.9274 -353.249 12.0827 -353.404 12.2803 -353.404L267.858 -353.404C268.055 -353.404 268.211 -353.249 268.211 -353.051C268.211 -352.854 268.055 -352.699 267.858 -352.699L12.6332 -352.699L12.6332 29.9619L267.858 29.9619C268.055 29.9619 268.211 30.1172 268.211 30.3148C268.211 30.5124 268.055 30.6677 267.858 30.6677L12.2803 30.6677C12.0827 30.6677 11.9274 30.5124 11.9274 30.3148Z" fill="white"/>
<path d="M225.214 30.089L225.214 -33.5725C225.214 -33.7701 225.37 -33.9254 225.567 -33.9254L267.858 -33.9254C268.055 -33.9254 268.21 -33.7701 268.21 -33.5725L268.21 30.089C268.21 30.2866 268.055 30.4418 267.858 30.4418L225.567 30.4418C225.37 30.4418 225.214 30.2866 225.214 30.089ZM225.92 -33.2196L225.92 29.7361L267.505 29.7361L267.505 -33.2196L225.92 -33.2196Z" fill="white"/>
<path d="M225.553 30.089L225.553 -33.5725C225.553 -33.7701 225.708 -33.9254 225.906 -33.9254L235.9 -33.9254C236.097 -33.9254 236.253 -33.7701 236.253 -33.5725L236.253 30.089C236.253 30.2866 236.097 30.4418 235.9 30.4418L225.906 30.4418C225.722 30.4418 225.553 30.2866 225.553 30.089ZM226.259 -33.2196L226.259 29.7361L235.547 29.7361L235.547 -33.2196L226.259 -33.2196Z" fill="white"/>
<path d="M230.776 30.0889C230.776 30.0042 230.804 29.9055 230.875 29.8349L235.632 25.0779C235.773 24.9368 235.999 24.9368 236.126 25.0779C236.267 25.2191 236.267 25.4449 236.126 25.5719L231.369 30.3289C231.227 30.4701 231.002 30.4701 230.875 30.3289C230.818 30.2725 230.776 30.1736 230.776 30.0889Z" fill="white"/>
<path d="M225.553 30.0889C225.553 30.0042 225.581 29.9054 225.652 29.8349L235.632 19.841C235.773 19.6998 235.999 19.6998 236.126 19.841C236.267 19.9821 236.267 20.208 236.126 20.335L226.146 30.3289C226.005 30.4701 225.779 30.4701 225.652 30.3289C225.595 30.2725 225.553 30.1736 225.553 30.0889Z" fill="white"/>
<path d="M225.553 24.8521C225.553 24.7675 225.581 24.6687 225.652 24.5981L235.632 14.6183C235.773 14.4772 235.999 14.4772 236.126 14.6183C236.267 14.7595 236.267 14.9853 236.126 15.1124L226.146 25.0921C226.005 25.2332 225.779 25.2332 225.652 25.0921C225.595 25.0356 225.553 24.951 225.553 24.8521Z" fill="white"/>
<path d="M225.553 19.629C225.553 19.5443 225.581 19.4455 225.652 19.3749L235.632 9.39517C235.773 9.25402 235.999 9.25402 236.126 9.39517C236.267 9.53633 236.267 9.76219 236.126 9.88923L226.146 19.869C226.005 20.0101 225.779 20.0101 225.652 19.869C225.595 19.8125 225.553 19.7278 225.553 19.629Z" fill="white"/>
<path d="M225.553 14.4066C225.553 14.3219 225.581 14.223 225.652 14.1524L235.632 4.1586C235.773 4.01745 235.999 4.01745 236.126 4.1586C236.267 4.29976 236.267 4.52562 236.126 4.65266L226.146 14.6465C226.005 14.7877 225.779 14.7877 225.652 14.6465C225.595 14.59 225.553 14.4913 225.553 14.4066Z" fill="white"/>
<path d="M225.553 9.18381C225.553 9.09912 225.581 9.00032 225.652 8.92974L235.632 -1.05002C235.773 -1.19117 235.999 -1.19117 236.126 -1.05002C236.267 -0.90886 236.267 -0.683002 236.126 -0.555961L226.146 9.4238C226.005 9.56495 225.779 9.56495 225.652 9.4238C225.595 9.35322 225.553 9.2685 225.553 9.18381Z" fill="white"/>
<path d="M225.553 3.94696C225.553 3.86227 225.581 3.76343 225.652 3.69285L235.632 -6.30099C235.773 -6.44215 235.999 -6.44215 236.126 -6.30099C236.267 -6.15984 236.267 -5.93398 236.126 -5.80694L226.146 4.18691C226.005 4.32806 225.779 4.32806 225.652 4.18691C225.595 4.13044 225.553 4.04577 225.553 3.94696Z" fill="white"/>
<path d="M11.9274 30.3146L11.9274 -6.76711C11.9274 -6.96473 12.0827 -7.12 12.2803 -7.12L54.8812 -7.12C55.0789 -7.12 55.2341 -6.96472 55.2341 -6.7671L55.2341 30.3146C55.2341 30.5122 55.0789 30.6675 54.8812 30.6675L12.2803 30.6675C12.0827 30.6675 11.9274 30.5122 11.9274 30.3146ZM12.6332 -6.41422L12.6332 29.9617L54.5283 29.9617L54.5283 -6.41421L12.6332 -6.41422Z" fill="white"/>
<path d="M54.514 30.3146L54.514 -6.76711C54.514 -6.96473 54.6693 -7.12 54.8669 -7.12L97.4679 -7.12C97.6655 -7.12 97.8208 -6.96472 97.8208 -6.7671L97.8208 30.3146C97.8208 30.5122 97.6655 30.6675 97.4679 30.6675L54.8669 30.6675C54.6834 30.6675 54.514 30.5122 54.514 30.3146ZM55.2198 -6.41422L55.2198 29.9617L97.115 29.9617L97.115 -6.41421L55.2198 -6.41422Z" fill="white"/>
<path d="M97.1151 30.3146L97.1151 -6.76711C97.1151 -6.96473 97.2704 -7.12 97.468 -7.12L140.069 -7.12C140.267 -7.12 140.422 -6.96472 140.422 -6.7671L140.422 30.3146C140.422 30.5122 140.267 30.6675 140.069 30.6675L97.468 30.6675C97.2704 30.6675 97.1151 30.5122 97.1151 30.3146ZM97.8209 -6.41422L97.8209 29.9617L139.716 29.9617L139.716 -6.41421L97.8209 -6.41422Z" fill="white"/>
<path d="M139.716 30.3146L139.716 -6.76711C139.716 -6.96473 139.871 -7.12 140.069 -7.12L182.67 -7.12C182.867 -7.12 183.023 -6.96472 183.023 -6.7671L183.023 30.3146C183.023 30.5122 182.867 30.6675 182.67 30.6675L140.069 30.6675C139.871 30.6675 139.716 30.5122 139.716 30.3146ZM140.422 -6.41422L140.422 29.9617L182.317 29.9617L182.317 -6.41421L140.422 -6.41422Z" fill="white"/>
<path d="M182.317 30.3146L182.317 -6.76711C182.317 -6.96473 182.472 -7.12 182.67 -7.12L225.271 -7.12C225.469 -7.12 225.624 -6.96472 225.624 -6.7671L225.624 30.3146C225.624 30.5122 225.469 30.6675 225.271 30.6675L182.67 30.6675C182.472 30.6675 182.317 30.5122 182.317 30.3146ZM183.023 -6.41422L183.023 29.9617L224.918 29.9617L224.918 -6.41421L183.023 -6.41422Z" fill="white"/>
<path d="M106.079 18.9233C106.079 15.9308 108.507 13.5029 111.499 13.5029C114.492 13.5029 116.919 15.9308 116.919 18.9233C116.919 21.9158 114.492 24.3437 111.499 24.3437C108.521 24.3578 106.079 21.9158 106.079 18.9233ZM116.369 18.9233C116.369 16.2414 114.195 14.0675 111.513 14.0675C108.831 14.0675 106.657 16.2414 106.657 18.9233C106.657 21.6053 108.831 23.7791 111.513 23.7791C114.195 23.7791 116.369 21.6053 116.369 18.9233Z" fill="white"/>
<path d="M106.079 4.62413C106.079 1.63162 108.507 -0.796265 111.499 -0.796265C114.492 -0.796265 116.919 1.63162 116.919 4.62413C116.919 7.61664 114.492 10.0445 111.499 10.0445C108.521 10.0445 106.079 7.61664 106.079 4.62413ZM116.369 4.62413C116.369 1.94216 114.195 -0.231648 111.513 -0.231648C108.831 -0.231649 106.657 1.94216 106.657 4.62413C106.657 7.3061 108.831 9.47991 111.513 9.47991C114.195 9.47991 116.369 7.29198 116.369 4.62413Z" fill="white"/>
<path d="M120.604 18.9236C120.604 15.9311 123.031 13.5032 126.024 13.5032C129.016 13.5032 131.444 15.9311 131.444 18.9236C131.444 21.9161 129.016 24.344 126.024 24.344C123.031 24.3581 120.604 21.9161 120.604 18.9236ZM130.88 18.9236C130.88 16.2416 128.706 14.0678 126.024 14.0678C123.342 14.0678 121.168 16.2416 121.168 18.9236C121.168 21.6055 123.342 23.7793 126.024 23.7793C128.706 23.7793 130.88 21.6055 130.88 18.9236Z" fill="white"/>
<path d="M120.604 4.62413C120.604 1.63162 123.031 -0.796265 126.024 -0.796265C129.016 -0.796265 131.444 1.63162 131.444 4.62413C131.444 7.61664 129.016 10.0445 126.024 10.0445C123.031 10.0445 120.604 7.61664 120.604 4.62413ZM130.88 4.62413C130.88 1.94216 128.706 -0.231648 126.024 -0.231648C123.342 -0.231649 121.168 1.94216 121.168 4.62413C121.168 7.3061 123.342 9.47991 126.024 9.47991C128.706 9.47991 130.88 7.29198 130.88 4.62413Z" fill="white"/>
<path d="M12.0261 11.8374C12.0261 11.6963 12.139 11.5834 12.2802 11.5834L13.6917 11.5834C13.8329 11.5834 13.9458 11.6963 13.9458 11.8374C13.9458 11.9786 13.8329 12.0915 13.6917 12.0915L12.2802 12.0915C12.139 12.0915 12.0261 11.9786 12.0261 11.8374Z" fill="white"/>
<path d="M17.7005 11.8374C17.7005 11.6963 17.8134 11.5834 17.9545 11.5834L20.7918 11.5834C20.9329 11.5834 21.0459 11.6963 21.0459 11.8374C21.0459 11.9786 20.9329 12.0915 20.7918 12.0915L17.9545 12.0915C17.8134 12.0915 17.7005 11.9786 17.7005 11.8374ZM24.8006 11.8374C24.8006 11.6963 24.9135 11.5834 25.0547 11.5834L27.8919 11.5834C28.0331 11.5834 28.146 11.6963 28.146 11.8374C28.146 11.9786 28.0331 12.0915 27.8919 12.0915L25.0547 12.0915C24.9135 12.0915 24.8006 11.9786 24.8006 11.8374ZM31.9008 11.8374C31.9008 11.6963 32.0137 11.5834 32.1548 11.5834L34.9921 11.5834C35.1333 11.5834 35.2462 11.6963 35.2462 11.8374C35.2462 11.9786 35.1333 12.0915 34.9921 12.0915L32.1548 12.0915C32.0137 12.0915 31.9008 11.9786 31.9008 11.8374ZM39.0009 11.8374C39.0009 11.6963 39.1138 11.5834 39.255 11.5834L42.0923 11.5834C42.2334 11.5834 42.3463 11.6963 42.3463 11.8374C42.3463 11.9786 42.2334 12.0915 42.0923 12.0915L39.255 12.0915C39.1138 12.0915 39.0009 11.9786 39.0009 11.8374ZM46.1011 11.8374C46.1011 11.6963 46.214 11.5834 46.3552 11.5834L49.1924 11.5834C49.3336 11.5834 49.4465 11.6963 49.4465 11.8374C49.4465 11.9786 49.3336 12.0915 49.1924 12.0915L46.3552 12.0915C46.214 12.0915 46.1011 11.9786 46.1011 11.8374ZM53.2012 11.8374C53.2012 11.6963 53.3142 11.5834 53.4553 11.5834L56.2926 11.5834C56.4337 11.5834 56.5466 11.6963 56.5466 11.8374C56.5466 11.9786 56.4337 12.0915 56.2926 12.0915L53.4553 12.0915C53.3142 12.0915 53.2012 11.9786 53.2012 11.8374ZM60.3014 11.8374C60.3014 11.6963 60.4143 11.5834 60.5555 11.5834L63.3927 11.5834C63.5339 11.5834 63.6468 11.6963 63.6468 11.8374C63.6468 11.9786 63.5339 12.0915 63.3927 12.0915L60.5555 12.0915C60.4143 12.0915 60.3014 11.9786 60.3014 11.8374ZM67.4016 11.8374C67.4016 11.6963 67.5145 11.5834 67.6557 11.5834L70.4929 11.5834C70.634 11.5834 70.747 11.6963 70.747 11.8374C70.747 11.9786 70.634 12.0915 70.4929 12.0915L67.6557 12.0915C67.5145 12.0915 67.4016 11.9786 67.4016 11.8374ZM74.5017 11.8374C74.5017 11.6963 74.6147 11.5834 74.7558 11.5834L77.593 11.5834C77.7342 11.5834 77.8471 11.6963 77.8471 11.8374C77.8471 11.9786 77.7342 12.0915 77.593 12.0915L74.7558 12.0915C74.6147 12.0915 74.5017 11.9786 74.5017 11.8374ZM81.6019 11.8374C81.6019 11.6963 81.7148 11.5834 81.856 11.5834L84.6932 11.5834C84.8344 11.5834 84.9473 11.6963 84.9473 11.8374C84.9473 11.9786 84.8344 12.0915 84.6932 12.0915L81.856 12.0915C81.7148 12.0915 81.6019 11.9786 81.6019 11.8374ZM88.702 11.8374C88.702 11.6963 88.815 11.5834 88.9561 11.5834L91.7934 11.5834C91.9345 11.5834 92.0475 11.6963 92.0475 11.8374C92.0475 11.9786 91.9345 12.0915 91.7934 12.0915L88.9561 12.0915C88.815 12.0915 88.702 11.9786 88.702 11.8374ZM95.8022 11.8374C95.8022 11.6963 95.9152 11.5834 96.0563 11.5834L98.8935 11.5834C99.0347 11.5834 99.1476 11.6963 99.1476 11.8374C99.1476 11.9786 99.0347 12.0915 98.8935 12.0915L96.0563 12.0915C95.9152 12.0915 95.8022 11.9786 95.8022 11.8374ZM102.902 11.8374C102.902 11.6963 103.015 11.5834 103.156 11.5834L105.994 11.5834C106.135 11.5834 106.248 11.6963 106.248 11.8374C106.248 11.9786 106.135 12.0915 105.994 12.0915L103.156 12.0915C103.015 12.0915 102.902 11.9786 102.902 11.8374ZM110.003 11.8374C110.003 11.6963 110.115 11.5834 110.257 11.5834L113.094 11.5834C113.235 11.5834 113.348 11.6963 113.348 11.8374C113.348 11.9786 113.235 12.0915 113.094 12.0915L110.257 12.0915C110.115 12.0915 110.003 11.9786 110.003 11.8374ZM117.103 11.8374C117.103 11.6963 117.216 11.5834 117.357 11.5834L120.194 11.5834C120.335 11.5834 120.448 11.6963 120.448 11.8374C120.448 11.9786 120.335 12.0915 120.194 12.0915L117.357 12.0915C117.216 12.0915 117.103 11.9786 117.103 11.8374ZM124.203 11.8374C124.203 11.6963 124.316 11.5834 124.457 11.5834L127.294 11.5834C127.435 11.5834 127.548 11.6963 127.548 11.8374C127.548 11.9786 127.435 12.0915 127.294 12.0915L124.457 12.0915C124.316 12.0915 124.203 11.9786 124.203 11.8374ZM131.303 11.8374C131.303 11.6963 131.416 11.5834 131.557 11.5834L134.394 11.5834C134.536 11.5834 134.648 11.6963 134.648 11.8374C134.648 11.9786 134.536 12.0915 134.394 12.0915L131.557 12.0915C131.416 12.0915 131.303 11.9786 131.303 11.8374ZM138.403 11.8374C138.403 11.6963 138.516 11.5834 138.657 11.5834L141.495 11.5834C141.636 11.5834 141.749 11.6963 141.749 11.8374C141.749 11.9786 141.636 12.0915 141.495 12.0915L138.657 12.0915C138.516 12.0915 138.403 11.9786 138.403 11.8374ZM145.503 11.8374C145.503 11.6963 145.616 11.5834 145.757 11.5834L148.595 11.5834C148.736 11.5834 148.849 11.6963 148.849 11.8374C148.849 11.9786 148.736 12.0915 148.595 12.0915L145.757 12.0915C145.616 12.0915 145.503 11.9786 145.503 11.8374ZM152.604 11.8374C152.604 11.6963 152.716 11.5834 152.858 11.5834L155.695 11.5834C155.836 11.5834 155.949 11.6963 155.949 11.8374C155.949 11.9786 155.836 12.0915 155.695 12.0915L152.858 12.0915C152.716 12.0915 152.604 11.9786 152.604 11.8374ZM159.704 11.8374C159.704 11.6963 159.817 11.5834 159.958 11.5834L162.795 11.5834C162.936 11.5834 163.049 11.6963 163.049 11.8374C163.049 11.9786 162.936 12.0915 162.795 12.0915L159.958 12.0915C159.817 12.0915 159.704 11.9786 159.704 11.8374ZM166.804 11.8374C166.804 11.6963 166.917 11.5834 167.058 11.5834L169.895 11.5834C170.036 11.5834 170.149 11.6963 170.149 11.8374C170.149 11.9786 170.036 12.0915 169.895 12.0915L167.058 12.0915C166.917 12.0915 166.804 11.9786 166.804 11.8374ZM173.904 11.8374C173.904 11.6963 174.017 11.5834 174.158 11.5834L176.995 11.5834C177.136 11.5834 177.249 11.6963 177.249 11.8374C177.249 11.9786 177.136 12.0915 176.995 12.0915L174.158 12.0915C174.017 12.0915 173.904 11.9786 173.904 11.8374ZM181.004 11.8374C181.004 11.6963 181.117 11.5834 181.258 11.5834L184.095 11.5834C184.237 11.5834 184.35 11.6963 184.35 11.8374C184.35 11.9786 184.237 12.0915 184.095 12.0915L181.258 12.0915C181.117 12.0915 181.004 11.9786 181.004 11.8374ZM188.104 11.8374C188.104 11.6963 188.217 11.5834 188.358 11.5834L191.196 11.5834C191.337 11.5834 191.45 11.6963 191.45 11.8374C191.45 11.9786 191.337 12.0915 191.196 12.0915L188.358 12.0915C188.217 12.0915 188.104 11.9786 188.104 11.8374ZM195.204 11.8374C195.204 11.6963 195.317 11.5834 195.459 11.5834L198.296 11.5834C198.437 11.5834 198.55 11.6963 198.55 11.8374C198.55 11.9786 198.437 12.0915 198.296 12.0915L195.459 12.0915C195.317 12.0915 195.204 11.9786 195.204 11.8374ZM202.305 11.8374C202.305 11.6963 202.418 11.5834 202.559 11.5834L205.396 11.5834C205.537 11.5834 205.65 11.6963 205.65 11.8374C205.65 11.9786 205.537 12.0915 205.396 12.0915L202.559 12.0915C202.403 12.0915 202.305 11.9786 202.305 11.8374ZM209.405 11.8374C209.405 11.6963 209.518 11.5834 209.659 11.5834L212.496 11.5834C212.637 11.5834 212.75 11.6963 212.75 11.8374C212.75 11.9786 212.637 12.0915 212.496 12.0915L209.659 12.0915C209.504 12.0915 209.405 11.9786 209.405 11.8374ZM216.505 11.8374C216.505 11.6963 216.618 11.5834 216.759 11.5834L219.596 11.5834C219.737 11.5834 219.85 11.6963 219.85 11.8374C219.85 11.9786 219.737 12.0915 219.596 12.0915L216.759 12.0915C216.604 12.0915 216.505 11.9786 216.505 11.8374Z" fill="white"/>
<path d="M223.605 11.8374C223.605 11.6963 223.718 11.5834 223.859 11.5834L225.271 11.5834C225.412 11.5834 225.525 11.6963 225.525 11.8374C225.525 11.9786 225.412 12.0915 225.271 12.0915L223.859 12.0915C223.704 12.0915 223.605 11.9786 223.605 11.8374Z" fill="white"/>
<path d="M188.542 19.0643L188.542 2.84545C188.542 0.756333 190.25 -0.951661 192.339 -0.951661L215.588 -0.95166C217.677 -0.95166 219.385 0.756334 219.385 2.84545L219.385 19.0643C219.385 21.1534 217.677 22.8614 215.588 22.8614L192.339 22.8614C190.236 22.8614 188.542 21.1675 188.542 19.0643ZM218.538 2.85953C218.538 1.23624 217.211 -0.0906277 215.588 -0.0906278L192.339 -0.0906288C190.716 -0.0906289 189.389 1.23623 189.389 2.85953L189.389 19.0784C189.389 20.7017 190.716 22.0286 192.339 22.0286L215.588 22.0286C217.211 22.0286 218.538 20.7017 218.538 19.0784L218.538 2.85953Z" fill="white"/>
<path d="M203.956 25.3175C204.761 25.3175 205.41 25.9668 205.41 26.7714C205.41 27.576 204.761 28.2253 203.956 28.2253C203.152 28.2253 202.503 27.576 202.503 26.7714C202.517 25.9668 203.166 25.3175 203.956 25.3175Z" fill="white"/>
<path d="M135.834 164.837C135.834 164.088 136.23 163.524 136.992 163.227C138.714 162.55 141.904 163.51 142.864 164.978C144.148 166.954 146.619 178.077 146.717 178.543C146.746 178.642 146.717 178.755 146.647 178.839C146.576 178.924 146.477 178.966 146.365 178.966C146.026 178.966 138.177 178.811 135.863 165.218C135.834 165.105 135.834 164.964 135.834 164.837ZM145.913 178.232C145.419 176.044 143.33 167.024 142.257 165.373C141.466 164.159 138.657 163.34 137.232 163.891C136.667 164.117 136.455 164.512 136.554 165.119C138.46 176.27 144.247 177.978 145.913 178.232Z" fill="white"/>
<path d="M144.84 163.369C144.84 163.213 144.953 163.072 145.094 163.044C145.433 162.959 179.607 155.196 186.171 154.448C188.415 154.194 200.413 153.911 217.479 153.742C217.634 153.742 217.761 153.841 217.804 153.982C218.679 157.003 219.653 160.221 220.937 163.242C220.98 163.34 220.966 163.467 220.909 163.552C220.853 163.651 220.74 163.707 220.627 163.707C219.794 163.707 218.961 163.722 218.128 163.722L145.179 163.722C145.009 163.722 144.868 163.595 144.854 163.425C144.84 163.383 144.84 163.383 144.84 163.369ZM217.225 154.405C200.568 154.589 188.415 154.857 186.241 155.111C180.863 155.732 156.612 161.138 148.157 163.044L218.114 163.044C218.778 163.044 219.455 163.044 220.119 163.044C218.961 160.193 218.044 157.214 217.225 154.405Z" fill="white"/>
<path d="M220.966 154.024C220.966 153.968 220.98 153.911 221.008 153.855C221.064 153.742 221.191 153.671 221.318 153.671C234.474 153.572 244.637 153.516 257.596 153.544C257.638 153.544 257.68 153.558 257.723 153.572C259.868 154.405 262.649 155.28 265.585 156.212C270.201 157.666 274.972 159.162 278.134 160.785C278.275 160.856 278.346 161.025 278.317 161.167C278.289 161.322 278.162 161.435 277.993 161.449C260.983 162.719 243.748 163.467 226.753 163.665C226.626 163.665 226.499 163.594 226.442 163.482C224.876 160.517 223.097 157.497 221.022 154.222C220.994 154.151 220.966 154.095 220.966 154.024ZM257.525 154.25C244.807 154.222 234.785 154.278 221.954 154.377C223.845 157.384 225.497 160.207 226.965 162.959C243.438 162.762 260.136 162.056 276.638 160.842C273.574 159.459 269.41 158.146 265.373 156.89C262.451 155.958 259.685 155.097 257.525 154.25Z" fill="white"/>
<path d="M144.84 67.6648C144.84 67.6507 144.84 67.6366 144.84 67.6225C144.854 67.4531 144.995 67.326 145.165 67.326L218.114 67.326C218.947 67.326 219.78 67.3261 220.613 67.3402C220.726 67.3402 220.825 67.3966 220.895 67.4954C220.952 67.5942 220.966 67.7072 220.923 67.806C219.639 70.8267 218.665 74.031 217.79 77.0658C217.747 77.207 217.62 77.3058 217.465 77.3058C200.399 77.1223 188.401 76.8541 186.157 76.6C179.607 75.8519 145.433 68.0742 145.08 68.0036C144.939 67.9471 144.84 67.8201 144.84 67.6648ZM220.119 68.0036C219.455 68.0036 218.792 68.0036 218.114 68.0036L148.143 68.0036C156.598 69.9092 180.849 75.3155 186.227 75.9366C188.401 76.1907 200.555 76.4589 217.211 76.6424C218.044 73.8051 218.961 70.8267 220.119 68.0036Z" fill="white"/>
<path d="M220.966 76.9954C220.966 76.9248 220.98 76.8683 221.022 76.8119C223.097 73.5371 224.876 70.5163 226.442 67.552C226.499 67.4391 226.626 67.3685 226.753 67.3685C243.776 67.5661 261.026 68.3143 277.993 69.5847C278.148 69.5988 278.275 69.7117 278.317 69.867C278.346 70.0223 278.275 70.1776 278.134 70.2481C274.944 71.8997 270.102 73.4524 265.416 74.9486C262.536 75.8802 259.812 76.7413 257.723 77.5741C257.68 77.5883 257.638 77.6024 257.596 77.6024C248.717 77.6165 241.123 77.5459 233.091 77.4612C229.35 77.4188 225.497 77.3906 221.318 77.3483C221.191 77.3483 221.078 77.2777 221.008 77.1648C220.98 77.1083 220.966 77.0519 220.966 76.9954ZM226.965 68.0743C225.497 70.8269 223.859 73.6358 221.954 76.6566C225.892 76.6848 229.548 76.7272 233.091 76.7554C241.109 76.8401 248.675 76.9107 257.525 76.8966C259.642 76.0779 262.338 75.2027 265.204 74.2852C269.312 72.9724 273.532 71.6032 276.638 70.1917C260.179 68.9777 243.466 68.2719 226.965 68.0743Z" fill="white"/>
<path d="M297.303 160.87C297.303 160.842 297.303 160.814 297.317 160.785C297.345 160.658 297.444 160.559 297.571 160.517C298.559 160.263 301.665 157.694 304.403 155.421C307.635 152.754 309.654 151.116 310.501 150.862C311.193 150.664 311.898 151.06 312.378 151.892C313.508 153.897 313.042 157.638 309.315 161.096C303.697 166.333 297.486 161.152 297.43 161.11C297.345 161.068 297.303 160.969 297.303 160.87ZM312.209 154.207C312.209 153.36 312.011 152.683 311.771 152.259C311.475 151.723 311.066 151.455 310.713 151.554C309.936 151.78 307.24 154.01 304.869 155.972C302.243 158.146 299.759 160.207 298.362 160.941C299.83 161.985 304.488 164.653 308.849 160.602C311.447 158.174 312.209 155.859 312.209 154.207Z" fill="white"/>
<path d="M71.5376 145.089C71.5376 144.99 71.5799 144.906 71.6505 144.835C71.7352 144.75 71.8763 144.722 71.9893 144.75C72.1587 144.793 88.4481 149.564 94.0379 160.983C94.0943 161.082 94.0944 161.209 94.0238 161.308C93.9673 161.407 93.8685 161.477 93.7415 161.477C93.558 161.492 75.8711 162.691 71.5376 145.16C71.5376 145.146 71.5376 145.117 71.5376 145.089ZM93.1486 160.814C88.1093 151.23 75.3064 146.571 72.3845 145.611C76.3792 160.278 90.2408 160.856 93.1486 160.814Z" fill="white"/>
<path d="M135.834 66.1826C135.834 66.0555 135.849 65.9144 135.877 65.7873C138.192 52.194 146.04 52.0387 146.379 52.0387C146.492 52.0387 146.59 52.0811 146.661 52.1658C146.732 52.2505 146.746 52.3634 146.732 52.4622C146.633 52.928 144.163 64.0511 142.878 66.0273C141.918 67.5094 138.728 68.4552 137.006 67.7777C136.23 67.4953 135.834 66.9307 135.834 66.1826ZM136.554 65.9003C136.455 66.5213 136.667 66.9166 137.232 67.1283C138.657 67.6788 141.467 66.846 142.257 65.6462C143.33 63.9947 145.419 54.9748 145.913 52.7869C144.247 53.0551 138.446 54.7913 136.554 65.9003Z" fill="white"/>
<path d="M64.0281 128.546L64.0281 102.488C64.0281 81.0183 81.4892 63.5573 102.959 63.5573L136.611 63.5573C136.724 63.5573 136.822 63.6137 136.893 63.6843C136.964 63.769 136.992 63.882 136.964 63.9808C136.822 64.6019 136.681 65.2229 136.568 65.9005C136.455 66.5075 136.681 66.9168 137.246 67.1285C138.672 67.6791 141.481 66.8462 142.271 65.6464C142.412 65.4347 142.666 64.9406 143.047 63.7831C143.09 63.642 143.231 63.5432 143.386 63.5432L296.555 63.5432C308.694 63.5432 318.575 73.4241 318.575 85.5495L318.575 145.456C318.575 157.596 308.694 167.477 296.555 167.477L143.372 167.477C143.217 167.477 143.09 167.378 143.033 167.237C142.652 166.093 142.398 165.585 142.257 165.373C141.466 164.159 138.657 163.341 137.232 163.891C136.667 164.117 136.455 164.512 136.554 165.119C136.667 165.797 136.808 166.432 136.949 167.039C136.978 167.152 136.949 167.251 136.879 167.335C136.808 167.42 136.709 167.462 136.597 167.462L102.945 167.462C81.4892 167.477 64.0281 150.016 64.0281 128.546ZM136.173 64.249L102.959 64.249C81.8844 64.249 64.7339 81.3994 64.7339 102.474L64.7339 128.532C64.7339 149.606 81.8844 166.757 102.959 166.757L136.173 166.757C136.06 166.277 135.961 165.769 135.863 165.218C135.693 164.272 136.103 163.552 136.978 163.214C138.7 162.536 141.89 163.496 142.85 164.964C143.076 165.303 143.33 165.896 143.626 166.757L296.555 166.757C308.299 166.757 317.869 157.2 317.869 145.442L317.869 85.5353C317.869 73.7911 308.313 64.2349 296.555 64.2349L143.626 64.2349C143.33 65.0959 143.076 65.6888 142.85 66.0134C141.89 67.4956 138.7 68.4413 136.978 67.7638C136.103 67.425 135.707 66.7051 135.863 65.7593C135.961 65.237 136.06 64.7289 136.173 64.249Z" fill="white"/>
<path d="M112.247 115.517C112.247 92.72 117.837 73.6357 124.965 72.0547C132.066 70.4879 169.232 79.0984 170.813 79.4654C170.996 79.5078 171.109 79.6912 171.081 79.8747C171.053 79.9877 168.809 92.1695 168.809 115.517C168.809 138.864 171.067 151.032 171.081 151.159C171.109 151.342 170.996 151.526 170.813 151.568C169.232 151.935 132.066 160.546 124.965 158.979C117.837 157.398 112.247 138.299 112.247 115.517ZM170.333 80.0724C166.578 79.2113 131.727 71.2783 125.121 72.7322C118.416 74.2144 112.953 93.3975 112.953 115.503C112.953 137.608 118.416 156.791 125.121 158.273C131.727 159.741 166.578 151.808 170.333 150.933C169.98 148.815 168.103 136.775 168.103 115.488C168.103 94.2304 169.966 82.1897 170.333 80.0724Z" fill="white"/>
<path d="M261.619 147.164C261.619 147.065 261.661 146.966 261.746 146.896C261.802 146.839 267.688 141.419 267.688 115.517C267.688 89.6146 261.802 84.1942 261.746 84.1378C261.647 84.0531 261.605 83.9119 261.633 83.7849C261.661 83.6578 261.774 83.559 261.901 83.5308L289.864 78.1104C298.418 76.4447 306.69 81.4982 309.089 89.8405C312.802 102.7 312.223 115.418 312.223 115.545C312.237 115.644 312.802 128.362 309.089 141.221C306.676 149.564 298.418 154.603 289.864 152.951L261.901 147.531C261.774 147.503 261.661 147.404 261.633 147.277C261.619 147.22 261.619 147.192 261.619 147.164ZM268.394 115.517C268.394 137.918 264.103 145.145 262.663 146.938L290.005 152.246C298.192 153.827 306.111 149.013 308.426 141.01C312.096 128.263 311.532 115.658 311.532 115.531C311.532 115.376 312.11 102.756 308.426 90.024C306.125 82.0345 298.206 77.207 290.005 78.7879L262.663 84.0954C264.089 85.8881 268.394 93.1153 268.394 115.517Z" fill="white"/>
<path d="M297.303 70.1632C297.303 70.0644 297.345 69.9656 297.43 69.895C297.486 69.8386 303.697 64.6722 309.315 69.9091C313.028 73.3816 313.508 77.1081 312.378 79.1125C311.913 79.9453 311.193 80.3406 310.501 80.1429C309.654 79.903 307.621 78.2656 304.403 75.5836C301.665 73.311 298.559 70.7419 297.571 70.4879C297.444 70.4596 297.345 70.3608 297.317 70.2197C297.303 70.2197 297.303 70.1915 297.303 70.1632ZM312.209 76.8117C312.209 75.1601 311.461 72.8593 308.835 70.4173C304.46 66.352 299.815 69.034 298.347 70.0644C299.731 70.7984 302.229 72.8734 304.855 75.0472C307.226 77.0093 309.922 79.2396 310.699 79.4654C311.052 79.5642 311.461 79.296 311.757 78.7596C312.011 78.3362 312.209 77.6586 312.209 76.8117Z" fill="white"/>
<path d="M72.3987 85.7047C72.3987 85.6765 72.3988 85.6482 72.4129 85.62C76.7464 68.0743 94.4332 69.2882 94.6167 69.3023C94.7296 69.3165 94.8426 69.3729 94.8991 69.4717C94.9555 69.5705 94.9555 69.6976 94.9132 69.7964C89.3234 81.2301 73.0198 85.987 72.8645 86.0435C72.7375 86.0717 72.6105 86.0435 72.5258 85.9588C72.4411 85.8882 72.3987 85.8035 72.3987 85.7047ZM94.0239 69.9799C91.1161 69.9376 77.2545 70.5304 73.2598 85.1824C76.1676 84.2226 88.9846 79.5644 94.0239 69.9799Z" fill="white"/>
<path d="M179.268 138.539L179.268 92.4942C179.268 88.556 182.472 85.3658 186.411 85.3658L204.069 85.3658C208.007 85.3658 211.212 88.5701 211.212 92.4942L211.212 138.539C211.212 142.478 208.007 145.682 204.069 145.682L186.411 145.682C182.472 145.668 179.268 142.464 179.268 138.539ZM210.492 92.4942C210.492 88.9512 207.612 86.0716 204.055 86.0716L186.396 86.0716C182.853 86.0716 179.96 88.9512 179.96 92.4942L179.96 138.539C179.96 142.082 182.839 144.976 186.396 144.976L204.055 144.976C207.598 144.976 210.492 142.097 210.492 138.539L210.492 92.4942Z" fill="white"/>
<path d="M11.5743 200.704C11.5743 200.309 11.8848 199.999 12.2801 199.999L352.34 199.999L352.34 31.0204L12.2801 31.0204C11.8849 31.0204 11.5743 30.7099 11.5743 30.3147C11.5743 29.9194 11.8849 29.6089 12.2801 29.6089L353.045 29.6089C353.441 29.6089 353.751 29.9194 353.751 30.3147L353.751 200.704C353.751 201.1 353.441 201.41 353.045 201.41L12.2801 201.41C11.8848 201.41 11.5743 201.1 11.5743 200.704Z" fill="white"/>
<path d="M11.9273 33.1378C11.9273 32.9402 12.0826 32.7849 12.2802 32.7849L353.046 32.7849C353.243 32.7849 353.398 32.9402 353.398 33.1378C353.398 33.3354 353.243 33.4907 353.046 33.4907L12.2802 33.4907C12.0826 33.4907 11.9273 33.3354 11.9273 33.1378Z" fill="white"/>
<path d="M11.9273 203.527C11.9273 203.33 12.0826 203.175 12.2802 203.175L353.046 203.175C353.243 203.175 353.398 203.33 353.398 203.527C353.398 203.725 353.243 203.88 353.046 203.88L12.2802 203.88C12.0826 203.88 11.9273 203.725 11.9273 203.527Z" fill="white"/>
<path d="M22.7116 187.845L22.7116 186.434C22.7116 186.321 22.8104 186.222 22.9233 186.222C23.0363 186.222 23.1351 186.321 23.1351 186.434L23.1351 187.845C23.1351 187.958 23.0363 188.057 22.9233 188.057C22.8104 188.057 22.7116 187.958 22.7116 187.845ZM22.7116 183.611L22.7116 182.199C22.7116 182.086 22.8104 181.987 22.9233 181.987C23.0363 181.987 23.1351 182.086 23.1351 182.199L23.1351 183.611C23.1351 183.724 23.0363 183.822 22.9233 183.822C22.8104 183.822 22.7116 183.724 22.7116 183.611ZM22.7116 179.376L22.7116 177.965C22.7116 177.852 22.8104 177.753 22.9233 177.753C23.0363 177.753 23.1351 177.852 23.1351 177.965L23.1351 179.376C23.1351 179.489 23.0363 179.588 22.9233 179.588C22.8104 179.588 22.7116 179.489 22.7116 179.376ZM22.7116 175.141L22.7116 173.73C22.7116 173.617 22.8104 173.518 22.9233 173.518C23.0363 173.518 23.1351 173.617 23.1351 173.73L23.1351 175.141C23.1351 175.254 23.0363 175.353 22.9233 175.353C22.8104 175.353 22.7116 175.254 22.7116 175.141ZM22.7116 170.907L22.7116 169.495C22.7116 169.382 22.8104 169.283 22.9233 169.283C23.0363 169.283 23.1351 169.382 23.1351 169.495L23.1351 170.907C23.1351 171.02 23.0363 171.118 22.9233 171.118C22.8104 171.118 22.7116 171.02 22.7116 170.907ZM22.7116 166.672L22.7116 165.26C22.7116 165.148 22.8104 165.049 22.9233 165.049C23.0363 165.049 23.1351 165.148 23.1351 165.26L23.1351 166.672C23.1351 166.785 23.0363 166.884 22.9233 166.884C22.8104 166.884 22.7116 166.785 22.7116 166.672ZM22.7116 162.437L22.7116 161.026C22.7116 160.913 22.8104 160.814 22.9233 160.814C23.0363 160.814 23.1351 160.913 23.1351 161.026L23.1351 162.437C23.1351 162.55 23.0363 162.649 22.9233 162.649C22.8104 162.649 22.7116 162.55 22.7116 162.437ZM22.7116 158.203L22.7116 156.791C22.7116 156.678 22.8104 156.579 22.9233 156.579C23.0363 156.579 23.1351 156.678 23.1351 156.791L23.1351 158.203C23.1351 158.316 23.0363 158.414 22.9233 158.414C22.8104 158.414 22.7116 158.316 22.7116 158.203ZM22.7116 153.968L22.7116 152.556C22.7116 152.443 22.8104 152.345 22.9233 152.345C23.0363 152.345 23.1351 152.443 23.1351 152.556L23.1351 153.968C23.1351 154.081 23.0363 154.18 22.9233 154.18C22.8104 154.18 22.7116 154.081 22.7116 153.968ZM22.7116 149.733L22.7116 148.322C22.7116 148.209 22.8104 148.11 22.9233 148.11C23.0363 148.11 23.1351 148.209 23.1351 148.322L23.1351 149.733C23.1351 149.846 23.0363 149.945 22.9233 149.945C22.8104 149.945 22.7116 149.846 22.7116 149.733ZM22.7116 145.499L22.7116 144.087C22.7116 143.974 22.8104 143.875 22.9233 143.875C23.0363 143.875 23.1351 143.974 23.1351 144.087L23.1351 145.499C23.1351 145.611 23.0363 145.71 22.9233 145.71C22.8104 145.71 22.7116 145.611 22.7116 145.499ZM22.7116 141.264L22.7116 139.852C22.7116 139.739 22.8104 139.641 22.9233 139.641C23.0363 139.641 23.1351 139.739 23.1351 139.852L23.1351 141.264C23.1351 141.377 23.0363 141.476 22.9233 141.476C22.8104 141.476 22.7116 141.377 22.7116 141.264ZM22.7116 137.029L22.7116 135.618C22.7116 135.505 22.8104 135.406 22.9233 135.406C23.0363 135.406 23.1351 135.505 23.1351 135.618L23.1351 137.029C23.1351 137.142 23.0363 137.241 22.9233 137.241C22.8104 137.241 22.7116 137.142 22.7116 137.029ZM22.7116 132.795L22.7116 131.383C22.7116 131.27 22.8104 131.171 22.9233 131.171C23.0363 131.171 23.1351 131.27 23.1351 131.383L23.1351 132.795C23.1351 132.907 23.0363 133.006 22.9233 133.006C22.8104 133.006 22.7116 132.907 22.7116 132.795ZM22.7116 128.56L22.7116 127.148C22.7116 127.035 22.8104 126.937 22.9233 126.937C23.0363 126.937 23.1351 127.035 23.1351 127.148L23.1351 128.56C23.1351 128.673 23.0363 128.772 22.9233 128.772C22.8104 128.772 22.7116 128.673 22.7116 128.56ZM22.7116 124.325L22.7116 122.914C22.7116 122.801 22.8104 122.702 22.9233 122.702C23.0363 122.702 23.1351 122.801 23.1351 122.914L23.1351 124.325C23.1351 124.438 23.0363 124.537 22.9233 124.537C22.8104 124.537 22.7116 124.438 22.7116 124.325ZM22.7116 120.09L22.7116 118.679C22.7116 118.566 22.8104 118.467 22.9233 118.467C23.0363 118.467 23.1351 118.566 23.1351 118.679L23.1351 120.09C23.1351 120.203 23.0363 120.302 22.9233 120.302C22.8104 120.302 22.7116 120.203 22.7116 120.09ZM22.7116 115.856L22.7116 114.444C22.7116 114.331 22.8104 114.232 22.9233 114.232C23.0363 114.232 23.1351 114.331 23.1351 114.444L23.1351 115.856C23.1351 115.969 23.0363 116.067 22.9233 116.067C22.8104 116.067 22.7116 115.969 22.7116 115.856ZM22.7116 111.621L22.7116 110.21C22.7116 110.097 22.8104 109.998 22.9233 109.998C23.0363 109.998 23.1351 110.097 23.1351 110.21L23.1351 111.621C23.1351 111.734 23.0363 111.833 22.9233 111.833C22.8104 111.833 22.7116 111.734 22.7116 111.621ZM22.7116 107.386L22.7116 105.975C22.7116 105.862 22.8104 105.763 22.9233 105.763C23.0363 105.763 23.1351 105.862 23.1351 105.975L23.1351 107.386C23.1351 107.499 23.0363 107.598 22.9233 107.598C22.8104 107.598 22.7116 107.499 22.7116 107.386ZM22.7116 103.152L22.7116 101.74C22.7116 101.627 22.8104 101.528 22.9233 101.528C23.0363 101.528 23.1351 101.627 23.1351 101.74L23.1351 103.152C23.1351 103.265 23.0363 103.363 22.9233 103.363C22.8104 103.363 22.7116 103.265 22.7116 103.152ZM22.7116 98.917L22.7116 97.5054C22.7116 97.3925 22.8104 97.2937 22.9233 97.2937C23.0363 97.2937 23.1351 97.3925 23.1351 97.5054L23.1351 98.917C23.1351 99.0299 23.0363 99.1287 22.9233 99.1287C22.8104 99.1287 22.7116 99.0299 22.7116 98.917ZM22.7116 94.6823L22.7116 93.2707C22.7116 93.1578 22.8104 93.059 22.9233 93.059C23.0363 93.059 23.1351 93.1578 23.1351 93.2707L23.1351 94.6823C23.1351 94.7952 23.0363 94.894 22.9233 94.894C22.8104 94.894 22.7116 94.7952 22.7116 94.6823ZM22.7116 90.4476L22.7116 89.0361C22.7116 88.9231 22.8104 88.8243 22.9233 88.8243C23.0363 88.8243 23.1351 88.9231 23.1351 89.0361L23.1351 90.4476C23.1351 90.5606 23.0363 90.6594 22.9233 90.6594C22.8104 90.6594 22.7116 90.5606 22.7116 90.4476ZM22.7116 86.2129L22.7116 84.8014C22.7116 84.6885 22.8104 84.5897 22.9233 84.5897C23.0363 84.5897 23.1351 84.6885 23.1351 84.8014L23.1351 86.2129C23.1351 86.3259 23.0363 86.4247 22.9233 86.4247C22.8104 86.4247 22.7116 86.3259 22.7116 86.2129ZM22.7116 81.9782L22.7116 80.5667C22.7116 80.4538 22.8104 80.355 22.9233 80.355C23.0363 80.355 23.1351 80.4538 23.1351 80.5667L23.1351 81.9782C23.1351 82.0912 23.0363 82.19 22.9233 82.19C22.8104 82.19 22.7116 82.0912 22.7116 81.9782ZM22.7116 77.7436L22.7116 76.332C22.7116 76.2191 22.8104 76.1203 22.9233 76.1203C23.0363 76.1203 23.1351 76.2191 23.1351 76.332L23.1351 77.7436C23.1351 77.8565 23.0363 77.9553 22.9233 77.9553C22.8104 77.9553 22.7116 77.8565 22.7116 77.7436ZM22.7116 73.5089L22.7116 72.0973C22.7116 71.9844 22.8104 71.8856 22.9233 71.8856C23.0363 71.8856 23.1351 71.9844 23.1351 72.0973L23.1351 73.5089C23.1351 73.6218 23.0363 73.7206 22.9233 73.7206C22.8104 73.7206 22.7116 73.6218 22.7116 73.5089ZM22.7116 69.2742L22.7116 67.8626C22.7116 67.7497 22.8104 67.6509 22.9233 67.6509C23.0363 67.6509 23.1351 67.7497 23.1351 67.8626L23.1351 69.2742C23.1351 69.3871 23.0363 69.4859 22.9233 69.4859C22.8104 69.4859 22.7116 69.3871 22.7116 69.2742ZM22.7116 65.0395L22.7116 63.6279C22.7116 63.515 22.8104 63.4162 22.9233 63.4162C23.0363 63.4162 23.1351 63.515 23.1351 63.6279L23.1351 65.0395C23.1351 65.1524 23.0363 65.2512 22.9233 65.2512C22.8104 65.2512 22.7116 65.1524 22.7116 65.0395ZM22.7116 60.8048L22.7116 59.3932C22.7116 59.2803 22.8104 59.1815 22.9233 59.1815C23.0363 59.1815 23.1351 59.2803 23.1351 59.3932L23.1351 60.8048C23.1351 60.9177 23.0363 61.0165 22.9233 61.0165C22.8104 61.0165 22.7116 60.9177 22.7116 60.8048ZM22.7116 56.5701L22.7116 55.1586C22.7116 55.0456 22.8104 54.9468 22.9233 54.9468C23.0363 54.9468 23.1351 55.0456 23.1351 55.1586L23.1351 56.5701C23.1351 56.683 23.0363 56.7819 22.9233 56.7819C22.8104 56.7819 22.7116 56.683 22.7116 56.5701ZM22.7116 52.3354L22.7116 50.9239C22.7116 50.8109 22.8104 50.7121 22.9233 50.7121C23.0363 50.7121 23.1351 50.8109 23.1351 50.9239L23.1351 52.3354C23.1351 52.4484 23.0363 52.5472 22.9233 52.5472C22.8104 52.5472 22.7116 52.4484 22.7116 52.3354ZM22.7116 48.1007L22.7116 46.6892C22.7116 46.5763 22.8104 46.4775 22.9233 46.4775C23.0363 46.4775 23.1351 46.5763 23.1351 46.6892L23.1351 48.1007C23.1351 48.2137 23.0363 48.3125 22.9233 48.3125C22.8104 48.3125 22.7116 48.2137 22.7116 48.1007ZM22.7116 43.8661L22.7116 42.4545C22.7116 42.3416 22.8104 42.2428 22.9233 42.2428C23.0363 42.2428 23.1351 42.3416 23.1351 42.4545L23.1351 43.8661C23.1351 43.979 23.0363 44.0778 22.9233 44.0778C22.8104 44.0778 22.7116 43.979 22.7116 43.8661ZM23.3327 190.062C23.3327 189.949 23.4315 189.85 23.5444 189.85L24.956 189.85C25.0689 189.85 25.1677 189.949 25.1677 190.062C25.1677 190.175 25.0689 190.273 24.956 190.273L23.5444 190.273C23.4174 190.273 23.3327 190.175 23.3327 190.062ZM24.0526 40.9723C24.0526 40.8594 24.1514 40.7606 24.2643 40.7606L25.6759 40.7606C25.7888 40.7606 25.8876 40.8594 25.8876 40.9723C25.8876 41.0853 25.7888 41.1841 25.6759 41.1841L24.2643 41.1841C24.1514 41.1841 24.0526 41.0853 24.0526 40.9723ZM27.5673 190.062C27.5673 189.949 27.6662 189.85 27.7791 189.85L29.1907 189.85C29.3036 189.85 29.4024 189.949 29.4024 190.062C29.4024 190.175 29.3036 190.273 29.1907 190.273L27.7791 190.273C27.6521 190.273 27.5673 190.175 27.5673 190.062ZM28.2873 40.9723C28.2873 40.8594 28.3861 40.7606 28.499 40.7606L29.9106 40.7606C30.0235 40.7606 30.1223 40.8594 30.1223 40.9723C30.1223 41.0853 30.0235 41.1841 29.9106 41.1841L28.499 41.1841C28.3861 41.1841 28.2873 41.0853 28.2873 40.9723ZM31.8021 190.062C31.8021 189.949 31.9009 189.85 32.0138 189.85L33.4254 189.85C33.5383 189.85 33.6371 189.949 33.6371 190.062C33.6371 190.175 33.5383 190.273 33.4254 190.273L32.0138 190.273C31.8868 190.273 31.8021 190.175 31.8021 190.062ZM32.522 40.9723C32.522 40.8594 32.6208 40.7606 32.7337 40.7606L34.1453 40.7606C34.2582 40.7606 34.357 40.8594 34.357 40.9723C34.357 41.0853 34.2582 41.1841 34.1453 41.1841L32.7337 41.1841C32.6208 41.1841 32.522 41.0853 32.522 40.9723ZM36.0367 190.062C36.0367 189.949 36.1356 189.85 36.2485 189.85L37.6601 189.85C37.773 189.85 37.8718 189.949 37.8718 190.062C37.8718 190.175 37.773 190.273 37.6601 190.273L36.2485 190.273C36.1215 190.273 36.0367 190.175 36.0367 190.062ZM36.7567 40.9723C36.7567 40.8594 36.8554 40.7606 36.9684 40.7606L38.3799 40.7606C38.4929 40.7606 38.5917 40.8594 38.5917 40.9723C38.5917 41.0853 38.4929 41.1841 38.3799 41.1841L36.9684 41.1841C36.8554 41.1841 36.7567 41.0853 36.7567 40.9723ZM40.2714 190.062C40.2714 189.949 40.3703 189.85 40.4832 189.85L41.8947 189.85C42.0077 189.85 42.1065 189.949 42.1065 190.062C42.1065 190.175 42.0077 190.273 41.8947 190.273L40.4832 190.273C40.3561 190.273 40.2714 190.175 40.2714 190.062ZM40.9913 40.9723C40.9913 40.8594 41.0901 40.7606 41.2031 40.7606L42.6146 40.7606C42.7275 40.7606 42.8264 40.8594 42.8264 40.9723C42.8264 41.0853 42.7275 41.1841 42.6146 41.1841L41.2031 41.1841C41.0901 41.1841 40.9913 41.0853 40.9913 40.9723ZM44.5061 190.062C44.5061 189.949 44.6049 189.85 44.7179 189.85L46.1294 189.85C46.2424 189.85 46.3411 189.949 46.3411 190.062C46.3411 190.175 46.2424 190.273 46.1294 190.273L44.7179 190.273C44.5908 190.273 44.5061 190.175 44.5061 190.062ZM45.226 40.9723C45.226 40.8594 45.3248 40.7606 45.4377 40.7606L46.8493 40.7606C46.9622 40.7606 47.061 40.8594 47.061 40.9723C47.061 41.0853 46.9622 41.1841 46.8493 41.1841L45.4377 41.1841C45.3248 41.1841 45.226 41.0853 45.226 40.9723ZM48.7408 190.062C48.7408 189.949 48.8396 189.85 48.9526 189.85L50.3641 189.85C50.477 189.85 50.5759 189.949 50.5759 190.062C50.5759 190.175 50.477 190.273 50.3641 190.273L48.9526 190.273C48.8255 190.273 48.7408 190.175 48.7408 190.062ZM49.4607 40.9723C49.4607 40.8594 49.5595 40.7606 49.6724 40.7606L51.084 40.7606C51.1969 40.7606 51.2957 40.8594 51.2957 40.9723C51.2957 41.0853 51.1969 41.1841 51.084 41.1841L49.6724 41.1841C49.5595 41.1841 49.4607 41.0853 49.4607 40.9723ZM52.9755 190.062C52.9755 189.949 53.0743 189.85 53.1872 189.85L54.5988 189.85C54.7117 189.85 54.8105 189.949 54.8105 190.062C54.8105 190.175 54.7117 190.273 54.5988 190.273L53.1872 190.273C53.0602 190.273 52.9755 190.175 52.9755 190.062ZM53.6954 40.9723C53.6954 40.8594 53.7942 40.7606 53.9071 40.7606L55.3187 40.7606C55.4316 40.7606 55.5304 40.8594 55.5304 40.9723C55.5304 41.0853 55.4316 41.1841 55.3187 41.1841L53.9071 41.1841C53.7942 41.1841 53.6954 41.0853 53.6954 40.9723ZM57.2102 190.062C57.2102 189.949 57.309 189.85 57.4219 189.85L58.8335 189.85C58.9464 189.85 59.0452 189.949 59.0452 190.062C59.0452 190.175 58.9464 190.273 58.8335 190.273L57.4219 190.273C57.2949 190.273 57.2102 190.175 57.2102 190.062ZM57.9301 40.9723C57.9301 40.8594 58.0289 40.7606 58.1418 40.7606L59.5534 40.7606C59.6663 40.7606 59.7651 40.8594 59.7651 40.9723C59.7651 41.0853 59.6663 41.1841 59.5534 41.1841L58.1418 41.1841C58.0289 41.1841 57.9301 41.0853 57.9301 40.9723ZM61.4448 190.062C61.4448 189.949 61.5437 189.85 61.6566 189.85L63.0682 189.85C63.1811 189.85 63.2799 189.949 63.2799 190.062C63.2799 190.175 63.1811 190.273 63.0682 190.273L61.6566 190.273C61.5296 190.273 61.4448 190.175 61.4448 190.062ZM62.1648 40.9723C62.1648 40.8594 62.2636 40.7606 62.3765 40.7606L63.7881 40.7606C63.901 40.7606 63.9998 40.8594 63.9998 40.9723C63.9998 41.0853 63.901 41.1841 63.7881 41.1841L62.3765 41.1841C62.2636 41.1841 62.1648 41.0853 62.1648 40.9723ZM65.6796 190.062C65.6796 189.949 65.7784 189.85 65.8913 189.85L67.3029 189.85C67.4158 189.85 67.5146 189.949 67.5146 190.062C67.5146 190.175 67.4158 190.273 67.3029 190.273L65.8913 190.273C65.7643 190.273 65.6796 190.175 65.6796 190.062ZM66.3995 40.9723C66.3995 40.8594 66.4983 40.7606 66.6112 40.7606L68.0227 40.7606C68.1357 40.7606 68.2345 40.8594 68.2345 40.9723C68.2345 41.0853 68.1357 41.1841 68.0227 41.1841L66.6112 41.1841C66.4983 41.1841 66.3995 41.0853 66.3995 40.9723ZM69.9142 190.062C69.9142 189.949 70.0131 189.85 70.126 189.85L71.5376 189.85C71.6505 189.85 71.7493 189.949 71.7493 190.062C71.7493 190.175 71.6505 190.273 71.5376 190.273L70.126 190.273C69.999 190.273 69.9142 190.175 69.9142 190.062ZM70.6342 40.9723C70.6342 40.8594 70.7329 40.7606 70.8459 40.7606L72.2574 40.7606C72.3704 40.7606 72.4692 40.8594 72.4692 40.9723C72.4692 41.0853 72.3704 41.1841 72.2574 41.1841L70.8459 41.1841C70.7329 41.1841 70.6342 41.0853 70.6342 40.9723ZM74.1489 190.062C74.1489 189.949 74.2478 189.85 74.3607 189.85L75.7722 189.85C75.8852 189.85 75.984 189.949 75.984 190.062C75.984 190.175 75.8852 190.273 75.7722 190.273L74.3607 190.273C74.2336 190.273 74.1489 190.175 74.1489 190.062ZM74.8688 40.9723C74.8688 40.8594 74.9677 40.7606 75.0806 40.7606L76.4921 40.7606C76.605 40.7606 76.7039 40.8594 76.7039 40.9723C76.7039 41.0853 76.605 41.1841 76.4921 41.1841L75.0806 41.1841C74.9677 41.1841 74.8688 41.0853 74.8688 40.9723ZM78.3836 190.062C78.3836 189.949 78.4824 189.85 78.5954 189.85L80.007 189.85C80.1199 189.85 80.2187 189.949 80.2187 190.062C80.2187 190.175 80.1199 190.273 80.007 190.273L78.5954 190.273C78.4683 190.273 78.3836 190.175 78.3836 190.062ZM79.1035 40.9723C79.1035 40.8594 79.2023 40.7606 79.3152 40.7606L80.7268 40.7606C80.8398 40.7606 80.9385 40.8594 80.9385 40.9723C80.9385 41.0853 80.8398 41.1841 80.7268 41.1841L79.3152 41.1841C79.2023 41.1841 79.1035 41.0853 79.1035 40.9723ZM82.6183 190.062C82.6183 189.949 82.7171 189.85 82.8301 189.85L84.2416 189.85C84.3545 189.85 84.4534 189.949 84.4534 190.062C84.4534 190.175 84.3545 190.273 84.2416 190.273L82.8301 190.273C82.703 190.273 82.6183 190.175 82.6183 190.062ZM83.3382 40.9723C83.3382 40.8594 83.437 40.7606 83.5499 40.7606L84.9615 40.7606C85.0744 40.7606 85.1732 40.8594 85.1732 40.9723C85.1732 41.0853 85.0744 41.1841 84.9615 41.1841L83.5499 41.1841C83.437 41.1841 83.3382 41.0853 83.3382 40.9723ZM86.853 190.062C86.853 189.949 86.9518 189.85 87.0648 189.85L88.4763 189.85C88.5892 189.85 88.688 189.949 88.688 190.062C88.688 190.175 88.5892 190.273 88.4763 190.273L87.0648 190.273C86.9377 190.273 86.853 190.175 86.853 190.062ZM87.5729 40.9723C87.5729 40.8594 87.6717 40.7606 87.7846 40.7606L89.1962 40.7606C89.3091 40.7606 89.4079 40.8594 89.4079 40.9723C89.4079 41.0853 89.3091 41.1841 89.1962 41.1841L87.7846 41.1841C87.6717 41.1841 87.5729 41.0853 87.5729 40.9723ZM91.0877 190.062C91.0877 189.949 91.1865 189.85 91.2994 189.85L92.711 189.85C92.8239 189.85 92.9227 189.949 92.9227 190.062C92.9227 190.175 92.8239 190.273 92.711 190.273L91.2994 190.273C91.1724 190.273 91.0877 190.175 91.0877 190.062ZM91.8076 40.9723C91.8076 40.8594 91.9064 40.7606 92.0193 40.7606L93.4309 40.7606C93.5438 40.7606 93.6426 40.8594 93.6426 40.9723C93.6426 41.0853 93.5438 41.1841 93.4309 41.1841L92.0193 41.1841C91.9064 41.1841 91.8076 41.0853 91.8076 40.9723ZM95.3224 190.062C95.3224 189.949 95.4212 189.85 95.5341 189.85L96.9457 189.85C97.0586 189.85 97.1574 189.949 97.1574 190.062C97.1574 190.175 97.0586 190.273 96.9457 190.273L95.5341 190.273C95.4071 190.273 95.3224 190.175 95.3224 190.062ZM96.0423 40.9723C96.0423 40.8594 96.1411 40.7606 96.254 40.7606L97.6656 40.7606C97.7785 40.7606 97.8773 40.8594 97.8773 40.9723C97.8773 41.0853 97.7785 41.1841 97.6656 41.1841L96.254 41.1841C96.1411 41.1841 96.0423 41.0853 96.0423 40.9723ZM99.557 190.062C99.557 189.949 99.6559 189.85 99.7688 189.85L101.18 189.85C101.293 189.85 101.392 189.949 101.392 190.062C101.392 190.175 101.293 190.273 101.18 190.273L99.7688 190.273C99.6418 190.273 99.557 190.175 99.557 190.062ZM100.277 40.9723C100.277 40.8594 100.376 40.7606 100.489 40.7606L101.9 40.7606C102.013 40.7606 102.112 40.8594 102.112 40.9723C102.112 41.0853 102.013 41.1841 101.9 41.1841L100.489 41.1841C100.376 41.1841 100.277 41.0853 100.277 40.9723ZM103.792 190.062C103.792 189.949 103.891 189.85 104.004 189.85L105.415 189.85C105.528 189.85 105.627 189.949 105.627 190.062C105.627 190.175 105.528 190.273 105.415 190.273L104.004 190.273C103.876 190.273 103.792 190.175 103.792 190.062ZM104.512 40.9723C104.512 40.8594 104.61 40.7606 104.723 40.7606L106.135 40.7606C106.248 40.7606 106.347 40.8594 106.347 40.9723C106.347 41.0853 106.248 41.1841 106.135 41.1841L104.723 41.1841C104.61 41.1841 104.512 41.0853 104.512 40.9723ZM108.026 190.062C108.026 189.949 108.125 189.85 108.238 189.85L109.65 189.85C109.763 189.85 109.861 189.949 109.861 190.062C109.861 190.175 109.763 190.273 109.65 190.273L108.238 190.273C108.111 190.273 108.026 190.175 108.026 190.062ZM108.746 40.9723C108.746 40.8594 108.845 40.7606 108.958 40.7606L110.37 40.7606C110.483 40.7606 110.581 40.8594 110.581 40.9723C110.581 41.0853 110.483 41.1841 110.37 41.1841L108.958 41.1841C108.845 41.1841 108.746 41.0853 108.746 40.9723ZM112.261 190.062C112.261 189.949 112.36 189.85 112.473 189.85L113.884 189.85C113.997 189.85 114.096 189.949 114.096 190.062C114.096 190.175 113.997 190.273 113.884 190.273L112.473 190.273C112.346 190.273 112.261 190.175 112.261 190.062ZM112.981 40.9723C112.981 40.8594 113.08 40.7606 113.193 40.7606L114.604 40.7606C114.717 40.7606 114.816 40.8594 114.816 40.9723C114.816 41.0853 114.717 41.1841 114.604 41.1841L113.193 41.1841C113.08 41.1841 112.981 41.0853 112.981 40.9723ZM116.496 190.062C116.496 189.949 116.595 189.85 116.708 189.85L118.119 189.85C118.232 189.85 118.331 189.949 118.331 190.062C118.331 190.175 118.232 190.273 118.119 190.273L116.708 190.273C116.581 190.273 116.496 190.175 116.496 190.062ZM117.216 40.9723C117.216 40.8594 117.315 40.7606 117.427 40.7606L118.839 40.7606C118.952 40.7606 119.051 40.8594 119.051 40.9723C119.051 41.0853 118.952 41.1841 118.839 41.1841L117.427 41.1841C117.315 41.1841 117.216 41.0853 117.216 40.9723ZM120.73 190.062C120.73 189.949 120.829 189.85 120.942 189.85L122.354 189.85C122.467 189.85 122.566 189.949 122.566 190.062C122.566 190.175 122.467 190.273 122.354 190.273L120.942 190.273C120.815 190.273 120.73 190.175 120.73 190.062ZM121.45 40.9723C121.45 40.8594 121.549 40.7606 121.662 40.7606L123.074 40.7606C123.187 40.7606 123.285 40.8594 123.285 40.9723C123.285 41.0853 123.187 41.1841 123.074 41.1841L121.662 41.1841C121.549 41.1841 121.45 41.0853 121.45 40.9723ZM124.965 190.062C124.965 189.949 125.064 189.85 125.177 189.85L126.589 189.85C126.701 189.85 126.8 189.949 126.8 190.062C126.8 190.175 126.701 190.273 126.589 190.273L125.177 190.273C125.05 190.273 124.965 190.175 124.965 190.062ZM125.685 40.9723C125.685 40.8594 125.784 40.7606 125.897 40.7606L127.308 40.7606C127.421 40.7606 127.52 40.8594 127.52 40.9723C127.52 41.0853 127.421 41.1841 127.308 41.1841L125.897 41.1841C125.784 41.1841 125.685 41.0853 125.685 40.9723ZM129.2 190.062C129.2 189.949 129.299 189.85 129.412 189.85L130.823 189.85C130.936 189.85 131.035 189.949 131.035 190.062C131.035 190.175 130.936 190.273 130.823 190.273L129.412 190.273C129.285 190.273 129.2 190.175 129.2 190.062ZM129.92 40.9723C129.92 40.8594 130.019 40.7606 130.132 40.7606L131.543 40.7606C131.656 40.7606 131.755 40.8594 131.755 40.9723C131.755 41.0853 131.656 41.1841 131.543 41.1841L130.132 41.1841C130.019 41.1841 129.92 41.0853 129.92 40.9723ZM133.435 190.062C133.435 189.949 133.533 189.85 133.646 189.85L135.058 189.85C135.171 189.85 135.27 189.949 135.27 190.062C135.27 190.175 135.171 190.273 135.058 190.273L133.646 190.273C133.519 190.273 133.435 190.175 133.435 190.062ZM134.154 40.9723C134.154 40.8594 134.253 40.7606 134.366 40.7606L135.778 40.7606C135.891 40.7606 135.989 40.8594 135.989 40.9723C135.989 41.0853 135.891 41.1841 135.778 41.1841L134.366 41.1841C134.253 41.1841 134.154 41.0853 134.154 40.9723ZM137.669 190.062C137.669 189.949 137.768 189.85 137.881 189.85L139.293 189.85C139.405 189.85 139.504 189.949 139.504 190.062C139.504 190.175 139.405 190.273 139.293 190.273L137.881 190.273C137.754 190.273 137.669 190.175 137.669 190.062ZM138.389 40.9723C138.389 40.8594 138.488 40.7606 138.601 40.7606L140.012 40.7606C140.125 40.7606 140.224 40.8594 140.224 40.9723C140.224 41.0853 140.125 41.1841 140.012 41.1841L138.601 41.1841C138.488 41.1841 138.389 41.0853 138.389 40.9723ZM141.904 190.062C141.904 189.949 142.003 189.85 142.116 189.85L143.527 189.85C143.64 189.85 143.739 189.949 143.739 190.062C143.739 190.175 143.64 190.273 143.527 190.273L142.116 190.273C141.989 190.273 141.904 190.175 141.904 190.062ZM142.624 40.9723C142.624 40.8594 142.723 40.7606 142.836 40.7606L144.247 40.7606C144.36 40.7606 144.459 40.8594 144.459 40.9723C144.459 41.0853 144.36 41.1841 144.247 41.1841L142.836 41.1841C142.723 41.1841 142.624 41.0853 142.624 40.9723ZM146.139 190.062C146.139 189.949 146.237 189.85 146.35 189.85L147.762 189.85C147.875 189.85 147.974 189.949 147.974 190.062C147.974 190.175 147.875 190.273 147.762 190.273L146.35 190.273C146.223 190.273 146.139 190.175 146.139 190.062ZM146.859 40.9723C146.859 40.8594 146.957 40.7606 147.07 40.7606L148.482 40.7606C148.595 40.7606 148.694 40.8594 148.694 40.9723C148.694 41.0853 148.595 41.1841 148.482 41.1841L147.07 41.1841C146.957 41.1841 146.859 41.0853 146.859 40.9723ZM150.373 190.062C150.373 189.949 150.472 189.85 150.585 189.85L151.997 189.85C152.11 189.85 152.208 189.949 152.208 190.062C152.208 190.175 152.11 190.273 151.997 190.273L150.585 190.273C150.458 190.273 150.373 190.175 150.373 190.062ZM151.093 40.9723C151.093 40.8594 151.192 40.7606 151.305 40.7606L152.717 40.7606C152.829 40.7606 152.928 40.8594 152.928 40.9723C152.928 41.0853 152.829 41.1841 152.717 41.1841L151.305 41.1841C151.192 41.1841 151.093 41.0853 151.093 40.9723ZM154.608 190.062C154.608 189.949 154.707 189.85 154.82 189.85L156.231 189.85C156.344 189.85 156.443 189.949 156.443 190.062C156.443 190.175 156.344 190.273 156.231 190.273L154.82 190.273C154.693 190.273 154.608 190.175 154.608 190.062ZM155.328 40.9723C155.328 40.8594 155.427 40.7606 155.54 40.7606L156.951 40.7606C157.064 40.7606 157.163 40.8594 157.163 40.9723C157.163 41.0853 157.064 41.1841 156.951 41.1841L155.54 41.1841C155.427 41.1841 155.328 41.0853 155.328 40.9723ZM158.843 190.062C158.843 189.949 158.941 189.85 159.054 189.85L160.466 189.85C160.579 189.85 160.678 189.949 160.678 190.062C160.678 190.175 160.579 190.273 160.466 190.273L159.054 190.273C158.927 190.273 158.843 190.175 158.843 190.062ZM159.563 40.9723C159.563 40.8594 159.661 40.7606 159.774 40.7606L161.186 40.7606C161.299 40.7606 161.398 40.8594 161.398 40.9723C161.398 41.0853 161.299 41.1841 161.186 41.1841L159.774 41.1841C159.661 41.1841 159.563 41.0853 159.563 40.9723ZM163.077 190.062C163.077 189.949 163.176 189.85 163.289 189.85L164.701 189.85C164.814 189.85 164.912 189.949 164.912 190.062C164.912 190.175 164.814 190.273 164.701 190.273L163.289 190.273C163.162 190.273 163.077 190.175 163.077 190.062ZM163.797 40.9723C163.797 40.8594 163.896 40.7606 164.009 40.7606L165.421 40.7606C165.533 40.7606 165.632 40.8594 165.632 40.9723C165.632 41.0853 165.533 41.1841 165.421 41.1841L164.009 41.1841C163.896 41.1841 163.797 41.0853 163.797 40.9723ZM167.312 190.062C167.312 189.949 167.411 189.85 167.524 189.85L168.935 189.85C169.048 189.85 169.147 189.949 169.147 190.062C169.147 190.175 169.048 190.273 168.935 190.273L167.524 190.273C167.397 190.273 167.312 190.175 167.312 190.062ZM168.032 40.9723C168.032 40.8594 168.131 40.7606 168.244 40.7606L169.655 40.7606C169.768 40.7606 169.867 40.8594 169.867 40.9723C169.867 41.0853 169.768 41.1841 169.655 41.1841L168.244 41.1841C168.131 41.1841 168.032 41.0853 168.032 40.9723ZM171.547 190.062C171.547 189.949 171.646 189.85 171.758 189.85L173.17 189.85C173.283 189.85 173.382 189.949 173.382 190.062C173.382 190.175 173.283 190.273 173.17 190.273L171.758 190.273C171.631 190.273 171.547 190.175 171.547 190.062ZM172.267 40.9723C172.267 40.8594 172.365 40.7606 172.478 40.7606L173.89 40.7606C174.003 40.7606 174.102 40.8594 174.102 40.9723C174.102 41.0853 174.003 41.1841 173.89 41.1841L172.478 41.1841C172.365 41.1841 172.267 41.0853 172.267 40.9723ZM175.781 190.062C175.781 189.949 175.88 189.85 175.993 189.85L177.405 189.85C177.518 189.85 177.616 189.949 177.616 190.062C177.616 190.175 177.518 190.273 177.405 190.273L175.993 190.273C175.866 190.273 175.781 190.175 175.781 190.062ZM176.501 40.9723C176.501 40.8594 176.6 40.7606 176.713 40.7606L178.125 40.7606C178.238 40.7606 178.336 40.8594 178.336 40.9723C178.336 41.0853 178.238 41.1841 178.125 41.1841L176.713 41.1841C176.6 41.1841 176.501 41.0853 176.501 40.9723ZM180.016 190.062C180.016 189.949 180.115 189.85 180.228 189.85L181.639 189.85C181.752 189.85 181.851 189.949 181.851 190.062C181.851 190.175 181.752 190.273 181.639 190.273L180.228 190.273C180.101 190.273 180.016 190.175 180.016 190.062ZM180.736 40.9723C180.736 40.8594 180.835 40.7606 180.948 40.7606L182.359 40.7606C182.472 40.7606 182.571 40.8594 182.571 40.9723C182.571 41.0853 182.472 41.1841 182.359 41.1841L180.948 41.1841C180.835 41.1841 180.736 41.0853 180.736 40.9723ZM184.251 190.062C184.251 189.949 184.35 189.85 184.463 189.85L185.874 189.85C185.987 189.85 186.086 189.949 186.086 190.062C186.086 190.175 185.987 190.273 185.874 190.273L184.463 190.273C184.335 190.273 184.251 190.175 184.251 190.062ZM184.971 40.9723C184.971 40.8594 185.07 40.7606 185.182 40.7606L186.594 40.7606C186.707 40.7606 186.806 40.8594 186.806 40.9723C186.806 41.0853 186.707 41.1841 186.594 41.1841L185.182 41.1841C185.07 41.1841 184.971 41.0853 184.971 40.9723ZM188.485 190.062C188.485 189.949 188.584 189.85 188.697 189.85L190.109 189.85C190.222 189.85 190.321 189.949 190.321 190.062C190.321 190.175 190.222 190.273 190.109 190.273L188.697 190.273C188.57 190.273 188.485 190.175 188.485 190.062ZM189.205 40.9723C189.205 40.8594 189.304 40.7606 189.417 40.7606L190.829 40.7606C190.942 40.7606 191.04 40.8594 191.04 40.9723C191.04 41.0853 190.942 41.1841 190.829 41.1841L189.417 41.1841C189.304 41.1841 189.205 41.0853 189.205 40.9723ZM192.72 190.062C192.72 189.949 192.819 189.85 192.932 189.85L194.343 189.85C194.456 189.85 194.555 189.949 194.555 190.062C194.555 190.175 194.456 190.273 194.343 190.273L192.932 190.273C192.805 190.273 192.72 190.175 192.72 190.062ZM193.44 40.9723C193.44 40.8594 193.539 40.7606 193.652 40.7606L195.063 40.7606C195.176 40.7606 195.275 40.8594 195.275 40.9723C195.275 41.0853 195.176 41.1841 195.063 41.1841L193.652 41.1841C193.539 41.1841 193.44 41.0853 193.44 40.9723ZM196.955 190.062C196.955 189.949 197.054 189.85 197.167 189.85L198.578 189.85C198.691 189.85 198.79 189.949 198.79 190.062C198.79 190.175 198.691 190.273 198.578 190.273L197.167 190.273C197.04 190.273 196.955 190.175 196.955 190.062ZM197.675 40.9723C197.675 40.8594 197.774 40.7606 197.886 40.7606L199.298 40.7606C199.411 40.7606 199.51 40.8594 199.51 40.9723C199.51 41.0853 199.411 41.1841 199.298 41.1841L197.886 41.1841C197.774 41.1841 197.675 41.0853 197.675 40.9723ZM201.19 190.062C201.19 189.949 201.288 189.85 201.401 189.85L202.813 189.85C202.926 189.85 203.025 189.949 203.025 190.062C203.025 190.175 202.926 190.273 202.813 190.273L201.401 190.273C201.274 190.273 201.19 190.175 201.19 190.062ZM201.909 40.9723C201.909 40.8594 202.008 40.7606 202.121 40.7606L203.533 40.7606C203.646 40.7606 203.744 40.8594 203.744 40.9723C203.744 41.0853 203.646 41.1841 203.533 41.1841L202.121 41.1841C202.008 41.1841 201.909 41.0853 201.909 40.9723ZM205.424 190.062C205.424 189.949 205.523 189.85 205.636 189.85L207.048 189.85C207.16 189.85 207.259 189.949 207.259 190.062C207.259 190.175 207.16 190.273 207.048 190.273L205.636 190.273C205.509 190.273 205.424 190.175 205.424 190.062ZM206.144 40.9723C206.144 40.8594 206.243 40.7606 206.356 40.7606L207.767 40.7606C207.88 40.7606 207.979 40.8594 207.979 40.9723C207.979 41.0853 207.88 41.1841 207.767 41.1841L206.356 41.1841C206.243 41.1841 206.144 41.0853 206.144 40.9723ZM209.659 190.062C209.659 189.949 209.758 189.85 209.871 189.85L211.282 189.85C211.395 189.85 211.494 189.949 211.494 190.062C211.494 190.175 211.395 190.273 211.282 190.273L209.871 190.273C209.744 190.273 209.659 190.175 209.659 190.062ZM210.379 40.9723C210.379 40.8594 210.478 40.7606 210.591 40.7606L212.002 40.7606C212.115 40.7606 212.214 40.8594 212.214 40.9723C212.214 41.0853 212.115 41.1841 212.002 41.1841L210.591 41.1841C210.478 41.1841 210.379 41.0853 210.379 40.9723ZM213.894 190.062C213.894 189.949 213.992 189.85 214.105 189.85L215.517 189.85C215.63 189.85 215.729 189.949 215.729 190.062C215.729 190.175 215.63 190.273 215.517 190.273L214.105 190.273C213.978 190.273 213.894 190.175 213.894 190.062ZM214.614 40.9723C214.614 40.8594 214.712 40.7606 214.825 40.7606L216.237 40.7606C216.35 40.7606 216.449 40.8594 216.449 40.9723C216.449 41.0853 216.35 41.1841 216.237 41.1841L214.825 41.1841C214.712 41.1841 214.614 41.0853 214.614 40.9723ZM218.128 190.062C218.128 189.949 218.227 189.85 218.34 189.85L219.752 189.85C219.865 189.85 219.963 189.949 219.963 190.062C219.963 190.175 219.865 190.273 219.752 190.273L218.34 190.273C218.213 190.273 218.128 190.175 218.128 190.062ZM218.848 40.9723C218.848 40.8594 218.947 40.7606 219.06 40.7606L220.471 40.7606C220.584 40.7606 220.683 40.8594 220.683 40.9723C220.683 41.0853 220.584 41.1841 220.471 41.1841L219.06 41.1841C218.947 41.1841 218.848 41.0853 218.848 40.9723ZM222.363 190.062C222.363 189.949 222.462 189.85 222.575 189.85L223.986 189.85C224.099 189.85 224.198 189.949 224.198 190.062C224.198 190.175 224.099 190.273 223.986 190.273L222.575 190.273C222.448 190.273 222.363 190.175 222.363 190.062ZM223.083 40.9723C223.083 40.8594 223.182 40.7606 223.295 40.7606L224.706 40.7606C224.819 40.7606 224.918 40.8594 224.918 40.9723C224.918 41.0853 224.819 41.1841 224.706 41.1841L223.295 41.1841C223.182 41.1841 223.083 41.0853 223.083 40.9723ZM226.598 190.062C226.598 189.949 226.696 189.85 226.809 189.85L228.221 189.85C228.334 189.85 228.433 189.949 228.433 190.062C228.433 190.175 228.334 190.273 228.221 190.273L226.809 190.273C226.682 190.273 226.598 190.175 226.598 190.062ZM227.318 40.9723C227.318 40.8594 227.416 40.7606 227.529 40.7606L228.941 40.7606C229.054 40.7606 229.153 40.8594 229.153 40.9723C229.153 41.0853 229.054 41.1841 228.941 41.1841L227.529 41.1841C227.416 41.1841 227.318 41.0853 227.318 40.9723ZM230.832 190.062C230.832 189.949 230.931 189.85 231.044 189.85L232.456 189.85C232.569 189.85 232.667 189.949 232.667 190.062C232.667 190.175 232.569 190.273 232.456 190.273L231.044 190.273C230.917 190.273 230.832 190.175 230.832 190.062ZM231.552 40.9723C231.552 40.8594 231.651 40.7606 231.764 40.7606L233.176 40.7606C233.288 40.7606 233.387 40.8594 233.387 40.9723C233.387 41.0853 233.288 41.1841 233.176 41.1841L231.764 41.1841C231.651 41.1841 231.552 41.0853 231.552 40.9723ZM235.067 190.062C235.067 189.949 235.166 189.85 235.279 189.85L236.69 189.85C236.803 189.85 236.902 189.949 236.902 190.062C236.902 190.175 236.803 190.273 236.69 190.273L235.279 190.273C235.152 190.273 235.067 190.175 235.067 190.062ZM235.787 40.9723C235.787 40.8594 235.886 40.7606 235.999 40.7606L237.41 40.7606C237.523 40.7606 237.622 40.8594 237.622 40.9723C237.622 41.0853 237.523 41.1841 237.41 41.1841L235.999 41.1841C235.886 41.1841 235.787 41.0853 235.787 40.9723ZM239.302 190.062C239.302 189.949 239.401 189.85 239.513 189.85L240.925 189.85C241.038 189.85 241.137 189.949 241.137 190.062C241.137 190.175 241.038 190.273 240.925 190.273L239.513 190.273C239.386 190.273 239.302 190.175 239.302 190.062ZM240.022 40.9723C240.022 40.8594 240.12 40.7606 240.233 40.7606L241.645 40.7606C241.758 40.7606 241.857 40.8594 241.857 40.9723C241.857 41.0853 241.758 41.1841 241.645 41.1841L240.233 41.1841C240.12 41.1841 240.022 41.0853 240.022 40.9723ZM243.536 190.062C243.536 189.949 243.635 189.85 243.748 189.85L245.16 189.85C245.273 189.85 245.371 189.949 245.371 190.062C245.371 190.175 245.273 190.273 245.16 190.273L243.748 190.273C243.621 190.273 243.536 190.175 243.536 190.062ZM244.256 40.9723C244.256 40.8594 244.355 40.7606 244.468 40.7606L245.88 40.7606C245.993 40.7606 246.091 40.8594 246.091 40.9723C246.091 41.0853 245.993 41.1841 245.88 41.1841L244.468 41.1841C244.355 41.1841 244.256 41.0853 244.256 40.9723ZM247.771 190.062C247.771 189.949 247.87 189.85 247.983 189.85L249.394 189.85C249.507 189.85 249.606 189.949 249.606 190.062C249.606 190.175 249.507 190.273 249.394 190.273L247.983 190.273C247.856 190.273 247.771 190.175 247.771 190.062ZM248.491 40.9723C248.491 40.8594 248.59 40.7606 248.703 40.7606L250.114 40.7606C250.227 40.7606 250.326 40.8594 250.326 40.9723C250.326 41.0853 250.227 41.1841 250.114 41.1841L248.703 41.1841C248.59 41.1841 248.491 41.0853 248.491 40.9723ZM252.006 190.062C252.006 189.949 252.105 189.85 252.218 189.85L253.629 189.85C253.742 189.85 253.841 189.949 253.841 190.062C253.841 190.175 253.742 190.273 253.629 190.273L252.218 190.273C252.091 190.273 252.006 190.175 252.006 190.062ZM252.726 40.9723C252.726 40.8594 252.825 40.7606 252.937 40.7606L254.349 40.7606C254.462 40.7606 254.561 40.8594 254.561 40.9723C254.561 41.0853 254.462 41.1841 254.349 41.1841L252.937 41.1841C252.825 41.1841 252.726 41.0853 252.726 40.9723ZM256.241 190.062C256.241 189.949 256.339 189.85 256.452 189.85L257.864 189.85C257.977 189.85 258.076 189.949 258.076 190.062C258.076 190.175 257.977 190.273 257.864 190.273L256.452 190.273C256.325 190.273 256.241 190.175 256.241 190.062ZM256.96 40.9723C256.96 40.8594 257.059 40.7606 257.172 40.7606L258.584 40.7606C258.697 40.7606 258.795 40.8594 258.795 40.9723C258.795 41.0853 258.697 41.1841 258.584 41.1841L257.172 41.1841C257.059 41.1841 256.96 41.0853 256.96 40.9723ZM260.475 190.062C260.475 189.949 260.574 189.85 260.687 189.85L262.098 189.85C262.211 189.85 262.31 189.949 262.31 190.062C262.31 190.175 262.211 190.273 262.098 190.273L260.687 190.273C260.56 190.273 260.475 190.175 260.475 190.062ZM261.195 40.9723C261.195 40.8594 261.294 40.7606 261.407 40.7606L262.818 40.7606C262.931 40.7606 263.03 40.8594 263.03 40.9723C263.03 41.0853 262.931 41.1841 262.818 41.1841L261.407 41.1841C261.294 41.1841 261.195 41.0853 261.195 40.9723ZM264.71 190.062C264.71 189.949 264.809 189.85 264.922 189.85L266.333 189.85C266.446 189.85 266.545 189.949 266.545 190.062C266.545 190.175 266.446 190.273 266.333 190.273L264.922 190.273C264.795 190.273 264.71 190.175 264.71 190.062ZM265.43 40.9723C265.43 40.8594 265.529 40.7606 265.641 40.7606L267.053 40.7606C267.166 40.7606 267.265 40.8594 267.265 40.9723C267.265 41.0853 267.166 41.1841 267.053 41.1841L265.641 41.1841C265.529 41.1841 265.43 41.0853 265.43 40.9723ZM268.945 190.062C268.945 189.949 269.043 189.85 269.156 189.85L270.568 189.85C270.681 189.85 270.78 189.949 270.78 190.062C270.78 190.175 270.681 190.273 270.568 190.273L269.156 190.273C269.029 190.273 268.945 190.175 268.945 190.062ZM269.664 40.9723C269.664 40.8594 269.763 40.7606 269.876 40.7606L271.288 40.7606C271.401 40.7606 271.499 40.8594 271.499 40.9723C271.499 41.0853 271.401 41.1841 271.288 41.1841L269.876 41.1841C269.763 41.1841 269.664 41.0853 269.664 40.9723ZM273.179 190.062C273.179 189.949 273.278 189.85 273.391 189.85L274.803 189.85C274.915 189.85 275.014 189.949 275.014 190.062C275.014 190.175 274.915 190.273 274.803 190.273L273.391 190.273C273.264 190.273 273.179 190.175 273.179 190.062ZM273.899 40.9723C273.899 40.8594 273.998 40.7606 274.111 40.7606L275.522 40.7606C275.635 40.7606 275.734 40.8594 275.734 40.9723C275.734 41.0853 275.635 41.1841 275.522 41.1841L274.111 41.1841C273.998 41.1841 273.899 41.0853 273.899 40.9723ZM277.414 190.062C277.414 189.949 277.513 189.85 277.626 189.85L279.037 189.85C279.15 189.85 279.249 189.949 279.249 190.062C279.249 190.175 279.15 190.273 279.037 190.273L277.626 190.273C277.499 190.273 277.414 190.175 277.414 190.062ZM278.134 40.9723C278.134 40.8594 278.233 40.7606 278.346 40.7606L279.757 40.7606C279.87 40.7606 279.969 40.8594 279.969 40.9723C279.969 41.0853 279.87 41.1841 279.757 41.1841L278.346 41.1841C278.233 41.1841 278.134 41.0853 278.134 40.9723ZM281.649 190.062C281.649 189.949 281.747 189.85 281.86 189.85L283.272 189.85C283.385 189.85 283.484 189.949 283.484 190.062C283.484 190.175 283.385 190.273 283.272 190.273L281.86 190.273C281.733 190.273 281.649 190.175 281.649 190.062ZM282.369 40.9723C282.369 40.8594 282.467 40.7606 282.58 40.7606L283.992 40.7606C284.105 40.7606 284.204 40.8594 284.204 40.9723C284.204 41.0853 284.105 41.1841 283.992 41.1841L282.58 41.1841C282.467 41.1841 282.369 41.0853 282.369 40.9723ZM285.883 190.062C285.883 189.949 285.982 189.85 286.095 189.85L287.507 189.85C287.62 189.85 287.718 189.949 287.718 190.062C287.718 190.175 287.62 190.273 287.507 190.273L286.095 190.273C285.968 190.273 285.883 190.175 285.883 190.062ZM286.603 40.9723C286.603 40.8594 286.702 40.7606 286.815 40.7606L288.226 40.7606C288.339 40.7606 288.438 40.8594 288.438 40.9723C288.438 41.0853 288.339 41.1841 288.226 41.1841L286.815 41.1841C286.702 41.1841 286.603 41.0853 286.603 40.9723ZM290.118 190.062C290.118 189.949 290.217 189.85 290.33 189.85L291.741 189.85C291.854 189.85 291.953 189.949 291.953 190.062C291.953 190.175 291.854 190.273 291.741 190.273L290.33 190.273C290.203 190.273 290.118 190.175 290.118 190.062ZM290.838 40.9723C290.838 40.8594 290.937 40.7606 291.05 40.7606L292.461 40.7606C292.574 40.7606 292.673 40.8594 292.673 40.9723C292.673 41.0853 292.574 41.1841 292.461 41.1841L291.05 41.1841C290.937 41.1841 290.838 41.0853 290.838 40.9723ZM294.353 190.062C294.353 189.949 294.451 189.85 294.564 189.85L295.976 189.85C296.089 189.85 296.188 189.949 296.188 190.062C296.188 190.175 296.089 190.273 295.976 190.273L294.564 190.273C294.437 190.273 294.353 190.175 294.353 190.062ZM295.073 40.9723C295.073 40.8594 295.171 40.7606 295.284 40.7606L296.696 40.7606C296.809 40.7606 296.908 40.8594 296.908 40.9723C296.908 41.0853 296.809 41.1841 296.696 41.1841L295.284 41.1841C295.171 41.1841 295.073 41.0853 295.073 40.9723ZM298.587 190.062C298.587 189.949 298.686 189.85 298.799 189.85L300.211 189.85C300.324 189.85 300.422 189.949 300.422 190.062C300.422 190.175 300.324 190.273 300.211 190.273L298.799 190.273C298.672 190.273 298.587 190.175 298.587 190.062ZM299.307 40.9723C299.307 40.8594 299.406 40.7606 299.519 40.7606L300.931 40.7606C301.043 40.7606 301.142 40.8594 301.142 40.9723C301.142 41.0853 301.043 41.1841 300.931 41.1841L299.519 41.1841C299.406 41.1841 299.307 41.0853 299.307 40.9723ZM302.822 190.062C302.822 189.949 302.921 189.85 303.034 189.85L304.445 189.85C304.558 189.85 304.657 189.949 304.657 190.062C304.657 190.175 304.558 190.273 304.445 190.273L303.034 190.273C302.907 190.273 302.822 190.175 302.822 190.062ZM303.542 40.9723C303.542 40.8594 303.641 40.7606 303.754 40.7606L305.165 40.7606C305.278 40.7606 305.377 40.8594 305.377 40.9723C305.377 41.0853 305.278 41.1841 305.165 41.1841L303.754 41.1841C303.641 41.1841 303.542 41.0853 303.542 40.9723ZM307.057 190.062C307.057 189.949 307.156 189.85 307.268 189.85L308.68 189.85C308.793 189.85 308.892 189.949 308.892 190.062C308.892 190.175 308.793 190.273 308.68 190.273L307.268 190.273C307.141 190.273 307.057 190.175 307.057 190.062ZM307.777 40.9723C307.777 40.8594 307.875 40.7606 307.988 40.7606L309.4 40.7606C309.513 40.7606 309.612 40.8594 309.612 40.9723C309.612 41.0853 309.513 41.1841 309.4 41.1841L307.988 41.1841C307.875 41.1841 307.777 41.0853 307.777 40.9723ZM311.291 190.062C311.291 189.949 311.39 189.85 311.503 189.85L312.915 189.85C313.028 189.85 313.126 189.949 313.126 190.062C313.126 190.175 313.028 190.273 312.915 190.273L311.503 190.273C311.376 190.273 311.291 190.175 311.291 190.062ZM312.011 40.9723C312.011 40.8594 312.11 40.7606 312.223 40.7606L313.635 40.7606C313.748 40.7606 313.846 40.8594 313.846 40.9723C313.846 41.0853 313.748 41.1841 313.635 41.1841L312.223 41.1841C312.11 41.1841 312.011 41.0853 312.011 40.9723ZM315.526 190.062C315.526 189.949 315.625 189.85 315.738 189.85L317.149 189.85C317.262 189.85 317.361 189.949 317.361 190.062C317.361 190.175 317.262 190.273 317.149 190.273L315.738 190.273C315.611 190.273 315.526 190.175 315.526 190.062ZM316.246 40.9723C316.246 40.8594 316.345 40.7606 316.458 40.7606L317.869 40.7606C317.982 40.7606 318.081 40.8594 318.081 40.9723C318.081 41.0853 317.982 41.1841 317.869 41.1841L316.458 41.1841C316.345 41.1841 316.246 41.0853 316.246 40.9723ZM319.761 190.062C319.761 189.949 319.86 189.85 319.973 189.85L321.384 189.85C321.497 189.85 321.596 189.949 321.596 190.062C321.596 190.175 321.497 190.273 321.384 190.273L319.973 190.273C319.846 190.273 319.761 190.175 319.761 190.062ZM320.481 40.9723C320.481 40.8594 320.58 40.7606 320.692 40.7606L322.104 40.7606C322.217 40.7606 322.316 40.8594 322.316 40.9723C322.316 41.0853 322.217 41.1841 322.104 41.1841L320.692 41.1841C320.58 41.1841 320.481 41.0853 320.481 40.9723ZM323.996 190.062C323.996 189.949 324.094 189.85 324.207 189.85L325.619 189.85C325.732 189.85 325.831 189.949 325.831 190.062C325.831 190.175 325.732 190.273 325.619 190.273L324.207 190.273C324.08 190.273 323.996 190.175 323.996 190.062ZM324.715 40.9723C324.715 40.8594 324.814 40.7606 324.927 40.7606L326.339 40.7606C326.452 40.7606 326.55 40.8594 326.55 40.9723C326.55 41.0853 326.452 41.1841 326.339 41.1841L324.927 41.1841C324.814 41.1841 324.715 41.0853 324.715 40.9723ZM328.23 190.062C328.23 189.949 328.329 189.85 328.442 189.85L329.853 189.85C329.966 189.85 330.065 189.949 330.065 190.062C330.065 190.175 329.966 190.273 329.853 190.273L328.442 190.273C328.315 190.273 328.23 190.175 328.23 190.062ZM328.95 40.9723C328.95 40.8594 329.049 40.7606 329.162 40.7606L330.573 40.7606C330.686 40.7606 330.785 40.8594 330.785 40.9723C330.785 41.0853 330.686 41.1841 330.573 41.1841L329.162 41.1841C329.049 41.1841 328.95 41.0853 328.95 40.9723ZM332.465 190.062C332.465 189.949 332.564 189.85 332.677 189.85L334.088 189.85C334.201 189.85 334.3 189.949 334.3 190.062C334.3 190.175 334.201 190.273 334.088 190.273L332.677 190.273C332.55 190.273 332.465 190.175 332.465 190.062ZM333.185 40.9723C333.185 40.8594 333.284 40.7606 333.397 40.7606L334.808 40.7606C334.921 40.7606 335.02 40.8594 335.02 40.9723C335.02 41.0853 334.921 41.1841 334.808 41.1841L333.397 41.1841C333.284 41.1841 333.185 41.0853 333.185 40.9723ZM336.7 190.062C336.7 189.949 336.798 189.85 336.911 189.85L338.323 189.85C338.436 189.85 338.535 189.949 338.535 190.062C338.535 190.175 338.436 190.273 338.323 190.273L336.911 190.273C336.784 190.273 336.7 190.175 336.7 190.062ZM337.419 40.9723C337.419 40.8594 337.518 40.7606 337.631 40.7606L339.043 40.7606C339.156 40.7606 339.254 40.8594 339.254 40.9723C339.254 41.0853 339.156 41.1841 339.043 41.1841L337.631 41.1841C337.518 41.1841 337.419 41.0853 337.419 40.9723ZM340.934 190.062C340.934 189.949 341.033 189.85 341.146 189.85L342.191 189.85L342.191 188.65C342.191 188.537 342.289 188.438 342.402 188.438C342.515 188.438 342.614 188.537 342.614 188.65L342.614 190.062C342.614 190.175 342.515 190.273 342.402 190.273L341.146 190.273C341.019 190.273 340.934 190.175 340.934 190.062ZM341.654 40.9723C341.654 40.8594 341.753 40.7606 341.866 40.7606L342.402 40.7606C342.515 40.7606 342.614 40.8594 342.614 40.9723L342.614 41.8476C342.614 41.9605 342.515 42.0593 342.402 42.0593C342.289 42.0593 342.191 41.9605 342.191 41.8476L342.191 41.1841L341.866 41.1841C341.753 41.1841 341.654 41.0853 341.654 40.9723ZM342.191 185.827L342.191 184.415C342.191 184.302 342.289 184.204 342.402 184.204C342.515 184.204 342.614 184.302 342.614 184.415L342.614 185.827C342.614 185.94 342.515 186.039 342.402 186.039C342.289 186.039 342.191 185.94 342.191 185.827ZM342.191 181.592L342.191 180.181C342.191 180.068 342.289 179.969 342.402 179.969C342.515 179.969 342.614 180.068 342.614 180.181L342.614 181.592C342.614 181.705 342.515 181.804 342.402 181.804C342.289 181.804 342.191 181.705 342.191 181.592ZM342.191 177.358L342.191 175.946C342.191 175.833 342.289 175.734 342.402 175.734C342.515 175.734 342.614 175.833 342.614 175.946L342.614 177.358C342.614 177.47 342.515 177.569 342.402 177.569C342.289 177.569 342.191 177.47 342.191 177.358ZM342.191 173.123L342.191 171.711C342.191 171.598 342.289 171.5 342.402 171.5C342.515 171.5 342.614 171.598 342.614 171.711L342.614 173.123C342.614 173.236 342.515 173.335 342.402 173.335C342.289 173.335 342.191 173.236 342.191 173.123ZM342.191 168.888L342.191 167.477C342.191 167.364 342.289 167.265 342.402 167.265C342.515 167.265 342.614 167.364 342.614 167.477L342.614 168.888C342.614 169.001 342.515 169.1 342.402 169.1C342.289 169.1 342.191 169.001 342.191 168.888ZM342.191 164.653L342.191 163.242C342.191 163.129 342.289 163.03 342.402 163.03C342.515 163.03 342.614 163.129 342.614 163.242L342.614 164.653C342.614 164.766 342.515 164.865 342.402 164.865C342.289 164.865 342.191 164.766 342.191 164.653ZM342.191 160.419L342.191 159.007C342.191 158.894 342.289 158.795 342.402 158.795C342.515 158.795 342.614 158.894 342.614 159.007L342.614 160.419C342.614 160.532 342.515 160.631 342.402 160.631C342.289 160.631 342.191 160.532 342.191 160.419ZM342.191 156.184L342.191 154.773C342.191 154.66 342.289 154.561 342.402 154.561C342.515 154.561 342.614 154.66 342.614 154.773L342.614 156.184C342.614 156.297 342.515 156.396 342.402 156.396C342.289 156.396 342.191 156.297 342.191 156.184ZM342.191 151.949L342.191 150.538C342.191 150.425 342.289 150.326 342.402 150.326C342.515 150.326 342.614 150.425 342.614 150.538L342.614 151.949C342.614 152.062 342.515 152.161 342.402 152.161C342.289 152.161 342.191 152.062 342.191 151.949ZM342.191 147.715L342.191 146.303C342.191 146.19 342.289 146.091 342.402 146.091C342.515 146.091 342.614 146.19 342.614 146.303L342.614 147.715C342.614 147.828 342.515 147.926 342.402 147.926C342.289 147.926 342.191 147.828 342.191 147.715ZM342.191 143.48L342.191 142.068C342.191 141.956 342.289 141.857 342.402 141.857C342.515 141.857 342.614 141.956 342.614 142.068L342.614 143.48C342.614 143.593 342.515 143.692 342.402 143.692C342.289 143.692 342.191 143.593 342.191 143.48ZM342.191 139.245L342.191 137.834C342.191 137.721 342.289 137.622 342.402 137.622C342.515 137.622 342.614 137.721 342.614 137.834L342.614 139.245C342.614 139.358 342.515 139.457 342.402 139.457C342.289 139.457 342.191 139.358 342.191 139.245ZM342.191 135.011L342.191 133.599C342.191 133.486 342.289 133.387 342.402 133.387C342.515 133.387 342.614 133.486 342.614 133.599L342.614 135.011C342.614 135.124 342.515 135.222 342.402 135.222C342.289 135.222 342.191 135.124 342.191 135.011ZM342.191 130.776L342.191 129.364C342.191 129.252 342.289 129.153 342.402 129.153C342.515 129.153 342.614 129.252 342.614 129.364L342.614 130.776C342.614 130.889 342.515 130.988 342.402 130.988C342.289 130.988 342.191 130.889 342.191 130.776ZM342.191 126.541L342.191 125.13C342.191 125.017 342.289 124.918 342.402 124.918C342.515 124.918 342.614 125.017 342.614 125.13L342.614 126.541C342.614 126.654 342.515 126.753 342.402 126.753C342.289 126.753 342.191 126.654 342.191 126.541ZM342.191 122.307L342.191 120.895C342.191 120.782 342.289 120.683 342.402 120.683C342.515 120.683 342.614 120.782 342.614 120.895L342.614 122.307C342.614 122.42 342.515 122.518 342.402 122.518C342.289 122.518 342.191 122.42 342.191 122.307ZM342.191 118.072L342.191 116.66C342.191 116.547 342.289 116.449 342.402 116.449C342.515 116.449 342.614 116.547 342.614 116.66L342.614 118.072C342.614 118.185 342.515 118.284 342.402 118.284C342.289 118.284 342.191 118.185 342.191 118.072ZM342.191 113.837L342.191 112.426C342.191 112.313 342.289 112.214 342.402 112.214C342.515 112.214 342.614 112.313 342.614 112.426L342.614 113.837C342.614 113.95 342.515 114.049 342.402 114.049C342.289 114.049 342.191 113.95 342.191 113.837ZM342.191 109.603L342.191 108.191C342.191 108.078 342.289 107.979 342.402 107.979C342.515 107.979 342.614 108.078 342.614 108.191L342.614 109.603C342.614 109.715 342.515 109.814 342.402 109.814C342.289 109.814 342.191 109.715 342.191 109.603ZM342.191 105.368L342.191 103.956C342.191 103.843 342.289 103.745 342.402 103.745C342.515 103.745 342.614 103.843 342.614 103.956L342.614 105.368C342.614 105.481 342.515 105.58 342.402 105.58C342.289 105.58 342.191 105.481 342.191 105.368ZM342.191 101.133L342.191 99.7216C342.191 99.6087 342.289 99.5098 342.402 99.5098C342.515 99.5098 342.614 99.6087 342.614 99.7216L342.614 101.133C342.614 101.246 342.515 101.345 342.402 101.345C342.289 101.345 342.191 101.246 342.191 101.133ZM342.191 96.8985L342.191 95.4869C342.191 95.374 342.289 95.2752 342.402 95.2752C342.515 95.2752 342.614 95.374 342.614 95.4869L342.614 96.8985C342.614 97.0114 342.515 97.1102 342.402 97.1102C342.289 97.1102 342.191 97.0114 342.191 96.8985ZM342.191 92.6638L342.191 91.2522C342.191 91.1393 342.289 91.0405 342.402 91.0405C342.515 91.0405 342.614 91.1393 342.614 91.2522L342.614 92.6638C342.614 92.7767 342.515 92.8755 342.402 92.8755C342.289 92.8755 342.191 92.7767 342.191 92.6638ZM342.191 88.4291L342.191 87.0176C342.191 86.9046 342.289 86.8058 342.402 86.8058C342.515 86.8058 342.614 86.9046 342.614 87.0176L342.614 88.4291C342.614 88.542 342.515 88.6408 342.402 88.6408C342.289 88.6408 342.191 88.542 342.191 88.4291ZM342.191 84.1944L342.191 82.7829C342.191 82.6699 342.289 82.5711 342.402 82.5711C342.515 82.5711 342.614 82.6699 342.614 82.7829L342.614 84.1944C342.614 84.3074 342.515 84.4062 342.402 84.4062C342.289 84.4062 342.191 84.3074 342.191 84.1944ZM342.191 79.9597L342.191 78.5482C342.191 78.4353 342.289 78.3364 342.402 78.3364C342.515 78.3364 342.614 78.4353 342.614 78.5482L342.614 79.9597C342.614 80.0727 342.515 80.1715 342.402 80.1715C342.289 80.1715 342.191 80.0727 342.191 79.9597ZM342.191 75.7251L342.191 74.3135C342.191 74.2006 342.289 74.1017 342.402 74.1017C342.515 74.1017 342.614 74.2006 342.614 74.3135L342.614 75.7251C342.614 75.838 342.515 75.9368 342.402 75.9368C342.289 75.9368 342.191 75.838 342.191 75.7251ZM342.191 71.4904L342.191 70.0788C342.191 69.9659 342.289 69.867 342.402 69.867C342.515 69.867 342.614 69.9659 342.614 70.0788L342.614 71.4904C342.614 71.6033 342.515 71.7021 342.402 71.7021C342.289 71.7021 342.191 71.6033 342.191 71.4904ZM342.191 67.2557L342.191 65.8441C342.191 65.7312 342.289 65.6323 342.402 65.6323C342.515 65.6323 342.614 65.7312 342.614 65.8441L342.614 67.2557C342.614 67.3686 342.515 67.4674 342.402 67.4674C342.289 67.4674 342.191 67.3686 342.191 67.2557ZM342.191 63.021L342.191 61.6094C342.191 61.4965 342.289 61.3977 342.402 61.3977C342.515 61.3977 342.614 61.4965 342.614 61.6094L342.614 63.021C342.614 63.1339 342.515 63.2327 342.402 63.2327C342.289 63.2327 342.191 63.1339 342.191 63.021ZM342.191 58.7863L342.191 57.3747C342.191 57.2618 342.289 57.163 342.402 57.163C342.515 57.163 342.614 57.2618 342.614 57.3747L342.614 58.7863C342.614 58.8992 342.515 58.998 342.402 58.998C342.289 58.998 342.191 58.8992 342.191 58.7863ZM342.191 54.5516L342.191 53.1401C342.191 53.0271 342.289 52.9283 342.402 52.9283C342.515 52.9283 342.614 53.0271 342.614 53.1401L342.614 54.5516C342.614 54.6645 342.515 54.7633 342.402 54.7633C342.289 54.7633 342.191 54.6645 342.191 54.5516ZM342.191 50.3169L342.191 48.9054C342.191 48.7924 342.289 48.6936 342.402 48.6936C342.515 48.6936 342.614 48.7924 342.614 48.9054L342.614 50.3169C342.614 50.4299 342.515 50.5287 342.402 50.5287C342.289 50.5287 342.191 50.4299 342.191 50.3169ZM342.191 46.0822L342.191 44.6707C342.191 44.5578 342.289 44.4589 342.402 44.4589C342.515 44.4589 342.614 44.5578 342.614 44.6707L342.614 46.0822C342.614 46.1952 342.515 46.294 342.402 46.294C342.289 46.294 342.191 46.1952 342.191 46.0822Z" fill="white"/>
<path d="M11.9273 200.705L11.9273 30.3148C11.9273 30.1172 12.0825 29.9619 12.2802 29.9619C12.4778 29.9619 12.6331 30.1172 12.6331 30.3148L12.633 200.705C12.633 200.902 12.4778 201.057 12.2802 201.057C12.0825 201.057 11.9273 200.902 11.9273 200.705Z" fill="white"/>
<path d="M4.86939 191.868C4.86939 191.798 4.89764 191.713 4.96821 191.671C5.08114 191.586 5.23638 191.6 5.33519 191.713L9.6687 197.063C9.75339 197.176 9.73928 197.331 9.62635 197.43C9.51343 197.514 9.35814 197.5 9.25933 197.387L4.92587 192.038C4.88352 191.981 4.86939 191.925 4.86939 191.868Z" fill="white"/>
<path d="M4.86939 190.499C4.86939 190.442 4.88352 190.386 4.92587 190.329L9.25933 184.98C9.34403 184.867 9.51343 184.853 9.62635 184.937C9.73928 185.022 9.75339 185.191 9.6687 185.304L5.33519 190.654C5.2505 190.767 5.08114 190.781 4.96821 190.696C4.89764 190.64 4.86939 190.569 4.86939 190.499Z" fill="white"/>
<path d="M4.86939 178.106C4.86939 178.035 4.89764 177.95 4.96821 177.908C5.08114 177.823 5.23638 177.837 5.33519 177.95L9.6687 183.3C9.75339 183.413 9.73928 183.568 9.62635 183.667C9.51343 183.752 9.35814 183.738 9.25933 183.625L4.92587 178.275C4.88352 178.219 4.86939 178.162 4.86939 178.106Z" fill="white"/>
<path d="M4.86939 176.736C4.86939 176.68 4.88352 176.623 4.92587 176.567L9.25933 171.217C9.34403 171.104 9.51343 171.09 9.62635 171.175C9.73928 171.259 9.75339 171.429 9.6687 171.542L5.33519 176.891C5.2505 177.004 5.08114 177.018 4.96821 176.934C4.89764 176.877 4.86939 176.807 4.86939 176.736Z" fill="white"/>
<path d="M4.86939 164.343C4.86939 164.272 4.89764 164.187 4.96821 164.145C5.08114 164.06 5.23638 164.074 5.33519 164.187L9.6687 169.537C9.75339 169.65 9.73928 169.805 9.62635 169.904C9.51343 169.989 9.35814 169.975 9.25933 169.862L4.92587 164.512C4.88352 164.456 4.86939 164.399 4.86939 164.343Z" fill="white"/>
<path d="M4.86939 162.973C4.86939 162.917 4.88352 162.86 4.92587 162.804L9.25933 157.454C9.34403 157.341 9.51343 157.327 9.62635 157.412C9.73928 157.497 9.75339 157.666 9.6687 157.779L5.33519 163.129C5.2505 163.242 5.08114 163.256 4.96821 163.171C4.89764 163.129 4.86939 163.058 4.86939 162.973Z" fill="white"/>
<path d="M4.86939 150.594C4.86939 150.524 4.89764 150.439 4.96821 150.397C5.08114 150.312 5.23638 150.326 5.33519 150.439L9.6687 155.789C9.75339 155.902 9.73928 156.057 9.62635 156.156C9.51343 156.24 9.35814 156.226 9.25933 156.113L4.92587 150.764C4.88352 150.707 4.86939 150.651 4.86939 150.594Z" fill="white"/>
<path d="M4.86939 149.225C4.86939 149.168 4.88352 149.112 4.92587 149.056L9.25933 143.706C9.34403 143.593 9.51343 143.579 9.62635 143.663C9.73928 143.748 9.75339 143.917 9.6687 144.03L5.33519 149.38C5.2505 149.493 5.08114 149.507 4.96821 149.423C4.89764 149.366 4.86939 149.295 4.86939 149.225Z" fill="white"/>
<path d="M4.86939 136.831C4.86939 136.76 4.89764 136.676 4.96821 136.633C5.08114 136.549 5.23638 136.563 5.33519 136.676L9.6687 142.026C9.75339 142.138 9.73928 142.294 9.62635 142.393C9.51343 142.477 9.35814 142.463 9.25933 142.35L4.92587 137C4.88352 136.944 4.86939 136.887 4.86939 136.831Z" fill="white"/>
<path d="M4.86939 135.462C4.86939 135.406 4.88352 135.349 4.92587 135.293L9.25933 129.943C9.34403 129.83 9.51343 129.816 9.62635 129.901C9.73928 129.985 9.75339 130.155 9.6687 130.268L5.33519 135.617C5.2505 135.73 5.08114 135.745 4.96821 135.66C4.89764 135.617 4.86939 135.533 4.86939 135.462Z" fill="white"/>
<path d="M4.86939 123.068C4.86939 122.998 4.89764 122.913 4.96821 122.871C5.08114 122.786 5.23638 122.8 5.33519 122.913L9.6687 128.263C9.75339 128.376 9.73928 128.531 9.62635 128.63C9.51343 128.715 9.35814 128.701 9.25933 128.588L4.92587 123.238C4.88352 123.195 4.86939 123.125 4.86939 123.068Z" fill="white"/>
<path d="M4.86939 121.699C4.86939 121.643 4.88352 121.586 4.92587 121.53L9.25933 116.18C9.34403 116.067 9.51343 116.053 9.62635 116.138C9.73928 116.222 9.75339 116.392 9.6687 116.505L5.33519 121.855C5.2505 121.967 5.08114 121.982 4.96821 121.897C4.89764 121.855 4.86939 121.784 4.86939 121.699Z" fill="white"/>
<path d="M4.86939 109.32C4.86939 109.25 4.89764 109.165 4.96821 109.122C5.08114 109.038 5.23638 109.052 5.33519 109.165L9.6687 114.515C9.75339 114.628 9.73928 114.783 9.62635 114.882C9.51343 114.966 9.35814 114.952 9.25933 114.839L4.92587 109.489C4.88352 109.433 4.86939 109.377 4.86939 109.32Z" fill="white"/>
<path d="M4.86939 107.951C4.86939 107.894 4.88352 107.838 4.92587 107.781L9.25933 102.432C9.34403 102.319 9.51343 102.304 9.62635 102.389C9.73928 102.474 9.75339 102.643 9.6687 102.756L5.33519 108.106C5.2505 108.219 5.08114 108.233 4.96821 108.148C4.89764 108.092 4.86939 108.021 4.86939 107.951Z" fill="white"/>
<path d="M4.86939 95.5573C4.86939 95.4867 4.89764 95.402 4.96821 95.3596C5.08114 95.2749 5.23638 95.289 5.33519 95.402L9.6687 100.752C9.75339 100.865 9.73928 101.02 9.62635 101.119C9.51343 101.204 9.35814 101.189 9.25933 101.076L4.92587 95.7266C4.88352 95.6702 4.86939 95.6137 4.86939 95.5573Z" fill="white"/>
<path d="M4.86939 94.188C4.86939 94.1316 4.88352 94.0751 4.92587 94.0186L9.25933 88.6688C9.34403 88.5559 9.51343 88.5418 9.62635 88.6265C9.73928 88.7112 9.75339 88.8806 9.6687 88.9935L5.33519 94.3433C5.2505 94.4562 5.08114 94.4703 4.96821 94.3856C4.89764 94.3433 4.86939 94.2586 4.86939 94.188Z" fill="white"/>
<path d="M4.86939 81.8087C4.86939 81.7381 4.89764 81.6534 4.96821 81.6111C5.08114 81.5264 5.23638 81.5405 5.33519 81.6534L9.6687 87.0033C9.75339 87.1162 9.73928 87.2715 9.62635 87.3703C9.51343 87.455 9.35814 87.4408 9.25933 87.3279L4.92587 81.9781C4.88352 81.9216 4.86939 81.8652 4.86939 81.8087Z" fill="white"/>
<path d="M4.86939 80.4394C4.86939 80.3829 4.88352 80.3264 4.92587 80.2699L9.25933 74.9202C9.34403 74.8072 9.51343 74.7931 9.62635 74.8778C9.73928 74.9625 9.75339 75.1319 9.6687 75.2448L5.33519 80.5946C5.2505 80.7075 5.08114 80.7217 4.96821 80.637C4.89764 80.5805 4.86939 80.5099 4.86939 80.4394Z" fill="white"/>
<path d="M4.86939 68.0462C4.86939 67.9756 4.89764 67.8909 4.96821 67.8485C5.08114 67.7638 5.23638 67.7779 5.33519 67.8909L9.6687 73.2407C9.75339 73.3536 9.73928 73.5089 9.62635 73.6077C9.51343 73.6924 9.35814 73.6783 9.25933 73.5653L4.92587 68.2155C4.88352 68.1591 4.86939 68.1026 4.86939 68.0462Z" fill="white"/>
<path d="M4.86939 66.6768C4.86939 66.6203 4.88352 66.5638 4.92587 66.5074L9.25933 61.1576C9.34403 61.0447 9.51343 61.0305 9.62635 61.1152C9.73928 61.1999 9.75339 61.3693 9.6687 61.4822L5.33519 66.832C5.2505 66.945 5.08114 66.9591 4.96821 66.8744C4.89764 66.8179 4.86939 66.7474 4.86939 66.6768Z" fill="white"/>
<path d="M4.86939 54.2832C4.86939 54.2126 4.89764 54.1279 4.96821 54.0856C5.08114 54.0009 5.23638 54.015 5.33519 54.1279L9.6687 59.4778C9.75339 59.5907 9.73928 59.746 9.62635 59.8448C9.51343 59.9295 9.35814 59.9153 9.25933 59.8024L4.92587 54.4526C4.88352 54.3961 4.86939 54.3397 4.86939 54.2832Z" fill="white"/>
<path d="M4.86939 52.9139C4.86939 52.8574 4.88352 52.8009 4.92587 52.7444L9.25933 47.3946C9.34403 47.2817 9.51343 47.2676 9.62635 47.3523C9.73928 47.437 9.75339 47.6064 9.6687 47.7193L5.33519 53.0691C5.2505 53.182 5.08114 53.1961 4.96821 53.1115C4.89764 53.0691 4.86939 52.9986 4.86939 52.9139Z" fill="white"/>
<path d="M4.86939 40.5345C4.86939 40.4639 4.89764 40.3793 4.96821 40.3369C5.08114 40.2522 5.23638 40.2663 5.33519 40.3793L9.6687 45.7291C9.75339 45.842 9.73928 45.9973 9.62635 46.0961C9.51343 46.1808 9.35814 46.1667 9.25933 46.0537L4.92587 40.7039C4.88352 40.6474 4.86939 40.591 4.86939 40.5345Z" fill="white"/>
<path d="M4.86939 39.1652C4.86939 39.1087 4.88352 39.0523 4.92587 38.9958L9.25933 33.646C9.34403 33.5331 9.51343 33.5189 9.62635 33.6036C9.73928 33.6883 9.75339 33.8577 9.6687 33.9707L5.33519 39.3205C5.2505 39.4334 5.08114 39.4475 4.96821 39.3628C4.89764 39.3064 4.86939 39.2358 4.86939 39.1652Z" fill="white"/>
<path d="M9.10404 203.528L9.10406 -355.875C9.10406 -356.072 9.25934 -356.227 9.45694 -356.227L441.07 -356.227C441.268 -356.227 441.423 -356.072 441.423 -355.875L441.423 -94.6507C441.423 -94.4531 441.268 -94.2979 441.07 -94.2979L356.236 -94.2979L356.236 203.528C356.236 203.725 356.08 203.881 355.883 203.881L9.45692 203.881C9.25931 203.881 9.10404 203.725 9.10404 203.528ZM9.80984 -355.522L9.80982 203.175L355.516 203.175L355.516 -94.6507C355.516 -94.8484 355.671 -95.0036 355.869 -95.0036L440.703 -95.0036L440.703 -355.522L9.80984 -355.522Z" fill="white"/>
<path d="M11.5743 200.705L11.5743 -353.051C11.5743 -353.447 11.8849 -353.757 12.2801 -353.757L438.247 -353.757C438.643 -353.757 438.953 -353.447 438.953 -353.051L438.953 -97.4738C438.953 -97.0786 438.643 -96.768 438.247 -96.768L353.765 -96.768L353.765 200.705C353.765 201.1 353.455 201.41 353.06 201.41L12.2942 201.41C11.8849 201.41 11.5743 201.1 11.5743 200.705ZM12.9859 -352.346L12.9859 199.999L352.34 199.999L352.34 -97.4314C352.311 -97.7561 352.495 -98.0949 352.805 -98.1937C352.89 -98.2219 352.989 -98.236 353.074 -98.236C353.172 -98.236 353.285 -98.2078 353.37 -98.1655L437.542 -98.1655L437.542 -352.346L12.9859 -352.346Z" fill="white"/>
<path d="M365.75 -80.2104L364.677 -76.1734L365.538 -76.1734L365.538 196.668L364.677 196.668L365.75 200.705L366.836 196.668L365.975 196.668L365.975 -76.1734L366.836 -76.1734L365.75 -80.2104Z" fill="white"/>
<path d="M-23.2066 213.183L-23.2066 212.322L-27.2437 213.409L-23.2066 214.496L-23.2066 213.635L349.008 213.635L349.008 214.496L353.045 213.409L349.008 212.322L349.008 213.183L-23.2066 213.183Z" fill="white"/>
<path d="M365.622 213.183L365.622 212.322L361.585 213.409L365.622 214.496L365.622 213.635L434.196 213.635L434.196 214.496L438.233 213.409L434.196 212.322L434.196 213.183L365.622 213.183Z" fill="white"/>
<path d="M361.148 203.528C361.148 203.344 361.289 203.203 361.473 203.203L370.027 203.203C370.21 203.203 370.351 203.344 370.351 203.528C370.351 203.711 370.21 203.852 370.027 203.852L361.473 203.852C361.303 203.852 361.148 203.711 361.148 203.528Z" fill="white"/>
<path d="M355.403 217.686L355.403 209.132C355.403 208.948 355.544 208.807 355.727 208.807C355.911 208.807 356.052 208.948 356.052 209.132L356.052 217.686C356.052 217.869 355.911 218.011 355.727 218.011C355.558 218.011 355.403 217.869 355.403 217.686Z" fill="white"/>
<path d="M354.457 8.23816L354.457 -34.3628L351.634 -34.3628L351.634 8.23816L354.457 8.23816Z" fill="white"/>
<path d="M353.749 8.57608L315.058 -12.7305L313.696 -10.2574L352.387 11.0491L353.749 8.57608Z" fill="white"/>
<path d="M223.422 115.122C223.422 106.949 230.07 100.286 238.257 100.286C246.43 100.286 253.093 106.934 253.093 115.122C253.093 123.309 246.444 129.957 238.257 129.957C230.07 129.943 223.422 123.294 223.422 115.122ZM251.667 115.122C251.667 107.725 245.654 101.698 238.243 101.698C230.847 101.698 224.819 107.711 224.819 115.122C224.819 122.518 230.832 128.545 238.243 128.545C245.654 128.531 251.667 122.518 251.667 115.122Z" fill="white"/>
<path d="M238.244 112.048L246.971 112.048L246.971 117.281L246.034 117.281L246.034 113.105L243.085 113.105L243.085 116.889L242.148 116.889L242.148 113.105L238.244 113.105L238.244 112.048Z" fill="white"/>
</g>
<defs>
<clipPath id="clip0_533_22120">
<rect width="371" height="224" fill="white"/>
</clipPath>
</defs>
</svg>
