<svg width="343" height="68" viewBox="0 0 343 68" fill="none" xmlns="http://www.w3.org/2000/svg">
<g clip-path="url(#clip0_963_12746)">
<rect y="0.453369" width="343" height="224" rx="12" fill="#85CEE4"/>
<path d="M260.097 120.202L260.097 52.2494C260.097 52.0518 260.252 51.8965 260.45 51.8965L285.801 51.8965C285.999 51.8965 286.154 52.0518 286.154 52.2494L286.154 120.202C286.154 120.4 285.999 120.555 285.801 120.555L260.45 120.555C260.252 120.555 260.097 120.4 260.097 120.202ZM260.803 52.6023L260.803 119.849L285.448 119.849L285.449 52.6023L260.803 52.6023Z" fill="white"/>
<path d="M61.8147 47.2524L61.8147 4.65141C61.8147 4.45379 61.97 4.29852 62.1676 4.29852L189.956 4.29852C190.154 4.29852 190.309 4.45379 190.309 4.65141L190.309 47.2524C190.309 47.45 190.154 47.6053 189.956 47.6053L62.1676 47.6053C61.9841 47.6053 61.8147 47.45 61.8147 47.2524ZM62.5205 5.0043L62.5205 46.8995L189.603 46.8995L189.603 5.0043L62.5205 5.0043Z" fill="white"/>
<path d="M61.8147 13.6572L61.8147 4.65141C61.8147 4.45379 61.97 4.29852 62.1676 4.29852L189.956 4.29852C190.154 4.29852 190.309 4.45379 190.309 4.65141L190.309 13.6572C190.309 13.8548 190.154 14.0101 189.956 14.0101L62.1676 14.0101C61.9841 14.0101 61.8147 13.8548 61.8147 13.6572ZM62.5205 5.0043L62.5205 13.3043L189.603 13.3043L189.603 5.0043L62.5205 5.0043Z" fill="white"/>
<path d="M61.8146 47.252L61.8147 13.6568C61.8147 13.4592 61.97 13.304 62.1676 13.304L126.055 13.304C126.253 13.304 126.408 13.4592 126.408 13.6568L126.408 47.2379C126.408 47.4355 126.252 47.5908 126.055 47.5908L62.1675 47.5908C61.984 47.6049 61.8146 47.4496 61.8146 47.252ZM62.5205 14.0097L62.5204 46.885L125.702 46.885L125.702 14.0097L62.5205 14.0097Z" fill="white"/>
<path d="M70.0582 20.3053L70.0582 13.6568C70.0582 13.4592 70.2135 13.304 70.4111 13.304L117.825 13.304C118.023 13.304 118.178 13.4592 118.178 13.6568L118.178 20.3053C118.178 20.5029 118.023 20.6582 117.825 20.6582L70.4111 20.6582C70.2134 20.6582 70.0582 20.5029 70.0582 20.3053ZM70.764 14.0097L70.7639 19.9524L117.473 19.9524L117.473 14.0097L70.764 14.0097Z" fill="white"/>
<path d="M132.661 20.3053L132.661 13.6568C132.661 13.4592 132.816 13.304 133.014 13.304L180.442 13.304C180.64 13.304 180.795 13.4592 180.795 13.6568L180.795 20.3053C180.795 20.5029 180.64 20.6582 180.442 20.6582L133.014 20.6582C132.816 20.6582 132.661 20.5029 132.661 20.3053ZM133.367 14.0097L133.367 19.9524L180.089 19.9524L180.09 14.0097L133.367 14.0097Z" fill="white"/>
<path d="M3.57359 168.633L3.57364 62.9066C3.57364 62.709 3.72891 62.5537 3.92653 62.5537L46.5275 62.5537C46.7251 62.5537 46.8804 62.709 46.8804 62.9066L46.8803 168.647C46.8803 168.844 46.7251 169 46.5274 169L3.92648 169C3.72886 168.986 3.57359 168.83 3.57359 168.633ZM4.27942 63.2595L4.27937 168.294L46.1745 168.294L46.1746 63.2595L4.27942 63.2595Z" fill="white"/>
<path d="M3.57361 168.633L3.57366 62.9065C3.57366 62.7089 3.72893 62.5536 3.92655 62.5536L12.9323 62.5536C13.1299 62.5536 13.2852 62.7089 13.2852 62.9065L13.2852 168.647C13.2852 168.844 13.1299 169 12.9323 169L3.9265 169C3.72888 168.985 3.57361 168.83 3.57361 168.633ZM4.27944 63.2594L4.27939 168.294L12.5794 168.294L12.5794 63.2594L4.27944 63.2594Z" fill="white"/>
<path d="M16.7576 47.2521L16.7576 17.8351C16.7576 17.6375 16.9129 17.4822 17.1105 17.4822L46.5275 17.4822C46.7251 17.4822 46.8804 17.6375 46.8804 17.8351L46.8804 47.2521C46.8804 47.4497 46.7251 47.605 46.5275 47.605L17.1105 47.605C16.9129 47.605 16.7576 47.4497 16.7576 47.2521ZM17.4634 18.188L17.4634 46.8992L46.1746 46.8992L46.1746 18.188L17.4634 18.188Z" fill="white"/>
<path d="M23.8013 32.5437C23.8014 28.1255 27.4009 24.526 31.8191 24.526C36.2373 24.526 39.8367 28.1255 39.8367 32.5437C39.8367 36.9619 36.2372 40.5614 31.819 40.5614C27.4009 40.5614 23.8013 36.9619 23.8013 32.5437ZM39.1168 32.5437C39.1168 28.5207 35.842 25.2318 31.8049 25.2318C27.782 25.2318 24.493 28.5066 24.493 32.5437C24.493 36.5666 27.7678 39.8556 31.8049 39.8556C35.842 39.8556 39.1168 36.5666 39.1168 32.5437Z" fill="white"/>
<path d="M253.505 43.2435C253.505 43.0458 253.66 42.8906 253.858 42.8906C268.439 42.8906 282.018 35.6634 290.191 23.5663C290.304 23.411 290.516 23.3687 290.685 23.4675C290.841 23.5804 290.883 23.7921 290.784 23.9615C282.484 36.2562 268.679 43.5963 253.872 43.5963C253.66 43.5963 253.505 43.4411 253.505 43.2435Z" fill="white"/>
<path d="M255.269 43.2435L255.269 0.642517L252.446 0.642517L252.446 43.2435L255.269 43.2435Z" fill="white"/>
<path d="M293.244 19.1271L254.544 -2.16174L253.183 0.311879L291.883 21.6008L293.244 19.1271Z" fill="white"/>
<path d="M-2.07283 382.371L-2.07266 -0.995011C-2.07266 -1.19263 -1.91739 -1.3479 -1.71977 -1.3479L253.858 -1.3479C254.055 -1.3479 254.211 -1.19263 254.211 -0.99501C254.211 -0.797391 254.055 -0.642119 253.858 -0.642119L-1.36688 -0.64212L-1.36705 382.018L253.858 382.018C254.055 382.018 254.21 382.174 254.21 382.371C254.21 382.569 254.055 382.724 253.858 382.724L-1.71994 382.724C-1.91756 382.724 -2.07283 382.569 -2.07283 382.371Z" fill="white"/>
<path d="M253.505 126.794L253.505 43.2434C253.505 43.0458 253.66 42.8905 253.858 42.8905C254.055 42.8905 254.211 43.0458 254.211 43.2434L254.211 126.794C254.211 126.991 254.055 127.147 253.858 127.147C253.66 127.147 253.505 126.991 253.505 126.794Z" fill="white"/>
<path d="M253.505 -0.995011C253.505 -1.19263 253.66 -1.3479 253.858 -1.3479L424.247 -1.3479C424.445 -1.3479 424.6 -1.19263 424.6 -0.99501L424.6 254.583C424.6 254.78 424.445 254.935 424.247 254.935L339.06 254.935C338.862 254.935 338.707 254.78 338.707 254.583C338.707 254.385 338.862 254.23 339.06 254.23L423.894 254.23L423.895 -0.642119L253.858 -0.64212C253.66 -0.64212 253.505 -0.797392 253.505 -0.995011Z" fill="white"/>
<path d="M61.9558 169.395C61.9558 169.282 62.0546 169.169 62.1676 169.169C62.2099 169.169 62.2381 169.169 62.2663 169.183L63.5368 169.183C63.6497 169.183 63.7485 169.282 63.7485 169.395C63.7485 169.508 63.6497 169.606 63.5368 169.606L62.1676 169.606C62.0546 169.606 61.9558 169.508 61.9558 169.395ZM61.9558 166.529L61.9558 165.118C61.9558 165.005 62.0546 164.906 62.1676 164.906C62.2805 164.906 62.3793 165.005 62.3793 165.118L62.3793 166.529C62.3793 166.642 62.2805 166.741 62.1676 166.741C62.0546 166.741 61.9558 166.642 61.9558 166.529ZM61.9558 162.295L61.9558 160.883C61.9558 160.77 62.0546 160.671 62.1676 160.671C62.2805 160.671 62.3793 160.77 62.3793 160.883L62.3793 162.295C62.3793 162.407 62.2805 162.506 62.1676 162.506C62.0546 162.506 61.9558 162.407 61.9558 162.295ZM61.9558 158.06L61.9558 156.648C61.9558 156.535 62.0546 156.437 62.1676 156.437C62.2805 156.437 62.3793 156.535 62.3793 156.648L62.3793 158.06C62.3793 158.173 62.2805 158.272 62.1676 158.272C62.0546 158.272 61.9558 158.173 61.9558 158.06ZM61.9558 153.825L61.9558 152.414C61.9558 152.301 62.0546 152.202 62.1676 152.202C62.2805 152.202 62.3793 152.301 62.3793 152.414L62.3793 153.825C62.3793 153.938 62.2805 154.037 62.1676 154.037C62.0546 154.037 61.9558 153.938 61.9558 153.825ZM61.9558 149.59L61.9558 148.179C61.9558 148.066 62.0546 147.967 62.1676 147.967C62.2805 147.967 62.3793 148.066 62.3793 148.179L62.3793 149.59C62.3793 149.703 62.2805 149.802 62.1676 149.802C62.0546 149.802 61.9558 149.703 61.9558 149.59ZM61.9558 145.356L61.9558 143.944C61.9558 143.831 62.0546 143.733 62.1676 143.733C62.2805 143.733 62.3793 143.831 62.3793 143.944L62.3793 145.356C62.3793 145.469 62.2805 145.568 62.1676 145.568C62.0546 145.568 61.9558 145.469 61.9558 145.356ZM61.9558 141.121L61.9558 139.71C61.9558 139.597 62.0546 139.498 62.1676 139.498C62.2805 139.498 62.3793 139.597 62.3793 139.71L62.3793 141.121C62.3793 141.234 62.2805 141.333 62.1676 141.333C62.0546 141.333 61.9558 141.234 61.9558 141.121ZM61.9558 136.886L61.9558 135.475C61.9558 135.362 62.0546 135.263 62.1676 135.263C62.2805 135.263 62.3793 135.362 62.3793 135.475L62.3793 136.886C62.3793 136.999 62.2805 137.098 62.1676 137.098C62.0546 137.098 61.9558 136.999 61.9558 136.886ZM61.9558 132.652L61.9558 131.24C61.9558 131.127 62.0546 131.028 62.1676 131.028C62.2805 131.028 62.3793 131.127 62.3793 131.24L62.3793 132.652C62.3793 132.765 62.2805 132.863 62.1676 132.863C62.0546 132.863 61.9558 132.765 61.9558 132.652ZM61.9558 128.417L61.9558 127.005C61.9558 126.893 62.0546 126.794 62.1676 126.794C62.2805 126.794 62.3793 126.893 62.3793 127.005L62.3793 128.417C62.3793 128.53 62.2805 128.629 62.1676 128.629C62.0546 128.629 61.9558 128.53 61.9558 128.417ZM61.9558 124.182L61.9558 122.771C61.9558 122.658 62.0546 122.559 62.1676 122.559C62.2805 122.559 62.3793 122.658 62.3793 122.771L62.3793 124.182C62.3793 124.295 62.2805 124.394 62.1676 124.394C62.0546 124.394 61.9558 124.295 61.9558 124.182ZM61.9558 119.948L61.9558 118.536C61.9558 118.423 62.0546 118.324 62.1676 118.324C62.2805 118.324 62.3793 118.423 62.3793 118.536L62.3793 119.948C62.3793 120.061 62.2805 120.159 62.1676 120.159C62.0546 120.159 61.9558 120.061 61.9558 119.948ZM61.9558 115.713L61.9558 114.301C61.9558 114.188 62.0546 114.09 62.1676 114.09C62.2805 114.09 62.3793 114.188 62.3793 114.301L62.3793 115.713C62.3793 115.826 62.2805 115.925 62.1676 115.925C62.0546 115.925 61.9558 115.826 61.9558 115.713ZM61.9558 111.478L61.9558 110.067C61.9558 109.954 62.0547 109.855 62.1676 109.855C62.2805 109.855 62.3793 109.954 62.3793 110.067L62.3793 111.478C62.3793 111.591 62.2805 111.69 62.1676 111.69C62.0547 111.69 61.9558 111.591 61.9558 111.478ZM61.9558 107.244L61.9558 105.832C61.9558 105.719 62.0547 105.62 62.1676 105.62C62.2805 105.62 62.3793 105.719 62.3793 105.832L62.3793 107.244C62.3793 107.357 62.2805 107.455 62.1676 107.455C62.0547 107.455 61.9558 107.357 61.9558 107.244ZM61.9558 103.009L61.9558 101.597C61.9558 101.484 62.0547 101.386 62.1676 101.386C62.2805 101.386 62.3793 101.484 62.3793 101.597L62.3793 103.009C62.3793 103.122 62.2805 103.221 62.1676 103.221C62.0547 103.221 61.9558 103.122 61.9558 103.009ZM61.9558 98.7742L61.9558 97.3627C61.9558 97.2498 62.0547 97.1509 62.1676 97.1509C62.2805 97.1509 62.3793 97.2498 62.3793 97.3627L62.3793 98.7742C62.3793 98.8872 62.2805 98.986 62.1676 98.986C62.0547 98.986 61.9558 98.8872 61.9558 98.7742ZM61.9558 94.5396L61.9558 93.128C61.9558 93.0151 62.0547 92.9163 62.1676 92.9163C62.2805 92.9163 62.3793 93.0151 62.3793 93.128L62.3793 94.5396C62.3793 94.6525 62.2805 94.7513 62.1676 94.7513C62.0547 94.7513 61.9558 94.6525 61.9558 94.5396ZM61.9558 90.3049L61.9558 88.8933C61.9558 88.7804 62.0547 88.6816 62.1676 88.6816C62.2805 88.6816 62.3793 88.7804 62.3793 88.8933L62.3793 90.3049C62.3793 90.4178 62.2805 90.5166 62.1676 90.5166C62.0547 90.5166 61.9558 90.4178 61.9558 90.3049ZM61.9558 86.0702L61.9558 84.6586C61.9558 84.5457 62.0547 84.4469 62.1676 84.4469C62.2805 84.4469 62.3793 84.5457 62.3793 84.6586L62.3793 86.0702C62.3793 86.1831 62.2805 86.2819 62.1676 86.2819C62.0547 86.2819 61.9558 86.1831 61.9558 86.0702ZM61.9558 81.8355L61.9558 80.4239C61.9558 80.311 62.0547 80.2122 62.1676 80.2122C62.2805 80.2122 62.3793 80.311 62.3793 80.4239L62.3793 81.8355C62.3793 81.9484 62.2805 82.0472 62.1676 82.0472C62.0547 82.0472 61.9558 81.9484 61.9558 81.8355ZM61.9558 77.6008L61.9558 76.1892C61.9558 76.0763 62.0547 75.9775 62.1676 75.9775C62.2805 75.9775 62.3793 76.0763 62.3793 76.1892L62.3793 77.6008C62.3793 77.7137 62.2805 77.8125 62.1676 77.8125C62.0547 77.8125 61.9558 77.7137 61.9558 77.6008ZM61.9558 73.3661L61.9558 71.9545C61.9558 71.8416 62.0547 71.7428 62.1676 71.7428C62.2805 71.7428 62.3793 71.8416 62.3793 71.9545L62.3793 73.3661C62.3793 73.479 62.2805 73.5778 62.1676 73.5778C62.0547 73.5778 61.9558 73.479 61.9558 73.3661ZM61.9558 69.1314L61.9558 67.7199C61.9558 67.6069 62.0547 67.5081 62.1676 67.5081C62.2805 67.5081 62.3793 67.6069 62.3793 67.7199L62.3793 69.1314C62.3793 69.2443 62.2805 69.3432 62.1676 69.3432C62.0547 69.3432 61.9558 69.2443 61.9558 69.1314ZM61.9558 64.8967L61.9558 63.4852C61.9558 63.3722 62.0547 63.2734 62.1676 63.2734C62.2805 63.2734 62.3793 63.3722 62.3793 63.4852L62.3793 64.8967C62.3793 65.0097 62.2805 65.1085 62.1676 65.1085C62.0547 65.1085 61.9558 65.0097 61.9558 64.8967ZM64.2002 62.9064C64.2002 62.7935 64.2991 62.6947 64.412 62.6947L65.8235 62.6947C65.9365 62.6947 66.0353 62.7935 66.0353 62.9064C66.0353 63.0194 65.9365 63.1182 65.8235 63.1182L64.412 63.1182C64.2991 63.1182 64.2002 63.0194 64.2002 62.9064ZM66.1623 169.395C66.1623 169.282 66.2611 169.183 66.374 169.183L67.7855 169.183C67.8985 169.183 67.9973 169.282 67.9973 169.395C67.9973 169.508 67.8985 169.606 67.7855 169.606L66.374 169.606C66.2469 169.606 66.1623 169.508 66.1623 169.395ZM68.4349 62.9064C68.4349 62.7935 68.5337 62.6947 68.6467 62.6947L70.0582 62.6947C70.1712 62.6947 70.27 62.7935 70.27 62.9064C70.27 63.0194 70.1712 63.1182 70.0582 63.1182L68.6467 63.1182C68.5337 63.1182 68.4349 63.0194 68.4349 62.9064ZM70.3969 169.395C70.3969 169.282 70.4957 169.183 70.6087 169.183L72.0202 169.183C72.1332 169.183 72.232 169.282 72.232 169.395C72.232 169.508 72.1332 169.606 72.0202 169.606L70.6087 169.606C70.4816 169.606 70.3969 169.508 70.3969 169.395ZM72.6696 62.9064C72.6696 62.7935 72.7684 62.6947 72.8814 62.6947L74.2929 62.6947C74.4058 62.6947 74.5046 62.7935 74.5046 62.9064C74.5046 63.0194 74.4058 63.1182 74.2929 63.1182L72.8814 63.1182C72.7684 63.1182 72.6696 63.0194 72.6696 62.9064ZM74.6316 169.395C74.6316 169.282 74.7304 169.183 74.8434 169.183L76.2549 169.183C76.3678 169.183 76.4666 169.282 76.4666 169.395C76.4666 169.508 76.3678 169.606 76.2549 169.606L74.8434 169.606C74.7163 169.606 74.6316 169.508 74.6316 169.395ZM76.9043 62.9064C76.9043 62.7935 77.0031 62.6947 77.116 62.6947L78.5276 62.6947C78.6405 62.6947 78.7393 62.7935 78.7393 62.9064C78.7393 63.0194 78.6405 63.1182 78.5276 63.1182L77.116 63.1182C77.0031 63.1182 76.9043 63.0194 76.9043 62.9064ZM78.8663 169.395C78.8663 169.282 78.9651 169.183 79.078 169.183L80.4896 169.183C80.6025 169.183 80.7013 169.282 80.7013 169.395C80.7013 169.508 80.6025 169.606 80.4896 169.606L79.078 169.606C78.951 169.606 78.8663 169.508 78.8663 169.395ZM81.139 62.9064C81.139 62.7935 81.2378 62.6947 81.3507 62.6947L82.7623 62.6947C82.8752 62.6947 82.974 62.7935 82.974 62.9064C82.974 63.0194 82.8752 63.1182 82.7623 63.1182L81.3507 63.1182C81.2378 63.1182 81.139 63.0194 81.139 62.9064ZM83.101 169.395C83.101 169.282 83.1998 169.183 83.3127 169.183L84.7243 169.183C84.8372 169.183 84.936 169.282 84.936 169.395C84.936 169.508 84.8372 169.606 84.7243 169.606L83.3127 169.606C83.1857 169.606 83.101 169.508 83.101 169.395ZM85.3736 62.9064C85.3736 62.7935 85.4725 62.6947 85.5854 62.6947L86.997 62.6947C87.1099 62.6947 87.2087 62.7935 87.2087 62.9064C87.2087 63.0194 87.1099 63.1182 86.997 63.1182L85.5854 63.1182C85.4725 63.1182 85.3736 63.0194 85.3736 62.9064ZM87.3357 169.395C87.3357 169.282 87.4345 169.183 87.5474 169.183L88.959 169.183C89.0719 169.183 89.1707 169.282 89.1707 169.395C89.1707 169.508 89.0719 169.606 88.959 169.606L87.5474 169.606C87.4204 169.606 87.3357 169.508 87.3357 169.395ZM89.6083 62.9064C89.6083 62.7935 89.7072 62.6947 89.8201 62.6947L91.2317 62.6947C91.3446 62.6947 91.4434 62.7935 91.4434 62.9064C91.4434 63.0194 91.3446 63.1182 91.2317 63.1182L89.8201 63.1182C89.7072 63.1182 89.6083 63.0194 89.6083 62.9064ZM91.5704 169.395C91.5704 169.282 91.6692 169.183 91.7821 169.183L93.1937 169.183C93.3066 169.183 93.4054 169.282 93.4054 169.395C93.4054 169.508 93.3066 169.606 93.1937 169.606L91.7821 169.606C91.6551 169.606 91.5704 169.508 91.5704 169.395ZM93.843 62.9064C93.843 62.7935 93.9419 62.6947 94.0548 62.6947L95.4664 62.6947C95.5793 62.6947 95.6781 62.7935 95.6781 62.9064C95.6781 63.0194 95.5793 63.1182 95.4664 63.1182L94.0548 63.1182C93.9419 63.1182 93.843 63.0194 93.843 62.9064ZM95.8051 169.395C95.8051 169.282 95.9039 169.183 96.0168 169.183L97.4284 169.183C97.5413 169.183 97.6401 169.282 97.6401 169.395C97.6401 169.508 97.5413 169.606 97.4284 169.606L96.0168 169.606C95.8898 169.606 95.8051 169.508 95.8051 169.395ZM98.0777 62.9064C98.0777 62.7935 98.1766 62.6947 98.2895 62.6947L99.701 62.6947C99.814 62.6947 99.9128 62.7935 99.9128 62.9064C99.9128 63.0194 99.814 63.1182 99.701 63.1182L98.2895 63.1182C98.1766 63.1182 98.0777 63.0194 98.0777 62.9064ZM100.04 169.395C100.04 169.282 100.139 169.183 100.251 169.183L101.663 169.183C101.776 169.183 101.875 169.282 101.875 169.395C101.875 169.508 101.776 169.606 101.663 169.606L100.251 169.606C100.124 169.606 100.04 169.508 100.04 169.395ZM102.312 62.9064C102.312 62.7935 102.411 62.6947 102.524 62.6947L103.936 62.6947C104.049 62.6947 104.147 62.7935 104.147 62.9064C104.147 63.0194 104.049 63.1182 103.936 63.1182L102.524 63.1182C102.411 63.1182 102.312 63.0194 102.312 62.9064ZM104.274 169.395C104.274 169.282 104.373 169.183 104.486 169.183L105.898 169.183C106.011 169.183 106.109 169.282 106.109 169.395C106.109 169.508 106.011 169.606 105.898 169.606L104.486 169.606C104.359 169.606 104.274 169.508 104.274 169.395ZM106.547 62.9064C106.547 62.7935 106.646 62.6947 106.759 62.6947L108.17 62.6947C108.283 62.6947 108.382 62.7935 108.382 62.9064C108.382 63.0194 108.283 63.1182 108.17 63.1182L106.759 63.1182C106.646 63.1182 106.547 63.0194 106.547 62.9064ZM108.509 169.395C108.509 169.282 108.608 169.183 108.721 169.183L110.132 169.183C110.245 169.183 110.344 169.282 110.344 169.395C110.344 169.508 110.245 169.606 110.132 169.606L108.721 169.606C108.594 169.606 108.509 169.508 108.509 169.395ZM110.782 62.9064C110.782 62.7935 110.881 62.6947 110.994 62.6947L112.405 62.6947C112.518 62.6947 112.617 62.7935 112.617 62.9064C112.617 63.0194 112.518 63.1182 112.405 63.1182L110.994 63.1182C110.881 63.1182 110.782 63.0194 110.782 62.9064ZM112.744 169.395C112.744 169.282 112.843 169.183 112.956 169.183L114.367 169.183C114.48 169.183 114.579 169.282 114.579 169.395C114.579 169.508 114.48 169.606 114.367 169.606L112.956 169.606C112.829 169.606 112.744 169.508 112.744 169.395ZM115.016 62.9064C115.016 62.7935 115.115 62.6947 115.228 62.6947L116.64 62.6947C116.753 62.6947 116.852 62.7935 116.852 62.9064C116.852 63.0194 116.753 63.1182 116.64 63.1182L115.228 63.1182C115.115 63.1182 115.016 63.0194 115.016 62.9064ZM116.979 169.395C116.979 169.282 117.077 169.183 117.19 169.183L118.602 169.183C118.715 169.183 118.814 169.282 118.814 169.395C118.814 169.508 118.715 169.606 118.602 169.606L117.19 169.606C117.063 169.606 116.979 169.508 116.979 169.395ZM119.251 62.9064C119.251 62.7935 119.35 62.6947 119.463 62.6947L120.874 62.6947C120.987 62.6947 121.086 62.7935 121.086 62.9064C121.086 63.0194 120.987 63.1182 120.874 63.1182L119.463 63.1182C119.35 63.1182 119.251 63.0194 119.251 62.9064ZM121.213 169.395C121.213 169.282 121.312 169.183 121.425 169.183L122.836 169.183C122.949 169.183 123.048 169.282 123.048 169.395C123.048 169.508 122.949 169.606 122.836 169.606L121.425 169.606C121.298 169.606 121.213 169.508 121.213 169.395ZM123.486 62.9064C123.486 62.7935 123.585 62.6947 123.698 62.6947L125.109 62.6947C125.222 62.6947 125.321 62.7935 125.321 62.9064C125.321 63.0194 125.222 63.1182 125.109 63.1182L123.698 63.1182C123.585 63.1182 123.486 63.0194 123.486 62.9064ZM125.448 169.395C125.448 169.282 125.547 169.183 125.66 169.183L127.071 169.183C127.184 169.183 127.283 169.282 127.283 169.395C127.283 169.508 127.184 169.606 127.071 169.606L125.66 169.606C125.533 169.606 125.448 169.508 125.448 169.395ZM127.721 62.9064C127.721 62.7935 127.819 62.6947 127.932 62.6947L129.344 62.6947C129.457 62.6947 129.556 62.7935 129.556 62.9064C129.556 63.0194 129.457 63.1182 129.344 63.1182L127.932 63.1182C127.819 63.1182 127.721 63.0194 127.721 62.9064ZM129.683 169.395C129.683 169.282 129.781 169.183 129.894 169.183L131.306 169.183C131.419 169.183 131.518 169.282 131.518 169.395C131.518 169.508 131.419 169.606 131.306 169.606L129.894 169.606C129.767 169.606 129.683 169.508 129.683 169.395ZM131.955 62.9064C131.955 62.7935 132.054 62.6947 132.167 62.6947L133.579 62.6947C133.691 62.6947 133.79 62.7935 133.79 62.9064C133.79 63.0194 133.691 63.1182 133.579 63.1182L132.167 63.1182C132.054 63.1182 131.955 63.0194 131.955 62.9064ZM133.917 169.395C133.917 169.282 134.016 169.183 134.129 169.183L135.541 169.183C135.653 169.183 135.752 169.282 135.752 169.395C135.752 169.508 135.653 169.606 135.541 169.606L134.129 169.606C134.002 169.606 133.917 169.508 133.917 169.395ZM136.19 62.9064C136.19 62.7935 136.289 62.6947 136.402 62.6947L137.813 62.6947C137.926 62.6947 138.025 62.7935 138.025 62.9064C138.025 63.0194 137.926 63.1182 137.813 63.1182L136.402 63.1182C136.289 63.1182 136.19 63.0194 136.19 62.9064ZM138.152 169.395C138.152 169.282 138.251 169.183 138.364 169.183L139.775 169.183C139.888 169.183 139.987 169.282 139.987 169.395C139.987 169.508 139.888 169.606 139.775 169.606L138.364 169.606C138.237 169.606 138.152 169.508 138.152 169.395ZM140.425 62.9064C140.425 62.7935 140.523 62.6947 140.636 62.6947L142.048 62.6947C142.161 62.6947 142.26 62.7935 142.26 62.9064C142.26 63.0194 142.161 63.1182 142.048 63.1182L140.636 63.1182C140.523 63.1182 140.425 63.0194 140.425 62.9064ZM142.387 169.395C142.387 169.282 142.485 169.183 142.598 169.183L144.01 169.183C144.123 169.183 144.222 169.282 144.222 169.395C144.222 169.508 144.123 169.606 144.01 169.606L142.598 169.606C142.471 169.606 142.387 169.508 142.387 169.395ZM144.659 62.9064C144.659 62.7935 144.758 62.6947 144.871 62.6947L146.283 62.6947C146.396 62.6947 146.494 62.7935 146.494 62.9064C146.494 63.0194 146.396 63.1182 146.283 63.1182L144.871 63.1182C144.758 63.1182 144.659 63.0194 144.659 62.9064ZM146.621 169.395C146.621 169.282 146.72 169.183 146.833 169.183L148.245 169.183C148.358 169.183 148.456 169.282 148.456 169.395C148.456 169.508 148.358 169.606 148.245 169.606L146.833 169.606C146.706 169.606 146.621 169.508 146.621 169.395ZM148.894 62.9064C148.894 62.7935 148.993 62.6947 149.106 62.6947L150.517 62.6947C150.63 62.6947 150.729 62.7935 150.729 62.9064C150.729 63.0194 150.63 63.1182 150.517 63.1182L149.106 63.1182C148.993 63.1182 148.894 63.0194 148.894 62.9064ZM150.856 169.395C150.856 169.282 150.955 169.183 151.068 169.183L152.479 169.183C152.592 169.183 152.691 169.282 152.691 169.395C152.691 169.508 152.592 169.606 152.479 169.606L151.068 169.606C150.941 169.606 150.856 169.508 150.856 169.395ZM153.129 62.9064C153.129 62.7935 153.227 62.6947 153.34 62.6947L154.752 62.6947C154.865 62.6947 154.964 62.7935 154.964 62.9064C154.964 63.0194 154.865 63.1182 154.752 63.1182L153.34 63.1182C153.227 63.1182 153.129 63.0194 153.129 62.9064ZM155.091 169.395C155.091 169.282 155.189 169.183 155.302 169.183L156.714 169.183C156.827 169.183 156.926 169.282 156.926 169.395C156.926 169.508 156.827 169.606 156.714 169.606L155.302 169.606C155.175 169.606 155.091 169.508 155.091 169.395ZM157.363 62.9064C157.363 62.7935 157.462 62.6947 157.575 62.6947L158.987 62.6947C159.1 62.6947 159.198 62.7935 159.198 62.9064C159.198 63.0194 159.1 63.1182 158.987 63.1182L157.575 63.1182C157.462 63.1182 157.363 63.0194 157.363 62.9064ZM159.325 169.395C159.325 169.282 159.424 169.183 159.537 169.183L160.949 169.183C161.062 169.183 161.16 169.282 161.16 169.395C161.16 169.508 161.062 169.606 160.949 169.606L159.537 169.606C159.41 169.606 159.325 169.508 159.325 169.395ZM161.598 62.9064C161.598 62.7935 161.697 62.6947 161.81 62.6947L163.221 62.6947C163.334 62.6947 163.433 62.7935 163.433 62.9064C163.433 63.0194 163.334 63.1182 163.221 63.1182L161.81 63.1182C161.697 63.1182 161.598 63.0194 161.598 62.9064ZM163.56 169.395C163.56 169.282 163.659 169.183 163.772 169.183L165.183 169.183C165.296 169.183 165.395 169.282 165.395 169.395C165.395 169.508 165.296 169.606 165.183 169.606L163.772 169.606C163.645 169.606 163.56 169.508 163.56 169.395ZM165.833 62.9064C165.833 62.7935 165.932 62.6947 166.044 62.6947L167.456 62.6947C167.569 62.6947 167.668 62.7935 167.668 62.9064C167.668 63.0194 167.569 63.1182 167.456 63.1182L166.044 63.1182C165.932 63.1182 165.833 63.0194 165.833 62.9064ZM167.795 169.395C167.795 169.282 167.894 169.183 168.006 169.183L169.418 169.183C169.531 169.183 169.63 169.282 169.63 169.395C169.63 169.508 169.531 169.606 169.418 169.606L168.006 169.606C167.879 169.606 167.795 169.508 167.795 169.395ZM170.067 62.9064C170.067 62.7935 170.166 62.6947 170.279 62.6947L171.691 62.6947C171.804 62.6947 171.902 62.7935 171.902 62.9064C171.902 63.0194 171.804 63.1182 171.691 63.1182L170.279 63.1182C170.166 63.1182 170.067 63.0194 170.067 62.9064ZM172.029 169.395C172.029 169.282 172.128 169.183 172.241 169.183L173.653 169.183C173.766 169.183 173.864 169.282 173.864 169.395C173.864 169.508 173.766 169.606 173.653 169.606L172.241 169.606C172.114 169.606 172.029 169.508 172.029 169.395ZM174.302 62.9064C174.302 62.7935 174.401 62.6947 174.514 62.6947L175.925 62.6947C176.038 62.6947 176.137 62.7935 176.137 62.9064C176.137 63.0194 176.038 63.1182 175.925 63.1182L174.514 63.1182C174.401 63.1182 174.302 63.0194 174.302 62.9064ZM176.264 169.395C176.264 169.282 176.363 169.183 176.476 169.183L177.887 169.183C178 169.183 178.099 169.282 178.099 169.395C178.099 169.508 178 169.606 177.887 169.606L176.476 169.606C176.349 169.606 176.264 169.508 176.264 169.395ZM178.537 62.9064C178.537 62.7935 178.636 62.6947 178.749 62.6947L180.16 62.6947C180.273 62.6947 180.372 62.7935 180.372 62.9064C180.372 63.0194 180.273 63.1182 180.16 63.1182L178.749 63.1182C178.636 63.1182 178.537 63.0194 178.537 62.9064ZM180.499 169.395C180.499 169.282 180.598 169.183 180.711 169.183L182.122 169.183C182.235 169.183 182.334 169.282 182.334 169.395C182.334 169.508 182.235 169.606 182.122 169.606L180.711 169.606C180.584 169.606 180.499 169.508 180.499 169.395ZM182.771 62.9064C182.771 62.7935 182.87 62.6947 182.983 62.6947L184.395 62.6947C184.508 62.6947 184.607 62.7935 184.607 62.9064C184.607 63.0194 184.508 63.1182 184.395 63.1182L182.983 63.1182C182.87 63.1182 182.771 63.0194 182.771 62.9064ZM184.734 169.395C184.734 169.282 184.832 169.183 184.945 169.183L186.357 169.183C186.47 169.183 186.569 169.282 186.569 169.395C186.569 169.508 186.47 169.606 186.357 169.606L184.945 169.606C184.818 169.606 184.734 169.508 184.734 169.395ZM187.006 62.9064C187.006 62.7935 187.105 62.6947 187.218 62.6947L188.629 62.6947C188.742 62.6947 188.841 62.7935 188.841 62.9064C188.841 63.0194 188.742 63.1182 188.629 63.1182L187.218 63.1182C187.105 63.1182 187.006 63.0194 187.006 62.9064ZM188.968 169.395C188.968 169.282 189.067 169.183 189.18 169.183L189.759 169.183L189.759 168.774C189.759 168.661 189.857 168.562 189.97 168.562C190.083 168.562 190.182 168.661 190.182 168.774L190.182 169.395C190.182 169.508 190.083 169.606 189.97 169.606L189.18 169.606C189.053 169.606 188.968 169.508 188.968 169.395ZM189.745 165.95L189.745 164.539C189.745 164.426 189.843 164.327 189.956 164.327C190.069 164.327 190.168 164.426 190.168 164.539L190.168 165.95C190.168 166.063 190.069 166.162 189.956 166.162C189.843 166.162 189.745 166.063 189.745 165.95ZM189.745 161.716L189.745 160.304C189.745 160.191 189.843 160.093 189.956 160.093C190.069 160.093 190.168 160.191 190.168 160.304L190.168 161.716C190.168 161.829 190.069 161.928 189.956 161.928C189.843 161.928 189.745 161.829 189.745 161.716ZM189.745 157.481L189.745 156.07C189.745 155.957 189.843 155.858 189.956 155.858C190.069 155.858 190.168 155.957 190.168 156.07L190.168 157.481C190.168 157.594 190.069 157.693 189.956 157.693C189.843 157.693 189.745 157.594 189.745 157.481ZM189.745 153.246L189.745 151.835C189.745 151.722 189.843 151.623 189.956 151.623C190.069 151.623 190.168 151.722 190.168 151.835L190.168 153.246C190.168 153.359 190.069 153.458 189.956 153.458C189.843 153.458 189.745 153.359 189.745 153.246ZM189.745 149.012L189.745 147.6C189.745 147.487 189.843 147.388 189.956 147.388C190.069 147.388 190.168 147.487 190.168 147.6L190.168 149.012C190.168 149.125 190.069 149.223 189.956 149.223C189.843 149.223 189.745 149.125 189.745 149.012ZM189.745 144.777L189.745 143.365C189.745 143.253 189.843 143.154 189.956 143.154C190.069 143.154 190.168 143.253 190.168 143.365L190.168 144.777C190.168 144.89 190.069 144.989 189.956 144.989C189.843 144.989 189.745 144.89 189.745 144.777ZM189.745 140.542L189.745 139.131C189.745 139.018 189.843 138.919 189.956 138.919C190.069 138.919 190.168 139.018 190.168 139.131L190.168 140.542C190.168 140.655 190.069 140.754 189.956 140.754C189.843 140.754 189.745 140.655 189.745 140.542ZM189.745 136.308L189.745 134.896C189.745 134.783 189.843 134.684 189.956 134.684C190.069 134.684 190.168 134.783 190.168 134.896L190.168 136.308C190.168 136.421 190.069 136.519 189.956 136.519C189.843 136.519 189.745 136.421 189.745 136.308ZM189.745 132.073L189.745 130.661C189.745 130.549 189.843 130.45 189.956 130.45C190.069 130.45 190.168 130.549 190.168 130.661L190.168 132.073C190.168 132.186 190.069 132.285 189.956 132.285C189.843 132.285 189.745 132.186 189.745 132.073ZM189.745 127.838L189.745 126.427C189.745 126.314 189.843 126.215 189.956 126.215C190.069 126.215 190.168 126.314 190.168 126.427L190.168 127.838C190.168 127.951 190.069 128.05 189.956 128.05C189.843 128.05 189.745 127.951 189.745 127.838ZM189.745 123.604L189.745 122.192C189.745 122.079 189.843 121.98 189.956 121.98C190.069 121.98 190.168 122.079 190.168 122.192L190.168 123.604C190.168 123.717 190.069 123.815 189.956 123.815C189.843 123.815 189.745 123.717 189.745 123.604ZM189.745 119.369L189.745 117.957C189.745 117.844 189.843 117.746 189.956 117.746C190.069 117.746 190.168 117.844 190.168 117.957L190.168 119.369C190.168 119.482 190.069 119.581 189.956 119.581C189.843 119.581 189.745 119.482 189.745 119.369ZM189.745 115.134L189.745 113.723C189.745 113.61 189.843 113.511 189.956 113.511C190.069 113.511 190.168 113.61 190.168 113.723L190.168 115.134C190.168 115.247 190.069 115.346 189.956 115.346C189.843 115.346 189.745 115.247 189.745 115.134ZM189.745 110.9L189.745 109.488C189.745 109.375 189.843 109.276 189.956 109.276C190.069 109.276 190.168 109.375 190.168 109.488L190.168 110.9C190.168 111.012 190.069 111.111 189.956 111.111C189.843 111.111 189.745 111.012 189.745 110.9ZM189.745 106.665L189.745 105.253C189.745 105.14 189.843 105.042 189.956 105.042C190.069 105.042 190.168 105.14 190.168 105.253L190.168 106.665C190.168 106.778 190.069 106.877 189.956 106.877C189.843 106.877 189.745 106.778 189.745 106.665ZM189.745 102.43L189.745 101.019C189.745 100.906 189.843 100.807 189.956 100.807C190.069 100.807 190.168 100.906 190.168 101.019L190.168 102.43C190.168 102.543 190.069 102.642 189.956 102.642C189.843 102.642 189.745 102.543 189.745 102.43ZM189.745 98.1955L189.745 96.7839C189.745 96.671 189.843 96.5722 189.956 96.5722C190.069 96.5722 190.168 96.671 190.168 96.7839L190.168 98.1955C190.168 98.3084 190.069 98.4072 189.956 98.4072C189.843 98.4072 189.745 98.3084 189.745 98.1955ZM189.745 93.9608L189.745 92.5493C189.745 92.4363 189.843 92.3375 189.956 92.3375C190.069 92.3375 190.168 92.4363 190.168 92.5493L190.168 93.9608C190.168 94.0737 190.069 94.1726 189.956 94.1726C189.843 94.1726 189.745 94.0737 189.745 93.9608ZM189.745 89.7261L189.745 88.3146C189.745 88.2016 189.843 88.1028 189.956 88.1028C190.069 88.1028 190.168 88.2016 190.168 88.3146L190.168 89.7261C190.168 89.8391 190.069 89.9379 189.956 89.9379C189.843 89.9379 189.745 89.8391 189.745 89.7261ZM189.745 85.4914L189.745 84.0799C189.745 83.967 189.843 83.8681 189.956 83.8681C190.069 83.8681 190.168 83.967 190.168 84.0799L190.168 85.4914C190.168 85.6044 190.069 85.7032 189.956 85.7032C189.843 85.7032 189.745 85.6044 189.745 85.4914ZM189.745 81.2568L189.745 79.8452C189.745 79.7323 189.843 79.6335 189.956 79.6335C190.069 79.6335 190.168 79.7323 190.168 79.8452L190.168 81.2568C190.168 81.3697 190.069 81.4685 189.956 81.4685C189.843 81.4685 189.745 81.3697 189.745 81.2568ZM189.745 77.0221L189.745 75.6105C189.745 75.4976 189.843 75.3988 189.956 75.3988C190.069 75.3988 190.168 75.4976 190.168 75.6105L190.168 77.0221C190.168 77.135 190.069 77.2338 189.956 77.2338C189.843 77.2338 189.745 77.135 189.745 77.0221ZM189.745 72.7874L189.745 71.3758C189.745 71.2629 189.843 71.1641 189.956 71.1641C190.069 71.1641 190.168 71.2629 190.168 71.3758L190.168 72.7874C190.168 72.9003 190.069 72.9991 189.956 72.9991C189.843 72.9991 189.745 72.9003 189.745 72.7874ZM189.745 68.5527L189.745 67.1411C189.745 67.0282 189.843 66.9294 189.956 66.9294C190.069 66.9294 190.168 67.0282 190.168 67.1411L190.168 68.5527C190.168 68.6656 190.069 68.7644 189.956 68.7644C189.843 68.7644 189.745 68.6656 189.745 68.5527ZM189.745 64.318L189.745 62.9064C189.745 62.7935 189.843 62.6947 189.956 62.6947C190.069 62.6947 190.168 62.7935 190.168 62.9064L190.168 64.318C190.168 64.4309 190.069 64.5297 189.956 64.5297C189.843 64.5297 189.745 64.4309 189.745 64.318Z" fill="white"/>
<path d="M313.299 105.493L313.299 105.211C313.299 105.098 313.397 104.999 313.51 104.999C313.623 104.999 313.722 105.098 313.722 105.211L313.722 105.281L314.64 105.281C314.753 105.281 314.851 105.38 314.851 105.493C314.851 105.606 314.753 105.705 314.64 105.705L313.51 105.705C313.397 105.705 313.299 105.62 313.299 105.493ZM313.299 102.388L313.299 100.976C313.299 100.863 313.397 100.764 313.51 100.764C313.623 100.764 313.722 100.863 313.722 100.976L313.722 102.388C313.722 102.501 313.623 102.6 313.51 102.6C313.397 102.6 313.299 102.501 313.299 102.388ZM313.299 98.1531L313.299 96.7415C313.299 96.6286 313.397 96.5298 313.51 96.5298C313.623 96.5298 313.722 96.6286 313.722 96.7415L313.722 98.1531C313.722 98.266 313.623 98.3648 313.51 98.3648C313.397 98.3648 313.299 98.266 313.299 98.1531ZM313.299 93.9184L313.299 92.5069C313.299 92.3939 313.397 92.2951 313.51 92.2951C313.623 92.2951 313.722 92.3939 313.722 92.5069L313.722 93.9184C313.722 94.0313 313.623 94.1301 313.51 94.1301C313.397 94.1301 313.299 94.0313 313.299 93.9184ZM313.299 89.6837L313.299 88.2722C313.299 88.1592 313.397 88.0604 313.51 88.0604C313.623 88.0604 313.722 88.1592 313.722 88.2722L313.722 89.6837C313.722 89.7967 313.623 89.8955 313.51 89.8955C313.397 89.8955 313.299 89.7967 313.299 89.6837ZM313.299 85.449L313.299 84.0375C313.299 83.9246 313.397 83.8257 313.51 83.8257C313.623 83.8257 313.722 83.9246 313.722 84.0375L313.722 85.449C313.722 85.562 313.623 85.6608 313.51 85.6608C313.397 85.6608 313.299 85.562 313.299 85.449ZM313.299 81.2144L313.299 79.8028C313.299 79.6899 313.397 79.5911 313.51 79.5911C313.623 79.5911 313.722 79.6899 313.722 79.8028L313.722 81.2144C313.722 81.3273 313.623 81.4261 313.51 81.4261C313.397 81.4261 313.299 81.3273 313.299 81.2144ZM313.299 76.9797L313.299 75.5681C313.299 75.4552 313.397 75.3564 313.51 75.3564C313.623 75.3564 313.722 75.4552 313.722 75.5681L313.722 76.9797C313.722 77.0926 313.623 77.1914 313.51 77.1914C313.397 77.1914 313.299 77.0926 313.299 76.9797ZM313.299 72.745L313.299 71.3334C313.299 71.2205 313.397 71.1217 313.51 71.1217C313.623 71.1217 313.722 71.2205 313.722 71.3334L313.722 72.745C313.722 72.8579 313.623 72.9567 313.51 72.9567C313.397 72.9567 313.299 72.8579 313.299 72.745ZM313.299 68.5103L313.299 67.0987C313.299 66.9858 313.397 66.887 313.51 66.887C313.623 66.887 313.722 66.9858 313.722 67.0987L313.722 68.5103C313.722 68.6232 313.623 68.722 313.51 68.722C313.397 68.722 313.299 68.6232 313.299 68.5103ZM313.299 64.2756L313.299 62.864C313.299 62.7511 313.397 62.6523 313.51 62.6523C313.623 62.6523 313.722 62.7511 313.722 62.864L313.722 64.2756C313.722 64.3885 313.623 64.4873 313.51 64.4873C313.397 64.4873 313.299 64.3885 313.299 64.2756ZM313.299 60.0409L313.299 58.6294C313.299 58.5164 313.397 58.4176 313.51 58.4176C313.623 58.4176 313.722 58.5164 313.722 58.6294L313.722 60.0409C313.722 60.1538 313.623 60.2526 313.51 60.2526C313.397 60.2526 313.299 60.1538 313.299 60.0409ZM313.299 55.8062L313.299 54.3947C313.299 54.2817 313.397 54.1829 313.51 54.1829C313.623 54.1829 313.722 54.2817 313.722 54.3947L313.722 55.8062C313.722 55.9192 313.623 56.018 313.51 56.018C313.397 56.018 313.299 55.9192 313.299 55.8062ZM313.299 51.5715L313.299 50.16C313.299 50.047 313.397 49.9482 313.51 49.9482C313.623 49.9482 313.722 50.047 313.722 50.16L313.722 51.5715C313.722 51.6845 313.623 51.7833 313.51 51.7833C313.397 51.7833 313.299 51.6845 313.299 51.5715ZM313.299 47.3369L313.299 45.9253C313.299 45.8124 313.397 45.7136 313.51 45.7136C313.623 45.7136 313.722 45.8124 313.722 45.9253L313.722 47.3369C313.722 47.4498 313.623 47.5486 313.51 47.5486C313.397 47.5486 313.299 47.4498 313.299 47.3369ZM313.299 43.1022L313.299 41.6906C313.299 41.5777 313.397 41.4789 313.51 41.4789C313.623 41.4789 313.722 41.5777 313.722 41.6906L313.722 43.1022C313.722 43.2151 313.623 43.3139 313.51 43.3139C313.397 43.3139 313.299 43.2151 313.299 43.1022ZM313.299 38.8675L313.299 37.4559C313.299 37.343 313.397 37.2442 313.51 37.2442C313.623 37.2442 313.722 37.343 313.722 37.4559L313.722 38.8675C313.722 38.9804 313.623 39.0792 313.51 39.0792C313.397 39.0792 313.299 38.9804 313.299 38.8675ZM313.299 34.6328L313.299 33.2212C313.299 33.1083 313.397 33.0095 313.51 33.0095C313.623 33.0095 313.722 33.1083 313.722 33.2212L313.722 34.6328C313.722 34.7457 313.623 34.8445 313.51 34.8445C313.397 34.8445 313.299 34.7457 313.299 34.6328ZM313.299 30.3981L313.299 28.9865C313.299 28.8736 313.397 28.7748 313.51 28.7748C313.623 28.7748 313.722 28.8736 313.722 28.9865L313.722 30.3981C313.722 30.511 313.623 30.6098 313.51 30.6098C313.397 30.6098 313.299 30.511 313.299 30.3981ZM313.299 26.1634L313.299 24.7518C313.299 24.6389 313.397 24.5401 313.51 24.5401C313.623 24.5401 313.722 24.6389 313.722 24.7518L313.722 26.1634C313.722 26.2763 313.623 26.3751 313.51 26.3751C313.397 26.3751 313.299 26.2763 313.299 26.1634ZM313.299 21.9287L313.299 20.5172C313.299 20.4042 313.397 20.3054 313.51 20.3054C313.623 20.3054 313.722 20.4042 313.722 20.5172L313.722 21.9287C313.722 22.0416 313.623 22.1404 313.51 22.1404C313.397 22.1404 313.299 22.0416 313.299 21.9287ZM315.91 20.3054C315.91 20.1925 316.009 20.0937 316.122 20.0937L317.533 20.0937C317.646 20.0937 317.745 20.1925 317.745 20.3054C317.745 20.4183 317.646 20.5172 317.533 20.5172L316.122 20.5172C316.009 20.5172 315.91 20.4183 315.91 20.3054ZM317.251 105.493C317.251 105.38 317.35 105.281 317.463 105.281L318.874 105.281C318.987 105.281 319.086 105.38 319.086 105.493C319.086 105.606 318.987 105.705 318.874 105.705L317.463 105.705C317.35 105.705 317.251 105.62 317.251 105.493ZM320.145 20.3054C320.145 20.1925 320.244 20.0937 320.356 20.0937L321.768 20.0937C321.881 20.0937 321.98 20.1925 321.98 20.3054C321.98 20.4183 321.881 20.5172 321.768 20.5172L320.356 20.5172C320.244 20.5172 320.145 20.4183 320.145 20.3054ZM321.486 105.493C321.486 105.38 321.585 105.281 321.697 105.281L323.109 105.281C323.222 105.281 323.321 105.38 323.321 105.493C323.321 105.606 323.222 105.705 323.109 105.705L321.697 105.705C321.585 105.705 321.486 105.62 321.486 105.493ZM324.379 20.3054C324.379 20.1925 324.478 20.0937 324.591 20.0937L326.003 20.0937C326.116 20.0937 326.214 20.1925 326.214 20.3054C326.214 20.4183 326.116 20.5172 326.003 20.5172L324.591 20.5172C324.478 20.5172 324.379 20.4183 324.379 20.3054ZM325.72 105.493C325.72 105.38 325.819 105.281 325.932 105.281L327.344 105.281C327.457 105.281 327.555 105.38 327.555 105.493C327.555 105.606 327.457 105.705 327.344 105.705L325.932 105.705C325.819 105.705 325.72 105.62 325.72 105.493ZM328.614 20.3054C328.614 20.1925 328.713 20.0937 328.826 20.0937L330.237 20.0937C330.35 20.0937 330.449 20.1925 330.449 20.3054C330.449 20.4184 330.35 20.5172 330.237 20.5172L328.826 20.5172C328.713 20.5172 328.614 20.4184 328.614 20.3054ZM329.955 105.493C329.955 105.38 330.054 105.281 330.167 105.281L331.578 105.281C331.691 105.281 331.79 105.38 331.79 105.493C331.79 105.606 331.691 105.705 331.578 105.705L330.167 105.705C330.054 105.705 329.955 105.62 329.955 105.493ZM332.849 20.3054C332.849 20.1925 332.948 20.0937 333.061 20.0937L334.472 20.0937C334.585 20.0937 334.684 20.1925 334.684 20.3054C334.684 20.4184 334.585 20.5172 334.472 20.5172L333.061 20.5172C332.948 20.5172 332.849 20.4184 332.849 20.3054ZM334.19 105.493C334.19 105.38 334.289 105.281 334.401 105.281L335.813 105.281C335.926 105.281 336.025 105.38 336.025 105.493C336.025 105.606 335.926 105.705 335.813 105.705L334.401 105.705C334.289 105.705 334.19 105.62 334.19 105.493ZM337.084 20.3054C337.084 20.1925 337.182 20.0937 337.295 20.0937L338.707 20.0937C338.82 20.0937 338.919 20.1925 338.919 20.3054C338.919 20.4184 338.82 20.5172 338.707 20.5172L337.295 20.5172C337.182 20.5172 337.084 20.4184 337.084 20.3054ZM338.424 105.493C338.424 105.38 338.523 105.281 338.636 105.281L340.048 105.281C340.161 105.281 340.259 105.38 340.259 105.493C340.259 105.606 340.161 105.705 340.048 105.705L338.636 105.705C338.523 105.705 338.424 105.62 338.424 105.493ZM341.318 20.3054C341.318 20.1925 341.417 20.0937 341.53 20.0937L342.941 20.0937C343.054 20.0937 343.153 20.1925 343.153 20.3054C343.153 20.4184 343.054 20.5172 342.941 20.5172L341.53 20.5172C341.417 20.5172 341.318 20.4184 341.318 20.3054ZM342.659 105.493C342.659 105.38 342.758 105.281 342.871 105.281L344.282 105.281C344.395 105.281 344.494 105.38 344.494 105.493C344.494 105.606 344.395 105.705 344.282 105.705L342.871 105.705C342.758 105.705 342.659 105.62 342.659 105.493ZM345.553 20.3054C345.553 20.1925 345.652 20.0937 345.765 20.0937L347.176 20.0937C347.289 20.0937 347.388 20.1925 347.388 20.3054C347.388 20.4184 347.289 20.5172 347.176 20.5172L345.765 20.5172C345.652 20.5172 345.553 20.4184 345.553 20.3054ZM346.894 105.493C346.894 105.38 346.993 105.281 347.106 105.281L348.517 105.281C348.63 105.281 348.729 105.38 348.729 105.493C348.729 105.606 348.63 105.705 348.517 105.705L347.106 105.705C346.993 105.705 346.894 105.62 346.894 105.493ZM349.788 20.3054C349.788 20.1925 349.886 20.0937 349.999 20.0937L351.411 20.0937C351.524 20.0937 351.623 20.1925 351.623 20.3054C351.623 20.4184 351.524 20.5172 351.411 20.5172L349.999 20.5172C349.886 20.5172 349.788 20.4184 349.788 20.3054ZM351.129 105.493C351.129 105.38 351.227 105.281 351.34 105.281L352.752 105.281C352.865 105.281 352.964 105.38 352.964 105.493C352.964 105.606 352.865 105.705 352.752 105.705L351.34 105.705C351.227 105.705 351.129 105.62 351.129 105.493ZM354.022 20.3054C354.022 20.1925 354.121 20.0937 354.234 20.0937L355.646 20.0937C355.758 20.0937 355.857 20.1925 355.857 20.3054C355.857 20.4184 355.758 20.5172 355.646 20.5172L354.234 20.5172C354.121 20.5172 354.022 20.4184 354.022 20.3054ZM355.363 105.493C355.363 105.38 355.462 105.281 355.575 105.281L356.986 105.281C357.099 105.281 357.198 105.38 357.198 105.493C357.198 105.606 357.099 105.705 356.986 105.705L355.575 105.705C355.462 105.705 355.363 105.62 355.363 105.493ZM358.257 20.3054C358.257 20.1925 358.356 20.0937 358.469 20.0937L359.88 20.0937C359.993 20.0937 360.092 20.1925 360.092 20.3054C360.092 20.4184 359.993 20.5172 359.88 20.5172L358.469 20.5172C358.356 20.5172 358.257 20.4184 358.257 20.3054ZM359.598 105.493C359.598 105.38 359.697 105.281 359.81 105.281L361.221 105.281C361.334 105.281 361.433 105.38 361.433 105.493C361.433 105.606 361.334 105.705 361.221 105.705L359.81 105.705C359.697 105.705 359.598 105.62 359.598 105.493ZM362.492 20.3054C362.492 20.1925 362.59 20.0937 362.703 20.0937L364.115 20.0937C364.228 20.0937 364.327 20.1925 364.327 20.3054C364.327 20.4184 364.228 20.5172 364.115 20.5172L362.703 20.5172C362.59 20.5172 362.492 20.4184 362.492 20.3054ZM363.833 105.493C363.833 105.38 363.931 105.281 364.044 105.281L365.456 105.281C365.569 105.281 365.668 105.38 365.668 105.493C365.668 105.606 365.569 105.705 365.456 105.705L364.044 105.705C363.931 105.705 363.833 105.62 363.833 105.493ZM366.726 20.3054C366.726 20.1925 366.825 20.0937 366.938 20.0937L368.35 20.0937C368.463 20.0937 368.561 20.1925 368.561 20.3054C368.561 20.4184 368.463 20.5172 368.35 20.5172L366.938 20.5172C366.825 20.5172 366.726 20.4184 366.726 20.3054ZM368.067 105.493C368.067 105.38 368.166 105.281 368.279 105.281L369.691 105.281C369.803 105.281 369.902 105.38 369.902 105.493C369.902 105.606 369.803 105.705 369.691 105.705L368.279 105.705C368.166 105.705 368.067 105.62 368.067 105.493ZM370.961 20.3054C370.961 20.1925 371.06 20.0937 371.173 20.0937L372.584 20.0937C372.697 20.0937 372.796 20.1925 372.796 20.3054C372.796 20.4184 372.697 20.5172 372.584 20.5172L371.173 20.5172C371.06 20.5172 370.961 20.4184 370.961 20.3054ZM372.302 105.493C372.302 105.38 372.401 105.281 372.514 105.281L373.925 105.281C374.038 105.281 374.137 105.38 374.137 105.493C374.137 105.606 374.038 105.705 373.925 105.705L372.514 105.705C372.401 105.705 372.302 105.62 372.302 105.493ZM375.196 20.3054C375.196 20.1925 375.295 20.0937 375.407 20.0937L376.819 20.0937C376.932 20.0937 377.031 20.1925 377.031 20.3054C377.031 20.4184 376.932 20.5172 376.819 20.5172L375.407 20.5172C375.295 20.5172 375.196 20.4184 375.196 20.3054ZM376.537 105.493C376.537 105.38 376.635 105.281 376.748 105.281L378.16 105.281C378.273 105.281 378.372 105.38 378.372 105.493C378.372 105.606 378.273 105.705 378.16 105.705L376.748 105.705C376.635 105.705 376.537 105.62 376.537 105.493ZM379.43 20.3054C379.43 20.1925 379.529 20.0937 379.642 20.0937L381.054 20.0937C381.167 20.0937 381.265 20.1925 381.265 20.3054C381.265 20.4184 381.167 20.5172 381.054 20.5172L379.642 20.5172C379.529 20.5172 379.43 20.4184 379.43 20.3054ZM380.771 105.493C380.771 105.38 380.87 105.281 380.983 105.281L382.395 105.281C382.508 105.281 382.606 105.38 382.606 105.493C382.606 105.606 382.508 105.705 382.395 105.705L380.983 105.705C380.87 105.705 380.771 105.62 380.771 105.493ZM383.665 20.3054C383.665 20.1925 383.764 20.0937 383.877 20.0937L385.288 20.0937C385.401 20.0937 385.5 20.1925 385.5 20.3054C385.5 20.4184 385.401 20.5172 385.288 20.5172L383.877 20.5172C383.764 20.5172 383.665 20.4184 383.665 20.3054ZM385.006 105.493C385.006 105.38 385.105 105.281 385.218 105.281L386.629 105.281C386.742 105.281 386.841 105.38 386.841 105.493C386.841 105.606 386.742 105.705 386.629 105.705L385.218 105.705C385.105 105.705 385.006 105.62 385.006 105.493ZM387.9 20.3054C387.9 20.1925 387.999 20.0937 388.111 20.0937L389.523 20.0937C389.636 20.0937 389.735 20.1925 389.735 20.3054C389.735 20.4184 389.636 20.5172 389.523 20.5172L388.111 20.5172C387.999 20.5172 387.9 20.4184 387.9 20.3054ZM389.241 105.493C389.241 105.38 389.34 105.281 389.452 105.281L390.864 105.281C390.977 105.281 391.076 105.38 391.076 105.493C391.076 105.606 390.977 105.705 390.864 105.705L389.452 105.705C389.34 105.705 389.241 105.62 389.241 105.493ZM392.134 20.3054C392.134 20.1925 392.233 20.0937 392.346 20.0937L393.758 20.0937C393.871 20.0937 393.969 20.1925 393.969 20.3054C393.969 20.4184 393.871 20.5172 393.758 20.5172L392.346 20.5172C392.233 20.5172 392.134 20.4184 392.134 20.3054ZM393.475 105.493C393.475 105.38 393.574 105.281 393.687 105.281L395.099 105.281C395.212 105.281 395.31 105.38 395.31 105.493C395.31 105.606 395.212 105.705 395.099 105.705L393.687 105.705C393.574 105.705 393.475 105.62 393.475 105.493ZM396.369 20.3054C396.369 20.1925 396.468 20.0937 396.581 20.0937L397.992 20.0937C398.105 20.0937 398.204 20.1925 398.204 20.3054C398.204 20.4184 398.105 20.5172 397.992 20.5172L396.581 20.5172C396.468 20.5172 396.369 20.4184 396.369 20.3054ZM397.71 105.493C397.71 105.38 397.809 105.281 397.922 105.281L399.333 105.281C399.446 105.281 399.545 105.38 399.545 105.493C399.545 105.606 399.446 105.705 399.333 105.705L397.922 105.705C397.809 105.705 397.71 105.62 397.71 105.493ZM400.604 20.3054C400.604 20.1925 400.703 20.0937 400.816 20.0937L402.227 20.0937C402.34 20.0937 402.439 20.1925 402.439 20.3054C402.439 20.4184 402.34 20.5172 402.227 20.5172L400.816 20.5172C400.703 20.5172 400.604 20.4184 400.604 20.3054ZM401.945 105.493C401.945 105.38 402.044 105.281 402.156 105.281L403.568 105.281C403.681 105.281 403.78 105.38 403.78 105.493C403.78 105.606 403.681 105.705 403.568 105.705L402.156 105.705C402.044 105.705 401.945 105.62 401.945 105.493ZM404.839 20.3054C404.839 20.1925 404.937 20.0937 405.05 20.0937L406.462 20.0937C406.575 20.0937 406.674 20.1925 406.674 20.3054C406.674 20.4184 406.575 20.5172 406.462 20.5172L405.05 20.5172C404.937 20.5172 404.839 20.4184 404.839 20.3054ZM406.179 105.493C406.179 105.38 406.278 105.281 406.391 105.281L407.803 105.281C407.916 105.281 408.014 105.38 408.014 105.493C408.014 105.606 407.916 105.705 407.803 105.705L406.391 105.705C406.278 105.705 406.179 105.62 406.179 105.493ZM409.073 20.3054C409.073 20.1925 409.172 20.0937 409.285 20.0937L410.696 20.0937C410.809 20.0937 410.908 20.1925 410.908 20.3054C410.908 20.4184 410.809 20.5172 410.696 20.5172L409.285 20.5172C409.172 20.5172 409.073 20.4184 409.073 20.3054ZM410.414 105.493C410.414 105.38 410.513 105.281 410.626 105.281L412.037 105.281C412.15 105.281 412.249 105.38 412.249 105.493C412.249 105.606 412.15 105.705 412.037 105.705L410.626 105.705C410.513 105.705 410.414 105.62 410.414 105.493ZM413.308 20.3054C413.308 20.1925 413.407 20.0937 413.52 20.0937L414.931 20.0937C415.044 20.0937 415.143 20.1925 415.143 20.3054C415.143 20.4184 415.044 20.5172 414.931 20.5172L413.52 20.5172C413.407 20.5172 413.308 20.4184 413.308 20.3054ZM414.649 105.493C414.649 105.38 414.748 105.281 414.861 105.281L416.272 105.281C416.385 105.281 416.484 105.38 416.484 105.493C416.484 105.606 416.385 105.705 416.272 105.705L414.861 105.705C414.748 105.705 414.649 105.62 414.649 105.493ZM417.543 20.3054C417.543 20.1925 417.641 20.0937 417.754 20.0937L419.166 20.0937C419.279 20.0937 419.378 20.1925 419.378 20.3054C419.378 20.4184 419.279 20.5172 419.166 20.5172L417.754 20.5172C417.641 20.5172 417.543 20.4184 417.543 20.3054ZM418.884 105.493C418.884 105.38 418.982 105.281 419.095 105.281L420.507 105.281C420.62 105.281 420.719 105.38 420.719 105.493C420.719 105.606 420.62 105.705 420.507 105.705L419.095 105.705C418.982 105.705 418.884 105.62 418.884 105.493ZM421.777 20.3054C421.777 20.1925 421.876 20.0937 421.989 20.0937L423.401 20.0937C423.513 20.0937 423.612 20.1925 423.612 20.3054C423.612 20.4184 423.513 20.5172 423.401 20.5172L421.989 20.5172C421.876 20.5172 421.777 20.4184 421.777 20.3054ZM423.118 105.493C423.118 105.38 423.217 105.281 423.33 105.281L424.036 105.281L424.036 104.999C424.036 104.886 424.135 104.787 424.247 104.787C424.36 104.787 424.459 104.886 424.459 104.999L424.459 105.493C424.459 105.606 424.36 105.705 424.247 105.705L423.33 105.705C423.217 105.705 423.118 105.62 423.118 105.493ZM424.036 102.176L424.036 100.764C424.036 100.652 424.135 100.553 424.247 100.553C424.36 100.553 424.459 100.652 424.459 100.764L424.459 102.176C424.459 102.289 424.36 102.388 424.247 102.388C424.12 102.388 424.036 102.289 424.036 102.176ZM424.036 97.9414L424.036 96.5298C424.036 96.4169 424.135 96.3181 424.247 96.3181C424.36 96.3181 424.459 96.4169 424.459 96.5298L424.459 97.9414C424.459 98.0543 424.36 98.1531 424.247 98.1531C424.12 98.1531 424.036 98.0543 424.036 97.9414ZM424.036 93.7067L424.036 92.2951C424.036 92.1822 424.135 92.0834 424.247 92.0834C424.36 92.0834 424.459 92.1822 424.459 92.2951L424.459 93.7067C424.459 93.8196 424.36 93.9184 424.247 93.9184C424.12 93.9184 424.036 93.8196 424.036 93.7067ZM424.036 89.472L424.036 88.0604C424.036 87.9475 424.135 87.8487 424.247 87.8487C424.36 87.8487 424.459 87.9475 424.459 88.0604L424.459 89.472C424.459 89.5849 424.36 89.6837 424.247 89.6837C424.12 89.6837 424.036 89.5849 424.036 89.472ZM424.036 85.2373L424.036 83.8257C424.036 83.7128 424.135 83.614 424.247 83.614C424.36 83.614 424.459 83.7128 424.459 83.8257L424.459 85.2373C424.459 85.3502 424.36 85.449 424.247 85.449C424.12 85.449 424.036 85.3502 424.036 85.2373ZM424.036 81.0026L424.036 79.5911C424.036 79.4781 424.135 79.3793 424.247 79.3793C424.36 79.3793 424.459 79.4781 424.459 79.5911L424.459 81.0026C424.459 81.1155 424.36 81.2144 424.247 81.2144C424.12 81.2144 424.036 81.1155 424.036 81.0026ZM424.036 76.7679L424.036 75.3564C424.036 75.2434 424.135 75.1446 424.247 75.1446C424.36 75.1446 424.459 75.2434 424.459 75.3564L424.459 76.7679C424.459 76.8809 424.36 76.9797 424.247 76.9797C424.12 76.9797 424.036 76.8809 424.036 76.7679ZM424.036 72.5332L424.036 71.1217C424.036 71.0088 424.135 70.9099 424.247 70.9099C424.36 70.9099 424.459 71.0088 424.459 71.1217L424.459 72.5332C424.459 72.6462 424.36 72.745 424.247 72.745C424.12 72.745 424.036 72.6462 424.036 72.5332ZM424.036 68.2986L424.036 66.887C424.036 66.7741 424.135 66.6753 424.247 66.6753C424.36 66.6753 424.459 66.7741 424.459 66.887L424.459 68.2986C424.459 68.4115 424.36 68.5103 424.247 68.5103C424.12 68.5103 424.036 68.4115 424.036 68.2986ZM424.036 64.0639L424.036 62.6523C424.036 62.5394 424.135 62.4406 424.247 62.4406C424.36 62.4406 424.459 62.5394 424.459 62.6523L424.459 64.0639C424.459 64.1768 424.36 64.2756 424.247 64.2756C424.12 64.2756 424.036 64.1768 424.036 64.0639ZM424.036 59.8292L424.036 58.4176C424.036 58.3047 424.135 58.2059 424.247 58.2059C424.36 58.2059 424.459 58.3047 424.459 58.4176L424.459 59.8292C424.459 59.9421 424.36 60.0409 424.247 60.0409C424.12 60.0409 424.036 59.9421 424.036 59.8292ZM424.036 55.5945L424.036 54.1829C424.036 54.07 424.135 53.9712 424.247 53.9712C424.36 53.9712 424.459 54.07 424.459 54.1829L424.459 55.5945C424.459 55.7074 424.36 55.8062 424.247 55.8062C424.12 55.8062 424.036 55.7074 424.036 55.5945ZM424.036 51.3598L424.036 49.9482C424.036 49.8353 424.135 49.7365 424.247 49.7365C424.36 49.7365 424.459 49.8353 424.459 49.9482L424.459 51.3598C424.459 51.4727 424.36 51.5715 424.247 51.5715C424.12 51.5715 424.036 51.4727 424.036 51.3598ZM424.036 47.1251L424.036 45.7136C424.036 45.6006 424.135 45.5018 424.247 45.5018C424.36 45.5018 424.459 45.6006 424.459 45.7136L424.459 47.1251C424.459 47.238 424.36 47.3369 424.247 47.3369C424.12 47.3369 424.036 47.238 424.036 47.1251ZM424.036 42.8904L424.036 41.4789C424.036 41.3659 424.135 41.2671 424.247 41.2671C424.36 41.2671 424.459 41.3659 424.459 41.4789L424.459 42.8904C424.459 43.0034 424.36 43.1022 424.247 43.1022C424.12 43.1022 424.036 43.0034 424.036 42.8904ZM424.036 38.6557L424.036 37.2442C424.036 37.1313 424.135 37.0324 424.247 37.0324C424.36 37.0324 424.459 37.1313 424.459 37.2442L424.459 38.6557C424.459 38.7687 424.36 38.8675 424.247 38.8675C424.12 38.8675 424.036 38.7687 424.036 38.6557ZM424.036 34.4211L424.036 33.0095C424.036 32.8966 424.135 32.7978 424.247 32.7978C424.36 32.7978 424.459 32.8966 424.459 33.0095L424.459 34.4211C424.459 34.534 424.36 34.6328 424.247 34.6328C424.12 34.6328 424.036 34.534 424.036 34.4211ZM424.036 30.1864L424.036 28.7748C424.036 28.6619 424.135 28.5631 424.247 28.5631C424.36 28.5631 424.459 28.6619 424.459 28.7748L424.459 30.1864C424.459 30.2993 424.36 30.3981 424.247 30.3981C424.12 30.3981 424.036 30.2993 424.036 30.1864ZM424.036 25.9517L424.036 24.5401C424.036 24.4272 424.135 24.3284 424.247 24.3284C424.36 24.3284 424.459 24.4272 424.459 24.5401L424.459 25.9517C424.459 26.0646 424.36 26.1634 424.247 26.1634C424.12 26.1634 424.036 26.0646 424.036 25.9517ZM424.036 21.717L424.036 20.3054C424.036 20.1925 424.135 20.0937 424.247 20.0937C424.36 20.0937 424.459 20.1925 424.459 20.3054L424.459 21.717C424.459 21.8299 424.36 21.9287 424.247 21.9287C424.12 21.9287 424.036 21.8299 424.036 21.717Z" fill="white"/>
<path d="M318.818 99.8469L318.818 25.9516C318.818 25.754 318.973 25.5988 319.171 25.5988L420.013 25.5988C420.21 25.5988 420.366 25.754 420.366 25.9516L420.366 99.8469C420.366 100.045 420.21 100.2 420.013 100.2L319.171 100.2C318.973 100.2 318.818 100.045 318.818 99.8469ZM319.524 26.3045L319.524 99.494L419.66 99.494L419.66 26.3045L319.524 26.3045Z" fill="white"/>
<path d="M318.874 99.847L318.874 25.9517C318.874 25.7964 319.001 25.6553 319.171 25.6553L398.712 25.6553C398.868 25.6553 399.009 25.7823 399.009 25.9517L399.009 99.847C399.009 100.002 398.882 100.143 398.712 100.143L319.171 100.143C319.001 100.143 318.874 100.016 318.874 99.847ZM319.453 26.2481L319.453 99.5647L398.416 99.5647L398.416 26.2481L319.453 26.2481Z" fill="white"/>
<path d="M-4.89606 555.584L-4.89581 -3.81807C-4.89581 -4.01569 -4.74054 -4.17096 -4.54294 -4.17096L427.071 -4.17096C427.268 -4.17096 427.423 -4.01569 427.423 -3.81807L427.423 257.406C427.423 257.603 427.268 257.759 427.07 257.759L342.236 257.759L342.235 555.584C342.235 555.782 342.08 555.937 341.883 555.937L-4.54319 555.937C-4.74079 555.937 -4.89606 555.782 -4.89606 555.584ZM-4.19003 -3.46518L-4.19028 555.231L341.516 555.231L341.516 257.406C341.516 257.208 341.671 257.053 341.869 257.053L426.703 257.053L426.704 -3.46518L-4.19003 -3.46518Z" fill="white"/>
<path d="M-2.42578 552.761L-2.42554 -0.994844C-2.42554 -1.39008 -2.11499 -1.70062 -1.71976 -1.70062L424.247 -1.70062C424.643 -1.70062 424.953 -1.39008 424.953 -0.994841L424.953 254.583C424.953 254.978 424.643 255.288 424.247 255.288L339.765 255.288L339.765 552.761C339.765 553.156 339.455 553.467 339.059 553.467L-1.70587 553.467C-2.11524 553.467 -2.42578 553.156 -2.42578 552.761ZM-1.01398 -0.289062L-1.01422 552.055L338.34 552.055L338.34 254.625C338.311 254.3 338.495 253.962 338.805 253.863C338.89 253.835 338.989 253.82 339.074 253.82C339.172 253.82 339.285 253.849 339.37 253.891L423.542 253.891L423.542 -0.28906L-1.01398 -0.289062Z" fill="white"/>
</g>
<defs>
<clipPath id="clip0_963_12746">
<rect y="0.453369" width="343" height="67" rx="12" fill="white"/>
</clipPath>
</defs>
</svg>
