<svg width="1050" height="783" viewBox="0 0 1050 783" fill="none" xmlns="http://www.w3.org/2000/svg">
<g opacity="0.7">
<path d="M58.6721 70.3918V83.9815" stroke="black" stroke-width="0.5" stroke-miterlimit="10" stroke-linecap="round" stroke-linejoin="round"/>
<path d="M58.6721 19.4906V33.0803" stroke="black" stroke-width="0.5" stroke-miterlimit="10" stroke-linecap="round" stroke-linejoin="round"/>
<path d="M145.43 70.3918V83.9815" stroke="black" stroke-width="0.5" stroke-miterlimit="10" stroke-linecap="round" stroke-linejoin="round"/>
<path d="M312.436 70.3918V83.9815" stroke="black" stroke-width="0.5" stroke-miterlimit="10" stroke-linecap="round" stroke-linejoin="round"/>
<path d="M704.503 70.3918V83.9815" stroke="black" stroke-width="0.5" stroke-miterlimit="10" stroke-linecap="round" stroke-linejoin="round"/>
<path d="M871.618 70.3918V83.9815" stroke="black" stroke-width="0.5" stroke-miterlimit="10" stroke-linecap="round" stroke-linejoin="round"/>
<path d="M958.37 70.3918V83.9815" stroke="black" stroke-width="0.5" stroke-miterlimit="10" stroke-linecap="round" stroke-linejoin="round"/>
<path d="M958.37 19.4881V33.0804" stroke="black" stroke-width="0.5" stroke-miterlimit="10" stroke-linecap="round" stroke-linejoin="round"/>
<path d="M958.37 719.611V706.019" stroke="black" stroke-width="0.5" stroke-miterlimit="10" stroke-linecap="round" stroke-linejoin="round"/>
<path d="M883.348 719.611V706.019" stroke="black" stroke-width="0.5" stroke-miterlimit="10" stroke-linecap="round" stroke-linejoin="round"/>
<path d="M806.572 719.611V706.019" stroke="black" stroke-width="0.5" stroke-miterlimit="10" stroke-linecap="round" stroke-linejoin="round"/>
<path d="M769.549 719.611V706.019" stroke="black" stroke-width="0.5" stroke-miterlimit="10" stroke-linecap="round" stroke-linejoin="round"/>
<path d="M692.77 719.611V706.019" stroke="black" stroke-width="0.5" stroke-miterlimit="10" stroke-linecap="round" stroke-linejoin="round"/>
<path d="M58.6721 77.1881H958.369" stroke="black" stroke-width="0.5" stroke-miterlimit="10" stroke-linecap="round" stroke-linejoin="round"/>
<path d="M991.91 105.764H978.317" stroke="black" stroke-width="0.5" stroke-miterlimit="10" stroke-linecap="round" stroke-linejoin="round"/>
<path d="M978.317 194.723H991.91" stroke="black" stroke-width="0.5" stroke-miterlimit="10" stroke-linecap="round" stroke-linejoin="round"/>
<path d="M978.317 303.507H991.91" stroke="black" stroke-width="0.5" stroke-miterlimit="10" stroke-linecap="round" stroke-linejoin="round"/>
<path d="M978.317 484.492H991.91" stroke="black" stroke-width="0.5" stroke-miterlimit="10" stroke-linecap="round" stroke-linejoin="round"/>
<path d="M978.317 592.077H991.91" stroke="black" stroke-width="0.5" stroke-miterlimit="10" stroke-linecap="round" stroke-linejoin="round"/>
<path d="M978.317 688.555H991.91" stroke="black" stroke-width="0.5" stroke-miterlimit="10" stroke-linecap="round" stroke-linejoin="round"/>
<path d="M1032.3 105.764H1018.71" stroke="black" stroke-width="0.5" stroke-miterlimit="10" stroke-linecap="round" stroke-linejoin="round"/>
<path d="M1018.71 688.555H1032.3" stroke="black" stroke-width="0.5" stroke-miterlimit="10" stroke-linecap="round" stroke-linejoin="round"/>
<path d="M985.109 105.764V688.555" stroke="black" stroke-width="0.5" stroke-miterlimit="10" stroke-linecap="round" stroke-linejoin="round"/>
<path d="M39.5609 105.764H25.9712" stroke="black" stroke-width="0.5" stroke-miterlimit="10" stroke-linecap="round" stroke-linejoin="round"/>
<path d="M25.9712 241.809H39.5609" stroke="black" stroke-width="0.5" stroke-miterlimit="10" stroke-linecap="round" stroke-linejoin="round"/>
<path d="M25.9712 310.362H39.5609" stroke="black" stroke-width="0.5" stroke-miterlimit="10" stroke-linecap="round" stroke-linejoin="round"/>
<path d="M25.9712 468.041H39.5609" stroke="black" stroke-width="0.5" stroke-miterlimit="10" stroke-linecap="round" stroke-linejoin="round"/>
<path d="M25.9712 576.352H39.5609" stroke="black" stroke-width="0.5" stroke-miterlimit="10" stroke-linecap="round" stroke-linejoin="round"/>
<path d="M25.9712 688.555H39.5609" stroke="black" stroke-width="0.5" stroke-miterlimit="10" stroke-linecap="round" stroke-linejoin="round"/>
<path d="M32.7649 105.764V688.555" stroke="black" stroke-width="0.5" stroke-miterlimit="10" stroke-linecap="round" stroke-linejoin="round"/>
<path d="M958.369 712.815H621.637" stroke="black" stroke-width="0.5" stroke-miterlimit="10" stroke-linecap="round" stroke-linejoin="round"/>
<path d="M60.6162 719.611V706.019" stroke="black" stroke-width="0.5" stroke-miterlimit="10" stroke-linecap="round" stroke-linejoin="round"/>
<path d="M135.638 719.611V706.019" stroke="black" stroke-width="0.5" stroke-miterlimit="10" stroke-linecap="round" stroke-linejoin="round"/>
<path d="M212.417 719.611V706.019" stroke="black" stroke-width="0.5" stroke-miterlimit="10" stroke-linecap="round" stroke-linejoin="round"/>
<path d="M249.434 719.611V706.019" stroke="black" stroke-width="0.5" stroke-miterlimit="10" stroke-linecap="round" stroke-linejoin="round"/>
<path d="M326.216 719.611V706.019" stroke="black" stroke-width="0.5" stroke-miterlimit="10" stroke-linecap="round" stroke-linejoin="round"/>
<path d="M395.26 754.648V741.061" stroke="black" stroke-width="0.5" stroke-miterlimit="10" stroke-linecap="round" stroke-linejoin="round"/>
<path d="M441.916 754.648V741.061" stroke="black" stroke-width="0.5" stroke-miterlimit="10" stroke-linecap="round" stroke-linejoin="round"/>
<path d="M574.979 754.648V741.061" stroke="black" stroke-width="0.5" stroke-miterlimit="10" stroke-linecap="round" stroke-linejoin="round"/>
<path d="M621.637 754.648V741.061" stroke="black" stroke-width="0.5" stroke-miterlimit="10" stroke-linecap="round" stroke-linejoin="round"/>
<path d="M60.6162 712.815H397.348" stroke="black" stroke-width="0.5" stroke-miterlimit="10" stroke-linecap="round" stroke-linejoin="round"/>
<path d="M395.26 747.855H621.636" stroke="black" stroke-width="0.5" stroke-miterlimit="10" stroke-linecap="round" stroke-linejoin="round"/>
<path d="M780.347 49.811V54.1515H779.822V50.362H779.796L778.737 51.0657V50.5316L779.822 49.811H780.347ZM783.062 54.2108C782.783 54.2108 782.533 54.1628 782.314 54.0667C782.097 53.9706 781.923 53.8371 781.795 53.6662C781.668 53.4938 781.598 53.2939 781.587 53.0664H782.121C782.133 53.2062 782.181 53.3271 782.265 53.4288C782.35 53.5291 782.461 53.6068 782.598 53.6619C782.735 53.717 782.887 53.7446 783.054 53.7446C783.24 53.7446 783.406 53.7121 783.55 53.6471C783.694 53.5821 783.807 53.4917 783.889 53.3758C783.971 53.2599 784.012 53.1257 784.012 52.9731C784.012 52.8135 783.972 52.6729 783.893 52.5514C783.814 52.4284 783.698 52.3324 783.545 52.2631C783.393 52.1939 783.206 52.1593 782.986 52.1593H782.638V51.693H782.986C783.158 51.693 783.31 51.6619 783.44 51.5998C783.571 51.5376 783.673 51.45 783.747 51.3369C783.822 51.2239 783.859 51.0911 783.859 50.9385C783.859 50.7916 783.827 50.6637 783.762 50.5549C783.697 50.4461 783.605 50.3613 783.486 50.3006C783.369 50.2398 783.23 50.2094 783.071 50.2094C782.921 50.2094 782.78 50.237 782.647 50.2921C782.515 50.3458 782.408 50.4242 782.325 50.5273C782.241 50.6291 782.196 50.752 782.189 50.8961H781.68C781.689 50.6686 781.757 50.4694 781.886 50.2984C782.015 50.1261 782.183 49.9918 782.39 49.8958C782.6 49.7997 782.829 49.7516 783.079 49.7516C783.348 49.7516 783.578 49.806 783.77 49.9148C783.962 50.0222 784.11 50.1642 784.213 50.3408C784.316 50.5175 784.368 50.7082 784.368 50.9131C784.368 51.1575 784.304 51.3659 784.175 51.5383C784.048 51.7107 783.875 51.8301 783.656 51.8965V51.9304C783.93 51.9756 784.144 52.0922 784.298 52.2801C784.452 52.4666 784.529 52.6976 784.529 52.9731C784.529 53.2091 784.465 53.421 784.336 53.6089C784.209 53.7954 784.035 53.9424 783.815 54.0498C783.594 54.1571 783.343 54.2108 783.062 54.2108ZM786.811 54.2108C786.492 54.2108 786.22 54.1239 785.996 53.9502C785.771 53.775 785.599 53.5213 785.481 53.1893C785.362 52.8558 785.302 52.4532 785.302 51.9812C785.302 51.5122 785.362 51.1116 785.481 50.7795C785.601 50.4461 785.773 50.1918 785.998 50.0166C786.224 49.84 786.495 49.7516 786.811 49.7516C787.128 49.7516 787.399 49.84 787.623 50.0166C787.849 50.1918 788.022 50.4461 788.14 50.7795C788.26 51.1116 788.32 51.5122 788.32 51.9812C788.32 52.4532 788.261 52.8558 788.142 53.1893C788.024 53.5213 787.852 53.775 787.627 53.9502C787.403 54.1239 787.131 54.2108 786.811 54.2108ZM786.811 53.7446C787.128 53.7446 787.374 53.592 787.549 53.2868C787.724 52.9816 787.812 52.5464 787.812 51.9812C787.812 51.6054 787.772 51.2854 787.691 51.0212C787.612 50.7569 787.497 50.5556 787.348 50.4171C787.199 50.2787 787.021 50.2094 786.811 50.2094C786.498 50.2094 786.253 50.3641 786.076 50.6736C785.899 50.9816 785.811 51.4175 785.811 51.9812C785.811 52.3571 785.851 52.6764 785.93 52.9392C786.009 53.202 786.123 53.4019 786.271 53.539C786.421 53.676 786.601 53.7446 786.811 53.7446Z" fill="black"/>
<path d="M221.224 49.811V54.1515H220.698V50.362H220.673L219.613 51.0657V50.5316L220.698 49.811H221.224ZM223.938 54.2108C223.659 54.2108 223.409 54.1628 223.19 54.0667C222.973 53.9706 222.8 53.8371 222.671 53.6662C222.544 53.4938 222.475 53.2939 222.463 53.0664H222.997C223.009 53.2062 223.057 53.3271 223.142 53.4288C223.226 53.5291 223.337 53.6068 223.474 53.6619C223.611 53.717 223.763 53.7446 223.93 53.7446C224.117 53.7446 224.282 53.7121 224.426 53.6471C224.57 53.5821 224.683 53.4917 224.765 53.3758C224.847 53.2599 224.888 53.1257 224.888 52.9731C224.888 52.8135 224.848 52.6729 224.769 52.5514C224.69 52.4284 224.574 52.3324 224.422 52.2631C224.269 52.1939 224.083 52.1593 223.862 52.1593H223.515V51.693H223.862C224.035 51.693 224.186 51.6619 224.316 51.5998C224.447 51.5376 224.55 51.45 224.623 51.3369C224.698 51.2239 224.735 51.0911 224.735 50.9385C224.735 50.7916 224.703 50.6637 224.638 50.5549C224.573 50.4461 224.481 50.3613 224.362 50.3006C224.245 50.2398 224.107 50.2094 223.947 50.2094C223.797 50.2094 223.656 50.237 223.523 50.2921C223.392 50.3458 223.284 50.4242 223.201 50.5273C223.118 50.6291 223.072 50.752 223.065 50.8961H222.557C222.565 50.6686 222.634 50.4694 222.762 50.2984C222.891 50.1261 223.059 49.9918 223.267 49.8958C223.476 49.7997 223.705 49.7516 223.955 49.7516C224.224 49.7516 224.454 49.806 224.646 49.9148C224.839 50.0222 224.986 50.1642 225.089 50.3408C225.192 50.5175 225.244 50.7082 225.244 50.9131C225.244 51.1575 225.18 51.3659 225.051 51.5383C224.924 51.7107 224.751 51.8301 224.532 51.8965V51.9304C224.806 51.9756 225.02 52.0922 225.174 52.2801C225.328 52.4666 225.405 52.6976 225.405 52.9731C225.405 53.2091 225.341 53.421 225.212 53.6089C225.085 53.7954 224.911 53.9424 224.691 54.0498C224.47 54.1571 224.22 54.2108 223.938 54.2108ZM227.688 54.2108C227.368 54.2108 227.096 54.1239 226.872 53.9502C226.647 53.775 226.475 53.5213 226.357 53.1893C226.238 52.8558 226.179 52.4532 226.179 51.9812C226.179 51.5122 226.238 51.1116 226.357 50.7795C226.477 50.4461 226.649 50.1918 226.874 50.0166C227.1 49.84 227.371 49.7516 227.688 49.7516C228.004 49.7516 228.275 49.84 228.499 50.0166C228.725 50.1918 228.898 50.4461 229.017 50.7795C229.137 51.1116 229.197 51.5122 229.197 51.9812C229.197 52.4532 229.137 52.8558 229.019 53.1893C228.9 53.5213 228.728 53.775 228.504 53.9502C228.279 54.1239 228.007 54.2108 227.688 54.2108ZM227.688 53.7446C228.004 53.7446 228.25 53.592 228.425 53.2868C228.6 52.9816 228.688 52.5464 228.688 51.9812C228.688 51.6054 228.648 51.2854 228.567 51.0212C228.488 50.7569 228.374 50.5556 228.224 50.4171C228.076 50.2787 227.897 50.2094 227.688 50.2094C227.374 50.2094 227.129 50.3641 226.952 50.6736C226.776 50.9816 226.687 51.4175 226.687 51.9812C226.687 52.3571 226.727 52.6764 226.806 52.9392C226.885 53.202 226.999 53.4019 227.147 53.539C227.297 53.676 227.477 53.7446 227.688 53.7446Z" fill="black"/>
<path d="M500.703 54.2108C500.423 54.2108 500.173 54.1628 499.954 54.0667C499.737 53.9706 499.564 53.8371 499.435 53.6662C499.308 53.4938 499.239 53.2939 499.227 53.0664H499.762C499.773 53.2062 499.821 53.3271 499.906 53.4288C499.99 53.5291 500.101 53.6068 500.238 53.6619C500.375 53.717 500.527 53.7446 500.694 53.7446C500.881 53.7446 501.046 53.7121 501.19 53.6471C501.334 53.5821 501.447 53.4917 501.529 53.3758C501.611 53.2599 501.652 53.1257 501.652 52.9731C501.652 52.8135 501.612 52.6729 501.533 52.5514C501.454 52.4284 501.338 52.3324 501.186 52.2631C501.033 52.1939 500.847 52.1593 500.626 52.1593H500.279V51.693H500.626C500.799 51.693 500.95 51.6619 501.08 51.5998C501.211 51.5376 501.314 51.45 501.387 51.3369C501.462 51.2239 501.499 51.0911 501.499 50.9385C501.499 50.7916 501.467 50.6637 501.402 50.5549C501.337 50.4461 501.245 50.3613 501.126 50.3006C501.009 50.2398 500.871 50.2094 500.711 50.2094C500.561 50.2094 500.42 50.237 500.287 50.2921C500.156 50.3458 500.048 50.4242 499.965 50.5273C499.882 50.6291 499.836 50.752 499.829 50.8961H499.321C499.329 50.6686 499.398 50.4694 499.526 50.2984C499.655 50.1261 499.823 49.9918 500.031 49.8958C500.24 49.7997 500.469 49.7516 500.72 49.7516C500.988 49.7516 501.218 49.806 501.41 49.9148C501.603 50.0222 501.75 50.1642 501.853 50.3408C501.957 50.5175 502.008 50.7082 502.008 50.9131C502.008 51.1575 501.944 51.3659 501.815 51.5383C501.688 51.7107 501.515 51.8301 501.296 51.8965V51.9304C501.57 51.9756 501.784 52.0922 501.938 52.2801C502.092 52.4666 502.169 52.6976 502.169 52.9731C502.169 53.2091 502.105 53.421 501.976 53.6089C501.849 53.7954 501.675 53.9424 501.455 54.0498C501.235 54.1571 500.984 54.2108 500.703 54.2108ZM504.452 54.2108C504.132 54.2108 503.86 54.1239 503.636 53.9502C503.411 53.775 503.239 53.5213 503.121 53.1893C503.002 52.8558 502.943 52.4532 502.943 51.9812C502.943 51.5122 503.002 51.1116 503.121 50.7795C503.241 50.4461 503.413 50.1918 503.638 50.0166C503.864 49.84 504.135 49.7516 504.452 49.7516C504.768 49.7516 505.039 49.84 505.263 50.0166C505.49 50.1918 505.662 50.4461 505.781 50.7795C505.901 51.1116 505.961 51.5122 505.961 51.9812C505.961 52.4532 505.901 52.8558 505.783 53.1893C505.664 53.5213 505.492 53.775 505.268 53.9502C505.043 54.1239 504.771 54.2108 504.452 54.2108ZM504.452 53.7446C504.768 53.7446 505.014 53.592 505.189 53.2868C505.364 52.9816 505.452 52.5464 505.452 51.9812C505.452 51.6054 505.412 51.2854 505.331 51.0212C505.252 50.7569 505.138 50.5556 504.988 50.4171C504.84 50.2787 504.661 50.2094 504.452 50.2094C504.138 50.2094 503.893 50.3641 503.716 50.6736C503.54 50.9816 503.451 51.4175 503.451 51.9812C503.451 52.3571 503.491 52.6764 503.57 52.9392C503.649 53.202 503.763 53.4019 503.911 53.539C504.061 53.676 504.241 53.7446 504.452 53.7446ZM508.182 54.2108C507.863 54.2108 507.591 54.1239 507.366 53.9502C507.141 53.775 506.97 53.5213 506.851 53.1893C506.732 52.8558 506.673 52.4532 506.673 51.9812C506.673 51.5122 506.732 51.1116 506.851 50.7795C506.971 50.4461 507.143 50.1918 507.368 50.0166C507.594 49.84 507.865 49.7516 508.182 49.7516C508.498 49.7516 508.769 49.84 508.994 50.0166C509.22 50.1918 509.392 50.4461 509.511 50.7795C509.631 51.1116 509.691 51.5122 509.691 51.9812C509.691 52.4532 509.632 52.8558 509.513 53.1893C509.394 53.5213 509.222 53.775 508.998 53.9502C508.773 54.1239 508.501 54.2108 508.182 54.2108ZM508.182 53.7446C508.498 53.7446 508.744 53.592 508.919 53.2868C509.095 52.9816 509.182 52.5464 509.182 51.9812C509.182 51.6054 509.142 51.2854 509.061 51.0212C508.982 50.7569 508.868 50.5556 508.718 50.4171C508.57 50.2787 508.391 50.2094 508.182 50.2094C507.868 50.2094 507.623 50.3641 507.446 50.6736C507.27 50.9816 507.182 51.4175 507.182 51.9812C507.182 52.3571 507.221 52.6764 507.3 52.9392C507.379 53.202 507.493 53.4019 507.641 53.539C507.791 53.676 507.971 53.7446 508.182 53.7446Z" fill="black"/>
<path d="M413.91 761.308C413.631 761.308 413.381 761.26 413.162 761.164C412.945 761.068 412.771 760.934 412.643 760.764C412.516 760.591 412.447 760.391 412.435 760.164H412.969C412.981 760.304 413.029 760.424 413.113 760.526C413.198 760.626 413.309 760.704 413.446 760.759C413.583 760.814 413.735 760.842 413.902 760.842C414.088 760.842 414.254 760.809 414.398 760.744C414.542 760.679 414.655 760.589 414.737 760.473C414.819 760.357 414.86 760.223 414.86 760.07C414.86 759.911 414.82 759.77 414.741 759.649C414.662 759.526 414.546 759.43 414.394 759.36C414.241 759.291 414.054 759.257 413.834 759.257H413.486V758.79H413.834C414.006 758.79 414.158 758.759 414.288 758.697C414.419 758.635 414.521 758.547 414.595 758.434C414.67 758.321 414.707 758.188 414.707 758.036C414.707 757.889 414.675 757.761 414.61 757.652C414.545 757.543 414.453 757.459 414.334 757.398C414.217 757.337 414.078 757.307 413.919 757.307C413.769 757.307 413.628 757.334 413.495 757.389C413.364 757.443 413.256 757.522 413.173 757.625C413.089 757.726 413.044 757.849 413.037 757.993H412.528C412.537 757.766 412.605 757.567 412.734 757.396C412.863 757.223 413.031 757.089 413.238 756.993C413.448 756.897 413.677 756.849 413.927 756.849C414.196 756.849 414.426 756.903 414.618 757.012C414.81 757.12 414.958 757.262 415.061 757.438C415.164 757.615 415.216 757.806 415.216 758.01C415.216 758.255 415.152 758.463 415.023 758.636C414.896 758.808 414.723 758.927 414.504 758.994V759.028C414.778 759.073 414.992 759.19 415.146 759.377C415.3 759.564 415.377 759.795 415.377 760.07C415.377 760.306 415.313 760.518 415.184 760.706C415.057 760.893 414.883 761.04 414.663 761.147C414.442 761.254 414.191 761.308 413.91 761.308ZM417.685 761.308C417.507 761.305 417.329 761.271 417.151 761.206C416.973 761.141 416.81 761.032 416.663 760.878C416.516 760.723 416.398 760.513 416.309 760.248C416.22 759.983 416.176 759.649 416.176 759.248C416.176 758.864 416.212 758.523 416.284 758.227C416.356 757.928 416.461 757.678 416.598 757.474C416.735 757.269 416.9 757.114 417.094 757.008C417.289 756.902 417.508 756.849 417.753 756.849C417.996 756.849 418.212 756.898 418.401 756.995C418.592 757.091 418.747 757.226 418.868 757.398C418.988 757.57 419.065 757.769 419.101 757.993H418.584C418.536 757.798 418.442 757.637 418.304 757.508C418.165 757.38 417.982 757.315 417.753 757.315C417.416 757.315 417.152 757.461 416.958 757.754C416.766 758.046 416.669 758.457 416.668 758.985H416.702C416.781 758.865 416.875 758.763 416.983 758.678C417.094 758.592 417.215 758.525 417.348 758.479C417.481 758.432 417.621 758.409 417.77 758.409C418.018 758.409 418.246 758.471 418.452 758.595C418.658 758.718 418.824 758.889 418.948 759.106C419.072 759.322 419.135 759.57 419.135 759.85C419.135 760.118 419.075 760.364 418.954 760.588C418.834 760.809 418.666 760.986 418.448 761.117C418.232 761.247 417.977 761.311 417.685 761.308ZM417.685 760.842C417.863 760.842 418.023 760.797 418.164 760.708C418.307 760.619 418.419 760.5 418.501 760.35C418.584 760.2 418.626 760.034 418.626 759.85C418.626 759.671 418.586 759.507 418.505 759.36C418.426 759.212 418.317 759.094 418.177 759.007C418.038 758.919 417.88 758.875 417.702 758.875C417.568 758.875 417.443 758.902 417.327 758.956C417.211 759.008 417.109 759.08 417.022 759.172C416.935 759.264 416.868 759.369 416.818 759.488C416.769 759.605 416.744 759.729 416.744 759.859C416.744 760.031 416.784 760.192 416.865 760.342C416.947 760.492 417.058 760.612 417.2 760.704C417.342 760.796 417.504 760.842 417.685 760.842Z" fill="black"/>
<path d="M593.628 761.308C593.348 761.308 593.099 761.26 592.88 761.164C592.662 761.068 592.489 760.934 592.36 760.764C592.233 760.591 592.164 760.391 592.153 760.164H592.687C592.698 760.304 592.746 760.424 592.831 760.526C592.916 760.626 593.027 760.704 593.164 760.759C593.301 760.814 593.453 760.842 593.619 760.842C593.806 760.842 593.971 760.809 594.115 760.744C594.259 760.679 594.372 760.589 594.454 760.473C594.536 760.357 594.577 760.223 594.577 760.07C594.577 759.911 594.538 759.77 594.459 759.649C594.38 759.526 594.264 759.43 594.111 759.36C593.958 759.291 593.772 759.257 593.552 759.257H593.204V758.79H593.552C593.724 758.79 593.875 758.759 594.005 758.697C594.136 758.635 594.239 758.547 594.312 758.434C594.387 758.321 594.425 758.188 594.425 758.036C594.425 757.889 594.392 757.761 594.327 757.652C594.262 757.543 594.17 757.459 594.052 757.398C593.934 757.337 593.796 757.307 593.636 757.307C593.487 757.307 593.345 757.334 593.212 757.389C593.081 757.443 592.974 757.522 592.89 757.625C592.807 757.726 592.762 757.849 592.755 757.993H592.246C592.254 757.766 592.323 757.567 592.452 757.396C592.58 757.223 592.748 757.089 592.956 756.993C593.165 756.897 593.395 756.849 593.645 756.849C593.913 756.849 594.144 756.903 594.336 757.012C594.528 757.12 594.676 757.262 594.779 757.438C594.882 757.615 594.933 757.806 594.933 758.01C594.933 758.255 594.869 758.463 594.741 758.636C594.613 758.808 594.44 758.927 594.221 758.994V759.028C594.495 759.073 594.709 759.19 594.863 759.377C595.017 759.564 595.094 759.795 595.094 760.07C595.094 760.306 595.03 760.518 594.902 760.706C594.774 760.893 594.601 761.04 594.38 761.147C594.16 761.254 593.909 761.308 593.628 761.308ZM597.402 761.308C597.224 761.305 597.046 761.271 596.868 761.206C596.69 761.141 596.528 761.032 596.381 760.878C596.234 760.723 596.116 760.513 596.027 760.248C595.938 759.983 595.893 759.649 595.893 759.248C595.893 758.864 595.929 758.523 596.002 758.227C596.074 757.928 596.178 757.678 596.315 757.474C596.452 757.269 596.618 757.114 596.811 757.008C597.006 756.902 597.226 756.849 597.47 756.849C597.713 756.849 597.929 756.898 598.119 756.995C598.31 757.091 598.465 757.226 598.585 757.398C598.705 757.57 598.783 757.769 598.818 757.993H598.301C598.253 757.798 598.16 757.637 598.021 757.508C597.883 757.38 597.699 757.315 597.47 757.315C597.134 757.315 596.869 757.461 596.676 757.754C596.483 758.046 596.387 758.457 596.385 758.985H596.419C596.498 758.865 596.592 758.763 596.701 758.678C596.811 758.592 596.933 758.525 597.065 758.479C597.198 758.432 597.339 758.409 597.487 758.409C597.736 758.409 597.963 758.471 598.17 758.595C598.376 758.718 598.541 758.889 598.666 759.106C598.79 759.322 598.852 759.57 598.852 759.85C598.852 760.118 598.792 760.364 598.672 760.588C598.552 760.809 598.383 760.986 598.165 761.117C597.949 761.247 597.695 761.311 597.402 761.308ZM597.402 760.842C597.581 760.842 597.74 760.797 597.881 760.708C598.024 760.619 598.136 760.5 598.218 760.35C598.302 760.2 598.343 760.034 598.343 759.85C598.343 759.671 598.303 759.507 598.223 759.36C598.144 759.212 598.034 759.094 597.894 759.007C597.756 758.919 597.597 758.875 597.419 758.875C597.285 758.875 597.16 758.902 597.044 758.956C596.928 759.008 596.827 759.08 596.739 759.172C596.653 759.264 596.585 759.369 596.536 759.488C596.486 759.605 596.461 759.729 596.461 759.859C596.461 760.031 596.502 760.192 596.582 760.342C596.664 760.492 596.776 760.612 596.917 760.704C597.06 760.796 597.222 760.842 597.402 760.842Z" fill="black"/>
<path d="M726.457 725.908C726.279 725.906 726.101 725.872 725.923 725.807C725.745 725.742 725.583 725.632 725.436 725.478C725.289 725.323 725.171 725.113 725.082 724.849C724.993 724.583 724.948 724.25 724.948 723.848C724.948 723.464 724.984 723.124 725.056 722.827C725.128 722.529 725.233 722.278 725.37 722.074C725.507 721.87 725.672 721.714 725.866 721.608C726.061 721.502 726.281 721.449 726.525 721.449C726.768 721.449 726.984 721.498 727.173 721.595C727.364 721.692 727.52 721.826 727.64 721.998C727.76 722.171 727.838 722.369 727.873 722.594H727.356C727.308 722.399 727.214 722.237 727.076 722.108C726.938 721.98 726.754 721.915 726.525 721.915C726.189 721.915 725.924 722.062 725.73 722.354C725.538 722.647 725.441 723.057 725.44 723.586H725.474C725.553 723.465 725.647 723.363 725.756 723.278C725.866 723.192 725.987 723.126 726.12 723.079C726.253 723.032 726.394 723.009 726.542 723.009C726.791 723.009 727.018 723.071 727.224 723.196C727.431 723.319 727.596 723.489 727.72 723.706C727.845 723.923 727.907 724.171 727.907 724.45C727.907 724.719 727.847 724.965 727.727 725.188C727.607 725.41 727.438 725.586 727.22 725.718C727.004 725.848 726.75 725.911 726.457 725.908ZM726.457 725.442C726.635 725.442 726.795 725.398 726.936 725.309C727.079 725.22 727.191 725.1 727.273 724.95C727.356 724.801 727.398 724.634 727.398 724.45C727.398 724.271 727.358 724.108 727.277 723.961C727.198 723.812 727.089 723.694 726.949 723.607C726.81 723.519 726.652 723.475 726.474 723.475C726.34 723.475 726.215 723.502 726.099 723.556C725.983 723.608 725.881 723.68 725.794 723.772C725.708 723.864 725.64 723.969 725.59 724.088C725.541 724.205 725.516 724.329 725.516 724.459C725.516 724.631 725.556 724.792 725.637 724.942C725.719 725.092 725.831 725.213 725.972 725.304C726.115 725.396 726.276 725.442 726.457 725.442ZM730.156 725.908C729.837 725.908 729.565 725.822 729.34 725.648C729.115 725.473 728.944 725.219 728.825 724.887C728.706 724.553 728.647 724.151 728.647 723.679C728.647 723.21 728.706 722.809 728.825 722.477C728.945 722.144 729.118 721.889 729.342 721.714C729.568 721.538 729.84 721.449 730.156 721.449C730.473 721.449 730.743 721.538 730.968 721.714C731.194 721.889 731.366 722.144 731.485 722.477C731.605 722.809 731.665 723.21 731.665 723.679C731.665 724.151 731.606 724.553 731.487 724.887C731.368 725.219 731.197 725.473 730.972 725.648C730.747 725.822 730.475 725.908 730.156 725.908ZM730.156 725.442C730.473 725.442 730.718 725.29 730.894 724.984C731.069 724.679 731.156 724.244 731.156 723.679C731.156 723.303 731.116 722.983 731.036 722.719C730.956 722.455 730.842 722.253 730.692 722.115C730.544 721.976 730.365 721.907 730.156 721.907C729.842 721.907 729.597 722.062 729.421 722.371C729.244 722.679 729.156 723.115 729.156 723.679C729.156 724.055 729.195 724.374 729.274 724.637C729.353 724.9 729.467 725.1 729.616 725.237C729.765 725.374 729.945 725.442 730.156 725.442Z" fill="black"/>
<path d="M839.646 725.908C839.468 725.906 839.29 725.872 839.112 725.807C838.934 725.742 838.771 725.632 838.624 725.478C838.477 725.323 838.359 725.113 838.27 724.849C838.181 724.583 838.137 724.25 838.137 723.848C838.137 723.464 838.173 723.124 838.245 722.827C838.317 722.529 838.422 722.278 838.559 722.074C838.696 721.87 838.861 721.714 839.055 721.608C839.25 721.502 839.469 721.449 839.714 721.449C839.957 721.449 840.173 721.498 840.362 721.595C840.553 721.692 840.708 721.826 840.828 721.998C840.949 722.171 841.026 722.369 841.062 722.594H840.544C840.496 722.399 840.403 722.237 840.265 722.108C840.126 721.98 839.943 721.915 839.714 721.915C839.377 721.915 839.112 722.062 838.919 722.354C838.727 722.647 838.63 723.057 838.629 723.586H838.662C838.742 723.465 838.836 723.363 838.944 723.278C839.055 723.192 839.176 723.126 839.309 723.079C839.442 723.032 839.582 723.009 839.731 723.009C839.979 723.009 840.207 723.071 840.413 723.196C840.619 723.319 840.785 723.489 840.909 723.706C841.033 723.923 841.096 724.171 841.096 724.45C841.096 724.719 841.035 724.965 840.915 725.188C840.795 725.41 840.626 725.586 840.409 725.718C840.193 725.848 839.938 725.911 839.646 725.908ZM839.646 725.442C839.824 725.442 839.984 725.398 840.125 725.309C840.268 725.22 840.38 725.1 840.462 724.95C840.545 724.801 840.587 724.634 840.587 724.45C840.587 724.271 840.547 724.108 840.466 723.961C840.387 723.812 840.277 723.694 840.138 723.607C839.999 723.519 839.841 723.475 839.663 723.475C839.529 723.475 839.404 723.502 839.288 723.556C839.172 723.608 839.07 723.68 838.982 723.772C838.896 723.864 838.828 723.969 838.779 724.088C838.73 724.205 838.705 724.329 838.705 724.459C838.705 724.631 838.745 724.792 838.826 724.942C838.908 725.092 839.019 725.213 839.161 725.304C839.303 725.396 839.465 725.442 839.646 725.442ZM843.345 725.908C843.025 725.908 842.753 725.822 842.529 725.648C842.304 725.473 842.132 725.219 842.014 724.887C841.895 724.553 841.836 724.151 841.836 723.679C841.836 723.21 841.895 722.809 842.014 722.477C842.134 722.144 842.306 721.889 842.531 721.714C842.757 721.538 843.028 721.449 843.345 721.449C843.661 721.449 843.932 721.538 844.156 721.714C844.383 721.889 844.555 722.144 844.674 722.477C844.794 722.809 844.854 723.21 844.854 723.679C844.854 724.151 844.794 724.553 844.676 724.887C844.557 725.219 844.385 725.473 844.161 725.648C843.936 725.822 843.664 725.908 843.345 725.908ZM843.345 725.442C843.661 725.442 843.907 725.29 844.082 724.984C844.257 724.679 844.345 724.244 844.345 723.679C844.345 723.303 844.305 722.983 844.224 722.719C844.145 722.455 844.031 722.253 843.881 722.115C843.733 721.976 843.554 721.907 843.345 721.907C843.031 721.907 842.786 722.062 842.609 722.371C842.433 722.679 842.344 723.115 842.344 723.679C842.344 724.055 842.384 724.374 842.463 724.637C842.542 724.9 842.656 725.1 842.804 725.237C842.954 725.374 843.134 725.442 843.345 725.442Z" fill="black"/>
<path d="M783.383 725.908C783.103 725.908 782.854 725.86 782.635 725.764C782.417 725.668 782.244 725.535 782.116 725.364C781.989 725.191 781.919 724.991 781.908 724.764H782.442C782.454 724.904 782.502 725.025 782.586 725.126C782.671 725.227 782.782 725.304 782.919 725.359C783.056 725.415 783.208 725.442 783.375 725.442C783.561 725.442 783.727 725.41 783.871 725.345C784.015 725.28 784.128 725.189 784.21 725.073C784.292 724.958 784.333 724.823 784.333 724.671C784.333 724.511 784.293 724.37 784.214 724.249C784.135 724.126 784.019 724.03 783.866 723.961C783.714 723.891 783.527 723.857 783.307 723.857H782.959V723.391H783.307C783.479 723.391 783.63 723.359 783.76 723.297C783.892 723.235 783.994 723.148 784.068 723.035C784.143 722.921 784.18 722.789 784.18 722.636C784.18 722.489 784.148 722.361 784.083 722.252C784.018 722.144 783.926 722.059 783.807 721.998C783.69 721.937 783.551 721.907 783.392 721.907C783.242 721.907 783.101 721.935 782.968 721.99C782.836 722.043 782.729 722.122 782.646 722.225C782.562 722.327 782.517 722.45 782.51 722.594H782.001C782.01 722.366 782.078 722.167 782.207 721.996C782.336 721.824 782.504 721.689 782.711 721.593C782.92 721.497 783.15 721.449 783.4 721.449C783.669 721.449 783.899 721.504 784.091 721.612C784.283 721.72 784.431 721.862 784.534 722.038C784.637 722.215 784.689 722.406 784.689 722.611C784.689 722.855 784.624 723.063 784.496 723.236C784.369 723.408 784.196 723.528 783.977 723.594V723.628C784.251 723.673 784.465 723.79 784.619 723.978C784.773 724.164 784.85 724.395 784.85 724.671C784.85 724.907 784.786 725.119 784.657 725.306C784.53 725.493 784.356 725.64 784.136 725.747C783.915 725.855 783.664 725.908 783.383 725.908ZM787.132 725.908C786.813 725.908 786.541 725.822 786.316 725.648C786.092 725.473 785.92 725.219 785.801 724.887C785.683 724.553 785.623 724.151 785.623 723.679C785.623 723.21 785.683 722.809 785.801 722.477C785.922 722.144 786.094 721.889 786.319 721.714C786.545 721.538 786.816 721.449 787.132 721.449C787.449 721.449 787.719 721.538 787.944 721.714C788.17 721.889 788.343 722.144 788.461 722.477C788.581 722.809 788.641 723.21 788.641 723.679C788.641 724.151 788.582 724.553 788.463 724.887C788.345 725.219 788.173 725.473 787.948 725.648C787.724 725.822 787.452 725.908 787.132 725.908ZM787.132 725.442C787.449 725.442 787.695 725.29 787.87 724.984C788.045 724.679 788.133 724.244 788.133 723.679C788.133 723.303 788.092 722.983 788.012 722.719C787.933 722.455 787.818 722.253 787.669 722.115C787.52 721.976 787.342 721.907 787.132 721.907C786.819 721.907 786.574 722.062 786.397 722.371C786.22 722.679 786.132 723.115 786.132 723.679C786.132 724.055 786.172 724.374 786.251 724.637C786.33 724.9 786.444 725.1 786.592 725.237C786.742 725.374 786.922 725.442 787.132 725.442Z" fill="black"/>
<path d="M916.154 725.908C915.976 725.906 915.798 725.872 915.62 725.807C915.442 725.742 915.28 725.632 915.133 725.478C914.986 725.323 914.868 725.113 914.779 724.849C914.69 724.583 914.645 724.25 914.645 723.848C914.645 723.464 914.681 723.124 914.753 722.827C914.825 722.529 914.93 722.278 915.067 722.074C915.204 721.87 915.369 721.714 915.563 721.608C915.758 721.502 915.978 721.449 916.222 721.449C916.465 721.449 916.681 721.498 916.871 721.595C917.061 721.692 917.217 721.826 917.337 721.998C917.457 722.171 917.535 722.369 917.57 722.594H917.053C917.005 722.399 916.911 722.237 916.773 722.108C916.635 721.98 916.451 721.915 916.222 721.915C915.886 721.915 915.621 722.062 915.427 722.354C915.235 722.647 915.138 723.057 915.137 723.586H915.171C915.25 723.465 915.344 723.363 915.453 723.278C915.563 723.192 915.684 723.126 915.817 723.079C915.95 723.032 916.091 723.009 916.239 723.009C916.488 723.009 916.715 723.071 916.921 723.196C917.128 723.319 917.293 723.489 917.417 723.706C917.542 723.923 917.604 724.171 917.604 724.45C917.604 724.719 917.544 724.965 917.424 725.188C917.304 725.41 917.135 725.586 916.917 725.718C916.701 725.848 916.447 725.911 916.154 725.908ZM916.154 725.442C916.332 725.442 916.492 725.398 916.633 725.309C916.776 725.22 916.888 725.1 916.97 724.95C917.053 724.801 917.095 724.634 917.095 724.45C917.095 724.271 917.055 724.108 916.974 723.961C916.895 723.812 916.786 723.694 916.646 723.607C916.507 723.519 916.349 723.475 916.171 723.475C916.037 723.475 915.912 723.502 915.796 723.556C915.68 723.608 915.578 723.68 915.491 723.772C915.405 723.864 915.337 723.969 915.287 724.088C915.238 724.205 915.213 724.329 915.213 724.459C915.213 724.631 915.253 724.792 915.334 724.942C915.416 725.092 915.528 725.213 915.669 725.304C915.812 725.396 915.973 725.442 916.154 725.442ZM919.853 725.908C919.534 725.908 919.262 725.822 919.037 725.648C918.812 725.473 918.641 725.219 918.522 724.887C918.403 724.553 918.344 724.151 918.344 723.679C918.344 723.21 918.403 722.809 918.522 722.477C918.642 722.144 918.815 721.889 919.039 721.714C919.265 721.538 919.537 721.449 919.853 721.449C920.17 721.449 920.44 721.538 920.665 721.714C920.891 721.889 921.063 722.144 921.182 722.477C921.302 722.809 921.362 723.21 921.362 723.679C921.362 724.151 921.303 724.553 921.184 724.887C921.065 725.219 920.894 725.473 920.669 725.648C920.444 725.822 920.172 725.908 919.853 725.908ZM919.853 725.442C920.17 725.442 920.415 725.29 920.591 724.984C920.766 724.679 920.853 724.244 920.853 723.679C920.853 723.303 920.813 722.983 920.733 722.719C920.653 722.455 920.539 722.253 920.389 722.115C920.241 721.976 920.062 721.907 919.853 721.907C919.539 721.907 919.294 722.062 919.118 722.371C918.941 722.679 918.853 723.115 918.853 723.679C918.853 724.055 918.892 724.374 918.971 724.637C919.05 724.9 919.164 725.1 919.313 725.237C919.462 725.374 919.643 725.442 919.853 725.442Z" fill="black"/>
<path d="M654.055 725.908C653.877 725.906 653.699 725.872 653.521 725.807C653.343 725.742 653.181 725.632 653.034 725.478C652.887 725.323 652.769 725.113 652.68 724.849C652.591 724.583 652.546 724.25 652.546 723.848C652.546 723.464 652.582 723.124 652.654 722.827C652.726 722.529 652.831 722.278 652.968 722.074C653.105 721.87 653.27 721.714 653.464 721.608C653.659 721.502 653.879 721.449 654.123 721.449C654.366 721.449 654.582 721.498 654.772 721.595C654.962 721.692 655.118 721.826 655.238 721.998C655.358 722.171 655.436 722.369 655.471 722.594H654.954C654.906 722.399 654.813 722.237 654.674 722.108C654.536 721.98 654.352 721.915 654.123 721.915C653.787 721.915 653.522 722.062 653.328 722.354C653.136 722.647 653.039 723.057 653.038 723.586H653.072C653.151 723.465 653.245 723.363 653.354 723.278C653.464 723.192 653.585 723.126 653.718 723.079C653.851 723.032 653.992 723.009 654.14 723.009C654.389 723.009 654.616 723.071 654.823 723.196C655.029 723.319 655.194 723.489 655.318 723.706C655.443 723.923 655.505 724.171 655.505 724.45C655.505 724.719 655.445 724.965 655.325 725.188C655.205 725.41 655.036 725.586 654.818 725.718C654.602 725.848 654.348 725.911 654.055 725.908ZM654.055 725.442C654.233 725.442 654.393 725.398 654.534 725.309C654.677 725.22 654.789 725.1 654.871 724.95C654.955 724.801 654.996 724.634 654.996 724.45C654.996 724.271 654.956 724.108 654.875 723.961C654.796 723.812 654.687 723.694 654.547 723.607C654.409 723.519 654.25 723.475 654.072 723.475C653.938 723.475 653.813 723.502 653.697 723.556C653.581 723.608 653.48 723.68 653.392 723.772C653.306 723.864 653.238 723.969 653.188 724.088C653.139 724.205 653.114 724.329 653.114 724.459C653.114 724.631 653.155 724.792 653.235 724.942C653.317 725.092 653.429 725.213 653.57 725.304C653.713 725.396 653.874 725.442 654.055 725.442ZM657.754 725.908C657.435 725.908 657.163 725.822 656.938 725.648C656.714 725.473 656.542 725.219 656.423 724.887C656.304 724.553 656.245 724.151 656.245 723.679C656.245 723.21 656.304 722.809 656.423 722.477C656.543 722.144 656.716 721.889 656.94 721.714C657.166 721.538 657.438 721.449 657.754 721.449C658.071 721.449 658.341 721.538 658.566 721.714C658.792 721.889 658.964 722.144 659.083 722.477C659.203 722.809 659.263 723.21 659.263 723.679C659.263 724.151 659.204 724.553 659.085 724.887C658.966 725.219 658.795 725.473 658.57 725.648C658.345 725.822 658.073 725.908 657.754 725.908ZM657.754 725.442C658.071 725.442 658.316 725.29 658.492 724.984C658.667 724.679 658.755 724.244 658.755 723.679C658.755 723.303 658.714 722.983 658.634 722.719C658.555 722.455 658.44 722.253 658.29 722.115C658.142 721.976 657.963 721.907 657.754 721.907C657.44 721.907 657.195 722.062 657.019 722.371C656.842 722.679 656.754 723.115 656.754 723.679C656.754 724.055 656.793 724.374 656.872 724.637C656.952 724.9 657.065 725.1 657.214 725.237C657.363 725.374 657.544 725.442 657.754 725.442Z" fill="black"/>
<path d="M167.819 725.908C167.641 725.906 167.463 725.872 167.285 725.807C167.107 725.742 166.944 725.632 166.797 725.478C166.65 725.323 166.532 725.113 166.443 724.849C166.354 724.583 166.31 724.25 166.31 723.848C166.31 723.464 166.346 723.124 166.418 722.827C166.49 722.529 166.595 722.278 166.732 722.074C166.869 721.87 167.034 721.714 167.228 721.608C167.423 721.502 167.642 721.449 167.887 721.449C168.13 721.449 168.346 721.498 168.535 721.595C168.726 721.692 168.881 721.826 169.002 721.998C169.122 722.171 169.199 722.369 169.235 722.594H168.718C168.67 722.399 168.576 722.237 168.438 722.108C168.299 721.98 168.116 721.915 167.887 721.915C167.551 721.915 167.286 722.062 167.092 722.354C166.9 722.647 166.803 723.057 166.802 723.586H166.836C166.915 723.465 167.009 723.363 167.117 723.278C167.228 723.192 167.349 723.126 167.482 723.079C167.615 723.032 167.755 723.009 167.904 723.009C168.152 723.009 168.38 723.071 168.586 723.196C168.792 723.319 168.958 723.489 169.082 723.706C169.206 723.923 169.269 724.171 169.269 724.45C169.269 724.719 169.209 724.965 169.088 725.188C168.968 725.41 168.8 725.586 168.582 725.718C168.366 725.848 168.111 725.911 167.819 725.908ZM167.819 725.442C167.997 725.442 168.157 725.398 168.298 725.309C168.441 725.22 168.553 725.1 168.635 724.95C168.718 724.801 168.76 724.634 168.76 724.45C168.76 724.271 168.72 724.108 168.639 723.961C168.56 723.812 168.451 723.694 168.311 723.607C168.172 723.519 168.014 723.475 167.836 723.475C167.702 723.475 167.577 723.502 167.461 723.556C167.345 723.608 167.243 723.68 167.156 723.772C167.069 723.864 167.002 723.969 166.952 724.088C166.903 724.205 166.878 724.329 166.878 724.459C166.878 724.631 166.918 724.792 166.999 724.942C167.081 725.092 167.192 725.213 167.334 725.304C167.476 725.396 167.638 725.442 167.819 725.442ZM171.518 725.908C171.199 725.908 170.927 725.822 170.702 725.648C170.477 725.473 170.306 725.219 170.187 724.887C170.068 724.553 170.009 724.151 170.009 723.679C170.009 723.21 170.068 722.809 170.187 722.477C170.307 722.144 170.479 721.889 170.704 721.714C170.93 721.538 171.201 721.449 171.518 721.449C171.834 721.449 172.105 721.538 172.33 721.714C172.556 721.889 172.728 722.144 172.847 722.477C172.967 722.809 173.027 723.21 173.027 723.679C173.027 724.151 172.967 724.553 172.849 724.887C172.73 725.219 172.558 725.473 172.334 725.648C172.109 725.822 171.837 725.908 171.518 725.908ZM171.518 725.442C171.834 725.442 172.08 725.29 172.255 724.984C172.431 724.679 172.518 724.244 172.518 723.679C172.518 723.303 172.478 722.983 172.397 722.719C172.318 722.455 172.204 722.253 172.054 722.115C171.906 721.976 171.727 721.907 171.518 721.907C171.204 721.907 170.959 722.062 170.782 722.371C170.606 722.679 170.517 723.115 170.517 723.679C170.517 724.055 170.557 724.374 170.636 724.637C170.715 724.9 170.829 725.1 170.977 725.237C171.127 725.374 171.307 725.442 171.518 725.442Z" fill="black"/>
<path d="M281.008 725.908C280.83 725.906 280.652 725.872 280.474 725.807C280.296 725.742 280.133 725.632 279.986 725.478C279.839 725.323 279.721 725.113 279.632 724.849C279.543 724.583 279.499 724.25 279.499 723.848C279.499 723.464 279.535 723.124 279.607 722.827C279.679 722.529 279.784 722.278 279.921 722.074C280.058 721.87 280.223 721.714 280.417 721.608C280.612 721.502 280.831 721.449 281.076 721.449C281.319 721.449 281.535 721.498 281.724 721.595C281.915 721.692 282.07 721.826 282.191 721.998C282.311 722.171 282.388 722.369 282.424 722.594H281.907C281.859 722.399 281.765 722.237 281.627 722.108C281.488 721.98 281.305 721.915 281.076 721.915C280.739 721.915 280.475 722.062 280.281 722.354C280.089 722.647 279.992 723.057 279.991 723.586H280.025C280.104 723.465 280.198 723.363 280.306 723.278C280.417 723.192 280.538 723.126 280.671 723.079C280.804 723.032 280.944 723.009 281.093 723.009C281.341 723.009 281.569 723.071 281.775 723.196C281.981 723.319 282.147 723.489 282.271 723.706C282.395 723.923 282.458 724.171 282.458 724.45C282.458 724.719 282.398 724.965 282.277 725.188C282.157 725.41 281.988 725.586 281.771 725.718C281.555 725.848 281.3 725.911 281.008 725.908ZM281.008 725.442C281.186 725.442 281.346 725.398 281.487 725.309C281.63 725.22 281.742 725.1 281.824 724.95C281.907 724.801 281.949 724.634 281.949 724.45C281.949 724.271 281.909 724.108 281.828 723.961C281.749 723.812 281.64 723.694 281.5 723.607C281.361 723.519 281.203 723.475 281.025 723.475C280.891 723.475 280.766 723.502 280.65 723.556C280.534 723.608 280.432 723.68 280.345 723.772C280.258 723.864 280.191 723.969 280.141 724.088C280.092 724.205 280.067 724.329 280.067 724.459C280.067 724.631 280.107 724.792 280.188 724.942C280.27 725.092 280.381 725.213 280.523 725.304C280.665 725.396 280.827 725.442 281.008 725.442ZM284.707 725.908C284.387 725.908 284.115 725.822 283.891 725.648C283.666 725.473 283.495 725.219 283.376 724.887C283.257 724.553 283.198 724.151 283.198 723.679C283.198 723.21 283.257 722.809 283.376 722.477C283.496 722.144 283.668 721.889 283.893 721.714C284.119 721.538 284.39 721.449 284.707 721.449C285.023 721.449 285.294 721.538 285.519 721.714C285.745 721.889 285.917 722.144 286.036 722.477C286.156 722.809 286.216 723.21 286.216 723.679C286.216 724.151 286.156 724.553 286.038 724.887C285.919 725.219 285.747 725.473 285.523 725.648C285.298 725.822 285.026 725.908 284.707 725.908ZM284.707 725.442C285.023 725.442 285.269 725.29 285.444 724.984C285.62 724.679 285.707 724.244 285.707 723.679C285.707 723.303 285.667 722.983 285.586 722.719C285.507 722.455 285.393 722.253 285.243 722.115C285.095 721.976 284.916 721.907 284.707 721.907C284.393 721.907 284.148 722.062 283.971 722.371C283.795 722.679 283.706 723.115 283.706 723.679C283.706 724.055 283.746 724.374 283.825 724.637C283.904 724.9 284.018 725.1 284.166 725.237C284.316 725.374 284.496 725.442 284.707 725.442Z" fill="black"/>
<path d="M224.745 725.908C224.466 725.908 224.216 725.86 223.997 725.764C223.78 725.668 223.606 725.535 223.478 725.364C223.351 725.191 223.281 724.991 223.27 724.764H223.804C223.816 724.904 223.864 725.025 223.948 725.126C224.033 725.227 224.144 725.304 224.281 725.359C224.418 725.415 224.57 725.442 224.737 725.442C224.923 725.442 225.089 725.41 225.233 725.345C225.377 725.28 225.49 725.189 225.572 725.073C225.654 724.958 225.695 724.823 225.695 724.671C225.695 724.511 225.655 724.37 225.576 724.249C225.497 724.126 225.381 724.03 225.228 723.961C225.076 723.891 224.889 723.857 224.669 723.857H224.321V723.391H224.669C224.841 723.391 224.993 723.359 225.123 723.297C225.254 723.235 225.356 723.148 225.43 723.035C225.505 722.921 225.542 722.789 225.542 722.636C225.542 722.489 225.51 722.361 225.445 722.252C225.38 722.144 225.288 722.059 225.169 721.998C225.052 721.937 224.913 721.907 224.754 721.907C224.604 721.907 224.463 721.935 224.33 721.99C224.198 722.043 224.091 722.122 224.008 722.225C223.924 722.327 223.879 722.45 223.872 722.594H223.363C223.372 722.366 223.44 722.167 223.569 721.996C223.698 721.824 223.866 721.689 224.073 721.593C224.283 721.497 224.512 721.449 224.762 721.449C225.031 721.449 225.261 721.504 225.453 721.612C225.645 721.72 225.793 721.862 225.896 722.038C225.999 722.215 226.051 722.406 226.051 722.611C226.051 722.855 225.987 723.063 225.858 723.236C225.731 723.408 225.558 723.528 225.339 723.594V723.628C225.613 723.673 225.827 723.79 225.981 723.978C226.135 724.164 226.212 724.395 226.212 724.671C226.212 724.907 226.148 725.119 226.019 725.306C225.892 725.493 225.718 725.64 225.498 725.747C225.277 725.855 225.026 725.908 224.745 725.908ZM228.494 725.908C228.175 725.908 227.903 725.822 227.679 725.648C227.454 725.473 227.282 725.219 227.163 724.887C227.045 724.553 226.985 724.151 226.985 723.679C226.985 723.21 227.045 722.809 227.163 722.477C227.284 722.144 227.456 721.889 227.681 721.714C227.907 721.538 228.178 721.449 228.494 721.449C228.811 721.449 229.082 721.538 229.306 721.714C229.532 721.889 229.705 722.144 229.823 722.477C229.943 722.809 230.003 723.21 230.003 723.679C230.003 724.151 229.944 724.553 229.825 724.887C229.707 725.219 229.535 725.473 229.31 725.648C229.086 725.822 228.814 725.908 228.494 725.908ZM228.494 725.442C228.811 725.442 229.057 725.29 229.232 724.984C229.407 724.679 229.495 724.244 229.495 723.679C229.495 723.303 229.455 722.983 229.374 722.719C229.295 722.455 229.18 722.253 229.031 722.115C228.882 721.976 228.704 721.907 228.494 721.907C228.181 721.907 227.936 722.062 227.759 722.371C227.582 722.679 227.494 723.115 227.494 723.679C227.494 724.055 227.534 724.374 227.613 724.637C227.692 724.9 227.806 725.1 227.954 725.237C228.104 725.374 228.284 725.442 228.494 725.442Z" fill="black"/>
<path d="M357.519 725.908C357.341 725.906 357.163 725.872 356.985 725.807C356.807 725.742 356.645 725.632 356.498 725.478C356.351 725.323 356.233 725.113 356.144 724.849C356.055 724.583 356.01 724.25 356.01 723.848C356.01 723.464 356.046 723.124 356.118 722.827C356.191 722.529 356.295 722.278 356.432 722.074C356.569 721.87 356.735 721.714 356.928 721.608C357.123 721.502 357.343 721.449 357.587 721.449C357.83 721.449 358.046 721.498 358.236 721.595C358.427 721.692 358.582 721.826 358.702 721.998C358.822 722.171 358.9 722.369 358.935 722.594H358.418C358.37 722.399 358.277 722.237 358.138 722.108C358 721.98 357.816 721.915 357.587 721.915C357.251 721.915 356.986 722.062 356.792 722.354C356.6 722.647 356.504 723.057 356.502 723.586H356.536C356.615 723.465 356.709 723.363 356.818 723.278C356.928 723.192 357.05 723.126 357.182 723.079C357.315 723.032 357.456 723.009 357.604 723.009C357.853 723.009 358.08 723.071 358.287 723.196C358.493 723.319 358.658 723.489 358.783 723.706C358.907 723.923 358.969 724.171 358.969 724.45C358.969 724.719 358.909 724.965 358.789 725.188C358.669 725.41 358.5 725.586 358.282 725.718C358.066 725.848 357.812 725.911 357.519 725.908ZM357.519 725.442C357.697 725.442 357.857 725.398 357.998 725.309C358.141 725.22 358.253 725.1 358.335 724.95C358.419 724.801 358.46 724.634 358.46 724.45C358.46 724.271 358.42 724.108 358.34 723.961C358.26 723.812 358.151 723.694 358.011 723.607C357.873 723.519 357.714 723.475 357.536 723.475C357.402 723.475 357.277 723.502 357.161 723.556C357.045 723.608 356.944 723.68 356.856 723.772C356.77 723.864 356.702 723.969 356.653 724.088C356.603 724.205 356.578 724.329 356.578 724.459C356.578 724.631 356.619 724.792 356.699 724.942C356.781 725.092 356.893 725.213 357.034 725.304C357.177 725.396 357.339 725.442 357.519 725.442ZM361.218 725.908C360.899 725.908 360.627 725.822 360.402 725.648C360.178 725.473 360.006 725.219 359.887 724.887C359.769 724.553 359.709 724.151 359.709 723.679C359.709 723.21 359.769 722.809 359.887 722.477C360.007 722.144 360.18 721.889 360.404 721.714C360.63 721.538 360.902 721.449 361.218 721.449C361.535 721.449 361.805 721.538 362.03 721.714C362.256 721.889 362.428 722.144 362.547 722.477C362.667 722.809 362.727 723.21 362.727 723.679C362.727 724.151 362.668 724.553 362.549 724.887C362.431 725.219 362.259 725.473 362.034 725.648C361.81 725.822 361.538 725.908 361.218 725.908ZM361.218 725.442C361.535 725.442 361.781 725.29 361.956 724.984C362.131 724.679 362.219 724.244 362.219 723.679C362.219 723.303 362.178 722.983 362.098 722.719C362.019 722.455 361.904 722.253 361.754 722.115C361.606 721.976 361.427 721.907 361.218 721.907C360.905 721.907 360.659 722.062 360.483 722.371C360.306 722.679 360.218 723.115 360.218 723.679C360.218 724.055 360.257 724.374 360.337 724.637C360.416 724.9 360.529 725.1 360.678 725.237C360.828 725.374 361.008 725.442 361.218 725.442Z" fill="black"/>
<path d="M95.4193 725.908C95.2413 725.906 95.0632 725.872 94.8852 725.807C94.7072 725.742 94.5447 725.632 94.3978 725.478C94.2508 725.323 94.1328 725.113 94.0438 724.849C93.9548 724.583 93.9103 724.25 93.9103 723.848C93.9103 723.464 93.9463 723.124 94.0184 722.827C94.0904 722.529 94.195 722.278 94.3321 722.074C94.4691 721.87 94.6344 721.714 94.828 721.608C95.023 721.502 95.2427 721.449 95.4871 721.449C95.7301 721.449 95.9463 721.498 96.1357 721.595C96.3264 721.692 96.4818 721.826 96.6019 721.998C96.722 722.171 96.7997 722.369 96.8351 722.594H96.3179C96.2699 722.399 96.1766 722.237 96.0382 722.108C95.8997 721.98 95.716 721.915 95.4871 721.915C95.1508 721.915 94.8859 722.062 94.6924 722.354C94.5002 722.647 94.4034 723.057 94.402 723.586H94.4359C94.515 723.465 94.609 723.363 94.7178 723.278C94.828 723.192 94.9495 723.126 95.0823 723.079C95.2151 723.032 95.3557 723.009 95.5041 723.009C95.7528 723.009 95.9802 723.071 96.1865 723.196C96.3928 723.319 96.5581 723.489 96.6825 723.706C96.8068 723.923 96.869 724.171 96.869 724.45C96.869 724.719 96.8089 724.965 96.6888 725.188C96.5687 725.41 96.3999 725.586 96.1823 725.718C95.9661 725.848 95.7118 725.911 95.4193 725.908ZM95.4193 725.442C95.5973 725.442 95.757 725.398 95.8983 725.309C96.041 725.22 96.1533 725.1 96.2353 724.95C96.3186 724.801 96.3603 724.634 96.3603 724.45C96.3603 724.271 96.32 724.108 96.2395 723.961C96.1604 723.812 96.0509 723.694 95.911 723.607C95.7725 723.519 95.6143 723.475 95.4363 723.475C95.302 723.475 95.177 723.502 95.0611 723.556C94.9453 723.608 94.8435 723.68 94.7559 723.772C94.6697 723.864 94.6019 723.969 94.5525 724.088C94.503 724.205 94.4783 724.329 94.4783 724.459C94.4783 724.631 94.5186 724.792 94.5991 724.942C94.681 725.092 94.7927 725.213 94.934 725.304C95.0767 725.396 95.2384 725.442 95.4193 725.442ZM99.1182 725.908C98.7988 725.908 98.5269 725.822 98.3022 725.648C98.0775 725.473 97.9059 725.219 97.7872 724.887C97.6685 724.553 97.6092 724.151 97.6092 723.679C97.6092 723.21 97.6685 722.809 97.7872 722.477C97.9073 722.144 98.0797 721.889 98.3043 721.714C98.5304 721.538 98.8017 721.449 99.1182 721.449C99.4347 721.449 99.7052 721.538 99.9299 721.714C100.156 721.889 100.328 722.144 100.447 722.477C100.567 722.809 100.627 723.21 100.627 723.679C100.627 724.151 100.568 724.553 100.449 724.887C100.33 725.219 100.159 725.473 99.9341 725.648C99.7095 725.822 99.4375 725.908 99.1182 725.908ZM99.1182 725.442C99.4347 725.442 99.6805 725.29 99.8557 724.984C100.031 724.679 100.119 724.244 100.119 723.679C100.119 723.303 100.078 722.983 99.9977 722.719C99.9186 722.455 99.8041 722.253 99.6544 722.115C99.506 721.976 99.3273 721.907 99.1182 721.907C98.8045 721.907 98.5594 722.062 98.3827 722.371C98.2061 722.679 98.1178 723.115 98.1178 723.679C98.1178 724.055 98.1574 724.374 98.2365 724.637C98.3156 724.9 98.4294 725.1 98.5777 725.237C98.7275 725.374 98.9076 725.442 99.1182 725.442Z" fill="black"/>
<path d="M500.532 756.908V761.249H500.007V757.459H499.981L498.922 758.163V757.629L500.007 756.908H500.532ZM503.196 761.308C502.877 761.308 502.605 761.221 502.381 761.047C502.156 760.872 501.984 760.619 501.865 760.287C501.747 759.953 501.687 759.551 501.687 759.079C501.687 758.609 501.747 758.209 501.865 757.877C501.986 757.543 502.158 757.289 502.383 757.114C502.609 756.937 502.88 756.849 503.196 756.849C503.513 756.849 503.784 756.937 504.008 757.114C504.234 757.289 504.407 757.543 504.525 757.877C504.645 758.209 504.705 758.609 504.705 759.079C504.705 759.551 504.646 759.953 504.527 760.287C504.409 760.619 504.237 760.872 504.012 761.047C503.788 761.221 503.516 761.308 503.196 761.308ZM503.196 760.842C503.513 760.842 503.759 760.689 503.934 760.384C504.109 760.079 504.197 759.644 504.197 759.079C504.197 758.703 504.157 758.383 504.076 758.119C503.997 757.854 503.882 757.653 503.733 757.514C503.584 757.376 503.406 757.307 503.196 757.307C502.883 757.307 502.638 757.461 502.461 757.771C502.284 758.079 502.196 758.515 502.196 759.079C502.196 759.454 502.236 759.774 502.315 760.037C502.394 760.299 502.508 760.499 502.656 760.636C502.806 760.773 502.986 760.842 503.196 760.842ZM505.409 760.359V759.926L507.317 756.908H507.63V757.578H507.418L505.977 759.859V759.892H508.546V760.359H505.409ZM507.452 761.249V760.227V760.026V756.908H507.952V761.249H507.452Z" fill="black"/>
<path d="M1.60015 637.215C1.60156 637.037 1.63547 636.859 1.70188 636.681C1.76829 636.503 1.87849 636.341 2.0325 636.194C2.1851 636.047 2.39351 635.929 2.65772 635.84C2.92194 635.751 3.25327 635.706 3.65172 635.706C4.03745 635.706 4.38008 635.743 4.67962 635.817C4.97775 635.889 5.22925 635.993 5.43412 636.13C5.639 636.266 5.79442 636.431 5.90039 636.626C6.00636 636.82 6.05934 637.039 6.05934 637.283C6.05934 637.526 6.0113 637.743 5.91522 637.934C5.81773 638.123 5.6828 638.279 5.51042 638.4C5.33663 638.52 5.13529 638.597 4.9064 638.631V638.114C5.10562 638.067 5.27022 637.975 5.40021 637.836C5.52879 637.696 5.59308 637.512 5.59308 637.283C5.59308 636.948 5.44684 636.684 5.15436 636.491C4.86189 636.296 4.44861 636.198 3.91452 636.198V636.232C4.03321 636.311 4.13564 636.405 4.22183 636.514C4.30802 636.623 4.37443 636.743 4.42106 636.876C4.46768 637.009 4.49099 637.15 4.49099 637.3C4.49099 637.549 4.42953 637.777 4.30661 637.985C4.18227 638.191 4.01201 638.356 3.79584 638.481C3.57824 638.604 3.32957 638.665 3.04981 638.665C2.78418 638.665 2.54116 638.606 2.32074 638.487C2.09891 638.367 1.92229 638.199 1.79089 637.983C1.65949 637.765 1.59591 637.509 1.60015 637.215ZM2.06641 637.215C2.06641 637.393 2.11092 637.554 2.19994 637.696C2.28754 637.838 2.40622 637.95 2.55599 638.033C2.70435 638.115 2.86896 638.156 3.04981 638.156C3.23066 638.156 3.39527 638.117 3.54363 638.038C3.69057 637.957 3.80784 637.848 3.89545 637.709C3.98163 637.569 4.02473 637.41 4.02473 637.232C4.02473 637.098 3.99859 636.973 3.94631 636.857C3.89262 636.741 3.81985 636.64 3.72801 636.554C3.63476 636.467 3.5295 636.398 3.41223 636.349C3.29354 636.299 3.16991 636.274 3.04133 636.274C2.87178 636.274 2.71283 636.315 2.56447 636.397C2.41611 636.478 2.29601 636.589 2.20417 636.732C2.11233 636.873 2.06641 637.035 2.06641 637.215ZM6.05934 633.457C6.05934 633.776 5.97245 634.048 5.79866 634.273C5.62346 634.498 5.36983 634.669 5.0378 634.788C4.70435 634.907 4.30166 634.966 3.82975 634.966C3.36065 634.966 2.96009 634.907 2.62805 634.788C2.2946 634.668 2.04027 634.496 1.86507 634.271C1.68846 634.045 1.60015 633.774 1.60015 633.457C1.60015 633.141 1.68846 632.87 1.86507 632.645C2.04027 632.419 2.2946 632.247 2.62805 632.128C2.96009 632.008 3.36065 631.948 3.82975 631.948C4.30166 631.948 4.70435 632.007 5.0378 632.126C5.36983 632.245 5.62346 632.417 5.79866 632.641C5.97245 632.866 6.05934 633.138 6.05934 633.457ZM5.59308 633.457C5.59308 633.141 5.44048 632.895 5.13529 632.72C4.8301 632.544 4.39492 632.457 3.82975 632.457C3.45391 632.457 3.13388 632.497 2.86966 632.578C2.60544 632.657 2.4041 632.771 2.26564 632.921C2.12717 633.069 2.05794 633.248 2.05794 633.457C2.05794 633.771 2.21265 634.016 2.52208 634.193C2.8301 634.369 3.26599 634.458 3.82975 634.458C4.20558 634.458 4.5249 634.418 4.78771 634.339C5.05051 634.26 5.25044 634.146 5.3875 633.998C5.52455 633.848 5.59308 633.668 5.59308 633.457Z" fill="black"/>
<path d="M994.523 646.33L990.683 644.388H990.649V646.626H990.183V643.846H990.675L994.523 645.779V646.33ZM994.583 641.708C994.58 641.886 994.546 642.064 994.481 642.242C994.416 642.42 994.307 642.583 994.153 642.729C993.997 642.876 993.787 642.994 993.523 643.083C993.257 643.172 992.924 643.217 992.523 643.217C992.138 643.217 991.798 643.181 991.501 643.109C991.203 643.037 990.952 642.932 990.749 642.795C990.544 642.658 990.389 642.493 990.283 642.299C990.177 642.104 990.124 641.885 990.124 641.64C990.124 641.397 990.172 641.181 990.27 640.992C990.366 640.801 990.5 640.645 990.673 640.525C990.845 640.405 991.043 640.327 991.268 640.292V640.809C991.073 640.857 990.911 640.951 990.783 641.089C990.654 641.228 990.59 641.411 990.59 641.64C990.59 641.976 990.736 642.241 991.029 642.435C991.321 642.627 991.731 642.724 992.26 642.725V642.691C992.14 642.612 992.037 642.518 991.953 642.409C991.866 642.299 991.8 642.178 991.753 642.045C991.707 641.912 991.683 641.772 991.683 641.623C991.683 641.374 991.746 641.147 991.87 640.941C991.993 640.734 992.163 640.569 992.381 640.445C992.597 640.32 992.845 640.258 993.125 640.258C993.393 640.258 993.639 640.318 993.862 640.438C994.084 640.559 994.261 640.727 994.392 640.945C994.522 641.161 994.586 641.415 994.583 641.708ZM994.117 641.708C994.117 641.53 994.072 641.37 993.983 641.229C993.894 641.086 993.775 640.974 993.625 640.892C993.475 640.809 993.308 640.767 993.125 640.767C992.945 640.767 992.782 640.807 992.635 640.888C992.487 640.967 992.369 641.076 992.281 641.216C992.194 641.355 992.15 641.513 992.15 641.691C992.15 641.825 992.177 641.95 992.23 642.066C992.283 642.182 992.355 642.284 992.446 642.371C992.538 642.457 992.644 642.525 992.762 642.575C992.879 642.624 993.003 642.649 993.133 642.649C993.305 642.649 993.467 642.609 993.616 642.528C993.766 642.446 993.887 642.335 993.979 642.193C994.071 642.051 994.117 641.889 994.117 641.708Z" fill="black"/>
<path d="M994.583 543.04C994.583 543.331 994.531 543.588 994.428 543.811C994.324 544.033 994.18 544.206 993.998 544.33C993.814 544.455 993.605 544.516 993.37 544.515C993.187 544.516 993.017 544.48 992.862 544.407C992.705 544.333 992.574 544.233 992.47 544.106C992.364 543.977 992.297 543.834 992.268 543.676H992.243C992.189 543.883 992.073 544.049 991.893 544.172C991.712 544.294 991.507 544.355 991.277 544.354C991.056 544.355 990.859 544.299 990.685 544.186C990.511 544.073 990.374 543.918 990.274 543.72C990.174 543.521 990.124 543.294 990.124 543.04C990.124 542.788 990.174 542.564 990.274 542.366C990.374 542.168 990.511 542.013 990.685 541.9C990.859 541.785 991.056 541.727 991.277 541.726C991.507 541.727 991.712 541.79 991.893 541.914C992.073 542.037 992.189 542.2 992.243 542.404H992.268C992.297 542.247 992.364 542.106 992.47 541.98C992.574 541.854 992.705 541.754 992.862 541.679C993.017 541.604 993.187 541.566 993.37 541.565C993.605 541.566 993.814 541.63 993.998 541.755C994.18 541.88 994.324 542.053 994.428 542.275C994.531 542.495 994.583 542.75 994.583 543.04ZM994.117 543.04C994.117 542.843 994.085 542.674 994.021 542.531C993.958 542.388 993.868 542.278 993.752 542.2C993.636 542.123 993.5 542.083 993.345 542.082C993.181 542.083 993.036 542.126 992.911 542.209C992.785 542.292 992.686 542.406 992.614 542.55C992.542 542.693 992.506 542.856 992.506 543.04C992.506 543.225 992.542 543.39 992.614 543.536C992.686 543.68 992.785 543.794 992.911 543.877C993.036 543.959 993.181 543.999 993.345 543.998C993.5 543.999 993.636 543.962 993.752 543.885C993.868 543.808 993.958 543.697 994.021 543.553C994.085 543.409 994.117 543.238 994.117 543.04ZM992.056 543.04C992.056 542.884 992.025 542.747 991.963 542.626C991.901 542.505 991.814 542.41 991.703 542.34C991.591 542.271 991.46 542.236 991.31 542.234C991.163 542.236 991.036 542.27 990.927 542.338C990.817 542.406 990.732 542.5 990.673 542.62C990.612 542.74 990.581 542.88 990.581 543.04C990.581 543.202 990.612 543.344 990.673 543.466C990.732 543.587 990.817 543.681 990.927 543.748C991.036 543.814 991.163 543.847 991.31 543.845C991.46 543.847 991.591 543.813 991.703 543.746C991.814 543.676 991.901 543.581 991.963 543.459C992.025 543.338 992.056 543.198 992.056 543.04ZM993.633 540.854H993.201L990.183 538.947V538.633H990.853V538.845L993.133 540.286H993.167V537.717H993.633V540.854ZM994.523 538.811H993.502H993.301H990.183V538.311H994.523V538.811Z" fill="black"/>
<path d="M994.583 253.875C994.583 254.166 994.531 254.423 994.428 254.646C994.324 254.868 994.18 255.041 993.998 255.166C993.814 255.29 993.605 255.351 993.37 255.35C993.187 255.351 993.017 255.315 992.862 255.242C992.705 255.169 992.574 255.068 992.47 254.941C992.364 254.812 992.297 254.669 992.268 254.511H992.243C992.189 254.718 992.073 254.884 991.893 255.007C991.712 255.13 991.507 255.19 991.277 255.189C991.056 255.19 990.859 255.135 990.685 255.022C990.511 254.909 990.374 254.753 990.274 254.555C990.174 254.356 990.124 254.129 990.124 253.875C990.124 253.623 990.174 253.399 990.274 253.201C990.374 253.003 990.511 252.848 990.685 252.735C990.859 252.62 991.056 252.562 991.277 252.561C991.507 252.562 991.712 252.625 991.893 252.75C992.073 252.872 992.189 253.036 992.243 253.239H992.268C992.297 253.082 992.364 252.941 992.47 252.815C992.574 252.69 992.705 252.589 992.862 252.514C993.017 252.439 993.187 252.401 993.37 252.4C993.605 252.401 993.814 252.465 993.998 252.591C994.18 252.715 994.324 252.888 994.428 253.11C994.531 253.33 994.583 253.585 994.583 253.875ZM994.117 253.875C994.117 253.679 994.085 253.509 994.021 253.366C993.958 253.224 993.868 253.113 993.752 253.036C993.636 252.958 993.5 252.918 993.345 252.917C993.181 252.918 993.036 252.961 992.911 253.044C992.785 253.128 992.686 253.241 992.614 253.385C992.542 253.528 992.506 253.691 992.506 253.875C992.506 254.06 992.542 254.225 992.614 254.371C992.686 254.515 992.785 254.629 992.911 254.712C993.036 254.794 993.181 254.834 993.345 254.833C993.5 254.834 993.636 254.797 993.752 254.721C993.868 254.643 993.958 254.532 994.021 254.388C994.085 254.244 994.117 254.073 994.117 253.875ZM992.056 253.875C992.056 253.72 992.025 253.582 991.963 253.462C991.901 253.34 991.814 253.245 991.703 253.176C991.591 253.106 991.46 253.071 991.31 253.07C991.163 253.071 991.036 253.106 990.927 253.173C990.817 253.241 990.732 253.335 990.673 253.455C990.612 253.575 990.581 253.715 990.581 253.875C990.581 254.037 990.612 254.179 990.673 254.301C990.732 254.422 990.817 254.516 990.927 254.583C991.036 254.649 991.163 254.682 991.31 254.68C991.46 254.682 991.591 254.649 991.703 254.581C991.814 254.511 991.901 254.416 991.963 254.295C992.025 254.173 992.056 254.033 992.056 253.875ZM993.633 251.689H993.201L990.183 249.782V249.468H990.853V249.68L993.133 251.121H993.167V248.553H993.633V251.689ZM994.523 249.646H993.502H993.301H990.183V249.146H994.523V249.646Z" fill="black"/>
<path d="M994.523 156.259L990.683 154.317H990.649V156.555H990.183V153.775H990.675L994.523 155.708V156.259ZM994.583 151.662C994.583 151.981 994.496 152.253 994.322 152.478C994.147 152.703 993.893 152.874 993.561 152.993C993.228 153.112 992.825 153.171 992.353 153.171C991.884 153.171 991.484 153.112 991.151 152.993C990.818 152.873 990.564 152.701 990.389 152.476C990.212 152.25 990.124 151.979 990.124 151.662C990.124 151.346 990.212 151.075 990.389 150.85C990.564 150.624 990.818 150.452 991.151 150.333C991.484 150.213 991.884 150.153 992.353 150.153C992.825 150.153 993.228 150.212 993.561 150.331C993.893 150.45 994.147 150.622 994.322 150.846C994.496 151.071 994.583 151.343 994.583 151.662ZM994.117 151.662C994.117 151.346 993.964 151.1 993.659 150.925C993.354 150.749 992.918 150.662 992.353 150.662C991.977 150.662 991.657 150.702 991.393 150.783C991.129 150.862 990.928 150.976 990.789 151.126C990.651 151.274 990.581 151.453 990.581 151.662C990.581 151.976 990.736 152.221 991.046 152.398C991.354 152.574 991.789 152.662 992.353 152.662C992.729 152.662 993.048 152.623 993.311 152.544C993.574 152.465 993.774 152.351 993.911 152.203C994.048 152.053 994.117 151.873 994.117 151.662Z" fill="black"/>
<path d="M990.183 401.916H994.523V402.442H990.734V402.467L991.438 403.527H990.904L990.183 402.442V401.916ZM993.633 400.77H993.201L990.183 398.862V398.549H990.853V398.76L993.133 400.202H993.167V397.633H993.633V400.77ZM994.523 398.727H993.502H993.301H990.183V398.226H994.523V398.727ZM994.523 396.839H994.142L992.574 395.406C992.39 395.238 992.23 395.099 992.095 394.991C991.958 394.882 991.829 394.801 991.709 394.749C991.587 394.695 991.46 394.668 991.327 394.668C991.175 394.668 991.043 394.705 990.931 394.779C990.819 394.851 990.733 394.95 990.673 395.075C990.612 395.201 990.581 395.342 990.581 395.499C990.581 395.666 990.616 395.812 990.685 395.936C990.753 396.059 990.848 396.154 990.971 396.222C991.094 396.288 991.238 396.322 991.404 396.322V396.822C991.149 396.822 990.926 396.763 990.734 396.646C990.542 396.529 990.392 396.369 990.285 396.167C990.177 395.963 990.124 395.735 990.124 395.482C990.124 395.228 990.177 395.003 990.285 394.806C990.392 394.61 990.537 394.456 990.719 394.344C990.901 394.233 991.104 394.177 991.327 394.177C991.487 394.177 991.643 394.206 991.796 394.264C991.947 394.32 992.116 394.419 992.302 394.56C992.487 394.7 992.713 394.895 992.981 395.143L994.023 396.118H994.057V394.1H994.523V396.839Z" fill="black"/>
<path d="M1036.47 403.544H1036.04L1033.02 401.636V401.323H1033.69V401.535L1035.97 402.976H1036V400.407H1036.47V403.544ZM1037.36 401.501H1036.34H1036.14H1033.02V401.001H1037.36V401.501ZM1037.42 398.257C1037.42 398.505 1037.37 398.729 1037.27 398.928C1037.17 399.128 1037.04 399.287 1036.86 399.407C1036.69 399.528 1036.49 399.593 1036.27 399.605V399.096C1036.47 399.076 1036.63 398.987 1036.76 398.829C1036.89 398.669 1036.95 398.478 1036.95 398.257C1036.95 398.079 1036.91 397.92 1036.83 397.782C1036.74 397.642 1036.63 397.532 1036.48 397.453C1036.34 397.373 1036.17 397.333 1035.99 397.333C1035.8 397.333 1035.63 397.374 1035.48 397.458C1035.33 397.54 1035.21 397.653 1035.13 397.797C1035.04 397.941 1035 398.105 1034.99 398.29C1034.99 398.423 1035.01 398.56 1035.06 398.7C1035.1 398.839 1035.15 398.955 1035.21 399.045L1035.16 399.537L1033.02 399.274V397.019H1033.49V398.833L1034.77 398.986V398.96C1034.69 398.871 1034.64 398.76 1034.59 398.625C1034.54 398.491 1034.52 398.351 1034.52 398.206C1034.52 397.94 1034.58 397.703 1034.71 397.496C1034.84 397.287 1035.01 397.123 1035.23 397.004C1035.45 396.884 1035.7 396.824 1035.98 396.824C1036.25 396.824 1036.5 396.886 1036.72 397.01C1036.94 397.133 1037.11 397.303 1037.23 397.519C1037.36 397.735 1037.42 397.981 1037.42 398.257ZM1037.42 394.541C1037.42 394.719 1037.38 394.897 1037.32 395.075C1037.25 395.253 1037.14 395.415 1036.99 395.562C1036.83 395.709 1036.62 395.827 1036.36 395.916C1036.09 396.005 1035.76 396.05 1035.36 396.05C1034.97 396.05 1034.63 396.014 1034.34 395.942C1034.04 395.87 1033.79 395.765 1033.58 395.628C1033.38 395.491 1033.22 395.326 1033.12 395.132C1033.01 394.937 1032.96 394.717 1032.96 394.473C1032.96 394.23 1033.01 394.014 1033.11 393.824C1033.2 393.634 1033.34 393.478 1033.51 393.358C1033.68 393.238 1033.88 393.16 1034.1 393.125V393.642C1033.91 393.69 1033.75 393.783 1033.62 393.922C1033.49 394.06 1033.43 394.244 1033.43 394.473C1033.43 394.809 1033.57 395.074 1033.86 395.268C1034.16 395.46 1034.57 395.557 1035.1 395.558V395.524C1034.98 395.445 1034.87 395.351 1034.79 395.242C1034.7 395.132 1034.64 395.011 1034.59 394.878C1034.54 394.745 1034.52 394.604 1034.52 394.456C1034.52 394.207 1034.58 393.98 1034.71 393.774C1034.83 393.567 1035 393.402 1035.22 393.278C1035.43 393.153 1035.68 393.091 1035.96 393.091C1036.23 393.091 1036.47 393.151 1036.7 393.271C1036.92 393.391 1037.1 393.56 1037.23 393.778C1037.36 393.994 1037.42 394.248 1037.42 394.541ZM1036.95 394.541C1036.95 394.363 1036.91 394.203 1036.82 394.062C1036.73 393.919 1036.61 393.807 1036.46 393.725C1036.31 393.641 1036.14 393.6 1035.96 393.6C1035.78 393.6 1035.62 393.64 1035.47 393.721C1035.32 393.8 1035.2 393.909 1035.12 394.049C1035.03 394.188 1034.99 394.346 1034.99 394.524C1034.99 394.658 1035.01 394.783 1035.07 394.899C1035.12 395.015 1035.19 395.117 1035.28 395.204C1035.37 395.29 1035.48 395.358 1035.6 395.408C1035.72 395.457 1035.84 395.482 1035.97 395.482C1036.14 395.482 1036.3 395.442 1036.45 395.361C1036.6 395.279 1036.72 395.167 1036.81 395.026C1036.91 394.883 1036.95 394.722 1036.95 394.541Z" fill="black"/>
<path d="M6.05934 526.945C6.05934 527.236 6.00777 527.493 5.90463 527.716C5.80007 527.938 5.65666 528.111 5.47439 528.236C5.29071 528.36 5.0816 528.421 4.84705 528.42C4.66337 528.421 4.49382 528.385 4.3384 528.312C4.18156 528.238 4.05087 528.138 3.94631 528.011C3.84034 527.882 3.77323 527.739 3.74497 527.581H3.71954C3.66585 527.788 3.54928 527.954 3.36984 528.077C3.18898 528.199 2.9834 528.26 2.7531 528.259C2.53268 528.26 2.33558 528.204 2.16179 528.091C1.988 527.978 1.85094 527.823 1.75062 527.625C1.65031 527.426 1.60015 527.199 1.60015 526.945C1.60015 526.693 1.65031 526.469 1.75062 526.271C1.85094 526.073 1.988 525.918 2.16179 525.805C2.33558 525.69 2.53268 525.632 2.7531 525.631C2.9834 525.632 3.18898 525.695 3.36984 525.819C3.54928 525.942 3.66585 526.106 3.71954 526.309H3.74497C3.77323 526.152 3.84034 526.011 3.94631 525.885C4.05087 525.759 4.18156 525.659 4.3384 525.584C4.49382 525.509 4.66337 525.471 4.84705 525.47C5.0816 525.471 5.29071 525.535 5.47439 525.66C5.65666 525.785 5.80007 525.958 5.90463 526.18C6.00777 526.4 6.05934 526.655 6.05934 526.945ZM5.59308 526.945C5.59308 526.748 5.56129 526.579 5.4977 526.436C5.43412 526.293 5.3444 526.183 5.22854 526.106C5.11268 526.028 4.97704 525.988 4.82162 525.987C4.65772 525.988 4.5129 526.031 4.38714 526.114C4.26139 526.197 4.16249 526.311 4.09043 526.455C4.01837 526.598 3.98234 526.761 3.98234 526.945C3.98234 527.13 4.01837 527.295 4.09043 527.441C4.16249 527.585 4.26139 527.699 4.38714 527.782C4.5129 527.864 4.65772 527.904 4.82162 527.903C4.97704 527.904 5.11268 527.867 5.22854 527.79C5.3444 527.713 5.43412 527.602 5.4977 527.458C5.56129 527.314 5.59308 527.143 5.59308 526.945ZM3.53303 526.945C3.53303 526.789 3.50195 526.652 3.43978 526.532C3.37761 526.41 3.29071 526.315 3.17909 526.245C3.06747 526.176 2.93678 526.141 2.78701 526.139C2.64006 526.141 2.51219 526.175 2.4034 526.243C2.29319 526.311 2.20841 526.405 2.14907 526.525C2.08831 526.645 2.05794 526.785 2.05794 526.945C2.05794 527.107 2.08831 527.249 2.14907 527.371C2.20841 527.492 2.29319 527.586 2.4034 527.653C2.51219 527.719 2.64006 527.752 2.78701 527.75C2.93678 527.752 3.06747 527.718 3.17909 527.651C3.29071 527.581 3.37761 527.486 3.43978 527.364C3.50195 527.243 3.53303 527.103 3.53303 526.945ZM5.10986 524.759H4.6775L1.65949 522.852V522.538H2.32922V522.75L4.60968 524.191H4.64359V521.622H5.10986V524.759ZM6 522.716H4.97845H4.77711H1.65949V522.216H6V522.716Z" fill="black"/>
<path d="M1.65949 397.115H6V397.64H2.21053V397.666L2.91417 398.726H2.38008L1.65949 397.64V397.115ZM6 395.867H5.61851L4.05016 394.434C3.86648 394.266 3.70682 394.127 3.57118 394.018C3.43413 393.91 3.30555 393.829 3.18545 393.777C3.06394 393.723 2.93678 393.696 2.80396 393.696C2.65136 393.696 2.51926 393.733 2.40764 393.807C2.29601 393.879 2.20983 393.977 2.14907 394.103C2.08831 394.229 2.05794 394.37 2.05794 394.527C2.05794 394.694 2.09255 394.839 2.16179 394.964C2.22961 395.087 2.32498 395.182 2.4479 395.25C2.57083 395.316 2.71495 395.349 2.88026 395.349V395.85C2.62593 395.85 2.40269 395.791 2.21053 395.674C2.01837 395.556 1.8686 395.397 1.76122 395.195C1.65384 394.991 1.60015 394.763 1.60015 394.51C1.60015 394.256 1.65384 394.03 1.76122 393.834C1.8686 393.638 2.01343 393.484 2.1957 393.372C2.37796 393.26 2.58072 393.205 2.80396 393.205C2.96362 393.205 3.11975 393.234 3.27235 393.291C3.42353 393.348 3.59237 393.447 3.77888 393.588C3.96397 393.728 4.19004 393.922 4.45708 394.171L5.49982 395.146H5.53373V393.128H6V395.867ZM6.05934 390.837C6.05934 391.157 5.97245 391.429 5.79866 391.653C5.62346 391.878 5.36983 392.05 5.0378 392.168C4.70435 392.287 4.30166 392.346 3.82975 392.346C3.36065 392.346 2.96009 392.287 2.62805 392.168C2.2946 392.048 2.04027 391.876 1.86507 391.651C1.68846 391.425 1.60015 391.154 1.60015 390.837C1.60015 390.521 1.68846 390.25 1.86507 390.026C2.04027 389.799 2.2946 389.627 2.62805 389.508C2.96009 389.388 3.36065 389.328 3.82975 389.328C4.30166 389.328 4.70435 389.388 5.0378 389.506C5.36983 389.625 5.62346 389.797 5.79866 390.021C5.97245 390.246 6.05934 390.518 6.05934 390.837ZM5.59308 390.837C5.59308 390.521 5.44048 390.275 5.13529 390.1C4.8301 389.924 4.39492 389.837 3.82975 389.837C3.45391 389.837 3.13388 389.877 2.86966 389.958C2.60544 390.037 2.4041 390.151 2.26564 390.301C2.12717 390.449 2.05794 390.628 2.05794 390.837C2.05794 391.151 2.21265 391.396 2.52208 391.573C2.8301 391.749 3.26599 391.838 3.82975 391.838C4.20558 391.838 4.5249 391.798 4.78771 391.719C5.05051 391.64 5.25044 391.526 5.3875 391.378C5.52455 391.228 5.59308 391.048 5.59308 390.837Z" fill="black"/>
<path d="M6.05934 280.788C6.05652 280.966 6.02261 281.144 5.95761 281.322C5.89262 281.5 5.78312 281.663 5.62911 281.81C5.47368 281.956 5.26387 282.074 4.99965 282.163C4.73402 282.252 4.40057 282.297 3.9993 282.297C3.61498 282.297 3.27447 282.261 2.97775 282.189C2.67962 282.117 2.42883 282.012 2.22537 281.875C2.02049 281.738 1.86507 281.573 1.7591 281.379C1.65313 281.184 1.60015 280.965 1.60015 280.72C1.60015 280.477 1.64889 280.261 1.74639 280.072C1.84246 279.881 1.97669 279.725 2.14907 279.605C2.32145 279.485 2.51996 279.408 2.74462 279.372V279.889C2.54963 279.937 2.38785 280.031 2.25928 280.169C2.1307 280.308 2.06641 280.491 2.06641 280.72C2.06641 281.056 2.21265 281.321 2.50513 281.515C2.7976 281.707 3.20806 281.804 3.73649 281.805V281.771C3.61639 281.692 3.51396 281.598 3.42918 281.489C3.34299 281.379 3.27658 281.258 3.22996 281.125C3.18333 280.992 3.16002 280.852 3.16002 280.703C3.16002 280.455 3.22219 280.227 3.34652 280.021C3.46945 279.814 3.63971 279.649 3.8573 279.525C4.07348 279.4 4.32144 279.338 4.6012 279.338C4.86966 279.338 5.11551 279.398 5.33875 279.518C5.56058 279.639 5.7372 279.807 5.8686 280.025C5.99859 280.241 6.06217 280.495 6.05934 280.788ZM5.59308 280.788C5.59308 280.61 5.54857 280.45 5.45956 280.309C5.37054 280.166 5.25115 280.054 5.10138 279.972C4.95161 279.889 4.78488 279.847 4.6012 279.847C4.42176 279.847 4.25857 279.887 4.11162 279.968C3.96327 280.047 3.84529 280.156 3.75769 280.296C3.67008 280.435 3.62628 280.593 3.62628 280.771C3.62628 280.905 3.65313 281.03 3.70682 281.146C3.7591 281.262 3.83116 281.364 3.923 281.451C4.01484 281.538 4.1201 281.605 4.23879 281.655C4.35606 281.704 4.47969 281.729 4.60968 281.729C4.78206 281.729 4.94313 281.689 5.0929 281.608C5.24267 281.526 5.36348 281.415 5.45532 281.273C5.54716 281.131 5.59308 280.969 5.59308 280.788ZM6.05934 277.089C6.05934 277.408 5.97245 277.68 5.79866 277.905C5.62346 278.13 5.36983 278.301 5.0378 278.42C4.70435 278.539 4.30166 278.598 3.82975 278.598C3.36065 278.598 2.96009 278.539 2.62805 278.42C2.2946 278.3 2.04027 278.128 1.86507 277.903C1.68846 277.677 1.60015 277.406 1.60015 277.089C1.60015 276.773 1.68846 276.502 1.86507 276.277C2.04027 276.051 2.2946 275.879 2.62805 275.76C2.96009 275.64 3.36065 275.58 3.82975 275.58C4.30166 275.58 4.70435 275.639 5.0378 275.758C5.36983 275.877 5.62346 276.048 5.79866 276.273C5.97245 276.498 6.05934 276.77 6.05934 277.089ZM5.59308 277.089C5.59308 276.773 5.44048 276.527 5.13529 276.352C4.8301 276.176 4.39492 276.089 3.82975 276.089C3.45391 276.089 3.13388 276.129 2.86966 276.21C2.60544 276.289 2.4041 276.403 2.26564 276.553C2.12717 276.701 2.05794 276.88 2.05794 277.089C2.05794 277.403 2.21265 277.648 2.52208 277.825C2.8301 278.001 3.26599 278.089 3.82975 278.089C4.20558 278.089 4.5249 278.05 4.78771 277.971C5.05051 277.892 5.25044 277.778 5.3875 277.63C5.52455 277.48 5.59308 277.3 5.59308 277.089Z" fill="black"/>
<path d="M1.65949 181.702H6V182.228H2.21053V182.253L2.91417 183.313H2.38008L1.65949 182.228V181.702ZM6.05934 179.038C6.05934 179.357 5.97245 179.629 5.79866 179.854C5.62346 180.079 5.36983 180.25 5.0378 180.369C4.70435 180.488 4.30166 180.547 3.82975 180.547C3.36065 180.547 2.96009 180.488 2.62805 180.369C2.2946 180.249 2.04027 180.077 1.86507 179.852C1.68846 179.626 1.60015 179.355 1.60015 179.038C1.60015 178.722 1.68846 178.451 1.86507 178.226C2.04027 178 2.2946 177.828 2.62805 177.709C2.96009 177.589 3.36065 177.529 3.82975 177.529C4.30166 177.529 4.70435 177.588 5.0378 177.707C5.36983 177.826 5.62346 177.998 5.79866 178.222C5.97245 178.447 6.05934 178.719 6.05934 179.038ZM5.59308 179.038C5.59308 178.722 5.44048 178.476 5.13529 178.301C4.8301 178.125 4.39492 178.038 3.82975 178.038C3.45391 178.038 3.13388 178.078 2.86966 178.159C2.60544 178.238 2.4041 178.352 2.26564 178.502C2.12717 178.65 2.05794 178.829 2.05794 179.038C2.05794 179.352 2.21265 179.597 2.52208 179.774C2.8301 179.95 3.26599 180.038 3.82975 180.038C4.20558 180.038 4.5249 179.999 4.78771 179.92C5.05051 179.841 5.25044 179.727 5.3875 179.579C5.52455 179.429 5.59308 179.249 5.59308 179.038ZM6 176.724H5.61851L4.05016 175.291C3.86648 175.123 3.70682 174.984 3.57118 174.876C3.43413 174.767 3.30555 174.686 3.18545 174.634C3.06394 174.58 2.93678 174.554 2.80396 174.554C2.65136 174.554 2.51926 174.59 2.40764 174.664C2.29601 174.736 2.20983 174.835 2.14907 174.96C2.08831 175.086 2.05794 175.227 2.05794 175.384C2.05794 175.551 2.09255 175.697 2.16179 175.821C2.22961 175.944 2.32498 176.039 2.4479 176.107C2.57083 176.173 2.71495 176.207 2.88026 176.207V176.707C2.62593 176.707 2.40269 176.648 2.21053 176.531C2.01837 176.414 1.8686 176.254 1.76122 176.052C1.65384 175.848 1.60015 175.62 1.60015 175.367C1.60015 175.113 1.65384 174.888 1.76122 174.691C1.8686 174.495 2.01343 174.341 2.1957 174.229C2.37796 174.118 2.58072 174.062 2.80396 174.062C2.96362 174.062 3.11975 174.091 3.27235 174.149C3.42353 174.205 3.59237 174.304 3.77888 174.445C3.96397 174.585 4.19004 174.78 4.45708 175.028L5.49982 176.003H5.53373V173.986H6V176.724Z" fill="black"/>
<path d="M499.372 6.00006L501.313 2.15973V2.12582H499.075V1.65955H501.855V2.15125L499.923 6.00006H499.372ZM503.968 6.0594C503.649 6.0594 503.377 5.97251 503.152 5.79872C502.927 5.62352 502.756 5.3699 502.637 5.03786C502.518 4.70441 502.459 4.30172 502.459 3.82981C502.459 3.36071 502.518 2.96015 502.637 2.62811C502.757 2.29466 502.929 2.04034 503.154 1.86513C503.38 1.68852 503.652 1.60021 503.968 1.60021C504.284 1.60021 504.555 1.68852 504.78 1.86513C505.006 2.04034 505.178 2.29466 505.297 2.62811C505.417 2.96015 505.477 3.36071 505.477 3.82981C505.477 4.30172 505.418 4.70441 505.299 5.03786C505.18 5.3699 505.009 5.62352 504.784 5.79872C504.559 5.97251 504.287 6.0594 503.968 6.0594ZM503.968 5.59314C504.284 5.59314 504.53 5.44054 504.706 5.13535C504.881 4.83016 504.968 4.39498 504.968 3.82981C504.968 3.45397 504.928 3.13394 504.848 2.86972C504.768 2.60551 504.654 2.40416 504.504 2.2657C504.356 2.12723 504.177 2.058 503.968 2.058C503.654 2.058 503.409 2.21271 503.233 2.52214C503.056 2.83016 502.968 3.26605 502.968 3.82981C502.968 4.20564 503.007 4.52497 503.086 4.78777C503.165 5.05057 503.279 5.2505 503.428 5.38756C503.577 5.52461 503.757 5.59314 503.968 5.59314ZM507.698 6.0594C507.379 6.0594 507.107 5.97251 506.882 5.79872C506.658 5.62352 506.486 5.3699 506.367 5.03786C506.248 4.70441 506.189 4.30172 506.189 3.82981C506.189 3.36071 506.248 2.96015 506.367 2.62811C506.487 2.29466 506.66 2.04034 506.884 1.86513C507.11 1.68852 507.382 1.60021 507.698 1.60021C508.015 1.60021 508.285 1.68852 508.51 1.86513C508.736 2.04034 508.908 2.29466 509.027 2.62811C509.147 2.96015 509.207 3.36071 509.207 3.82981C509.207 4.30172 509.148 4.70441 509.029 5.03786C508.91 5.3699 508.739 5.62352 508.514 5.79872C508.289 5.97251 508.017 6.0594 507.698 6.0594ZM507.698 5.59314C508.015 5.59314 508.26 5.44054 508.436 5.13535C508.611 4.83016 508.698 4.39498 508.698 3.82981C508.698 3.45397 508.658 3.13394 508.578 2.86972C508.499 2.60551 508.384 2.40416 508.234 2.2657C508.086 2.12723 507.907 2.058 507.698 2.058C507.384 2.058 507.139 2.21271 506.963 2.52214C506.786 2.83016 506.698 3.26605 506.698 3.82981C506.698 4.20564 506.737 4.52497 506.816 4.78777C506.896 5.05057 507.009 5.2505 507.158 5.38756C507.307 5.52461 507.488 5.59314 507.698 5.59314Z" fill="black"/>
<path d="M909.187 54.1515L911.128 50.3112V50.2773H908.89V49.811H911.671V50.3027L909.738 54.1515H909.187ZM913.783 54.2108C913.464 54.2108 913.192 54.1239 912.967 53.9502C912.743 53.775 912.571 53.5213 912.452 53.1893C912.334 52.8558 912.274 52.4532 912.274 51.9812C912.274 51.5122 912.334 51.1116 912.452 50.7795C912.573 50.4461 912.745 50.1918 912.97 50.0166C913.196 49.84 913.467 49.7516 913.783 49.7516C914.1 49.7516 914.37 49.84 914.595 50.0166C914.821 50.1918 914.994 50.4461 915.112 50.7795C915.232 51.1116 915.292 51.5122 915.292 51.9812C915.292 52.4532 915.233 52.8558 915.114 53.1893C914.996 53.5213 914.824 53.775 914.599 53.9502C914.375 54.1239 914.103 54.2108 913.783 54.2108ZM913.783 53.7446C914.1 53.7446 914.346 53.592 914.521 53.2868C914.696 52.9816 914.784 52.5464 914.784 51.9812C914.784 51.6054 914.744 51.2854 914.663 51.0212C914.584 50.7569 914.469 50.5556 914.32 50.4171C914.171 50.2787 913.993 50.2094 913.783 50.2094C913.47 50.2094 913.225 50.3641 913.048 50.6736C912.871 50.9816 912.783 51.4175 912.783 51.9812C912.783 52.3571 912.823 52.6764 912.902 52.9392C912.981 53.202 913.095 53.4019 913.243 53.539C913.393 53.676 913.573 53.7446 913.783 53.7446Z" fill="black"/>
<path d="M96.2449 54.1515L98.1862 50.3112V50.2773H95.9481V49.811H98.7288V50.3027L96.7959 54.1515H96.2449ZM100.841 54.2108C100.522 54.2108 100.25 54.1239 100.025 53.9502C99.8007 53.775 99.629 53.5213 99.5103 53.1893C99.3916 52.8558 99.3323 52.4532 99.3323 51.9812C99.3323 51.5122 99.3916 51.1116 99.5103 50.7795C99.6304 50.4461 99.8028 50.1918 100.027 50.0166C100.254 49.84 100.525 49.7516 100.841 49.7516C101.158 49.7516 101.428 49.84 101.653 50.0166C101.879 50.1918 102.051 50.4461 102.17 50.7795C102.29 51.1116 102.35 51.5122 102.35 51.9812C102.35 52.4532 102.291 52.8558 102.172 53.1893C102.054 53.5213 101.882 53.775 101.657 53.9502C101.433 54.1239 101.161 54.2108 100.841 54.2108ZM100.841 53.7446C101.158 53.7446 101.404 53.592 101.579 53.2868C101.754 52.9816 101.842 52.5464 101.842 51.9812C101.842 51.6054 101.801 51.2854 101.721 51.0212C101.642 50.7569 101.527 50.5556 101.377 50.4171C101.229 50.2787 101.05 50.2094 100.841 50.2094C100.528 50.2094 100.282 50.3641 100.106 50.6736C99.9292 50.9816 99.8409 51.4175 99.8409 51.9812C99.8409 52.3571 99.8805 52.6764 99.9596 52.9392C100.039 53.202 100.152 53.4019 100.301 53.539C100.451 53.676 100.631 53.7446 100.841 53.7446Z" fill="black"/>
<path d="M58.6721 26.2847H958.369" stroke="black" stroke-width="0.5" stroke-miterlimit="10"/>
<path d="M59.8177 26.2842L61.2162 23.9848L61.1371 23.9312L57.3881 25.4216C56.0815 25.7074 54.7774 25.9958 53.4707 26.2816C54.7774 26.57 56.084 26.8559 57.3881 27.1442L61.1371 28.6346L61.2162 28.5938L59.8177 26.2842Z" fill="black"/>
<path d="M962.874 26.2843L956.524 28.8798L958.033 26.2843L956.524 23.6914L962.874 26.2843Z" fill="black"/>
<path d="M1025.51 688.552V105.761" stroke="black" stroke-width="0.5" stroke-miterlimit="10"/>
<path d="M1025.51 687.409L1023.21 686.008L1023.15 686.087L1024.64 689.836C1024.93 691.143 1025.22 692.447 1025.51 693.753C1025.79 692.447 1026.08 691.143 1026.37 689.836L1027.86 686.087L1027.82 686.008L1025.51 687.409Z" fill="black"/>
<path d="M1025.51 101.256L1028.1 107.603L1025.51 106.098L1022.92 107.603L1025.51 101.256Z" fill="black"/>
</g>
</svg>
