<svg width="148" height="128" viewBox="0 0 148 128" fill="none" xmlns="http://www.w3.org/2000/svg">
<path d="M60.9526 103.009L61.0039 110.033L60.9746 109.989C61.1394 110.062 61.3408 110.095 61.5165 110.051C61.696 110.014 61.8424 109.886 61.9486 109.732L61.9376 109.765L61.8864 102.811H62.1098L62.0585 109.765V109.784L62.0475 109.798C61.9303 109.97 61.7546 110.117 61.5422 110.161C61.3334 110.205 61.121 110.168 60.927 110.08L60.8977 110.066V110.033L60.9526 103.009Z" fill="#85CEE4"/>
<path d="M112.227 96.0588L112.175 102.713L112.143 102.658C112.304 102.734 112.505 102.771 112.681 102.731C112.86 102.694 113.01 102.57 113.117 102.416L113.109 102.445L113.161 95.4912L113.212 102.445V102.46L113.204 102.474C113.091 102.647 112.915 102.797 112.706 102.841C112.498 102.888 112.282 102.855 112.088 102.767L112.055 102.753V102.713L112.003 96.0588H112.227Z" fill="#85CEE4"/>
<path d="M59.5537 97.1023L61.0039 102.994L60.894 103.005L60.8391 96.7837H61.0624L61.0075 103.005C61.0075 103.035 60.9819 103.06 60.9526 103.06C60.927 103.06 60.905 103.042 60.8977 103.016L59.5537 97.1023Z" fill="#85CEE4"/>
<path d="M111.326 96.1685L113.161 95.9195V92.415" stroke="#85CEE4" stroke-width="0.606" stroke-miterlimit="10"/>
<path d="M60.9526 96.7876L61.0148 103.009L60.9453 102.947C66.4308 102.163 71.9164 101.405 77.4092 100.669C82.8984 99.9295 88.3913 99.2118 93.8915 98.538C88.4133 99.3546 82.9241 100.127 77.4385 100.878C71.9493 101.632 66.4601 102.365 60.9636 103.071L60.8903 103.082V103.013L60.9526 96.7876Z" fill="#85CEE4"/>
<path d="M99.2233 84.6409L83.228 82.799L67.2401 80.9204H67.2511L55.5146 80.9387L55.6172 80.8215L57.1186 93.7627L57.0124 93.6749L77.1016 91.6938L87.1463 90.7087L97.1946 89.7493L87.1572 90.8002L77.1163 91.8292L57.0343 93.8726C56.9794 93.8762 56.9318 93.8396 56.9281 93.7847L55.4194 80.8435C55.4121 80.7886 55.4524 80.7336 55.511 80.73H55.522L67.2584 80.7483H67.2694L83.2536 82.6745L99.2233 84.6409Z" fill="#85CEE4"/>
<path d="M114.98 87.9733L116.636 87.7499L118.295 87.5522L119.953 87.3728L121.612 87.2006L121.609 87.4167C120.591 87.2849 119.573 87.1677 118.555 87.0249C117.537 86.8894 116.522 86.7392 115.508 86.5781C116.533 86.6623 117.555 86.7539 118.576 86.8601C119.598 86.959 120.616 87.0871 121.638 87.197C121.696 87.2043 121.74 87.2592 121.733 87.3178C121.726 87.3691 121.685 87.4094 121.634 87.413L119.972 87.5705L118.309 87.7206L116.647 87.8561L114.98 87.9733Z" fill="#85CEE4"/>
<path d="M55.511 80.8362L55.5256 82.0885C55.8149 84.6409 56.0822 87.1933 56.3496 89.7456L57.1222 97.4063L56.9025 97.4173L56.9098 93.7774V93.7884C56.6645 91.6462 56.4301 89.5186 56.2141 87.3617C55.9944 85.2122 55.7673 83.0223 55.511 80.8362ZM55.511 80.8362C55.7563 82.9674 56.031 85.0877 56.3093 87.2519C56.5912 89.4087 56.8622 91.5949 57.1186 93.7664V93.7737V93.781L57.1259 97.421L56.9062 97.432L56.1738 89.7676C55.9394 87.2116 55.7051 84.6556 55.4927 82.0959L55.511 80.8362Z" fill="#85CEE4"/>
<path d="M97.1872 89.7529L87.1499 90.8112L77.109 91.8366L57.027 93.8872L57.1222 93.7774V97.4173L57.0014 97.3111L76.5267 94.9345L86.2894 93.7481L96.0557 92.5909L86.304 93.8506L76.545 95.0774L57.027 97.5235L56.9098 97.5382V97.4173L56.9062 93.7774V93.6785L57.0051 93.6712L77.0943 91.6938L87.139 90.7087L97.1872 89.7529Z" fill="#85CEE4"/>
<path d="M114.047 90.2545L121.616 89.372L121.561 89.4305L121.576 87.3066L121.627 87.3506L114.98 87.9731L121.616 87.2627L121.667 87.2554V87.3066L121.682 89.4305V89.4818L121.631 89.4891L114.072 90.4742L114.047 90.2545Z" fill="#85CEE4"/>
<path d="M93.756 114.35L101.439 111.259L109.14 108.216L109.052 108.275C109.729 107.517 110.187 106.579 110.484 105.594C110.78 104.606 110.93 103.573 111.026 102.533C111.212 100.446 111.234 98.3475 111.077 96.2602L111.07 96.1869L111.103 96.1247C111.663 95.0261 112.201 93.9166 112.714 92.796C113.223 91.6718 113.724 90.5476 114.193 89.4087C115.134 87.1274 115.977 84.8057 116.713 82.4511L116.735 82.3742L116.808 82.3559C117.218 82.246 117.496 81.7297 117.357 81.3196L117.474 81.4038L109.015 81.3562L104.786 81.3635C104.075 81.3599 103.372 81.3123 102.673 81.3159C102.325 81.3196 101.973 81.3379 101.629 81.3782C101.457 81.4001 101.285 81.4221 101.116 81.4587C100.948 81.4917 100.776 81.5283 100.644 81.5979C100.399 81.7077 100.373 82.1179 100.241 82.4438C100.124 82.7807 99.9886 83.1102 99.8531 83.4362C99.5785 84.0843 99.3368 84.7435 99.0768 85.3989L97.5425 89.3392L96.0081 93.2794C95.5064 94.594 94.9571 95.9013 94.5214 97.2233C94.0746 98.5452 93.8366 99.9038 93.7853 101.299C93.7231 102.69 93.789 104.097 93.7817 105.518C93.778 106.931 93.6828 108.388 93.28 109.784C92.8918 111.171 92.2217 112.537 91.1231 113.555C90.5775 114.061 89.933 114.464 89.2299 114.72C88.5268 114.976 87.7798 115.086 87.0437 115.075C85.5643 115.049 84.1362 114.551 82.8985 113.793C81.6571 113.021 80.6281 111.981 79.7492 110.857C78.863 109.732 78.1087 108.528 77.3616 107.33L77.6949 107.422C77.4568 107.539 77.2115 107.586 76.9662 107.601C76.7208 107.608 76.4681 107.583 76.2228 107.477C75.9774 107.381 75.7358 107.143 75.6625 106.861C75.5856 106.583 75.6259 106.305 75.7321 106.063C75.9665 105.558 76.4535 105.316 76.8856 105.188C77.3323 105.056 77.7608 105.016 78.1416 104.891L78.1563 104.888L78.1673 104.884L85.6156 103.449L93.0712 102.046L93.0822 102.105L85.6705 103.727L78.2515 105.32L78.2771 105.312C77.834 105.463 77.3983 105.507 77.0174 105.627C76.6402 105.741 76.2924 105.957 76.1642 106.257C76.0983 106.407 76.08 106.583 76.1239 106.726C76.1679 106.865 76.2631 106.96 76.4169 107.026C76.7208 107.154 77.1602 107.125 77.4605 106.975L77.6692 106.869L77.7937 107.063C78.5554 108.249 79.3171 109.428 80.1886 110.509C81.0602 111.585 82.0562 112.57 83.2134 113.288C84.3705 113.995 85.7071 114.453 87.0547 114.471C87.7249 114.478 88.395 114.376 89.0175 114.149C89.64 113.922 90.2113 113.559 90.6983 113.109C91.6834 112.197 92.2986 110.93 92.6831 109.623C93.0713 108.304 93.1774 106.92 93.1884 105.521C93.2067 104.122 93.1482 102.709 93.2214 101.281C93.2836 99.8562 93.54 98.4134 94.0197 97.0695C94.4921 95.7219 95.056 94.4329 95.5797 93.1219L97.1763 89.2037L98.7729 85.2854C99.0402 84.6336 99.2965 83.9745 99.5821 83.33C99.7213 83.0077 99.8604 82.6855 99.9813 82.3596C100.044 82.1984 100.091 82.0336 100.15 81.8579C100.183 81.77 100.216 81.6784 100.278 81.5906C100.336 81.499 100.432 81.4258 100.523 81.3782C100.71 81.2866 100.889 81.2573 101.065 81.2244C101.241 81.1914 101.42 81.1658 101.596 81.1511C101.951 81.1145 102.31 81.1035 102.665 81.1035C103.376 81.1035 104.079 81.1548 104.782 81.1621L109.012 81.1804L117.471 81.1584H117.562L117.591 81.2427C117.778 81.8029 117.456 82.4511 116.885 82.6305L116.98 82.5353C116.288 84.9119 115.489 87.2629 114.592 89.5735C114.138 90.727 113.673 91.8769 113.161 93.0047C112.652 94.1363 112.117 95.2568 111.56 96.3627L111.586 96.2236C111.674 97.2819 111.718 98.3438 111.699 99.4094C111.685 100.471 111.623 101.533 111.516 102.588C111.41 103.646 111.249 104.708 110.93 105.741C110.612 106.77 110.117 107.77 109.378 108.583L109.341 108.623L109.294 108.641L101.541 111.549L93.7707 114.405L93.756 114.35Z" fill="#85CEE4"/>
<path d="M70.8727 81.2682L71.2096 78.5437L71.2169 78.4741H71.2865L74.3589 78.5107H74.4028L74.3955 78.5547C74.238 79.5764 74.1538 80.6127 74.0879 81.6453C74.1282 80.609 74.1867 79.5727 74.3186 78.5437L74.3552 78.5876L71.2829 78.6243L71.3597 78.5547L71.0924 81.2865L70.8727 81.2682Z" fill="#85CEE4"/>
<path d="M74.9851 81.7664C75.018 81.2208 75.0656 80.6752 75.1388 80.1332C75.1755 79.8622 75.2158 79.5912 75.2707 79.3203C75.3256 79.0493 75.3879 78.782 75.505 78.522L75.5234 78.478H75.571L79.2841 78.3645H79.3427L79.3208 78.4194C79.0937 79.0163 78.9656 79.6535 78.885 80.287C78.8118 80.9242 78.7934 81.5723 78.8337 82.2132C78.7788 81.5723 78.7825 80.9242 78.8447 80.2797C78.9143 79.6388 79.0241 78.998 79.2475 78.3828L79.2841 78.4377L75.5746 78.6245L75.6405 78.5806C75.538 78.8186 75.4794 79.0822 75.4318 79.3459C75.3842 79.6096 75.3476 79.8769 75.3183 80.1479C75.2597 80.6862 75.2231 81.2281 75.2011 81.7664H74.9851Z" fill="#85CEE4"/>
<path d="M80.2509 82.396C80.2729 81.7039 80.3278 81.0191 80.423 80.3344C80.4743 79.9938 80.5329 79.6532 80.6171 79.3127C80.7123 78.9795 80.8112 78.6352 81.0638 78.3496L81.0821 78.3276H81.1151L85.9305 78.1921H85.9818L85.9708 78.2397C85.8024 79.0234 85.6632 79.8107 85.5497 80.6017C85.4398 81.3927 85.3519 82.1909 85.3519 82.9929C85.3373 82.1909 85.4142 81.3927 85.5131 80.5944C85.6156 79.7997 85.7438 79.0087 85.8976 78.2214L85.9378 78.269L81.1224 78.4851L81.1737 78.4631C80.9686 78.6975 80.8698 79.038 80.7855 79.3603C80.7086 79.6899 80.6537 80.0268 80.6098 80.3637C80.5292 81.0411 80.4852 81.7259 80.4743 82.4033L80.2509 82.396Z" fill="#85CEE4"/>
<path d="M87.9995 83.3191C88.0215 82.4475 88.0801 81.5833 88.1899 80.7191C88.2412 80.287 88.3144 79.8585 88.4133 79.4301C88.5122 79.0053 88.6293 78.5805 88.8527 78.1887L88.8747 78.1521H88.9186L95.1878 78.0679H95.2464L95.2245 78.1228C95.045 78.5879 94.9205 79.0786 94.8143 79.5693C94.7081 80.06 94.6312 80.558 94.5653 81.0597C94.5031 81.5577 94.4628 82.063 94.4371 82.5647C94.4115 83.0664 94.4079 83.5717 94.4079 84.0771C94.3969 83.5717 94.3969 83.0701 94.4152 82.5647C94.4335 82.0594 94.4701 81.5577 94.525 81.056C94.5836 80.5543 94.6532 80.0563 94.7557 79.5583C94.8583 79.0639 94.9755 78.5732 95.1512 78.0935L95.1878 78.1448L88.9186 78.3096L88.9846 78.2693C88.7795 78.6355 88.6696 79.0529 88.5781 79.4704C88.4902 79.8878 88.4206 80.3163 88.373 80.7411C88.2741 81.5943 88.2265 82.4585 88.2192 83.3191H87.9995Z" fill="#85CEE4"/>
<path d="M98.5971 84.5678C98.6337 83.4728 98.7289 82.3816 98.879 81.294C99.0365 80.2101 99.2526 79.1298 99.6187 78.0898L99.6261 78.0679H99.6517L110.385 77.7859L110.509 77.7822L110.473 77.9031C110.154 79.0163 109.898 80.1478 109.696 81.2903L109.477 81.2501C109.693 80.1039 109.964 78.9687 110.297 77.8518L110.388 77.969L99.6517 78.1374L99.6847 78.1155C99.3112 79.1408 99.0841 80.2174 98.9157 81.2977C98.7509 82.3816 98.6447 83.4728 98.5971 84.5678Z" fill="#85CEE4"/>
<path d="M116.91 90.0166C116.936 90.7673 116.746 91.5107 116.467 92.2064C116.313 92.5873 116.13 92.9681 115.845 93.2647C115.178 93.9532 114.131 94.063 113.175 94.1289" stroke="#85CEE4" stroke-width="0.606" stroke-miterlimit="10"/>
<path d="M120.832 98.5598L120.722 105.316L120.613 98.5598H120.832Z" fill="#85CEE4"/>
<path d="M121.982 98.5415L121.872 104.36L121.762 98.5415H121.982Z" fill="#85CEE4"/>
<path d="M74.5346 87.8708L81.8694 87.208C83.0925 87.0908 84.3156 86.9883 85.5387 86.8931C86.7654 86.8162 87.9885 86.7356 89.2189 86.699V86.7209C87.9995 86.8821 86.7764 86.9956 85.557 87.1128C84.3339 87.2153 83.1108 87.3032 81.8841 87.3838L74.5383 87.8928L74.5346 87.8708Z" fill="#85CEE4"/>
<path d="M88.113 86.7903L91.8152 87.9365C92.4304 88.1269 93.0529 88.3063 93.6608 88.526C94.2687 88.7494 94.8766 88.9655 95.4698 89.2291L95.4625 89.2511C94.829 89.1083 94.2101 88.9215 93.5912 88.7348C92.9724 88.5443 92.3682 88.3173 91.7603 88.1049L88.1057 86.8123L88.113 86.7903Z" fill="#85CEE4"/>
<path d="M73.5899 88.4602C74.4651 88.8703 75.3366 89.2878 76.2045 89.7089C76.6402 89.9176 77.0797 90.1154 77.5044 90.3461C77.9256 90.5841 78.3467 90.8185 78.7495 91.0931L78.7385 91.1114C78.2808 90.9503 77.8413 90.7416 77.4019 90.5402C76.9661 90.3351 76.545 90.0934 76.1239 89.8627C75.2743 89.405 74.4248 88.9436 73.5789 88.4749L73.5899 88.4602Z" fill="#85CEE4"/>
<path d="M77.6802 91.203L86.2711 90.2509C87.7029 90.0861 89.1347 89.9323 90.5702 89.7895C92.0056 89.665 93.4411 89.5332 94.8802 89.449L94.8839 89.4709C93.4557 89.6797 92.0239 89.8408 90.5958 90.0092C89.164 90.1594 87.7285 90.2985 86.293 90.4267L77.6875 91.225L77.6802 91.203Z" fill="#85CEE4"/>
<path d="M81.8804 87.2886L85.0297 88.6435C85.5533 88.8705 86.0843 89.0866 86.597 89.3356C87.1096 89.5919 87.6223 89.8446 88.113 90.1412L88.102 90.1632C87.5564 89.9837 87.0291 89.7604 86.5018 89.5406C85.9781 89.3173 85.4691 89.0573 84.9528 88.8083L81.8694 87.3105L81.8804 87.2886Z" fill="#85CEE4"/>
<path d="M46.1694 79.2029L46.2097 66.6572V66.584H46.283L53.9583 66.6096H54.0096V66.6572L53.9583 82.6927L53.9107 66.6572L53.9583 66.7085L46.283 66.7305L46.3525 66.6572L46.3928 79.2029H46.1694Z" fill="#85CEE4"/>
<path d="M47.0483 69.9346L53.3358 69.8613V70.0078L47.0483 69.9346Z" fill="#85CEE4"/>
<path d="M53.9473 66.6534L54.6797 64.0388L54.7383 63.8301V64.0461L54.8042 75.3138C54.8189 77.1924 54.8225 79.071 54.8079 80.9495C54.7786 82.8281 54.7749 84.7067 54.7163 86.5852H54.6944C54.6358 84.7067 54.6321 82.8281 54.6028 80.9495C54.5882 79.071 54.5918 77.1924 54.6065 75.3138L54.6724 64.0461L54.731 64.0535L53.962 66.6571L53.9473 66.6534Z" fill="#85CEE4"/>
<path d="M54.709 64.0391C56.4082 64.0757 58.1109 64.1269 59.8101 64.2002C61.5092 64.2661 63.2083 64.3393 64.9075 64.4455C66.6066 64.5481 68.3021 64.6543 70.0012 64.7238L75.0986 64.9143L75.1755 64.9179V64.9985C75.2011 67.2835 75.2121 69.5686 75.2084 71.8536L75.2048 71.8243L75.4391 72.7178L75.4538 72.7727L75.4208 72.8167L75.1828 73.1243L75.2048 73.0547C75.2048 74.4243 75.1791 75.7975 75.1681 77.167C75.1572 78.5366 75.1388 79.9098 75.1059 81.2794H75.0839C75.051 79.9098 75.0327 78.5366 75.0217 77.167C75.0107 75.7975 74.9851 74.4243 74.9851 73.0547V73.0181L75.007 72.9888L75.245 72.6775L75.2267 72.7764L74.9887 71.8829L74.9851 71.8682V71.8536C74.9814 69.5686 74.9924 67.2835 75.018 64.9985L75.0949 65.079L70.0012 64.7971C68.3021 64.7092 66.6029 64.6579 64.9038 64.603C63.2047 64.5517 61.5055 64.4638 59.8064 64.376C58.1073 64.2881 56.4118 64.1819 54.7127 64.0647L54.709 64.0391Z" fill="#85CEE4"/>
<path d="M56.042 71.3005L64.6768 71.4324H64.717V71.4726L64.7353 77.4599V77.5185H64.6768L60.363 77.5331C58.9239 77.5295 57.4884 77.5404 56.0493 77.5258H55.9834V77.4599L56.042 71.3005ZM56.0493 71.3115L56.1079 77.4599L56.042 77.394C57.4811 77.3793 58.9166 77.3866 60.3557 77.3866L64.6694 77.4013L64.6108 77.4599L64.6292 71.4726L64.6694 71.5129L56.0493 71.3115Z" fill="#85CEE4"/>
<path d="M56.4411 71.7363C57.7118 71.74 59.0081 71.7583 60.3044 71.7729C60.9526 71.7803 61.6008 71.7839 62.2526 71.8059L64.2044 71.8608H64.2483V71.9048L64.2263 74.4791L64.2447 77.0534V77.0937H64.2044C61.6191 77.123 59.0337 77.1377 56.4448 77.1267H56.3679V77.0534L56.4411 71.7363ZM56.4521 71.7473L56.5217 77.0607L56.4484 76.9875C59.0338 76.9765 61.6191 76.9912 64.208 77.0205L64.1678 77.0607L64.1861 74.4864L64.1641 71.9121L64.208 71.956L62.2782 71.9304C61.6374 71.9267 60.9929 71.8975 60.3484 71.8791C59.0557 71.8352 57.7667 71.7986 56.4521 71.7473Z" fill="#85CEE4"/>
<path d="M65.9548 64.5664L65.8449 80.8363L65.7314 64.5664H65.9548Z" fill="#85CEE4"/>
<path d="M70.8361 64.7896L70.7226 81.2206L70.6127 64.7896H70.8361Z" fill="#85CEE4"/>
<path d="M71.2389 64.7896L71.1291 79.5873L71.0155 64.7896H71.2389Z" fill="#85CEE4"/>
<path d="M58.2574 80.8434C58.2391 80.4589 58.2025 80.0707 58.1476 79.6862C58.1183 79.4958 58.0853 79.3054 58.0414 79.1186C57.9974 78.9355 57.9388 78.7488 57.8473 78.6023L57.8326 78.5766V78.5547V78.4045V78.324H57.9132L62.2855 78.3752H62.3075L62.3148 78.3936C62.4576 78.7781 62.5602 79.1772 62.6224 79.58C62.6883 79.9828 62.7067 80.3966 62.6627 80.8031C62.7286 79.9865 62.5492 79.1699 62.2599 78.4155L62.2855 78.4338L57.9132 78.4851L57.9938 78.4045V78.5547L57.9791 78.5071C58.1 78.6902 58.1586 78.8842 58.2098 79.0747C58.2611 79.2687 58.3014 79.4628 58.3343 79.6569C58.4002 80.0451 58.4442 80.4369 58.4735 80.8287L58.2574 80.8434Z" fill="#85CEE4"/>
<path d="M46.2793 66.6573L44.3751 63.1785" stroke="#85CEE4" stroke-width="0.606" stroke-miterlimit="10"/>
<path d="M44.4117 79.386L44.4593 72.1904L44.4923 72.2453L43.0092 71.3518L43.0898 71.3079L43.0385 79.6204L42.9836 71.3079V71.2126L43.0641 71.2603L44.5582 72.1355L44.5875 72.1538V72.1904L44.6351 79.386H44.4117Z" fill="#85CEE4"/>
<path d="M43.976 71.8645L44.3385 71.3005L44.3348 71.3079L44.2762 61.4317L44.2799 61.4573L42.9506 58.1982L43.1264 58.1653C43.1447 60.3551 43.152 62.5449 43.1447 64.7384L43.1044 68.0231C43.0971 69.118 43.0751 70.213 43.0458 71.3079H43.0239C42.9946 70.213 42.9726 69.118 42.9653 68.0231L42.925 64.7384C42.9177 62.5486 42.925 60.3587 42.9433 58.1653L42.947 57.6929L43.1191 58.1286L44.4154 61.4024L44.419 61.417V61.4317L44.3605 71.3079V71.3115L44.3568 71.3152L43.9869 71.8755L43.976 71.8645Z" fill="#85CEE4"/>
<path d="M43.0385 58.1726L42.145 58.1799L42.1633 58.1616L42.2366 68.8727C42.2732 72.4431 42.2658 76.0135 42.156 79.5838H42.134C42.0242 76.0135 42.0168 72.4431 42.0535 68.8727L42.1267 58.1616V58.1433H42.145L43.0385 58.1506V58.1726Z" fill="#85CEE4"/>
<path d="M42.134 58.169C41.7861 57.5758 41.4456 56.9825 41.1087 56.382C40.9402 56.0854 40.7571 55.7924 40.6107 55.4811C40.4678 55.1699 40.325 54.8586 40.2188 54.5254L40.2371 54.5144C40.4532 54.789 40.6253 55.0857 40.8047 55.3786C40.9769 55.6752 41.116 55.9902 41.2625 56.3014C41.5628 56.9166 41.8594 57.5391 42.1523 58.158L42.134 58.169Z" fill="#85CEE4"/>
<path d="M40.2188 79.6205L40.1932 68.6714L40.2042 68.6971L39.7574 68.2466L39.7391 68.2283L39.7538 68.2027L40.1932 67.4117L40.1895 67.43L40.1566 51.1418L40.1639 51.1675L36.2676 41.7783L36.3482 41.8332L34.8102 41.8369L34.9017 41.7454L34.9201 60.9301L34.8798 70.5243L34.8212 80.1149H34.7992L34.7406 70.5243L34.704 60.9301L34.7186 41.7454V41.6538H34.8102L36.3482 41.6575H36.4068L36.4324 41.7124L40.2921 51.1162L40.2994 51.1272V51.1418L40.2664 67.43V67.441L40.2628 67.4483L39.816 68.2393L39.8124 68.1954L40.2555 68.6494L40.2628 68.6568V68.6714L40.2408 79.6205H40.2188Z" fill="#85CEE4"/>
<path d="M36.3592 41.7451L36.4361 60.9043C36.4544 64.0974 36.4617 67.2906 36.4581 70.4838C36.4214 73.677 36.4251 76.8702 36.3592 80.0634H36.3372C36.2713 76.8702 36.2713 73.677 36.2383 70.4838C36.2347 67.2906 36.242 64.0974 36.2603 60.9043L36.3372 41.7451H36.3592Z" fill="#85CEE4"/>
<path d="M34.8029 41.7487L32.3421 36.7759C31.9319 35.9446 31.5108 35.1207 31.1263 34.2821C30.7455 33.4399 30.361 32.5976 30.0204 31.7371L30.0387 31.7261C30.4928 32.5317 30.9066 33.3593 31.3241 34.1869C31.7342 35.0145 32.1114 35.8604 32.4995 36.699L34.8212 41.7414L34.8029 41.7487Z" fill="#85CEE4"/>
<path d="M16.0465 0.449707C17.3136 2.78235 18.5733 5.12231 19.8183 7.4696L23.5388 14.5151L27.2117 21.5863C28.4311 23.9446 29.6359 26.3138 30.8333 28.6831C29.5663 26.3504 28.3066 24.0105 27.0616 21.6632L23.3411 14.6177L19.6682 7.5465C18.4488 5.18822 17.2403 2.81897 16.0465 0.449707Z" fill="#85CEE4"/>
<path d="M30.1413 27.0024L30.0277 80.4847L29.9179 27.0024H30.1413Z" fill="#85CEE4"/>
<path d="M7.25794 45.279L9.86523 45.2716H9.87255L9.87621 45.2753L30.079 60.8384L29.9655 60.9556L29.0756 59.9303L29.039 59.89L29.061 59.8387L29.9472 57.8247L29.9655 57.9272L19.8696 48.3952L9.83959 38.7974L9.86523 38.8047L7.25794 38.7791V38.7571L9.86523 38.7314H9.87987L9.89086 38.7424L20.0234 48.2341L30.09 57.799L30.1376 57.843L30.1119 57.9016L29.2184 59.9083L29.2038 59.8167L30.09 60.8494L29.9801 60.9666L9.85424 45.3046L9.86523 45.3082L7.25794 45.3009V45.279Z" fill="#85CEE4"/>
<path d="M9.87621 32.3267L9.95311 69.3962L9.97509 87.9328C9.93847 94.1105 9.94213 100.288 9.87621 106.469H9.85424C9.78833 100.292 9.78833 94.1141 9.75537 87.9328L9.77734 69.3962L9.85424 32.3267H9.87621Z" fill="#85CEE4"/>
<path d="M7.25794 33.0188L7.30921 41.7671L7.33118 50.5154L7.3678 68.0121L7.33118 85.5087L7.30921 94.2607L7.25794 103.009L7.20301 94.2607L7.18104 85.5087L7.14442 68.0121L7.18104 50.5154L7.20301 41.7671L7.25794 33.0188Z" fill="#85CEE4"/>
<path d="M30.1412 82.8098L30.0973 98.2594V98.2887L30.0753 98.307L0.541992 126.189L29.9838 98.2082L29.9618 98.2594L29.9179 82.8098H30.1412Z" fill="#85CEE4"/>
<path d="M30.0277 97.2635L32.9756 94.5977" stroke="#85CEE4" stroke-width="0.606" stroke-miterlimit="10"/>
<path d="M75.0839 65.2107L75.0693 64.7896V64.7786L75.0803 64.7713C76.047 64.0902 77.0321 63.431 78.0171 62.7829C79.0022 62.1274 79.9946 61.4829 81.0016 60.864L81.0272 60.8494L81.0528 60.853L82.0269 60.9995L82.0745 61.0068V61.0508C82.0489 62.4936 82.0489 63.9364 82.0818 65.3828C82.1038 66.8256 82.1294 68.2684 82.1331 69.7149C82.1404 71.1577 82.1404 72.6005 82.1185 74.0469C82.0928 75.4897 82.0818 76.9325 82.0306 78.379H82.0086C81.9573 76.9362 81.95 75.4934 81.9207 74.0469C81.8987 72.6041 81.8987 71.1613 81.9061 69.7149C81.9097 68.2721 81.9354 66.8293 81.9573 65.3828C81.9866 63.94 81.9903 62.4972 81.9647 61.0508L82.0123 61.102L81.0309 60.9958L81.0785 60.9849C80.1044 61.655 79.112 62.2995 78.116 62.933C77.1199 63.5702 76.1202 64.2 75.1059 64.8116L75.1169 64.7896L75.1022 65.2107H75.0839Z" fill="#85CEE4"/>
<path d="M81.0529 60.9226C81.1261 62.38 81.1517 63.8375 81.1334 65.2913C81.0858 66.7487 81.0529 68.2062 81.1005 69.6599C81.1774 72.5748 81.1847 75.486 81.0492 78.4009H81.0272C80.8917 75.486 80.9027 72.5748 80.9759 69.6599C81.0272 68.2025 80.9906 66.745 80.943 65.2913C80.9247 63.8338 80.9503 62.3764 81.0236 60.9226H81.0529Z" fill="#85CEE4"/>
<path d="M81.9683 61.8455L88.1094 58.634L82.0745 62.0396L81.9683 61.8455Z" fill="#85CEE4"/>
<path d="M88.4499 79.5873C88.4353 78.042 88.4023 76.4967 88.4023 74.9513L88.3803 70.3154V70.2824L88.406 70.2568L88.926 69.7514L88.904 69.843L88.3767 68.4258L88.3693 68.4112V68.3929C88.351 66.6132 88.3767 64.8371 88.3803 63.0574L88.406 57.722V57.6891L88.4316 57.6744L91.5406 55.9533L94.6312 54.2029L100.809 50.6912L100.831 50.6765L100.86 50.6802L102.233 50.8376L102.314 50.8486V50.9329L102.332 64.4856L102.292 71.2601C102.281 73.5195 102.263 75.7789 102.23 78.0347H102.208C102.178 75.7753 102.156 73.5159 102.145 71.2601L102.105 64.4856L102.123 50.9329L102.204 51.0244L100.834 50.8486L100.886 50.8376L94.6715 54.2835L91.5662 56.0119L88.4755 57.766L88.5012 57.7184L88.5268 63.0538C88.5305 64.8335 88.5561 66.6095 88.5378 68.3892L88.5305 68.3562L89.0468 69.7807L89.0651 69.832L89.0248 69.8686L88.5012 70.3666L88.5268 70.308L88.5048 74.944C88.5012 76.4893 88.4719 78.0347 88.4572 79.58H88.4499V79.5873Z" fill="#85CEE4"/>
<path d="M100.867 50.7754C100.941 53.0531 100.966 55.3308 100.948 57.6085C100.9 59.8862 100.867 62.1639 100.915 64.4417C100.948 66.7194 100.981 68.9971 100.97 71.2748C100.974 72.4136 100.955 73.5525 100.937 74.6914C100.922 75.8302 100.904 76.9691 100.867 78.1079H100.845C100.809 76.9691 100.791 75.8302 100.776 74.6914C100.758 73.5525 100.739 72.4136 100.743 71.2748C100.732 68.9971 100.761 66.7194 100.798 64.4417C100.849 62.1639 100.813 59.8862 100.765 57.6085C100.747 55.3308 100.772 53.0531 100.845 50.7754H100.867Z" fill="#85CEE4"/>
<path d="M102.175 51.5958L117.529 43.5688L102.277 51.7898L102.175 51.5958Z" fill="#85CEE4"/>
<path d="M112.08 98.8345L111.447 98.6514" stroke="#85CEE4" stroke-width="0.606" stroke-miterlimit="10"/>
<path d="M134.868 32.543L126.226 37.3035L117.569 42.042L117.613 41.9651C117.624 45.107 117.632 48.2453 117.617 51.3872L117.591 60.8093L117.588 60.7946L118.295 63.607L118.302 63.6326L118.287 63.6546L117.569 64.636L117.58 64.603C117.573 68.3052 117.551 72.0111 117.566 75.7133L117.591 86.8235L117.46 86.8199C117.555 85.2526 117.723 83.6926 117.991 82.1473C118.122 81.3746 118.28 80.6056 118.492 79.8476C118.705 79.0896 118.95 78.3389 119.327 77.6358L119.353 77.5882H119.408L133.301 77.2293L133.455 77.2256L133.404 77.3721C132.975 78.5842 132.58 79.8073 132.199 81.0377C131.822 82.2681 131.463 83.5022 131.141 84.7472C130.818 85.9923 130.514 87.241 130.28 88.5044C130.049 89.7641 129.841 91.0347 129.793 92.3164L129.789 92.2908C129.961 93.0854 130.049 93.891 130.057 94.7003C130.057 95.5059 129.976 96.3335 129.654 97.0952C129.493 97.4724 129.258 97.8276 128.947 98.1022C128.636 98.3805 128.248 98.5636 127.845 98.6479C127.438 98.7357 127.032 98.7284 126.633 98.7431C126.23 98.7504 125.827 98.7541 125.428 98.7467C123.82 98.7467 122.216 98.549 120.62 98.6332C119.031 98.7101 117.419 99.1019 116.094 100.01L116.083 100.017L116.068 100.014L113.157 99.1642L113.164 99.1422L116.086 99.9552L116.061 99.9588C117.386 99.025 119.012 98.6039 120.613 98.5197C122.224 98.4245 123.828 98.6112 125.428 98.6002C125.827 98.6039 126.23 98.5966 126.629 98.5856C127.028 98.571 127.435 98.5709 127.812 98.4867C128.193 98.4025 128.552 98.2304 128.837 97.9704C129.126 97.7141 129.343 97.3808 129.496 97.0183C129.8 96.2932 129.873 95.484 129.87 94.693C129.859 93.8983 129.764 93.1 129.592 92.3274L129.588 92.3127V92.3018C129.628 91.0054 129.822 89.7238 130.06 88.4567C130.298 87.1861 130.602 85.9337 130.928 84.685C131.254 83.4363 131.613 82.1985 131.994 80.9681C132.375 79.7377 132.774 78.511 133.202 77.2952L133.305 77.438L119.411 77.7786L119.492 77.731C119.122 78.4084 118.873 79.1518 118.661 79.8988C118.445 80.6459 118.287 81.4112 118.148 82.1802C117.873 83.7182 117.698 85.2745 117.591 86.8309L117.46 86.8272L117.485 75.7169C117.504 72.0147 117.478 68.3089 117.471 64.6067V64.5884L117.482 64.5737L118.192 63.5887L118.181 63.6363L117.46 60.8276L117.456 60.8203V60.813L117.43 51.3908C117.416 48.2489 117.423 45.1107 117.434 41.9687V41.9175L117.478 41.8918L126.157 37.1973L134.846 32.5247L134.868 32.543Z" fill="#85CEE4"/>
<path d="M137.271 38.1492C137.311 42.2432 137.34 46.3409 137.355 50.4349L137.38 62.7206L137.355 75.0063C137.34 79.1004 137.311 83.198 137.271 87.2921C137.23 83.198 137.201 79.1004 137.186 75.0063L137.161 62.7206L137.186 50.4349C137.201 46.3409 137.23 42.2469 137.271 38.1492Z" fill="#85CEE4"/>
<path d="M138.625 39.6543C138.666 43.3565 138.695 47.055 138.71 50.7572L138.735 61.8601L138.71 72.9631C138.695 76.6653 138.666 80.3638 138.625 84.066C138.585 80.3638 138.556 76.6653 138.541 72.9631L138.516 61.8601L138.541 50.7572C138.556 47.0587 138.585 43.3565 138.625 39.6543Z" fill="#85CEE4"/>
<path d="M42.5917 15.7273L44.0968 26.8595L45.5652 37.9954L48.4948 60.2708L48.2824 60.2855L48.286 58.2824V58.2934L46.488 39.7458C45.8801 33.5645 45.3016 27.3795 44.7266 21.1945C45.3711 27.3722 46.012 33.5498 46.6272 39.7311L48.4911 58.2714V58.2751V58.2787L48.4948 60.2818L48.2824 60.2965L45.4151 38.0137L43.9869 26.8705L42.5917 15.7273Z" fill="#85CEE4"/>
<path d="M48.3812 58.2751L72.4217 60.205L72.4986 60.2123V60.2892L72.5023 61.9444V62.0396L72.4071 62.0323L60.3923 61.2266L54.3868 60.7836L48.3849 60.3258L48.3519 60.3222V60.2892L48.3812 58.2751ZM48.3959 58.2898L48.4252 60.2855L48.3922 60.2489L54.4014 60.6188L60.4106 61.0033L72.4217 61.8528L72.3265 61.9407L72.3302 60.2855L72.4071 60.3698L48.3959 58.2898Z" fill="#85CEE4"/>
<path d="M133.957 8.81738L72.4693 60.3552L72.5023 60.2892V61.9444L72.3595 61.8712L96.9529 42.994L121.616 24.2121L121.631 24.2304L97.0847 43.1698L72.4693 62.014L72.3265 62.1239V61.9444V60.2892V60.2453L72.3595 60.2197L133.942 8.80273L133.957 8.81738Z" fill="#85CEE4"/>
<path d="M55.522 15.9983L52.8415 55.9937L52.7755 55.9205L70.0341 57.7734L69.9573 57.799L93.7011 32.0887L117.522 6.45166L117.54 6.46631L93.8549 32.2352L70.0927 57.9235L70.0598 57.9601L70.0122 57.9528L52.7609 56.0633L52.6913 56.0523L52.6986 55.9864L55.5 15.9946L55.522 15.9983Z" fill="#85CEE4"/>
<path d="M70.0122 57.8614L69.9902 55.5873L70.0195 55.6203L61.4616 54.7634C58.609 54.4814 55.76 54.1628 52.922 53.7527L52.9257 53.7307C55.7856 53.9358 58.6383 54.2324 61.4872 54.5656L70.0305 55.5543L70.0598 55.558V55.5873L70.0378 57.8614H70.0122Z" fill="#85CEE4"/>
<path d="M70.0158 55.5835L88.9223 33.0811L98.3883 21.839C101.574 18.1185 104.734 14.376 107.946 10.6775L107.964 10.6921C104.855 14.4749 101.691 18.2174 98.5568 21.9818L89.0578 33.1946L70.0341 55.5982L70.0158 55.5835Z" fill="#85CEE4"/>
<path d="M53.1271 50.7754L72.1873 52.9359L72.1581 53.1556L53.1271 50.7754Z" fill="#85CEE4"/>
<path d="M53.4054 46.7253L75.1096 49.4754L75.0803 49.6952L53.4054 46.7253Z" fill="#85CEE4"/>
<path d="M53.7679 41.4119L79.101 44.7515L79.0681 44.9712L53.7679 41.4119Z" fill="#85CEE4"/>
<path d="M54.1817 35.3953L83.4148 39.6431L83.3818 39.8628L54.1817 35.3953Z" fill="#85CEE4"/>
<path d="M54.709 28.0168L88.1277 34.07L88.0874 34.2897L54.709 28.0168Z" fill="#85CEE4"/>
<path d="M55.2217 20.2095L94.1918 26.8925L94.1552 27.1085L55.2217 20.2095Z" fill="#85CEE4"/>
<path d="M44.5179 76.1269L43.0349 75.9475H43.0385L42.1413 75.9219L43.0385 75.8926L44.5289 75.9805L44.5179 76.1269Z" fill="#85CEE4"/>
<path d="M44.5252 77.6392L42.1413 77.5623L44.5252 77.489V77.6392Z" fill="#85CEE4"/>
<path d="M40.2115 75.5739L36.3445 74.8965L36.3482 74.9001L34.8102 74.8672L36.3482 74.8379H36.3519H36.3555L40.2445 75.3542L40.2115 75.5739Z" fill="#85CEE4"/>
<path d="M40.2262 77.676L34.8102 77.4014L40.2335 77.4526L40.2262 77.676Z" fill="#85CEE4"/>
<path d="M30.0277 74.025L19.9355 72.454L14.8894 71.663C13.2086 71.3957 11.5314 71.1064 9.85424 70.8061H9.86523C8.99735 70.7915 8.12582 70.7695 7.25794 70.7439V70.7219C8.12582 70.6963 8.99735 70.6743 9.86523 70.6597H9.86889H9.87621C11.5607 70.905 13.2452 71.1614 14.9223 71.4433L19.9575 72.2929L30.0277 73.9993V74.025Z" fill="#85CEE4"/>
<path d="M30.0277 77.4123L18.6392 77.0901C16.7423 77.0425 14.8454 76.9839 12.9449 76.9106L10.0996 76.7751L7.25429 76.7019V76.6799C8.20272 76.6543 9.15482 76.6213 10.1033 76.6213L12.9522 76.6872C14.8491 76.7495 16.746 76.8264 18.6465 76.9106L30.0314 77.3903L30.0277 77.4123Z" fill="#85CEE4"/>
<path d="M44.3238 71.3334L43.0385 70.1067L44.3751 71.2785L44.3238 71.3334Z" fill="#85CEE4"/>
<path d="M40.1676 68.7665L36.3482 66.1409L40.2884 68.5797L40.1676 68.7665Z" fill="#85CEE4"/>
<path d="M40.1529 67.5103L36.3482 63.9583L40.3031 67.3455L40.1529 67.5103Z" fill="#85CEE4"/>
<path d="M75.0766 71.7765L81.0382 70.1909H81.0419L82.0196 70.2019L81.0419 70.2129H81.0455L75.1132 71.9193L75.0766 71.7765Z" fill="#85CEE4"/>
<path d="M75.0766 72.9814L81.0382 71.5972H81.0419L82.0196 71.6082L81.0419 71.6155H81.0455L75.1132 73.1242L75.0766 72.9814Z" fill="#85CEE4"/>
<path d="M75.311 72.6737L81.0382 71.1138L81.0419 71.1101L82.0196 71.1211L81.0419 71.1321H81.0455L75.3512 72.8166L75.311 72.6737Z" fill="#85CEE4"/>
<path d="M88.4316 68.2904L100.853 64.9836H100.856L102.226 64.9946L100.856 65.0056H100.86L88.4902 68.5027L88.4316 68.2904Z" fill="#85CEE4"/>
<path d="M88.4389 70.213L100.853 67.5325H100.856L102.226 67.5435L100.856 67.5544L88.4865 70.429L88.4389 70.213Z" fill="#85CEE4"/>
<path d="M88.9553 69.7113L100.853 66.6829H100.856L102.226 66.6938L100.856 66.7048H100.86L89.0138 69.9237L88.9553 69.7113Z" fill="#85CEE4"/>
<path d="M117.504 60.6992L137.271 55.7483L138.625 55.7556L137.271 55.7629H137.274L117.558 60.9116L117.504 60.6992Z" fill="#85CEE4"/>
<path d="M117.507 64.4893L137.271 60.5308L138.625 60.5381L137.271 60.5454H137.274L117.551 64.7053L117.507 64.4893Z" fill="#85CEE4"/>
<path d="M118.218 63.508L137.271 58.7585L138.625 58.7659L137.271 58.7732H137.274L118.273 63.7241L118.218 63.508Z" fill="#85CEE4"/>
<path d="M75.0876 76.5151L81.0419 75.9622L82.0196 75.9695L81.0419 75.9805L75.1022 76.6616L75.0876 76.5151Z" fill="#85CEE4"/>
<path d="M75.0913 77.7712L82.0196 77.5771L75.0986 77.9177L75.0913 77.7712Z" fill="#85CEE4"/>
<path d="M88.4536 75.3249L100.856 74.2886L102.226 74.2996L100.856 74.3105L88.4719 75.5446L88.4536 75.3249Z" fill="#85CEE4"/>
<path d="M88.4572 77.0791L102.226 76.7751L88.4646 77.3025L88.4572 77.0791Z" fill="#85CEE4"/>
<path d="M117.522 72.769L137.271 71.2639L138.625 71.2712L137.271 71.2786H137.274L117.54 72.9887L117.522 72.769Z" fill="#85CEE4"/>
<path d="M117.529 76.0756L128.152 75.8449L133.466 75.7278C135.238 75.7021 137.007 75.6216 138.779 75.6509C137.007 75.6362 135.238 75.7351 133.466 75.7827L128.156 75.9548L117.536 76.299L117.529 76.0756Z" fill="#85CEE4"/>
<path d="M53.9547 86.7354C53.4493 86.5523 52.9037 86.49 52.3764 86.5559C51.8454 86.6182 51.3511 86.8306 50.8237 86.9771C50.3037 87.1235 49.7142 87.1821 49.1905 86.9295C48.9342 86.8013 48.7255 86.5779 48.5973 86.3252C48.4691 86.0726 48.3996 85.8016 48.3446 85.5343C47.9308 83.4177 47.4768 81.3157 46.9787 79.2175L46.9751 79.2101V79.2028C46.997 77.4964 47.0153 75.7899 47.0044 74.0835L46.9677 68.9641V68.8872H47.0446L53.3358 68.8469H53.453V68.9641L53.4493 72.3184C53.4493 73.4353 53.442 74.5522 53.4274 75.6727C53.4054 77.9065 53.3944 80.1439 53.3468 82.3777H53.3248C53.2772 80.1439 53.2662 77.9065 53.2443 75.6727C53.2333 74.5558 53.2223 73.439 53.2223 72.3184L53.2186 68.9641L53.3358 69.0813L47.0446 69.041L47.1215 68.9641L47.0849 74.0835C47.0739 75.7899 47.0922 77.4964 47.1142 79.2028L47.1106 79.1882C47.6672 81.2718 48.1359 83.3811 48.5204 85.5013C48.5717 85.7613 48.6339 86.0176 48.7511 86.2483C48.8646 86.479 49.0404 86.6695 49.2674 86.783C49.7252 87.021 50.2854 86.988 50.7908 86.8526C51.3071 86.7244 51.8161 86.5157 52.3654 86.4717C52.9074 86.4241 53.4603 86.5083 53.962 86.7134L53.9547 86.7354Z" fill="#85CEE4"/>
<path d="M50.3074 79.0676C50.2488 78.9687 50.1316 78.9614 50.0254 78.976L49.6995 79.0017L49.0477 79.0529L47.7441 79.1591L45.1368 79.3679L39.9259 79.789L29.5004 80.6312L29.5517 80.6129C29.3283 80.7924 29.1306 81.0816 29.2184 81.3416C29.2587 81.4735 29.3613 81.5797 29.4711 81.6785C29.592 81.7701 29.7238 81.847 29.8629 81.9202L29.9032 81.9422L29.9142 81.9825L32.2212 91.3277L32.7961 93.664C32.9792 94.444 33.2099 95.2166 33.3125 96.0186C33.5175 97.6189 33.3967 99.2338 33.2612 100.83C33.1916 101.629 33.1111 102.427 33.1184 103.229C33.122 104.024 33.2282 104.833 33.5542 105.558C33.8691 106.29 34.444 106.876 35.0775 107.352C35.711 107.832 36.4141 108.231 37.1721 108.476C37.9265 108.725 38.7321 108.813 39.5158 108.692C40.3031 108.579 41.0647 108.33 41.8484 108.132L46.5247 106.993L46.5173 106.997C47.1691 106.785 47.8283 106.613 48.4984 106.47C49.1686 106.331 49.846 106.224 50.5381 106.213C50.8823 106.21 51.2339 106.232 51.5781 106.323C51.915 106.404 52.2775 106.609 52.446 106.938C52.6217 107.231 52.7902 107.594 52.6877 107.982C52.6364 108.172 52.5046 108.334 52.3544 108.44C52.2006 108.55 52.0358 108.623 51.8491 108.663L51.8784 108.469L52.6693 108.898L52.6437 108.887C52.6986 108.89 52.8305 108.824 52.911 108.736C52.9989 108.649 53.0758 108.539 53.1417 108.425C53.2736 108.194 53.3724 107.938 53.453 107.678C53.5885 107.162 53.5922 106.605 53.6324 106.052C53.68 104.943 53.7093 103.829 53.7313 102.72C53.7789 100.497 53.7826 98.2707 53.8045 96.0479C53.8485 91.5987 53.8705 87.1494 53.8631 82.6966L53.8668 82.7112C53.735 82.5098 53.4676 82.4146 53.2186 82.3816C52.9623 82.3487 52.7023 82.3633 52.446 82.3999C52.1896 82.4256 51.9443 82.5354 51.677 82.5537C51.5488 82.5647 51.3913 82.5501 51.2888 82.4475C51.1899 82.3413 51.157 82.2132 51.1057 82.0923C50.9299 81.5943 50.8201 81.0853 50.7066 80.5726C50.5674 80.071 50.5784 79.518 50.3074 79.0676ZM50.3257 79.0566C50.6077 79.5143 50.6004 80.0673 50.7505 80.5653C50.8677 81.0743 50.9812 81.587 51.1606 82.0777C51.2119 82.1949 51.2522 82.3304 51.3328 82.4146C51.4206 82.4988 51.5561 82.5135 51.6806 82.5025C51.937 82.4805 52.1823 82.3706 52.446 82.3413C52.706 82.3011 52.9733 82.2828 53.2369 82.3157C53.4969 82.3523 53.7789 82.4329 53.9437 82.6782L53.9474 82.6856V82.6966C53.9876 87.1458 54.0243 91.5987 54.0243 96.0479C54.0243 98.2743 53.9986 100.497 53.9547 102.724C53.9327 103.837 53.8997 104.95 53.8521 106.063C53.8082 106.616 53.8082 107.184 53.6581 107.744C53.5702 108.011 53.4713 108.279 53.3248 108.531C53.2516 108.656 53.1674 108.78 53.0612 108.887C52.9477 108.989 52.8305 109.106 52.6034 109.092H52.5924L52.5741 109.081L51.7832 108.649L51.5451 108.517L51.8161 108.454C52.1091 108.385 52.4203 108.202 52.4936 107.92C52.5741 107.638 52.4423 107.312 52.2739 107.041C52.1274 106.755 51.8418 106.598 51.5268 106.517C51.2119 106.433 50.8787 106.411 50.5418 106.415C49.8716 106.426 49.2015 106.532 48.5387 106.667C47.8759 106.807 47.2204 106.979 46.5759 107.184H46.5723H46.5686L41.885 108.286C41.1087 108.476 40.3397 108.722 39.5341 108.832C38.7284 108.952 37.8972 108.854 37.1318 108.594C36.3628 108.337 35.6524 107.931 35.0116 107.44C34.3744 106.953 33.7849 106.353 33.4663 105.598C33.1367 104.855 33.0305 104.035 33.0342 103.229C33.0305 102.423 33.1184 101.621 33.1916 100.827C33.3308 99.2338 33.4296 97.6189 33.2209 96.0332C33.1184 95.2423 32.8804 94.4733 32.6936 93.6933L32.1004 91.3606L29.7384 82.0301L29.7897 82.0923C29.6396 82.0154 29.4931 81.9349 29.3576 81.8287C29.2294 81.7152 29.0976 81.5833 29.039 81.4002C28.9804 81.2171 29.0134 81.0157 29.0976 80.8583C29.1818 80.6972 29.2953 80.569 29.4345 80.4555L29.4565 80.4372L29.4858 80.4335L39.9186 79.6828L45.1331 79.3056L47.7404 79.1152L49.0441 79.02L49.6959 78.9724L50.0218 78.9504C50.0767 78.9468 50.1316 78.9394 50.1866 78.9541C50.2452 78.9687 50.2928 79.0127 50.3257 79.0566Z" fill="#85CEE4"/>
<path d="M30.4928 81.217C31.5145 84.9998 32.4885 88.7935 33.4223 92.5983C33.6384 93.5504 33.924 94.4951 34.0155 95.4839C34.1144 96.4653 34.0961 97.4503 34.0412 98.428C33.9826 99.4058 33.8837 100.383 33.8178 101.358C33.7592 102.328 33.7519 103.324 34.0339 104.25C34.1767 104.712 34.3964 105.148 34.6893 105.528C34.986 105.909 35.3485 106.235 35.7366 106.525C36.5093 107.107 37.3882 107.561 38.322 107.784C38.7907 107.89 39.2704 107.942 39.7501 107.905C40.2298 107.876 40.7022 107.773 41.1746 107.652C41.647 107.532 42.1157 107.396 42.5954 107.279L44.0236 106.938L46.8835 106.265C47.8356 106.03 48.8133 105.862 49.7911 105.774C50.2818 105.73 50.7725 105.701 51.2668 105.726C51.5122 105.737 51.7612 105.767 52.0029 105.807C52.2446 105.84 52.5119 105.917 52.6986 106.103C53.0612 106.466 53.2186 106.986 53.2076 107.48C53.193 107.978 53.0282 108.458 52.8085 108.894L52.7902 108.883C52.9953 108.44 53.1417 107.964 53.1381 107.48C53.1381 107.001 52.9623 106.514 52.6254 106.184C52.457 106.019 52.2262 105.961 51.9882 105.928C51.7465 105.895 51.5085 105.869 51.2632 105.862C50.7798 105.847 50.2928 105.884 49.8057 105.935C48.8353 106.037 47.8759 106.221 46.9311 106.47L44.0748 107.162L42.6467 107.506L41.2259 107.876C40.7461 107.993 40.2591 108.095 39.7574 108.121C39.2557 108.154 38.7541 108.095 38.2707 107.982C37.2966 107.748 36.4068 107.261 35.6268 106.656C35.2386 106.352 34.8688 106.012 34.5685 105.613C34.2682 105.214 34.0485 104.756 33.9094 104.28C33.631 103.324 33.6494 102.321 33.7226 101.343C33.8032 100.365 33.9167 99.3948 33.957 98.4134C34.0082 97.4357 34.0046 96.4543 33.8837 95.4875C33.7775 94.5208 33.4663 93.587 33.2356 92.6349C32.2688 88.8375 31.3424 85.0328 30.4635 81.2134L30.4928 81.217Z" fill="#85CEE4"/>
<path d="M37.5163 79.9207C38.2158 82.3888 38.8273 84.8826 39.3619 87.3946L40.1053 91.1701L40.867 94.9418C41.0025 95.5644 41.1636 96.1869 41.4566 96.7471C41.7459 97.3038 42.1889 97.7725 42.7456 98.0471C43.2985 98.3291 43.932 98.439 44.5582 98.439C45.1881 98.4426 45.8106 98.3364 46.4258 98.1716C47.6525 97.8457 48.8683 97.3587 50.1683 97.2488C51.4572 97.1316 52.7719 97.3221 53.9583 97.8201L53.951 97.8421C52.7426 97.4173 51.4463 97.2635 50.1829 97.41C48.9159 97.5528 47.7331 98.0654 46.4807 98.3914C45.2503 98.7356 43.8441 98.8381 42.6467 98.2302C42.0535 97.93 41.5811 97.41 41.2991 96.8204C41.0098 96.2308 40.8633 95.5936 40.7425 94.9638C40.5045 93.7004 40.2921 92.4371 40.0248 91.1847C39.7648 89.9287 39.4645 88.68 39.1752 87.4312L37.487 79.9243L37.5163 79.9207Z" fill="#85CEE4"/>
<path d="M41.9766 79.5874C42.5075 81.3817 42.9579 83.198 43.3424 85.029C43.7013 86.8673 44.0345 88.7056 44.4337 90.5329C44.5326 90.9869 44.6534 91.4374 44.8658 91.8402C45.0782 92.243 45.3968 92.5762 45.7996 92.7739C46.1987 92.9754 46.6565 93.0523 47.1069 93.0523C47.561 93.0523 48.015 92.979 48.4618 92.8582C49.3516 92.6238 50.2415 92.2686 51.1936 92.1881C52.1384 92.1075 53.0978 92.2613 53.962 92.6275L53.9547 92.6494C53.0722 92.3455 52.1274 92.2503 51.2119 92.3602C50.2928 92.4627 49.4322 92.8399 48.5204 93.0779C47.6196 93.3306 46.5869 93.4075 45.7044 92.957C45.265 92.7337 44.9207 92.3492 44.7157 91.9171C44.5069 91.4813 44.4007 91.0162 44.3165 90.5548C44.0162 88.7056 43.6134 86.8819 43.1667 85.0656C42.7492 83.2457 42.3427 81.422 41.9582 79.5911L41.9766 79.5874Z" fill="#85CEE4"/>
<path d="M44.9867 79.2834C45.4004 80.6237 45.7447 81.9823 46.0303 83.3555C46.2866 84.7324 46.5283 86.1129 46.8396 87.4788C46.9165 87.8194 47.008 88.1526 47.1691 88.4529C47.3266 88.7495 47.5646 88.9912 47.8613 89.1377C48.4618 89.4306 49.1795 89.372 49.835 89.1962C50.4978 89.0205 51.168 88.7568 51.8857 88.7019C52.5961 88.6433 53.3175 88.7678 53.962 89.0498L53.9547 89.0717C53.2919 88.852 52.5851 88.7861 51.904 88.874C51.2192 88.9546 50.5784 89.2365 49.8936 89.4196C49.2162 89.61 48.4325 89.6686 47.766 89.3244C47.4328 89.156 47.1728 88.8593 47.019 88.5298C46.8616 88.2002 46.7846 87.8487 46.7224 87.5044C46.51 86.1166 46.1987 84.7507 45.8545 83.3958C45.5396 82.0335 45.2393 80.664 44.9683 79.2908L44.9867 79.2834Z" fill="#85CEE4"/>
<path d="M48.7291 79.0564C48.9781 79.8364 49.1759 80.631 49.337 81.433C49.4102 81.8358 49.4652 82.2423 49.5494 82.6414C49.6263 83.0442 49.7325 83.4397 49.8314 83.8352C49.9266 84.2234 50.0804 84.6152 50.4209 84.769C50.7578 84.9301 51.1643 84.8935 51.5415 84.7983C51.9223 84.6957 52.3215 84.5456 52.7462 84.52C53.1674 84.4943 53.5921 84.5749 53.962 84.7543L53.9547 84.7763C53.5628 84.6628 53.1564 84.6372 52.7645 84.6921C52.3727 84.7434 52.0065 84.9118 51.6001 85.018C51.2009 85.1352 50.7322 85.1681 50.3257 84.9557C50.1243 84.8532 49.9668 84.6701 49.8753 84.4724C49.7801 84.2746 49.7435 84.0659 49.7105 83.8608C49.5897 83.0515 49.3736 82.2606 49.1576 81.4733C48.9671 80.6786 48.8133 79.8803 48.7071 79.0637L48.7291 79.0564Z" fill="#85CEE4"/>
<path d="M49.8423 78.9795C50.0511 79.58 50.2085 80.1952 50.3294 80.8178C50.3806 81.1327 50.4173 81.4476 50.4795 81.7589C50.5418 82.0701 50.626 82.3777 50.7066 82.6817C50.7835 82.982 50.908 83.2749 51.1606 83.3884C51.4133 83.5056 51.7209 83.48 52.0102 83.4031C52.3032 83.3298 52.6144 83.2163 52.9513 83.198C53.2809 83.1797 53.6141 83.2493 53.8961 83.3958L53.8888 83.4177C53.5812 83.3408 53.2699 83.3225 52.9696 83.3701C52.6693 83.4141 52.3874 83.5459 52.0725 83.6338C51.7575 83.7217 51.3877 83.7473 51.0654 83.5752C50.9043 83.491 50.7798 83.3445 50.7102 83.187C50.637 83.0296 50.6114 82.8648 50.5894 82.7073C50.5454 82.3924 50.4868 82.0811 50.4099 81.7735C50.333 81.4659 50.2342 81.1657 50.1499 80.8581C49.9998 80.2429 49.8826 79.624 49.8204 78.9868L49.8423 78.9795Z" fill="#85CEE4"/>
<path d="M42.1304 108.172L42.0205 114.394L41.9106 108.172H42.1304Z" fill="#85CEE4"/>
<path d="M43.7489 107.784L43.6391 113.442L43.5255 107.784H43.7489Z" fill="#85CEE4"/>
<path d="M77.0723 105.162C77.4129 105.177 77.7352 105.302 78.0098 105.481C78.2808 105.664 78.5115 105.891 78.7129 106.133C79.1157 106.623 79.427 107.154 79.7602 107.671C80.4157 108.714 81.0419 109.773 81.8035 110.732C82.5542 111.695 83.477 112.541 84.5793 113.087C85.1286 113.358 85.7145 113.555 86.3223 113.64C86.9302 113.72 87.5564 113.684 88.146 113.508C87.5601 113.695 86.9302 113.746 86.3187 113.676C85.7035 113.603 85.1066 113.413 84.5463 113.153C83.4221 112.629 82.4663 111.783 81.69 110.827C80.899 109.872 80.2472 108.817 79.5771 107.792C79.2365 107.283 78.9106 106.755 78.5188 106.301C78.1343 105.854 77.6326 105.466 77.065 105.459L77.0723 105.162Z" fill="#85CEE4"/>
<path d="M116.859 82.6416L101.926 82.6928L116.855 82.345L116.859 82.6416Z" fill="#85CEE4"/>
<path d="M111.278 96.282C109.901 96.6482 108.51 96.9374 107.107 97.1462C108.492 96.8386 109.854 96.4577 111.19 96L111.278 96.282Z" fill="#85CEE4"/>
<path d="M132.067 78.0605C130.906 80.4628 130.064 83.0115 129.544 85.6224C129.028 88.2333 128.834 90.9065 129.002 93.5578C129.039 94.2169 129.112 94.898 129.006 95.5755C128.903 96.2456 128.603 96.9341 128.013 97.3442C127.416 97.7507 126.684 97.7653 126.025 97.747C125.355 97.7287 124.688 97.6847 124.025 97.6445C122.696 97.5676 121.363 97.5236 120.041 97.7031C118.723 97.8678 117.427 98.223 116.2 98.7504C117.412 98.1901 118.701 97.8019 120.027 97.5969C121.352 97.3955 122.7 97.4211 124.033 97.476L126.028 97.5566C126.68 97.5712 127.369 97.5456 127.896 97.1794C128.416 96.8132 128.702 96.176 128.793 95.5462C128.888 94.9017 128.815 94.2389 128.775 93.5724C128.621 90.8992 128.815 88.2077 129.372 85.5894C129.928 82.9675 130.833 80.4298 132.067 78.0605Z" fill="#85CEE4"/>
<path d="M50.3587 79.137C47.2131 79.5874 44.0602 79.9975 40.9109 80.4296C37.758 80.8361 34.6088 81.2609 31.4522 81.649C34.5978 81.1986 37.7507 80.7885 40.9 80.3564C44.0565 79.9499 47.2058 79.5251 50.3587 79.137Z" fill="#85CEE4"/>
<g opacity="0.45">
<path d="M27.4534 14.6213L49.5164 66.6132L49.3114 66.7011L27.4534 14.6213Z" fill="#85CEE4"/>
</g>
<g opacity="0.45">
<path d="M73.4104 64.8262L144.496 20.1106L73.5276 65.013L73.4104 64.8262Z" fill="#85CEE4"/>
</g>
<g opacity="0.45">
<path d="M121.623 88.4053L111.114 89.6577L100.6 90.8771L79.5771 93.3086L58.5431 95.6705L48.026 96.8496L37.5054 97.9922L48.0151 96.7398L58.5248 95.524L79.5515 93.0889L100.585 90.7306L111.103 89.5515L121.623 88.4053Z" fill="#85CEE4"/>
</g>
<g opacity="0.45">
<path d="M13.8384 10.6848L13.9812 25.3251L14.0618 39.9655L14.1314 69.2462L14.0654 98.5305L13.9812 113.171L13.8384 127.811L13.6919 113.171L13.6077 98.5305L13.5418 69.2462L13.6114 39.9655L13.6919 25.3251L13.8384 10.6848Z" fill="#85CEE4"/>
</g>
<g opacity="0.45">
<path d="M11.3446 10.6848L11.4875 25.3251L11.5717 39.9655L11.6413 69.2462L11.5717 98.5305L11.4875 113.171L11.3446 127.811L11.1982 113.171L11.1176 98.5305L11.048 69.2462L11.1176 39.9655L11.2018 25.3251L11.3446 10.6848Z" fill="#85CEE4"/>
</g>
<g opacity="0.45">
<path d="M134.865 23.0146L134.938 33.7514L134.964 44.4845L135.011 65.9543L134.964 87.4241L134.938 98.1571L134.865 108.89L134.791 98.1571L134.766 87.4241L134.718 65.9543L134.766 44.4845L134.791 33.7514L134.865 23.0146Z" fill="#85CEE4"/>
</g>
<g opacity="0.45">
<path d="M108.909 107.33C107.583 107.835 106.265 108.355 104.936 108.846L100.952 110.333L96.9602 111.801L92.9577 113.244C92.9065 113.262 92.8515 113.237 92.8332 113.185C92.8222 113.16 92.8259 113.13 92.8406 113.105C93.4851 111.911 94.0636 110.677 94.4335 109.37C94.7997 108.07 94.9791 106.693 94.7704 105.342C95.0194 106.685 94.9095 108.084 94.558 109.403C94.2065 110.728 93.6608 111.995 93.0127 113.196L92.8955 113.061L96.887 111.592L100.889 110.15L104.896 108.725C106.225 108.249 107.569 107.799 108.909 107.33Z" fill="#85CEE4"/>
</g>
<g opacity="0.45">
<path d="M56.2727 78.4009C57.2651 81.3231 58.1915 84.2636 59.1546 87.1931C60.0884 90.1336 61.0075 93.0778 61.9193 96.022L67.4195 113.691L67.3976 113.698L61.7509 96.0733C60.8061 93.1364 59.8687 90.1996 58.9422 87.2554C58.045 84.3039 57.1186 81.3634 56.2507 78.4009H56.2727Z" fill="#85CEE4"/>
</g>
<path d="M121.92 102.192L147.458 114.775L121.825 102.39L121.92 102.192Z" fill="#85CEE4"/>
<path d="M101.04 111.647L100.856 121.623L100.673 111.647H101.04Z" fill="#85CEE4"/>
<path d="M97.3703 113.061L97.1872 125.05L97.0042 113.061H97.3703Z" fill="#85CEE4"/>
<path d="M67.6539 80.891L67.7015 74.6768L67.7454 80.891H67.6539Z" fill="#85CEE4"/>
<path d="M66.4235 64.5881L66.3759 78.7268L66.3319 64.5881H66.4235Z" fill="#85CEE4"/>
<path d="M67.1559 64.6248L67.1083 79.9242L67.0643 64.6248H67.1559Z" fill="#85CEE4"/>
<path d="M67.5331 64.6248L67.4891 75.453L67.4415 64.6248H67.5331Z" fill="#85CEE4"/>
<path d="M68.4156 64.6833L68.3716 80.1037L68.324 64.6833H68.4156Z" fill="#85CEE4"/>
<path d="M69.0271 64.709L68.9795 76.2806L68.9356 64.709H69.0271Z" fill="#85CEE4"/>
<path d="M69.8327 64.7493L69.7851 80.9349L69.7412 64.7493H69.8327Z" fill="#85CEE4"/>
<path d="M70.2282 64.7676L70.1843 77.7088L70.1367 64.7676H70.2282Z" fill="#85CEE4"/>
<path d="M71.7369 64.8372L71.6893 77.577L71.6454 64.8372H71.7369Z" fill="#85CEE4"/>
<path d="M72.5865 64.8738L72.5426 78.5547L72.495 64.8738H72.5865Z" fill="#85CEE4"/>
<path d="M72.8611 64.8738L72.8172 75.1638L72.7696 64.8738H72.8611Z" fill="#85CEE4"/>
<path d="M73.989 64.9397L73.9451 78.1482L73.8975 64.9397H73.989Z" fill="#85CEE4"/>
<path d="M74.4028 64.958L74.3589 77.057L74.3113 64.958H74.4028Z" fill="#85CEE4"/>
<path d="M69.4226 81.0996L69.4702 67.9644L69.5142 81.0996H69.4226Z" fill="#85CEE4"/>
<path d="M73.3189 78.5548L73.3628 67.3567L73.4104 78.5548H73.3189Z" fill="#85CEE4"/>
<path d="M47.8796 77.0571C48.1615 77.0205 48.4435 77.0168 48.7255 77.0132C49.0074 77.0168 49.2894 77.0205 49.5714 77.0571C49.2894 77.0937 49.0074 77.0974 48.7255 77.1011C48.4435 77.0974 48.1615 77.0937 47.8796 77.0571Z" fill="#85CEE4"/>
<path d="M48.0407 76.8997C48.0773 77.0095 48.081 77.1194 48.0846 77.2329C48.081 77.3428 48.0773 77.4526 48.0407 77.5661C48.0041 77.4563 48.0004 77.3464 47.9967 77.2329C48.0004 77.123 48.0004 77.0095 48.0407 76.8997Z" fill="#85CEE4"/>
<path d="M47.7843 77.4014C48.0736 77.3647 48.3629 77.3611 48.6522 77.3574C48.9415 77.3611 49.2308 77.3647 49.5201 77.4014C49.2308 77.438 48.9415 77.4416 48.6522 77.4453C48.3629 77.4416 48.0736 77.438 47.7843 77.4014Z" fill="#85CEE4"/>
<path d="M49.3883 76.9399C49.4249 77.0425 49.4285 77.1487 49.4322 77.2512C49.4285 77.3537 49.4249 77.4599 49.3883 77.5625C49.3516 77.4599 49.348 77.3537 49.3443 77.2512C49.348 77.1487 49.3516 77.0461 49.3883 76.9399Z" fill="#85CEE4"/>
</svg>
