<svg width="330" height="278" viewBox="0 0 330 278" fill="none" xmlns="http://www.w3.org/2000/svg">
<g opacity="0.45">
<path d="M135.824 222.437L135.939 238.143L135.874 238.044C136.242 238.208 136.692 238.282 137.086 238.184C137.487 238.102 137.814 237.815 138.052 237.471L138.027 237.545L137.913 221.995H138.412L138.297 237.545V237.586L138.273 237.619C138.011 238.004 137.618 238.331 137.143 238.429C136.676 238.528 136.201 238.446 135.767 238.249L135.702 238.216V238.143L135.824 222.437Z" fill="white"/>
<path d="M250.48 206.895L250.365 221.774L250.291 221.651C250.652 221.823 251.102 221.905 251.495 221.815C251.896 221.733 252.232 221.455 252.47 221.111L252.453 221.176L252.568 205.626L252.682 221.176V221.209L252.666 221.242C252.412 221.627 252.019 221.962 251.552 222.061C251.086 222.167 250.603 222.093 250.169 221.897L250.095 221.864V221.774L249.98 206.895H250.48Z" fill="white"/>
<path d="M132.697 209.229L135.939 222.405L135.694 222.429L135.571 208.517H136.07L135.947 222.429C135.947 222.495 135.89 222.552 135.825 222.552C135.767 222.552 135.718 222.511 135.702 222.454L132.697 209.229Z" fill="white"/>
<path d="M248.465 207.141L252.568 206.585V198.748" stroke="white" stroke-width="0.606" stroke-miterlimit="10"/>
<path d="M135.825 208.525L135.964 222.437L135.808 222.298C148.074 220.546 160.341 218.851 172.624 217.205C184.898 215.551 197.181 213.946 209.48 212.439C197.23 214.265 184.955 215.993 172.689 217.672C160.415 219.359 148.14 220.996 135.849 222.577L135.685 222.601V222.446L135.825 208.525Z" fill="white"/>
<path d="M221.402 181.364L185.635 177.245L149.884 173.044H149.909L123.665 173.085L123.894 172.823L127.251 201.761L127.014 201.565L171.936 197.135L194.397 194.932L216.866 192.787L194.421 195.137L171.968 197.438L127.063 202.007C126.94 202.015 126.833 201.933 126.825 201.81L123.452 172.872C123.435 172.749 123.525 172.627 123.656 172.618H123.681L149.925 172.659H149.95L185.692 176.966L221.402 181.364Z" fill="white"/>
<path d="M256.637 188.815L260.339 188.316L264.048 187.874L267.757 187.472L271.467 187.087L271.459 187.571C269.182 187.276 266.906 187.014 264.629 186.694C262.353 186.391 260.085 186.056 257.817 185.695C260.109 185.884 262.394 186.088 264.679 186.326C266.963 186.547 269.24 186.834 271.524 187.079C271.655 187.096 271.753 187.218 271.737 187.35C271.721 187.464 271.631 187.554 271.516 187.562L267.798 187.915L264.081 188.25L260.363 188.553L256.637 188.815Z" fill="white"/>
<path d="M123.656 172.856L123.689 175.656C124.336 181.364 124.934 187.071 125.532 192.779L127.259 209.909L126.768 209.933L126.784 201.794V201.819C126.236 197.028 125.712 192.271 125.229 187.448C124.737 182.641 124.23 177.744 123.656 172.856ZM123.656 172.856C124.205 177.622 124.819 182.363 125.442 187.202C126.072 192.025 126.678 196.914 127.251 201.77V201.786V201.802L127.268 209.942L126.776 209.966L125.139 192.828C124.614 187.112 124.09 181.397 123.615 175.673L123.656 172.856Z" fill="white"/>
<path d="M216.85 192.795L194.405 195.161L171.952 197.454L127.046 202.04L127.259 201.794V209.933L126.989 209.696L170.65 204.382L192.481 201.729L214.319 199.141L192.513 201.958L170.691 204.701L127.046 210.171L126.784 210.204V209.933L126.776 201.794V201.573L126.997 201.557L171.919 197.135L194.38 194.932L216.85 192.795Z" fill="white"/>
<path d="M254.549 193.917L271.475 191.943L271.352 192.074L271.385 187.325L271.5 187.423L256.638 188.815L271.475 187.227L271.59 187.21V187.325L271.622 192.074V192.189L271.508 192.205L254.607 194.408L254.549 193.917Z" fill="white"/>
<path d="M209.177 247.797L226.357 240.886L243.577 234.081L243.38 234.212C244.895 232.517 245.919 230.421 246.582 228.218C247.245 226.007 247.581 223.698 247.794 221.373C248.212 216.705 248.261 212.013 247.909 207.346L247.892 207.182L247.966 207.043C249.219 204.586 250.422 202.105 251.569 199.599C252.707 197.086 253.829 194.572 254.877 192.025C256.981 186.924 258.865 181.732 260.511 176.467L260.56 176.295L260.724 176.254C261.641 176.008 262.263 174.854 261.952 173.937L262.214 174.125L243.298 174.019L233.841 174.035C232.252 174.027 230.68 173.92 229.116 173.929C228.338 173.937 227.552 173.978 226.782 174.068C226.397 174.117 226.013 174.166 225.636 174.248C225.259 174.322 224.874 174.403 224.58 174.559C224.031 174.805 223.974 175.722 223.679 176.451C223.417 177.204 223.114 177.941 222.811 178.67C222.197 180.119 221.656 181.593 221.075 183.059L217.644 191.87L214.213 200.68C213.091 203.62 211.863 206.543 210.888 209.499C209.889 212.455 209.357 215.493 209.243 218.613C209.103 221.725 209.251 224.869 209.234 228.046C209.226 231.207 209.013 234.466 208.113 237.586C207.245 240.689 205.746 243.744 203.29 246.02C202.069 247.15 200.628 248.051 199.056 248.624C197.484 249.197 195.813 249.443 194.168 249.418C190.859 249.361 187.666 248.247 184.898 246.552C182.122 244.824 179.821 242.499 177.856 239.985C175.874 237.471 174.188 234.777 172.517 232.1L173.262 232.304C172.73 232.566 172.181 232.673 171.633 232.706C171.084 232.722 170.519 232.665 169.971 232.427C169.422 232.214 168.882 231.682 168.718 231.051C168.546 230.429 168.636 229.807 168.873 229.266C169.397 228.136 170.486 227.596 171.453 227.309C172.452 227.015 173.41 226.924 174.261 226.646L174.294 226.638L174.319 226.63L190.974 223.42L207.646 220.284L207.67 220.415L191.097 224.042L174.507 227.604L174.564 227.588C173.573 227.923 172.599 228.022 171.747 228.292C170.904 228.546 170.126 229.029 169.84 229.7C169.692 230.036 169.651 230.429 169.749 230.748C169.848 231.06 170.061 231.273 170.405 231.42C171.084 231.707 172.067 231.641 172.738 231.305L173.205 231.068L173.483 231.502C175.187 234.155 176.89 236.792 178.839 239.207C180.788 241.615 183.015 243.817 185.602 245.422C188.19 247.003 191.179 248.026 194.192 248.067C195.691 248.083 197.189 247.854 198.581 247.347C199.973 246.839 201.251 246.028 202.34 245.021C204.542 242.982 205.918 240.149 206.778 237.226C207.646 234.278 207.883 231.182 207.908 228.054C207.949 224.926 207.818 221.766 207.982 218.572C208.121 215.387 208.694 212.161 209.767 209.155C210.823 206.142 212.084 203.26 213.255 200.328L216.825 191.567L220.395 182.805C220.993 181.347 221.566 179.873 222.205 178.432C222.516 177.712 222.827 176.991 223.097 176.262C223.237 175.902 223.343 175.533 223.474 175.14C223.548 174.944 223.622 174.739 223.761 174.543C223.892 174.338 224.105 174.174 224.309 174.068C224.727 173.863 225.128 173.798 225.521 173.724C225.914 173.65 226.316 173.593 226.709 173.56C227.503 173.478 228.305 173.454 229.1 173.454C230.688 173.454 232.26 173.568 233.833 173.585L243.29 173.626L262.206 173.576H262.41L262.476 173.765C262.894 175.018 262.173 176.467 260.896 176.868L261.108 176.655C259.561 181.97 257.776 187.227 255.77 192.394C254.754 194.973 253.714 197.544 252.568 200.066C251.43 202.596 250.234 205.102 248.989 207.575L249.047 207.264C249.243 209.63 249.342 212.005 249.301 214.388C249.268 216.763 249.129 219.137 248.891 221.495C248.654 223.862 248.293 226.237 247.581 228.546C246.869 230.847 245.763 233.082 244.109 234.9L244.027 234.99L243.921 235.031L226.586 241.533L209.21 247.92L209.177 247.797Z" fill="white"/>
<path d="M158.007 173.822L158.76 167.73L158.777 167.574H158.932L165.803 167.656H165.901L165.884 167.754C165.532 170.039 165.344 172.356 165.197 174.666C165.287 172.348 165.418 170.031 165.712 167.73L165.794 167.828L158.924 167.91L159.096 167.754L158.498 173.863L158.007 173.822Z" fill="white"/>
<path d="M167.203 174.936C167.276 173.716 167.383 172.496 167.547 171.284C167.629 170.678 167.719 170.072 167.841 169.466C167.964 168.86 168.103 168.262 168.366 167.681L168.406 167.582H168.513L176.816 167.329H176.947L176.898 167.451C176.39 168.786 176.104 170.211 175.923 171.628C175.76 173.052 175.719 174.502 175.809 175.935C175.686 174.502 175.694 173.052 175.833 171.611C175.989 170.178 176.235 168.745 176.734 167.37L176.816 167.492L168.521 167.91L168.669 167.812C168.439 168.344 168.308 168.934 168.202 169.523C168.095 170.113 168.013 170.71 167.948 171.316C167.817 172.52 167.735 173.732 167.686 174.936H167.203Z" fill="white"/>
<path d="M178.978 176.344C179.027 174.797 179.15 173.265 179.363 171.734C179.477 170.973 179.608 170.211 179.797 169.45C180.01 168.704 180.231 167.935 180.796 167.296L180.837 167.247H180.91L191.678 166.944H191.793L191.768 167.05C191.392 168.803 191.08 170.563 190.827 172.332C190.581 174.101 190.384 175.886 190.384 177.679C190.352 175.886 190.524 174.101 190.745 172.316C190.974 170.539 191.261 168.77 191.605 167.009L191.695 167.116L180.927 167.599L181.041 167.55C180.583 168.074 180.362 168.835 180.173 169.556C180.001 170.293 179.879 171.046 179.78 171.8C179.6 173.314 179.502 174.846 179.477 176.361L178.978 176.344Z" fill="white"/>
<path d="M196.305 178.408C196.354 176.459 196.485 174.526 196.73 172.594C196.845 171.628 197.009 170.669 197.23 169.711C197.451 168.762 197.713 167.812 198.213 166.936L198.262 166.854H198.36L212.379 166.665H212.51L212.461 166.788C212.059 167.828 211.781 168.925 211.543 170.023C211.306 171.12 211.134 172.233 210.987 173.355C210.847 174.469 210.757 175.599 210.7 176.721C210.643 177.843 210.635 178.973 210.635 180.103C210.61 178.973 210.61 177.851 210.651 176.721C210.692 175.591 210.774 174.469 210.897 173.347C211.028 172.225 211.183 171.112 211.412 169.998C211.642 168.893 211.904 167.795 212.297 166.723L212.379 166.837L198.36 167.206L198.507 167.116C198.049 167.935 197.803 168.868 197.598 169.801C197.402 170.735 197.246 171.693 197.14 172.643C196.919 174.551 196.812 176.483 196.796 178.408H196.305Z" fill="white"/>
<path d="M220.002 181.2C220.084 178.752 220.297 176.311 220.633 173.879C220.985 171.456 221.468 169.04 222.287 166.714L222.303 166.665H222.36L246.361 166.035L246.639 166.027L246.557 166.297C245.845 168.786 245.272 171.316 244.822 173.871L244.33 173.781C244.813 171.218 245.419 168.68 246.164 166.182L246.369 166.444L222.36 166.821L222.434 166.772C221.599 169.065 221.091 171.472 220.715 173.888C220.346 176.311 220.109 178.752 220.002 181.2Z" fill="white"/>
<path d="M260.953 193.385C261.01 195.063 260.584 196.725 259.962 198.281C259.618 199.133 259.209 199.984 258.57 200.648C257.08 202.187 254.738 202.433 252.601 202.58" stroke="white" stroke-width="0.606" stroke-miterlimit="10"/>
<path d="M269.723 212.488L269.477 227.596L269.231 212.488H269.723Z" fill="white"/>
<path d="M272.294 212.447L272.048 225.459L271.802 212.447H272.294Z" fill="white"/>
<path d="M166.196 188.586L182.597 187.104C185.332 186.842 188.067 186.613 190.802 186.4C193.545 186.228 196.28 186.048 199.032 185.966V186.015C196.305 186.375 193.57 186.629 190.843 186.891C188.108 187.12 185.373 187.317 182.63 187.497L166.204 188.635L166.196 188.586Z" fill="white"/>
<path d="M196.559 186.17L204.837 188.733C206.213 189.159 207.605 189.56 208.964 190.052C210.323 190.551 211.683 191.034 213.009 191.624L212.993 191.673C211.576 191.354 210.192 190.936 208.809 190.518C207.425 190.093 206.074 189.585 204.714 189.11L196.542 186.22L196.559 186.17Z" fill="white"/>
<path d="M164.083 189.904C166.04 190.822 167.989 191.755 169.93 192.697C170.904 193.163 171.887 193.606 172.837 194.122C173.778 194.654 174.72 195.178 175.621 195.792L175.596 195.833C174.572 195.473 173.59 195.006 172.607 194.555C171.633 194.097 170.691 193.556 169.749 193.041C167.85 192.017 165.95 190.985 164.058 189.937L164.083 189.904Z" fill="white"/>
<path d="M173.23 196.038L192.44 193.909C195.642 193.54 198.843 193.196 202.053 192.877C205.263 192.598 208.473 192.304 211.691 192.115L211.699 192.164C208.506 192.631 205.304 192.991 202.11 193.368C198.909 193.704 195.699 194.015 192.489 194.302L173.246 196.087L173.23 196.038Z" fill="white"/>
<path d="M182.622 187.284L189.664 190.314C190.835 190.821 192.022 191.305 193.169 191.861C194.315 192.435 195.461 193 196.559 193.663L196.534 193.712C195.314 193.311 194.135 192.811 192.956 192.32C191.785 191.82 190.646 191.239 189.492 190.682L182.597 187.333L182.622 187.284Z" fill="white"/>
<path d="M102.768 169.204L102.858 141.15V140.986H103.021L120.184 141.044H120.299V141.15L120.184 177.007L120.078 141.15L120.184 141.265L103.021 141.314L103.177 141.15L103.267 169.204H102.768Z" fill="white"/>
<path d="M104.733 148.479L118.792 148.315V148.643L104.733 148.479Z" fill="white"/>
<path d="M120.16 141.142L121.798 135.295L121.929 134.829V135.312L122.076 160.508C122.109 164.708 122.117 168.909 122.084 173.11C122.019 177.311 122.011 181.511 121.879 185.712H121.83C121.699 181.511 121.691 177.311 121.626 173.11C121.593 168.909 121.601 164.708 121.634 160.508L121.781 135.312L121.912 135.328L120.193 141.15L120.16 141.142Z" fill="white"/>
<path d="M121.863 135.295C125.663 135.377 129.47 135.492 133.27 135.655C137.069 135.803 140.869 135.967 144.668 136.204C148.468 136.433 152.259 136.671 156.058 136.826L167.457 137.252L167.629 137.26V137.441C167.686 142.55 167.71 147.66 167.702 152.769L167.694 152.704L168.218 154.702L168.251 154.825L168.177 154.923L167.645 155.611L167.694 155.455C167.694 158.518 167.637 161.588 167.612 164.651C167.588 167.713 167.547 170.784 167.473 173.847H167.424C167.35 170.784 167.309 167.713 167.285 164.651C167.26 161.588 167.203 158.518 167.203 155.455V155.373L167.252 155.308L167.784 154.612L167.743 154.833L167.211 152.835L167.203 152.802V152.769C167.195 147.66 167.219 142.55 167.277 137.441L167.448 137.621L156.058 136.99C152.259 136.794 148.459 136.679 144.66 136.556C140.86 136.442 137.061 136.245 133.262 136.049C129.462 135.852 125.671 135.615 121.871 135.352L121.863 135.295Z" fill="white"/>
<path d="M124.844 151.533L144.152 151.828H144.242V151.918L144.283 165.306V165.437H144.152L134.506 165.47C131.288 165.462 128.078 165.486 124.86 165.454H124.713V165.306L124.844 151.533ZM124.86 151.558L124.991 165.306L124.844 165.159C128.062 165.126 131.272 165.142 134.49 165.142L144.136 165.175L144.005 165.306L144.046 151.918L144.136 152.008L124.86 151.558Z" fill="white"/>
<path d="M125.736 152.507C128.578 152.516 131.476 152.557 134.375 152.589C135.824 152.606 137.274 152.614 138.731 152.663L143.096 152.786H143.194V152.884L143.145 158.641L143.186 164.397V164.487H143.096C137.315 164.553 131.534 164.585 125.744 164.561H125.573V164.397L125.736 152.507ZM125.761 152.532L125.916 164.414L125.753 164.25C131.534 164.225 137.315 164.258 143.104 164.323L143.014 164.414L143.055 158.657L143.006 152.9L143.104 152.999L138.789 152.941C137.356 152.933 135.915 152.868 134.473 152.827C131.583 152.729 128.701 152.647 125.761 152.532Z" fill="white"/>
<path d="M147.01 136.474L146.764 172.856L146.51 136.474H147.01Z" fill="white"/>
<path d="M157.925 136.974L157.671 173.716L157.426 136.974H157.925Z" fill="white"/>
<path d="M158.826 136.974L158.58 170.064L158.327 136.974H158.826Z" fill="white"/>
<path d="M129.798 172.872C129.757 172.012 129.675 171.144 129.552 170.285C129.487 169.859 129.413 169.433 129.315 169.015C129.216 168.606 129.085 168.188 128.881 167.861L128.848 167.804V167.754V167.419V167.239H129.028L138.805 167.353H138.854L138.871 167.394C139.19 168.254 139.419 169.146 139.558 170.047C139.706 170.948 139.747 171.873 139.649 172.782C139.796 170.956 139.395 169.13 138.748 167.443L138.805 167.484L129.028 167.599L129.208 167.419V167.754L129.175 167.648C129.446 168.057 129.577 168.491 129.691 168.917C129.806 169.351 129.896 169.785 129.97 170.219C130.117 171.087 130.215 171.963 130.281 172.839L129.798 172.872Z" fill="white"/>
<path d="M103.013 141.15L98.7552 133.371" stroke="white" stroke-width="0.606" stroke-miterlimit="10"/>
<path d="M98.8371 169.613L98.9435 153.523L99.0172 153.646L95.7009 151.648L95.881 151.549L95.7664 170.137L95.6436 151.549V151.337L95.8237 151.443L99.1646 153.4L99.2301 153.441V153.523L99.3366 169.613H98.8371Z" fill="white"/>
<path d="M97.8627 152.794L98.6734 151.533L98.6652 151.55L98.5342 129.465L98.5424 129.523L95.5699 122.235L95.963 122.161C96.0039 127.058 96.0203 131.954 96.0039 136.859L95.9139 144.204C95.8975 146.653 95.8484 149.101 95.7828 151.55H95.7337C95.6682 149.101 95.6191 146.653 95.6027 144.204L95.5126 136.859C95.4962 131.963 95.5126 127.066 95.5536 122.161L95.5618 121.105L95.9466 122.079L98.8453 129.4L98.8535 129.432V129.465L98.7225 151.55V151.558L98.7143 151.566L97.8873 152.819L97.8627 152.794Z" fill="white"/>
<path d="M95.7664 122.177L93.7684 122.194L93.8094 122.153L93.9731 146.104C94.055 154.088 94.0386 162.072 93.793 170.055H93.7439C93.4982 162.072 93.4818 154.088 93.5637 146.104L93.7275 122.153V122.112H93.7684L95.7664 122.128V122.177Z" fill="white"/>
<path d="M93.7439 122.169C92.966 120.843 92.2044 119.516 91.4511 118.173C91.0744 117.51 90.665 116.855 90.3375 116.159C90.0181 115.463 89.6988 114.767 89.4613 114.022L89.5022 113.997C89.9854 114.611 90.3702 115.274 90.7715 115.93C91.1563 116.593 91.4675 117.297 91.795 117.993C92.4665 119.369 93.1297 120.761 93.7848 122.145L93.7439 122.169Z" fill="white"/>
<path d="M89.4613 170.137L89.4039 145.654L89.4285 145.711L88.4295 144.704L88.3886 144.663L88.4213 144.606L89.4039 142.837L89.3957 142.878L89.3221 106.455L89.3384 106.513L80.6259 85.5174L80.806 85.6403L77.3669 85.6484L77.5716 85.4437L77.6125 128.343L77.5224 149.797L77.3914 171.243H77.3423L77.2113 149.797L77.1294 128.343L77.1621 85.4437V85.239H77.3669L80.806 85.2472H80.937L80.9944 85.37L89.625 106.398L89.6414 106.423V106.455L89.5677 142.878V142.902L89.5595 142.919L88.5605 144.687L88.5523 144.589L89.5431 145.605L89.5595 145.621V145.654L89.5104 170.137H89.4613Z" fill="white"/>
<path d="M80.8306 85.4437L81.0026 128.286C81.0435 135.426 81.0599 142.567 81.0517 149.707C80.9698 156.847 80.978 163.988 80.8306 171.128H80.7815C80.6341 163.988 80.6341 156.847 80.5604 149.707C80.5522 142.567 80.5686 135.426 80.6095 128.286L80.7815 85.4437H80.8306Z" fill="white"/>
<path d="M77.3505 85.4519L71.8479 74.332C70.9308 72.4732 69.9891 70.6308 69.1293 68.7556C68.2777 66.8723 67.4179 64.9889 66.6564 63.0646L66.6973 63.04C67.7127 64.8415 68.638 66.6921 69.5715 68.5427C70.4886 70.3933 71.332 72.2848 72.2 74.16L77.3915 85.4356L77.3505 85.4519Z" fill="white"/>
<path d="M35.4091 -6.89783C38.2423 -1.68176 41.0591 3.55069 43.8432 8.79951L52.1627 24.5542L60.3758 40.3661C63.1025 45.6395 65.7965 50.9375 68.4742 56.2354C65.641 51.0194 62.8241 45.7869 60.04 40.5381L51.7205 24.7834L43.5075 8.97147C40.7807 3.69808 38.0785 -1.59987 35.4091 -6.89783Z" fill="white"/>
<path d="M66.9266 52.4769L66.6728 172.07L66.4271 52.4769H66.9266Z" fill="white"/>
<path d="M15.7566 93.3457L21.5868 93.3294H21.6032L21.6114 93.3375L66.7873 128.139L66.5334 128.401L64.5436 126.108L64.4617 126.018L64.5109 125.903L66.4925 121.399L66.5334 121.629L43.9578 100.314L21.5295 78.8521L21.5868 78.8685L15.7566 78.8112V78.762L21.5868 78.7047H21.6196L21.6441 78.7293L44.3017 99.9538L66.8118 121.342L66.9183 121.44L66.861 121.571L64.863 126.059L64.8302 125.854L66.8118 128.163L66.5662 128.425L21.5622 93.403L21.5868 93.4112L15.7566 93.3949V93.3457Z" fill="white"/>
<path d="M21.6115 64.3831L21.7835 147.275L21.8326 188.725C21.7507 202.539 21.7589 216.353 21.6115 230.175H21.5624C21.415 216.361 21.415 202.547 21.3413 188.725L21.3904 147.275L21.5624 64.3831H21.6115Z" fill="white"/>
<path d="M15.7568 65.9305L15.8714 85.4928L15.9205 105.055L16.0024 144.18L15.9205 183.304L15.8714 202.875L15.7568 222.437L15.6339 202.875L15.5848 183.304L15.5029 144.18L15.5848 105.055L15.6339 85.4928L15.7568 65.9305Z" fill="white"/>
<path d="M66.9266 177.269L66.8283 211.817V211.882L66.7792 211.923L0.739014 274.27L66.5745 211.702L66.5253 211.817L66.4271 177.269H66.9266Z" fill="white"/>
<path d="M66.6727 209.59L73.2645 203.628" stroke="white" stroke-width="0.606" stroke-miterlimit="10"/>
<path d="M167.424 137.916L167.391 136.974V136.949L167.416 136.933C169.577 135.41 171.78 133.936 173.983 132.487C176.186 131.021 178.405 129.58 180.656 128.196L180.714 128.163L180.771 128.171L182.949 128.499L183.056 128.515V128.613C182.998 131.84 182.998 135.066 183.072 138.3C183.121 141.527 183.179 144.753 183.187 147.987C183.203 151.214 183.203 154.44 183.154 157.674C183.097 160.901 183.072 164.127 182.957 167.361H182.908C182.794 164.135 182.777 160.909 182.712 157.674C182.663 154.448 182.663 151.222 182.679 147.987C182.687 144.761 182.745 141.535 182.794 138.3C182.859 135.074 182.867 131.848 182.81 128.613L182.916 128.728L180.722 128.491L180.828 128.466C178.65 129.965 176.431 131.406 174.204 132.822C171.977 134.247 169.741 135.656 167.473 137.023L167.498 136.974L167.465 137.916H167.424Z" fill="white"/>
<path d="M180.771 128.327C180.935 131.586 180.992 134.845 180.951 138.096C180.845 141.355 180.771 144.614 180.878 147.865C181.05 154.383 181.066 160.893 180.763 167.411H180.714C180.411 160.893 180.435 154.383 180.599 147.865C180.714 144.606 180.632 141.347 180.526 138.096C180.485 134.837 180.542 131.578 180.706 128.327H180.771Z" fill="white"/>
<path d="M182.818 130.391L196.55 123.209L183.056 130.825L182.818 130.391Z" fill="white"/>
<path d="M197.312 170.064C197.279 166.608 197.205 163.152 197.205 159.697L197.156 149.33V149.257L197.214 149.199L198.376 148.069L198.327 148.274L197.148 145.105L197.132 145.072V145.031C197.091 141.052 197.148 137.08 197.156 133.101L197.214 121.17V121.096L197.271 121.064L204.223 117.215L211.134 113.301L224.948 105.448L224.997 105.415L225.063 105.424L228.133 105.776L228.314 105.8V105.989L228.354 136.294L228.264 151.443C228.24 156.495 228.199 161.548 228.125 166.592H228.076C228.011 161.539 227.961 156.487 227.937 151.443L227.847 136.294L227.888 105.989L228.068 106.193L225.005 105.8L225.12 105.776L211.224 113.481L204.28 117.346L197.369 121.268L197.427 121.162L197.484 133.093C197.492 137.072 197.549 141.044 197.508 145.023L197.492 144.949L198.647 148.135L198.688 148.249L198.598 148.331L197.427 149.445L197.484 149.314L197.435 159.681C197.427 163.136 197.361 166.592 197.328 170.047H197.312V170.064Z" fill="white"/>
<path d="M225.079 105.636C225.243 110.73 225.3 115.823 225.259 120.916C225.153 126.009 225.079 131.103 225.185 136.196C225.259 141.289 225.333 146.382 225.308 151.476C225.317 154.022 225.276 156.569 225.235 159.115C225.202 161.662 225.161 164.209 225.079 166.755H225.03C224.948 164.209 224.907 161.662 224.874 159.115C224.833 156.569 224.792 154.022 224.801 151.476C224.776 146.382 224.842 141.289 224.923 136.196C225.038 131.103 224.956 126.009 224.85 120.916C224.809 115.823 224.866 110.73 225.03 105.636H225.079Z" fill="white"/>
<path d="M228.002 107.471L262.337 89.5216L228.232 107.905L228.002 107.471Z" fill="white"/>
<path d="M250.152 213.102L248.736 212.693" stroke="white" stroke-width="0.606" stroke-miterlimit="10"/>
<path d="M301.109 64.8661L281.784 75.5112L262.427 86.1071L262.525 85.9351C262.55 92.9608 262.566 99.9784 262.533 107.004L262.476 128.073L262.468 128.04L264.048 134.329L264.064 134.386L264.032 134.436L262.427 136.63L262.451 136.556C262.435 144.835 262.386 153.122 262.419 161.4L262.476 186.244L262.181 186.236C262.394 182.731 262.771 179.243 263.368 175.787C263.663 174.06 264.015 172.34 264.49 170.645C264.965 168.95 265.514 167.271 266.357 165.699L266.415 165.593H266.537L297.604 164.79L297.948 164.782L297.834 165.11C296.876 167.82 295.991 170.555 295.14 173.306C294.296 176.058 293.494 178.817 292.773 181.601C292.053 184.385 291.373 187.178 290.849 190.003C290.333 192.819 289.866 195.661 289.76 198.527L289.752 198.47C290.137 200.246 290.333 202.048 290.349 203.858C290.349 205.659 290.169 207.51 289.449 209.213C289.088 210.056 288.564 210.851 287.868 211.465C287.172 212.087 286.304 212.496 285.404 212.685C284.495 212.881 283.586 212.865 282.693 212.898C281.792 212.914 280.892 212.922 279.999 212.906C276.404 212.906 272.818 212.464 269.248 212.652C265.694 212.824 262.091 213.7 259.127 215.731L259.102 215.747L259.069 215.739L252.56 213.839L252.576 213.79L259.11 215.608L259.053 215.616C262.017 213.528 265.653 212.586 269.231 212.398C272.834 212.185 276.421 212.603 279.999 212.578C280.892 212.586 281.792 212.57 282.685 212.546C283.578 212.513 284.487 212.513 285.33 212.324C286.182 212.136 286.984 211.751 287.623 211.17C288.27 210.597 288.753 209.852 289.097 209.041C289.776 207.42 289.94 205.61 289.932 203.841C289.907 202.064 289.694 200.279 289.31 198.551L289.301 198.519V198.494C289.391 195.595 289.825 192.729 290.358 189.896C290.89 187.055 291.57 184.254 292.298 181.462C293.027 178.67 293.83 175.902 294.681 173.151C295.533 170.399 296.425 167.656 297.383 164.938L297.613 165.257L266.546 166.019L266.726 165.912C265.899 167.427 265.342 169.089 264.867 170.76C264.384 172.43 264.032 174.142 263.72 175.861C263.106 179.3 262.713 182.78 262.476 186.26L262.181 186.252L262.238 161.408C262.279 153.13 262.222 144.843 262.206 136.565V136.524L262.23 136.491L263.819 134.288L263.794 134.395L262.181 128.114L262.173 128.098V128.081L262.116 107.012C262.083 99.9866 262.099 92.969 262.124 85.9433V85.8287L262.222 85.7714L281.629 75.2737L301.06 64.8252L301.109 64.8661Z" fill="white"/>
<path d="M306.481 77.4026C306.571 86.5573 306.636 95.7202 306.669 104.875L306.726 132.347L306.669 159.82C306.636 168.974 306.571 178.137 306.481 187.292C306.391 178.137 306.325 168.974 306.292 159.82L306.235 132.347L306.292 104.875C306.325 95.7202 306.391 86.5655 306.481 77.4026Z" fill="white"/>
<path d="M309.511 80.7682C309.601 89.0468 309.666 97.3171 309.699 105.596L309.756 130.423L309.699 155.251C309.666 163.529 309.601 171.8 309.511 180.078C309.42 171.8 309.355 163.529 309.322 155.251L309.265 130.423L309.322 105.596C309.355 97.3253 309.42 89.0468 309.511 80.7682Z" fill="white"/>
<path d="M94.7675 27.2645L98.1329 52.1575L101.417 77.0587L107.967 126.869L107.492 126.902L107.501 122.423V122.448L103.48 80.9728C102.121 67.1507 100.827 53.3203 99.5413 39.4899C100.983 53.3039 102.416 67.1179 103.791 80.9401L107.959 122.398V122.407V122.415L107.967 126.894L107.492 126.927L101.081 77.0997L97.8873 52.1821L94.7675 27.2645Z" fill="white"/>
<path d="M107.713 122.406L161.471 126.722L161.643 126.738V126.91L161.651 130.611V130.824L161.438 130.808L134.572 129.006L121.143 128.016L107.722 126.992L107.648 126.984V126.91L107.713 122.406ZM107.746 122.439L107.812 126.902L107.738 126.82L121.175 127.647L134.613 128.507L161.471 130.407L161.258 130.603L161.266 126.902L161.438 127.09L107.746 122.439Z" fill="white"/>
<path d="M299.07 11.8129L161.577 127.058L161.651 126.91V130.611L161.332 130.448L216.326 88.2361L271.475 46.2373L271.508 46.2783L216.62 88.6291L161.577 130.767L161.258 131.013V130.611V126.91V126.812L161.332 126.755L299.037 11.7802L299.07 11.8129Z" fill="white"/>
<path d="M123.681 27.8705L117.687 117.305L117.54 117.141L156.132 121.285L155.96 121.342L209.054 63.8507L262.32 6.52307L262.361 6.55583L209.398 64.1782L156.263 121.62L156.189 121.702L156.083 121.686L117.507 117.461L117.351 117.436L117.368 117.289L123.632 27.8623L123.681 27.8705Z" fill="white"/>
<path d="M156.083 121.481L156.034 116.396L156.099 116.47L136.963 114.554C130.584 113.923 124.213 113.211 117.867 112.294L117.875 112.245C124.271 112.703 130.649 113.366 137.02 114.112L156.124 116.322L156.189 116.331V116.396L156.14 121.481H156.083Z" fill="white"/>
<path d="M156.091 116.388L198.368 66.0697L219.535 40.931C226.659 32.6115 233.726 24.2429 240.907 15.9725L240.948 16.0053C233.996 24.464 226.921 32.8326 219.912 41.2504L198.671 66.3235L156.132 116.421L156.091 116.388Z" fill="white"/>
<path d="M118.326 105.636L160.947 110.468L160.881 110.959L118.326 105.636Z" fill="white"/>
<path d="M118.948 96.5802L167.481 102.73L167.416 103.221L118.948 96.5802Z" fill="white"/>
<path d="M119.759 84.6987L176.407 92.1666L176.333 92.6579L119.759 84.6987Z" fill="white"/>
<path d="M120.684 71.2449L186.053 80.7435L185.979 81.2348L120.684 71.2449Z" fill="white"/>
<path d="M121.863 54.7451L196.591 68.2807L196.501 68.772L121.863 54.7451Z" fill="white"/>
<path d="M123.01 37.2872L210.151 52.2312L210.07 52.7143L123.01 37.2872Z" fill="white"/>
<path d="M99.0746 162.325L95.7582 161.924H95.7664L93.7603 161.867L95.7664 161.801L99.0992 161.998L99.0746 162.325Z" fill="white"/>
<path d="M99.091 165.707L93.7603 165.535L99.091 165.371V165.707Z" fill="white"/>
<path d="M89.445 161.089L80.7979 159.574L80.8061 159.582L77.3669 159.509L80.8061 159.443H80.8143H80.8225L89.5187 160.598L89.445 161.089Z" fill="white"/>
<path d="M89.4777 165.789L77.3669 165.175L89.4941 165.29L89.4777 165.789Z" fill="white"/>
<path d="M66.6726 157.625L44.1051 154.112L32.8214 152.344C29.0629 151.746 25.3126 151.099 21.5622 150.428H21.5868C19.6461 150.395 17.6973 150.346 15.7566 150.288V150.239C17.6973 150.182 19.6461 150.133 21.5868 150.1H21.595H21.6114C25.3781 150.649 29.1448 151.222 32.8951 151.852L44.1543 153.752L66.6726 157.568V157.625Z" fill="white"/>
<path d="M66.6727 165.2L41.2065 164.479C36.9649 164.373 32.7233 164.242 28.4734 164.078L22.111 163.775L15.7485 163.611V163.562C17.8694 163.505 19.9984 163.431 22.1192 163.431L28.4898 163.578C32.7315 163.717 36.9731 163.889 41.2229 164.078L66.6809 165.15L66.6727 165.2Z" fill="white"/>
<path d="M98.6405 151.607L95.7664 148.864L98.7552 151.484L98.6405 151.607Z" fill="white"/>
<path d="M89.3466 145.867L80.806 139.996L89.6169 145.449L89.3466 145.867Z" fill="white"/>
<path d="M89.3139 143.058L80.806 135.115L89.6496 142.689L89.3139 143.058Z" fill="white"/>
<path d="M167.407 152.597L180.738 149.052H180.747L182.933 149.076L180.747 149.101H180.755L167.489 152.917L167.407 152.597Z" fill="white"/>
<path d="M167.407 155.292L180.738 152.196H180.747L182.933 152.221L180.747 152.237H180.755L167.489 155.611L167.407 155.292Z" fill="white"/>
<path d="M167.932 154.604L180.738 151.115L180.747 151.107L182.933 151.132L180.747 151.156H180.755L168.022 154.923L167.932 154.604Z" fill="white"/>
<path d="M197.271 144.802L225.046 137.408H225.055L228.117 137.433L225.055 137.457H225.063L197.402 145.277L197.271 144.802Z" fill="white"/>
<path d="M197.287 149.101L225.046 143.107H225.055L228.117 143.132L225.055 143.156L197.394 149.584L197.287 149.101Z" fill="white"/>
<path d="M198.442 147.979L225.046 141.208H225.054L228.117 141.232L225.054 141.257H225.063L198.573 148.454L198.442 147.979Z" fill="white"/>
<path d="M262.279 127.827L306.481 116.757L309.511 116.773L306.481 116.789H306.489L262.402 128.302L262.279 127.827Z" fill="white"/>
<path d="M262.288 136.303L306.481 127.451L309.511 127.467L306.481 127.484H306.489L262.386 136.786L262.288 136.303Z" fill="white"/>
<path d="M263.876 134.108L306.481 123.487L309.511 123.504L306.481 123.52H306.489L263.999 134.591L263.876 134.108Z" fill="white"/>
<path d="M167.432 163.193L180.747 161.957L182.933 161.973L180.747 161.998L167.465 163.521L167.432 163.193Z" fill="white"/>
<path d="M167.44 166.002L182.933 165.568L167.457 166.33L167.44 166.002Z" fill="white"/>
<path d="M197.32 160.532L225.054 158.215L228.117 158.24L225.054 158.264L197.361 161.024L197.32 160.532Z" fill="white"/>
<path d="M197.328 164.454L228.117 163.775L197.345 164.954L197.328 164.454Z" fill="white"/>
<path d="M262.32 154.817L306.481 151.451L309.511 151.467L306.481 151.484H306.489L262.361 155.308L262.32 154.817Z" fill="white"/>
<path d="M262.337 162.211L286.091 161.695L297.973 161.433C301.936 161.376 305.891 161.195 309.854 161.261C305.891 161.228 301.936 161.449 297.973 161.556L286.1 161.941L262.353 162.71L262.337 162.211Z" fill="white"/>
<path d="M120.176 186.048C119.046 185.638 117.826 185.499 116.647 185.646C115.46 185.785 114.354 186.26 113.175 186.588C112.012 186.915 110.694 187.047 109.523 186.482C108.95 186.195 108.483 185.695 108.196 185.13C107.91 184.565 107.754 183.959 107.631 183.362C106.706 178.629 105.691 173.929 104.577 169.237L104.569 169.22V169.204C104.618 165.388 104.659 161.572 104.635 157.756L104.553 146.309V146.137H104.725L118.792 146.047H119.054V146.309L119.046 153.809C119.046 156.307 119.03 158.804 118.997 161.31C118.948 166.305 118.923 171.308 118.817 176.303H118.768C118.661 171.308 118.637 166.305 118.588 161.31C118.563 158.813 118.539 156.315 118.539 153.809L118.53 146.309L118.792 146.571L104.725 146.481L104.897 146.309L104.815 157.756C104.79 161.572 104.831 165.388 104.88 169.204L104.872 169.171C106.117 173.83 107.165 178.547 108.025 183.288C108.139 183.869 108.278 184.443 108.54 184.958C108.794 185.474 109.187 185.9 109.695 186.154C110.719 186.686 111.971 186.613 113.101 186.31C114.256 186.023 115.394 185.556 116.622 185.458C117.834 185.351 119.071 185.54 120.193 185.998L120.176 186.048Z" fill="white"/>
<path d="M112.021 168.901C111.89 168.68 111.628 168.664 111.39 168.696L110.661 168.754L109.204 168.868L106.289 169.106L100.458 169.572L88.8062 170.514L65.4936 172.397L65.6082 172.357C65.1087 172.758 64.6665 173.405 64.8631 173.986C64.9531 174.281 65.1824 174.518 65.4281 174.739C65.6983 174.944 65.9931 175.116 66.3042 175.28L66.3943 175.329L66.4189 175.419L71.5776 196.316L72.8632 201.54C73.2726 203.284 73.7885 205.012 74.0178 206.806C74.4764 210.384 74.2061 213.995 73.9032 217.565C73.7476 219.35 73.5674 221.135 73.5838 222.929C73.592 224.706 73.8295 226.515 74.5582 228.137C75.2625 229.774 76.548 231.084 77.9647 232.149C79.3813 233.222 80.9534 234.114 82.6485 234.663C84.3353 235.22 86.1368 235.416 87.8891 235.146C89.6496 234.892 91.3528 234.335 93.1052 233.893L103.562 231.346L103.545 231.355C105.003 230.88 106.477 230.495 107.975 230.175C109.474 229.864 110.989 229.627 112.536 229.602C113.306 229.594 114.092 229.643 114.862 229.848C115.615 230.028 116.426 230.487 116.803 231.224C117.196 231.879 117.572 232.689 117.343 233.557C117.228 233.983 116.934 234.343 116.598 234.581C116.254 234.827 115.886 234.99 115.468 235.08L115.533 234.646L117.302 235.604L117.245 235.58C117.368 235.588 117.662 235.441 117.843 235.244C118.039 235.048 118.211 234.802 118.358 234.548C118.653 234.032 118.874 233.459 119.054 232.878C119.357 231.723 119.366 230.478 119.456 229.242C119.562 226.761 119.628 224.272 119.677 221.79C119.783 216.82 119.791 211.841 119.841 206.871C119.939 196.922 119.988 186.973 119.972 177.016L119.98 177.049C119.685 176.598 119.087 176.385 118.53 176.312C117.957 176.238 117.376 176.271 116.803 176.353C116.229 176.41 115.681 176.656 115.083 176.696C114.796 176.721 114.444 176.688 114.215 176.459C113.994 176.222 113.92 175.935 113.806 175.665C113.413 174.551 113.167 173.413 112.913 172.266C112.602 171.145 112.627 169.908 112.021 168.901ZM112.062 168.876C112.692 169.9 112.676 171.136 113.011 172.25C113.273 173.388 113.527 174.535 113.928 175.632C114.043 175.894 114.133 176.197 114.313 176.385C114.51 176.574 114.813 176.606 115.091 176.582C115.664 176.533 116.213 176.287 116.803 176.222C117.384 176.131 117.982 176.09 118.571 176.164C119.153 176.246 119.783 176.426 120.152 176.975L120.16 176.991V177.016C120.25 186.965 120.332 196.922 120.332 206.871C120.332 211.85 120.275 216.82 120.176 221.799C120.127 224.288 120.053 226.777 119.947 229.267C119.849 230.503 119.849 231.772 119.513 233.025C119.317 233.623 119.095 234.221 118.768 234.786C118.604 235.064 118.416 235.342 118.178 235.58C117.924 235.809 117.662 236.071 117.155 236.038H117.13L117.089 236.014L115.321 235.048L114.788 234.753L115.394 234.614C116.049 234.458 116.745 234.049 116.909 233.418C117.089 232.788 116.794 232.059 116.418 231.453C116.09 230.814 115.452 230.462 114.747 230.282C114.043 230.094 113.298 230.044 112.545 230.053C111.046 230.077 109.548 230.315 108.066 230.618C106.583 230.929 105.118 231.314 103.677 231.772H103.668H103.66L93.1871 234.237C91.4511 234.663 89.7315 235.211 87.93 235.457C86.1286 235.727 84.2698 235.506 82.5584 234.925C80.8388 234.352 79.2502 233.443 77.8173 232.345C76.3925 231.256 75.0741 229.913 74.3617 228.227C73.6247 226.564 73.3873 224.73 73.3955 222.929C73.3873 221.127 73.5838 219.334 73.7476 217.557C74.0587 213.995 74.2798 210.384 73.8131 206.838C73.5838 205.07 73.0516 203.35 72.6339 201.606L71.3074 196.39L66.0258 175.525L66.1405 175.665C65.8047 175.493 65.4772 175.313 65.1742 175.075C64.8876 174.821 64.5928 174.526 64.4618 174.117C64.3308 173.708 64.4045 173.257 64.5929 172.905C64.7812 172.545 65.035 172.258 65.3462 172.004L65.3953 171.964L65.4608 171.955L88.7898 170.277L100.45 169.433L106.28 169.007L109.196 168.795L110.653 168.688L111.382 168.639C111.505 168.631 111.628 168.614 111.75 168.647C111.881 168.68 111.988 168.778 112.062 168.876Z" fill="white"/>
<path d="M67.7126 173.708C69.9972 182.166 72.1753 190.65 74.2634 199.157C74.7465 201.286 75.3852 203.399 75.5899 205.61C75.811 207.804 75.7701 210.007 75.6473 212.193C75.5162 214.38 75.2951 216.566 75.1478 218.744C75.0167 220.914 75.0004 223.141 75.6309 225.213C75.9502 226.245 76.4415 227.219 77.0966 228.071C77.7599 228.923 78.5705 229.651 79.4385 230.298C81.1663 231.6 83.1315 232.616 85.2196 233.115C86.2677 233.352 87.3404 233.467 88.4131 233.385C89.4858 233.32 90.5421 233.09 91.5984 232.82C92.6547 232.55 93.7029 232.247 94.7756 231.985L97.9691 231.223L104.364 229.717C106.493 229.193 108.68 228.816 110.866 228.62C111.963 228.521 113.06 228.456 114.166 228.513C114.715 228.538 115.271 228.603 115.812 228.693C116.352 228.767 116.95 228.939 117.368 229.356C118.178 230.167 118.53 231.33 118.506 232.435C118.473 233.549 118.105 234.622 117.613 235.596L117.572 235.572C118.031 234.581 118.358 233.516 118.35 232.435C118.35 231.363 117.957 230.274 117.204 229.537C116.827 229.168 116.311 229.037 115.779 228.963C115.239 228.89 114.706 228.832 114.158 228.816C113.077 228.783 111.988 228.865 110.899 228.98C108.729 229.209 106.583 229.619 104.471 230.175L98.0837 231.723L94.8902 232.493L91.7131 233.32C90.6404 233.582 89.5513 233.811 88.4295 233.868C87.3077 233.942 86.1858 233.811 85.1049 233.557C82.9268 233.033 80.937 231.944 79.1929 230.593C78.3249 229.913 77.4979 229.152 76.8264 228.259C76.1549 227.367 75.6636 226.343 75.3525 225.279C74.7301 223.141 74.7711 220.898 74.9348 218.711C75.115 216.525 75.3688 214.355 75.4589 212.161C75.5735 209.974 75.5654 207.78 75.2951 205.618C75.0577 203.456 74.3616 201.368 73.8458 199.239C71.684 190.748 69.6123 182.24 67.6471 173.699L67.7126 173.708Z" fill="white"/>
<path d="M83.4182 170.809C84.9822 176.328 86.3497 181.904 87.5452 187.521L89.2074 195.964L90.9106 204.398C91.2136 205.79 91.5739 207.182 92.229 208.435C92.8759 209.679 93.8667 210.728 95.1113 211.342C96.3478 211.972 97.7644 212.218 99.1646 212.218C100.573 212.226 101.965 211.989 103.341 211.62C106.084 210.891 108.802 209.802 111.709 209.557C114.592 209.295 117.531 209.72 120.184 210.834L120.168 210.883C117.466 209.933 114.567 209.589 111.742 209.917C108.909 210.236 106.264 211.383 103.464 212.111C100.712 212.881 97.5679 213.11 94.8903 211.751C93.5637 211.08 92.5074 209.917 91.8769 208.599C91.23 207.28 90.9024 205.855 90.6322 204.447C90.1 201.622 89.6251 198.797 89.0273 195.997C88.4459 193.188 87.7744 190.396 87.1276 187.603L83.3527 170.817L83.4182 170.809Z" fill="white"/>
<path d="M93.3918 170.064C94.5791 174.076 95.5863 178.138 96.4461 182.232C97.2485 186.342 97.9937 190.453 98.8862 194.539C99.1073 195.554 99.3776 196.562 99.8525 197.462C100.327 198.363 101.04 199.108 101.941 199.55C102.833 200.001 103.857 200.173 104.864 200.173C105.879 200.173 106.895 200.009 107.894 199.739C109.883 199.215 111.873 198.42 114.002 198.24C116.115 198.06 118.26 198.404 120.193 199.223L120.176 199.272C118.203 198.592 116.09 198.38 114.043 198.625C111.988 198.854 110.064 199.698 108.025 200.23C106.01 200.795 103.701 200.967 101.728 199.96C100.745 199.46 99.9753 198.601 99.5168 197.634C99.05 196.66 98.8126 195.62 98.6242 194.588C97.9528 190.453 97.052 186.375 96.053 182.314C95.1195 178.244 94.2106 174.166 93.3508 170.072L93.3918 170.064Z" fill="white"/>
<path d="M100.123 169.384C101.048 172.381 101.818 175.419 102.456 178.49C103.03 181.568 103.57 184.656 104.266 187.71C104.438 188.471 104.643 189.217 105.003 189.888C105.355 190.551 105.887 191.092 106.551 191.419C107.894 192.074 109.499 191.943 110.964 191.55C112.446 191.157 113.945 190.568 115.55 190.445C117.138 190.314 118.752 190.592 120.193 191.223L120.176 191.272C118.694 190.781 117.114 190.633 115.591 190.83C114.06 191.01 112.627 191.64 111.095 192.05C109.58 192.476 107.828 192.607 106.338 191.837C105.593 191.46 105.011 190.797 104.667 190.06C104.315 189.323 104.143 188.537 104.004 187.767C103.529 184.664 102.833 181.609 102.063 178.58C101.359 175.534 100.688 172.471 100.082 169.4L100.123 169.384Z" fill="white"/>
<path d="M108.491 168.876C109.048 170.62 109.49 172.397 109.851 174.191C110.014 175.091 110.137 176 110.325 176.893C110.497 177.793 110.735 178.678 110.956 179.562C111.169 180.43 111.513 181.306 112.274 181.65C113.028 182.011 113.937 181.929 114.78 181.716C115.632 181.486 116.524 181.151 117.474 181.093C118.416 181.036 119.366 181.216 120.193 181.618L120.176 181.667C119.3 181.413 118.391 181.355 117.515 181.478C116.639 181.593 115.82 181.97 114.911 182.207C114.019 182.469 112.97 182.543 112.061 182.068C111.611 181.839 111.259 181.429 111.054 180.987C110.841 180.545 110.759 180.078 110.686 179.62C110.416 177.81 109.932 176.041 109.449 174.281C109.024 172.504 108.68 170.719 108.442 168.893L108.491 168.876Z" fill="white"/>
<path d="M110.981 168.704C111.447 170.047 111.799 171.423 112.07 172.815C112.184 173.519 112.266 174.223 112.405 174.919C112.545 175.615 112.733 176.303 112.913 176.983C113.085 177.654 113.364 178.309 113.929 178.563C114.494 178.825 115.181 178.768 115.828 178.596C116.483 178.432 117.179 178.178 117.933 178.137C118.67 178.096 119.415 178.252 120.045 178.58L120.029 178.629C119.341 178.457 118.645 178.416 117.974 178.522C117.302 178.62 116.672 178.915 115.967 179.112C115.263 179.308 114.436 179.366 113.716 178.981C113.355 178.792 113.077 178.465 112.921 178.113C112.758 177.761 112.7 177.392 112.651 177.04C112.553 176.336 112.422 175.64 112.25 174.952C112.078 174.264 111.857 173.593 111.668 172.905C111.333 171.529 111.071 170.145 110.932 168.721L110.981 168.704Z" fill="white"/>
<path d="M93.7357 233.983L93.49 247.895L93.2444 233.983H93.7357Z" fill="white"/>
<path d="M97.355 233.115L97.1093 245.766L96.8555 233.115H97.355Z" fill="white"/>
<path d="M171.87 227.252C172.632 227.285 173.352 227.563 173.967 227.964C174.572 228.374 175.088 228.881 175.539 229.422C176.439 230.519 177.135 231.706 177.881 232.861C179.346 235.195 180.747 237.561 182.45 239.707C184.128 241.86 186.192 243.752 188.657 244.972C189.885 245.578 191.195 246.02 192.554 246.208C193.914 246.388 195.314 246.307 196.632 245.914C195.322 246.331 193.914 246.446 192.546 246.29C191.171 246.126 189.836 245.701 188.583 245.119C186.069 243.948 183.932 242.057 182.196 239.92C180.427 237.782 178.97 235.424 177.471 233.131C176.71 231.993 175.981 230.814 175.105 229.799C174.245 228.8 173.123 227.932 171.854 227.915L171.87 227.252Z" fill="white"/>
<path d="M260.838 176.893L227.446 177.008L260.83 176.23L260.838 176.893Z" fill="white"/>
<path d="M248.359 207.395C245.28 208.214 242.168 208.861 239.032 209.327C242.127 208.64 245.174 207.788 248.162 206.764L248.359 207.395Z" fill="white"/>
<path d="M294.845 166.649C292.249 172.021 290.366 177.72 289.203 183.558C288.049 189.397 287.615 195.374 287.991 201.303C288.073 202.777 288.237 204.3 287.999 205.814C287.77 207.313 287.099 208.852 285.78 209.77C284.446 210.678 282.808 210.711 281.334 210.67C279.835 210.629 278.345 210.531 276.863 210.441C273.891 210.269 270.91 210.171 267.954 210.572C265.006 210.94 262.107 211.735 259.364 212.914C262.075 211.661 264.957 210.793 267.921 210.335C270.885 209.884 273.899 209.941 276.879 210.064L281.342 210.244C282.8 210.277 284.339 210.22 285.518 209.401C286.681 208.582 287.32 207.157 287.524 205.749C287.737 204.308 287.574 202.826 287.484 201.335C287.14 195.358 287.574 189.339 288.818 183.484C290.063 177.621 292.085 171.947 294.845 166.649Z" fill="white"/>
<path d="M112.135 169.056C105.101 170.063 98.051 170.981 91.0089 171.947C83.9586 172.856 76.9165 173.806 69.858 174.674C76.8919 173.666 83.9422 172.749 90.9843 171.783C98.0428 170.874 105.085 169.924 112.135 169.056Z" fill="white"/>
<g opacity="0.45">
<path d="M60.9163 24.7916L110.252 141.052L109.793 141.248L60.9163 24.7916Z" fill="white"/>
</g>
<g opacity="0.45">
<path d="M163.682 137.056L322.637 37.0662L163.944 137.473L163.682 137.056Z" fill="white"/>
</g>
<g opacity="0.45">
<path d="M271.491 189.781L247.99 192.582L224.481 195.309L177.471 200.746L130.437 206.027L106.919 208.664L83.3937 211.219L106.895 208.419L130.396 205.7L177.414 200.255L224.449 194.981L247.966 192.344L271.491 189.781Z" fill="white"/>
</g>
<g opacity="0.45">
<path d="M30.4714 15.989L30.7907 48.7266L30.9709 81.4642L31.1265 146.939L30.9791 212.423L30.7907 245.16L30.4714 277.898L30.1438 245.16L29.9555 212.423L29.8081 146.939L29.9637 81.4642L30.1438 48.7266L30.4714 15.989Z" fill="white"/>
</g>
<g opacity="0.45">
<path d="M24.895 15.989L25.2143 48.7266L25.4026 81.4642L25.5582 146.939L25.4026 212.423L25.2143 245.16L24.895 277.898L24.5674 245.16L24.3873 212.423L24.2317 146.939L24.3873 81.4642L24.5756 48.7266L24.895 15.989Z" fill="white"/>
</g>
<g opacity="0.45">
<path d="M301.101 43.5597L301.265 67.5683L301.322 91.5688L301.429 139.578L301.322 187.587L301.265 211.587L301.101 235.588L300.937 211.587L300.88 187.587L300.773 139.578L300.88 91.5688L300.937 67.5683L301.101 43.5597Z" fill="white"/>
</g>
<g opacity="0.45">
<path d="M243.061 232.1C240.097 233.23 237.149 234.392 234.176 235.49L225.267 238.814L216.342 242.098L207.392 245.324C207.277 245.365 207.154 245.308 207.114 245.193C207.089 245.136 207.097 245.07 207.13 245.013C208.571 242.343 209.865 239.584 210.692 236.661C211.511 233.754 211.912 230.675 211.445 227.653C212.002 230.658 211.756 233.786 210.97 236.734C210.184 239.698 208.964 242.532 207.515 245.218L207.253 244.915L216.178 241.631L225.128 238.405L234.086 235.219C237.059 234.155 240.064 233.148 243.061 232.1Z" fill="white"/>
</g>
<g opacity="0.45">
<path d="M125.36 167.411C127.579 173.945 129.65 180.52 131.804 187.071C133.892 193.647 135.947 200.23 137.986 206.814L150.285 246.323L150.236 246.339L137.61 206.928C135.497 200.361 133.401 193.794 131.329 187.21C129.323 180.61 127.251 174.035 125.311 167.411H125.36Z" fill="white"/>
</g>
<path d="M272.155 220.611L329.261 248.747L271.942 221.053L272.155 220.611Z" fill="white"/>
<path d="M225.464 241.754L225.054 264.059L224.645 241.754H225.464Z" fill="white"/>
<path d="M217.259 244.915L216.85 271.724L216.44 244.915H217.259Z" fill="white"/>
<path d="M150.809 172.979L150.916 159.083L151.014 172.979H150.809Z" fill="white"/>
<path d="M148.058 136.523L147.952 168.139L147.853 136.523H148.058Z" fill="white"/>
<path d="M149.696 136.605L149.589 170.817L149.491 136.605H149.696Z" fill="white"/>
<path d="M150.539 136.605L150.441 160.819L150.334 136.605H150.539Z" fill="white"/>
<path d="M152.513 136.736L152.414 171.218L152.308 136.736H152.513Z" fill="white"/>
<path d="M153.88 136.794L153.774 162.669L153.675 136.794H153.88Z" fill="white"/>
<path d="M155.682 136.884L155.575 173.077L155.477 136.884H155.682Z" fill="white"/>
<path d="M156.566 136.925L156.468 165.863L156.361 136.925H156.566Z" fill="white"/>
<path d="M159.94 137.08L159.833 165.568L159.735 137.08H159.94Z" fill="white"/>
<path d="M161.839 137.162L161.741 167.754L161.635 137.162H161.839Z" fill="white"/>
<path d="M162.453 137.162L162.355 160.172L162.249 137.162H162.453Z" fill="white"/>
<path d="M164.975 137.309L164.877 166.845L164.771 137.309H164.975Z" fill="white"/>
<path d="M165.901 137.35L165.803 164.405L165.696 137.35H165.901Z" fill="white"/>
<path d="M154.765 173.445L154.871 144.073L154.969 173.445H154.765Z" fill="white"/>
<path d="M163.477 167.754L163.575 142.714L163.682 167.754H163.477Z" fill="white"/>
<path d="M106.592 164.405C107.222 164.323 107.853 164.315 108.483 164.307C109.114 164.315 109.744 164.323 110.375 164.405C109.744 164.487 109.114 164.495 108.483 164.504C107.853 164.495 107.222 164.487 106.592 164.405Z" fill="white"/>
<path d="M106.952 164.053C107.034 164.299 107.042 164.544 107.05 164.798C107.042 165.044 107.034 165.29 106.952 165.543C106.87 165.298 106.862 165.052 106.854 164.798C106.862 164.553 106.862 164.299 106.952 164.053Z" fill="white"/>
<path d="M106.379 165.175C107.026 165.093 107.672 165.085 108.319 165.077C108.966 165.085 109.613 165.093 110.26 165.175C109.613 165.257 108.966 165.265 108.319 165.273C107.672 165.265 107.026 165.257 106.379 165.175Z" fill="white"/>
<path d="M109.965 164.143C110.047 164.373 110.055 164.61 110.063 164.839C110.055 165.069 110.047 165.306 109.965 165.535C109.883 165.306 109.875 165.069 109.867 164.839C109.875 164.61 109.883 164.381 109.965 164.143Z" fill="white"/>
</g>
</svg>
