<svg width="156" height="63" viewBox="0 0 156 63" fill="none" xmlns="http://www.w3.org/2000/svg">
<path d="M139.893 56.3257V62.1024H139.117V56.3257L134.096 48.6304H134.974L139.485 55.5705H139.546L143.812 48.6304H144.649L139.893 56.3257Z" fill="white"/>
<path d="M128.885 49.3244V62.1024H128.089V49.3244H123.374V48.6304H133.56V49.3244H128.885Z" fill="white"/>
<path d="M117.326 61.3879H124.899V62.1024H116.55V48.6304H117.326V61.3879Z" fill="white"/>
<path d="M114.496 62.1026H113.68L112.271 58.7346H105.086L103.678 62.1026H102.902L108.597 48.5693H108.801L114.496 62.1026ZM111.985 58.061L108.658 50.1002L105.372 58.061H111.985Z" fill="white"/>
<path d="M101.415 48.6304V49.3244H93.9239V54.5907H100.905V55.2847H93.9239V61.3879H101.966V62.1024H93.1482V48.6304H101.415Z" fill="white"/>
<path d="M85.9382 56.836L90.9188 62.1024H89.8369L84.6727 56.5094V56.3257C86.2376 56.3121 87.4555 55.9515 88.3264 55.2439C89.1837 54.5363 89.6124 53.6994 89.6124 52.7332C89.6124 51.699 89.2586 50.8757 88.551 50.2633C87.8433 49.6374 86.9248 49.3244 85.7953 49.3244H82.2028V62.1024H81.4067V48.6304H85.8974C87.1902 48.6304 88.2584 49.0046 89.1021 49.753C89.973 50.4879 90.4085 51.4745 90.4085 52.7128C90.4085 53.747 90.0002 54.6655 89.1837 55.4684C88.3809 56.2577 87.299 56.7136 85.9382 56.836Z" fill="white"/>
<path d="M133.749 36.472L143.138 12.7939H144.649L133.871 39.7379H133.463L122.481 12.7939H124.074L133.626 36.472H133.749Z" fill="white"/>
<path d="M108.136 12.3447C112.055 12.3447 115.307 13.6783 117.893 16.3455C120.506 19.0127 121.812 22.3058 121.812 26.2249C121.812 30.1441 120.506 33.4372 117.893 36.1044C115.335 38.7444 112.082 40.0643 108.136 40.0643C103.999 40.0643 100.665 38.758 98.134 36.1452C95.6301 33.478 94.3782 30.1713 94.3782 26.2249C94.3782 22.3875 95.7118 19.1079 98.3789 16.3863C101.019 13.6919 104.271 12.3447 108.136 12.3447ZM108.136 13.7736C104.652 13.7736 101.754 14.9711 99.4404 17.3661C97.1542 19.7883 96.0111 22.7413 96.0111 26.2249C96.0111 29.8175 97.127 32.784 99.3587 35.1246C101.618 37.4924 104.543 38.6763 108.136 38.6763C111.647 38.6763 114.545 37.4788 116.831 35.0838C119.118 32.6888 120.261 29.7358 120.261 26.2249C120.261 22.7413 119.118 19.8019 116.831 17.4069C114.545 14.9847 111.647 13.7736 108.136 13.7736Z" fill="white"/>
<path d="M87.1074 36.2679V12.7531H88.6179V39.7787H88.2097L68.3691 16.0599V39.6971H66.8586V12.5898H67.2669L87.0258 36.2679H87.1074Z" fill="white"/>
<path d="M46.283 38.3089H62.5718V39.6969H43.7927V39.4519L59.8775 14.141H45.344V12.7529H62.2861V13.0795L46.283 38.3089Z" fill="white"/>
<path d="M40.6146 12.7529V14.141H25.6321V24.6736H39.594V26.0616H25.6321V38.268H41.7169V39.6969H24.0808V12.7529H40.6146Z" fill="white"/>
<path d="M10.0836 29.409L19.7181 39.6967H16.4521L6.2461 28.3476V27.9393C9.37595 27.9121 11.771 27.2317 13.4312 25.8981C15.0913 24.5645 15.9214 22.986 15.9214 21.1625C15.9214 19.1757 15.2819 17.6108 14.0027 16.4677C12.7235 15.3247 11.0225 14.7531 8.89967 14.7531H2.40863V39.6967H0V12.7119H9.22626C11.6213 12.7119 13.7305 13.4604 15.554 14.9572C17.4047 16.4269 18.3301 18.4681 18.3301 21.0809C18.3301 23.1221 17.568 24.9456 16.0439 26.5513C14.547 28.1298 12.5602 29.0824 10.0836 29.409Z" fill="#85CEE4"/>
<path d="M156 0.896973V6.52731H155.685V4.12889C155.691 3.41446 155.694 2.60932 155.694 1.71346C155.688 1.71346 155.682 1.71062 155.677 1.70495L153.363 5.03042H153.278L150.957 1.74748C150.957 1.75315 150.954 1.75882 150.948 1.76449V6.52731H150.642V0.896973H150.727L153.329 4.59666L155.906 0.896973H156Z" fill="#85CEE4"/>
<path d="M147.833 1.20323V6.52739H147.501V1.20323H145.536V0.914062H149.78V1.20323H147.833Z" fill="#85CEE4"/>
</svg>
