<svg width="700" height="606" viewBox="0 0 700 606" fill="none" xmlns="http://www.w3.org/2000/svg">
<path d="M700 283.537V602.716C700 604.373 698.657 605.716 697 605.716H343C341.343 605.716 340 604.373 340 602.716V283.538C340 282.724 340.33 281.946 340.915 281.381L517.915 110.246C519.078 109.122 520.922 109.122 522.085 110.246L699.085 281.381C699.67 281.946 700 282.724 700 283.537Z" fill="#080808"/>
<mask id="mask0_0_3" style="mask-type:alpha" maskUnits="userSpaceOnUse" x="340" y="111" width="360" height="494">
<path d="M700 297.428V601.501C700 603.158 698.657 604.501 697 604.501H343C341.343 604.501 340 603.158 340 601.501V297.428C340 296.648 340.303 295.899 340.846 295.339L517.846 112.791C519.025 111.575 520.975 111.575 522.154 112.791L699.154 295.339C699.697 295.899 700 296.648 700 297.428Z" fill="#2B2B2B"/>
</mask>
<g mask="url(#mask0_0_3)">
<path d="M418.546 246.222L338.876 324.127" stroke="#D2F7FF" stroke-opacity="0.1" stroke-width="3" stroke-miterlimit="10"/>
<path d="M560.902 188.871L520.016 147.056L453.184 212.409" stroke="#D2F7FF" stroke-opacity="0.1" stroke-width="3" stroke-miterlimit="10"/>
<path d="M837.122 471.407L643.465 273.362" stroke="#D2F7FF" stroke-opacity="0.1" stroke-width="3" stroke-miterlimit="10"/>
<path d="M393.823 599.255L374.791 617.867L397.818 641.416" stroke="#D2F7FF" stroke-opacity="0.1" stroke-width="3" stroke-miterlimit="10"/>
<path d="M393.873 599.33L476.313 518.717" stroke="#D2F7FF" stroke-opacity="0.1" stroke-width="3" stroke-miterlimit="10"/>
<path d="M679.133 396.235L641.253 357.497L501.6 494.058" stroke="#D2F7FF" stroke-opacity="0.1" stroke-width="3" stroke-miterlimit="10"/>
<path d="M703.94 421.588L752.959 471.719L613.288 608.298" stroke="#D2F7FF" stroke-opacity="0.1" stroke-width="3" stroke-miterlimit="10"/>
<path d="M679.131 396.273C679.131 396.273 655.968 418.438 679.17 445.162L703.588 421.285" stroke="#D2F7FF" stroke-opacity="0.1" stroke-miterlimit="10"/>
<path d="M701.503 419.179L679.973 397.161" stroke="#D2F7FF" stroke-opacity="0.1" stroke-linecap="round" stroke-linejoin="round" stroke-dasharray="1 2.01"/>
<path d="M678.709 395.867L678.078 395.222" stroke="#D2F7FF" stroke-opacity="0.1" stroke-linecap="round" stroke-linejoin="round"/>
<path d="M501.352 494.207C501.352 494.207 479.24 471.095 452.464 494.354L476.287 518.717" stroke="#D2F7FF" stroke-opacity="0.1" stroke-miterlimit="10"/>
<path d="M475.21 519.796L475.855 519.165" stroke="#D2F7FF" stroke-opacity="0.1" stroke-linecap="round" stroke-linejoin="round"/>
<path d="M478.444 516.633L500.463 495.102" stroke="#D2F7FF" stroke-opacity="0.1" stroke-linecap="round" stroke-linejoin="round" stroke-dasharray="1 2.01"/>
<path d="M501.759 493.835L502.404 493.204" stroke="#D2F7FF" stroke-opacity="0.1" stroke-linecap="round" stroke-linejoin="round"/>
<path d="M676.359 594.415L652.509 570.025" stroke="#D2F7FF" stroke-opacity="0.1" stroke-width="3" stroke-miterlimit="10"/>
<path d="M645.429 271.434L562.874 187.008L558.939 190.855L641.494 275.281L645.429 271.434Z" stroke="#D2F7FF" stroke-opacity="0.1" stroke-miterlimit="10"/>
<path d="M360.689 561.462L322.762 522.675L318.827 526.522L356.755 565.309L360.689 561.462Z" stroke="#D2F7FF" stroke-opacity="0.1" stroke-miterlimit="10"/>
<path d="M340.794 326.08L336.963 322.162L281.882 376.023L285.713 379.941L340.794 326.08Z" stroke="#D2F7FF" stroke-opacity="0.1" stroke-miterlimit="10"/>
<path d="M455.1 214.307L451.268 210.388L416.623 244.266L420.455 248.185L455.1 214.307Z" stroke="#D2F7FF" stroke-opacity="0.1" stroke-miterlimit="10"/>
<path d="M358.728 563.388L392.229 597.648" stroke="#D2F7FF" stroke-opacity="0.1" stroke-width="3" stroke-miterlimit="10"/>
<path d="M559.407 437.464L671.179 551.768" stroke="#D2F7FF" stroke-opacity="0.1" stroke-width="3" stroke-miterlimit="10"/>
<path d="M375.387 292.263L472.546 391.623" stroke="#D2F7FF" stroke-opacity="0.1" stroke-width="3" stroke-miterlimit="10"/>
<path d="M539.244 514.71L558.363 496.014L612.619 551.501L593.501 570.196" stroke="#D2F7FF" stroke-opacity="0.1" stroke-width="2" stroke-miterlimit="10"/>
<path d="M600.818 563.072L629.56 592.465" stroke="#D2F7FF" stroke-opacity="0.1" stroke-miterlimit="10"/>
<path d="M604.987 558.996L633.73 588.39" stroke="#D2F7FF" stroke-opacity="0.1" stroke-miterlimit="10"/>
<path d="M609.15 554.925L637.893 584.319" stroke="#D2F7FF" stroke-opacity="0.1" stroke-miterlimit="10"/>
<path d="M517.716 478.086L546.458 507.479" stroke="#D2F7FF" stroke-opacity="0.1" stroke-miterlimit="10"/>
<path d="M521.884 474.01L550.626 503.404" stroke="#D2F7FF" stroke-opacity="0.1" stroke-miterlimit="10"/>
<path d="M526.046 469.939L554.788 499.333" stroke="#D2F7FF" stroke-opacity="0.1" stroke-miterlimit="10"/>
<path d="M561.068 498.811L590.885 469.654" stroke="#D2F7FF" stroke-opacity="0.1" stroke-miterlimit="10"/>
<path d="M565.948 503.804L595.765 474.647" stroke="#D2F7FF" stroke-opacity="0.1" stroke-miterlimit="10"/>
<path d="M570.832 508.797L600.649 479.64" stroke="#D2F7FF" stroke-opacity="0.1" stroke-miterlimit="10"/>
<path d="M575.712 513.788L605.529 484.631" stroke="#D2F7FF" stroke-opacity="0.1" stroke-miterlimit="10"/>
<path d="M580.594 518.781L610.411 489.624" stroke="#D2F7FF" stroke-opacity="0.1" stroke-miterlimit="10"/>
<path d="M585.477 523.774L615.294 494.617" stroke="#D2F7FF" stroke-opacity="0.1" stroke-miterlimit="10"/>
<path d="M590.358 528.765L620.175 499.608" stroke="#D2F7FF" stroke-opacity="0.1" stroke-miterlimit="10"/>
<path d="M595.24 533.758L625.057 504.601" stroke="#D2F7FF" stroke-opacity="0.1" stroke-miterlimit="10"/>
<path d="M600.123 538.751L629.94 509.594" stroke="#D2F7FF" stroke-opacity="0.1" stroke-miterlimit="10"/>
<path d="M605.004 543.744L634.821 514.587" stroke="#D2F7FF" stroke-opacity="0.1" stroke-miterlimit="10"/>
<path d="M609.887 548.737L639.704 519.58" stroke="#D2F7FF" stroke-opacity="0.1" stroke-miterlimit="10"/>
<path d="M524.803 499.959L557.514 467.972L637.264 549.531L604.553 581.517" stroke="#D2F7FF" stroke-opacity="0.1" stroke-miterlimit="10"/>
<path d="M527.171 502.327C525.831 503.637 523.683 503.616 522.376 502.279C521.069 500.942 521.095 498.794 522.435 497.484C523.775 496.174 525.923 496.195 527.23 497.532C528.537 498.869 528.511 501.017 527.171 502.327Z" fill="#D2F7FF"/>
<path d="M602.408 577.383L599.975 586.045L608.689 583.806L602.408 577.383Z" fill="#D2F7FF"/>
<path d="M474.675 558.246L457.515 540.697L395.658 601.185L412.817 618.734L474.675 558.246Z" stroke="#D2F7FF" stroke-opacity="0.1" stroke-miterlimit="10"/>
<path d="M457.515 540.697L412.817 618.734" stroke="#D2F7FF" stroke-opacity="0.1" stroke-miterlimit="10"/>
<path d="M474.675 558.246L395.658 601.185" stroke="#D2F7FF" stroke-opacity="0.1" stroke-miterlimit="10"/>
<path d="M754.15 494.479L748.283 488.48L696.733 538.889L702.599 544.888L754.15 494.479Z" stroke="#D2F7FF" stroke-opacity="0.1" stroke-miterlimit="10"/>
<path d="M338.468 504.769C337.775 504.061 337.79 502.914 338.499 502.22L357.301 483.834C358.011 483.14 359.157 483.152 359.85 483.86L362.39 486.457C363.082 487.165 363.068 488.312 362.358 489.006L343.556 507.392C342.847 508.086 341.7 508.074 341.008 507.366L338.468 504.769Z" stroke="#D2F7FF" stroke-opacity="0.1" stroke-miterlimit="10"/>
<path d="M441.315 509.323C440.604 510.018 439.456 510.006 438.763 509.297L420.393 490.511C419.7 489.803 419.714 488.654 420.425 487.959L423.032 485.41C423.742 484.716 424.89 484.727 425.584 485.436L443.953 504.222C444.646 504.931 444.632 506.079 443.922 506.774L441.315 509.323Z" stroke="#D2F7FF" stroke-opacity="0.1" stroke-miterlimit="10"/>
<path d="M378.055 535.328C377.362 534.62 377.376 533.472 378.086 532.778L390.203 520.93C390.913 520.235 392.061 520.247 392.753 520.955L404.996 533.475C405.688 534.184 405.674 535.331 404.964 536.026L392.848 547.874C392.138 548.568 390.99 548.557 390.297 547.848L378.055 535.328Z" stroke="#D2F7FF" stroke-opacity="0.1" stroke-miterlimit="10"/>
<path d="M392.736 520.972C392.043 520.264 392.057 519.116 392.767 518.422L404.882 506.574C405.592 505.88 406.74 505.892 407.433 506.6L419.675 519.12C420.368 519.828 420.353 520.976 419.643 521.67L407.528 533.518C406.818 534.212 405.67 534.2 404.978 533.492L392.736 520.972Z" stroke="#D2F7FF" stroke-opacity="0.1" stroke-miterlimit="10"/>
<path d="M407.417 506.617C406.724 505.908 406.738 504.761 407.448 504.066L419.563 492.219C420.273 491.525 421.421 491.537 422.114 492.245L434.356 504.765C435.049 505.473 435.034 506.621 434.324 507.315L422.209 519.162C421.499 519.857 420.351 519.845 419.659 519.137L407.417 506.617Z" stroke="#D2F7FF" stroke-opacity="0.1" stroke-miterlimit="10"/>
<path d="M392.833 550.433C392.14 549.725 392.155 548.578 392.864 547.884L404.973 536.043C405.683 535.349 406.83 535.36 407.522 536.068L409.413 538.002C410.105 538.71 410.091 539.857 409.381 540.551L397.272 552.392C396.563 553.086 395.416 553.074 394.723 552.366L392.833 550.433Z" stroke="#D2F7FF" stroke-opacity="0.1" stroke-miterlimit="10"/>
<path d="M387.868 555.286C387.176 554.577 387.19 553.43 387.9 552.735L390.289 550.399C390.999 549.705 392.147 549.716 392.839 550.425L394.731 552.359C395.424 553.068 395.41 554.215 394.7 554.909L392.31 557.246C391.6 557.94 390.453 557.929 389.76 557.22L387.868 555.286Z" stroke="#D2F7FF" stroke-opacity="0.1" stroke-miterlimit="10"/>
<path d="M407.514 536.076C406.822 535.368 406.836 534.221 407.546 533.528L419.654 521.688C420.363 520.994 421.51 521.005 422.203 521.713L424.093 523.647C424.785 524.355 424.771 525.502 424.062 526.196L411.954 538.036C411.244 538.729 410.097 538.718 409.405 538.01L407.514 536.076Z" stroke="#D2F7FF" stroke-opacity="0.1" stroke-miterlimit="10"/>
<path d="M422.194 521.721C421.502 521.013 421.516 519.866 422.225 519.172L434.333 507.332C435.043 506.638 436.19 506.65 436.882 507.358L438.773 509.291C439.465 509.999 439.451 511.146 438.741 511.84L426.633 523.68C425.924 524.374 424.777 524.363 424.084 523.655L422.194 521.721Z" stroke="#D2F7FF" stroke-opacity="0.1" stroke-miterlimit="10"/>
<path d="M373.09 540.176C372.397 539.467 372.411 538.318 373.122 537.624L375.513 535.286C376.223 534.591 377.371 534.603 378.064 535.312L390.313 547.838C391.006 548.547 390.992 549.695 390.282 550.39L387.891 552.728C387.181 553.423 386.032 553.411 385.339 552.702L373.09 540.176Z" stroke="#D2F7FF" stroke-opacity="0.1" stroke-miterlimit="10"/>
<path d="M363.277 520.216C362.585 519.508 362.599 518.36 363.309 517.666L375.425 505.817C376.135 505.123 377.283 505.134 377.976 505.843L390.218 518.363C390.911 519.071 390.897 520.219 390.187 520.913L378.07 532.762C377.36 533.456 376.212 533.444 375.52 532.736L363.277 520.216Z" stroke="#D2F7FF" stroke-opacity="0.1" stroke-miterlimit="10"/>
<path d="M358.314 525.063C357.621 524.354 357.635 523.206 358.345 522.511L360.736 520.173C361.447 519.479 362.595 519.49 363.288 520.199L375.537 532.726C376.23 533.434 376.216 534.583 375.505 535.277L373.115 537.615C372.404 538.31 371.256 538.298 370.563 537.59L358.314 525.063Z" stroke="#D2F7FF" stroke-opacity="0.1" stroke-miterlimit="10"/>
<path d="M348.498 505.104C347.805 504.395 347.819 503.247 348.529 502.553L360.646 490.705C361.356 490.01 362.503 490.022 363.196 490.73L375.438 503.25C376.131 503.959 376.117 505.106 375.407 505.801L363.29 517.649C362.58 518.343 361.432 518.332 360.74 517.623L348.498 505.104Z" stroke="#D2F7FF" stroke-opacity="0.1" stroke-miterlimit="10"/>
<path d="M343.535 509.951C342.842 509.242 342.856 508.093 343.567 507.399L345.958 505.061C346.668 504.366 347.816 504.378 348.509 505.087L360.758 517.613C361.452 518.322 361.437 519.47 360.727 520.165L358.336 522.503C357.626 523.198 356.477 523.186 355.784 522.477L343.535 509.951Z" stroke="#D2F7FF" stroke-opacity="0.1" stroke-miterlimit="10"/>
<path d="M318.859 484.714C319.551 485.422 320.698 485.433 321.407 484.739L340.209 466.354C340.919 465.66 340.933 464.513 340.241 463.805L337.701 461.207C337.009 460.5 335.862 460.488 335.152 461.182L316.35 479.568C315.641 480.261 315.627 481.408 316.319 482.116L318.859 484.714Z" stroke="#D2F7FF" stroke-opacity="0.1" stroke-miterlimit="10"/>
<path d="M316.611 381.789C315.9 382.484 315.886 383.633 316.579 384.341L334.949 403.127C335.642 403.836 336.79 403.848 337.501 403.153L340.107 400.604C340.818 399.909 340.832 398.761 340.139 398.052L321.77 379.266C321.076 378.557 319.928 378.546 319.217 379.24L316.611 381.789Z" stroke="#D2F7FF" stroke-opacity="0.1" stroke-miterlimit="10"/>
<path d="M407.309 454.045C397.063 464.064 380.657 463.897 370.661 453.674C360.665 443.451 360.867 427.045 371.111 417.027C381.359 407.007 397.764 407.173 407.76 417.396C417.757 427.619 417.556 444.025 407.309 454.045Z" stroke="#D2F7FF" stroke-opacity="0.1" stroke-miterlimit="10"/>
<path d="M466.754 389.737L423.988 346.002L408.121 361.518L450.886 405.253L466.754 389.737Z" stroke="#D2F7FF" stroke-opacity="0.1" stroke-miterlimit="10"/>
<path d="M421.818 343.784L379.053 300.049L363.186 315.565L405.951 359.3L421.818 343.784Z" stroke="#D2F7FF" stroke-opacity="0.1" stroke-miterlimit="10"/>
<path d="M460.122 390.245L423.33 352.619L417.902 357.926L454.695 395.553L460.122 390.245Z" stroke="#D2F7FF" stroke-opacity="0.1" stroke-miterlimit="10"/>
<path d="M438.326 269.917L418.746 249.894L376.846 290.867L396.426 310.89L438.326 269.917Z" stroke="#D2F7FF" stroke-opacity="0.1" stroke-miterlimit="10"/>
<path d="M409.733 287.148C409.023 287.842 407.875 287.831 407.182 287.122L401.294 281.101C400.602 280.392 400.616 279.245 401.326 278.55L407.361 272.649C408.071 271.955 409.218 271.966 409.911 272.675L415.799 278.696C416.492 279.405 416.478 280.552 415.768 281.246L409.733 287.148Z" stroke="#D2F7FF" stroke-opacity="0.1" stroke-miterlimit="10"/>
<path d="M398.832 297.808C398.122 298.503 396.974 298.491 396.282 297.783L390.394 291.761C389.701 291.053 389.715 289.905 390.425 289.211L396.461 283.308C397.171 282.614 398.319 282.625 399.012 283.334L404.9 289.355C405.592 290.064 405.578 291.212 404.868 291.906L398.832 297.808Z" stroke="#D2F7FF" stroke-opacity="0.1" stroke-miterlimit="10"/>
<path d="M420.413 260.754L411.589 269.382" stroke="#D2F7FF" stroke-opacity="0.1" stroke-miterlimit="10"/>
<path d="M422.297 262.682L413.473 271.31" stroke="#D2F7FF" stroke-opacity="0.1" stroke-miterlimit="10"/>
<path d="M424.182 264.608L415.358 273.237" stroke="#D2F7FF" stroke-opacity="0.1" stroke-miterlimit="10"/>
<path d="M426.068 266.537L417.244 275.166" stroke="#D2F7FF" stroke-opacity="0.1" stroke-miterlimit="10"/>
<path d="M427.953 268.465L419.13 277.093" stroke="#D2F7FF" stroke-opacity="0.1" stroke-miterlimit="10"/>
<path d="M434.608 269.65L418.929 253.615L380.564 291.13L396.243 307.165L434.608 269.65Z" stroke="#D2F7FF" stroke-opacity="0.1" stroke-miterlimit="10"/>
<path d="M528.175 181.779L508.094 161.243L487.315 181.562L507.395 202.099L528.175 181.779Z" stroke="#D2F7FF" stroke-opacity="0.1" stroke-miterlimit="10"/>
<path d="M511.618 176.602C509.716 178.462 506.669 178.431 504.813 176.534C502.957 174.635 502.995 171.587 504.896 169.728C506.8 167.866 509.844 167.898 511.702 169.798C513.558 171.694 513.522 174.74 511.618 176.602Z" stroke="#D2F7FF" stroke-opacity="0.1" stroke-miterlimit="10"/>
<path d="M509.892 174.838C508.965 175.744 507.483 175.729 506.579 174.804C505.675 173.88 505.692 172.397 506.619 171.49C507.546 170.584 509.03 170.599 509.934 171.524C510.84 172.45 510.819 173.931 509.892 174.838Z" stroke="#D2F7FF" stroke-opacity="0.1" stroke-miterlimit="10"/>
<path d="M502.588 185.432C500.686 187.292 497.637 187.262 495.782 185.365C493.926 183.466 493.965 180.417 495.866 178.558C497.769 176.697 500.814 176.728 502.672 178.628C504.528 180.524 504.491 183.572 502.588 185.432Z" stroke="#D2F7FF" stroke-opacity="0.1" stroke-miterlimit="10"/>
<path d="M500.862 183.668C499.937 184.573 498.454 184.559 497.549 183.634C496.645 182.71 496.663 181.225 497.589 180.32C498.514 179.415 500 179.429 500.904 180.354C501.81 181.28 501.789 182.761 500.862 183.668Z" stroke="#D2F7FF" stroke-opacity="0.1" stroke-miterlimit="10"/>
<path d="M520.323 185.506C518.422 187.366 515.374 187.335 513.519 185.438C511.662 183.539 511.7 180.491 513.601 178.632C515.505 176.77 518.551 176.803 520.407 178.702C522.264 180.598 522.227 183.644 520.323 185.506Z" stroke="#D2F7FF" stroke-opacity="0.1" stroke-miterlimit="10"/>
<path d="M518.599 183.743C517.673 184.649 516.19 184.633 515.285 183.708C514.381 182.783 514.399 181.301 515.326 180.395C516.253 179.489 517.736 179.502 518.64 180.427C519.545 181.352 519.526 182.836 518.599 183.743Z" stroke="#D2F7FF" stroke-opacity="0.1" stroke-miterlimit="10"/>
<path d="M511.294 194.336C509.393 196.196 506.344 196.166 504.489 194.269C502.632 192.37 502.671 189.321 504.573 187.462C506.475 185.601 509.522 185.633 511.378 187.532C513.235 189.428 513.197 192.475 511.294 194.336Z" stroke="#D2F7FF" stroke-opacity="0.1" stroke-miterlimit="10"/>
<path d="M509.57 192.573C508.645 193.478 507.161 193.463 506.256 192.538C505.352 191.613 505.372 190.13 506.297 189.225C507.223 188.32 508.707 188.332 509.611 189.257C510.516 190.182 510.497 191.666 509.57 192.573Z" stroke="#D2F7FF" stroke-opacity="0.1" stroke-miterlimit="10"/>
<path d="M507.418 202.077L487.337 181.541L466.559 201.859L486.639 222.395L507.418 202.077Z" stroke="#D2F7FF" stroke-opacity="0.1" stroke-miterlimit="10"/>
<path d="M516.12 436.184L537.845 458.402" stroke="#D2F7FF" stroke-opacity="0.1" stroke-width="3" stroke-miterlimit="10"/>
<path d="M545.344 332.459L499.618 285.696L462.75 321.748L508.476 368.511L545.344 332.459Z" stroke="#D2F7FF" stroke-opacity="0.1" stroke-miterlimit="10"/>
<path d="M582.124 277.388L555.5 250.16L509.127 295.508L535.75 322.735L582.124 277.388Z" stroke="#D2F7FF" stroke-opacity="0.1" stroke-miterlimit="10"/>
<path d="M556.667 327.695C553.862 330.438 549.368 330.392 546.63 327.592C543.892 324.792 543.949 320.302 546.755 317.558C549.562 314.813 554.054 314.857 556.791 317.656C559.528 320.458 559.474 324.95 556.667 327.695Z" stroke="#D2F7FF" stroke-opacity="0.1" stroke-miterlimit="10"/>
<path d="M571.259 313.426C568.453 316.169 563.96 316.124 561.222 313.324C558.484 310.524 558.54 306.034 561.347 303.289C564.153 300.545 568.645 300.589 571.382 303.388C574.12 306.188 574.065 310.682 571.259 313.426Z" stroke="#D2F7FF" stroke-opacity="0.1" stroke-miterlimit="10"/>
<path d="M585.85 299.158C583.045 301.901 578.551 301.856 575.813 299.056C573.075 296.256 573.133 291.764 575.938 289.021C578.745 286.277 583.237 286.321 585.974 289.12C588.712 291.92 588.657 296.414 585.85 299.158Z" stroke="#D2F7FF" stroke-opacity="0.1" stroke-miterlimit="10"/>
<path d="M514.549 284.623C511.743 287.366 507.251 287.322 504.512 284.52C501.774 281.72 501.829 277.229 504.635 274.485C507.442 271.74 511.934 271.784 514.672 274.584C517.41 277.387 517.355 281.878 514.549 284.623Z" stroke="#D2F7FF" stroke-opacity="0.1" stroke-miterlimit="10"/>
<path d="M529.14 270.354C526.335 273.097 521.842 273.053 519.103 270.252C516.365 267.452 516.42 262.961 519.227 260.216C522.033 257.472 526.526 257.516 529.264 260.316C532.003 263.118 531.946 267.61 529.14 270.354Z" stroke="#D2F7FF" stroke-opacity="0.1" stroke-miterlimit="10"/>
<path d="M543.732 256.086C540.926 258.829 536.434 258.785 533.695 255.984C530.957 253.184 531.013 248.691 533.818 245.948C536.625 243.204 541.117 243.248 543.855 246.048C546.595 248.849 546.538 253.342 543.732 256.086Z" stroke="#D2F7FF" stroke-opacity="0.1" stroke-miterlimit="10"/>
<path d="M557.736 435.734L539.758 417.348L519.709 436.954L537.687 455.34L557.736 435.734Z" stroke="#D2F7FF" stroke-opacity="0.1" stroke-miterlimit="10"/>
<path d="M539.758 417.348L537.686 455.341" stroke="#D2F7FF" stroke-opacity="0.1" stroke-miterlimit="10"/>
<path d="M557.736 435.734L519.708 436.955" stroke="#D2F7FF" stroke-opacity="0.1" stroke-miterlimit="10"/>
<path d="M577.812 416.102L559.834 397.716L539.785 417.322L557.763 435.708L577.812 416.102Z" stroke="#D2F7FF" stroke-opacity="0.1" stroke-miterlimit="10"/>
<path d="M559.834 397.716L557.764 435.706" stroke="#D2F7FF" stroke-opacity="0.1" stroke-miterlimit="10"/>
<path d="M577.812 416.102L539.786 417.32" stroke="#D2F7FF" stroke-opacity="0.1" stroke-miterlimit="10"/>
<path d="M597.892 396.468L579.914 378.083L559.864 397.688L577.842 416.074L597.892 396.468Z" stroke="#D2F7FF" stroke-opacity="0.1" stroke-miterlimit="10"/>
<path d="M579.914 378.083L577.842 416.074" stroke="#D2F7FF" stroke-opacity="0.1" stroke-miterlimit="10"/>
<path d="M597.892 396.468L559.864 397.688" stroke="#D2F7FF" stroke-opacity="0.1" stroke-miterlimit="10"/>
<path d="M617.97 376.835L599.992 358.449L579.942 378.055L597.92 396.441L617.97 376.835Z" stroke="#D2F7FF" stroke-opacity="0.1" stroke-miterlimit="10"/>
<path d="M599.992 358.449L597.919 396.442" stroke="#D2F7FF" stroke-opacity="0.1" stroke-miterlimit="10"/>
<path d="M617.97 376.835L579.941 378.056" stroke="#D2F7FF" stroke-opacity="0.1" stroke-miterlimit="10"/>
<path d="M638.047 357.203L620.069 338.817L600.02 358.423L617.998 376.808L638.047 357.203Z" stroke="#D2F7FF" stroke-opacity="0.1" stroke-miterlimit="10"/>
<path d="M620.069 338.817L617.999 376.807" stroke="#D2F7FF" stroke-opacity="0.1" stroke-miterlimit="10"/>
<path d="M638.047 357.203L600.021 358.421" stroke="#D2F7FF" stroke-opacity="0.1" stroke-miterlimit="10"/>
<path d="M664.481 384.234L642.388 361.641L622.443 381.145L644.535 403.739L664.481 384.234Z" stroke="#D2F7FF" stroke-opacity="0.1" stroke-miterlimit="10"/>
<path d="M652.045 391.466C649.009 394.434 642.706 392.911 637.966 388.065C633.228 383.219 631.848 376.882 634.883 373.914C637.92 370.945 644.223 372.468 648.961 377.313C653.702 382.161 655.081 388.497 652.045 391.466Z" stroke="#D2F7FF" stroke-opacity="0.1" stroke-miterlimit="10"/>
<path d="M663.185 538.006C662.475 538.7 661.327 538.689 660.634 537.98L650.494 527.61C649.801 526.901 649.815 525.753 650.525 525.059L655.566 520.129C656.276 519.435 657.424 519.446 658.117 520.155L668.258 530.525C668.951 531.234 668.936 532.382 668.226 533.076L663.185 538.006Z" stroke="#D2F7FF" stroke-opacity="0.1" stroke-miterlimit="10"/>
<path d="M660.424 530.928C659.606 531.729 658.298 531.716 657.5 530.9C656.703 530.085 656.719 528.777 657.538 527.976C658.355 527.177 659.664 527.192 660.46 528.006C661.258 528.821 661.242 530.129 660.424 530.928Z" stroke="#D2F7FF" stroke-opacity="0.1" stroke-miterlimit="10"/>
<path d="M658.442 520.511L665.477 513.633C665.477 513.633 671.682 507.565 676.414 512.404C680.497 516.579 675.72 522.314 675.03 522.988C674.34 523.663 667.79 530.068 667.79 530.068" stroke="#D2F7FF" stroke-opacity="0.1" stroke-miterlimit="10"/>
<path d="M673.07 521.204C670.693 523.529 667.5 524.119 665.943 522.526C664.385 520.933 665.047 517.755 667.424 515.43C669.801 513.105 672.994 512.515 674.551 514.108C676.11 515.7 675.447 518.88 673.07 521.204Z" stroke="#D2F7FF" stroke-opacity="0.1" stroke-miterlimit="10"/>
<path d="M710.144 427.997L672.129 465.17L683.468 476.766" stroke="#D2F7FF" stroke-opacity="0.1" stroke-width="3" stroke-miterlimit="10"/>
<path d="M591.445 409.607L562.771 437.646L589.689 465.175C589.689 465.175 619.441 438.238 591.445 409.607Z" stroke="#D2F7FF" stroke-opacity="0.1" stroke-miterlimit="10"/>
<path d="M590.246 414.089L566.186 437.616L588.773 460.715C588.773 460.715 613.737 438.113 590.246 414.089Z" stroke="#D2F7FF" stroke-opacity="0.1" stroke-miterlimit="10"/>
<path d="M587.958 420.858L572.158 436.309C571.448 437.003 571.434 438.151 572.126 438.859L585.65 452.69C586.343 453.398 587.513 453.433 588.248 452.767C588.248 452.767 604.644 437.923 587.958 420.858Z" stroke="#D2F7FF" stroke-opacity="0.1" stroke-miterlimit="10"/>
<path d="M589.785 566.289L543.066 518.51L430.312 628.769L477.03 676.547L589.785 566.289Z" stroke="#D2F7FF" stroke-opacity="0.1" stroke-width="0.5" stroke-miterlimit="10" stroke-linecap="round" stroke-linejoin="round" stroke-dasharray="2 2"/>
<path d="M624.536 615.504L653.043 587.628L799.304 737.206L671.282 862.395L525.021 712.816L590.164 649.115" stroke="#D2F7FF" stroke-opacity="0.1" stroke-width="0.5" stroke-miterlimit="10" stroke-linecap="round" stroke-linejoin="round" stroke-dasharray="2 2"/>
<path d="M636.093 292.045L542.054 195.873L416.537 318.611L510.577 414.783L636.093 292.045Z" stroke="#D2F7FF" stroke-opacity="0.1" stroke-width="0.5" stroke-miterlimit="10" stroke-linecap="round" stroke-linejoin="round" stroke-dasharray="2 2"/>
<path d="M935.539 598.255L807.002 466.804L685.015 586.091L813.552 717.543L935.539 598.255Z" stroke="#D2F7FF" stroke-opacity="0.1" stroke-width="0.5" stroke-miterlimit="10" stroke-linecap="round" stroke-linejoin="round" stroke-dasharray="2 2"/>
<path d="M783.013 442.374L673 329.867L652.204 350.203L762.217 462.71L783.013 442.374Z" stroke="#D2F7FF" stroke-opacity="0.1" stroke-width="0.5" stroke-miterlimit="10" stroke-linecap="round" stroke-linejoin="round" stroke-dasharray="2 2"/>
<path d="M739.879 470.277L710.691 440.427L685.04 465.511L714.228 495.361L739.879 470.277Z" stroke="#D2F7FF" stroke-opacity="0.1" stroke-width="0.5" stroke-miterlimit="10" stroke-linecap="round" stroke-linejoin="round" stroke-dasharray="2 2"/>
</g>
<g filter="url(#filter0_d_0_3)">
<path d="M524.856 232.715V551.893C524.856 553.55 523.513 554.893 521.856 554.893H167.856C166.2 554.893 164.856 553.55 164.856 551.893V232.715C164.856 231.902 165.187 231.123 165.771 230.558L342.771 59.4236C343.934 58.2993 345.779 58.2993 346.942 59.4236L523.942 230.558C524.526 231.123 524.856 231.902 524.856 232.715Z" fill="#191919"/>
</g>
<mask id="mask1_0_3" style="mask-type:alpha" maskUnits="userSpaceOnUse" x="164" y="61" width="361" height="493">
<path d="M524.856 246.605V550.679C524.856 552.336 523.513 553.679 521.856 553.679H167.856C166.2 553.679 164.856 552.336 164.856 550.679V246.605C164.856 245.825 165.16 245.076 165.703 244.517L342.703 61.9682C343.881 60.7526 345.832 60.7526 347.01 61.9682L524.01 244.517C524.553 245.076 524.856 245.825 524.856 246.605Z" fill="#2B2B2B"/>
</mask>
<g mask="url(#mask1_0_3)">
<path d="M243.402 195.4L163.732 273.304" stroke="#D2F7FF" stroke-opacity="0.2" stroke-width="3" stroke-miterlimit="10"/>
<path d="M385.759 138.048L344.872 96.2338L278.04 161.587" stroke="#D2F7FF" stroke-opacity="0.2" stroke-width="3" stroke-miterlimit="10"/>
<path d="M661.979 420.585L468.321 222.54" stroke="#D2F7FF" stroke-opacity="0.2" stroke-width="3" stroke-miterlimit="10"/>
<path d="M218.68 548.433L199.647 567.044L222.674 590.594" stroke="#D2F7FF" stroke-opacity="0.2" stroke-width="3" stroke-miterlimit="10"/>
<path d="M218.73 548.508L301.169 467.895" stroke="#D2F7FF" stroke-opacity="0.2" stroke-width="3" stroke-miterlimit="10"/>
<path d="M503.989 345.412L466.109 306.674L326.456 443.235" stroke="#D2F7FF" stroke-opacity="0.2" stroke-width="3" stroke-miterlimit="10"/>
<path d="M528.796 370.765L577.815 420.896L438.144 557.476" stroke="#D2F7FF" stroke-opacity="0.2" stroke-width="3" stroke-miterlimit="10"/>
<path d="M503.988 345.451C503.988 345.451 480.824 367.615 504.027 394.339L528.444 370.462" stroke="#D2F7FF" stroke-opacity="0.2" stroke-miterlimit="10"/>
<path d="M526.36 368.356L504.83 346.339" stroke="#D2F7FF" stroke-opacity="0.2" stroke-linecap="round" stroke-linejoin="round" stroke-dasharray="1 2.01"/>
<path d="M503.565 345.044L502.935 344.399" stroke="#D2F7FF" stroke-opacity="0.2" stroke-linecap="round" stroke-linejoin="round"/>
<path d="M326.208 443.384C326.208 443.384 304.096 420.272 277.321 443.532L301.143 467.895" stroke="#D2F7FF" stroke-opacity="0.2" stroke-miterlimit="10"/>
<path d="M300.066 468.973L300.711 468.343" stroke="#D2F7FF" stroke-opacity="0.2" stroke-linecap="round" stroke-linejoin="round"/>
<path d="M303.301 465.811L325.319 444.28" stroke="#D2F7FF" stroke-opacity="0.2" stroke-linecap="round" stroke-linejoin="round" stroke-dasharray="1 2.01"/>
<path d="M326.615 443.012L327.26 442.382" stroke="#D2F7FF" stroke-opacity="0.2" stroke-linecap="round" stroke-linejoin="round"/>
<path d="M501.215 543.593L477.366 519.202" stroke="#D2F7FF" stroke-opacity="0.2" stroke-width="3" stroke-miterlimit="10"/>
<path d="M470.285 220.611L387.73 136.185L383.795 140.033L466.35 224.459L470.285 220.611Z" stroke="#D2F7FF" stroke-opacity="0.2" stroke-miterlimit="10"/>
<path d="M185.546 510.639L147.618 471.852L143.684 475.7L181.611 514.487L185.546 510.639Z" stroke="#D2F7FF" stroke-opacity="0.2" stroke-miterlimit="10"/>
<path d="M165.651 275.257L161.819 271.339L106.738 325.2L110.57 329.118L165.651 275.257Z" stroke="#D2F7FF" stroke-opacity="0.2" stroke-miterlimit="10"/>
<path d="M279.956 163.484L276.125 159.566L241.479 193.444L245.311 197.362L279.956 163.484Z" stroke="#D2F7FF" stroke-opacity="0.2" stroke-miterlimit="10"/>
<path d="M183.584 512.565L217.085 546.825" stroke="#D2F7FF" stroke-opacity="0.2" stroke-width="3" stroke-miterlimit="10"/>
<path d="M384.263 386.641L496.036 500.946" stroke="#D2F7FF" stroke-opacity="0.2" stroke-width="3" stroke-miterlimit="10"/>
<path d="M200.243 241.441L297.402 340.8" stroke="#D2F7FF" stroke-opacity="0.2" stroke-width="3" stroke-miterlimit="10"/>
<path d="M364.101 463.887L383.219 445.192L437.476 500.678L418.357 519.373" stroke="#D2F7FF" stroke-opacity="0.2" stroke-width="2" stroke-miterlimit="10"/>
<path d="M425.675 512.249L454.417 541.643" stroke="#D2F7FF" stroke-opacity="0.2" stroke-miterlimit="10"/>
<path d="M429.844 508.174L458.586 537.567" stroke="#D2F7FF" stroke-opacity="0.2" stroke-miterlimit="10"/>
<path d="M434.007 504.103L462.749 533.496" stroke="#D2F7FF" stroke-opacity="0.2" stroke-miterlimit="10"/>
<path d="M342.572 427.263L371.314 456.656" stroke="#D2F7FF" stroke-opacity="0.2" stroke-miterlimit="10"/>
<path d="M346.74 423.188L375.482 452.581" stroke="#D2F7FF" stroke-opacity="0.2" stroke-miterlimit="10"/>
<path d="M350.902 419.117L379.645 448.51" stroke="#D2F7FF" stroke-opacity="0.2" stroke-miterlimit="10"/>
<path d="M385.924 447.989L415.742 418.832" stroke="#D2F7FF" stroke-opacity="0.2" stroke-miterlimit="10"/>
<path d="M390.804 452.982L420.622 423.825" stroke="#D2F7FF" stroke-opacity="0.2" stroke-miterlimit="10"/>
<path d="M395.688 457.974L425.506 428.817" stroke="#D2F7FF" stroke-opacity="0.2" stroke-miterlimit="10"/>
<path d="M400.568 462.966L430.386 433.809" stroke="#D2F7FF" stroke-opacity="0.2" stroke-miterlimit="10"/>
<path d="M405.45 467.959L435.268 438.802" stroke="#D2F7FF" stroke-opacity="0.2" stroke-miterlimit="10"/>
<path d="M410.333 472.951L440.151 443.794" stroke="#D2F7FF" stroke-opacity="0.2" stroke-miterlimit="10"/>
<path d="M415.214 477.943L445.032 448.786" stroke="#D2F7FF" stroke-opacity="0.2" stroke-miterlimit="10"/>
<path d="M420.096 482.936L449.914 453.779" stroke="#D2F7FF" stroke-opacity="0.2" stroke-miterlimit="10"/>
<path d="M424.979 487.928L454.797 458.771" stroke="#D2F7FF" stroke-opacity="0.2" stroke-miterlimit="10"/>
<path d="M429.86 492.921L459.678 463.764" stroke="#D2F7FF" stroke-opacity="0.2" stroke-miterlimit="10"/>
<path d="M434.743 497.914L464.561 468.757" stroke="#D2F7FF" stroke-opacity="0.2" stroke-miterlimit="10"/>
<path d="M349.66 449.136L382.37 417.15L462.12 498.708L429.41 530.694" stroke="#D2F7FF" stroke-opacity="0.2" stroke-miterlimit="10"/>
<path d="M352.027 451.504C350.687 452.815 348.54 452.793 347.233 451.456C345.925 450.119 345.952 447.972 347.292 446.661C348.632 445.351 350.779 445.373 352.086 446.71C353.394 448.047 353.367 450.194 352.027 451.504Z" fill="#D2F7FF"/>
<path d="M427.265 526.561L424.832 535.222L433.545 532.983L427.265 526.561Z" fill="#D2F7FF"/>
<path d="M299.531 507.423L282.371 489.875L220.514 550.363L237.674 567.911L299.531 507.423Z" stroke="#D2F7FF" stroke-opacity="0.2" stroke-miterlimit="10"/>
<path d="M282.371 489.875L237.674 567.911" stroke="#D2F7FF" stroke-opacity="0.2" stroke-miterlimit="10"/>
<path d="M299.531 507.423L220.514 550.363" stroke="#D2F7FF" stroke-opacity="0.2" stroke-miterlimit="10"/>
<path d="M579.006 443.656L573.14 437.657L521.589 488.066L527.456 494.065L579.006 443.656Z" stroke="#D2F7FF" stroke-opacity="0.2" stroke-miterlimit="10"/>
<path d="M163.324 453.946C162.632 453.238 162.646 452.091 163.355 451.397L182.158 433.012C182.867 432.318 184.014 432.329 184.706 433.037L187.246 435.635C187.938 436.343 187.924 437.489 187.215 438.183L168.413 456.569C167.703 457.263 166.556 457.251 165.864 456.543L163.324 453.946Z" stroke="#D2F7FF" stroke-opacity="0.2" stroke-miterlimit="10"/>
<path d="M266.171 458.5C265.461 459.195 264.312 459.184 263.619 458.475L245.25 439.689C244.556 438.98 244.571 437.831 245.281 437.137L247.888 434.588C248.598 433.893 249.747 433.904 250.44 434.613L268.809 453.399C269.503 454.108 269.488 455.257 268.778 455.951L266.171 458.5Z" stroke="#D2F7FF" stroke-opacity="0.2" stroke-miterlimit="10"/>
<path d="M202.911 484.506C202.219 483.797 202.233 482.65 202.943 481.955L215.059 470.107C215.769 469.413 216.917 469.424 217.61 470.133L229.852 482.652C230.545 483.361 230.531 484.509 229.82 485.203L217.704 497.051C216.994 497.746 215.846 497.734 215.154 497.026L202.911 484.506Z" stroke="#D2F7FF" stroke-opacity="0.2" stroke-miterlimit="10"/>
<path d="M217.592 470.149C216.899 469.441 216.913 468.293 217.623 467.599L229.739 455.752C230.449 455.058 231.596 455.069 232.289 455.778L244.531 468.297C245.224 469.006 245.21 470.154 244.5 470.848L232.385 482.695C231.675 483.389 230.527 483.378 229.834 482.669L217.592 470.149Z" stroke="#D2F7FF" stroke-opacity="0.2" stroke-miterlimit="10"/>
<path d="M232.273 455.794C231.58 455.086 231.594 453.938 232.304 453.244L244.42 441.397C245.13 440.702 246.277 440.714 246.97 441.422L259.212 453.942C259.905 454.651 259.891 455.798 259.181 456.493L247.066 468.34C246.356 469.034 245.208 469.022 244.515 468.314L232.273 455.794Z" stroke="#D2F7FF" stroke-opacity="0.2" stroke-miterlimit="10"/>
<path d="M217.689 499.61C216.997 498.902 217.011 497.755 217.72 497.061L229.83 485.22C230.539 484.526 231.686 484.538 232.379 485.246L234.269 487.179C234.961 487.887 234.947 489.034 234.238 489.728L222.129 501.569C221.419 502.263 220.272 502.251 219.58 501.543L217.689 499.61Z" stroke="#D2F7FF" stroke-opacity="0.2" stroke-miterlimit="10"/>
<path d="M212.725 504.463C212.032 503.755 212.046 502.607 212.756 501.913L215.146 499.576C215.856 498.882 217.003 498.894 217.696 499.602L219.587 501.537C220.28 502.245 220.266 503.393 219.556 504.087L217.167 506.423C216.457 507.118 215.309 507.106 214.616 506.398L212.725 504.463Z" stroke="#D2F7FF" stroke-opacity="0.2" stroke-miterlimit="10"/>
<path d="M232.371 485.254C231.678 484.546 231.693 483.399 232.402 482.705L244.51 470.865C245.22 470.171 246.367 470.183 247.059 470.891L248.95 472.824C249.642 473.532 249.628 474.679 248.918 475.373L236.81 487.213C236.101 487.907 234.954 487.895 234.261 487.187L232.371 485.254Z" stroke="#D2F7FF" stroke-opacity="0.2" stroke-miterlimit="10"/>
<path d="M247.05 470.898C246.358 470.19 246.372 469.043 247.082 468.35L259.19 456.51C259.899 455.816 261.046 455.827 261.738 456.535L263.629 458.469C264.321 459.177 264.307 460.324 263.598 461.018L251.49 472.858C250.78 473.551 249.633 473.54 248.941 472.832L247.05 470.898Z" stroke="#D2F7FF" stroke-opacity="0.2" stroke-miterlimit="10"/>
<path d="M197.947 489.353C197.254 488.644 197.268 487.496 197.978 486.801L200.369 484.463C201.079 483.769 202.228 483.78 202.921 484.489L215.17 497.016C215.863 497.725 215.849 498.873 215.138 499.568L212.748 501.905C212.037 502.6 210.889 502.589 210.196 501.88L197.947 489.353Z" stroke="#D2F7FF" stroke-opacity="0.2" stroke-miterlimit="10"/>
<path d="M188.134 469.393C187.441 468.685 187.455 467.537 188.165 466.843L200.282 454.995C200.992 454.3 202.14 454.312 202.832 455.02L215.074 467.54C215.767 468.249 215.753 469.396 215.043 470.091L202.926 481.939C202.216 482.633 201.069 482.622 200.376 481.913L188.134 469.393Z" stroke="#D2F7FF" stroke-opacity="0.2" stroke-miterlimit="10"/>
<path d="M183.17 474.24C182.477 473.531 182.491 472.383 183.202 471.688L185.593 469.351C186.303 468.656 187.451 468.667 188.144 469.376L200.393 481.903C201.086 482.612 201.072 483.76 200.362 484.455L197.971 486.793C197.261 487.487 196.112 487.476 195.419 486.767L183.17 474.24Z" stroke="#D2F7FF" stroke-opacity="0.2" stroke-miterlimit="10"/>
<path d="M173.354 454.281C172.661 453.572 172.675 452.425 173.385 451.73L185.502 439.882C186.212 439.188 187.36 439.199 188.052 439.908L200.295 452.428C200.987 453.136 200.973 454.284 200.263 454.978L188.147 466.826C187.437 467.521 186.289 467.509 185.596 466.801L173.354 454.281Z" stroke="#D2F7FF" stroke-opacity="0.2" stroke-miterlimit="10"/>
<path d="M168.392 459.128C167.699 458.419 167.713 457.271 168.423 456.576L170.814 454.238C171.524 453.543 172.673 453.555 173.366 454.264L185.615 466.791C186.308 467.499 186.294 468.648 185.583 469.342L183.193 471.68C182.482 472.375 181.334 472.363 180.641 471.655L168.392 459.128Z" stroke="#D2F7FF" stroke-opacity="0.2" stroke-miterlimit="10"/>
<path d="M143.715 433.891C144.407 434.599 145.554 434.611 146.263 433.917L165.066 415.531C165.775 414.837 165.789 413.69 165.097 412.982L162.557 410.385C161.865 409.677 160.718 409.665 160.008 410.359L141.206 428.745C140.497 429.439 140.483 430.586 141.175 431.294L143.715 433.891Z" stroke="#D2F7FF" stroke-opacity="0.2" stroke-miterlimit="10"/>
<path d="M141.467 330.967C140.756 331.662 140.742 332.81 141.435 333.519L159.805 352.305C160.498 353.014 161.646 353.025 162.357 352.33L164.964 349.781C165.674 349.087 165.688 347.938 164.995 347.229L146.626 328.443C145.932 327.734 144.784 327.723 144.074 328.418L141.467 330.967Z" stroke="#D2F7FF" stroke-opacity="0.2" stroke-miterlimit="10"/>
<path d="M232.165 403.222C221.919 413.241 205.514 413.075 195.518 402.852C185.521 392.629 185.723 376.222 195.968 366.204C206.215 356.184 222.62 356.35 232.617 366.574C242.613 376.797 242.412 393.202 232.165 403.222Z" stroke="#D2F7FF" stroke-opacity="0.2" stroke-miterlimit="10"/>
<path d="M291.61 338.914L248.845 295.179L232.978 310.695L275.743 354.43L291.61 338.914Z" stroke="#D2F7FF" stroke-opacity="0.2" stroke-miterlimit="10"/>
<path d="M246.675 292.962L203.91 249.227L188.043 264.743L230.808 308.477L246.675 292.962Z" stroke="#D2F7FF" stroke-opacity="0.2" stroke-miterlimit="10"/>
<path d="M284.979 339.423L248.186 301.796L242.759 307.104L279.551 344.73L284.979 339.423Z" stroke="#D2F7FF" stroke-opacity="0.2" stroke-miterlimit="10"/>
<path d="M263.182 219.095L243.603 199.071L201.703 240.044L221.282 260.067L263.182 219.095Z" stroke="#D2F7FF" stroke-opacity="0.2" stroke-miterlimit="10"/>
<path d="M234.589 236.325C233.879 237.019 232.732 237.008 232.039 236.299L226.151 230.278C225.458 229.57 225.472 228.422 226.182 227.728L232.217 221.826C232.927 221.132 234.075 221.143 234.768 221.852L240.656 227.873C241.348 228.582 241.334 229.729 240.624 230.424L234.589 236.325Z" stroke="#D2F7FF" stroke-opacity="0.2" stroke-miterlimit="10"/>
<path d="M223.688 246.986C222.978 247.68 221.831 247.669 221.138 246.96L215.25 240.939C214.557 240.23 214.571 239.082 215.281 238.388L221.318 232.486C222.028 231.791 223.175 231.803 223.868 232.511L229.756 238.533C230.449 239.241 230.435 240.389 229.725 241.083L223.688 246.986Z" stroke="#D2F7FF" stroke-opacity="0.2" stroke-miterlimit="10"/>
<path d="M245.269 209.931L236.446 218.56" stroke="#D2F7FF" stroke-opacity="0.2" stroke-miterlimit="10"/>
<path d="M247.153 211.859L238.329 220.488" stroke="#D2F7FF" stroke-opacity="0.2" stroke-miterlimit="10"/>
<path d="M249.038 213.786L240.214 222.414" stroke="#D2F7FF" stroke-opacity="0.2" stroke-miterlimit="10"/>
<path d="M250.924 215.715L242.1 224.343" stroke="#D2F7FF" stroke-opacity="0.2" stroke-miterlimit="10"/>
<path d="M252.81 217.642L243.986 226.271" stroke="#D2F7FF" stroke-opacity="0.2" stroke-miterlimit="10"/>
<path d="M259.465 218.827L243.785 202.792L205.42 240.308L221.1 256.343L259.465 218.827Z" stroke="#D2F7FF" stroke-opacity="0.2" stroke-miterlimit="10"/>
<path d="M353.031 130.956L332.95 110.42L312.171 130.74L332.252 151.276L353.031 130.956Z" stroke="#D2F7FF" stroke-opacity="0.2" stroke-miterlimit="10"/>
<path d="M336.474 125.78C334.573 127.639 331.525 127.608 329.67 125.711C327.813 123.812 327.851 120.765 329.753 118.905C331.657 117.043 334.7 117.075 336.558 118.975C338.415 120.871 338.378 123.918 336.474 125.78Z" stroke="#D2F7FF" stroke-opacity="0.2" stroke-miterlimit="10"/>
<path d="M334.748 124.015C333.822 124.921 332.34 124.907 331.436 123.982C330.531 123.057 330.548 121.574 331.475 120.667C332.402 119.761 333.886 119.776 334.791 120.701C335.696 121.627 335.675 123.109 334.748 124.015Z" stroke="#D2F7FF" stroke-opacity="0.2" stroke-miterlimit="10"/>
<path d="M327.444 134.61C325.543 136.469 322.494 136.439 320.639 134.542C318.782 132.644 318.821 129.595 320.723 127.735C322.625 125.875 325.671 125.905 327.528 127.805C329.385 129.701 329.347 132.749 327.444 134.61Z" stroke="#D2F7FF" stroke-opacity="0.2" stroke-miterlimit="10"/>
<path d="M325.719 132.845C324.793 133.75 323.31 133.736 322.406 132.812C321.501 131.887 321.52 130.403 322.445 129.497C323.371 128.592 324.856 128.606 325.761 129.531C326.666 130.457 326.645 131.939 325.719 132.845Z" stroke="#D2F7FF" stroke-opacity="0.2" stroke-miterlimit="10"/>
<path d="M345.18 134.684C343.278 136.543 340.23 136.512 338.375 134.615C336.519 132.716 336.556 129.669 338.458 127.809C340.362 125.947 343.407 125.981 345.263 127.879C347.12 129.775 347.084 132.822 345.18 134.684Z" stroke="#D2F7FF" stroke-opacity="0.2" stroke-miterlimit="10"/>
<path d="M343.456 132.92C342.529 133.826 341.046 133.81 340.142 132.885C339.237 131.961 339.256 130.479 340.182 129.572C341.109 128.666 342.592 128.68 343.497 129.605C344.401 130.529 344.383 132.014 343.456 132.92Z" stroke="#D2F7FF" stroke-opacity="0.2" stroke-miterlimit="10"/>
<path d="M336.151 143.513C334.249 145.373 331.2 145.343 329.345 143.446C327.489 141.548 327.527 138.499 329.429 136.639C331.332 134.779 334.378 134.811 336.235 136.709C338.091 138.605 338.053 141.653 336.151 143.513Z" stroke="#D2F7FF" stroke-opacity="0.2" stroke-miterlimit="10"/>
<path d="M334.427 141.75C333.501 142.655 332.017 142.64 331.113 141.715C330.208 140.79 330.228 139.307 331.154 138.402C332.079 137.497 333.563 137.51 334.468 138.435C335.372 139.359 335.354 140.844 334.427 141.75Z" stroke="#D2F7FF" stroke-opacity="0.2" stroke-miterlimit="10"/>
<path d="M332.274 151.254L312.193 130.718L291.415 151.037L311.496 171.573L332.274 151.254Z" stroke="#D2F7FF" stroke-opacity="0.2" stroke-miterlimit="10"/>
<path d="M340.977 385.362L362.702 407.579" stroke="#D2F7FF" stroke-opacity="0.2" stroke-width="3" stroke-miterlimit="10"/>
<path d="M370.2 281.637L324.474 234.873L287.607 270.925L333.333 317.689L370.2 281.637Z" stroke="#D2F7FF" stroke-opacity="0.2" stroke-miterlimit="10"/>
<path d="M406.981 226.565L380.357 199.338L333.983 244.685L360.607 271.913L406.981 226.565Z" stroke="#D2F7FF" stroke-opacity="0.2" stroke-miterlimit="10"/>
<path d="M381.524 276.872C378.718 279.615 374.225 279.57 371.487 276.769C368.749 273.969 368.805 269.479 371.612 266.735C374.418 263.991 378.91 264.035 381.647 266.834C384.384 269.635 384.33 274.128 381.524 276.872Z" stroke="#D2F7FF" stroke-opacity="0.2" stroke-miterlimit="10"/>
<path d="M396.115 262.604C393.31 265.347 388.816 265.301 386.078 262.501C383.34 259.701 383.397 255.211 386.203 252.467C389.009 249.722 393.502 249.766 396.239 252.565C398.977 255.366 398.921 259.859 396.115 262.604Z" stroke="#D2F7FF" stroke-opacity="0.2" stroke-miterlimit="10"/>
<path d="M410.707 248.335C407.902 251.078 403.408 251.033 400.67 248.233C397.932 245.433 397.99 240.942 400.795 238.199C403.601 235.454 408.094 235.498 410.83 238.297C413.569 241.097 413.513 245.591 410.707 248.335Z" stroke="#D2F7FF" stroke-opacity="0.2" stroke-miterlimit="10"/>
<path d="M339.405 233.8C336.6 236.543 332.107 236.499 329.368 233.698C326.63 230.897 326.685 226.406 329.492 223.662C332.298 220.918 336.791 220.962 339.529 223.762C342.267 226.565 342.211 231.056 339.405 233.8Z" stroke="#D2F7FF" stroke-opacity="0.2" stroke-miterlimit="10"/>
<path d="M353.996 219.532C351.191 222.275 346.699 222.231 343.959 219.429C341.221 216.629 341.277 212.138 344.083 209.394C346.89 206.649 351.382 206.693 354.12 209.494C356.859 212.295 356.803 216.787 353.996 219.532Z" stroke="#D2F7FF" stroke-opacity="0.2" stroke-miterlimit="10"/>
<path d="M368.588 205.264C365.783 208.007 361.29 207.963 358.551 205.161C355.813 202.361 355.87 197.868 358.675 195.125C361.481 192.381 365.974 192.425 368.712 195.225C371.451 198.027 371.394 202.519 368.588 205.264Z" stroke="#D2F7FF" stroke-opacity="0.2" stroke-miterlimit="10"/>
<path d="M382.593 384.911L364.615 366.525L344.565 386.131L362.543 404.517L382.593 384.911Z" stroke="#D2F7FF" stroke-opacity="0.2" stroke-miterlimit="10"/>
<path d="M364.615 366.525L362.542 404.518" stroke="#D2F7FF" stroke-opacity="0.2" stroke-miterlimit="10"/>
<path d="M382.593 384.911L344.564 386.132" stroke="#D2F7FF" stroke-opacity="0.2" stroke-miterlimit="10"/>
<path d="M402.669 365.279L384.691 346.893L364.642 366.499L382.62 384.885L402.669 365.279Z" stroke="#D2F7FF" stroke-opacity="0.2" stroke-miterlimit="10"/>
<path d="M384.691 346.893L382.621 384.884" stroke="#D2F7FF" stroke-opacity="0.2" stroke-miterlimit="10"/>
<path d="M402.669 365.279L364.643 366.498" stroke="#D2F7FF" stroke-opacity="0.2" stroke-miterlimit="10"/>
<path d="M422.748 345.646L404.77 327.26L384.721 346.865L402.699 365.251L422.748 345.646Z" stroke="#D2F7FF" stroke-opacity="0.2" stroke-miterlimit="10"/>
<path d="M404.77 327.26L402.699 365.251" stroke="#D2F7FF" stroke-opacity="0.2" stroke-miterlimit="10"/>
<path d="M422.748 345.646L384.721 346.865" stroke="#D2F7FF" stroke-opacity="0.2" stroke-miterlimit="10"/>
<path d="M442.826 326.012L424.848 307.627L404.799 327.232L422.777 345.618L442.826 326.012Z" stroke="#D2F7FF" stroke-opacity="0.2" stroke-miterlimit="10"/>
<path d="M424.848 307.627L422.776 345.619" stroke="#D2F7FF" stroke-opacity="0.2" stroke-miterlimit="10"/>
<path d="M442.826 326.012L404.798 327.233" stroke="#D2F7FF" stroke-opacity="0.2" stroke-miterlimit="10"/>
<path d="M462.903 306.38L444.925 287.994L424.876 307.6L442.854 325.986L462.903 306.38Z" stroke="#D2F7FF" stroke-opacity="0.2" stroke-miterlimit="10"/>
<path d="M444.925 287.994L442.855 325.984" stroke="#D2F7FF" stroke-opacity="0.2" stroke-miterlimit="10"/>
<path d="M462.903 306.38L424.877 307.599" stroke="#D2F7FF" stroke-opacity="0.2" stroke-miterlimit="10"/>
<path d="M489.337 333.412L467.245 310.818L447.299 330.322L469.392 352.916L489.337 333.412Z" stroke="#D2F7FF" stroke-opacity="0.2" stroke-miterlimit="10"/>
<path d="M476.901 340.643C473.866 343.612 467.562 342.089 462.823 337.242C458.085 332.396 456.705 326.059 459.739 323.092C462.776 320.122 469.08 321.645 473.818 326.49C478.558 331.339 479.937 337.675 476.901 340.643Z" stroke="#D2F7FF" stroke-opacity="0.2" stroke-miterlimit="10"/>
<path d="M488.042 487.183C487.331 487.878 486.183 487.866 485.49 487.157L475.35 476.787C474.657 476.078 474.671 474.93 475.382 474.236L480.423 469.306C481.133 468.612 482.281 468.623 482.974 469.332L493.114 479.702C493.807 480.411 493.793 481.559 493.083 482.254L488.042 487.183Z" stroke="#D2F7FF" stroke-opacity="0.2" stroke-miterlimit="10"/>
<path d="M485.281 480.106C484.462 480.906 483.154 480.893 482.357 480.078C481.56 479.262 481.576 477.954 482.394 477.154C483.211 476.355 484.521 476.369 485.317 477.183C486.114 477.998 486.098 479.307 485.281 480.106Z" stroke="#D2F7FF" stroke-opacity="0.2" stroke-miterlimit="10"/>
<path d="M483.299 469.688L490.333 462.81C490.333 462.81 496.539 456.742 501.271 461.581C505.353 465.756 500.576 471.491 499.887 472.165C499.196 472.84 492.646 479.245 492.646 479.245" stroke="#D2F7FF" stroke-opacity="0.2" stroke-miterlimit="10"/>
<path d="M497.926 470.382C495.549 472.706 492.357 473.296 490.799 471.704C489.242 470.111 489.903 466.932 492.28 464.607C494.658 462.283 497.85 461.693 499.408 463.286C500.966 464.877 500.304 468.057 497.926 470.382Z" stroke="#D2F7FF" stroke-opacity="0.2" stroke-miterlimit="10"/>
<path d="M535.001 377.174L496.986 414.348L508.324 425.943" stroke="#D2F7FF" stroke-opacity="0.2" stroke-width="3" stroke-miterlimit="10"/>
<path d="M416.301 358.784L387.627 386.823L414.545 414.352C414.545 414.352 444.297 387.415 416.301 358.784Z" stroke="#D2F7FF" stroke-opacity="0.2" stroke-miterlimit="10"/>
<path d="M415.102 363.266L391.043 386.793L413.63 409.892C413.63 409.892 438.593 387.29 415.102 363.266Z" stroke="#D2F7FF" stroke-opacity="0.2" stroke-miterlimit="10"/>
<path d="M412.814 370.036L397.014 385.486C396.304 386.181 396.29 387.328 396.983 388.037L410.507 401.867C411.199 402.576 412.37 402.61 413.105 401.944C413.105 401.944 429.501 387.1 412.814 370.036Z" stroke="#D2F7FF" stroke-opacity="0.2" stroke-miterlimit="10"/>
<path d="M414.641 515.466L367.922 467.688L255.168 577.946L301.887 625.725L414.641 515.466Z" stroke="#D2F7FF" stroke-opacity="0.2" stroke-width="0.5" stroke-miterlimit="10" stroke-linecap="round" stroke-linejoin="round" stroke-dasharray="2 2"/>
<path d="M449.392 564.681L477.899 536.805L624.16 686.383L496.138 811.572L349.877 661.994L415.02 598.292" stroke="#D2F7FF" stroke-opacity="0.2" stroke-width="0.5" stroke-miterlimit="10" stroke-linecap="round" stroke-linejoin="round" stroke-dasharray="2 2"/>
<path d="M460.949 241.222L366.91 145.05L241.394 267.789L335.433 363.961L460.949 241.222Z" stroke="#D2F7FF" stroke-opacity="0.2" stroke-width="0.5" stroke-miterlimit="10" stroke-linecap="round" stroke-linejoin="round" stroke-dasharray="2 2"/>
<path d="M760.395 547.433L631.859 415.981L509.872 535.269L638.408 666.721L760.395 547.433Z" stroke="#D2F7FF" stroke-opacity="0.2" stroke-width="0.5" stroke-miterlimit="10" stroke-linecap="round" stroke-linejoin="round" stroke-dasharray="2 2"/>
<path d="M607.869 391.552L497.856 279.045L477.06 299.38L587.073 411.887L607.869 391.552Z" stroke="#D2F7FF" stroke-opacity="0.2" stroke-width="0.5" stroke-miterlimit="10" stroke-linecap="round" stroke-linejoin="round" stroke-dasharray="2 2"/>
<path d="M564.736 419.455L535.548 389.605L509.897 414.688L539.085 444.538L564.736 419.455Z" stroke="#D2F7FF" stroke-opacity="0.2" stroke-width="0.5" stroke-miterlimit="10" stroke-linecap="round" stroke-linejoin="round" stroke-dasharray="2 2"/>
</g>
<g filter="url(#filter1_d_0_3)">
<path d="M360 184.307V503.486C360 505.143 358.657 506.486 357 506.486H3C1.34315 506.486 0 505.143 0 503.486V184.307C0 183.494 0.330111 182.716 0.914719 182.151L177.915 11.0162C179.078 9.89185 180.922 9.89186 182.085 11.0162L359.085 182.151C359.67 182.716 360 183.494 360 184.307Z" fill="#2B2B2B"/>
</g>
<mask id="mask2_0_3" style="mask-type:alpha" maskUnits="userSpaceOnUse" x="0" y="12" width="360" height="494">
<path d="M360 198.197V502.271C360 503.928 358.657 505.271 357 505.271H3C1.34315 505.271 0 503.928 0 502.271V198.197C0 197.418 0.303491 196.669 0.846194 196.109L177.846 13.5607C179.025 12.3452 180.975 12.3452 182.154 13.5607L359.154 196.109C359.697 196.669 360 197.418 360 198.197Z" fill="#2B2B2B"/>
</mask>
<g mask="url(#mask2_0_3)">
<path d="M78.5456 146.992L-1.12403 224.897" stroke="#D2F7FF" stroke-opacity="0.35" stroke-width="3" stroke-miterlimit="10"/>
<path d="M220.902 89.6405L180.016 47.8263L113.184 113.179" stroke="#D2F7FF" stroke-opacity="0.35" stroke-width="3" stroke-miterlimit="10"/>
<path d="M497.123 372.177L303.465 174.132" stroke="#D2F7FF" stroke-opacity="0.35" stroke-width="3" stroke-miterlimit="10"/>
<path d="M53.8232 500.025L34.7905 518.637L57.8175 542.186" stroke="#D2F7FF" stroke-opacity="0.35" stroke-width="3" stroke-miterlimit="10"/>
<path d="M53.8733 500.1L136.313 419.487" stroke="#D2F7FF" stroke-opacity="0.35" stroke-width="3" stroke-miterlimit="10"/>
<path d="M339.133 297.005L301.253 258.266L161.6 394.828" stroke="#D2F7FF" stroke-opacity="0.35" stroke-width="3" stroke-miterlimit="10"/>
<path d="M363.94 322.358L412.959 372.488L273.288 509.068" stroke="#D2F7FF" stroke-opacity="0.35" stroke-width="3" stroke-miterlimit="10"/>
<path d="M339.131 297.043C339.131 297.043 315.968 319.208 339.17 345.932L363.588 322.054" stroke="#D2F7FF" stroke-opacity="0.35" stroke-miterlimit="10"/>
<path d="M361.503 319.949L339.973 297.931" stroke="#D2F7FF" stroke-opacity="0.35" stroke-linecap="round" stroke-linejoin="round" stroke-dasharray="1 2.01"/>
<path d="M338.709 296.637L338.078 295.992" stroke="#D2F7FF" stroke-opacity="0.35" stroke-linecap="round" stroke-linejoin="round"/>
<path d="M161.352 394.977C161.352 394.977 139.24 371.864 112.464 395.124L136.287 419.487" stroke="#D2F7FF" stroke-opacity="0.35" stroke-miterlimit="10"/>
<path d="M135.21 420.566L135.855 419.935" stroke="#D2F7FF" stroke-opacity="0.35" stroke-linecap="round" stroke-linejoin="round"/>
<path d="M138.444 417.403L160.463 395.872" stroke="#D2F7FF" stroke-opacity="0.35" stroke-linecap="round" stroke-linejoin="round" stroke-dasharray="1 2.01"/>
<path d="M161.759 394.605L162.404 393.974" stroke="#D2F7FF" stroke-opacity="0.35" stroke-linecap="round" stroke-linejoin="round"/>
<path d="M336.359 495.185L312.509 470.795" stroke="#D2F7FF" stroke-opacity="0.35" stroke-width="3" stroke-miterlimit="10"/>
<path d="M305.429 172.204L222.874 87.7776L218.939 91.6253L301.494 176.051L305.429 172.204Z" stroke="#D2F7FF" stroke-opacity="0.35" stroke-miterlimit="10"/>
<path d="M20.6891 462.232L-17.2383 423.445L-21.1727 427.292L16.7546 466.079L20.6891 462.232Z" stroke="#D2F7FF" stroke-opacity="0.35" stroke-miterlimit="10"/>
<path d="M0.79429 226.85L-3.03709 222.932L-58.1182 276.793L-54.2868 280.711L0.79429 226.85Z" stroke="#D2F7FF" stroke-opacity="0.35" stroke-miterlimit="10"/>
<path d="M115.1 115.077L111.268 111.158L76.6229 145.036L80.4546 148.955L115.1 115.077Z" stroke="#D2F7FF" stroke-opacity="0.35" stroke-miterlimit="10"/>
<path d="M18.7277 464.158L52.2285 498.418" stroke="#D2F7FF" stroke-opacity="0.35" stroke-width="3" stroke-miterlimit="10"/>
<path d="M219.407 338.234L331.179 452.538" stroke="#D2F7FF" stroke-opacity="0.35" stroke-width="3" stroke-miterlimit="10"/>
<path d="M35.3871 193.033L132.546 292.393" stroke="#D2F7FF" stroke-opacity="0.35" stroke-width="3" stroke-miterlimit="10"/>
<path d="M199.244 415.479L218.363 396.784L272.619 452.271L253.501 470.966" stroke="#D2F7FF" stroke-opacity="0.35" stroke-width="2" stroke-miterlimit="10"/>
<path d="M260.818 463.842L289.56 493.235" stroke="#D2F7FF" stroke-opacity="0.35" stroke-miterlimit="10"/>
<path d="M264.987 459.766L293.73 489.16" stroke="#D2F7FF" stroke-opacity="0.35" stroke-miterlimit="10"/>
<path d="M269.15 455.695L297.893 485.088" stroke="#D2F7FF" stroke-opacity="0.35" stroke-miterlimit="10"/>
<path d="M177.716 378.855L206.458 408.249" stroke="#D2F7FF" stroke-opacity="0.35" stroke-miterlimit="10"/>
<path d="M181.884 374.78L210.626 404.174" stroke="#D2F7FF" stroke-opacity="0.35" stroke-miterlimit="10"/>
<path d="M186.046 370.709L214.788 400.102" stroke="#D2F7FF" stroke-opacity="0.35" stroke-miterlimit="10"/>
<path d="M221.068 399.581L250.885 370.424" stroke="#D2F7FF" stroke-opacity="0.35" stroke-miterlimit="10"/>
<path d="M225.948 404.574L255.765 375.417" stroke="#D2F7FF" stroke-opacity="0.35" stroke-miterlimit="10"/>
<path d="M230.832 409.567L260.649 380.41" stroke="#D2F7FF" stroke-opacity="0.35" stroke-miterlimit="10"/>
<path d="M235.712 414.558L265.529 385.401" stroke="#D2F7FF" stroke-opacity="0.35" stroke-miterlimit="10"/>
<path d="M240.594 419.551L270.411 390.394" stroke="#D2F7FF" stroke-opacity="0.35" stroke-miterlimit="10"/>
<path d="M245.477 424.544L275.294 395.387" stroke="#D2F7FF" stroke-opacity="0.35" stroke-miterlimit="10"/>
<path d="M250.358 429.535L280.175 400.378" stroke="#D2F7FF" stroke-opacity="0.35" stroke-miterlimit="10"/>
<path d="M255.24 434.528L285.057 405.371" stroke="#D2F7FF" stroke-opacity="0.35" stroke-miterlimit="10"/>
<path d="M260.123 439.521L289.94 410.364" stroke="#D2F7FF" stroke-opacity="0.35" stroke-miterlimit="10"/>
<path d="M265.004 444.514L294.821 415.357" stroke="#D2F7FF" stroke-opacity="0.35" stroke-miterlimit="10"/>
<path d="M269.887 449.506L299.704 420.349" stroke="#D2F7FF" stroke-opacity="0.35" stroke-miterlimit="10"/>
<path d="M184.803 400.728L217.514 368.742L297.264 450.301L264.553 482.287" stroke="#D2F7FF" stroke-opacity="0.35" stroke-miterlimit="10"/>
<path d="M187.171 403.097C185.831 404.407 183.683 404.386 182.376 403.049C181.069 401.712 181.095 399.564 182.435 398.254C183.775 396.944 185.923 396.965 187.23 398.302C188.537 399.639 188.511 401.787 187.171 403.097Z" fill="#D2F7FF"/>
<path d="M262.408 478.153L259.975 486.815L268.688 484.576L262.408 478.153Z" fill="#D2F7FF"/>
<path d="M134.675 459.016L117.515 441.467L55.6576 501.955L72.8172 519.504L134.675 459.016Z" stroke="#D2F7FF" stroke-opacity="0.35" stroke-miterlimit="10"/>
<path d="M117.515 441.467L72.8172 519.504" stroke="#D2F7FF" stroke-opacity="0.35" stroke-miterlimit="10"/>
<path d="M134.675 459.016L55.6576 501.955" stroke="#D2F7FF" stroke-opacity="0.35" stroke-miterlimit="10"/>
<path d="M414.15 395.249L408.283 389.25L356.733 439.658L362.599 445.658L414.15 395.249Z" stroke="#D2F7FF" stroke-opacity="0.35" stroke-miterlimit="10"/>
<path d="M-1.53239 405.538C-2.22462 404.831 -2.21049 403.684 -1.50098 402.99L17.3011 384.604C18.0106 383.91 19.1575 383.922 19.8497 384.63L22.3896 387.227C23.0818 387.935 23.0677 389.082 22.3582 389.776L3.55612 408.162C2.84661 408.855 1.69972 408.844 1.00749 408.136L-1.53239 405.538Z" stroke="#D2F7FF" stroke-opacity="0.35" stroke-miterlimit="10"/>
<path d="M101.315 410.093C100.604 410.788 99.4558 410.776 98.7626 410.067L80.3932 391.281C79.7 390.572 79.7142 389.424 80.4247 388.729L83.0315 386.18C83.742 385.485 84.8904 385.497 85.5836 386.206L103.953 404.992C104.646 405.701 104.632 406.849 103.922 407.544L101.315 410.093Z" stroke="#D2F7FF" stroke-opacity="0.35" stroke-miterlimit="10"/>
<path d="M38.0549 436.098C37.3622 435.39 37.3763 434.242 38.0863 433.548L50.2029 421.699C50.9129 421.005 52.0606 421.017 52.7533 421.725L64.9955 434.245C65.6882 434.953 65.6741 436.101 64.9641 436.795L52.8475 448.644C52.1375 449.338 50.9898 449.327 50.2971 448.618L38.0549 436.098Z" stroke="#D2F7FF" stroke-opacity="0.35" stroke-miterlimit="10"/>
<path d="M52.7356 421.742C52.0429 421.034 52.057 419.886 52.767 419.192L64.8823 407.344C65.5923 406.65 66.74 406.662 67.4327 407.37L79.6749 419.89C80.3676 420.598 80.3535 421.746 79.6435 422.44L67.5282 434.288C66.8182 434.982 65.6705 434.97 64.9778 434.262L52.7356 421.742Z" stroke="#D2F7FF" stroke-opacity="0.35" stroke-miterlimit="10"/>
<path d="M67.4165 407.387C66.7238 406.678 66.738 405.531 67.448 404.836L79.5633 392.989C80.2733 392.295 81.4209 392.306 82.1137 393.015L94.3559 405.535C95.0486 406.243 95.0344 407.391 94.3244 408.085L82.2091 419.932C81.4991 420.627 80.3515 420.615 79.6587 419.907L67.4165 407.387Z" stroke="#D2F7FF" stroke-opacity="0.35" stroke-miterlimit="10"/>
<path d="M52.8326 451.203C52.1403 450.495 52.1545 449.348 52.864 448.654L64.9732 436.813C65.6828 436.119 66.8298 436.13 67.5221 436.838L69.4127 438.772C70.105 439.48 70.0908 440.627 69.3813 441.321L57.2721 453.162C56.5625 453.856 55.4155 453.844 54.7232 453.136L52.8326 451.203Z" stroke="#D2F7FF" stroke-opacity="0.35" stroke-miterlimit="10"/>
<path d="M47.8684 456.056C47.1757 455.347 47.1898 454.2 47.8998 453.505L50.2891 451.169C50.9991 450.475 52.1467 450.486 52.8394 451.195L54.731 453.129C55.4236 453.838 55.4095 454.985 54.6995 455.679L52.3102 458.016C51.6002 458.71 50.4526 458.699 49.76 457.99L47.8684 456.056Z" stroke="#D2F7FF" stroke-opacity="0.35" stroke-miterlimit="10"/>
<path d="M67.5143 436.846C66.822 436.138 66.8362 434.991 67.5458 434.297L79.6537 422.458C80.3633 421.764 81.5102 421.775 82.2025 422.483L84.0931 424.417C84.7854 425.125 84.7713 426.272 84.0617 426.966L71.9538 438.805C71.2442 439.499 70.0972 439.488 69.4049 438.78L67.5143 436.846Z" stroke="#D2F7FF" stroke-opacity="0.35" stroke-miterlimit="10"/>
<path d="M82.1937 422.491C81.5014 421.783 81.5156 420.636 82.2252 419.942L94.3331 408.102C95.0427 407.408 96.1896 407.42 96.8819 408.128L98.7725 410.061C99.4648 410.769 99.4507 411.916 98.7411 412.61L86.6332 424.45C85.9236 425.144 84.7766 425.132 84.0843 424.424L82.1937 422.491Z" stroke="#D2F7FF" stroke-opacity="0.35" stroke-miterlimit="10"/>
<path d="M33.0902 440.946C32.3971 440.237 32.4113 439.088 33.1217 438.394L35.5125 436.056C36.2229 435.361 37.3713 435.373 38.0644 436.082L50.3133 448.608C51.0064 449.317 50.9923 450.465 50.2819 451.16L47.8911 453.498C47.1807 454.193 46.0323 454.181 45.3392 453.472L33.0902 440.946Z" stroke="#D2F7FF" stroke-opacity="0.35" stroke-miterlimit="10"/>
<path d="M23.2774 420.986C22.5847 420.278 22.5988 419.13 23.3088 418.436L35.4254 406.587C36.1354 405.893 37.2831 405.904 37.9758 406.613L50.218 419.133C50.9107 419.841 50.8965 420.989 50.1865 421.683L38.07 433.531C37.36 434.226 36.2123 434.214 35.5196 433.506L23.2774 420.986Z" stroke="#D2F7FF" stroke-opacity="0.35" stroke-miterlimit="10"/>
<path d="M18.3138 425.833C17.6207 425.124 17.6348 423.976 18.3452 423.281L20.736 420.943C21.4464 420.248 22.5948 420.26 23.2879 420.969L35.5368 433.496C36.2299 434.204 36.2158 435.353 35.5054 436.047L33.1146 438.385C32.4042 439.08 31.2558 439.068 30.5627 438.36L18.3138 425.833Z" stroke="#D2F7FF" stroke-opacity="0.35" stroke-miterlimit="10"/>
<path d="M8.49752 405.873C7.8048 405.165 7.81895 404.017 8.52895 403.323L20.6455 391.475C21.3555 390.78 22.5032 390.792 23.1959 391.5L35.4381 404.02C36.1308 404.729 36.1167 405.876 35.4067 406.571L23.2901 418.419C22.5801 419.113 21.4324 419.102 20.7397 418.393L8.49752 405.873Z" stroke="#D2F7FF" stroke-opacity="0.35" stroke-miterlimit="10"/>
<path d="M3.53526 410.72C2.84216 410.012 2.85631 408.863 3.56671 408.169L5.95754 405.831C6.66794 405.136 7.81626 405.148 8.50936 405.856L20.7584 418.383C21.4515 419.092 21.4373 420.24 20.7269 420.935L18.3361 423.273C17.6257 423.968 16.4774 423.956 15.7843 423.247L3.53526 410.72Z" stroke="#D2F7FF" stroke-opacity="0.35" stroke-miterlimit="10"/>
<path d="M-21.1419 385.484C-20.4496 386.192 -19.3027 386.203 -18.5932 385.509L0.208818 367.124C0.918329 366.43 0.932464 365.283 0.240229 364.575L-2.29965 361.977C-2.99188 361.27 -4.13877 361.258 -4.84828 361.952L-23.6503 380.338C-24.3598 381.031 -24.374 382.178 -23.6817 382.886L-21.1419 385.484Z" stroke="#D2F7FF" stroke-opacity="0.35" stroke-miterlimit="10"/>
<path d="M-23.39 282.559C-24.1005 283.254 -24.1146 284.403 -23.4214 285.111L-5.05206 303.897C-4.35888 304.606 -3.21042 304.618 -2.49994 303.923L0.106856 301.374C0.81734 300.679 0.831494 299.531 0.138311 298.822L-18.2311 280.036C-18.9243 279.327 -20.0727 279.316 -20.7832 280.01L-23.39 282.559Z" stroke="#D2F7FF" stroke-opacity="0.35" stroke-miterlimit="10"/>
<path d="M67.3085 354.815C57.0627 364.834 40.6575 364.667 30.6612 354.444C20.6648 344.221 20.867 327.815 31.1115 317.797C41.3587 307.776 57.7638 307.943 67.7602 318.166C77.7566 328.389 77.5557 344.794 67.3085 354.815Z" stroke="#D2F7FF" stroke-opacity="0.35" stroke-miterlimit="10"/>
<path d="M126.754 290.507L83.9885 246.772L68.1214 262.288L110.887 306.023L126.754 290.507Z" stroke="#D2F7FF" stroke-opacity="0.35" stroke-miterlimit="10"/>
<path d="M81.8184 244.554L39.0533 200.819L23.1863 216.335L65.9514 260.07L81.8184 244.554Z" stroke="#D2F7FF" stroke-opacity="0.35" stroke-miterlimit="10"/>
<path d="M120.122 291.015L83.33 253.389L77.9023 258.696L114.695 296.323L120.122 291.015Z" stroke="#D2F7FF" stroke-opacity="0.35" stroke-miterlimit="10"/>
<path d="M98.3259 170.687L78.7465 150.664L36.8463 191.636L56.4257 211.66L98.3259 170.687Z" stroke="#D2F7FF" stroke-opacity="0.35" stroke-miterlimit="10"/>
<path d="M69.7328 187.918C69.0228 188.612 67.8751 188.6 67.1824 187.892L61.2944 181.87C60.6017 181.162 60.6158 180.014 61.3258 179.32L67.3608 173.419C68.0708 172.724 69.2184 172.736 69.9111 173.444L75.7991 179.466C76.4918 180.174 76.4777 181.322 75.7677 182.016L69.7328 187.918Z" stroke="#D2F7FF" stroke-opacity="0.35" stroke-miterlimit="10"/>
<path d="M58.8319 198.578C58.1219 199.273 56.9742 199.261 56.2815 198.553L50.3935 192.531C49.7008 191.823 49.715 190.675 50.4249 189.981L56.4612 184.078C57.1712 183.384 58.3188 183.395 59.0115 184.104L64.8995 190.125C65.5922 190.834 65.5781 191.981 64.8681 192.676L58.8319 198.578Z" stroke="#D2F7FF" stroke-opacity="0.35" stroke-miterlimit="10"/>
<path d="M80.413 161.524L71.5892 170.152" stroke="#D2F7FF" stroke-opacity="0.35" stroke-miterlimit="10"/>
<path d="M82.2968 163.452L73.473 172.08" stroke="#D2F7FF" stroke-opacity="0.35" stroke-miterlimit="10"/>
<path d="M84.1817 165.378L75.3579 174.007" stroke="#D2F7FF" stroke-opacity="0.35" stroke-miterlimit="10"/>
<path d="M86.0675 167.307L77.2437 175.936" stroke="#D2F7FF" stroke-opacity="0.35" stroke-miterlimit="10"/>
<path d="M87.9534 169.235L79.1296 177.863" stroke="#D2F7FF" stroke-opacity="0.35" stroke-miterlimit="10"/>
<path d="M94.6081 170.42L78.9287 154.385L40.564 191.9L56.2434 207.935L94.6081 170.42Z" stroke="#D2F7FF" stroke-opacity="0.35" stroke-miterlimit="10"/>
<path d="M188.175 82.5489L168.094 62.0126L147.315 82.3323L167.395 102.869L188.175 82.5489Z" stroke="#D2F7FF" stroke-opacity="0.35" stroke-miterlimit="10"/>
<path d="M171.618 77.3721C169.716 79.2316 166.669 79.2008 164.813 77.3036C162.957 75.405 162.995 72.3573 164.896 70.4979C166.8 68.636 169.844 68.6679 171.702 70.5678C173.558 72.4638 173.522 75.5102 171.618 77.3721Z" stroke="#D2F7FF" stroke-opacity="0.35" stroke-miterlimit="10"/>
<path d="M169.892 75.6076C168.965 76.514 167.483 76.4991 166.579 75.5743C165.675 74.6494 165.692 73.1664 166.619 72.26C167.546 71.3537 169.03 71.3687 169.934 72.2935C170.84 73.2196 170.819 74.7013 169.892 75.6076Z" stroke="#D2F7FF" stroke-opacity="0.35" stroke-miterlimit="10"/>
<path d="M162.588 86.2021C160.686 88.0615 157.637 88.032 155.782 86.1348C153.926 84.2362 153.965 81.1873 155.866 79.3279C157.769 77.4672 160.814 77.4979 162.672 79.3977C164.528 81.2937 164.491 84.3414 162.588 86.2021Z" stroke="#D2F7FF" stroke-opacity="0.35" stroke-miterlimit="10"/>
<path d="M160.862 84.4376C159.937 85.3427 158.454 85.329 157.549 84.4042C156.645 83.4794 156.663 81.9951 157.589 81.09C158.514 80.1849 160 80.1986 160.904 81.1234C161.81 82.0495 161.789 83.5312 160.862 84.4376Z" stroke="#D2F7FF" stroke-opacity="0.35" stroke-miterlimit="10"/>
<path d="M180.323 86.2761C178.422 88.1355 175.374 88.1048 173.519 86.2075C171.662 84.309 171.7 81.2613 173.601 79.4019C175.505 77.5399 178.551 77.5732 180.407 79.4717C182.263 81.3677 182.227 84.4142 180.323 86.2761Z" stroke="#D2F7FF" stroke-opacity="0.35" stroke-miterlimit="10"/>
<path d="M178.599 84.5126C177.673 85.419 176.189 85.4028 175.285 84.4779C174.381 83.5531 174.399 82.0714 175.326 81.165C176.253 80.2587 177.736 80.2723 178.64 81.1972C179.545 82.122 179.526 83.6063 178.599 84.5126Z" stroke="#D2F7FF" stroke-opacity="0.35" stroke-miterlimit="10"/>
<path d="M171.294 95.106C169.393 96.9654 166.344 96.936 164.489 95.0387C162.632 93.1401 162.671 90.0912 164.572 88.2318C166.475 86.3711 169.522 86.4031 171.378 88.3016C173.235 90.1976 173.197 93.2453 171.294 95.106Z" stroke="#D2F7FF" stroke-opacity="0.35" stroke-miterlimit="10"/>
<path d="M169.57 93.3425C168.645 94.2476 167.161 94.2327 166.256 93.3079C165.352 92.3831 165.372 90.9 166.297 89.9949C167.223 89.0898 168.707 89.1023 169.611 90.0271C170.516 90.9519 170.497 92.4362 169.57 93.3425Z" stroke="#D2F7FF" stroke-opacity="0.35" stroke-miterlimit="10"/>
<path d="M167.418 102.847L147.337 82.3108L126.559 102.629L146.639 123.165L167.418 102.847Z" stroke="#D2F7FF" stroke-opacity="0.35" stroke-miterlimit="10"/>
<path d="M176.12 336.954L197.845 359.172" stroke="#D2F7FF" stroke-opacity="0.35" stroke-width="3" stroke-miterlimit="10"/>
<path d="M205.344 233.229L159.618 186.466L122.75 222.518L168.476 269.281L205.344 233.229Z" stroke="#D2F7FF" stroke-opacity="0.35" stroke-miterlimit="10"/>
<path d="M242.124 178.158L215.5 150.93L169.127 196.278L195.75 223.505L242.124 178.158Z" stroke="#D2F7FF" stroke-opacity="0.35" stroke-miterlimit="10"/>
<path d="M216.667 228.464C213.862 231.207 209.368 231.162 206.63 228.362C203.892 225.562 203.949 221.072 206.755 218.328C209.562 215.583 214.054 215.627 216.791 218.426C219.528 221.228 219.474 225.72 216.667 228.464Z" stroke="#D2F7FF" stroke-opacity="0.35" stroke-miterlimit="10"/>
<path d="M231.259 214.196C228.453 216.939 223.96 216.894 221.222 214.094C218.484 211.294 218.54 206.804 221.347 204.059C224.153 201.315 228.645 201.359 231.382 204.158C234.12 206.958 234.065 211.452 231.259 214.196Z" stroke="#D2F7FF" stroke-opacity="0.35" stroke-miterlimit="10"/>
<path d="M245.85 199.928C243.045 202.671 238.551 202.626 235.813 199.826C233.075 197.025 233.133 192.534 235.938 189.791C238.745 187.047 243.237 187.091 245.974 189.89C248.712 192.69 248.657 197.184 245.85 199.928Z" stroke="#D2F7FF" stroke-opacity="0.35" stroke-miterlimit="10"/>
<path d="M174.548 185.393C171.743 188.136 167.251 188.092 164.512 185.29C161.773 182.49 161.829 177.999 164.635 175.255C167.442 172.51 171.934 172.554 174.672 175.354C177.41 178.157 177.355 182.648 174.548 185.393Z" stroke="#D2F7FF" stroke-opacity="0.35" stroke-miterlimit="10"/>
<path d="M189.14 171.124C186.335 173.867 181.842 173.823 179.103 171.022C176.365 168.222 176.42 163.731 179.227 160.986C182.033 158.242 186.526 158.286 189.264 161.086C192.003 163.888 191.946 168.38 189.14 171.124Z" stroke="#D2F7FF" stroke-opacity="0.35" stroke-miterlimit="10"/>
<path d="M203.732 156.856C200.926 159.599 196.434 159.555 193.695 156.754C190.957 153.954 191.013 149.461 193.818 146.718C196.625 143.974 201.117 144.018 203.855 146.818C206.595 149.619 206.538 154.112 203.732 156.856Z" stroke="#D2F7FF" stroke-opacity="0.35" stroke-miterlimit="10"/>
<path d="M217.736 336.504L199.758 318.118L179.709 337.724L197.687 356.109L217.736 336.504Z" stroke="#D2F7FF" stroke-opacity="0.35" stroke-miterlimit="10"/>
<path d="M199.758 318.118L197.686 356.111" stroke="#D2F7FF" stroke-opacity="0.35" stroke-miterlimit="10"/>
<path d="M217.736 336.504L179.708 337.725" stroke="#D2F7FF" stroke-opacity="0.35" stroke-miterlimit="10"/>
<path d="M237.812 316.872L219.834 298.486L199.785 318.092L217.763 336.477L237.812 316.872Z" stroke="#D2F7FF" stroke-opacity="0.35" stroke-miterlimit="10"/>
<path d="M219.834 298.486L217.764 336.476" stroke="#D2F7FF" stroke-opacity="0.35" stroke-miterlimit="10"/>
<path d="M237.812 316.872L199.786 318.09" stroke="#D2F7FF" stroke-opacity="0.35" stroke-miterlimit="10"/>
<path d="M257.892 297.238L239.914 278.852L219.864 298.458L237.842 316.844L257.892 297.238Z" stroke="#D2F7FF" stroke-opacity="0.35" stroke-miterlimit="10"/>
<path d="M239.914 278.852L237.842 316.844" stroke="#D2F7FF" stroke-opacity="0.35" stroke-miterlimit="10"/>
<path d="M257.892 297.238L219.864 298.458" stroke="#D2F7FF" stroke-opacity="0.35" stroke-miterlimit="10"/>
<path d="M277.97 277.605L259.992 259.219L239.942 278.825L257.92 297.21L277.97 277.605Z" stroke="#D2F7FF" stroke-opacity="0.35" stroke-miterlimit="10"/>
<path d="M259.992 259.219L257.919 297.212" stroke="#D2F7FF" stroke-opacity="0.35" stroke-miterlimit="10"/>
<path d="M277.97 277.605L239.941 278.826" stroke="#D2F7FF" stroke-opacity="0.35" stroke-miterlimit="10"/>
<path d="M298.047 257.973L280.069 239.587L260.02 259.192L277.998 277.578L298.047 257.973Z" stroke="#D2F7FF" stroke-opacity="0.35" stroke-miterlimit="10"/>
<path d="M280.069 239.587L277.999 277.577" stroke="#D2F7FF" stroke-opacity="0.35" stroke-miterlimit="10"/>
<path d="M298.047 257.973L260.021 259.191" stroke="#D2F7FF" stroke-opacity="0.35" stroke-miterlimit="10"/>
<path d="M324.481 285.004L302.388 262.411L282.443 281.915L304.535 304.509L324.481 285.004Z" stroke="#D2F7FF" stroke-opacity="0.35" stroke-miterlimit="10"/>
<path d="M312.045 292.236C309.009 295.204 302.706 293.681 297.966 288.835C293.228 283.989 291.848 277.652 294.883 274.684C297.92 271.715 304.223 273.237 308.961 278.083C313.702 282.931 315.081 289.267 312.045 292.236Z" stroke="#D2F7FF" stroke-opacity="0.35" stroke-miterlimit="10"/>
<path d="M323.185 438.776C322.475 439.47 321.327 439.459 320.634 438.75L310.494 428.38C309.801 427.671 309.815 426.523 310.525 425.828L315.566 420.899C316.276 420.204 317.424 420.216 318.117 420.925L328.258 431.295C328.951 432.004 328.936 433.152 328.226 433.846L323.185 438.776Z" stroke="#D2F7FF" stroke-opacity="0.35" stroke-miterlimit="10"/>
<path d="M320.424 431.698C319.606 432.499 318.298 432.485 317.5 431.67C316.703 430.855 316.719 429.546 317.538 428.746C318.355 427.947 319.664 427.962 320.46 428.776C321.258 429.591 321.242 430.899 320.424 431.698Z" stroke="#D2F7FF" stroke-opacity="0.35" stroke-miterlimit="10"/>
<path d="M318.442 421.281L325.477 414.403C325.477 414.403 331.682 408.334 336.414 413.174C340.497 417.349 335.72 423.083 335.03 423.757C334.34 424.433 327.79 430.838 327.79 430.838" stroke="#D2F7FF" stroke-opacity="0.35" stroke-miterlimit="10"/>
<path d="M333.07 421.974C330.693 424.299 327.5 424.889 325.943 423.296C324.385 421.703 325.047 418.525 327.424 416.2C329.801 413.875 332.994 413.285 334.551 414.878C336.11 416.47 335.447 419.65 333.07 421.974Z" stroke="#D2F7FF" stroke-opacity="0.35" stroke-miterlimit="10"/>
<path d="M370.144 328.767L332.129 365.94L343.468 377.536" stroke="#D2F7FF" stroke-opacity="0.35" stroke-width="3" stroke-miterlimit="10"/>
<path d="M251.445 310.376L222.771 338.416L249.689 365.945C249.689 365.945 279.441 339.008 251.445 310.376Z" stroke="#D2F7FF" stroke-opacity="0.35" stroke-miterlimit="10"/>
<path d="M250.246 314.859L226.186 338.386L248.773 361.485C248.773 361.485 273.737 338.883 250.246 314.859Z" stroke="#D2F7FF" stroke-opacity="0.35" stroke-miterlimit="10"/>
<path d="M247.958 321.628L232.158 337.079C231.448 337.773 231.434 338.921 232.126 339.629L245.65 353.46C246.343 354.168 247.513 354.203 248.248 353.537C248.248 353.537 264.644 338.693 247.958 321.628Z" stroke="#D2F7FF" stroke-opacity="0.35" stroke-miterlimit="10"/>
<path d="M249.785 467.059L203.066 419.28L90.3115 529.539L137.03 577.317L249.785 467.059Z" stroke="#D2F7FF" stroke-opacity="0.35" stroke-width="0.5" stroke-miterlimit="10" stroke-linecap="round" stroke-linejoin="round" stroke-dasharray="2 2"/>
<path d="M284.536 516.273L313.043 488.397L459.303 637.976L331.282 763.165L185.021 613.586L250.164 549.885" stroke="#D2F7FF" stroke-opacity="0.35" stroke-width="0.5" stroke-miterlimit="10" stroke-linecap="round" stroke-linejoin="round" stroke-dasharray="2 2"/>
<path d="M296.093 192.815L202.053 96.6427L76.5374 219.381L170.577 315.553L296.093 192.815Z" stroke="#D2F7FF" stroke-opacity="0.35" stroke-width="0.5" stroke-miterlimit="10" stroke-linecap="round" stroke-linejoin="round" stroke-dasharray="2 2"/>
<path d="M595.539 499.025L467.002 367.573L345.015 486.861L473.552 618.313L595.539 499.025Z" stroke="#D2F7FF" stroke-opacity="0.35" stroke-width="0.5" stroke-miterlimit="10" stroke-linecap="round" stroke-linejoin="round" stroke-dasharray="2 2"/>
<path d="M443.013 343.144L333 230.637L312.204 250.973L422.217 363.48L443.013 343.144Z" stroke="#D2F7FF" stroke-opacity="0.35" stroke-width="0.5" stroke-miterlimit="10" stroke-linecap="round" stroke-linejoin="round" stroke-dasharray="2 2"/>
<path d="M399.879 371.047L370.691 341.197L345.04 366.28L374.228 396.131L399.879 371.047Z" stroke="#D2F7FF" stroke-opacity="0.35" stroke-width="0.5" stroke-miterlimit="10" stroke-linecap="round" stroke-linejoin="round" stroke-dasharray="2 2"/>
</g>
<defs>
<filter id="filter0_d_0_3" x="164.856" y="48.5804" width="423" height="516.313" filterUnits="userSpaceOnUse" color-interpolation-filters="sRGB">
<feFlood flood-opacity="0" result="BackgroundImageFix"/>
<feColorMatrix in="SourceAlpha" type="matrix" values="0 0 0 0 0 0 0 0 0 0 0 0 0 0 0 0 0 0 127 0" result="hardAlpha"/>
<feOffset dx="53"/>
<feGaussianBlur stdDeviation="5"/>
<feComposite in2="hardAlpha" operator="out"/>
<feColorMatrix type="matrix" values="0 0 0 0 0 0 0 0 0 0 0 0 0 0 0 0 0 0 0.7 0"/>
<feBlend mode="normal" in2="BackgroundImageFix" result="effect1_dropShadow_0_3"/>
<feBlend mode="normal" in="SourceGraphic" in2="effect1_dropShadow_0_3" result="shape"/>
</filter>
<filter id="filter1_d_0_3" x="0" y="0.172938" width="423" height="516.313" filterUnits="userSpaceOnUse" color-interpolation-filters="sRGB">
<feFlood flood-opacity="0" result="BackgroundImageFix"/>
<feColorMatrix in="SourceAlpha" type="matrix" values="0 0 0 0 0 0 0 0 0 0 0 0 0 0 0 0 0 0 127 0" result="hardAlpha"/>
<feOffset dx="53"/>
<feGaussianBlur stdDeviation="5"/>
<feComposite in2="hardAlpha" operator="out"/>
<feColorMatrix type="matrix" values="0 0 0 0 0 0 0 0 0 0 0 0 0 0 0 0 0 0 0.7 0"/>
<feBlend mode="normal" in2="BackgroundImageFix" result="effect1_dropShadow_0_3"/>
<feBlend mode="normal" in="SourceGraphic" in2="effect1_dropShadow_0_3" result="shape"/>
</filter>
</defs>
</svg>
