<svg width="25" height="25" viewBox="0 0 25 25" fill="none" xmlns="http://www.w3.org/2000/svg">
<path fill-rule="evenodd" clip-rule="evenodd" d="M5.64328 0.5C4.27954 0.5 2.97163 1.04161 2.00713 2.00573C1.04263 2.96986 0.500524 4.27757 0.5 5.64131V19.3567C0.5 20.7208 1.04188 22.029 2.00643 22.9936C2.97098 23.9581 4.2792 24.5 5.64328 24.5H19.3587C20.7224 24.4995 22.0301 23.9574 22.9943 22.9929C23.9584 22.0284 24.5 20.7205 24.5 19.3567V5.64131C24.4995 4.27791 23.9576 2.9705 22.9936 2.00643C22.0295 1.04236 20.7221 0.500523 19.3587 0.5H5.64328ZM20.8381 5.64921C20.8381 6.04209 20.682 6.41888 20.4042 6.69669C20.1264 6.97449 19.7496 7.13057 19.3567 7.13057C18.9638 7.13057 18.587 6.97449 18.3092 6.69669C18.0314 6.41888 17.8754 6.04209 17.8754 5.64921C17.8754 5.25633 18.0314 4.87954 18.3092 4.60173C18.587 4.32392 18.9638 4.16785 19.3567 4.16785C19.7496 4.16785 20.1264 4.32392 20.4042 4.60173C20.682 4.87954 20.8381 5.25633 20.8381 5.64921ZM12.503 8.39071C11.4134 8.39071 10.3684 8.82355 9.59795 9.594C8.8275 10.3645 8.39466 11.4094 8.39466 12.499C8.39466 13.5886 8.8275 14.6336 9.59795 15.404C10.3684 16.1745 11.4134 16.6073 12.503 16.6073C13.5926 16.6073 14.6375 16.1745 15.408 15.404C16.1784 14.6336 16.6113 13.5886 16.6113 12.499C16.6113 11.4094 16.1784 10.3645 15.408 9.594C14.6375 8.82355 13.5926 8.39071 12.503 8.39071ZM6.41754 12.499C6.41754 10.8856 7.05847 9.33823 8.19934 8.19736C9.34021 7.0565 10.8876 6.41556 12.501 6.41556C14.1144 6.41556 15.6618 7.0565 16.8026 8.19736C17.9435 9.33823 18.5844 10.8856 18.5844 12.499C18.5844 14.1124 17.9435 15.6598 16.8026 16.8007C15.6618 17.9415 14.1144 18.5825 12.501 18.5825C10.8876 18.5825 9.34021 17.9415 8.19934 16.8007C7.05847 15.6598 6.41754 14.1124 6.41754 12.499Z" fill="#85CEE4"/>
</svg>
