<svg width="117" height="40" viewBox="0 0 117 40" fill="none" xmlns="http://www.w3.org/2000/svg">
<path d="M113.153 35.3562V40H112.53V35.3562L108.493 29.1699H109.199L112.825 34.749H112.874L116.304 29.1699H116.977L113.153 35.3562Z" fill="black"/>
<path d="M104.304 29.7278V40H103.665V29.7278H99.874V29.1699H108.062V29.7278H104.304Z" fill="black"/>
<path d="M95.0122 39.4256H101.1V40H94.3887V29.1699H95.0122V39.4256Z" fill="black"/>
<path d="M92.7369 40H92.0805L90.9483 37.2925H85.1723L84.0401 40H83.4165L87.9947 29.1207H88.1587L92.7369 40ZM90.7186 36.751L88.0439 30.3514L85.402 36.751H90.7186Z" fill="black"/>
<path d="M82.2214 29.1699V29.7278H76.1992V33.9614H81.8112V34.5193H76.1992V39.4256H82.6644V40H75.5757V29.1699H82.2214Z" fill="black"/>
<path d="M69.7795 35.7664L73.7834 40H72.9137L68.7622 35.5039V35.3562C70.0202 35.3452 70.9993 35.0553 71.6994 34.4865C72.3886 33.9176 72.7332 33.2449 72.7332 32.4682C72.7332 31.6368 72.4488 30.9749 71.8799 30.4827C71.3111 29.9795 70.5727 29.7278 69.6647 29.7278H66.7767V40H66.1367V29.1699H69.7467C70.786 29.1699 71.6447 29.4708 72.323 30.0724C73.0231 30.6632 73.3731 31.4563 73.3731 32.4518C73.3731 33.2832 73.045 34.0216 72.3886 34.667C71.7432 35.3015 70.8735 35.668 69.7795 35.7664Z" fill="black"/>
<path d="M108.214 19.3956L115.762 0.361008H116.977L108.313 22.0211H107.984L99.1562 0.361008H100.436L108.116 19.3956H108.214Z" fill="black"/>
<path d="M87.6242 0C90.7748 0 93.3893 1.07206 95.4678 3.21619C97.5681 5.36032 98.6183 8.00766 98.6183 11.1582C98.6183 14.3088 97.5681 16.9561 95.4678 19.1002C93.4112 21.2225 90.7966 22.2836 87.6242 22.2836C84.2986 22.2836 81.6185 21.2334 79.5837 19.1331C77.5709 16.9889 76.5645 14.3306 76.5645 11.1582C76.5645 8.07329 77.6365 5.43689 79.7806 3.24901C81.9029 1.083 84.5174 0 87.6242 0ZM87.6242 1.14864C84.8237 1.14864 82.4936 2.11131 80.6339 4.03665C78.7961 5.98386 77.8772 8.35772 77.8772 11.1582C77.8772 14.0462 78.7742 16.431 80.5683 18.3126C82.3842 20.2161 84.7362 21.1678 87.6242 21.1678C90.4466 21.1678 92.7767 20.2051 94.6145 18.2798C96.4523 16.3544 97.3712 13.9806 97.3712 11.1582C97.3712 8.35772 96.4523 5.9948 94.6145 4.06947C92.7767 2.12225 90.4466 1.14864 87.6242 1.14864Z" fill="black"/>
<path d="M70.7193 19.2315V0.328173H71.9335V22.0539H71.6054L55.6557 2.98645V21.9882H54.4414V0.196899H54.7696L70.6536 19.2315H70.7193Z" fill="black"/>
<path d="M37.9008 20.8724H50.9953V21.9882H35.8989V21.7913L48.8293 1.44401H37.146V0.328186H50.7656V0.590733L37.9008 20.8724Z" fill="black"/>
<path d="M33.3441 0.328186V1.44401H21.2998V9.91112H32.5237V11.0269H21.2998V20.8396H34.2302V21.9882H20.0527V0.328186H33.3441Z" fill="black"/>
<path d="M8.80045 13.718L16.5456 21.9882H13.9201L5.71553 12.8648V12.5366C8.2316 12.5147 10.1569 11.9677 11.4915 10.8957C12.8262 9.8236 13.4935 8.55463 13.4935 7.08875C13.4935 5.49159 12.9793 4.23356 11.951 3.31465C10.9227 2.39573 9.55527 1.93628 7.84872 1.93628H2.63061V21.9882H0.694336V0.295364H8.11126C10.0366 0.295364 11.7322 0.897033 13.1981 2.10037C14.6859 3.28183 15.4297 4.92274 15.4297 7.02311C15.4297 8.66402 14.8171 10.1299 13.5919 11.4208C12.3886 12.6897 10.7914 13.4555 8.80045 13.718Z" fill="white"/>
</svg>
