<svg width="157" height="62" viewBox="0 0 157 62" fill="none" xmlns="http://www.w3.org/2000/svg">
<path d="M140.75 55.8262V61.6028H139.974V55.8262L134.953 48.1308H135.831L140.342 55.0709H140.403L144.669 48.1308H145.506L140.75 55.8262Z" fill="white"/>
<path d="M129.742 48.8248V61.6028H128.946V48.8248H124.231V48.1308H134.417V48.8248H129.742Z" fill="white"/>
<path d="M118.183 60.8884H125.756V61.6028H117.407V48.1308H118.183V60.8884Z" fill="white"/>
<path d="M115.353 61.6028H114.537L113.128 58.2348H105.943L104.535 61.6028H103.759L109.454 48.0696H109.658L115.353 61.6028ZM112.842 57.5612L109.515 49.6005L106.229 57.5612H112.842Z" fill="white"/>
<path d="M102.272 48.1308V48.8248H94.7808V54.0911H101.762V54.7851H94.7808V60.8884H102.823V61.6028H94.0051V48.1308H102.272Z" fill="white"/>
<path d="M86.7952 56.3365L91.7757 61.6028H90.6939L85.5296 56.0099V55.8262C87.0945 55.8125 88.3125 55.4519 89.1834 54.7443C90.0407 54.0367 90.4693 53.1998 90.4693 52.2336C90.4693 51.1994 90.1155 50.3761 89.4079 49.7638C88.7003 49.1378 87.7817 48.8248 86.6523 48.8248H83.0597V61.6028H82.2637V48.1308H86.7543C88.0471 48.1308 89.1153 48.505 89.959 49.2535C90.8299 49.9883 91.2654 50.9749 91.2654 52.2132C91.2654 53.2474 90.8572 54.166 90.0407 54.9688C89.2378 55.7581 88.156 56.214 86.7952 56.3365Z" fill="white"/>
<path d="M134.606 35.972L143.995 12.294H145.506L134.728 39.238H134.32L123.338 12.294H124.931L134.483 35.972H134.606Z" fill="white"/>
<path d="M108.993 11.8449C112.912 11.8449 116.164 13.1785 118.75 15.8457C121.363 18.5129 122.669 21.806 122.669 25.7252C122.669 29.6443 121.363 32.9374 118.75 35.6046C116.192 38.2446 112.939 39.5646 108.993 39.5646C104.856 39.5646 101.522 38.2582 98.9909 35.6454C96.487 32.9783 95.2351 29.6715 95.2351 25.7252C95.2351 21.8877 96.5687 18.6081 99.2359 15.8865C101.876 13.1921 105.128 11.8449 108.993 11.8449ZM108.993 13.2738C105.509 13.2738 102.611 14.4713 100.297 16.8663C98.0112 19.2885 96.8681 22.2415 96.8681 25.7252C96.8681 29.3177 97.9839 32.2842 100.216 34.6248C102.475 36.9926 105.4 38.1765 108.993 38.1765C112.504 38.1765 115.402 36.979 117.688 34.584C119.975 32.189 121.118 29.236 121.118 25.7252C121.118 22.2415 119.975 19.3022 117.688 16.9071C115.402 14.4849 112.504 13.2738 108.993 13.2738Z" fill="white"/>
<path d="M87.9644 35.7679V12.2532H89.4749V39.2788H89.0666L69.2261 15.5599V39.1971H67.7156V12.0899H68.1238L87.8827 35.7679H87.9644Z" fill="white"/>
<path d="M47.1399 37.8091H63.4288V39.1972H44.6497V38.9522L60.7344 13.6412H46.201V12.2532H63.143V12.5798L47.1399 37.8091Z" fill="white"/>
<path d="M41.4715 12.2532V13.6412H26.4891V24.1739H40.4509V25.5619H26.4891V37.7683H42.5738V39.1972H24.9377V12.2532H41.4715Z" fill="white"/>
<path d="M10.9405 28.9095L20.575 39.1972H17.3091L7.10303 27.848V27.4398C10.2329 27.4126 12.6279 26.7322 14.2881 25.3986C15.9483 24.065 16.7784 22.4865 16.7784 20.663C16.7784 18.6762 16.1388 17.1113 14.8596 15.9682C13.5805 14.8251 11.8795 14.2536 9.7566 14.2536H3.26556V39.1972H0.856934V12.2124H10.0832C12.4782 12.2124 14.5875 12.9608 16.4109 14.4577C18.2616 15.9274 19.187 17.9686 19.187 20.5813C19.187 22.6225 18.4249 24.446 16.9008 26.0518C15.404 27.6303 13.4172 28.5829 10.9405 28.9095Z" fill="black"/>
<path d="M156.857 0.397186V6.02752H156.542V3.6291C156.548 2.91468 156.551 2.10953 156.551 1.21367C156.545 1.21367 156.539 1.21083 156.534 1.20516L154.22 4.53063H154.135L151.813 1.24769C151.813 1.25336 151.811 1.25903 151.805 1.2647V6.02752H151.499V0.397186H151.584L154.186 4.09688L156.763 0.397186H156.857Z" fill="black"/>
<path d="M148.69 0.703524V6.02768H148.358V0.703524H146.393V0.414352H150.637V0.703524H148.69Z" fill="black"/>
</svg>
