<svg width="156" height="62" viewBox="0 0 156 62" fill="none" xmlns="http://www.w3.org/2000/svg">
<path d="M139.893 55.9456V61.7222H139.117V55.9456L134.096 48.2502H134.973L139.484 55.1904H139.546L143.812 48.2502H144.649L139.893 55.9456Z" fill="black"/>
<path d="M128.884 48.9443V61.7222H128.088V48.9443H123.373V48.2502H133.559V48.9443H128.884Z" fill="black"/>
<path d="M117.326 61.0078H124.899V61.7222H116.551V48.2502H117.326V61.0078Z" fill="black"/>
<path d="M114.496 61.7222H113.68L112.271 58.3542H105.086L103.678 61.7222H102.902L108.597 48.189H108.801L114.496 61.7222ZM111.986 57.6806L108.659 49.7199L105.372 57.6806H111.986Z" fill="black"/>
<path d="M101.415 48.2502V48.9443H93.9241V54.2106H100.905V54.9046H93.9241V61.0078H101.966V61.7222H93.1484V48.2502H101.415Z" fill="black"/>
<path d="M85.9377 56.4559L90.9183 61.7222H89.8364L84.6722 56.1293V55.9456C86.2371 55.932 87.455 55.5714 88.3259 54.8638C89.1833 54.1561 89.6119 53.3192 89.6119 52.3531C89.6119 51.3189 89.2581 50.4956 88.5505 49.8832C87.8429 49.2572 86.9243 48.9443 85.7948 48.9443H82.2023V61.7222H81.4062V48.2502H85.8969C87.1897 48.2502 88.2579 48.6245 89.1016 49.3729C89.9725 50.1077 90.408 51.0943 90.408 52.3327C90.408 53.3669 89.9997 54.2854 89.1833 55.0883C88.3804 55.8776 87.2985 56.3334 85.9377 56.4559Z" fill="black"/>
<path d="M133.748 36.0914L143.138 12.4133H144.648L133.87 39.3573H133.462L122.48 12.4133H124.073L133.625 36.0914H133.748Z" fill="black"/>
<path d="M108.137 11.9644C112.056 11.9644 115.308 13.2979 117.894 15.9651C120.506 18.6323 121.813 21.9255 121.813 25.8446C121.813 29.7637 120.506 33.0568 117.894 35.724C115.335 38.364 112.083 39.684 108.137 39.684C104 39.684 100.666 38.3776 98.1347 35.7649C95.6308 33.0977 94.3789 29.7909 94.3789 25.8446C94.3789 22.0071 95.7125 18.7276 98.3797 16.0059C101.02 13.3116 104.272 11.9644 108.137 11.9644ZM108.137 13.3932C104.653 13.3932 101.754 14.5907 99.4411 16.9857C97.155 19.408 96.0119 22.3609 96.0119 25.8446C96.0119 29.4371 97.1277 32.4037 99.3595 34.7442C101.618 37.112 104.544 38.2959 108.137 38.2959C111.648 38.2959 114.546 37.0984 116.832 34.7034C119.118 32.3084 120.261 29.3555 120.261 25.8446C120.261 22.3609 119.118 19.4216 116.832 17.0266C114.546 14.6043 111.648 13.3932 108.137 13.3932Z" fill="black"/>
<path d="M87.1082 35.8873V12.3725H88.6187V39.3981H88.2104L68.3699 15.6793V39.3165H66.8594V12.2092H67.2676L87.0265 35.8873H87.1082Z" fill="black"/>
<path d="M46.2832 37.9285H62.5721V39.3165H43.793V39.0716L59.8777 13.7606H45.3443V12.3726H62.2863V12.6992L46.2832 37.9285Z" fill="black"/>
<path d="M40.6139 12.3726V13.7606H25.6314V24.2932H39.5933V25.6812H25.6314V37.8877H41.7161V39.3165H24.0801V12.3726H40.6139Z" fill="black"/>
<path d="M10.0836 29.0289L19.7181 39.3166H16.4521L6.2461 27.9674V27.5592C9.37595 27.532 11.771 26.8516 13.4312 25.518C15.0913 24.1844 15.9214 22.6059 15.9214 20.7824C15.9214 18.7956 15.2819 17.2307 14.0027 16.0876C12.7235 14.9445 11.0225 14.373 8.89967 14.373H2.40863V39.3166H0V12.3318H9.22626C11.6213 12.3318 13.7305 13.0802 15.554 14.5771C17.4047 16.0468 18.3301 18.088 18.3301 20.7007C18.3301 22.742 17.568 24.5654 16.0439 26.1712C14.547 27.7497 12.5602 28.7023 10.0836 29.0289Z" fill="#85CEE4"/>
<path d="M156.001 0.516602V6.14694H155.686V3.74852C155.692 3.03409 155.695 2.22895 155.695 1.33309C155.689 1.33309 155.683 1.33025 155.678 1.32458L153.364 4.65005H153.279L150.957 1.36711C150.957 1.37278 150.954 1.37845 150.949 1.38412V6.14694H150.643V0.516602H150.728L153.33 4.21629L155.907 0.516602H156.001Z" fill="black"/>
<path d="M147.833 0.822863V6.14702H147.502V0.822863H145.537V0.533691H149.781V0.822863H147.833Z" fill="black"/>
</svg>
