<svg width="117" height="40" viewBox="0 0 117 40" fill="none" xmlns="http://www.w3.org/2000/svg">
<path d="M112.459 35.3562V40H111.835V35.3562L107.799 29.1699H108.504L112.131 34.749H112.18L115.61 29.1699H116.282L112.459 35.3562Z" fill="white"/>
<path d="M103.61 29.7278V40H102.97V29.7278H99.1794V29.1699H107.368V29.7278H103.61Z" fill="white"/>
<path d="M94.3175 39.4256H100.405V40H93.694V29.1699H94.3175V39.4256Z" fill="white"/>
<path d="M92.0426 40H91.3863L90.254 37.2925H84.478L83.3458 40H82.7222L87.3004 29.1207H87.4645L92.0426 40ZM90.0243 36.751L87.3496 30.3514L84.7077 36.751H90.0243Z" fill="white"/>
<path d="M81.5269 29.1699V29.7278H75.5047V33.9614H81.1166V34.5193H75.5047V39.4256H81.9699V40H74.8812V29.1699H81.5269Z" fill="white"/>
<path d="M69.0852 35.7664L73.089 40H72.2193L68.0678 35.5039V35.3562C69.3258 35.3452 70.3049 35.0553 71.005 34.4865C71.6942 33.9176 72.0388 33.2449 72.0388 32.4682C72.0388 31.6368 71.7544 30.9749 71.1855 30.4827C70.6167 29.9795 69.8783 29.7278 68.9703 29.7278H66.0823V40H65.4423V29.1699H69.0523C70.0916 29.1699 70.9503 29.4708 71.6286 30.0724C72.3287 30.6632 72.6788 31.4563 72.6788 32.4518C72.6788 33.2832 72.3506 34.0216 71.6942 34.667C71.0488 35.3015 70.1791 35.668 69.0852 35.7664Z" fill="white"/>
<path d="M107.52 19.3956L115.068 0.361008H116.282L107.618 22.0211H107.29L98.462 0.361008H99.7419L107.421 19.3956H107.52Z" fill="white"/>
<path d="M86.9297 0C90.0802 0 92.6948 1.07206 94.7733 3.21619C96.8736 5.36032 97.9238 8.00766 97.9238 11.1582C97.9238 14.3088 96.8736 16.9561 94.7733 19.1002C92.7166 21.2225 90.1021 22.2836 86.9297 22.2836C83.6041 22.2836 80.9239 21.2334 78.8892 19.1331C76.8764 16.9889 75.8699 14.3306 75.8699 11.1582C75.8699 8.07329 76.942 5.43689 79.0861 3.24901C81.2084 1.083 83.8229 0 86.9297 0ZM86.9297 1.14864C84.1292 1.14864 81.7991 2.11131 79.9394 4.03665C78.1016 5.98386 77.1827 8.35772 77.1827 11.1582C77.1827 14.0462 78.0797 16.431 79.8738 18.3126C81.6897 20.2161 84.0417 21.1678 86.9297 21.1678C89.7521 21.1678 92.0822 20.2051 93.92 18.2798C95.7578 16.3544 96.6767 13.9806 96.6767 11.1582C96.6767 8.35772 95.7578 5.9948 93.92 4.06947C92.0822 2.12225 89.7521 1.14864 86.9297 1.14864Z" fill="white"/>
<path d="M70.025 19.2315V0.328173H71.2393V22.0539H70.9111L54.9614 2.98645V21.9882H53.7471V0.196899H54.0753L69.9594 19.2315H70.025Z" fill="white"/>
<path d="M37.2067 20.8724H50.3012V21.9882H35.2048V21.7913L48.1352 1.44401H36.4519V0.328186H50.0715V0.590733L37.2067 20.8724Z" fill="white"/>
<path d="M32.6498 0.328186V1.44401H20.6055V9.91112H31.8293V11.0269H20.6055V20.8396H33.5359V21.9882H19.3584V0.328186H32.6498Z" fill="white"/>
<path d="M8.10611 13.718L15.8512 21.9882H13.2258L5.0212 12.8648V12.5366C7.53726 12.5147 9.4626 11.9677 10.7972 10.8957C12.1318 9.8236 12.7991 8.55463 12.7991 7.08875C12.7991 5.49159 12.285 4.23356 11.2567 3.31465C10.2284 2.39573 8.86093 1.93628 7.15438 1.93628H1.93628V21.9882H0V0.295364H7.41693C9.34227 0.295364 11.0379 0.897033 12.5038 2.10037C13.9915 3.28183 14.7354 4.92274 14.7354 7.02311C14.7354 8.66402 14.1228 10.1299 12.8976 11.4208C11.6942 12.6897 10.0971 13.4555 8.10611 13.718Z" fill="#85CEE4"/>
</svg>
