<svg width="20" height="24" viewBox="0 0 20 24" fill="none" xmlns="http://www.w3.org/2000/svg">
<path d="M9.6 0C4.29792 0 0 4.29792 0 9.6C0 12.2501 1.07376 14.6496 2.8104 16.3867C4.54752 18.1248 8.64 20.64 8.88 23.28C8.91598 23.6758 9.20256 24 9.6 24C9.99744 24 10.284 23.6758 10.32 23.28C10.56 20.64 14.6525 18.1248 16.3896 16.3867C18.1262 14.6496 19.2 12.2501 19.2 9.6C19.2 4.29792 14.9021 0 9.6 0Z" fill="#85CEE4"/>
<path d="M9.50002 14C11.9853 14 14 11.9853 14 9.5C14 7.01471 11.9853 5 9.50002 5C7.01475 5 5 7.01471 5 9.5C5 11.9853 7.01475 14 9.50002 14Z" fill="black"/>
</svg>
