<svg width="33" height="33" viewBox="0 0 33 33" fill="none" xmlns="http://www.w3.org/2000/svg">
<path d="M16.5 4.5C11.1979 4.5 6.90002 8.79792 6.90002 14.1C6.90002 16.7501 7.97378 19.1496 9.71042 20.8867C11.4475 22.6248 15.54 25.14 15.78 27.78C15.816 28.1758 16.1026 28.5 16.5 28.5C16.8975 28.5 17.184 28.1758 17.22 27.78C17.46 25.14 21.5525 22.6248 23.2896 20.8867C25.0263 19.1496 26.1 16.7501 26.1 14.1C26.1 8.79792 21.8021 4.5 16.5 4.5Z" fill="#85CEE4"/>
<path d="M16.5 18.6998C18.8196 18.6998 20.7 16.8194 20.7 14.4998C20.7 12.1802 18.8196 10.2998 16.5 10.2998C14.1805 10.2998 12.3 12.1802 12.3 14.4998C12.3 16.8194 14.1805 18.6998 16.5 18.6998Z" fill="black"/>
</svg>
