<svg width="247" height="225" viewBox="0 0 247 225" fill="none" xmlns="http://www.w3.org/2000/svg">
<path d="M89.9468 30.0092V153.138" stroke="#424242" stroke-width="0.7016" stroke-miterlimit="10" stroke-linecap="round"/>
<path d="M99.9267 30.9265V153.166" stroke="#424242" stroke-width="0.7016" stroke-miterlimit="10" stroke-linecap="round"/>
<path d="M6.99561 165.389C7.73562 165.313 94.4837 152.414 94.4837 152.414L237.446 172.141V172.99L94.4284 154.718L6.99561 166.423V165.389Z" stroke="#424242" stroke-width="0.7016" stroke-miterlimit="10" stroke-linecap="round"/>
<path d="M7.68024 166.32C8.42025 166.244 94.4353 154.718 94.4353 154.718L236.775 172.9V173.742L94.3799 157.015L7.68024 167.355V166.32Z" stroke="#424242" stroke-width="0.5896" stroke-miterlimit="10" stroke-linecap="round"/>
<path d="M9.09119 167.189C9.81737 167.113 94.3454 157.015 94.3454 157.015L235.35 173.569V174.404L94.2901 159.284L9.09119 168.203V167.189Z" stroke="#424242" stroke-width="0.5823" stroke-miterlimit="10" stroke-linecap="round"/>
<path d="M12.5007 167.851V172.983L93.9788 163.685L235.35 178.046V174.404L94.29 159.285L12.5007 167.851Z" stroke="#424242" stroke-width="0.5823" stroke-miterlimit="10" stroke-linecap="round"/>
<path d="M12.5007 172.983H16.3184L93.9788 164.658L235.35 178.046L93.9788 163.685L12.5007 172.983Z" stroke="#424242" stroke-width="0.3742" stroke-miterlimit="10" stroke-linecap="round"/>
<path d="M88.5774 165.237V167.444H89.518V209.816L93.6814 210.092L98.9307 209.747V167.851H99.9266V165.237L93.9788 164.658L88.5774 165.237Z" stroke="#424242" stroke-width="0.3742" stroke-miterlimit="10" stroke-linecap="round"/>
<path d="M13.8148 176.08L93.9788 169.348L98.9307 169.755" stroke="#424242" stroke-width="0.3742" stroke-miterlimit="10" stroke-linecap="round"/>
<path d="M13.8148 176.832L93.9788 170.458L98.9307 170.865" stroke="#424242" stroke-width="0.3742" stroke-miterlimit="10" stroke-linecap="round"/>
<path d="M89.5179 205.995H93.8543H98.9307" stroke="#424242" stroke-width="0.3742" stroke-miterlimit="10" stroke-linecap="round"/>
<path d="M93.9789 170.458V205.995" stroke="#424242" stroke-width="0.3742" stroke-miterlimit="10" stroke-linecap="round"/>
<path d="M89.5179 209.14L13.5174 206.892V172.983" stroke="#424242" stroke-width="0.3742" stroke-miterlimit="10" stroke-linecap="round"/>
<path d="M70.5127 167.175V208.582L68.8736 209.037V170.031C68.8736 170.031 67.5733 168.3 68.0436 166.651L70.5127 167.175Z" stroke="#424242" stroke-width="0.3742" stroke-miterlimit="10" stroke-linecap="round"/>
<path d="M64.3643 167.127C63.894 168.775 65.1942 170.507 65.1942 170.507V208.843L68.8805 209.03" stroke="#424242" stroke-width="0.3742" stroke-miterlimit="10" stroke-linecap="round"/>
<path d="M49.066 169.431V207.947L47.5376 208.368V172.086C47.5376 172.086 46.3203 170.479 46.7561 168.941L49.066 169.431Z" stroke="#424242" stroke-width="0.5533" stroke-miterlimit="10" stroke-linecap="round"/>
<path d="M44.1833 169.472C43.7476 171.011 44.9648 172.618 44.9648 172.618V208.278L47.5376 208.368" stroke="#424242" stroke-width="0.5533" stroke-miterlimit="10" stroke-linecap="round"/>
<path d="M49.066 169.431V207.947L47.5376 208.368V172.086C47.5376 172.086 46.3203 170.479 46.7561 168.941L49.066 169.431Z" stroke="#424242" stroke-width="0.5533" stroke-miterlimit="10" stroke-linecap="round"/>
<path d="M44.1833 169.472C43.7476 171.011 44.9648 172.618 44.9648 172.618V208.278L47.5376 208.368" stroke="#424242" stroke-width="0.5533" stroke-miterlimit="10" stroke-linecap="round"/>
<path d="M30.7177 171.445V207.443L29.4521 207.864V174.018C29.4521 174.018 28.4492 172.659 28.8089 171.121L30.7177 171.445Z" stroke="#424242" stroke-width="0.5024" stroke-miterlimit="10" stroke-linecap="round"/>
<path d="M26.6857 171.403C26.326 172.942 27.3288 174.549 27.3288 174.549V207.775L29.4521 207.864" stroke="#424242" stroke-width="0.5024" stroke-miterlimit="10" stroke-linecap="round"/>
<path d="M16.5327 172.963V206.982L15.3224 207.389V175.48C15.3224 175.48 14.368 174.197 14.7138 172.728L16.5327 172.963Z" stroke="#424242" stroke-width="0.2339" stroke-miterlimit="10"/>
<path d="M12.6805 172.983C12.3347 174.452 13.2961 175.99 13.2961 175.99V207.299L15.3225 207.381" stroke="#424242" stroke-width="0.2339" stroke-miterlimit="10"/>
<path d="M70.5126 205.733L13.2961 204.96" stroke="#424242" stroke-width="0.2339" stroke-miterlimit="10"/>
<path d="M197.346 178.129L98.9308 169.755" stroke="#424242" stroke-width="0.3742" stroke-miterlimit="10" stroke-linecap="round"/>
<path d="M235.35 181.364L214.028 179.55" stroke="#424242" stroke-width="0.3742" stroke-miterlimit="10" stroke-linecap="round"/>
<path d="M197.346 178.977L98.9308 170.866" stroke="#424242" stroke-width="0.3742" stroke-miterlimit="10" stroke-linecap="round"/>
<path d="M235.35 182.116L214.028 180.357" stroke="#424242" stroke-width="0.3742" stroke-miterlimit="10" stroke-linecap="round"/>
<path d="M99.0276 209.14L235.35 204.326V178.046" stroke="#424242" stroke-width="0.3742" stroke-miterlimit="10" stroke-linecap="round"/>
<path d="M129.624 168.03V208.237L131.263 208.678V170.872C131.263 170.872 132.563 169.175 132.093 167.561L129.624 168.03Z" stroke="#424242" stroke-width="0.5866" stroke-miterlimit="10" stroke-linecap="round"/>
<path d="M135.759 167.582C136.229 169.196 134.943 171.348 134.943 171.348V208.506L131.256 208.692" stroke="#424242" stroke-width="0.5866" stroke-miterlimit="10" stroke-linecap="round"/>
<path d="M157.71 170.741V207.168L159.239 207.568V173.383C159.239 173.383 160.428 171.962 159.986 170.5L157.71 170.741Z" stroke="#424242" stroke-width="0.54" stroke-miterlimit="10" stroke-linecap="round"/>
<path d="M162.566 170.652C163.001 172.114 161.819 173.645 161.819 173.645V207.485L159.246 207.568" stroke="#424242" stroke-width="0.54" stroke-miterlimit="10" stroke-linecap="round"/>
<path d="M178.113 172.617V206.492L179.378 206.899V175.08C179.378 175.08 180.381 174.011 180.021 172.548L178.113 172.617Z" stroke="#424242" stroke-width="0.4913" stroke-miterlimit="10" stroke-linecap="round"/>
<path d="M182.138 172.576C182.498 174.045 181.495 175.266 181.495 175.266V206.816L179.371 206.899" stroke="#424242" stroke-width="0.4913" stroke-miterlimit="10" stroke-linecap="round"/>
<path d="M214.028 203.505L235.35 203.043" stroke="#424242" stroke-width="0.2339" stroke-miterlimit="10"/>
<path d="M98.9306 205.995L197.346 203.863" stroke="#424242" stroke-width="0.2339" stroke-miterlimit="10"/>
<path d="M9.58923 78.9754L93.979 21.2906L231.47 112.739V114.553L93.9651 23.9393L9.58923 80.8171V78.9754Z" stroke="#424242" stroke-width="0.7016" stroke-miterlimit="10" stroke-linecap="round" stroke-linejoin="round"/>
<path d="M9.58923 80.8172H12.5009L93.979 27.3676L228.925 114.553H231.47" stroke="#424242" stroke-width="0.3742" stroke-miterlimit="10" stroke-linecap="round"/>
<path d="M93.9789 27.3676V152.435" stroke="#424242" stroke-width="0.7016" stroke-miterlimit="10" stroke-linecap="round"/>
<path d="M12.5007 80.817V164.658" stroke="#424242" stroke-width="0.3742" stroke-miterlimit="10" stroke-linecap="round"/>
<path d="M228.925 114.553V170.983" stroke="#424242" stroke-width="0.3742" stroke-miterlimit="10" stroke-linecap="round"/>
<path d="M28.2278 68.2498V162.361" stroke="#424242" stroke-width="0.3742" stroke-miterlimit="10" stroke-linecap="round"/>
<path d="M30.3372 162.05V66.8289L32.1492 67.9256V161.781" stroke="#424242" stroke-width="0.3742" stroke-miterlimit="10" stroke-linecap="round"/>
<path d="M9.58917 80.8929V165.051" stroke="#424242" stroke-width="0.7016" stroke-miterlimit="10" stroke-linecap="round"/>
<path d="M11.6986 164.768V79.4719L13.5175 80.1479V164.333" stroke="#424242" stroke-width="0.3742" stroke-miterlimit="10" stroke-linecap="round"/>
<path d="M45.2206 56.7375V159.843" stroke="#424242" stroke-width="0.6766" stroke-miterlimit="10" stroke-linecap="round"/>
<path d="M47.9662 159.429V54.9441L50.3246 55.9994V159.077" stroke="#424242" stroke-width="0.6766" stroke-miterlimit="10" stroke-linecap="round"/>
<path d="M66.0449 42.6593V156.484" stroke="#424242" stroke-width="0.6766" stroke-miterlimit="10" stroke-linecap="round"/>
<path d="M68.7905 156.318V40.8729L71.1489 42.3421V155.96" stroke="#424242" stroke-width="0.6766" stroke-miterlimit="10" stroke-linecap="round"/>
<path d="M181.965 81.8726V164.478" stroke="#424242" stroke-width="0.3742" stroke-miterlimit="10" stroke-linecap="round"/>
<path d="M179.855 164.188V80.4514L178.043 81.7344V163.968" stroke="#424242" stroke-width="0.3742" stroke-miterlimit="10" stroke-linecap="round"/>
<path d="M200.604 94.0811V167.051" stroke="#424242" stroke-width="0.3742" stroke-miterlimit="10" stroke-linecap="round"/>
<path d="M198.494 166.761V92.7982L196.675 93.6604V166.513" stroke="#424242" stroke-width="0.3742" stroke-miterlimit="10" stroke-linecap="round"/>
<path d="M214.028 102.841V168.907" stroke="#424242" stroke-width="0.3742" stroke-miterlimit="10" stroke-linecap="round"/>
<path d="M211.918 168.617V101.552L210.099 102.414V168.362" stroke="#424242" stroke-width="0.3742" stroke-miterlimit="10" stroke-linecap="round"/>
<path d="M231.47 114.354V171.342" stroke="#424242" stroke-width="0.7016" stroke-miterlimit="10" stroke-linecap="round"/>
<path d="M229.361 171.017V113.064L227.542 113.926V170.866" stroke="#424242" stroke-width="0.3742" stroke-miterlimit="10" stroke-linecap="round"/>
<path d="M161.051 68.1255V161.595" stroke="#424242" stroke-width="0.6766" stroke-miterlimit="10" stroke-linecap="round"/>
<path d="M158.305 161.237V66.3323L155.94 67.3876V160.912" stroke="#424242" stroke-width="0.6766" stroke-miterlimit="10" stroke-linecap="round"/>
<path d="M134.735 50.7847V157.994" stroke="#424242" stroke-width="0.6766" stroke-miterlimit="10" stroke-linecap="round"/>
<path d="M131.989 157.588V48.9984L129.624 50.4676V157.284" stroke="#424242" stroke-width="0.6766" stroke-miterlimit="10" stroke-linecap="round"/>
<path d="M223.745 176.949V204.816L224.955 205.223V179.598C224.955 179.598 225.91 178.57 225.564 177.101L223.745 176.949Z" stroke="#424242" stroke-width="0.2339" stroke-miterlimit="10"/>
<path d="M227.59 177.253C227.984 178.839 226.975 179.75 226.975 179.75V205.133L224.948 205.216" stroke="#424242" stroke-width="0.2339" stroke-miterlimit="10"/>
<path d="M27.3288 183.495L16.5328 184.04" stroke="#424242" stroke-width="0.2339" stroke-miterlimit="10"/>
<path d="M27.3288 199.822L16.5328 199.546" stroke="#424242" stroke-width="0.2339" stroke-miterlimit="10"/>
<path d="M27.3288 200.704H16.5328" stroke="#424242" stroke-width="0.2339" stroke-miterlimit="10"/>
<path d="M17.7708 184.04V199.58" stroke="#424242" stroke-width="0.2339" stroke-miterlimit="10"/>
<path d="M30.7177 199.684L44.9579 199.58" stroke="#424242" stroke-width="0.2339" stroke-miterlimit="10"/>
<path d="M30.7177 200.498L44.9579 200.456" stroke="#424242" stroke-width="0.2339" stroke-miterlimit="10"/>
<path d="M30.7177 183.226L44.9579 182.681" stroke="#424242" stroke-width="0.2339" stroke-miterlimit="10"/>
<path d="M32.3222 183.164L32.3706 199.67" stroke="#424242" stroke-width="0.2339" stroke-miterlimit="10"/>
<path d="M49.066 182.543L65.381 182.115" stroke="#424242" stroke-width="0.2339" stroke-miterlimit="10"/>
<path d="M49.066 199.415L64.966 199.318" stroke="#424242" stroke-width="0.2339" stroke-miterlimit="10"/>
<path d="M49.066 200.27L65.1942 200.229" stroke="#424242" stroke-width="0.2339" stroke-miterlimit="10"/>
<path d="M50.6429 182.502V199.187" stroke="#424242" stroke-width="0.2339" stroke-miterlimit="10"/>
<path d="M70.5127 181.64L89.518 181.364" stroke="#424242" stroke-width="0.2339" stroke-miterlimit="10"/>
<path d="M79.1577 181.516V208.83" stroke="#424242" stroke-width="0.2339" stroke-miterlimit="10"/>
<path d="M71.882 182.95H77.8367V201.36H72.2001L71.882 182.95Z" stroke="#424242" stroke-width="0.2339" stroke-miterlimit="10"/>
<path d="M80.2436 182.95V201.36H88.204V182.771L80.2436 182.95Z" stroke="#424242" stroke-width="0.2339" stroke-miterlimit="10"/>
<path d="M129.624 202.401L98.9308 203.043" stroke="#424242" stroke-width="0.2339" stroke-miterlimit="10"/>
<path d="M99.0276 201.36L129.624 200.911" stroke="#424242" stroke-width="0.2339" stroke-miterlimit="10"/>
<path d="M99.0276 180.867L129.624 181.364" stroke="#424242" stroke-width="0.2339" stroke-miterlimit="10"/>
<path d="M128.303 181.115V200.925" stroke="#424242" stroke-width="0.2339" stroke-miterlimit="10"/>
<path d="M134.943 181.364L157.496 182.115" stroke="#424242" stroke-width="0.2339" stroke-miterlimit="10"/>
<path d="M134.943 200.684L157.71 200.546" stroke="#424242" stroke-width="0.2339" stroke-miterlimit="10"/>
<path d="M134.943 201.953L157.71 201.815" stroke="#424242" stroke-width="0.2339" stroke-miterlimit="10"/>
<path d="M156.265 182.115V200.553" stroke="#424242" stroke-width="0.2339" stroke-miterlimit="10"/>
<path d="M161.818 200.553H178.113" stroke="#424242" stroke-width="0.2339" stroke-miterlimit="10"/>
<path d="M161.818 201.953L178.113 201.767" stroke="#424242" stroke-width="0.2339" stroke-miterlimit="10"/>
<path d="M161.818 182.115L178.113 182.543" stroke="#424242" stroke-width="0.2339" stroke-miterlimit="10"/>
<path d="M177.089 182.516V200.553" stroke="#424242" stroke-width="0.2339" stroke-miterlimit="10"/>
<path d="M197.346 174.425V205.671" stroke="#424242" stroke-width="0.3742" stroke-miterlimit="10" stroke-linecap="round"/>
<path d="M214.028 175.88V205.078" stroke="#424242" stroke-width="0.3742" stroke-miterlimit="10" stroke-linecap="round"/>
<path d="M200.244 205.567V177.749L211.566 178.598V205.078" stroke="#424242" stroke-width="0.2339" stroke-miterlimit="10"/>
<path d="M181.495 200.553H197.346" stroke="#424242" stroke-width="0.2339" stroke-miterlimit="10"/>
<path d="M181.495 201.767L197.346 201.588" stroke="#424242" stroke-width="0.2339" stroke-miterlimit="10"/>
<path d="M181.495 182.516L197.346 183.316" stroke="#424242" stroke-width="0.2339" stroke-miterlimit="10"/>
<path d="M196.233 183.26V200.553" stroke="#424242" stroke-width="0.2339" stroke-miterlimit="10"/>
<path d="M214.028 184.109L223.745 184.585" stroke="#424242" stroke-width="0.2339" stroke-miterlimit="10"/>
<path d="M214.028 200.022H223.745" stroke="#424242" stroke-width="0.2339" stroke-miterlimit="10"/>
<path d="M214.028 200.808L223.745 200.704" stroke="#424242" stroke-width="0.2339" stroke-miterlimit="10"/>
<path d="M222.756 184.537V199.856" stroke="#424242" stroke-width="0.2339" stroke-miterlimit="10"/>
<path d="M24.3549 83.2659V96.868" stroke="#424242" stroke-width="0.3742" stroke-miterlimit="10" stroke-linecap="round"/>
<path d="M24.3549 102.965V116.567" stroke="#424242" stroke-width="0.3742" stroke-miterlimit="10" stroke-linecap="round"/>
<path d="M24.3549 124.334V137.943" stroke="#424242" stroke-width="0.3742" stroke-miterlimit="10" stroke-linecap="round"/>
<path d="M24.3549 144.144V157.753" stroke="#424242" stroke-width="0.3742" stroke-miterlimit="10" stroke-linecap="round"/>
<path d="M210.162 205.215V178.487" stroke="#424242" stroke-width="0.2339" stroke-miterlimit="10"/>
<path d="M101.497 173.645L101.185 178.977L126.823 179.411V174.721L101.497 173.645Z" stroke="#424242" stroke-width="0.2339" stroke-miterlimit="10"/>
<path d="M87.3395 173.645V178.984C87.3395 178.984 72.5392 179.625 72.7467 179.418C72.9541 179.211 72.6083 175.128 72.7467 174.928C72.8781 174.721 87.3395 173.645 87.3395 173.645Z" stroke="#424242" stroke-width="0.2339" stroke-miterlimit="10"/>
<path d="M63.0572 180.432L51.0578 181.115V176.08L63.0572 174.404V180.432Z" stroke="#424242" stroke-width="0.2339" stroke-miterlimit="10"/>
<path d="M43.0075 181.115L32.3429 181.516L32.1493 177.17L43.0075 176.529V181.115Z" stroke="#424242" stroke-width="0.2339" stroke-miterlimit="10"/>
<path d="M25.7935 182.502L17.7708 182.771L17.6118 178.598L25.7935 177.756V182.502Z" stroke="#424242" stroke-width="0.2339" stroke-miterlimit="10"/>
<path d="M136.443 179.453L155.94 180.363V177.17L136.443 175.604V179.453Z" stroke="#424242" stroke-width="0.2339" stroke-miterlimit="10"/>
<path d="M163.859 180.453L176.543 181.115V178.487L163.859 177.749V180.453Z" stroke="#424242" stroke-width="0.2339" stroke-miterlimit="10"/>
<path d="M182.885 181.364L195.638 182.115V179.957L182.885 178.977V181.364Z" stroke="#424242" stroke-width="0.2339" stroke-miterlimit="10"/>
<path d="M215.148 183.26L222.445 183.702V182.115L215.148 181.736V183.26Z" stroke="#424242" stroke-width="0.2339" stroke-miterlimit="10"/>
<path d="M187.947 83.7898V77.1129L182.546 72.0087V80.1961" stroke="#424242" stroke-width="0.3742" stroke-miterlimit="10" stroke-linecap="round"/>
<path d="M182.546 72.0087L177.089 76.2369" stroke="#424242" stroke-width="0.3742" stroke-miterlimit="10" stroke-linecap="round"/>
<path d="M28.2278 80.8928L23.3658 83.8726V97.385L28.2278 95.0674" stroke="#424242" stroke-width="0.2339" stroke-miterlimit="10" stroke-linecap="round"/>
<path d="M20.3228 98.7924V85.3696L14.9075 88.177V101.241L20.3228 98.7924Z" stroke="#424242" stroke-width="0.2339" stroke-miterlimit="10" stroke-linecap="round"/>
<path d="M15.8619 87.6803V100.841" stroke="#424242" stroke-width="0.2339" stroke-miterlimit="10" stroke-linecap="round"/>
<path d="M45.2208 70.926L40.2827 74.0506V88.7426L45.2208 86.2249" stroke="#424242" stroke-width="0.2339" stroke-miterlimit="10" stroke-linecap="round"/>
<path d="M39.1208 74.6643V89.2873L34.0029 91.5773V77.7958L39.1208 74.6643Z" stroke="#424242" stroke-width="0.2339" stroke-miterlimit="10" stroke-linecap="round"/>
<path d="M34.8051 77.306V91.2116" stroke="#424242" stroke-width="0.2339" stroke-miterlimit="10" stroke-linecap="round"/>
<path d="M41.2301 73.4504L41.2162 88.2665" stroke="#424242" stroke-width="0.2339" stroke-miterlimit="10" stroke-linecap="round"/>
<path d="M57.3999 63.7802L51.0579 67.6842V83.1211L57.7388 79.4722L57.3999 63.7802Z" stroke="#424242" stroke-width="0.2339" stroke-miterlimit="10" stroke-linecap="round"/>
<path d="M66.045 75.2783L59.0322 78.8168V62.7591L66.045 58.4067" stroke="#424242" stroke-width="0.2339" stroke-miterlimit="10" stroke-linecap="round"/>
<path d="M51.8325 67.2083V82.5968" stroke="#424242" stroke-width="0.2339" stroke-miterlimit="10" stroke-linecap="round"/>
<path d="M59.9105 62.2213V78.3135" stroke="#424242" stroke-width="0.2339" stroke-miterlimit="10" stroke-linecap="round"/>
<path d="M72.7464 54.3922V71.7397L79.1507 68.2495V50.3157L72.7464 54.3922Z" stroke="#424242" stroke-width="0.2339" stroke-miterlimit="10" stroke-linecap="round"/>
<path d="M88.9714 62.6486L81.1286 67.1113V48.9568L88.9714 43.6456V62.6486Z" stroke="#424242" stroke-width="0.2339" stroke-miterlimit="10" stroke-linecap="round"/>
<path d="M73.521 53.9025V71.4431" stroke="#424242" stroke-width="0.2339" stroke-miterlimit="10" stroke-linecap="round"/>
<path d="M81.8134 48.4878V66.6354" stroke="#424242" stroke-width="0.2339" stroke-miterlimit="10" stroke-linecap="round"/>
<path d="M28.2278 101.055L23.3658 103.448V116.967L28.2278 115.229" stroke="#424242" stroke-width="0.2339" stroke-miterlimit="10" stroke-linecap="round"/>
<path d="M20.3228 118.009V104.586L14.9075 106.752V119.809L20.3228 118.009Z" stroke="#424242" stroke-width="0.2339" stroke-miterlimit="10" stroke-linecap="round"/>
<path d="M15.8619 106.366V119.526" stroke="#424242" stroke-width="0.2339" stroke-miterlimit="10" stroke-linecap="round"/>
<path d="M45.2208 93.1084L40.2827 95.6536V110.346L45.2208 108.414" stroke="#424242" stroke-width="0.2339" stroke-miterlimit="10" stroke-linecap="round"/>
<path d="M39.1208 96.1229V110.746L34.0029 112.422V98.6406L39.1208 96.1229Z" stroke="#424242" stroke-width="0.2339" stroke-miterlimit="10" stroke-linecap="round"/>
<path d="M34.8051 98.2474V112.16" stroke="#424242" stroke-width="0.2339" stroke-miterlimit="10" stroke-linecap="round"/>
<path d="M41.2301 95.1641L41.2162 109.98" stroke="#424242" stroke-width="0.2339" stroke-miterlimit="10" stroke-linecap="round"/>
<path d="M57.3999 87.4182L51.0579 90.5635V106L57.7388 103.152L57.3999 87.4182Z" stroke="#424242" stroke-width="0.2339" stroke-miterlimit="10" stroke-linecap="round"/>
<path d="M66.045 99.9443L59.0322 102.648V86.5974L66.045 83.0796" stroke="#424242" stroke-width="0.2339" stroke-miterlimit="10" stroke-linecap="round"/>
<path d="M51.8325 90.1771V105.573" stroke="#424242" stroke-width="0.2339" stroke-miterlimit="10" stroke-linecap="round"/>
<path d="M59.9105 86.1556V102.255" stroke="#424242" stroke-width="0.2339" stroke-miterlimit="10" stroke-linecap="round"/>
<path d="M72.7464 79.8652V97.2058L79.1507 94.4882V76.5475L72.7464 79.8652Z" stroke="#424242" stroke-width="0.2339" stroke-miterlimit="10" stroke-linecap="round"/>
<path d="M88.9714 90.0531L81.1286 93.5847V75.4233L88.9714 71.0502V90.0531Z" stroke="#424242" stroke-width="0.2339" stroke-miterlimit="10" stroke-linecap="round"/>
<path d="M73.521 79.465V97.0056" stroke="#424242" stroke-width="0.2339" stroke-miterlimit="10" stroke-linecap="round"/>
<path d="M81.8134 75.0436V93.1843" stroke="#424242" stroke-width="0.2339" stroke-miterlimit="10" stroke-linecap="round"/>
<path d="M28.2278 123.03L23.3658 124.672V138.184L28.2278 137.205" stroke="#424242" stroke-width="0.2339" stroke-miterlimit="10" stroke-linecap="round"/>
<path d="M20.3228 138.75V125.327L14.9075 126.652V139.709L20.3228 138.75Z" stroke="#424242" stroke-width="0.2339" stroke-miterlimit="10" stroke-linecap="round"/>
<path d="M15.8619 126.417V139.571" stroke="#424242" stroke-width="0.2339" stroke-miterlimit="10" stroke-linecap="round"/>
<path d="M45.2208 117.74L40.2827 119.506V134.198L45.2208 133.039" stroke="#424242" stroke-width="0.2339" stroke-miterlimit="10" stroke-linecap="round"/>
<path d="M39.1208 119.802V134.425L34.0029 135.301V121.52L39.1208 119.802Z" stroke="#424242" stroke-width="0.2339" stroke-miterlimit="10" stroke-linecap="round"/>
<path d="M34.8051 121.251V135.157" stroke="#424242" stroke-width="0.2339" stroke-miterlimit="10" stroke-linecap="round"/>
<path d="M41.2301 119.168L41.2162 133.977" stroke="#424242" stroke-width="0.2339" stroke-miterlimit="10" stroke-linecap="round"/>
<path d="M57.3999 113.946L51.0579 116.098V131.542L57.7388 129.735L57.3999 113.946Z" stroke="#424242" stroke-width="0.2339" stroke-miterlimit="10" stroke-linecap="round"/>
<path d="M66.045 127.824L59.0322 129.431V113.374L66.045 110.953" stroke="#424242" stroke-width="0.2339" stroke-miterlimit="10" stroke-linecap="round"/>
<path d="M51.8325 115.836V131.232" stroke="#424242" stroke-width="0.2339" stroke-miterlimit="10" stroke-linecap="round"/>
<path d="M59.9105 113.077V129.169" stroke="#424242" stroke-width="0.2339" stroke-miterlimit="10" stroke-linecap="round"/>
<path d="M72.7464 108.78V126.128L79.1507 124.403V106.469L72.7464 108.78Z" stroke="#424242" stroke-width="0.2339" stroke-miterlimit="10" stroke-linecap="round"/>
<path d="M88.9714 121.506L81.1286 123.81V105.648L88.9714 102.503V121.506Z" stroke="#424242" stroke-width="0.2339" stroke-miterlimit="10" stroke-linecap="round"/>
<path d="M73.521 108.504V126.045" stroke="#424242" stroke-width="0.2339" stroke-miterlimit="10" stroke-linecap="round"/>
<path d="M81.8134 105.372V123.52" stroke="#424242" stroke-width="0.2339" stroke-miterlimit="10" stroke-linecap="round"/>
<path d="M28.2278 142.923L23.3658 144.461V157.974L28.2278 157.098" stroke="#424242" stroke-width="0.2339" stroke-miterlimit="10" stroke-linecap="round"/>
<path d="M20.3228 158.477V145.055L14.9075 146.269V159.333L20.3228 158.477Z" stroke="#424242" stroke-width="0.2339" stroke-miterlimit="10" stroke-linecap="round"/>
<path d="M15.8619 146.055V159.215" stroke="#424242" stroke-width="0.2339" stroke-miterlimit="10" stroke-linecap="round"/>
<path d="M45.2208 139.606L40.2827 141.123V155.815L45.2208 154.911" stroke="#424242" stroke-width="0.2339" stroke-miterlimit="10" stroke-linecap="round"/>
<path d="M39.1208 141.351V155.98L34.0029 156.587V142.806L39.1208 141.351Z" stroke="#424242" stroke-width="0.2339" stroke-miterlimit="10" stroke-linecap="round"/>
<path d="M34.8051 142.579V156.484" stroke="#424242" stroke-width="0.2339" stroke-miterlimit="10" stroke-linecap="round"/>
<path d="M41.2301 140.827L41.2162 155.643" stroke="#424242" stroke-width="0.2339" stroke-miterlimit="10" stroke-linecap="round"/>
<path d="M57.3999 137.322L51.0579 138.84V154.277L57.7388 153.146L57.3999 137.322Z" stroke="#424242" stroke-width="0.2339" stroke-miterlimit="10" stroke-linecap="round"/>
<path d="M66.045 152.069L59.0322 152.973V136.922L66.045 135.205" stroke="#424242" stroke-width="0.2339" stroke-miterlimit="10" stroke-linecap="round"/>
<path d="M51.8325 138.654V154.042" stroke="#424242" stroke-width="0.2339" stroke-miterlimit="10" stroke-linecap="round"/>
<path d="M59.9105 136.708V152.8" stroke="#424242" stroke-width="0.2339" stroke-miterlimit="10" stroke-linecap="round"/>
<path d="M72.7464 133.715V151.055L79.1507 149.979V132.046L72.7464 133.715Z" stroke="#424242" stroke-width="0.2339" stroke-miterlimit="10" stroke-linecap="round"/>
<path d="M88.9714 148.076L81.1286 149.586V131.425L88.9714 129.073V148.076Z" stroke="#424242" stroke-width="0.2339" stroke-miterlimit="10" stroke-linecap="round"/>
<path d="M73.521 133.508V151.055" stroke="#424242" stroke-width="0.2339" stroke-miterlimit="10" stroke-linecap="round"/>
<path d="M81.8134 131.225V149.366" stroke="#424242" stroke-width="0.2339" stroke-miterlimit="10" stroke-linecap="round"/>
<path d="M145.773 68.7051L154.135 74.2094L154.252 88.853L145.448 83.804L145.773 68.7051Z" stroke="#424242" stroke-width="0.2339" stroke-miterlimit="10" stroke-linecap="round"/>
<path d="M134.507 77.5754L143.74 82.8452L143.615 67.2428L134.735 61.1729" stroke="#424242" stroke-width="0.2339" stroke-miterlimit="10" stroke-linecap="round"/>
<path d="M153.111 73.5471L153.229 88.1839" stroke="#424242" stroke-width="0.2339" stroke-miterlimit="10" stroke-linecap="round"/>
<path d="M142.46 66.4563L142.592 82.1415" stroke="#424242" stroke-width="0.2339" stroke-miterlimit="10" stroke-linecap="round"/>
<path d="M145.96 91.5704L154.308 95.9159L154.432 110.56L145.635 106.731L145.96 91.5704Z" stroke="#424242" stroke-width="0.2339" stroke-miterlimit="10" stroke-linecap="round"/>
<path d="M134.708 102.069L143.934 106.014L143.802 90.4117L134.576 85.3213" stroke="#424242" stroke-width="0.2339" stroke-miterlimit="10" stroke-linecap="round"/>
<path d="M153.291 95.3918L153.408 110.035" stroke="#424242" stroke-width="0.2339" stroke-miterlimit="10" stroke-linecap="round"/>
<path d="M142.654 89.7839L142.779 105.476" stroke="#424242" stroke-width="0.2339" stroke-miterlimit="10" stroke-linecap="round"/>
<path d="M146.167 117.229L154.508 120.147L154.633 134.791L145.849 132.466L146.167 117.229Z" stroke="#424242" stroke-width="0.2339" stroke-miterlimit="10" stroke-linecap="round"/>
<path d="M134.936 129.742L144.148 132.046L144.016 116.443L134.797 112.995" stroke="#424242" stroke-width="0.2339" stroke-miterlimit="10" stroke-linecap="round"/>
<path d="M153.491 119.796L153.609 134.432" stroke="#424242" stroke-width="0.2339" stroke-miterlimit="10" stroke-linecap="round"/>
<path d="M142.868 116.022L143 131.708" stroke="#424242" stroke-width="0.2339" stroke-miterlimit="10" stroke-linecap="round"/>
<path d="M181.971 90.6531L186.736 93.8467V105.938L181.971 103.386" stroke="#424242" stroke-width="0.2339" stroke-miterlimit="10" stroke-linecap="round"/>
<path d="M189.725 107.49V95.509L195.036 98.5785V110.187L189.725 107.49Z" stroke="#424242" stroke-width="0.2339" stroke-miterlimit="10" stroke-linecap="round"/>
<path d="M194.102 98.0402L194.095 109.739" stroke="#424242" stroke-width="0.2339" stroke-miterlimit="10" stroke-linecap="round"/>
<path d="M185.769 93.1981V105.386" stroke="#424242" stroke-width="0.2339" stroke-miterlimit="10" stroke-linecap="round"/>
<path d="M181.965 108.766L186.737 111.374V123.465L181.965 121.506" stroke="#424242" stroke-width="0.2339" stroke-miterlimit="10" stroke-linecap="round"/>
<path d="M189.725 124.652V112.663L195.036 115.085V126.686L189.725 124.652Z" stroke="#424242" stroke-width="0.2339" stroke-miterlimit="10" stroke-linecap="round"/>
<path d="M194.095 114.657V126.355" stroke="#424242" stroke-width="0.2339" stroke-miterlimit="10" stroke-linecap="round"/>
<path d="M185.769 110.843L185.762 123.031" stroke="#424242" stroke-width="0.2339" stroke-miterlimit="10" stroke-linecap="round"/>
<path d="M181.965 128.514L186.737 130.363V142.461L181.965 141.254" stroke="#424242" stroke-width="0.2339" stroke-miterlimit="10" stroke-linecap="round"/>
<path d="M189.725 143.164V131.183L195.036 132.763V144.364L189.725 143.164Z" stroke="#424242" stroke-width="0.2339" stroke-miterlimit="10" stroke-linecap="round"/>
<path d="M194.095 132.487V144.186" stroke="#424242" stroke-width="0.2339" stroke-miterlimit="10" stroke-linecap="round"/>
<path d="M185.762 129.99V142.178" stroke="#424242" stroke-width="0.2339" stroke-miterlimit="10" stroke-linecap="round"/>
<path d="M181.965 146.386L186.737 148.076V160.174L181.965 159.126" stroke="#424242" stroke-width="0.2339" stroke-miterlimit="10" stroke-linecap="round"/>
<path d="M189.725 160.781V148.8L195.036 150.193V161.795L189.725 160.781Z" stroke="#424242" stroke-width="0.2339" stroke-miterlimit="10" stroke-linecap="round"/>
<path d="M194.095 149.952V161.65" stroke="#424242" stroke-width="0.2339" stroke-miterlimit="10" stroke-linecap="round"/>
<path d="M185.762 147.738V159.919" stroke="#424242" stroke-width="0.2339" stroke-miterlimit="10" stroke-linecap="round"/>
<path d="M200.604 102.662L203.723 104.717V115.464L200.604 113.877" stroke="#424242" stroke-width="0.2339" stroke-miterlimit="10" stroke-linecap="round"/>
<path d="M205.673 116.457V105.766L209.145 107.821V118.257L205.673 116.457Z" stroke="#424242" stroke-width="0.2339" stroke-miterlimit="10" stroke-linecap="round"/>
<path d="M208.529 107.449V117.961" stroke="#424242" stroke-width="0.2339" stroke-miterlimit="10" stroke-linecap="round"/>
<path d="M203.087 104.29V115.098" stroke="#424242" stroke-width="0.2339" stroke-miterlimit="10" stroke-linecap="round"/>
<path d="M200.604 118.609L203.723 120.285V131.025L200.604 129.825" stroke="#424242" stroke-width="0.2339" stroke-miterlimit="10" stroke-linecap="round"/>
<path d="M205.673 131.77V121.078L209.145 122.665V133.101L205.673 131.77Z" stroke="#424242" stroke-width="0.2339" stroke-miterlimit="10" stroke-linecap="round"/>
<path d="M208.529 122.382V132.887" stroke="#424242" stroke-width="0.2339" stroke-miterlimit="10" stroke-linecap="round"/>
<path d="M203.087 119.94V130.742" stroke="#424242" stroke-width="0.2339" stroke-miterlimit="10" stroke-linecap="round"/>
<path d="M200.604 135.998L203.723 137.15V147.896L200.604 147.214" stroke="#424242" stroke-width="0.2339" stroke-miterlimit="10" stroke-linecap="round"/>
<path d="M205.673 148.303V137.605L209.145 138.571V149.007L205.673 148.303Z" stroke="#424242" stroke-width="0.2339" stroke-miterlimit="10" stroke-linecap="round"/>
<path d="M208.529 138.398V148.903" stroke="#424242" stroke-width="0.2339" stroke-miterlimit="10" stroke-linecap="round"/>
<path d="M203.087 136.915V147.717" stroke="#424242" stroke-width="0.2339" stroke-miterlimit="10" stroke-linecap="round"/>
<path d="M200.604 151.731L203.723 152.883L203.716 163.623L200.604 162.947" stroke="#424242" stroke-width="0.2339" stroke-miterlimit="10" stroke-linecap="round"/>
<path d="M205.673 164.023V153.325L209.145 154.249V164.685L205.673 164.023Z" stroke="#424242" stroke-width="0.2339" stroke-miterlimit="10" stroke-linecap="round"/>
<path d="M208.529 154.083V164.595" stroke="#424242" stroke-width="0.2339" stroke-miterlimit="10" stroke-linecap="round"/>
<path d="M203.087 152.649V163.451" stroke="#424242" stroke-width="0.2339" stroke-miterlimit="10" stroke-linecap="round"/>
<path d="M214.076 109.063L218.544 112.325V122.182L214.076 119.554" stroke="#424242" stroke-width="0.2339" stroke-miterlimit="10" stroke-linecap="round"/>
<path d="M221.345 123.755V114.064L226.318 117.181V126.452L221.345 123.755Z" stroke="#424242" stroke-width="0.2339" stroke-miterlimit="10" stroke-linecap="round"/>
<path d="M225.439 116.636V126.003" stroke="#424242" stroke-width="0.2339" stroke-miterlimit="10" stroke-linecap="round"/>
<path d="M217.631 111.67V121.623" stroke="#424242" stroke-width="0.2339" stroke-miterlimit="10" stroke-linecap="round"/>
<path d="M214.076 123.989L218.544 126.603V136.46L214.076 134.48" stroke="#424242" stroke-width="0.2339" stroke-miterlimit="10" stroke-linecap="round"/>
<path d="M221.345 137.633V127.941L226.318 130.362V139.633L221.345 137.633Z" stroke="#424242" stroke-width="0.2339" stroke-miterlimit="10" stroke-linecap="round"/>
<path d="M225.439 129.942V139.309" stroke="#424242" stroke-width="0.2339" stroke-miterlimit="10" stroke-linecap="round"/>
<path d="M217.631 126.079V136.025" stroke="#424242" stroke-width="0.2339" stroke-miterlimit="10" stroke-linecap="round"/>
<path d="M214.076 140.261L218.544 142.075V151.931L214.076 150.752" stroke="#424242" stroke-width="0.2339" stroke-miterlimit="10" stroke-linecap="round"/>
<path d="M221.338 152.614L221.345 142.923L226.318 144.489V153.759L221.338 152.614Z" stroke="#424242" stroke-width="0.2339" stroke-miterlimit="10" stroke-linecap="round"/>
<path d="M225.439 144.213V153.58" stroke="#424242" stroke-width="0.2339" stroke-miterlimit="10" stroke-linecap="round"/>
<path d="M217.631 141.709V151.663" stroke="#424242" stroke-width="0.2339" stroke-miterlimit="10" stroke-linecap="round"/>
<path d="M214.076 154.987L218.544 156.504L218.537 166.361L214.076 165.478" stroke="#424242" stroke-width="0.2339" stroke-miterlimit="10" stroke-linecap="round"/>
<path d="M221.338 166.858V157.167L226.318 158.415V167.685L221.338 166.858Z" stroke="#424242" stroke-width="0.2339" stroke-miterlimit="10" stroke-linecap="round"/>
<path d="M225.439 158.195L225.432 167.562" stroke="#424242" stroke-width="0.2339" stroke-miterlimit="10" stroke-linecap="round"/>
<path d="M217.631 156.201V166.154" stroke="#424242" stroke-width="0.2339" stroke-miterlimit="10" stroke-linecap="round"/>
<path d="M160.843 79.472L167.981 83.9693L168.029 97.2817L160.892 93.557" stroke="#424242" stroke-width="0.2339" stroke-miterlimit="10" stroke-linecap="round"/>
<path d="M169.654 84.8937L169.703 98.1026L177.089 101.551L177.047 89.3013L169.654 84.8937Z" stroke="#424242" stroke-width="0.2339" stroke-miterlimit="10" stroke-linecap="round"/>
<path d="M175.892 88.6183L175.941 101.013" stroke="#424242" stroke-width="0.2339" stroke-miterlimit="10" stroke-linecap="round"/>
<path d="M166.604 83.1141L166.68 96.5852" stroke="#424242" stroke-width="0.2339" stroke-miterlimit="10" stroke-linecap="round"/>
<path d="M160.919 99.896L168.05 103.545L168.098 116.864L160.968 113.981" stroke="#424242" stroke-width="0.2339" stroke-miterlimit="10" stroke-linecap="round"/>
<path d="M169.723 104.276L169.772 117.485L177.158 120.079L177.11 107.835L169.723 104.276Z" stroke="#424242" stroke-width="0.2339" stroke-miterlimit="10" stroke-linecap="round"/>
<path d="M175.962 107.283L176.003 119.678" stroke="#424242" stroke-width="0.2339" stroke-miterlimit="10" stroke-linecap="round"/>
<path d="M166.68 102.848L166.749 116.319" stroke="#424242" stroke-width="0.2339" stroke-miterlimit="10" stroke-linecap="round"/>
<path d="M160.995 122.562L168.126 125.169L168.174 138.488L161.051 136.646" stroke="#424242" stroke-width="0.2339" stroke-miterlimit="10" stroke-linecap="round"/>
<path d="M169.799 125.659L169.848 138.868L177.227 140.419L177.186 128.169L169.799 125.659Z" stroke="#424242" stroke-width="0.2339" stroke-miterlimit="10" stroke-linecap="round"/>
<path d="M176.031 127.783L176.079 140.171" stroke="#424242" stroke-width="0.2339" stroke-miterlimit="10" stroke-linecap="round"/>
<path d="M166.756 124.672L166.826 138.143" stroke="#424242" stroke-width="0.2339" stroke-miterlimit="10" stroke-linecap="round"/>
<path d="M161.072 142.689L168.195 144.758L168.243 158.077L161.12 156.774" stroke="#424242" stroke-width="0.2339" stroke-miterlimit="10" stroke-linecap="round"/>
<path d="M169.869 145.124L169.917 158.332L177.297 159.34L177.255 147.089L169.869 145.124Z" stroke="#424242" stroke-width="0.2339" stroke-miterlimit="10" stroke-linecap="round"/>
<path d="M176.1 146.786L176.149 159.181" stroke="#424242" stroke-width="0.2339" stroke-miterlimit="10" stroke-linecap="round"/>
<path d="M166.826 144.365L166.895 157.836" stroke="#424242" stroke-width="0.2339" stroke-miterlimit="10" stroke-linecap="round"/>
<path d="M146.354 139.84L154.688 141.716L154.806 156.36L146.036 155.139L146.354 139.84Z" stroke="#424242" stroke-width="0.2339" stroke-miterlimit="10" stroke-linecap="round"/>
<path d="M135.136 153.821L144.335 154.932L144.203 139.329L134.998 137.074" stroke="#424242" stroke-width="0.2339" stroke-miterlimit="10" stroke-linecap="round"/>
<path d="M153.664 141.488L153.789 156.132" stroke="#424242" stroke-width="0.2339" stroke-miterlimit="10" stroke-linecap="round"/>
<path d="M143.055 139.054L143.187 154.746" stroke="#424242" stroke-width="0.2339" stroke-miterlimit="10" stroke-linecap="round"/>
<path d="M127.93 59.5035L127.971 76.2371L117.459 70.8156L117.417 53.1783L127.93 59.5035Z" stroke="#424242" stroke-width="0.2339" stroke-miterlimit="10" stroke-linecap="round"/>
<path d="M101.358 61.8899L114.215 69.0496L114.181 51.0813L101.317 42.6593L101.358 61.8899Z" stroke="#424242" stroke-width="0.2339" stroke-miterlimit="10" stroke-linecap="round"/>
<path d="M126.657 58.7448L126.699 75.7129" stroke="#424242" stroke-width="0.2339" stroke-miterlimit="10" stroke-linecap="round"/>
<path d="M113.053 50.3641L113.095 68.3462" stroke="#424242" stroke-width="0.2339" stroke-miterlimit="10" stroke-linecap="round"/>
<path d="M127.985 84.0729L128.02 100.807L117.514 96.6128L117.473 78.9756L127.985 84.0729Z" stroke="#424242" stroke-width="0.2339" stroke-miterlimit="10" stroke-linecap="round"/>
<path d="M101.414 89.6323L114.271 95.2263L114.236 77.2649L101.372 70.3949L101.414 89.6323Z" stroke="#424242" stroke-width="0.2339" stroke-miterlimit="10" stroke-linecap="round"/>
<path d="M126.713 83.4658L126.747 100.427" stroke="#424242" stroke-width="0.2339" stroke-miterlimit="10" stroke-linecap="round"/>
<path d="M113.109 76.6785L113.15 94.6605" stroke="#424242" stroke-width="0.2339" stroke-miterlimit="10" stroke-linecap="round"/>
<path d="M128.047 111.974L128.082 128.707L117.576 126.031L117.535 108.394L128.047 111.974Z" stroke="#424242" stroke-width="0.2339" stroke-miterlimit="10" stroke-linecap="round"/>
<path d="M101.483 121.465L114.333 125.127L114.298 107.166L101.441 102.234L101.483 121.465Z" stroke="#424242" stroke-width="0.2339" stroke-miterlimit="10" stroke-linecap="round"/>
<path d="M126.775 111.546L126.809 128.514" stroke="#424242" stroke-width="0.2339" stroke-miterlimit="10" stroke-linecap="round"/>
<path d="M113.178 106.745L113.212 124.727" stroke="#424242" stroke-width="0.2339" stroke-miterlimit="10" stroke-linecap="round"/>
<path d="M128.096 136.019L128.13 152.752L117.632 151.186L117.59 133.542L128.096 136.019Z" stroke="#424242" stroke-width="0.2339" stroke-miterlimit="10" stroke-linecap="round"/>
<path d="M101.538 148.358L114.388 150.621L114.354 132.66L101.497 129.128L101.538 148.358Z" stroke="#424242" stroke-width="0.2339" stroke-miterlimit="10" stroke-linecap="round"/>
<path d="M126.823 135.729L126.858 152.69" stroke="#424242" stroke-width="0.2339" stroke-miterlimit="10" stroke-linecap="round"/>
<path d="M113.233 132.356L113.268 150.345" stroke="#424242" stroke-width="0.2339" stroke-miterlimit="10" stroke-linecap="round"/>
<g opacity="0.5">
<mask id="path-276-inside-1_975_9340" fill="white">
<path d="M4.36804 83.2658L16.6769 72.8435L29.0231 62.4832L53.7282 41.7697L78.5144 21.1803L90.9107 10.8891L103.351 0.659912L91.0418 11.0822L78.6893 21.4355L53.9905 42.156L29.198 62.7384L16.8018 73.0297L4.36804 83.2658Z"/>
</mask>
<path d="M4.36804 83.2658L16.6769 72.8435L29.0231 62.4832L53.7282 41.7697L78.5144 21.1803L90.9107 10.8891L103.351 0.659912L91.0418 11.0822L78.6893 21.4355L53.9905 42.156L29.198 62.7384L16.8018 73.0297L4.36804 83.2658Z" fill="#424242"/>
<path d="M4.36804 83.2658L3.72184 82.5026L5.00362 84.0378L4.36804 83.2658ZM16.6769 72.8435L16.034 72.0774L16.0307 72.0803L16.6769 72.8435ZM29.0231 62.4832L28.3806 61.7169L28.3803 61.7172L29.0231 62.4832ZM53.7282 41.7697L53.0892 41.0005L53.0857 41.0034L53.7282 41.7697ZM78.5144 21.1803L77.8757 20.4109L77.8755 20.4111L78.5144 21.1803ZM90.9107 10.8891L90.2755 10.1167L90.2719 10.1197L90.9107 10.8891ZM103.351 0.659912L103.997 1.42308L102.715 -0.112491L103.351 0.659912ZM91.0418 11.0822L91.6842 11.8486L91.688 11.8454L91.0418 11.0822ZM78.6893 21.4355L78.0469 20.6691L78.0466 20.6694L78.6893 21.4355ZM53.9905 42.156L54.6292 42.9254L54.6332 42.9221L53.9905 42.156ZM29.198 62.7384L28.5592 61.969L29.198 62.7384ZM16.8018 73.0297L17.4373 73.8017L17.4405 73.7991L16.8018 73.0297ZM5.01424 84.0289L17.3231 73.6066L16.0307 72.0803L3.72184 82.5026L5.01424 84.0289ZM17.3197 73.6095L29.6659 63.2493L28.3803 61.7172L16.034 72.0774L17.3197 73.6095ZM29.6656 63.2495L54.3707 42.536L53.0857 41.0034L28.3806 61.7169L29.6656 63.2495ZM54.3672 42.5389L79.1534 21.9495L77.8755 20.4111L53.0892 41.0005L54.3672 42.5389ZM79.1532 21.9497L91.5494 11.6585L90.2719 10.1197L77.8757 20.4109L79.1532 21.9497ZM91.5458 11.6615L103.986 1.43231L102.715 -0.112491L90.2755 10.1167L91.5458 11.6615ZM102.704 -0.103256L90.3956 10.319L91.688 11.8454L103.997 1.42308L102.704 -0.103256ZM90.3995 10.3158L78.0469 20.6691L79.3316 22.2019L91.6842 11.8486L90.3995 10.3158ZM78.0466 20.6694L53.3478 41.3899L54.6332 42.9221L79.332 22.2016L78.0466 20.6694ZM53.3517 41.3866L28.5592 61.969L29.8367 63.5079L54.6292 42.9254L53.3517 41.3866ZM28.5592 61.969L16.163 72.2603L17.4405 73.7991L29.8367 63.5079L28.5592 61.969ZM16.1662 72.2576L3.73246 82.4937L5.00362 84.0378L17.4373 73.8017L16.1662 72.2576Z" fill="#424242" mask="url(#path-276-inside-1_975_9340)"/>
</g>
<g opacity="0.5">
<mask id="path-278-inside-2_975_9340" fill="white">
<path d="M71.62 2.72925L92.2721 17.7936L112.893 32.9132L154.128 63.1593L195.283 93.5433L215.86 108.732L236.399 123.989L215.741 108.932L195.127 93.8054L153.891 63.5593L112.731 33.1822L92.1597 17.9868L71.62 2.72925Z"/>
</mask>
<path d="M71.62 2.72925L92.2721 17.7936L112.893 32.9132L154.128 63.1593L195.283 93.5433L215.86 108.732L236.399 123.989L215.741 108.932L195.127 93.8054L153.891 63.5593L112.731 33.1822L92.1597 17.9868L71.62 2.72925Z" fill="#424242"/>
<path d="M71.62 2.72925L72.2093 1.92134L71.0237 3.532L71.62 2.72925ZM92.2721 17.7936L92.8634 16.9872L92.8614 16.9857L92.2721 17.7936ZM112.893 32.9132L113.484 32.1069L113.484 32.1068L112.893 32.9132ZM154.128 63.1593L154.722 62.3548L154.72 62.3529L154.128 63.1593ZM195.283 93.5433L194.689 94.3478L194.689 94.3478L195.283 93.5433ZM215.86 108.732L216.456 107.929L216.454 107.927L215.86 108.732ZM236.399 123.989L235.81 124.797L236.996 123.187L236.399 123.989ZM215.741 108.932L215.15 109.738L215.152 109.74L215.741 108.932ZM195.127 93.8054L195.718 92.9991L195.718 92.999L195.127 93.8054ZM153.891 63.5593L153.297 64.3639L153.3 64.3657L153.891 63.5593ZM112.731 33.1822L112.136 33.9866L112.137 33.9868L112.731 33.1822ZM92.1597 17.9868L91.5633 18.7895L91.5655 18.7911L92.1597 17.9868ZM71.0307 3.53715L91.6828 18.6015L92.8614 16.9857L72.2093 1.92134L71.0307 3.53715ZM91.6808 18.6001L112.302 33.7197L113.484 32.1068L92.8634 16.9872L91.6808 18.6001ZM112.301 33.7196L153.537 63.9656L154.72 62.3529L113.484 32.1069L112.301 33.7196ZM153.534 63.9638L194.689 94.3478L195.877 92.7388L154.722 62.3548L153.534 63.9638ZM194.689 94.3478L215.266 109.536L216.454 107.927L195.877 92.7387L194.689 94.3478ZM215.263 109.535L235.803 124.792L236.996 123.187L216.456 107.929L215.263 109.535ZM236.988 123.181L216.33 108.124L215.152 109.74L235.81 124.797L236.988 123.181ZM216.333 108.126L195.718 92.9991L194.535 94.6116L215.15 109.738L216.333 108.126ZM195.718 92.999L154.483 62.753L153.3 64.3657L194.535 94.6117L195.718 92.999ZM154.485 62.7547L113.324 32.3776L112.137 33.9868L153.297 64.3639L154.485 62.7547ZM113.325 32.3779L92.7538 17.1824L91.5655 18.7911L112.136 33.9866L113.325 32.3779ZM92.756 17.184L72.2163 1.92649L71.0237 3.532L91.5633 18.7895L92.756 17.184Z" fill="#424242" mask="url(#path-278-inside-2_975_9340)"/>
</g>
<g opacity="0.5">
<mask id="path-280-inside-3_975_9340" fill="white">
<path d="M11.3437 166.541L38.4593 161.919L65.5812 157.381L119.825 148.29L174.094 139.371L201.228 134.908L228.368 130.521L201.259 135.143L174.137 139.688L119.894 148.772L65.6249 157.698L38.4905 162.154L11.3437 166.541Z"/>
</mask>
<path d="M11.3437 166.541L38.4593 161.919L65.5812 157.381L119.825 148.29L174.094 139.371L201.228 134.908L228.368 130.521L201.259 135.143L174.137 139.688L119.894 148.772L65.6249 157.698L38.4905 162.154L11.3437 166.541Z" fill="#424242"/>
<path d="M11.3437 166.541L11.1757 165.555L11.5032 167.528L11.3437 166.541ZM38.4593 161.919L38.2942 160.933L38.2913 160.934L38.4593 161.919ZM65.5812 157.381L65.7462 158.367L65.7464 158.367L65.5812 157.381ZM119.825 148.29L119.663 147.303L119.66 147.303L119.825 148.29ZM174.094 139.371L174.256 140.358L174.256 140.358L174.094 139.371ZM201.228 134.908L201.068 133.921L201.066 133.922L201.228 134.908ZM228.368 130.521L228.537 131.507L228.209 129.534L228.368 130.521ZM201.259 135.143L201.424 136.129L201.427 136.129L201.259 135.143ZM174.137 139.688L174.302 140.675L174.303 140.675L174.137 139.688ZM119.894 148.772L120.056 149.759L120.059 149.759L119.894 148.772ZM65.6249 157.698L65.7869 158.685L65.7872 158.685L65.6249 157.698ZM38.4905 162.154L38.6501 163.141L38.6526 163.141L38.4905 162.154ZM11.5117 167.526L38.6273 162.905L38.2913 160.934L11.1757 165.555L11.5117 167.526ZM38.6243 162.906L65.7462 158.367L65.4161 156.394L38.2942 160.933L38.6243 162.906ZM65.7464 158.367L119.99 149.276L119.66 147.303L65.4159 156.394L65.7464 158.367ZM119.987 149.276L174.256 140.358L173.931 138.384L119.663 147.303L119.987 149.276ZM174.256 140.358L201.39 135.895L201.066 133.922L173.931 138.384L174.256 140.358ZM201.387 135.895L228.528 131.509L228.209 129.534L201.068 133.921L201.387 135.895ZM228.2 129.536L201.091 134.157L201.427 136.129L228.537 131.507L228.2 129.536ZM201.094 134.157L173.972 138.702L174.303 140.675L201.424 136.129L201.094 134.157ZM173.972 138.702L119.728 147.786L120.059 149.759L174.302 140.675L173.972 138.702ZM119.731 147.786L65.4626 156.711L65.7872 158.685L120.056 149.759L119.731 147.786ZM65.4628 156.711L38.3285 161.167L38.6526 163.141L65.7869 158.685L65.4628 156.711ZM38.331 161.167L11.1842 165.554L11.5032 167.528L38.6501 163.141L38.331 161.167Z" fill="#424242" mask="url(#path-280-inside-3_975_9340)"/>
</g>
<g opacity="0.5">
<mask id="path-282-inside-4_975_9340" fill="white">
<path d="M246.791 203.263L68.9222 224.377L246.741 202.781C246.86 202.767 246.972 202.863 246.985 202.994C246.997 203.125 246.91 203.25 246.791 203.263Z"/>
</mask>
<path d="M246.791 203.263L68.9222 224.377L246.741 202.781C246.86 202.767 246.972 202.863 246.985 202.994C246.997 203.125 246.91 203.25 246.791 203.263Z" fill="#424242"/>
<path d="M246.791 203.263L246.676 202.27L246.673 202.27L246.791 203.263ZM68.9222 224.377L68.8016 223.384L69.0401 225.37L68.9222 224.377ZM246.741 202.781L246.626 201.787L246.621 201.788L246.741 202.781ZM246.673 202.27L68.8043 223.384L69.0401 225.37L246.909 204.256L246.673 202.27ZM69.0427 225.37L246.862 203.773L246.621 201.788L68.8016 223.384L69.0427 225.37ZM246.857 203.774C246.35 203.833 246.023 203.445 245.989 203.089L247.98 202.9C247.921 202.282 247.37 201.701 246.626 201.787L246.857 203.774ZM245.989 203.089C245.972 202.908 246.022 202.733 246.124 202.591C246.225 202.449 246.411 202.301 246.676 202.27L246.907 204.257C247.673 204.168 248.033 203.459 247.98 202.9L245.989 203.089Z" fill="#424242" mask="url(#path-282-inside-4_975_9340)"/>
</g>
<g opacity="0.5">
<mask id="path-284-inside-5_975_9340" fill="white">
<path d="M0.265145 207.623L126.351 224.66L0.208941 208.099C0.0902864 208.085 0.00285853 207.961 0.0153484 207.83C0.0340833 207.699 0.140246 207.602 0.265145 207.623Z"/>
</mask>
<path d="M0.265145 207.623L126.351 224.66L0.208941 208.099C0.0902864 208.085 0.00285853 207.961 0.0153484 207.83C0.0340833 207.699 0.140246 207.602 0.265145 207.623Z" fill="#424242"/>
<path d="M0.265145 207.623L0.101697 208.609L0.116435 208.612L0.131239 208.614L0.265145 207.623ZM126.351 224.66L126.221 225.651L126.485 223.669L126.351 224.66ZM0.208941 208.099L0.339114 207.107L0.331777 207.106L0.324427 207.105L0.208941 208.099ZM0.0153484 207.83L-0.974588 207.688L-0.977912 207.711L-0.980141 207.735L0.0153484 207.83ZM0.131239 208.614L126.217 225.651L126.485 223.669L0.399052 206.632L0.131239 208.614ZM126.481 223.668L0.339114 207.107L0.0787676 209.09L126.221 225.651L126.481 223.668ZM0.324427 207.105C0.589327 207.136 0.775065 207.285 0.876529 207.427C0.977814 207.568 1.02808 207.744 1.01084 207.925L-0.980141 207.735C-1.03342 208.294 -0.672615 209.003 0.0934543 209.092L0.324427 207.105ZM1.00528 207.971C0.982615 208.13 0.902788 208.299 0.749215 208.43C0.587083 208.569 0.35213 208.651 0.101697 208.609L0.428594 206.636C-0.383211 206.502 -0.897045 207.146 -0.974588 207.688L1.00528 207.971Z" fill="#424242" mask="url(#path-284-inside-5_975_9340)"/>
</g>
<g opacity="0.5">
<mask id="path-286-inside-6_975_9340" fill="white">
<path d="M222.529 171.583L222.748 19.2076L222.966 171.583C222.966 171.714 222.867 171.824 222.748 171.824C222.629 171.824 222.529 171.714 222.529 171.583Z"/>
</mask>
<path d="M222.529 171.583L222.748 19.2076L222.966 171.583C222.966 171.714 222.867 171.824 222.748 171.824C222.629 171.824 222.529 171.714 222.529 171.583Z" fill="#424242"/>
<path d="M222.529 171.583L221.529 171.581V171.583H222.529ZM222.748 19.2076L223.748 19.2062H221.748L222.748 19.2076ZM222.966 171.583H223.966L223.966 171.581L222.966 171.583ZM223.529 171.584L223.748 19.2091L221.748 19.2062L221.529 171.581L223.529 171.584ZM221.748 19.2091L221.966 171.584L223.966 171.581L223.748 19.2062L221.748 19.2091ZM221.966 171.583C221.966 171.257 222.223 170.824 222.748 170.824V172.824C223.51 172.824 223.966 172.17 223.966 171.583H221.966ZM222.748 170.824C223.273 170.824 223.529 171.257 223.529 171.583H221.529C221.529 172.17 221.986 172.824 222.748 172.824V170.824Z" fill="#424242" mask="url(#path-286-inside-6_975_9340)"/>
</g>
<g opacity="0.5">
<mask id="path-288-inside-7_975_9340" fill="white">
<path d="M12.6551 30.0093L12.7925 53.2887L12.8487 76.5751L12.9424 123.134L12.8487 169.7L12.7988 192.979L12.6551 216.259L12.5115 192.979L12.4616 169.7L12.3616 123.134L12.4616 76.5751L12.5115 53.2887L12.6551 30.0093Z"/>
</mask>
<path d="M12.6551 30.0093L12.7925 53.2887L12.8487 76.5751L12.9424 123.134L12.8487 169.7L12.7988 192.979L12.6551 216.259L12.5115 192.979L12.4616 169.7L12.3616 123.134L12.4616 76.5751L12.5115 53.2887L12.6551 30.0093Z" fill="#424242"/>
<path d="M12.6551 30.0093L13.6551 30.0034L11.6552 30.0031L12.6551 30.0093ZM12.7925 53.2887L13.7925 53.2863L13.7925 53.2828L12.7925 53.2887ZM12.8487 76.5751L13.8487 76.5731L13.8487 76.5727L12.8487 76.5751ZM12.9424 123.134L13.9424 123.136L13.9424 123.132L12.9424 123.134ZM12.8487 169.7L13.8487 169.702L13.8487 169.702L12.8487 169.7ZM12.7988 192.979L13.7988 192.985L13.7988 192.981L12.7988 192.979ZM12.6551 216.259L11.6552 216.265H13.6551L12.6551 216.259ZM12.5115 192.979L11.5115 192.981L11.5115 192.985L12.5115 192.979ZM12.4616 169.7L11.4616 169.702L12.4616 169.7ZM12.3616 123.134L11.3616 123.132L11.3616 123.136L12.3616 123.134ZM12.4616 76.5751L13.4616 76.5772L12.4616 76.5751ZM12.5115 53.2887L11.5115 53.2826L11.5115 53.2866L12.5115 53.2887ZM11.6552 30.0152L11.7926 53.2946L13.7925 53.2828L13.6551 30.0034L11.6552 30.0152ZM11.7925 53.2911L11.8487 76.5775L13.8487 76.5727L13.7925 53.2863L11.7925 53.2911ZM11.8487 76.5771L11.9424 123.136L13.9424 123.132L13.8487 76.5731L11.8487 76.5771ZM11.9424 123.132L11.8487 169.698L13.8487 169.702L13.9424 123.136L11.9424 123.132ZM11.8487 169.698L11.7988 192.977L13.7988 192.981L13.8487 169.702L11.8487 169.698ZM11.7988 192.973L11.6552 216.253L13.6551 216.265L13.7988 192.985L11.7988 192.973ZM13.6551 216.253L13.5115 192.973L11.5115 192.985L11.6552 216.265L13.6551 216.253ZM13.5115 192.977L13.4616 169.698L11.4616 169.702L11.5115 192.981L13.5115 192.977ZM13.4616 169.698L13.3616 123.132L11.3616 123.136L11.4616 169.702L13.4616 169.698ZM13.3616 123.136L13.4616 76.5772L11.4616 76.5729L11.3616 123.132L13.3616 123.136ZM13.4616 76.5772L13.5115 53.2909L11.5115 53.2866L11.4616 76.5729L13.4616 76.5772ZM13.5115 53.2949L13.6551 30.0154L11.6552 30.0031L11.5115 53.2826L13.5115 53.2949Z" fill="#424242" mask="url(#path-288-inside-7_975_9340)"/>
</g>
</svg>
