<svg width="205" height="225" viewBox="0 0 205 225" fill="none" xmlns="http://www.w3.org/2000/svg">
<path d="M202.438 16.9463V205.981" stroke="#424242" stroke-miterlimit="10"/>
<path d="M204.614 16.9463H200.208" stroke="#424242" stroke-miterlimit="10"/>
<path d="M204.614 205.981H200.208" stroke="#424242" stroke-miterlimit="10"/>
<path d="M17.2492 2.68445H190.039" stroke="#424242" stroke-miterlimit="10"/>
<path d="M17.2493 0.5V4.90604" stroke="#424242" stroke-miterlimit="10"/>
<path d="M190.039 0.5V4.90604" stroke="#424242" stroke-miterlimit="10"/>
<path d="M17.2492 222.271H190.039" stroke="#424242" stroke-miterlimit="10"/>
<path d="M17.2493 220.094V224.5" stroke="#424242" stroke-miterlimit="10"/>
<path d="M190.039 220.094V224.5" stroke="#424242" stroke-miterlimit="10"/>
<path d="M2.60712 16.9463V205.981" stroke="#424242" stroke-miterlimit="10"/>
<path d="M4.78414 16.9463H0.385559" stroke="#424242" stroke-miterlimit="10"/>
<path d="M4.78408 205.981H0.385498" stroke="#424242" stroke-miterlimit="10"/>
<path d="M26.941 187.783L22.5275 198.511" stroke="#424242" stroke-width="0.5" stroke-miterlimit="10"/>
<path d="M30.281 187.783L25.8749 198.511" stroke="#424242" stroke-width="0.5" stroke-miterlimit="10"/>
<path d="M33.621 187.783L29.2149 198.511" stroke="#424242" stroke-width="0.5" stroke-miterlimit="10"/>
<path d="M36.9609 187.783L32.5548 198.511" stroke="#424242" stroke-width="0.5" stroke-miterlimit="10"/>
<path d="M40.3083 187.783L35.8948 198.511" stroke="#424242" stroke-width="0.5" stroke-miterlimit="10"/>
<path d="M43.6482 187.783L39.2347 198.511" stroke="#424242" stroke-width="0.5" stroke-miterlimit="10"/>
<path d="M46.9808 187.783L42.5822 198.511" stroke="#424242" stroke-width="0.5" stroke-miterlimit="10"/>
<path d="M50.3952 187.783L45.9221 198.511" stroke="#424242" stroke-width="0.5" stroke-miterlimit="10"/>
<path d="M53.5637 187.783L49.262 198.511" stroke="#424242" stroke-width="0.5" stroke-miterlimit="10"/>
<path d="M57.0155 187.783L52.602 198.511" stroke="#424242" stroke-width="0.5" stroke-miterlimit="10"/>
<path d="M60.3554 187.783L55.9493 198.511" stroke="#424242" stroke-width="0.5" stroke-miterlimit="10"/>
<path d="M63.6954 187.783L59.2894 198.511" stroke="#424242" stroke-width="0.5" stroke-miterlimit="10"/>
<path d="M67.0428 187.783L62.6293 198.511" stroke="#424242" stroke-width="0.5" stroke-miterlimit="10"/>
<path d="M70.3381 187.783L65.9694 198.511" stroke="#424242" stroke-width="0.5" stroke-miterlimit="10"/>
<path d="M73.9165 187.783L69.3091 198.511" stroke="#424242" stroke-width="0.5" stroke-miterlimit="10"/>
<path d="M77.0403 187.783L72.6566 198.511" stroke="#424242" stroke-width="0.5" stroke-miterlimit="10"/>
<path d="M80.4026 187.783L75.9965 198.511" stroke="#424242" stroke-width="0.5" stroke-miterlimit="10"/>
<path d="M83.7499 187.783L79.3364 198.511" stroke="#424242" stroke-width="0.5" stroke-miterlimit="10"/>
<path d="M87.0898 187.783L82.6763 198.511" stroke="#424242" stroke-width="0.5" stroke-miterlimit="10"/>
<path d="M90.4299 187.783L86.0238 198.511" stroke="#424242" stroke-width="0.5" stroke-miterlimit="10"/>
<path d="M77.2489 23.6559L72.8429 34.3765" stroke="#424242" stroke-width="0.5" stroke-miterlimit="10"/>
<path d="M80.5888 23.6559L76.1828 34.3765" stroke="#424242" stroke-width="0.5" stroke-miterlimit="10"/>
<path d="M83.9288 23.6559L79.5227 34.3765" stroke="#424242" stroke-width="0.5" stroke-miterlimit="10"/>
<path d="M87.2762 23.6559L82.8627 34.3765" stroke="#424242" stroke-width="0.5" stroke-miterlimit="10"/>
<path d="M90.6162 23.6559L86.2027 34.3765" stroke="#424242" stroke-width="0.5" stroke-miterlimit="10"/>
<path d="M93.9562 23.6559L89.5501 34.3765" stroke="#424242" stroke-width="0.5" stroke-miterlimit="10"/>
<path d="M97.2886 23.6559L92.89 34.3765" stroke="#424242" stroke-width="0.5" stroke-miterlimit="10"/>
<path d="M100.703 23.6559L96.23 34.3765" stroke="#424242" stroke-width="0.5" stroke-miterlimit="10"/>
<path d="M103.871 23.6559L99.5698 34.3765" stroke="#424242" stroke-width="0.5" stroke-miterlimit="10"/>
<path d="M107.323 23.6559L102.917 34.3765" stroke="#424242" stroke-width="0.5" stroke-miterlimit="10"/>
<path d="M110.663 23.6559L106.257 34.3765" stroke="#424242" stroke-width="0.5" stroke-miterlimit="10"/>
<path d="M114.003 23.6559L109.597 34.3765" stroke="#424242" stroke-width="0.5" stroke-miterlimit="10"/>
<path d="M117.358 23.6559L112.937 34.3765" stroke="#424242" stroke-width="0.5" stroke-miterlimit="10"/>
<path d="M120.646 23.6559L116.277 34.3765" stroke="#424242" stroke-width="0.5" stroke-miterlimit="10"/>
<path d="M124.232 23.6559L119.625 34.3765" stroke="#424242" stroke-width="0.5" stroke-miterlimit="10"/>
<path d="M127.348 23.6559L122.964 34.3765" stroke="#424242" stroke-width="0.5" stroke-miterlimit="10"/>
<path d="M130.718 23.6559L126.304 34.3765" stroke="#424242" stroke-width="0.5" stroke-miterlimit="10"/>
<path d="M134.058 23.6559L129.644 34.3765" stroke="#424242" stroke-width="0.5" stroke-miterlimit="10"/>
<path d="M137.398 23.6559L132.992 34.3765" stroke="#424242" stroke-width="0.5" stroke-miterlimit="10"/>
<path d="M140.738 23.6559L136.332 34.3765" stroke="#424242" stroke-width="0.5" stroke-miterlimit="10"/>
<path d="M140.693 23.6559L136.279 34.3765" stroke="#424242" stroke-width="0.5" stroke-miterlimit="10"/>
<path d="M144.033 23.6559L139.619 34.3765" stroke="#424242" stroke-width="0.5" stroke-miterlimit="10"/>
<path d="M147.373 23.6559L142.967 34.3765" stroke="#424242" stroke-width="0.5" stroke-miterlimit="10"/>
<path d="M150.713 23.6559L146.307 34.3765" stroke="#424242" stroke-width="0.5" stroke-miterlimit="10"/>
<path d="M154.06 23.6559L149.647 34.3765" stroke="#424242" stroke-width="0.5" stroke-miterlimit="10"/>
<path d="M157.4 23.6559L152.987 34.3765" stroke="#424242" stroke-width="0.5" stroke-miterlimit="10"/>
<path d="M160.733 23.6559L156.334 34.3765" stroke="#424242" stroke-width="0.5" stroke-miterlimit="10"/>
<path d="M164.147 23.6559L159.674 34.3765" stroke="#424242" stroke-width="0.5" stroke-miterlimit="10"/>
<path d="M167.316 23.6559L163.014 34.3765" stroke="#424242" stroke-width="0.5" stroke-miterlimit="10"/>
<path d="M170.767 23.6559L166.354 34.3765" stroke="#424242" stroke-width="0.5" stroke-miterlimit="10"/>
<path d="M174.107 23.6559L169.694 34.3765" stroke="#424242" stroke-width="0.5" stroke-miterlimit="10"/>
<path d="M177.447 23.6559L173.041 34.3765" stroke="#424242" stroke-width="0.5" stroke-miterlimit="10"/>
<path d="M180.795 23.6559L176.381 34.3765" stroke="#424242" stroke-width="0.5" stroke-miterlimit="10"/>
<path d="M184.09 23.6559L179.721 34.3765" stroke="#424242" stroke-width="0.5" stroke-miterlimit="10"/>
<path d="M187.668 23.6559L183.061 34.3765" stroke="#424242" stroke-width="0.5" stroke-miterlimit="10"/>
<path d="M190.792 23.6559L186.408 34.3765" stroke="#424242" stroke-width="0.5" stroke-miterlimit="10"/>
<path d="M94.2916 121.849H82.6167V139.704H94.2916V121.849Z" stroke="#424242" stroke-width="0.5" stroke-miterlimit="10"/>
<path d="M91.3244 117.435C91.3244 119.016 90.0421 120.306 88.4541 120.306C86.8662 120.306 85.5839 119.023 85.5839 117.435C85.5839 115.847 86.8662 114.565 88.4541 114.565C90.0421 114.573 91.3244 115.855 91.3244 117.435Z" stroke="#424242" stroke-width="0.5" stroke-miterlimit="10"/>
<path d="M91.3244 144.088C91.3244 145.668 90.0421 146.958 88.4541 146.958C86.8662 146.958 85.5839 145.676 85.5839 144.088C85.5839 142.5 86.8662 141.218 88.4541 141.218C90.0421 141.218 91.3244 142.507 91.3244 144.088Z" stroke="#424242" stroke-width="0.5" stroke-miterlimit="10"/>
<path d="M101.732 134.948C101.732 136.535 100.45 137.818 98.8617 137.818C97.2737 137.818 95.9914 136.535 95.9914 134.948C95.9914 133.367 97.2737 132.077 98.8617 132.077C100.45 132.077 101.732 133.36 101.732 134.948Z" stroke="#424242" stroke-width="0.5" stroke-miterlimit="10"/>
<path d="M101.732 127.261C101.732 128.842 100.45 130.132 98.8617 130.132C97.2737 130.132 95.9914 128.849 95.9914 127.261C95.9914 125.681 97.2737 124.391 98.8617 124.391C100.45 124.391 101.732 125.681 101.732 127.261Z" stroke="#424242" stroke-width="0.5" stroke-miterlimit="10"/>
<path d="M80.8274 134.948C80.8274 136.535 79.5451 137.818 77.9572 137.818C76.3692 137.818 75.0869 136.535 75.0869 134.948C75.0869 133.367 76.3692 132.077 77.9572 132.077C79.5451 132.077 80.8274 133.36 80.8274 134.948Z" stroke="#424242" stroke-width="0.5" stroke-miterlimit="10"/>
<path d="M80.8274 127.261C80.8274 128.842 79.5451 130.132 77.9572 130.132C76.3692 130.132 75.0869 128.849 75.0869 127.261C75.0869 125.681 76.3692 124.391 77.9572 124.391C79.5451 124.399 80.8274 125.681 80.8274 127.261Z" stroke="#424242" stroke-width="0.5" stroke-miterlimit="10"/>
<path d="M144.361 111.844C144.361 111.18 144.905 110.636 145.569 110.636H153.934C154.597 110.636 155.141 111.18 155.141 111.844C155.141 112.507 154.597 113.052 153.934 113.052H145.569C144.905 113.044 144.361 112.507 144.361 111.844Z" stroke="#424242" stroke-width="0.5" stroke-miterlimit="10"/>
<path d="M144.361 132.264C144.361 131.6 144.905 131.056 145.569 131.056H153.934C154.597 131.056 155.141 131.6 155.141 132.264C155.141 132.927 154.597 133.471 153.934 133.471H145.569C144.905 133.464 144.361 132.92 144.361 132.264Z" stroke="#424242" stroke-width="0.5" stroke-miterlimit="10"/>
<path d="M154.888 112.731V131.377" stroke="#424242" stroke-width="0.5" stroke-miterlimit="10"/>
<path d="M152.107 113.044V131.056" stroke="#424242" stroke-width="0.5" stroke-miterlimit="10"/>
<path d="M144.928 112.731V131.056" stroke="#424242" stroke-width="0.5" stroke-miterlimit="10"/>
<path d="M144.928 121.894H152.107" stroke="#424242" stroke-width="0.5" stroke-miterlimit="10"/>
<path d="M138.061 136.357C138.725 136.357 139.269 136.901 139.269 137.565V145.929C139.269 146.593 138.725 147.137 138.061 147.137C137.398 147.137 136.854 146.593 136.854 145.929V137.565C136.854 136.901 137.398 136.357 138.061 136.357Z" stroke="#424242" stroke-width="0.5" stroke-miterlimit="10"/>
<path d="M117.641 136.357C118.305 136.357 118.849 136.901 118.849 137.565V145.929C118.849 146.593 118.305 147.137 117.641 147.137C116.978 147.137 116.434 146.593 116.434 145.929V137.565C116.441 136.901 116.978 136.357 117.641 136.357Z" stroke="#424242" stroke-width="0.5" stroke-miterlimit="10"/>
<path d="M137.174 146.884H118.529" stroke="#424242" stroke-width="0.5" stroke-miterlimit="10"/>
<path d="M136.853 144.103H118.849" stroke="#424242" stroke-width="0.5" stroke-miterlimit="10"/>
<path d="M137.174 136.923H118.849" stroke="#424242" stroke-width="0.5" stroke-miterlimit="10"/>
<path d="M128.012 136.923V144.103" stroke="#424242" stroke-width="0.5" stroke-miterlimit="10"/>
<path d="M45.6984 107.937C44.759 107.937 43.9911 107.17 43.9911 106.23V101.645C43.9911 100.706 44.759 99.938 45.6984 99.938C46.6378 99.938 47.4056 100.706 47.4056 101.645V106.23C47.4056 107.17 46.6378 107.937 45.6984 107.937Z" stroke="#424242" stroke-width="0.5" stroke-miterlimit="10"/>
<path d="M43.9837 101.235H42.5448C41.0538 101.235 39.846 102.443 39.846 103.934C39.846 105.425 41.0538 106.633 42.5448 106.633H43.9837" stroke="#424242" stroke-width="0.5" stroke-miterlimit="10"/>
<path d="M31.2043 21.528V48.8589H51.6242V21.528H31.2043Z" stroke="#424242" stroke-width="0.5" stroke-miterlimit="10"/>
<path d="M40.8748 24.4014V26.4367C40.8748 27.0257 40.3902 27.5103 39.8013 27.5103H34.426C33.8371 27.5103 33.3525 27.0257 33.3525 26.4367V24.4014C33.3525 23.8125 33.8371 23.3279 34.426 23.3279H39.8013C40.3902 23.3279 40.8748 23.8125 40.8748 24.4014Z" stroke="#424242" stroke-width="0.5" stroke-miterlimit="10"/>
<path d="M49.836 24.4014V26.4367C49.836 27.0257 49.3514 27.5103 48.7624 27.5103H43.3872C42.7983 27.5103 42.3137 27.0257 42.3137 26.4367V24.4014C42.3137 23.8125 42.7983 23.3279 43.3872 23.3279H48.7624C49.3514 23.3279 49.836 23.8125 49.836 24.4014Z" stroke="#424242" stroke-width="0.5" stroke-miterlimit="10"/>
<path d="M51.6196 172.513L51.6196 145.182H31.1998L31.1998 172.513H51.6196Z" stroke="#424242" stroke-width="0.5" stroke-miterlimit="10"/>
<path d="M41.9484 170.703V168.668C41.9484 168.079 42.433 167.594 43.022 167.594H48.3972C48.9862 167.594 49.4708 168.079 49.4708 168.668V170.703C49.4708 171.292 48.9862 171.777 48.3972 171.777H43.022C42.433 171.769 41.9484 171.292 41.9484 170.703Z" stroke="#424242" stroke-width="0.5" stroke-miterlimit="10"/>
<path d="M32.9872 170.703V168.668C32.9872 168.079 33.4718 167.594 34.0608 167.594H39.436C40.025 167.594 40.5096 168.079 40.5096 168.668V170.703C40.5096 171.292 40.025 171.777 39.436 171.777H34.0608C33.4718 171.769 32.9872 171.292 32.9872 170.703Z" stroke="#424242" stroke-width="0.5" stroke-miterlimit="10"/>
<path d="M67.4784 17.4684L19.4229 17.4684V17.447L67.4784 17.447V17.4684Z" fill="#424242" stroke="#424242"/>
<path d="M84.3948 43.35H67.9645V43.3286H84.3948V43.35Z" fill="#424242" stroke="#424242"/>
<path d="M169.734 43.3492L104.345 43.3492V43.3279L169.734 43.3279V43.3492Z" fill="#424242" stroke="#424242"/>
<path d="M53.7703 81.344H19.932V81.3226H53.7703V81.344Z" fill="#424242" stroke="#424242"/>
<path d="M108.257 81.348H67.9625V81.3267H108.257V81.348Z" fill="#424242" stroke="#424242"/>
<path d="M157.543 81.3469H135.774V81.3256H157.543V81.3469Z" fill="#424242" stroke="#424242"/>
<path d="M123.652 81.3481H120.209V81.3268H123.652V81.3481Z" fill="#424242" stroke="#424242"/>
<path d="M53.7034 119.698H19.9322V119.677H53.7034V119.698Z" fill="#424242" stroke="#424242"/>
<path d="M169.731 153.209H67.9604V153.187H169.731V153.209Z" fill="#424242" stroke="#424242"/>
<path d="M169.726 205.476H96.4791V205.455H169.726V205.476Z" fill="#424242" stroke="#424242"/>
<path d="M169.731 193.67H96.4841V193.648H169.731V193.67Z" fill="#424242" stroke="#424242"/>
<path d="M169.728 181.863H96.4814V181.842H169.728V181.863Z" fill="#424242" stroke="#424242"/>
<path d="M189.539 52.0851H170.731V52.0637H189.539V52.0851Z" fill="#424242" stroke="#424242"/>
<path d="M189.543 105.893H170.735V105.872H189.543V105.893Z" fill="#424242" stroke="#424242"/>
<path d="M189.543 110.493H170.734V110.472H189.543V110.493Z" fill="#424242" stroke="#424242"/>
<path d="M189.542 115.094H170.734V115.073H189.542V115.094Z" fill="#424242" stroke="#424242"/>
<path d="M189.541 119.694H170.733V119.673H189.541V119.694Z" fill="#424242" stroke="#424242"/>
<path d="M189.541 124.295H170.732V124.274H189.541V124.295Z" fill="#424242" stroke="#424242"/>
<path d="M189.54 128.896H170.732V128.874H189.54V128.896Z" fill="#424242" stroke="#424242"/>
<path d="M19.4193 133.583V110.435H19.4406V133.583H19.4193Z" fill="#424242" stroke="#424242"/>
<path d="M19.4193 90.4915V72.0557H19.4406V90.4915H19.4193Z" fill="#424242" stroke="#424242"/>
<path d="M19.4193 52.112V44.3521H19.4406V52.112H19.4193Z" fill="#424242" stroke="#424242"/>
<path d="M19.4193 24.4085V17.4463H19.4406V24.4085H19.4193Z" fill="#424242" stroke="#424242"/>
<path d="M19.4193 179.597V153.527H19.4406V179.597H19.4193Z" fill="#424242" stroke="#424242"/>
<path d="M170.216 57.3233V43.3234H170.237V57.3233H170.216Z" fill="#424242" stroke="#424242"/>
<path d="M170.216 82.1715V69.9534H170.237V82.1715H170.216Z" fill="#424242" stroke="#424242"/>
<path d="M170.216 105.894V102.115H170.237V105.894H170.216Z" fill="#424242" stroke="#424242"/>
<path d="M158.027 81.3441V43.8378H158.048V81.3441H158.027Z" fill="#424242" stroke="#424242"/>
<path d="M170.216 205.474V105.865H170.237V205.474H170.216Z" fill="#424242" stroke="#424242"/>
<path d="M96.484 205.481V153.184H96.5054V205.481H96.484Z" fill="#424242" stroke="#424242"/>
<path d="M189.518 128.894V53.0823H189.539V128.894H189.518Z" fill="#424242" stroke="#424242"/>
<path d="M67.9602 81.3441V17.4463H67.9816V81.3441H67.9602Z" fill="#424242" stroke="#424242"/>
<path d="M48.8002 119.694V95.2938H48.8216V119.694H48.8002Z" fill="#424242" stroke="#424242"/>
<path d="M122.093 81.3441V43.3234H122.114V81.3441H122.093Z" fill="#424242" stroke="#424242"/>
<path d="M67.9602 167.445V119.672H67.9816V167.445H67.9602Z" fill="#424242" stroke="#424242"/>
<path d="M67.9602 179.604V153.698H67.9816V179.604H67.9602Z" fill="#424242" stroke="#424242"/>
<path d="M33.6772 179.597H19.4238V179.576H33.6772V179.597Z" fill="#424242" stroke="#424242"/>
<path d="M67.9852 179.604H53.6199V179.582H67.9852V179.604Z" fill="#424242" stroke="#424242"/>
<path d="M53.1163 177.442H34.1725V181.729H53.1163V177.442Z" stroke="#424242" stroke-width="0.5" stroke-miterlimit="10"/>
<path d="M21.5786 153.03L21.5786 134.086H17.2919L17.2919 153.03H21.5786Z" stroke="#424242" stroke-width="0.5" stroke-miterlimit="10"/>
<path d="M21.5778 109.938L21.5778 90.9939H17.2911L17.2911 109.938H21.5778Z" stroke="#424242" stroke-width="0.5" stroke-miterlimit="10"/>
<path d="M21.5758 43.8528L21.5758 24.9091H17.289L17.289 43.8528H21.5758Z" stroke="#424242" stroke-width="0.5" stroke-miterlimit="10"/>
<path d="M103.842 41.1982H84.898V45.485H103.842V41.1982Z" stroke="#424242" stroke-width="0.5" stroke-miterlimit="10"/>
<path d="M172.374 101.611V82.6672H168.088V101.611H172.374Z" stroke="#424242" stroke-width="0.5" stroke-miterlimit="10"/>
<path d="M21.5742 71.5546L21.5742 52.6108H17.2874L17.2874 71.5546H21.5742Z" stroke="#424242" stroke-width="0.5" stroke-miterlimit="10"/>
<path d="M49.0607 95.3752C41.5905 95.3752 35.5369 89.3216 35.5369 81.8514" stroke="#424242" stroke-width="0.5" stroke-miterlimit="10"/>
<path d="M53.9364 81.1135C53.9364 73.6434 59.9901 67.5897 67.4602 67.5897" stroke="#424242" stroke-width="0.5" stroke-miterlimit="10"/>
<path d="M108.382 81.1135C108.382 73.6434 114.436 67.5897 121.906 67.5897" stroke="#424242" stroke-width="0.5" stroke-miterlimit="10"/>
<path d="M135.437 81.1135C135.437 73.6434 129.383 67.5897 121.913 67.5897" stroke="#424242" stroke-width="0.5" stroke-miterlimit="10"/>
<path d="M67.4602 133.211C59.9901 133.211 53.9364 127.157 53.9364 119.687" stroke="#424242" stroke-width="0.5" stroke-miterlimit="10"/>
<path d="M46.6601 70.5717H33.3525V78.1313H46.6601V70.5717Z" stroke="#424242" stroke-width="0.5" stroke-miterlimit="10"/>
<path d="M46.6601 122.669H33.3525V130.229H46.6601V122.669Z" stroke="#424242" stroke-width="0.5" stroke-miterlimit="10"/>
<path d="M62.9572 21.6356H53.9662V29.1952H62.9572V21.6356Z" stroke="#424242" stroke-width="0.5" stroke-miterlimit="10"/>
<path d="M128.012 128.372C123.71 128.372 120.191 124.853 120.191 120.552C120.191 116.25 123.71 112.731 128.012 112.731C132.313 112.731 135.832 116.25 135.832 120.552C135.832 124.853 132.313 128.372 128.012 128.372Z" stroke="#424242" stroke-width="0.5" stroke-miterlimit="10"/>
<path d="M113.936 174.729C110.089 174.729 106.95 171.583 106.95 167.743C106.95 163.896 110.097 160.758 113.936 160.758C117.783 160.758 120.922 163.904 120.922 167.743C120.922 171.583 117.775 174.729 113.936 174.729Z" stroke="#424242" stroke-width="0.5" stroke-miterlimit="10"/>
<path d="M123.963 165.678H122.703V169.793H123.963V165.678Z" stroke="#424242" stroke-width="0.5" stroke-miterlimit="10"/>
<path d="M121.824 174.281L121.036 173.297L117.824 175.869L118.611 176.852L121.824 174.281Z" stroke="#424242" stroke-width="0.5" stroke-miterlimit="10"/>
<path d="M113.744 177.966L114.02 176.736L110.005 175.835L109.729 177.064L113.744 177.966Z" stroke="#424242" stroke-width="0.5" stroke-miterlimit="10"/>
<path d="M105.823 173.978L106.955 173.425L105.15 169.727L104.018 170.28L105.823 173.978Z" stroke="#424242" stroke-width="0.5" stroke-miterlimit="10"/>
<path d="M103.994 165.303L105.133 165.842L106.893 162.122L105.754 161.583L103.994 165.303Z" stroke="#424242" stroke-width="0.5" stroke-miterlimit="10"/>
<path d="M109.611 158.474L109.902 159.7L113.906 158.749L113.615 157.523L109.611 158.474Z" stroke="#424242" stroke-width="0.5" stroke-miterlimit="10"/>
<path d="M118.482 158.579L117.706 159.572L120.95 162.104L121.726 161.111L118.482 158.579Z" stroke="#424242" stroke-width="0.5" stroke-miterlimit="10"/>
<path d="M166.816 155.673H134.58V165.678H166.816V155.673Z" stroke="#424242" stroke-width="0.5" stroke-miterlimit="10"/>
<path d="M170.231 106.394H68.1534V119.172" stroke="#424242" stroke-width="0.5" stroke-miterlimit="10" stroke-linecap="round" stroke-dasharray="1 1"/>
<path d="M67.4602 59.8362H21.5732" stroke="#424242" stroke-width="0.5" stroke-miterlimit="10" stroke-linecap="round" stroke-dasharray="1 1"/>
<path d="M33.5747 102.601C36.8765 101.201 38.4188 97.3902 37.0195 94.0883C35.6201 90.7864 31.809 89.2441 28.5071 90.6435C25.2053 92.0428 23.663 95.8539 25.0623 99.1558C26.4617 102.458 30.2728 104 33.5747 102.601Z" stroke="#424242" stroke-width="0.5" stroke-miterlimit="10" stroke-linecap="round" stroke-dasharray="1 1"/>
<path d="M22.6766 81.844C22.6766 83.8644 24.3093 85.4971 26.3296 85.4971H27.3957C29.4161 85.4971 31.0488 83.8644 31.0488 81.844" stroke="#424242" stroke-width="0.5" stroke-miterlimit="10"/>
<path d="M38.9439 111.844H27.761C26.2774 111.844 25.0771 113.044 25.0771 114.528C25.0771 116.011 26.2774 117.212 27.761 117.212H38.9439C40.4275 117.212 41.6278 116.011 41.6278 114.528C41.6352 113.044 40.4275 111.844 38.9439 111.844Z" stroke="#424242" stroke-width="0.5" stroke-miterlimit="10"/>
<path d="M150.608 55.4078H139.918V73.9117H150.608V55.4078Z" stroke="#424242" stroke-width="0.5" stroke-miterlimit="10"/>
<path d="M132.597 45.4774H124.157V49.4585H132.597V45.4774Z" stroke="#424242" stroke-width="0.5" stroke-miterlimit="10"/>
<path d="M144.145 45.4774H135.705V49.4585H144.145V45.4774Z" stroke="#424242" stroke-width="0.5" stroke-miterlimit="10"/>
<path d="M155.685 45.4774H147.246V49.4585H155.685V45.4774Z" stroke="#424242" stroke-width="0.5" stroke-miterlimit="10"/>
<path d="M77.2489 48.8547H69.5775V77.1548H77.2489V48.8547Z" stroke="#424242" stroke-width="0.5" stroke-miterlimit="10"/>
<path d="M72.9995 66.1731C72.9995 66.7472 72.5298 67.2169 71.9557 67.2169C71.3817 67.2169 70.912 66.7472 70.912 66.1731C70.912 65.5991 71.3817 65.1294 71.9557 65.1294C72.5298 65.1294 72.9995 65.5991 72.9995 66.1731Z" stroke="#424242" stroke-width="0.5" stroke-miterlimit="10"/>
<path d="M75.9069 66.1731C75.9069 66.7472 75.4372 67.2169 74.8632 67.2169C74.2891 67.2169 73.8195 66.7472 73.8195 66.1731C73.8195 65.5991 74.2891 65.1294 74.8632 65.1294C75.4447 65.1294 75.9069 65.5991 75.9069 66.1731Z" stroke="#424242" stroke-width="0.5" stroke-miterlimit="10"/>
<path d="M72.9994 68.9987C72.9994 69.5727 72.5297 70.0424 71.9557 70.0424C71.3816 70.0424 70.9119 69.5727 70.9119 68.9987C70.9119 68.4246 71.3816 67.955 71.9557 67.955C72.5297 67.955 72.9994 68.4246 72.9994 68.9987Z" stroke="#424242" stroke-width="0.5" stroke-miterlimit="10"/>
<path d="M75.9069 68.9987C75.9069 69.5727 75.4372 70.0424 74.8632 70.0424C74.2891 70.0424 73.8195 69.5727 73.8195 68.9987C73.8195 68.4246 74.2891 67.955 74.8632 67.955C75.4447 67.955 75.9069 68.4246 75.9069 68.9987Z" stroke="#424242" stroke-width="0.5" stroke-miterlimit="10"/>
<path d="M69.5775 63.7352H77.2489" stroke="#424242" stroke-width="0.5" stroke-miterlimit="10"/>
<path d="M69.5775 71.2799H77.2489" stroke="#424242" stroke-width="0.5" stroke-miterlimit="10"/>
<path d="M75.4298 60.686H71.389C70.9939 60.686 70.6659 60.3655 70.6659 59.9629V55.1021C70.6659 54.7069 70.9865 54.3789 71.389 54.3789H75.4298C75.8249 54.3789 76.1529 54.6995 76.1529 55.1021V59.9629C76.1529 60.3655 75.8249 60.686 75.4298 60.686Z" stroke="#424242" stroke-width="0.5" stroke-miterlimit="10"/>
<path d="M101.036 70.9039C104.995 66.9443 104.995 60.5247 101.036 56.5651C97.0762 52.6056 90.6565 52.6056 86.697 56.5651C82.7374 60.5247 82.7374 66.9443 86.697 70.9039C90.6565 74.8634 97.0762 74.8634 101.036 70.9039Z" stroke="#424242" stroke-width="0.5" stroke-miterlimit="10" stroke-linecap="round" stroke-dasharray="1 1"/>
</svg>
