<svg width="221" height="225" viewBox="0 0 221 225" fill="none" xmlns="http://www.w3.org/2000/svg">
<path opacity="0.5" d="M75.1201 96.2749L219.021 56.9514" stroke="#424242" stroke-width="0.1545" stroke-miterlimit="10" stroke-linecap="round"/>
<path d="M190.123 20.4344L220.371 74.382" stroke="#424242" stroke-width="0.2575" stroke-miterlimit="10" stroke-linecap="round"/>
<path d="M220.371 135.969L128.998 221.885" stroke="#424242" stroke-width="0.2575" stroke-miterlimit="10" stroke-linecap="round"/>
<path d="M220.371 132.539L128.998 205.982" stroke="#424242" stroke-width="0.2575" stroke-miterlimit="10" stroke-linecap="round"/>
<path d="M0.629089 88.5221L69.6469 62.7419" stroke="#424242" stroke-width="0.2575" stroke-miterlimit="10" stroke-linecap="round"/>
<path d="M190.123 98.3933L61.9532 62.7419" stroke="#424242" stroke-width="0.2575" stroke-miterlimit="10" stroke-linecap="round"/>
<path d="M0.629089 137.685L74.518 160.61" stroke="#424242" stroke-width="0.2575" stroke-miterlimit="10" stroke-linecap="round"/>
<path d="M140.536 205.982L0.629089 144.233" stroke="#424242" stroke-width="0.2575" stroke-miterlimit="10" stroke-linecap="round"/>
<path d="M140.536 221.885L0.629089 150.781" stroke="#424242" stroke-width="0.2575" stroke-miterlimit="10" stroke-linecap="round"/>
<path d="M135.24 89.3553L220.371 106.92" stroke="#424242" stroke-width="0.2575" stroke-miterlimit="10" stroke-linecap="round"/>
<path d="M144.385 89.9738L0.629089 109.308" stroke="#424242" stroke-width="0.2575" stroke-miterlimit="10" stroke-linecap="round"/>
<path d="M0.629089 136.335L148.407 176.669" stroke="#424242" stroke-width="0.2575" stroke-miterlimit="10" stroke-linecap="round"/>
<path d="M137.267 176.669L220.371 127.813" stroke="#424242" stroke-width="0.2575" stroke-miterlimit="10" stroke-linecap="round"/>
<path d="M204.155 25.1118L0.629089 98.1405" stroke="#424242" stroke-width="0.2575" stroke-miterlimit="10" stroke-linecap="round"/>
<path d="M74.518 113.845L0.629089 115.34" stroke="#424242" stroke-width="0.2575" stroke-miterlimit="10" stroke-linecap="round"/>
<path d="M61.9532 113.845L220.371 116.614" stroke="#424242" stroke-width="0.2575" stroke-miterlimit="10" stroke-linecap="round"/>
<path d="M65.6952 160.61L220.371 121.469" stroke="#424242" stroke-width="0.2575" stroke-miterlimit="10" stroke-linecap="round"/>
<g opacity="0.5">
<path d="M190.123 18.7463L220.371 72.6993" stroke="#424242" stroke-width="0.1545" stroke-miterlimit="10" stroke-linecap="round"/>
<path d="M220.371 134.287L128.998 220.197" stroke="#424242" stroke-width="0.1545" stroke-miterlimit="10" stroke-linecap="round"/>
<path d="M220.371 130.856L128.998 204.294" stroke="#424242" stroke-width="0.1545" stroke-miterlimit="10" stroke-linecap="round"/>
<path d="M0.629089 86.8339L69.6469 61.0537" stroke="#424242" stroke-width="0.1545" stroke-miterlimit="10" stroke-linecap="round"/>
<path d="M190.123 96.7105L61.9532 61.0537" stroke="#424242" stroke-width="0.1545" stroke-miterlimit="10" stroke-linecap="round"/>
<path d="M0.629089 136.002L74.518 158.922" stroke="#424242" stroke-width="0.1545" stroke-miterlimit="10" stroke-linecap="round"/>
<path d="M140.536 204.294L0.629089 142.55" stroke="#424242" stroke-width="0.1545" stroke-miterlimit="10" stroke-linecap="round"/>
<path d="M140.536 220.197L0.629089 149.099" stroke="#424242" stroke-width="0.1545" stroke-miterlimit="10" stroke-linecap="round"/>
<path d="M135.24 87.6727L220.371 105.238" stroke="#424242" stroke-width="0.1545" stroke-miterlimit="10" stroke-linecap="round"/>
<path d="M144.385 88.2911L0.629089 107.625" stroke="#424242" stroke-width="0.1545" stroke-miterlimit="10" stroke-linecap="round"/>
<path d="M0.629089 134.652L148.407 174.981" stroke="#424242" stroke-width="0.1545" stroke-miterlimit="10" stroke-linecap="round"/>
<path d="M137.267 174.981L220.371 126.125" stroke="#424242" stroke-width="0.1545" stroke-miterlimit="10" stroke-linecap="round"/>
<path d="M204.155 23.4237L0.629089 96.4524" stroke="#424242" stroke-width="0.1545" stroke-miterlimit="10" stroke-linecap="round"/>
<path d="M74.518 112.163L0.629089 113.652" stroke="#424242" stroke-width="0.1545" stroke-miterlimit="10" stroke-linecap="round"/>
<path d="M61.9532 112.163L220.371 114.931" stroke="#424242" stroke-width="0.1545" stroke-miterlimit="10" stroke-linecap="round"/>
<path d="M65.6952 158.922L220.371 119.786" stroke="#424242" stroke-width="0.1545" stroke-miterlimit="10" stroke-linecap="round"/>
</g>
<g opacity="0.5">
<path d="M190.123 21.7246L220.371 75.6721" stroke="#424242" stroke-width="0.1545" stroke-miterlimit="10" stroke-linecap="round"/>
<path d="M220.371 137.265L128.998 223.176" stroke="#424242" stroke-width="0.1545" stroke-miterlimit="10" stroke-linecap="round"/>
<path d="M220.371 133.835L128.998 207.272" stroke="#424242" stroke-width="0.1545" stroke-miterlimit="10" stroke-linecap="round"/>
<path d="M0.629089 89.8123L69.6469 64.0321" stroke="#424242" stroke-width="0.1545" stroke-miterlimit="10" stroke-linecap="round"/>
<path d="M190.123 99.6889L61.9532 64.0321" stroke="#424242" stroke-width="0.1545" stroke-miterlimit="10" stroke-linecap="round"/>
<path d="M0.629089 138.98L74.518 161.9" stroke="#424242" stroke-width="0.1545" stroke-miterlimit="10" stroke-linecap="round"/>
<path d="M140.536 207.272L0.629089 145.529" stroke="#424242" stroke-width="0.1545" stroke-miterlimit="10" stroke-linecap="round"/>
<path d="M140.536 223.176L0.629089 152.077" stroke="#424242" stroke-width="0.1545" stroke-miterlimit="10" stroke-linecap="round"/>
<path d="M135.24 90.6511L220.371 108.216" stroke="#424242" stroke-width="0.1545" stroke-miterlimit="10" stroke-linecap="round"/>
<path d="M144.385 91.2694L0.629089 110.603" stroke="#424242" stroke-width="0.1545" stroke-miterlimit="10" stroke-linecap="round"/>
<path d="M0.629089 137.625L148.407 177.96" stroke="#424242" stroke-width="0.1545" stroke-miterlimit="10" stroke-linecap="round"/>
<path d="M137.267 177.96L220.371 129.104" stroke="#424242" stroke-width="0.1545" stroke-miterlimit="10" stroke-linecap="round"/>
<path d="M204.155 26.4023L0.629089 99.431" stroke="#424242" stroke-width="0.1545" stroke-miterlimit="10" stroke-linecap="round"/>
<path d="M74.518 115.141L0.629089 116.63" stroke="#424242" stroke-width="0.1545" stroke-miterlimit="10" stroke-linecap="round"/>
<path d="M61.9532 115.141L220.371 117.91" stroke="#424242" stroke-width="0.1545" stroke-miterlimit="10" stroke-linecap="round"/>
<path d="M65.6952 161.9L220.371 122.765" stroke="#424242" stroke-width="0.1545" stroke-miterlimit="10" stroke-linecap="round"/>
</g>
<path d="M3.05389 87.7694V152.024L5.0862 153.045V87.0114L3.05389 87.7694Z" stroke="#424242" stroke-width="0.2575" stroke-miterlimit="10" stroke-linecap="round"/>
<path d="M5.08624 87.0115L7.30135 87.4792V152.384L5.08624 153.045" stroke="#424242" stroke-width="0.2575" stroke-miterlimit="10" stroke-linecap="round"/>
<path d="M70.5824 159.373V65.1398L75.1201 66.4032V158.223L70.5824 159.373Z" stroke="#424242" stroke-width="0.2575" stroke-miterlimit="10" stroke-linecap="round"/>
<path d="M70.5824 65.1398L66.2167 66.4839V158.024L70.5824 159.373V65.1398Z" stroke="#424242" stroke-width="0.2575" stroke-miterlimit="10" stroke-linecap="round"/>
<path d="M91.8948 97.3664V161.244L95.1906 162.142V96.9363L91.8948 97.3664Z" stroke="#424242" stroke-width="0.2575" stroke-miterlimit="10" stroke-linecap="round"/>
<path d="M95.1906 96.9363L98.5455 97.4578V160.932L95.1906 162.142" stroke="#424242" stroke-width="0.2575" stroke-miterlimit="10" stroke-linecap="round"/>
<path d="M140.799 174.589V90.4952L136.127 91.0866V173.314L140.799 174.589Z" stroke="#424242" stroke-width="0.2575" stroke-miterlimit="10" stroke-linecap="round"/>
<path d="M140.799 90.4952L145.041 91.377V172.094L140.799 174.589V90.4952Z" stroke="#424242" stroke-width="0.2575" stroke-miterlimit="10" stroke-linecap="round"/>
<path d="M194.655 28.5208V160.148L197.188 157.766V33.037L194.655 28.5208Z" stroke="#424242" stroke-width="0.515" stroke-miterlimit="10" stroke-linecap="round"/>
<path d="M194.655 28.5208L190.698 29.9401V159.605L194.655 160.148V28.5208Z" stroke="#424242" stroke-width="0.515" stroke-miterlimit="10" stroke-linecap="round"/>
<path d="M216.5 67.4784V139.609L214.984 141.039V64.7687L216.5 67.4784Z" stroke="#424242" stroke-width="0.2575" stroke-miterlimit="10" stroke-linecap="round"/>
<path d="M214.984 64.7687L212.602 65.5751V141.039H214.984" stroke="#424242" stroke-width="0.2575" stroke-miterlimit="10" stroke-linecap="round"/>
<path d="M122.084 54.559V150.163L125.508 150.782V53.3331L122.084 54.559Z" stroke="#424242" stroke-width="0.2575" stroke-miterlimit="10" stroke-linecap="round"/>
<path d="M125.508 53.3331L128.998 55.2041V149.147L125.508 150.782V53.3331Z" stroke="#424242" stroke-width="0.2575" stroke-miterlimit="10" stroke-linecap="round"/>
<path d="M197.983 160.61L0.629089 133.448" stroke="#424242" stroke-width="0.2575" stroke-miterlimit="10" stroke-linecap="round"/>
<path d="M212.602 154.991L179.886 151.615V98.5223" stroke="#424242" stroke-width="0.515" stroke-miterlimit="10" stroke-linecap="round"/>
<path d="M175.789 43.1716L139.175 55.3278" stroke="#424242" stroke-width="0.515" stroke-miterlimit="10" stroke-linecap="round"/>
<path d="M141.487 52.8385V90.4953" stroke="#424242" stroke-width="0.515" stroke-miterlimit="10" stroke-linecap="round"/>
<path d="M141.487 54.5642L148.971 57.8277L174.02 50.0319" stroke="#424242" stroke-width="0.515" stroke-miterlimit="10" stroke-linecap="round"/>
<path d="M148.971 57.8278V91.7533" stroke="#424242" stroke-width="0.515" stroke-miterlimit="10" stroke-linecap="round"/>
<path d="M151.622 92.7266V59.6989L174.02 52.8385" stroke="#424242" stroke-width="0.515" stroke-miterlimit="10" stroke-linecap="round"/>
<path d="M151.622 59.699L153.493 60.7904L174.02 54.5537" stroke="#424242" stroke-width="0.515" stroke-miterlimit="10" stroke-linecap="round"/>
<path d="M153.493 60.7903V93.1244" stroke="#424242" stroke-width="0.515" stroke-miterlimit="10" stroke-linecap="round"/>
<path d="M165.3 55.5106V95.5546" stroke="#424242" stroke-width="0.515" stroke-miterlimit="10" stroke-linecap="round"/>
<path d="M167.01 95.9095V54.9838L168.402 56.258V96.1944" stroke="#424242" stroke-width="0.515" stroke-miterlimit="10" stroke-linecap="round" stroke-linejoin="round"/>
<path d="M200.623 55.6719V90.4953L210.338 95.4309V68.4571L200.623 55.6719Z" stroke="#424242" stroke-width="0.515" stroke-miterlimit="10" stroke-linecap="round"/>
<path d="M210.338 68.4572H207.586L200.623 61.1829" stroke="#424242" stroke-width="0.515" stroke-miterlimit="10" stroke-linecap="round"/>
<path d="M207.586 68.4572V93.947" stroke="#424242" stroke-width="0.515" stroke-miterlimit="10" stroke-linecap="round"/>
<path d="M206.65 93.5545V69.0808L200.623 62.7419" stroke="#424242" stroke-width="0.515" stroke-miterlimit="10" stroke-linecap="round"/>
<path d="M206.65 69.0808H205.897L200.623 64.0161" stroke="#424242" stroke-width="0.515" stroke-miterlimit="10" stroke-linecap="round"/>
<path d="M205.897 69.0808V93.1728" stroke="#424242" stroke-width="0.515" stroke-miterlimit="10" stroke-linecap="round"/>
<path d="M131.756 172.304V102.06L101.137 105.254V163.766L108.987 160.61V104.437" stroke="#424242" stroke-width="0.515" stroke-miterlimit="10" stroke-linecap="round"/>
<path d="M108.987 160.61L131.756 166.481" stroke="#424242" stroke-width="0.515" stroke-miterlimit="10" stroke-linecap="round"/>
<path d="M119.229 110.039L111.54 110.662V124.926H119.229V110.039Z" stroke="#424242" stroke-width="0.515" stroke-miterlimit="10" stroke-linecap="round"/>
<path d="M120.895 110.039V124.926H130.353V109.308L120.895 110.039Z" stroke="#424242" stroke-width="0.515" stroke-miterlimit="10" stroke-linecap="round"/>
<path d="M111.54 126.77H119.229V140.491L111.54 139.975V126.77Z" stroke="#424242" stroke-width="0.515" stroke-miterlimit="10" stroke-linecap="round"/>
<path d="M120.895 126.77V140.491L130.353 141.04V126.98L120.895 126.77Z" stroke="#424242" stroke-width="0.515" stroke-miterlimit="10" stroke-linecap="round"/>
<path d="M149.842 102.06V115.383L176.563 115.851V105.41L149.842 102.06Z" stroke="#424242" stroke-width="0.515" stroke-miterlimit="10" stroke-linecap="round"/>
<path d="M173.569 115.797V105.033" stroke="#424242" stroke-width="0.515" stroke-miterlimit="10" stroke-linecap="round"/>
<path d="M162.273 103.619V115.604" stroke="#424242" stroke-width="0.515" stroke-miterlimit="10" stroke-linecap="round"/>
<path d="M164.461 103.894V115.604" stroke="#424242" stroke-width="0.515" stroke-miterlimit="10" stroke-linecap="round"/>
<path d="M160.703 103.619V115.582" stroke="#424242" stroke-width="0.515" stroke-miterlimit="10" stroke-linecap="round"/>
<path d="M200.623 108.372V116.27L210.338 116.442V109.748L200.623 108.372Z" stroke="#424242" stroke-width="0.515" stroke-miterlimit="10" stroke-linecap="round"/>
<path d="M208.849 109.533V116.415" stroke="#424242" stroke-width="0.515" stroke-miterlimit="10" stroke-linecap="round"/>
<path d="M205.478 109.06V116.356" stroke="#424242" stroke-width="0.515" stroke-miterlimit="10" stroke-linecap="round"/>
<path d="M204.156 108.953V116.335" stroke="#424242" stroke-width="0.515" stroke-miterlimit="10" stroke-linecap="round"/>
<path d="M203.322 108.754V116.318" stroke="#424242" stroke-width="0.515" stroke-miterlimit="10" stroke-linecap="round"/>
<path d="M3.05389 86.2317V145.308L133.089 202.691L194.655 153.142L179.886 151.615L140.799 174.589V90.4952L78.0826 98.8933V157.475" stroke="#424242" stroke-width="1.03" stroke-miterlimit="10" stroke-linecap="round"/>
<path d="M194.655 25.1119V101.619" stroke="#424242" stroke-width="1.03" stroke-miterlimit="10" stroke-linecap="round"/>
<path d="M66.3618 63.9677V114.017H70.5823V159.373L78.0825 157.475L101.137 163.766" stroke="#424242" stroke-width="1.03" stroke-miterlimit="10" stroke-linecap="round"/>
<path d="M23.4253 144.755L7.30127 147.029V115.34L23.1189 114.883L23.4253 144.755ZM23.4253 144.755L70.5824 159.373" stroke="#424242" stroke-width="1.03" stroke-miterlimit="10" stroke-linecap="round"/>
<path d="M3.05389 145.309V152.024L133.046 218.079V202.692" stroke="#424242" stroke-width="1.03" stroke-miterlimit="10" stroke-linecap="round"/>
<path d="M55.7702 213.332C63.4341 213.332 69.6469 210.951 69.6469 208.014C69.6469 205.078 63.4341 202.697 55.7702 202.697C48.1064 202.697 41.8936 205.078 41.8936 208.014C41.8936 210.951 48.1064 213.332 55.7702 213.332Z" stroke="#424242" stroke-width="0.515" stroke-miterlimit="10" stroke-linecap="round"/>
<path d="M45.8775 191.745C45.8775 193.213 42.7699 194.406 38.9365 194.406C35.103 194.406 31.9954 193.218 31.9954 191.745C31.9954 190.272 35.103 189.084 38.9365 189.084C42.7699 189.084 45.8775 190.272 45.8775 191.745Z" stroke="#424242" stroke-width="0.515" stroke-miterlimit="10" stroke-linecap="round"/>
<path d="M200.623 181.589C204.457 181.589 207.564 180.397 207.564 178.928C207.564 177.458 204.457 176.266 200.623 176.266C196.79 176.266 193.682 177.458 193.682 178.928C193.682 180.397 196.79 181.589 200.623 181.589Z" stroke="#424242" stroke-width="0.515" stroke-miterlimit="10" stroke-linecap="round"/>
<path d="M195.053 191.745C195.053 193.213 191.945 194.406 188.112 194.406C184.279 194.406 181.171 193.218 181.171 191.745C181.171 190.272 184.279 189.084 188.112 189.084C191.945 189.084 195.053 190.272 195.053 191.745Z" stroke="#424242" stroke-width="0.515" stroke-miterlimit="10" stroke-linecap="round"/>
<path d="M173.569 210.676C177.402 210.676 180.51 209.484 180.51 208.014C180.51 206.544 177.402 205.353 173.569 205.353C169.735 205.353 166.628 206.544 166.628 208.014C166.628 209.484 169.735 210.676 173.569 210.676Z" stroke="#424242" stroke-width="0.515" stroke-miterlimit="10" stroke-linecap="round"/>
<path d="M133.046 218.079L216.5 139.609V67.4787L194.655 28.5208L122.084 54.559V79.4682L66.3619 63.9678L3.05389 87.7695" stroke="#424242" stroke-width="1.03" stroke-miterlimit="10" stroke-linecap="round"/>
<path d="M122.084 79.4684V92.9848" stroke="#424242" stroke-width="1.03" stroke-miterlimit="10" stroke-linecap="round"/>
<path d="M194.655 153.142V101.619" stroke="#424242" stroke-width="1.03" stroke-miterlimit="10" stroke-linecap="round"/>
<path d="M140.799 90.4952L179.66 98.5223L179.886 151.615" stroke="#424242" stroke-width="1.03" stroke-miterlimit="10" stroke-linecap="round"/>
<path d="M78.588 75.9036V90.4953L117.67 98.1407V85.9576L78.588 75.9036Z" stroke="#424242" stroke-width="0.515" stroke-miterlimit="10" stroke-linecap="round"/>
<path d="M117.67 85.9575L114.519 86.7479L114.68 97.5546" stroke="#424242" stroke-width="0.515" stroke-miterlimit="10" stroke-linecap="round"/>
<path d="M114.519 86.7478L78.588 77.8121" stroke="#424242" stroke-width="0.515" stroke-miterlimit="10" stroke-linecap="round"/>
<path d="M113.438 97.3127V87.4307L78.588 78.8552" stroke="#424242" stroke-width="0.515" stroke-miterlimit="10" stroke-linecap="round"/>
<path d="M113.438 87.4307H112.578V97.146" stroke="#424242" stroke-width="0.515" stroke-miterlimit="10" stroke-linecap="round"/>
<path d="M105.32 85.4307V95.7212" stroke="#424242" stroke-width="0.515" stroke-miterlimit="10" stroke-linecap="round"/>
<path d="M104.11 85.135V95.3933" stroke="#424242" stroke-width="0.515" stroke-miterlimit="10" stroke-linecap="round"/>
<path d="M103.277 85.135V95.3611" stroke="#424242" stroke-width="0.515" stroke-miterlimit="10" stroke-linecap="round"/>
<path d="M91.8948 82.28V93.0975" stroke="#424242" stroke-width="0.515" stroke-miterlimit="10" stroke-linecap="round"/>
<path d="M90.228 92.7695V81.7155" stroke="#424242" stroke-width="0.515" stroke-miterlimit="10" stroke-linecap="round"/>
<path d="M89.2495 81.4735V92.5383" stroke="#424242" stroke-width="0.515" stroke-miterlimit="10" stroke-linecap="round"/>
<path d="M66.3619 114.018L23.1189 114.883" stroke="#424242" stroke-width="1.03" stroke-miterlimit="10" stroke-linecap="round"/>
<path d="M54.8885 78.6725V102.012" stroke="#424242" stroke-width="0.515" stroke-miterlimit="10" stroke-linecap="round"/>
<path d="M37.5709 84.8822V104.34" stroke="#424242" stroke-width="0.515" stroke-miterlimit="10" stroke-linecap="round"/>
<path d="M27.0599 88.6565V105.754" stroke="#424242" stroke-width="0.515" stroke-miterlimit="10" stroke-linecap="round"/>
<path d="M13.1025 93.6621V108.06" stroke="#424242" stroke-width="0.515" stroke-miterlimit="10" stroke-linecap="round"/>
<path d="M13.1025 93.6621L15.1779 93.9524V107.351" stroke="#424242" stroke-width="0.515" stroke-miterlimit="10" stroke-linecap="round"/>
<path d="M15.1778 93.9523L27.0598 90.1296" stroke="#424242" stroke-width="0.515" stroke-miterlimit="10" stroke-linecap="round"/>
<path d="M37.5709 84.8822L40.3881 85.2209V103.904" stroke="#424242" stroke-width="0.515" stroke-miterlimit="10" stroke-linecap="round"/>
<path d="M40.3881 85.2208L54.8884 80.2314" stroke="#424242" stroke-width="0.515" stroke-miterlimit="10" stroke-linecap="round"/>
<path d="M41.2698 103.845V85.764L54.8884 81.194" stroke="#424242" stroke-width="0.515" stroke-miterlimit="10" stroke-linecap="round"/>
<path d="M49.012 83.1619V102.802" stroke="#424242" stroke-width="0.515" stroke-miterlimit="10" stroke-linecap="round"/>
<path d="M50.1356 102.651V82.7854L50.9367 83.1618V102.544" stroke="#424242" stroke-width="0.515" stroke-miterlimit="10" stroke-linecap="round"/>
<path d="M41.2698 85.7642L41.8935 86.0276V103.759" stroke="#424242" stroke-width="0.515" stroke-miterlimit="10" stroke-linecap="round"/>
<path d="M41.8936 86.0274L49.012 83.7371" stroke="#424242" stroke-width="0.515" stroke-miterlimit="10" stroke-linecap="round"/>
<path d="M50.9367 83.1616L54.8884 81.8175" stroke="#424242" stroke-width="0.515" stroke-miterlimit="10" stroke-linecap="round"/>
<path d="M15.9144 107.254V94.3932L27.0599 91.0652" stroke="#424242" stroke-width="0.515" stroke-miterlimit="10" stroke-linecap="round"/>
<path d="M21.4844 92.7319V106.501" stroke="#424242" stroke-width="0.515" stroke-miterlimit="10" stroke-linecap="round"/>
<path d="M22.2264 106.404V92.5061L22.7694 92.7319V106.329" stroke="#424242" stroke-width="0.515" stroke-miterlimit="10" stroke-linecap="round"/>
<path d="M15.9144 94.3933L16.4144 94.5761V107.184" stroke="#424242" stroke-width="0.515" stroke-miterlimit="10" stroke-linecap="round"/>
<path d="M16.4144 94.5759L21.4844 93.092" stroke="#424242" stroke-width="0.515" stroke-miterlimit="10" stroke-linecap="round"/>
<path d="M22.7694 92.7317L27.0598 91.4575" stroke="#424242" stroke-width="0.515" stroke-miterlimit="10" stroke-linecap="round"/>
<path d="M5.08624 69.0808V173.422" stroke="#424242" stroke-width="0.1545" stroke-miterlimit="10" stroke-linecap="round"/>
<path d="M66.2167 49.5695V205.202" stroke="#424242" stroke-width="0.1545" stroke-miterlimit="10" stroke-linecap="round"/>
<path d="M70.5824 51.2845V209.724" stroke="#424242" stroke-width="0.1545" stroke-miterlimit="10" stroke-linecap="round"/>
<path d="M121.901 48.0104V224.66" stroke="#424242" stroke-width="0.1545" stroke-miterlimit="10" stroke-linecap="round"/>
<path d="M194.655 16.9128V176.401" stroke="#424242" stroke-width="0.1545" stroke-miterlimit="10" stroke-linecap="round"/>
<path d="M95.1906 37.2307V169.874" stroke="#424242" stroke-width="0.1545" stroke-miterlimit="10" stroke-linecap="round"/>
<path d="M216.5 52.5536V155.416" stroke="#424242" stroke-width="0.1545" stroke-miterlimit="10" stroke-linecap="round"/>
<path d="M140.95 78.108V180.971" stroke="#424242" stroke-width="0.1545" stroke-miterlimit="10" stroke-linecap="round"/>
<path d="M0.629089 81.2049L203.322 0.659912" stroke="#424242" stroke-width="0.1545" stroke-miterlimit="10" stroke-linecap="round"/>
<path d="M220.371 64.769L183.521 0.659912" stroke="#424242" stroke-width="0.1545" stroke-miterlimit="10" stroke-linecap="round"/>
<path d="M174.02 42.1608V97.2266" stroke="#424242" stroke-width="0.515" stroke-miterlimit="10" stroke-linecap="round"/>
<path d="M27.4469 117.91H66.2166V142.55L27.4469 137.136V117.91Z" stroke="#424242" stroke-width="0.515" stroke-miterlimit="10" stroke-linecap="round"/>
<path d="M29.9039 117.91V136.749L27.4469 137.136" stroke="#424242" stroke-width="0.515" stroke-miterlimit="10" stroke-linecap="round"/>
<path d="M29.904 136.749L66.2167 141.534" stroke="#424242" stroke-width="0.515" stroke-miterlimit="10" stroke-linecap="round"/>
<path d="M31.0814 117.91V136.002L66.2167 140.104" stroke="#424242" stroke-width="0.515" stroke-miterlimit="10" stroke-linecap="round"/>
<path d="M46.8292 117.91V137.841" stroke="#424242" stroke-width="0.515" stroke-miterlimit="10" stroke-linecap="round"/>
<path d="M49.7432 138.05V117.91" stroke="#424242" stroke-width="0.515" stroke-miterlimit="10" stroke-linecap="round"/>
<path d="M48.6517 117.91V138.05" stroke="#424242" stroke-width="0.515" stroke-miterlimit="10" stroke-linecap="round"/>
<path d="M31.0814 136.002H31.9685V117.91" stroke="#424242" stroke-width="0.515" stroke-miterlimit="10" stroke-linecap="round"/>
</svg>
