<svg width="371" height="395" viewBox="0 0 371 395" fill="none" xmlns="http://www.w3.org/2000/svg">
<g opacity="0.45">
<path d="M126.512 51.7352V268.781" stroke="white" stroke-width="0.7016" stroke-miterlimit="10" stroke-linecap="round"/>
<path d="M144.057 53.3524V268.829" stroke="white" stroke-width="0.7016" stroke-miterlimit="10" stroke-linecap="round"/>
<path d="M-19.3198 290.375C-18.0188 290.241 134.488 267.504 134.488 267.504L385.821 302.278V303.774L134.391 271.565L-19.3198 292.199V290.375Z" stroke="white" stroke-width="0.7016" stroke-miterlimit="10" stroke-linecap="round"/>
<path d="M-18.1161 292.016C-16.8151 291.883 134.403 271.565 134.403 271.565L384.642 303.616V305.099L134.306 275.614L-18.1161 293.84V292.016Z" stroke="white" stroke-width="0.5896" stroke-miterlimit="10" stroke-linecap="round"/>
<path d="M-15.6357 293.548C-14.3591 293.415 134.245 275.614 134.245 275.614L382.137 304.795V306.266L134.148 279.614L-15.6357 295.336V293.548Z" stroke="white" stroke-width="0.5823" stroke-miterlimit="10" stroke-linecap="round"/>
<path d="M-9.64148 294.715V303.762L133.6 287.372L382.137 312.686V306.266L134.148 279.614L-9.64148 294.715Z" stroke="white" stroke-width="0.5823" stroke-miterlimit="10" stroke-linecap="round"/>
<path d="M-9.64148 303.761H-2.92986L133.6 289.086L382.137 312.686L133.6 287.371L-9.64148 303.761Z" stroke="white" stroke-width="0.3742" stroke-miterlimit="10" stroke-linecap="round"/>
<path d="M124.104 290.107V293.998H125.758V368.689L133.078 369.176L142.306 368.568V294.716H144.057V290.107L133.6 289.086L124.104 290.107Z" stroke="white" stroke-width="0.3742" stroke-miterlimit="10" stroke-linecap="round"/>
<path d="M-7.3313 309.221L133.6 297.354L142.306 298.071" stroke="white" stroke-width="0.3742" stroke-miterlimit="10" stroke-linecap="round"/>
<path d="M-7.3313 310.546L133.6 299.311L142.306 300.029" stroke="white" stroke-width="0.3742" stroke-miterlimit="10" stroke-linecap="round"/>
<path d="M125.758 361.953H133.382H142.306" stroke="white" stroke-width="0.3742" stroke-miterlimit="10" stroke-linecap="round"/>
<path d="M133.6 299.311V361.953" stroke="white" stroke-width="0.3742" stroke-miterlimit="10" stroke-linecap="round"/>
<path d="M125.758 367.497L-7.85413 363.534V303.761" stroke="white" stroke-width="0.3742" stroke-miterlimit="10" stroke-linecap="round"/>
<path d="M92.3459 293.524V366.513L89.4642 367.315V298.558C89.4642 298.558 87.1784 295.506 88.0052 292.6L92.3459 293.524Z" stroke="white" stroke-width="0.3742" stroke-miterlimit="10" stroke-linecap="round"/>
<path d="M81.5368 293.438C80.71 296.344 82.9959 299.396 82.9959 299.396V366.974L89.4765 367.303" stroke="white" stroke-width="0.3742" stroke-miterlimit="10" stroke-linecap="round"/>
<path d="M54.6416 297.5V365.394L51.9546 366.136V302.181C51.9546 302.181 49.8146 299.348 50.5806 296.637L54.6416 297.5Z" stroke="white" stroke-width="0.5533" stroke-miterlimit="10" stroke-linecap="round"/>
<path d="M46.0577 297.573C45.2917 300.284 47.4316 303.117 47.4316 303.117V365.978L51.9547 366.136" stroke="white" stroke-width="0.5533" stroke-miterlimit="10" stroke-linecap="round"/>
<path d="M54.6416 297.5V365.394L51.9546 366.136V302.181C51.9546 302.181 49.8146 299.348 50.5806 296.637L54.6416 297.5Z" stroke="white" stroke-width="0.5533" stroke-miterlimit="10" stroke-linecap="round"/>
<path d="M46.0577 297.573C45.2917 300.284 47.4316 303.117 47.4316 303.117V365.978L51.9547 366.136" stroke="white" stroke-width="0.5533" stroke-miterlimit="10" stroke-linecap="round"/>
<path d="M22.3847 301.05V364.506L20.1596 365.248V305.585C20.1596 305.585 18.3966 303.19 19.0289 300.479L22.3847 301.05Z" stroke="white" stroke-width="0.5024" stroke-miterlimit="10" stroke-linecap="round"/>
<path d="M15.2961 300.977C14.6638 303.688 16.4268 306.521 16.4268 306.521V365.09L20.1596 365.248" stroke="white" stroke-width="0.5024" stroke-miterlimit="10" stroke-linecap="round"/>
<path d="M92.346 361.491L-8.24316 360.129" stroke="white" stroke-width="0.2339" stroke-miterlimit="10"/>
<path d="M315.325 312.832L142.306 298.071" stroke="white" stroke-width="0.3742" stroke-miterlimit="10" stroke-linecap="round"/>
<path d="M382.137 318.534L344.652 315.337" stroke="white" stroke-width="0.3742" stroke-miterlimit="10" stroke-linecap="round"/>
<path d="M315.325 314.328L142.306 300.029" stroke="white" stroke-width="0.3742" stroke-miterlimit="10" stroke-linecap="round"/>
<path d="M382.137 319.86L344.652 316.76" stroke="white" stroke-width="0.3742" stroke-miterlimit="10" stroke-linecap="round"/>
<path d="M142.476 367.498L382.137 359.011V312.686" stroke="white" stroke-width="0.3742" stroke-miterlimit="10" stroke-linecap="round"/>
<path d="M196.266 295.031V365.905L199.148 366.683V300.041C199.148 300.041 201.434 297.05 200.607 294.205L196.266 295.031Z" stroke="white" stroke-width="0.5866" stroke-miterlimit="10" stroke-linecap="round"/>
<path d="M207.051 294.241C207.878 297.086 205.617 300.88 205.617 300.88V366.379L199.136 366.707" stroke="white" stroke-width="0.5866" stroke-miterlimit="10" stroke-linecap="round"/>
<path d="M245.643 299.81V364.02L248.33 364.726V304.467C248.33 304.467 250.422 301.962 249.643 299.385L245.643 299.81Z" stroke="white" stroke-width="0.54" stroke-miterlimit="10" stroke-linecap="round"/>
<path d="M254.179 299.652C254.945 302.229 252.865 304.929 252.865 304.929V364.579L248.342 364.725" stroke="white" stroke-width="0.54" stroke-miterlimit="10" stroke-linecap="round"/>
<path d="M281.511 303.117V362.828L283.736 363.546V307.458C283.736 307.458 285.499 305.573 284.867 302.995L281.511 303.117Z" stroke="white" stroke-width="0.4913" stroke-miterlimit="10" stroke-linecap="round"/>
<path d="M288.588 303.044C289.22 305.634 287.457 307.786 287.457 307.786V363.4L283.724 363.546" stroke="white" stroke-width="0.4913" stroke-miterlimit="10" stroke-linecap="round"/>
<path d="M344.652 357.564L382.137 356.75" stroke="white" stroke-width="0.2339" stroke-miterlimit="10"/>
<path d="M142.306 361.953L315.325 358.196" stroke="white" stroke-width="0.2339" stroke-miterlimit="10"/>
<path d="M-14.7603 138.05L133.601 36.3667L375.316 197.567V200.765L133.576 41.0356L-14.7603 141.297V138.05Z" stroke="white" stroke-width="0.7016" stroke-miterlimit="10" stroke-linecap="round" stroke-linejoin="round"/>
<path d="M-14.7603 141.297H-9.64143L133.601 47.0789L370.842 200.765H375.316" stroke="white" stroke-width="0.3742" stroke-miterlimit="10" stroke-linecap="round"/>
<path d="M133.6 47.0789V267.541" stroke="white" stroke-width="0.7016" stroke-miterlimit="10" stroke-linecap="round"/>
<path d="M370.842 200.765V300.236" stroke="white" stroke-width="0.3742" stroke-miterlimit="10" stroke-linecap="round"/>
<path d="M18.0074 119.143V285.037" stroke="white" stroke-width="0.3742" stroke-miterlimit="10" stroke-linecap="round"/>
<path d="M21.7158 284.49V116.639L24.9014 118.572V284.016" stroke="white" stroke-width="0.3742" stroke-miterlimit="10" stroke-linecap="round"/>
<path d="M47.8815 98.8506V280.599" stroke="white" stroke-width="0.6766" stroke-miterlimit="10" stroke-linecap="round"/>
<path d="M52.7085 279.87V95.6892L56.8546 97.5495V279.249" stroke="white" stroke-width="0.6766" stroke-miterlimit="10" stroke-linecap="round"/>
<path d="M84.4914 74.0341V274.677" stroke="white" stroke-width="0.6766" stroke-miterlimit="10" stroke-linecap="round"/>
<path d="M89.3184 274.386V70.8853L93.4646 73.4751V273.754" stroke="white" stroke-width="0.6766" stroke-miterlimit="10" stroke-linecap="round"/>
<path d="M288.284 143.157V288.77" stroke="white" stroke-width="0.3742" stroke-miterlimit="10" stroke-linecap="round"/>
<path d="M284.575 288.259V140.652L281.39 142.914V287.87" stroke="white" stroke-width="0.3742" stroke-miterlimit="10" stroke-linecap="round"/>
<path d="M321.052 164.678V293.305" stroke="white" stroke-width="0.3742" stroke-miterlimit="10" stroke-linecap="round"/>
<path d="M317.343 292.794V162.416L314.145 163.936V292.357" stroke="white" stroke-width="0.3742" stroke-miterlimit="10" stroke-linecap="round"/>
<path d="M344.652 180.12V296.576" stroke="white" stroke-width="0.3742" stroke-miterlimit="10" stroke-linecap="round"/>
<path d="M340.943 296.065V177.846L337.745 179.366V295.615" stroke="white" stroke-width="0.3742" stroke-miterlimit="10" stroke-linecap="round"/>
<path d="M371.608 300.296V198.139L368.41 199.659V300.029" stroke="white" stroke-width="0.3742" stroke-miterlimit="10" stroke-linecap="round"/>
<path d="M251.516 118.924V283.687" stroke="white" stroke-width="0.6766" stroke-miterlimit="10" stroke-linecap="round"/>
<path d="M246.689 283.055V115.763L242.531 117.624V282.484" stroke="white" stroke-width="0.6766" stroke-miterlimit="10" stroke-linecap="round"/>
<path d="M205.252 88.3571V277.34" stroke="white" stroke-width="0.6766" stroke-miterlimit="10" stroke-linecap="round"/>
<path d="M200.425 276.623V85.2084L196.266 87.7982V276.088" stroke="white" stroke-width="0.6766" stroke-miterlimit="10" stroke-linecap="round"/>
<path d="M361.735 310.753V359.874L363.862 360.591V315.422C363.862 315.422 365.54 313.61 364.932 311.02L361.735 310.753Z" stroke="white" stroke-width="0.2339" stroke-miterlimit="10"/>
<path d="M368.495 311.288C369.188 314.084 367.413 315.689 367.413 315.689V360.433L363.85 360.579" stroke="white" stroke-width="0.2339" stroke-miterlimit="10"/>
<path d="M16.4268 322.291L-2.55298 323.252" stroke="white" stroke-width="0.2339" stroke-miterlimit="10"/>
<path d="M16.4268 351.071L-2.55298 350.584" stroke="white" stroke-width="0.2339" stroke-miterlimit="10"/>
<path d="M16.4268 352.627H-2.55298" stroke="white" stroke-width="0.2339" stroke-miterlimit="10"/>
<path d="M22.3846 350.828L47.4195 350.645" stroke="white" stroke-width="0.2339" stroke-miterlimit="10"/>
<path d="M22.3846 352.263L47.4195 352.19" stroke="white" stroke-width="0.2339" stroke-miterlimit="10"/>
<path d="M22.3846 321.817L47.4195 320.857" stroke="white" stroke-width="0.2339" stroke-miterlimit="10"/>
<path d="M25.2054 321.708L25.2905 350.803" stroke="white" stroke-width="0.2339" stroke-miterlimit="10"/>
<path d="M54.6417 320.613L83.3242 319.86" stroke="white" stroke-width="0.2339" stroke-miterlimit="10"/>
<path d="M54.6417 350.354L82.5946 350.183" stroke="white" stroke-width="0.2339" stroke-miterlimit="10"/>
<path d="M54.6417 351.861L82.9959 351.788" stroke="white" stroke-width="0.2339" stroke-miterlimit="10"/>
<path d="M57.4139 320.541V349.952" stroke="white" stroke-width="0.2339" stroke-miterlimit="10"/>
<path d="M92.3459 319.021L125.758 318.534" stroke="white" stroke-width="0.2339" stroke-miterlimit="10"/>
<path d="M107.544 318.802V366.951" stroke="white" stroke-width="0.2339" stroke-miterlimit="10"/>
<path d="M94.7533 321.331H105.222V353.783H95.3126L94.7533 321.331Z" stroke="white" stroke-width="0.2339" stroke-miterlimit="10"/>
<path d="M109.453 321.331V353.782H123.448V321.015L109.453 321.331Z" stroke="white" stroke-width="0.2339" stroke-miterlimit="10"/>
<path d="M196.267 355.618L142.306 356.749" stroke="white" stroke-width="0.2339" stroke-miterlimit="10"/>
<path d="M142.476 353.783L196.267 352.992" stroke="white" stroke-width="0.2339" stroke-miterlimit="10"/>
<path d="M142.476 317.659L196.267 318.534" stroke="white" stroke-width="0.2339" stroke-miterlimit="10"/>
<path d="M193.944 318.097V353.017" stroke="white" stroke-width="0.2339" stroke-miterlimit="10"/>
<path d="M205.617 318.534L245.266 319.859" stroke="white" stroke-width="0.2339" stroke-miterlimit="10"/>
<path d="M205.617 352.591L245.643 352.348" stroke="white" stroke-width="0.2339" stroke-miterlimit="10"/>
<path d="M205.617 354.828L245.643 354.585" stroke="white" stroke-width="0.2339" stroke-miterlimit="10"/>
<path d="M243.102 319.86V352.36" stroke="white" stroke-width="0.2339" stroke-miterlimit="10"/>
<path d="M252.865 352.36H281.511" stroke="white" stroke-width="0.2339" stroke-miterlimit="10"/>
<path d="M252.865 354.828L281.511 354.5" stroke="white" stroke-width="0.2339" stroke-miterlimit="10"/>
<path d="M252.865 319.86L281.511 320.613" stroke="white" stroke-width="0.2339" stroke-miterlimit="10"/>
<path d="M279.712 320.565V352.36" stroke="white" stroke-width="0.2339" stroke-miterlimit="10"/>
<path d="M315.325 306.303V361.382" stroke="white" stroke-width="0.3742" stroke-miterlimit="10" stroke-linecap="round"/>
<path d="M344.652 308.868V360.336" stroke="white" stroke-width="0.3742" stroke-miterlimit="10" stroke-linecap="round"/>
<path d="M320.419 361.199V312.163L340.323 313.659V360.336" stroke="white" stroke-width="0.2339" stroke-miterlimit="10"/>
<path d="M287.457 352.36H315.325" stroke="white" stroke-width="0.2339" stroke-miterlimit="10"/>
<path d="M287.457 354.5L315.325 354.184" stroke="white" stroke-width="0.2339" stroke-miterlimit="10"/>
<path d="M287.457 320.565L315.325 321.975" stroke="white" stroke-width="0.2339" stroke-miterlimit="10"/>
<path d="M313.367 321.878V352.36" stroke="white" stroke-width="0.2339" stroke-miterlimit="10"/>
<path d="M344.652 323.374L361.735 324.213" stroke="white" stroke-width="0.2339" stroke-miterlimit="10"/>
<path d="M344.652 351.424H361.735" stroke="white" stroke-width="0.2339" stroke-miterlimit="10"/>
<path d="M344.652 352.809L361.735 352.627" stroke="white" stroke-width="0.2339" stroke-miterlimit="10"/>
<path d="M359.996 324.127V351.132" stroke="white" stroke-width="0.2339" stroke-miterlimit="10"/>
<path d="M11.1986 145.613V169.59" stroke="white" stroke-width="0.3742" stroke-miterlimit="10" stroke-linecap="round"/>
<path d="M11.1986 180.338V204.315" stroke="white" stroke-width="0.3742" stroke-miterlimit="10" stroke-linecap="round"/>
<path d="M11.1986 218.006V241.995" stroke="white" stroke-width="0.3742" stroke-miterlimit="10" stroke-linecap="round"/>
<path d="M11.1986 252.926V276.915" stroke="white" stroke-width="0.3742" stroke-miterlimit="10" stroke-linecap="round"/>
<path d="M337.855 360.579V313.464" stroke="white" stroke-width="0.2339" stroke-miterlimit="10"/>
<path d="M146.817 304.928L146.27 314.327L191.342 315.093V306.825L146.817 304.928Z" stroke="white" stroke-width="0.2339" stroke-miterlimit="10"/>
<path d="M121.928 304.928V314.339C121.928 314.339 95.9085 315.47 96.2732 315.105C96.638 314.741 96.0301 307.543 96.2732 307.19C96.5043 306.825 121.928 304.928 121.928 304.928Z" stroke="white" stroke-width="0.2339" stroke-miterlimit="10"/>
<path d="M79.2388 316.893L58.1434 318.097V309.221L79.2388 306.266V316.893Z" stroke="white" stroke-width="0.2339" stroke-miterlimit="10"/>
<path d="M43.9907 318.097L25.2419 318.802L24.9015 311.142L43.9907 310.011V318.097Z" stroke="white" stroke-width="0.2339" stroke-miterlimit="10"/>
<path d="M13.7276 320.541L-0.376473 321.015L-0.656128 313.659L13.7276 312.176V320.541Z" stroke="white" stroke-width="0.2339" stroke-miterlimit="10"/>
<path d="M208.255 315.166L242.531 316.771V311.142L208.255 308.382V315.166Z" stroke="white" stroke-width="0.2339" stroke-miterlimit="10"/>
<path d="M256.452 316.93L278.751 318.097V313.464L256.452 312.163V316.93Z" stroke="white" stroke-width="0.2339" stroke-miterlimit="10"/>
<path d="M289.901 318.534L312.322 319.86V316.054L289.901 314.327V318.534Z" stroke="white" stroke-width="0.2339" stroke-miterlimit="10"/>
<path d="M346.621 321.878L359.449 322.656V319.86L346.621 319.191V321.878Z" stroke="white" stroke-width="0.2339" stroke-miterlimit="10"/>
<path d="M298.801 146.537V134.767L289.305 125.77V140.202" stroke="white" stroke-width="0.3742" stroke-miterlimit="10" stroke-linecap="round"/>
<path d="M289.305 125.77L279.712 133.223" stroke="white" stroke-width="0.3742" stroke-miterlimit="10" stroke-linecap="round"/>
<path d="M18.0074 141.43L9.45984 146.683V170.502L18.0074 166.416" stroke="white" stroke-width="0.2339" stroke-miterlimit="10" stroke-linecap="round"/>
<path d="M4.11 172.982V149.321L-5.41028 154.27V177.299L4.11 172.982Z" stroke="white" stroke-width="0.2339" stroke-miterlimit="10" stroke-linecap="round"/>
<path d="M47.8814 123.861L39.2001 129.369V155.267L47.8814 150.829" stroke="white" stroke-width="0.2339" stroke-miterlimit="10" stroke-linecap="round"/>
<path d="M37.1574 130.451V156.227L28.1599 160.264V135.971L37.1574 130.451Z" stroke="white" stroke-width="0.2339" stroke-miterlimit="10" stroke-linecap="round"/>
<path d="M29.5703 135.108V159.62" stroke="white" stroke-width="0.2339" stroke-miterlimit="10" stroke-linecap="round"/>
<path d="M40.8657 128.311L40.8414 154.428" stroke="white" stroke-width="0.2339" stroke-miterlimit="10" stroke-linecap="round"/>
<path d="M69.2929 111.265L58.1434 118.146V145.358L69.8887 138.926L69.2929 111.265Z" stroke="white" stroke-width="0.2339" stroke-miterlimit="10" stroke-linecap="round"/>
<path d="M84.4913 131.533L72.1624 137.77V109.465L84.4913 101.793" stroke="white" stroke-width="0.2339" stroke-miterlimit="10" stroke-linecap="round"/>
<path d="M59.5051 117.308V144.434" stroke="white" stroke-width="0.2339" stroke-miterlimit="10" stroke-linecap="round"/>
<path d="M73.7065 108.517V136.883" stroke="white" stroke-width="0.2339" stroke-miterlimit="10" stroke-linecap="round"/>
<path d="M96.2731 94.7163V125.296L107.532 119.143V87.5305L96.2731 94.7163Z" stroke="white" stroke-width="0.2339" stroke-miterlimit="10" stroke-linecap="round"/>
<path d="M124.798 109.27L111.01 117.137V85.1352L124.798 75.7729V109.27Z" stroke="white" stroke-width="0.2339" stroke-miterlimit="10" stroke-linecap="round"/>
<path d="M97.6349 93.853V124.773" stroke="white" stroke-width="0.2339" stroke-miterlimit="10" stroke-linecap="round"/>
<path d="M112.213 84.3086V116.298" stroke="white" stroke-width="0.2339" stroke-miterlimit="10" stroke-linecap="round"/>
<path d="M18.0074 176.97L9.45984 181.189V205.02L18.0074 201.956" stroke="white" stroke-width="0.2339" stroke-miterlimit="10" stroke-linecap="round"/>
<path d="M4.11 206.856V183.196L-5.41028 187.013V210.03L4.11 206.856Z" stroke="white" stroke-width="0.2339" stroke-miterlimit="10" stroke-linecap="round"/>
<path d="M47.8814 162.963L39.2001 167.45V193.348L47.8814 189.943" stroke="white" stroke-width="0.2339" stroke-miterlimit="10" stroke-linecap="round"/>
<path d="M37.1574 168.277V194.053L28.1599 197.008V172.715L37.1574 168.277Z" stroke="white" stroke-width="0.2339" stroke-miterlimit="10" stroke-linecap="round"/>
<path d="M29.5703 172.022V196.546" stroke="white" stroke-width="0.2339" stroke-miterlimit="10" stroke-linecap="round"/>
<path d="M40.8657 166.587L40.8414 192.704" stroke="white" stroke-width="0.2339" stroke-miterlimit="10" stroke-linecap="round"/>
<path d="M69.2929 152.933L58.1434 158.477V185.688L69.8887 180.667L69.2929 152.933Z" stroke="white" stroke-width="0.2339" stroke-miterlimit="10" stroke-linecap="round"/>
<path d="M84.4913 175.013L72.1624 179.779V151.486L84.4913 145.285" stroke="white" stroke-width="0.2339" stroke-miterlimit="10" stroke-linecap="round"/>
<path d="M59.5051 157.796V184.934" stroke="white" stroke-width="0.2339" stroke-miterlimit="10" stroke-linecap="round"/>
<path d="M73.7065 150.707V179.086" stroke="white" stroke-width="0.2339" stroke-miterlimit="10" stroke-linecap="round"/>
<path d="M96.2731 139.619V170.186L107.532 165.395V133.77L96.2731 139.619Z" stroke="white" stroke-width="0.2339" stroke-miterlimit="10" stroke-linecap="round"/>
<path d="M124.798 157.577L111.01 163.803V131.789L124.798 124.08V157.577Z" stroke="white" stroke-width="0.2339" stroke-miterlimit="10" stroke-linecap="round"/>
<path d="M97.6349 138.913V169.833" stroke="white" stroke-width="0.2339" stroke-miterlimit="10" stroke-linecap="round"/>
<path d="M112.213 131.119V163.097" stroke="white" stroke-width="0.2339" stroke-miterlimit="10" stroke-linecap="round"/>
<path d="M18.0074 215.708L9.45984 218.602V242.42L18.0074 240.694" stroke="white" stroke-width="0.2339" stroke-miterlimit="10" stroke-linecap="round"/>
<path d="M4.11 243.418V219.757L-5.41028 222.091V245.108L4.11 243.418Z" stroke="white" stroke-width="0.2339" stroke-miterlimit="10" stroke-linecap="round"/>
<path d="M47.8814 206.382L39.2001 209.495V235.393L47.8814 233.35" stroke="white" stroke-width="0.2339" stroke-miterlimit="10" stroke-linecap="round"/>
<path d="M37.1574 210.018V235.794L28.1599 237.338V213.045L37.1574 210.018Z" stroke="white" stroke-width="0.2339" stroke-miterlimit="10" stroke-linecap="round"/>
<path d="M29.5703 212.571V237.083" stroke="white" stroke-width="0.2339" stroke-miterlimit="10" stroke-linecap="round"/>
<path d="M40.8657 208.899L40.8414 235.004" stroke="white" stroke-width="0.2339" stroke-miterlimit="10" stroke-linecap="round"/>
<path d="M69.2929 199.695L58.1434 203.489V230.712L69.8887 227.526L69.2929 199.695Z" stroke="white" stroke-width="0.2339" stroke-miterlimit="10" stroke-linecap="round"/>
<path d="M84.4913 224.158L72.1624 226.991V198.685L84.4913 194.418" stroke="white" stroke-width="0.2339" stroke-miterlimit="10" stroke-linecap="round"/>
<path d="M59.5051 203.026V230.165" stroke="white" stroke-width="0.2339" stroke-miterlimit="10" stroke-linecap="round"/>
<path d="M73.7065 198.163V226.529" stroke="white" stroke-width="0.2339" stroke-miterlimit="10" stroke-linecap="round"/>
<path d="M96.2731 190.588V221.167L107.532 218.128V186.515L96.2731 190.588Z" stroke="white" stroke-width="0.2339" stroke-miterlimit="10" stroke-linecap="round"/>
<path d="M124.798 213.021L111.01 217.082V185.068L124.798 179.524V213.021Z" stroke="white" stroke-width="0.2339" stroke-miterlimit="10" stroke-linecap="round"/>
<path d="M97.6349 190.102V221.021" stroke="white" stroke-width="0.2339" stroke-miterlimit="10" stroke-linecap="round"/>
<path d="M112.213 184.581V216.571" stroke="white" stroke-width="0.2339" stroke-miterlimit="10" stroke-linecap="round"/>
<path d="M18.0074 250.774L9.45984 253.485V277.304L18.0074 275.76" stroke="white" stroke-width="0.2339" stroke-miterlimit="10" stroke-linecap="round"/>
<path d="M4.11 278.192V254.531L-5.41028 256.671V279.699L4.11 278.192Z" stroke="white" stroke-width="0.2339" stroke-miterlimit="10" stroke-linecap="round"/>
<path d="M47.8814 244.926L39.2001 247.6V273.499L47.8814 271.906" stroke="white" stroke-width="0.2339" stroke-miterlimit="10" stroke-linecap="round"/>
<path d="M37.1574 248.002V273.79L28.1599 274.86V250.567L37.1574 248.002Z" stroke="white" stroke-width="0.2339" stroke-miterlimit="10" stroke-linecap="round"/>
<path d="M29.5703 250.166V274.678" stroke="white" stroke-width="0.2339" stroke-miterlimit="10" stroke-linecap="round"/>
<path d="M40.8657 247.078L40.8414 273.195" stroke="white" stroke-width="0.2339" stroke-miterlimit="10" stroke-linecap="round"/>
<path d="M69.2929 240.901L58.1434 243.576V270.787L69.8887 268.793L69.2929 240.901Z" stroke="white" stroke-width="0.2339" stroke-miterlimit="10" stroke-linecap="round"/>
<path d="M84.4913 266.896L72.1624 268.489V240.195L84.4913 237.168" stroke="white" stroke-width="0.2339" stroke-miterlimit="10" stroke-linecap="round"/>
<path d="M59.5051 243.248V270.374" stroke="white" stroke-width="0.2339" stroke-miterlimit="10" stroke-linecap="round"/>
<path d="M73.7065 239.819V268.185" stroke="white" stroke-width="0.2339" stroke-miterlimit="10" stroke-linecap="round"/>
<path d="M96.2731 234.542V265.109L107.532 263.212V231.599L96.2731 234.542Z" stroke="white" stroke-width="0.2339" stroke-miterlimit="10" stroke-linecap="round"/>
<path d="M124.798 259.857L111.01 262.519V230.506L124.798 226.359V259.857Z" stroke="white" stroke-width="0.2339" stroke-miterlimit="10" stroke-linecap="round"/>
<path d="M97.6349 234.177V265.109" stroke="white" stroke-width="0.2339" stroke-miterlimit="10" stroke-linecap="round"/>
<path d="M112.213 230.153V262.13" stroke="white" stroke-width="0.2339" stroke-miterlimit="10" stroke-linecap="round"/>
<path d="M224.657 119.946L239.357 129.649L239.564 155.462L224.086 146.562L224.657 119.946Z" stroke="white" stroke-width="0.2339" stroke-miterlimit="10" stroke-linecap="round"/>
<path d="M204.851 135.582L221.082 144.872L220.864 117.369L205.252 106.669" stroke="white" stroke-width="0.2339" stroke-miterlimit="10" stroke-linecap="round"/>
<path d="M237.557 128.481L237.764 154.282" stroke="white" stroke-width="0.2339" stroke-miterlimit="10" stroke-linecap="round"/>
<path d="M218.833 115.982L219.064 143.631" stroke="white" stroke-width="0.2339" stroke-miterlimit="10" stroke-linecap="round"/>
<path d="M224.985 160.252L239.661 167.912L239.88 193.725L224.414 186.977L224.985 160.252Z" stroke="white" stroke-width="0.2339" stroke-miterlimit="10" stroke-linecap="round"/>
<path d="M205.203 178.758L221.423 185.712L221.192 158.209L204.972 149.236" stroke="white" stroke-width="0.2339" stroke-miterlimit="10" stroke-linecap="round"/>
<path d="M237.874 166.988L238.08 192.801" stroke="white" stroke-width="0.2339" stroke-miterlimit="10" stroke-linecap="round"/>
<path d="M219.174 157.103L219.392 184.764" stroke="white" stroke-width="0.2339" stroke-miterlimit="10" stroke-linecap="round"/>
<path d="M225.35 205.482L240.014 210.625L240.233 236.438L224.791 232.341L225.35 205.482Z" stroke="white" stroke-width="0.2339" stroke-miterlimit="10" stroke-linecap="round"/>
<path d="M205.604 227.538L221.8 231.599L221.569 204.096L205.361 198.017" stroke="white" stroke-width="0.2339" stroke-miterlimit="10" stroke-linecap="round"/>
<path d="M238.226 210.005L238.433 235.806" stroke="white" stroke-width="0.2339" stroke-miterlimit="10" stroke-linecap="round"/>
<path d="M219.551 203.354L219.782 231.003" stroke="white" stroke-width="0.2339" stroke-miterlimit="10" stroke-linecap="round"/>
<path d="M288.296 158.635L296.673 164.265V185.579L288.296 181.08" stroke="white" stroke-width="0.2339" stroke-miterlimit="10" stroke-linecap="round"/>
<path d="M301.926 188.315V167.195L311.264 172.605V193.069L301.926 188.315Z" stroke="white" stroke-width="0.2339" stroke-miterlimit="10" stroke-linecap="round"/>
<path d="M309.622 171.657L309.61 192.278" stroke="white" stroke-width="0.2339" stroke-miterlimit="10" stroke-linecap="round"/>
<path d="M294.971 163.121V184.606" stroke="white" stroke-width="0.2339" stroke-miterlimit="10" stroke-linecap="round"/>
<path d="M288.284 190.564L296.673 195.16V216.474L288.284 213.021" stroke="white" stroke-width="0.2339" stroke-miterlimit="10" stroke-linecap="round"/>
<path d="M301.926 218.565V197.433L311.264 201.701V222.152L301.926 218.565Z" stroke="white" stroke-width="0.2339" stroke-miterlimit="10" stroke-linecap="round"/>
<path d="M309.61 200.948V221.569" stroke="white" stroke-width="0.2339" stroke-miterlimit="10" stroke-linecap="round"/>
<path d="M294.971 194.224L294.959 215.708" stroke="white" stroke-width="0.2339" stroke-miterlimit="10" stroke-linecap="round"/>
<path d="M288.284 225.374L296.673 228.633V249.959L288.284 247.831" stroke="white" stroke-width="0.2339" stroke-miterlimit="10" stroke-linecap="round"/>
<path d="M301.926 251.199V230.079L311.264 232.863V253.314L301.926 251.199Z" stroke="white" stroke-width="0.2339" stroke-miterlimit="10" stroke-linecap="round"/>
<path d="M309.61 232.378V252.999" stroke="white" stroke-width="0.2339" stroke-miterlimit="10" stroke-linecap="round"/>
<path d="M294.959 227.976V249.461" stroke="white" stroke-width="0.2339" stroke-miterlimit="10" stroke-linecap="round"/>
<path d="M288.284 256.878L296.673 259.856V281.183L288.284 279.335" stroke="white" stroke-width="0.2339" stroke-miterlimit="10" stroke-linecap="round"/>
<path d="M301.926 282.253V261.133L311.264 263.589V284.04L301.926 282.253Z" stroke="white" stroke-width="0.2339" stroke-miterlimit="10" stroke-linecap="round"/>
<path d="M309.61 263.163V283.785" stroke="white" stroke-width="0.2339" stroke-miterlimit="10" stroke-linecap="round"/>
<path d="M294.959 259.261V280.733" stroke="white" stroke-width="0.2339" stroke-miterlimit="10" stroke-linecap="round"/>
<path d="M321.052 179.803L326.535 183.427V202.37L321.052 199.573" stroke="white" stroke-width="0.2339" stroke-miterlimit="10" stroke-linecap="round"/>
<path d="M329.964 204.121V185.275L336.068 188.898V207.294L329.964 204.121Z" stroke="white" stroke-width="0.2339" stroke-miterlimit="10" stroke-linecap="round"/>
<path d="M334.985 188.241V206.771" stroke="white" stroke-width="0.2339" stroke-miterlimit="10" stroke-linecap="round"/>
<path d="M325.416 182.673V201.725" stroke="white" stroke-width="0.2339" stroke-miterlimit="10" stroke-linecap="round"/>
<path d="M321.052 207.914L326.535 210.869V229.8L321.052 227.684" stroke="white" stroke-width="0.2339" stroke-miterlimit="10" stroke-linecap="round"/>
<path d="M329.964 231.113V212.267L336.068 215.064V233.46L329.964 231.113Z" stroke="white" stroke-width="0.2339" stroke-miterlimit="10" stroke-linecap="round"/>
<path d="M334.985 214.565V233.083" stroke="white" stroke-width="0.2339" stroke-miterlimit="10" stroke-linecap="round"/>
<path d="M325.416 210.261V229.301" stroke="white" stroke-width="0.2339" stroke-miterlimit="10" stroke-linecap="round"/>
<path d="M321.052 238.566L326.535 240.597V259.54L321.052 258.336" stroke="white" stroke-width="0.2339" stroke-miterlimit="10" stroke-linecap="round"/>
<path d="M329.964 260.257V241.399L336.068 243.101V261.498L329.964 260.257Z" stroke="white" stroke-width="0.2339" stroke-miterlimit="10" stroke-linecap="round"/>
<path d="M334.985 242.797V261.315" stroke="white" stroke-width="0.2339" stroke-miterlimit="10" stroke-linecap="round"/>
<path d="M325.416 240.183V259.224" stroke="white" stroke-width="0.2339" stroke-miterlimit="10" stroke-linecap="round"/>
<path d="M321.052 266.3L326.535 268.331L326.523 287.262L321.052 286.07" stroke="white" stroke-width="0.2339" stroke-miterlimit="10" stroke-linecap="round"/>
<path d="M329.964 287.967V269.109L336.068 270.738V289.134L329.964 287.967Z" stroke="white" stroke-width="0.2339" stroke-miterlimit="10" stroke-linecap="round"/>
<path d="M334.985 270.446V288.976" stroke="white" stroke-width="0.2339" stroke-miterlimit="10" stroke-linecap="round"/>
<path d="M325.416 267.917V286.958" stroke="white" stroke-width="0.2339" stroke-miterlimit="10" stroke-linecap="round"/>
<path d="M344.737 191.087L352.591 196.838V214.212L344.737 209.58" stroke="white" stroke-width="0.2339" stroke-miterlimit="10" stroke-linecap="round"/>
<path d="M357.516 216.985V199.901L366.258 205.397V221.739L357.516 216.985Z" stroke="white" stroke-width="0.2339" stroke-miterlimit="10" stroke-linecap="round"/>
<path d="M364.714 204.437V220.948" stroke="white" stroke-width="0.2339" stroke-miterlimit="10" stroke-linecap="round"/>
<path d="M350.986 195.682V213.227" stroke="white" stroke-width="0.2339" stroke-miterlimit="10" stroke-linecap="round"/>
<path d="M344.737 217.398L352.591 222.006V239.381L344.737 235.891" stroke="white" stroke-width="0.2339" stroke-miterlimit="10" stroke-linecap="round"/>
<path d="M357.516 241.448V224.365L366.258 228.632V244.974L357.516 241.448Z" stroke="white" stroke-width="0.2339" stroke-miterlimit="10" stroke-linecap="round"/>
<path d="M364.714 227.891V244.403" stroke="white" stroke-width="0.2339" stroke-miterlimit="10" stroke-linecap="round"/>
<path d="M350.986 221.082V238.615" stroke="white" stroke-width="0.2339" stroke-miterlimit="10" stroke-linecap="round"/>
<path d="M344.737 246.08L352.591 249.278V266.653L344.737 264.574" stroke="white" stroke-width="0.2339" stroke-miterlimit="10" stroke-linecap="round"/>
<path d="M357.503 267.857L357.515 250.774L366.258 253.534V269.875L357.503 267.857Z" stroke="white" stroke-width="0.2339" stroke-miterlimit="10" stroke-linecap="round"/>
<path d="M364.714 253.047V269.559" stroke="white" stroke-width="0.2339" stroke-miterlimit="10" stroke-linecap="round"/>
<path d="M350.986 248.634V266.179" stroke="white" stroke-width="0.2339" stroke-miterlimit="10" stroke-linecap="round"/>
<path d="M344.737 272.039L352.591 274.714L352.579 292.089L344.737 290.532" stroke="white" stroke-width="0.2339" stroke-miterlimit="10" stroke-linecap="round"/>
<path d="M357.503 292.964V275.881L366.258 278.082V294.423L357.503 292.964Z" stroke="white" stroke-width="0.2339" stroke-miterlimit="10" stroke-linecap="round"/>
<path d="M364.713 277.693L364.701 294.205" stroke="white" stroke-width="0.2339" stroke-miterlimit="10" stroke-linecap="round"/>
<path d="M350.986 274.179V291.724" stroke="white" stroke-width="0.2339" stroke-miterlimit="10" stroke-linecap="round"/>
<path d="M251.151 138.925L263.699 146.853L263.784 170.319L251.236 163.754" stroke="white" stroke-width="0.2339" stroke-miterlimit="10" stroke-linecap="round"/>
<path d="M266.641 148.482L266.726 171.766L279.712 177.846L279.639 156.252L266.641 148.482Z" stroke="white" stroke-width="0.2339" stroke-miterlimit="10" stroke-linecap="round"/>
<path d="M277.608 155.048L277.693 176.897" stroke="white" stroke-width="0.2339" stroke-miterlimit="10" stroke-linecap="round"/>
<path d="M261.279 145.346L261.413 169.092" stroke="white" stroke-width="0.2339" stroke-miterlimit="10" stroke-linecap="round"/>
<path d="M251.285 174.928L263.82 181.36L263.905 204.838L251.37 199.756" stroke="white" stroke-width="0.2339" stroke-miterlimit="10" stroke-linecap="round"/>
<path d="M266.763 182.648L266.848 205.932L279.833 210.504L279.748 188.922L266.763 182.648Z" stroke="white" stroke-width="0.2339" stroke-miterlimit="10" stroke-linecap="round"/>
<path d="M277.73 187.95L277.803 209.799" stroke="white" stroke-width="0.2339" stroke-miterlimit="10" stroke-linecap="round"/>
<path d="M261.413 180.132L261.535 203.878" stroke="white" stroke-width="0.2339" stroke-miterlimit="10" stroke-linecap="round"/>
<path d="M251.418 214.881L263.954 219.477L264.039 242.956L251.516 239.709" stroke="white" stroke-width="0.2339" stroke-miterlimit="10" stroke-linecap="round"/>
<path d="M266.896 220.341L266.982 243.625L279.955 246.36L279.882 224.766L266.896 220.341Z" stroke="white" stroke-width="0.2339" stroke-miterlimit="10" stroke-linecap="round"/>
<path d="M277.852 224.086L277.937 245.923" stroke="white" stroke-width="0.2339" stroke-miterlimit="10" stroke-linecap="round"/>
<path d="M261.547 218.602L261.668 242.348" stroke="white" stroke-width="0.2339" stroke-miterlimit="10" stroke-linecap="round"/>
<path d="M251.552 250.36L264.076 254.008L264.161 277.486L251.637 275.188" stroke="white" stroke-width="0.2339" stroke-miterlimit="10" stroke-linecap="round"/>
<path d="M267.018 254.652L267.103 277.936L280.077 279.711L280.004 258.117L267.018 254.652Z" stroke="white" stroke-width="0.2339" stroke-miterlimit="10" stroke-linecap="round"/>
<path d="M277.973 257.582L278.058 279.432" stroke="white" stroke-width="0.2339" stroke-miterlimit="10" stroke-linecap="round"/>
<path d="M261.668 253.315L261.79 277.061" stroke="white" stroke-width="0.2339" stroke-miterlimit="10" stroke-linecap="round"/>
<path d="M225.678 245.339L240.33 248.646L240.536 274.459L225.119 272.307L225.678 245.339Z" stroke="white" stroke-width="0.2339" stroke-miterlimit="10" stroke-linecap="round"/>
<path d="M205.957 269.984L222.128 271.942L221.897 244.439L205.714 240.463" stroke="white" stroke-width="0.2339" stroke-miterlimit="10" stroke-linecap="round"/>
<path d="M238.53 248.244L238.749 274.057" stroke="white" stroke-width="0.2339" stroke-miterlimit="10" stroke-linecap="round"/>
<path d="M219.879 243.953L220.11 271.614" stroke="white" stroke-width="0.2339" stroke-miterlimit="10" stroke-linecap="round"/>
<path d="M193.288 103.726L193.361 133.223L174.879 123.666L174.806 92.5764L193.288 103.726Z" stroke="white" stroke-width="0.2339" stroke-miterlimit="10" stroke-linecap="round"/>
<path d="M146.574 107.933L169.177 120.553L169.116 88.88L146.501 74.0342L146.574 107.933Z" stroke="white" stroke-width="0.2339" stroke-miterlimit="10" stroke-linecap="round"/>
<path d="M191.05 102.389L191.123 132.299" stroke="white" stroke-width="0.2339" stroke-miterlimit="10" stroke-linecap="round"/>
<path d="M167.134 87.6158L167.207 119.314" stroke="white" stroke-width="0.2339" stroke-miterlimit="10" stroke-linecap="round"/>
<path d="M193.385 147.036L193.446 176.533L174.977 169.14L174.904 138.05L193.385 147.036Z" stroke="white" stroke-width="0.2339" stroke-miterlimit="10" stroke-linecap="round"/>
<path d="M146.671 156.835L169.274 166.696L169.213 135.035L146.598 122.925L146.671 156.835Z" stroke="white" stroke-width="0.2339" stroke-miterlimit="10" stroke-linecap="round"/>
<path d="M191.148 145.966L191.208 175.864" stroke="white" stroke-width="0.2339" stroke-miterlimit="10" stroke-linecap="round"/>
<path d="M167.232 134.001L167.304 165.699" stroke="white" stroke-width="0.2339" stroke-miterlimit="10" stroke-linecap="round"/>
<path d="M193.494 196.217L193.555 225.714L175.086 220.997L175.013 189.907L193.494 196.217Z" stroke="white" stroke-width="0.2339" stroke-miterlimit="10" stroke-linecap="round"/>
<path d="M146.793 212.948L169.384 219.404L169.323 187.743L146.72 179.05L146.793 212.948Z" stroke="white" stroke-width="0.2339" stroke-miterlimit="10" stroke-linecap="round"/>
<path d="M191.257 195.464L191.318 225.374" stroke="white" stroke-width="0.2339" stroke-miterlimit="10" stroke-linecap="round"/>
<path d="M167.353 187.001L167.414 218.699" stroke="white" stroke-width="0.2339" stroke-miterlimit="10" stroke-linecap="round"/>
<path d="M193.579 238.603L193.64 268.1L175.183 265.34L175.11 234.238L193.579 238.603Z" stroke="white" stroke-width="0.2339" stroke-miterlimit="10" stroke-linecap="round"/>
<path d="M146.89 260.355L169.481 264.343L169.42 232.681L146.817 226.456L146.89 260.355Z" stroke="white" stroke-width="0.2339" stroke-miterlimit="10" stroke-linecap="round"/>
<path d="M191.342 238.093L191.403 267.991" stroke="white" stroke-width="0.2339" stroke-miterlimit="10" stroke-linecap="round"/>
<path d="M167.45 232.147L167.511 263.857" stroke="white" stroke-width="0.2339" stroke-miterlimit="10" stroke-linecap="round"/>
<g opacity="0.5">
<path d="M-46.4459 145.613L-22.4811 127.241L1.55672 108.979L49.6567 72.466L97.9146 36.1722L122.05 18.0314L146.27 0L122.305 18.3718L98.2551 36.6221L50.1673 73.1469L1.89717 109.429L-22.2379 127.569L-46.4459 145.613Z" fill="white"/>
</g>
<g opacity="0.5">
<path d="M84.4914 3.64758L124.7 30.2022L164.848 56.8542L245.132 110.17L325.258 163.729L365.322 190.503L405.312 217.398L365.09 190.855L324.955 164.191L244.67 110.875L164.532 57.3284L124.481 30.5427L84.4914 3.64758Z" fill="white"/>
</g>
<g opacity="0.5">
<path d="M-32.8646 292.405L19.9286 284.259L72.7339 276.258L178.345 260.233L284.004 244.512L336.834 236.645L389.675 228.912L336.894 237.059L284.089 245.071L178.478 261.084L72.819 276.818L19.9894 284.672L-32.8646 292.405Z" fill="white"/>
</g>
<g opacity="0.5">
<path d="M425.544 357.138L79.2389 394.356L425.446 356.287C425.677 356.263 425.896 356.433 425.921 356.664C425.945 356.895 425.775 357.114 425.544 357.138Z" fill="white"/>
</g>
<g opacity="0.5">
<path d="M-54.4342 364.823L191.05 394.855L-54.5436 365.662C-54.7746 365.637 -54.9449 365.418 -54.9205 365.187C-54.8841 364.956 -54.6774 364.786 -54.4342 364.823Z" fill="white"/>
</g>
</g>
</svg>
