<svg width="486" height="1018" viewBox="0 0 486 1018" fill="none" xmlns="http://www.w3.org/2000/svg">
<g opacity="0.3">
<path d="M98.508 132.628L355.174 3.54645L485.217 139.711L476.381 140.043L353.209 8.96835L102.324 136.561L98.508 132.628Z" fill="#85CEE4"/>
<path d="M438.619 140.811L439.193 170.308L433.984 170.331L433.409 140.834L438.619 140.811Z" fill="#85CEE4"/>
<path d="M486 167.573L388.99 167.984L389.237 170.531L486 170.121V167.573Z" fill="#85CEE4"/>
<path d="M486 139.014L390.212 139.429L389.192 141.976L486 141.561V139.014Z" fill="#85CEE4"/>
<path d="M485.661 170.121H482.886V139.049H485.661V170.121Z" fill="#85CEE4"/>
<path d="M391.727 598.508H315.709V589.412H391.727V598.508Z" fill="#85CEE4"/>
<path d="M391.678 707.463H315.878V701.099H391.678V707.463Z" fill="#85CEE4"/>
<path d="M391.678 651.164H315.878V644.799H391.678V651.164Z" fill="#85CEE4"/>
<path d="M391.678 762.85H315.878V756.486H391.678V762.85Z" fill="#85CEE4"/>
<path d="M391.678 818.237H315.878V811.873H391.678V818.237Z" fill="#85CEE4"/>
<path d="M391.678 871.916H315.878V865.552H391.678V871.916Z" fill="#85CEE4"/>
<path d="M391.678 927.303H315.878V920.938H391.678V927.303Z" fill="#85CEE4"/>
<path d="M315.879 642.959L319.278 647.981L394.008 597.402L390.609 592.38L315.879 642.959Z" fill="#85CEE4"/>
<path d="M316.772 754.297L320.172 759.319L394.901 708.739L391.502 703.717L316.772 754.297Z" fill="#85CEE4"/>
<path d="M315.879 865.634L319.278 870.657L394.008 820.077L390.609 815.055L315.879 865.634Z" fill="#85CEE4"/>
<path d="M321.016 865.701L317.141 870.365L386.541 928.04L390.417 923.376L321.016 865.701Z" fill="#85CEE4"/>
<path d="M322.18 752.716L318.304 757.38L387.704 815.055L391.58 810.391L322.18 752.716Z" fill="#85CEE4"/>
<path d="M322.18 641.942L318.304 646.606L387.704 704.281L391.58 699.617L322.18 641.942Z" fill="#85CEE4"/>
<path d="M315.879 973.226L319.278 978.248L394.008 927.669L390.609 922.646L315.879 973.226Z" fill="#85CEE4"/>
<path d="M322.426 972.081H315.88V589.412H322.426V972.081Z" fill="#85CEE4"/>
<path d="M395.798 972.435H389.252V589.767H395.798V972.435Z" fill="#85CEE4"/>
<path d="M391.016 137.503H315.216V131.139H391.016V137.503Z" fill="#85CEE4"/>
<path d="M391.016 193.665H315.216V187.301H391.016V193.665Z" fill="#85CEE4"/>
<path d="M391.016 249.052H315.216V242.688H391.016V249.052Z" fill="#85CEE4"/>
<path d="M391.016 302.731H315.216V296.367H391.016V302.731Z" fill="#85CEE4"/>
<path d="M391.016 358.118H315.216V351.754H391.016V358.118Z" fill="#85CEE4"/>
<path d="M316.111 185.112L319.51 190.134L394.24 139.554L390.841 134.532L316.111 185.112Z" fill="#85CEE4"/>
<path d="M315.218 296.45L318.617 301.472L393.347 250.892L389.948 245.87L315.218 296.45Z" fill="#85CEE4"/>
<path d="M320.355 296.516L316.479 301.18L385.88 358.855L389.756 354.191L320.355 296.516Z" fill="#85CEE4"/>
<path d="M321.518 183.531L317.643 188.195L387.043 245.87L390.919 241.206L321.518 183.531Z" fill="#85CEE4"/>
<path d="M315.218 404.041L318.617 409.063L393.347 358.484L389.948 353.461L315.218 404.041Z" fill="#85CEE4"/>
<path d="M321.767 402.998H315.221V130.684H321.767V402.998Z" fill="#85CEE4"/>
<path d="M395.137 403.251H388.592V130.936H395.137V403.251Z" fill="#85CEE4"/>
<path d="M8.30145 135.073L8.87793 179.349L1.4324 179.398L0.85597 135.122L8.30145 135.073Z" fill="#85CEE4"/>
<path d="M45.2609 179.01L49.3457 177.004L7.37663 133.75L3.29179 135.758L45.2609 179.01Z" fill="#85CEE4"/>
<path d="M136.395 177.888L140.479 175.881L98.5104 132.628L94.4256 134.635L136.395 177.888Z" fill="#85CEE4"/>
<path d="M227.536 177.808L231.621 175.801L189.652 132.548L185.567 134.555L227.536 177.808Z" fill="#85CEE4"/>
<path d="M227.55 174.816L231.397 177.048L278.081 136.315L274.234 134.082L227.55 174.816Z" fill="#85CEE4"/>
<path d="M135.059 174.747L138.906 176.98L187.131 134.962L181.742 134.014L135.059 174.747Z" fill="#85CEE4"/>
<path d="M44.3832 175.345L48.2301 177.578L97.3389 135.073L91.067 134.612L44.3832 175.345Z" fill="#85CEE4"/>
<path d="M315.604 177.228L319.689 175.221L277.72 131.968L273.635 133.975L315.604 177.228Z" fill="#85CEE4"/>
<path d="M314.617 173.422L314.667 177.234L1.4321 179.299L1.38242 175.487L314.617 173.422Z" fill="#85CEE4"/>
<path d="M316.255 130.666L316.305 134.478L1.16653 136.561L1.11688 132.749L316.255 130.666Z" fill="#85CEE4"/>
<path d="M399.31 406.599H308.258V399.348H399.31V406.599Z" fill="#85CEE4"/>
<path d="M394.618 469.701H308.26V462.45H394.618V469.701Z" fill="#85CEE4"/>
<path d="M394.618 530.858H308.26V523.607H394.618V530.858Z" fill="#85CEE4"/>
<path d="M394.618 593.96H308.26V586.709H394.618V593.96Z" fill="#85CEE4"/>
<path d="M308.257 523.701L312.13 529.423L397.27 471.797L393.397 466.076L308.257 523.701Z" fill="#85CEE4"/>
<path d="M314.111 523.776L309.695 529.09L385.407 592.011L393.179 589.486L314.111 523.776Z" fill="#85CEE4"/>
<path d="M322.936 401.285L318.521 406.599L390.089 466.075L394.505 460.762L322.936 401.285Z" fill="#85CEE4"/>
<path d="M315.716 593.78H308.259V399.348H315.716V593.78Z" fill="#85CEE4"/>
<path d="M399.31 593.96H391.852V399.528H399.31V593.96Z" fill="#85CEE4"/>
<path d="M433.261 978.199H279.094V966.07H433.261V978.199Z" fill="white"/>
<path d="M449.336 987.632H264.271V975.503H449.336V987.632Z" fill="#85CEE4"/>
<path d="M459.945 1017.14H254.274V984.397H459.945V1017.14Z" fill="#85CEE4"/>
<path d="M320.228 132.548L318.491 129.982L377.01 90.3747L378.747 92.9408L320.228 132.548Z" fill="#85CEE4"/>
<path d="M331.373 88.1839L329.636 85.6182L370.308 58.0899L372.045 60.6556L331.373 88.1839Z" fill="#85CEE4"/>
<path d="M342.146 56.8473L340.41 54.2816L364.28 38.1251L366.017 40.6912L342.146 56.8473Z" fill="#85CEE4"/>
<path d="M331.499 84.5589L333.493 82.1873L389.993 129.689L388 132.06L331.499 84.5589Z" fill="#85CEE4"/>
<path d="M340.913 56.174L343.104 53.9832L382.312 93.1921L380.122 95.3829L340.913 56.174Z" fill="#85CEE4"/>
<path d="M348.618 27.5577L350.657 25.5191L365.661 40.5229L363.623 42.5619L348.618 27.5577Z" fill="#85CEE4"/>
<path d="M315.218 131.139L355.177 3.54645L395.137 132.548H387.016L355.177 21.7484L321.763 130.684L315.218 131.139Z" fill="#85CEE4"/>
<path d="M356.219 18.555C351.095 18.555 346.941 14.4013 346.941 9.27751C346.941 4.15369 351.095 0 356.219 0C361.342 0 365.496 4.15369 365.496 9.27751C365.496 14.4013 361.342 18.555 356.219 18.555Z" fill="white"/>
<path d="M152.874 181.447H156.209V298.521H152.874V181.447Z" fill="#85CEE4"/>
<path d="M133.44 298.528L136.775 298.515L136.4 180.267L133.064 180.28L133.44 298.528Z" fill="#85CEE4"/>
<path d="M154.911 317.364L158.998 295.074C159.852 290.413 156.272 286.117 151.533 286.117H141.381C136.233 286.117 132.176 290.503 132.576 295.636L134.363 318.564C134.599 321.596 136.148 324.353 138.57 326.192C142.26 328.994 147.477 334.811 148.611 345.748C149.426 353.599 146.122 360.836 139.07 364.608C135.223 366.666 130.082 368.195 125.719 367.163C123.292 366.551 114.656 363.281 114.063 360.816C105.383 341.008 95.4434 359.783 108.89 371.209C113.199 375.126 120.188 378.074 125.76 378.977C154.721 383.668 182.814 352.802 158.06 327.836C155.345 325.096 154.216 321.157 154.911 317.364Z" fill="#85CEE4"/>
<path d="M145.048 301.278C138.458 301.278 133.115 295.935 133.115 289.344C133.115 282.753 138.458 277.41 145.048 277.41C151.639 277.41 156.982 282.753 156.982 289.344C156.982 295.935 151.639 301.278 145.048 301.278Z" fill="#85CEE4"/>
<path d="M137.961 289.344C137.961 293.259 141.134 296.432 145.049 296.432C148.964 296.432 152.138 293.259 152.138 289.344C152.138 285.429 148.964 282.255 145.049 282.255C141.134 282.255 137.961 285.429 137.961 289.344Z" fill="white"/>
<path d="M144.436 192.104C137.333 192.104 131.575 186.346 131.575 179.243C131.575 172.139 137.333 166.381 144.436 166.381C151.539 166.381 157.298 172.139 157.298 179.243C157.298 186.346 151.539 192.104 144.436 192.104Z" fill="#85CEE4"/>
<path d="M139.041 184.646C136.058 181.663 136.058 176.826 139.041 173.842C142.024 170.859 146.861 170.859 149.844 173.842C152.828 176.826 152.828 181.663 149.844 184.646C146.861 187.629 142.024 187.629 139.041 184.646Z" fill="white"/>
</g>
</svg>
