<svg width="229" height="189" viewBox="0 0 229 189" fill="none" xmlns="http://www.w3.org/2000/svg">
<path d="M86.4697 25.084V128.221" stroke="#85CEE4" stroke-width="0.7016" stroke-miterlimit="10" stroke-linecap="round"/>
<path d="M94.8069 25.8523V128.244" stroke="#85CEE4" stroke-width="0.7016" stroke-miterlimit="10" stroke-linecap="round"/>
<path d="M17.1727 138.482C17.7909 138.418 90.2599 127.614 90.2599 127.614L209.69 144.138V144.849L90.2137 129.544L17.1727 139.348V138.482Z" stroke="#85CEE4" stroke-width="0.7016" stroke-miterlimit="10" stroke-linecap="round"/>
<path d="M17.7447 139.262C18.3629 139.198 90.2194 129.544 90.2194 129.544L209.129 144.774V145.479L90.1732 131.468L17.7447 140.129V139.262Z" stroke="#85CEE4" stroke-width="0.5896" stroke-miterlimit="10" stroke-linecap="round"/>
<path d="M18.9233 139.99C19.53 139.926 90.1443 131.468 90.1443 131.468L207.939 145.334V146.033L90.0981 133.369L18.9233 140.839V139.99Z" stroke="#85CEE4" stroke-width="0.5823" stroke-miterlimit="10" stroke-linecap="round"/>
<path d="M21.7717 140.544V144.843L89.8381 137.055L207.939 149.084V146.033L90.0981 133.368L21.7717 140.544Z" stroke="#85CEE4" stroke-width="0.5823" stroke-miterlimit="10" stroke-linecap="round"/>
<path d="M21.7717 144.843H24.961L89.8381 137.869L207.939 149.084L89.8381 137.055L21.7717 144.843Z" stroke="#85CEE4" stroke-width="0.3742" stroke-miterlimit="10" stroke-linecap="round"/>
<path d="M85.3258 138.355V140.204H86.1116V175.696L89.5897 175.927L93.9749 175.638V140.544H94.8069V138.355L89.8381 137.869L85.3258 138.355Z" stroke="#85CEE4" stroke-width="0.3742" stroke-miterlimit="10" stroke-linecap="round"/>
<path d="M22.8695 147.437L89.8381 141.798L93.9749 142.139" stroke="#85CEE4" stroke-width="0.3742" stroke-miterlimit="10" stroke-linecap="round"/>
<path d="M22.8695 148.067L89.8381 142.728L93.9749 143.069" stroke="#85CEE4" stroke-width="0.3742" stroke-miterlimit="10" stroke-linecap="round"/>
<path d="M86.1116 172.495H89.7342H93.9749" stroke="#85CEE4" stroke-width="0.3742" stroke-miterlimit="10" stroke-linecap="round"/>
<path d="M89.8381 142.728V172.494" stroke="#85CEE4" stroke-width="0.3742" stroke-miterlimit="10" stroke-linecap="round"/>
<path d="M86.1115 175.129L22.621 173.246V144.843" stroke="#85CEE4" stroke-width="0.3742" stroke-miterlimit="10" stroke-linecap="round"/>
<path d="M70.2346 139.978V174.661L68.8653 175.043V142.37C68.8653 142.37 67.7791 140.92 68.172 139.539L70.2346 139.978Z" stroke="#85CEE4" stroke-width="0.3742" stroke-miterlimit="10" stroke-linecap="round"/>
<path d="M65.0983 139.938C64.7054 141.319 65.7916 142.769 65.7916 142.769V174.881L68.8711 175.037" stroke="#85CEE4" stroke-width="0.3742" stroke-miterlimit="10" stroke-linecap="round"/>
<path d="M52.3181 141.867V174.13L51.0413 174.482V144.092C51.0413 144.092 50.0244 142.746 50.3884 141.457L52.3181 141.867Z" stroke="#85CEE4" stroke-width="0.5533" stroke-miterlimit="10" stroke-linecap="round"/>
<path d="M48.2391 141.902C47.8751 143.191 48.892 144.537 48.892 144.537V174.407L51.0413 174.482" stroke="#85CEE4" stroke-width="0.5533" stroke-miterlimit="10" stroke-linecap="round"/>
<path d="M52.3181 141.867V174.13L51.0413 174.482V144.092C51.0413 144.092 50.0244 142.746 50.3884 141.457L52.3181 141.867Z" stroke="#85CEE4" stroke-width="0.5533" stroke-miterlimit="10" stroke-linecap="round"/>
<path d="M48.2391 141.902C47.8751 143.191 48.892 144.537 48.892 144.537V174.407L51.0413 174.482" stroke="#85CEE4" stroke-width="0.5533" stroke-miterlimit="10" stroke-linecap="round"/>
<path d="M36.9901 143.555V173.708L35.9328 174.06V145.71C35.9328 145.71 35.095 144.571 35.3954 143.283L36.9901 143.555Z" stroke="#85CEE4" stroke-width="0.5024" stroke-miterlimit="10" stroke-linecap="round"/>
<path d="M33.6217 143.52C33.3213 144.808 34.159 146.154 34.159 146.154V173.985L35.9327 174.06" stroke="#85CEE4" stroke-width="0.5024" stroke-miterlimit="10" stroke-linecap="round"/>
<path d="M25.1401 144.826V173.321L24.129 173.662V146.934C24.129 146.934 23.3317 145.86 23.6206 144.629L25.1401 144.826Z" stroke="#85CEE4" stroke-width="0.2339" stroke-miterlimit="10"/>
<path d="M21.922 144.843C21.6331 146.073 22.4362 147.362 22.4362 147.362V173.587L24.129 173.656" stroke="#85CEE4" stroke-width="0.2339" stroke-miterlimit="10"/>
<path d="M70.2346 172.275L22.4362 171.628" stroke="#85CEE4" stroke-width="0.2339" stroke-miterlimit="10"/>
<path d="M176.191 149.153L93.9749 142.139" stroke="#85CEE4" stroke-width="0.3742" stroke-miterlimit="10" stroke-linecap="round"/>
<path d="M207.939 151.863L190.126 150.344" stroke="#85CEE4" stroke-width="0.3742" stroke-miterlimit="10" stroke-linecap="round"/>
<path d="M176.191 149.864L93.9749 143.069" stroke="#85CEE4" stroke-width="0.3742" stroke-miterlimit="10" stroke-linecap="round"/>
<path d="M207.939 152.493L190.126 151.02" stroke="#85CEE4" stroke-width="0.3742" stroke-miterlimit="10" stroke-linecap="round"/>
<path d="M94.0558 175.129L207.939 171.097V149.084" stroke="#85CEE4" stroke-width="0.3742" stroke-miterlimit="10" stroke-linecap="round"/>
<path d="M119.616 140.695V174.373L120.985 174.742V143.075C120.985 143.075 122.072 141.654 121.679 140.302L119.616 140.695Z" stroke="#85CEE4" stroke-width="0.5866" stroke-miterlimit="10" stroke-linecap="round"/>
<path d="M124.741 140.319C125.134 141.671 124.059 143.474 124.059 143.474V174.598L120.98 174.754" stroke="#85CEE4" stroke-width="0.5866" stroke-miterlimit="10" stroke-linecap="round"/>
<path d="M143.079 142.965V173.477L144.356 173.812V145.178C144.356 145.178 145.35 143.988 144.98 142.763L143.079 142.965Z" stroke="#85CEE4" stroke-width="0.54" stroke-miterlimit="10" stroke-linecap="round"/>
<path d="M147.135 142.89C147.499 144.115 146.511 145.397 146.511 145.397V173.742L144.362 173.812" stroke="#85CEE4" stroke-width="0.54" stroke-miterlimit="10" stroke-linecap="round"/>
<path d="M160.123 144.537V172.911L161.18 173.252V146.599C161.18 146.599 162.018 145.704 161.718 144.479L160.123 144.537Z" stroke="#85CEE4" stroke-width="0.4913" stroke-miterlimit="10" stroke-linecap="round"/>
<path d="M163.486 144.502C163.786 145.733 162.948 146.755 162.948 146.755V173.182L161.175 173.252" stroke="#85CEE4" stroke-width="0.4913" stroke-miterlimit="10" stroke-linecap="round"/>
<path d="M190.126 170.409L207.939 170.022" stroke="#85CEE4" stroke-width="0.2339" stroke-miterlimit="10"/>
<path d="M93.9749 172.495L176.191 170.709" stroke="#85CEE4" stroke-width="0.2339" stroke-miterlimit="10"/>
<path d="M19.3394 66.0992L89.8381 17.7808L204.698 94.3807V95.9003L89.8266 19.9994L19.3394 67.6418V66.0992Z" stroke="#85CEE4" stroke-width="0.7016" stroke-miterlimit="10" stroke-linecap="round" stroke-linejoin="round"/>
<path d="M19.3394 67.6425H21.7717L89.8381 22.8716L202.571 95.901H204.698" stroke="#85CEE4" stroke-width="0.3742" stroke-miterlimit="10" stroke-linecap="round"/>
<path d="M89.8381 22.8716V127.632" stroke="#85CEE4" stroke-width="0.7016" stroke-miterlimit="10" stroke-linecap="round"/>
<path d="M21.7717 67.6421V137.869" stroke="#85CEE4" stroke-width="0.3742" stroke-miterlimit="10" stroke-linecap="round"/>
<path d="M202.571 95.9006V143.168" stroke="#85CEE4" stroke-width="0.3742" stroke-miterlimit="10" stroke-linecap="round"/>
<path d="M34.9101 57.1152V135.945" stroke="#85CEE4" stroke-width="0.3742" stroke-miterlimit="10" stroke-linecap="round"/>
<path d="M36.6723 135.686V55.9253L38.186 56.8439V135.46" stroke="#85CEE4" stroke-width="0.3742" stroke-miterlimit="10" stroke-linecap="round"/>
<path d="M19.3394 67.7056V138.199" stroke="#85CEE4" stroke-width="0.7016" stroke-miterlimit="10" stroke-linecap="round"/>
<path d="M21.1015 137.962V66.5154L22.621 67.0816V137.598" stroke="#85CEE4" stroke-width="0.3742" stroke-miterlimit="10" stroke-linecap="round"/>
<path d="M49.1058 47.4724V133.837" stroke="#85CEE4" stroke-width="0.6766" stroke-miterlimit="10" stroke-linecap="round"/>
<path d="M51.3995 133.49V45.9702L53.3697 46.8542V133.195" stroke="#85CEE4" stroke-width="0.6766" stroke-miterlimit="10" stroke-linecap="round"/>
<path d="M66.5023 35.6802V131.023" stroke="#85CEE4" stroke-width="0.6766" stroke-miterlimit="10" stroke-linecap="round"/>
<path d="M68.796 130.884V34.1841L70.7661 35.4147V130.584" stroke="#85CEE4" stroke-width="0.6766" stroke-miterlimit="10" stroke-linecap="round"/>
<path d="M163.341 68.5261V137.719" stroke="#85CEE4" stroke-width="0.3742" stroke-miterlimit="10" stroke-linecap="round"/>
<path d="M161.579 137.476V67.3359L160.065 68.4106V137.292" stroke="#85CEE4" stroke-width="0.3742" stroke-miterlimit="10" stroke-linecap="round"/>
<path d="M178.912 78.7524V139.874" stroke="#85CEE4" stroke-width="0.3742" stroke-miterlimit="10" stroke-linecap="round"/>
<path d="M177.15 139.631V77.6777L175.63 78.3999V139.423" stroke="#85CEE4" stroke-width="0.3742" stroke-miterlimit="10" stroke-linecap="round"/>
<path d="M190.126 86.0901V141.428" stroke="#85CEE4" stroke-width="0.3742" stroke-miterlimit="10" stroke-linecap="round"/>
<path d="M188.364 141.186V85.0098L186.845 85.732V140.972" stroke="#85CEE4" stroke-width="0.3742" stroke-miterlimit="10" stroke-linecap="round"/>
<path d="M204.698 95.7329V143.468" stroke="#85CEE4" stroke-width="0.7016" stroke-miterlimit="10" stroke-linecap="round"/>
<path d="M202.935 143.196V94.6526L201.416 95.3748V143.069" stroke="#85CEE4" stroke-width="0.3742" stroke-miterlimit="10" stroke-linecap="round"/>
<path d="M145.87 57.0112V135.304" stroke="#85CEE4" stroke-width="0.6766" stroke-miterlimit="10" stroke-linecap="round"/>
<path d="M143.576 135.004V55.509L141.6 56.393V134.732" stroke="#85CEE4" stroke-width="0.6766" stroke-miterlimit="10" stroke-linecap="round"/>
<path d="M123.886 42.4861V132.288" stroke="#85CEE4" stroke-width="0.6766" stroke-miterlimit="10" stroke-linecap="round"/>
<path d="M121.592 131.947V40.9897L119.616 42.2204V131.693" stroke="#85CEE4" stroke-width="0.6766" stroke-miterlimit="10" stroke-linecap="round"/>
<path d="M198.244 148.165V171.507L199.255 171.848V150.384C199.255 150.384 200.052 149.523 199.764 148.292L198.244 148.165Z" stroke="#85CEE4" stroke-width="0.2339" stroke-miterlimit="10"/>
<path d="M201.456 148.419C201.786 149.748 200.942 150.511 200.942 150.511V171.772L199.249 171.842" stroke="#85CEE4" stroke-width="0.2339" stroke-miterlimit="10"/>
<path d="M34.159 153.648L25.1401 154.104" stroke="#85CEE4" stroke-width="0.2339" stroke-miterlimit="10"/>
<path d="M34.159 167.324L25.1401 167.093" stroke="#85CEE4" stroke-width="0.2339" stroke-miterlimit="10"/>
<path d="M34.159 168.063H25.1401" stroke="#85CEE4" stroke-width="0.2339" stroke-miterlimit="10"/>
<path d="M26.1743 154.104V167.122" stroke="#85CEE4" stroke-width="0.2339" stroke-miterlimit="10"/>
<path d="M36.9901 167.208L48.8862 167.121" stroke="#85CEE4" stroke-width="0.2339" stroke-miterlimit="10"/>
<path d="M36.9901 167.89L48.8862 167.855" stroke="#85CEE4" stroke-width="0.2339" stroke-miterlimit="10"/>
<path d="M36.9901 153.423L48.8862 152.966" stroke="#85CEE4" stroke-width="0.2339" stroke-miterlimit="10"/>
<path d="M38.3304 153.371L38.3709 167.196" stroke="#85CEE4" stroke-width="0.2339" stroke-miterlimit="10"/>
<path d="M52.3181 152.85L65.9476 152.492" stroke="#85CEE4" stroke-width="0.2339" stroke-miterlimit="10"/>
<path d="M52.3181 166.983L65.6009 166.902" stroke="#85CEE4" stroke-width="0.2339" stroke-miterlimit="10"/>
<path d="M52.3181 167.699L65.7916 167.664" stroke="#85CEE4" stroke-width="0.2339" stroke-miterlimit="10"/>
<path d="M53.6354 152.816V166.792" stroke="#85CEE4" stroke-width="0.2339" stroke-miterlimit="10"/>
<path d="M70.2346 152.094L86.1116 151.863" stroke="#85CEE4" stroke-width="0.2339" stroke-miterlimit="10"/>
<path d="M77.4567 151.99V174.87" stroke="#85CEE4" stroke-width="0.2339" stroke-miterlimit="10"/>
<path d="M71.3785 153.192H76.3531V168.612H71.6443L71.3785 153.192Z" stroke="#85CEE4" stroke-width="0.2339" stroke-miterlimit="10"/>
<path d="M78.3637 153.192V168.612H85.0138V153.042L78.3637 153.192Z" stroke="#85CEE4" stroke-width="0.2339" stroke-miterlimit="10"/>
<path d="M119.616 169.485L93.9749 170.022" stroke="#85CEE4" stroke-width="0.2339" stroke-miterlimit="10"/>
<path d="M94.0558 168.612L119.616 168.236" stroke="#85CEE4" stroke-width="0.2339" stroke-miterlimit="10"/>
<path d="M94.0558 151.447L119.616 151.863" stroke="#85CEE4" stroke-width="0.2339" stroke-miterlimit="10"/>
<path d="M118.513 151.655V168.248" stroke="#85CEE4" stroke-width="0.2339" stroke-miterlimit="10"/>
<path d="M124.059 151.863L142.9 152.492" stroke="#85CEE4" stroke-width="0.2339" stroke-miterlimit="10"/>
<path d="M124.059 168.046L143.079 167.93" stroke="#85CEE4" stroke-width="0.2339" stroke-miterlimit="10"/>
<path d="M124.059 169.109L143.079 168.994" stroke="#85CEE4" stroke-width="0.2339" stroke-miterlimit="10"/>
<path d="M141.872 152.492V167.936" stroke="#85CEE4" stroke-width="0.2339" stroke-miterlimit="10"/>
<path d="M146.511 167.936H160.123" stroke="#85CEE4" stroke-width="0.2339" stroke-miterlimit="10"/>
<path d="M146.511 169.109L160.123 168.953" stroke="#85CEE4" stroke-width="0.2339" stroke-miterlimit="10"/>
<path d="M146.511 152.492L160.123 152.85" stroke="#85CEE4" stroke-width="0.2339" stroke-miterlimit="10"/>
<path d="M159.268 152.828V167.936" stroke="#85CEE4" stroke-width="0.2339" stroke-miterlimit="10"/>
<path d="M176.191 146.051V172.223" stroke="#85CEE4" stroke-width="0.3742" stroke-miterlimit="10" stroke-linecap="round"/>
<path d="M190.126 147.27V171.726" stroke="#85CEE4" stroke-width="0.3742" stroke-miterlimit="10" stroke-linecap="round"/>
<path d="M178.612 172.137V148.835L188.07 149.546V171.726" stroke="#85CEE4" stroke-width="0.2339" stroke-miterlimit="10"/>
<path d="M162.948 167.936H176.191" stroke="#85CEE4" stroke-width="0.2339" stroke-miterlimit="10"/>
<path d="M162.948 168.953L176.191 168.803" stroke="#85CEE4" stroke-width="0.2339" stroke-miterlimit="10"/>
<path d="M162.948 152.828L176.191 153.498" stroke="#85CEE4" stroke-width="0.2339" stroke-miterlimit="10"/>
<path d="M175.261 153.451V167.936" stroke="#85CEE4" stroke-width="0.2339" stroke-miterlimit="10"/>
<path d="M190.126 154.162L198.244 154.561" stroke="#85CEE4" stroke-width="0.2339" stroke-miterlimit="10"/>
<path d="M190.126 167.491H198.244" stroke="#85CEE4" stroke-width="0.2339" stroke-miterlimit="10"/>
<path d="M190.126 168.15L198.244 168.063" stroke="#85CEE4" stroke-width="0.2339" stroke-miterlimit="10"/>
<path d="M197.418 154.52V167.352" stroke="#85CEE4" stroke-width="0.2339" stroke-miterlimit="10"/>
<path d="M31.6746 69.6931V81.0866" stroke="#85CEE4" stroke-width="0.3742" stroke-miterlimit="10" stroke-linecap="round"/>
<path d="M31.6746 86.1941V97.5876" stroke="#85CEE4" stroke-width="0.3742" stroke-miterlimit="10" stroke-linecap="round"/>
<path d="M31.6746 104.093V115.492" stroke="#85CEE4" stroke-width="0.3742" stroke-miterlimit="10" stroke-linecap="round"/>
<path d="M31.6746 120.687V132.086" stroke="#85CEE4" stroke-width="0.3742" stroke-miterlimit="10" stroke-linecap="round"/>
<path d="M186.897 171.842V149.453" stroke="#85CEE4" stroke-width="0.2339" stroke-miterlimit="10"/>
<path d="M96.1185 145.397L95.8585 149.863L117.276 150.227V146.299L96.1185 145.397Z" stroke="#85CEE4" stroke-width="0.2339" stroke-miterlimit="10"/>
<path d="M84.2916 145.397V149.869C84.2916 149.869 71.9275 150.406 72.1008 150.233C72.2741 150.06 71.9852 146.639 72.1008 146.472C72.2106 146.299 84.2916 145.397 84.2916 145.397Z" stroke="#85CEE4" stroke-width="0.2339" stroke-miterlimit="10"/>
<path d="M64.0063 151.083L53.9821 151.655V147.437L64.0063 146.033V151.083Z" stroke="#85CEE4" stroke-width="0.2339" stroke-miterlimit="10"/>
<path d="M47.2569 151.655L38.3478 151.99L38.186 148.35L47.2569 147.813V151.655Z" stroke="#85CEE4" stroke-width="0.2339" stroke-miterlimit="10"/>
<path d="M32.8763 152.816L26.1743 153.042L26.0414 149.546L32.8763 148.841V152.816Z" stroke="#85CEE4" stroke-width="0.2339" stroke-miterlimit="10"/>
<path d="M125.313 150.262L141.6 151.025V148.35L125.313 147.038V150.262Z" stroke="#85CEE4" stroke-width="0.2339" stroke-miterlimit="10"/>
<path d="M148.215 151.1L158.812 151.655V149.454L148.215 148.835V151.1Z" stroke="#85CEE4" stroke-width="0.2339" stroke-miterlimit="10"/>
<path d="M164.11 151.863L174.764 152.493V150.684L164.11 149.864V151.863Z" stroke="#85CEE4" stroke-width="0.2339" stroke-miterlimit="10"/>
<path d="M191.062 153.452L197.158 153.821V152.493L191.062 152.175V153.452Z" stroke="#85CEE4" stroke-width="0.2339" stroke-miterlimit="10"/>
<path d="M168.339 70.1324V64.5396L163.827 60.2642V67.1222" stroke="#85CEE4" stroke-width="0.3742" stroke-miterlimit="10" stroke-linecap="round"/>
<path d="M163.827 60.2642L159.268 63.8059" stroke="#85CEE4" stroke-width="0.3742" stroke-miterlimit="10" stroke-linecap="round"/>
<path d="M34.9101 67.7056L30.8484 70.2015V81.5199L34.9101 79.5786" stroke="#85CEE4" stroke-width="0.2339" stroke-miterlimit="10" stroke-linecap="round"/>
<path d="M28.3062 82.6989V71.4556L23.7823 73.8071V84.7499L28.3062 82.6989Z" stroke="#85CEE4" stroke-width="0.2339" stroke-miterlimit="10" stroke-linecap="round"/>
<path d="M24.5797 73.3909V84.4146" stroke="#85CEE4" stroke-width="0.2339" stroke-miterlimit="10" stroke-linecap="round"/>
<path d="M49.1058 59.3569L44.9805 61.9742V74.2806L49.1058 72.1717" stroke="#85CEE4" stroke-width="0.2339" stroke-miterlimit="10" stroke-linecap="round"/>
<path d="M44.0099 62.4885V74.7371L39.7344 76.6553V65.1116L44.0099 62.4885Z" stroke="#85CEE4" stroke-width="0.2339" stroke-miterlimit="10" stroke-linecap="round"/>
<path d="M40.4046 64.7012V76.3489" stroke="#85CEE4" stroke-width="0.2339" stroke-miterlimit="10" stroke-linecap="round"/>
<path d="M45.772 61.4714L45.7605 73.8818" stroke="#85CEE4" stroke-width="0.2339" stroke-miterlimit="10" stroke-linecap="round"/>
<path d="M59.2802 53.3713L53.9821 56.6415V69.5718L59.5633 66.5155L59.2802 53.3713Z" stroke="#85CEE4" stroke-width="0.2339" stroke-miterlimit="10" stroke-linecap="round"/>
<path d="M66.5023 63.0025L60.6437 65.9664V52.5161L66.5023 48.8704" stroke="#85CEE4" stroke-width="0.2339" stroke-miterlimit="10" stroke-linecap="round"/>
<path d="M54.6292 56.2429V69.1328" stroke="#85CEE4" stroke-width="0.2339" stroke-miterlimit="10" stroke-linecap="round"/>
<path d="M61.3775 52.0657V65.5449" stroke="#85CEE4" stroke-width="0.2339" stroke-miterlimit="10" stroke-linecap="round"/>
<path d="M72.1008 45.5081V60.0389L77.4509 57.1154V42.0935L72.1008 45.5081Z" stroke="#85CEE4" stroke-width="0.2339" stroke-miterlimit="10" stroke-linecap="round"/>
<path d="M85.6551 52.4238L79.1033 56.1619V40.9551L85.6551 36.5063V52.4238Z" stroke="#85CEE4" stroke-width="0.2339" stroke-miterlimit="10" stroke-linecap="round"/>
<path d="M72.7479 45.0977V59.7902" stroke="#85CEE4" stroke-width="0.2339" stroke-miterlimit="10" stroke-linecap="round"/>
<path d="M79.6753 40.5623V55.7632" stroke="#85CEE4" stroke-width="0.2339" stroke-miterlimit="10" stroke-linecap="round"/>
<path d="M34.9101 84.5938L30.8484 86.5986V97.9228L34.9101 96.4668" stroke="#85CEE4" stroke-width="0.2339" stroke-miterlimit="10" stroke-linecap="round"/>
<path d="M28.3062 98.795V87.5518L23.7823 89.3659V100.303L28.3062 98.795Z" stroke="#85CEE4" stroke-width="0.2339" stroke-miterlimit="10" stroke-linecap="round"/>
<path d="M24.5797 89.0422V100.066" stroke="#85CEE4" stroke-width="0.2339" stroke-miterlimit="10" stroke-linecap="round"/>
<path d="M49.1058 77.9375L44.9805 80.0695V92.3758L49.1058 90.7581" stroke="#85CEE4" stroke-width="0.2339" stroke-miterlimit="10" stroke-linecap="round"/>
<path d="M44.0099 80.4626V92.7112L39.7344 94.1152V82.5715L44.0099 80.4626Z" stroke="#85CEE4" stroke-width="0.2339" stroke-miterlimit="10" stroke-linecap="round"/>
<path d="M40.4046 82.2422V93.8957" stroke="#85CEE4" stroke-width="0.2339" stroke-miterlimit="10" stroke-linecap="round"/>
<path d="M45.772 79.6594L45.7605 92.0698" stroke="#85CEE4" stroke-width="0.2339" stroke-miterlimit="10" stroke-linecap="round"/>
<path d="M59.2802 73.1716L53.9821 75.8062V88.7366L59.5633 86.3504L59.2802 73.1716Z" stroke="#85CEE4" stroke-width="0.2339" stroke-miterlimit="10" stroke-linecap="round"/>
<path d="M66.5023 83.6634L60.6437 85.9283V72.4837L66.5023 69.5371" stroke="#85CEE4" stroke-width="0.2339" stroke-miterlimit="10" stroke-linecap="round"/>
<path d="M54.6292 75.4824V88.3781" stroke="#85CEE4" stroke-width="0.2339" stroke-miterlimit="10" stroke-linecap="round"/>
<path d="M61.3775 72.114V85.599" stroke="#85CEE4" stroke-width="0.2339" stroke-miterlimit="10" stroke-linecap="round"/>
<path d="M72.1008 66.8447V81.3697L77.4509 79.0933V64.0657L72.1008 66.8447Z" stroke="#85CEE4" stroke-width="0.2339" stroke-miterlimit="10" stroke-linecap="round"/>
<path d="M85.6551 75.3783L79.1033 78.3365V63.124L85.6551 59.4609V75.3783Z" stroke="#85CEE4" stroke-width="0.2339" stroke-miterlimit="10" stroke-linecap="round"/>
<path d="M72.7479 66.5093V81.2018" stroke="#85CEE4" stroke-width="0.2339" stroke-miterlimit="10" stroke-linecap="round"/>
<path d="M79.6753 62.8062V78.0013" stroke="#85CEE4" stroke-width="0.2339" stroke-miterlimit="10" stroke-linecap="round"/>
<path d="M34.9101 103.001L30.8484 104.376V115.695L34.9101 114.874" stroke="#85CEE4" stroke-width="0.2339" stroke-miterlimit="10" stroke-linecap="round"/>
<path d="M28.3062 116.169V104.925L23.7823 106.035V116.972L28.3062 116.169Z" stroke="#85CEE4" stroke-width="0.2339" stroke-miterlimit="10" stroke-linecap="round"/>
<path d="M24.5797 105.838V116.856" stroke="#85CEE4" stroke-width="0.2339" stroke-miterlimit="10" stroke-linecap="round"/>
<path d="M49.1058 98.5698L44.9805 100.049V112.355L49.1058 111.385" stroke="#85CEE4" stroke-width="0.2339" stroke-miterlimit="10" stroke-linecap="round"/>
<path d="M44.0099 100.297V112.546L39.7344 113.279V101.736L44.0099 100.297Z" stroke="#85CEE4" stroke-width="0.2339" stroke-miterlimit="10" stroke-linecap="round"/>
<path d="M40.4046 101.511V113.158" stroke="#85CEE4" stroke-width="0.2339" stroke-miterlimit="10" stroke-linecap="round"/>
<path d="M45.772 99.7659L45.7605 112.17" stroke="#85CEE4" stroke-width="0.2339" stroke-miterlimit="10" stroke-linecap="round"/>
<path d="M59.2802 95.3921L53.9821 97.1947V110.131L59.5633 108.617L59.2802 95.3921Z" stroke="#85CEE4" stroke-width="0.2339" stroke-miterlimit="10" stroke-linecap="round"/>
<path d="M66.5023 107.017L60.6437 108.363V94.9125L66.5023 92.8845" stroke="#85CEE4" stroke-width="0.2339" stroke-miterlimit="10" stroke-linecap="round"/>
<path d="M54.6292 96.9751V109.871" stroke="#85CEE4" stroke-width="0.2339" stroke-miterlimit="10" stroke-linecap="round"/>
<path d="M61.3775 94.6641V108.143" stroke="#85CEE4" stroke-width="0.2339" stroke-miterlimit="10" stroke-linecap="round"/>
<path d="M72.1008 91.0647V105.595L77.4509 104.151V89.1292L72.1008 91.0647Z" stroke="#85CEE4" stroke-width="0.2339" stroke-miterlimit="10" stroke-linecap="round"/>
<path d="M85.6551 101.724L79.1033 103.654V88.4415L85.6551 85.8069V101.724Z" stroke="#85CEE4" stroke-width="0.2339" stroke-miterlimit="10" stroke-linecap="round"/>
<path d="M72.7479 90.8335V105.526" stroke="#85CEE4" stroke-width="0.2339" stroke-miterlimit="10" stroke-linecap="round"/>
<path d="M79.6753 88.2104V103.411" stroke="#85CEE4" stroke-width="0.2339" stroke-miterlimit="10" stroke-linecap="round"/>
<path d="M34.9101 119.664L30.8484 120.952V132.271L34.9101 131.537" stroke="#85CEE4" stroke-width="0.2339" stroke-miterlimit="10" stroke-linecap="round"/>
<path d="M28.3062 132.693V121.449L23.7823 122.466V133.409L28.3062 132.693Z" stroke="#85CEE4" stroke-width="0.2339" stroke-miterlimit="10" stroke-linecap="round"/>
<path d="M24.5797 122.287V133.311" stroke="#85CEE4" stroke-width="0.2339" stroke-miterlimit="10" stroke-linecap="round"/>
<path d="M49.1058 116.885L44.9805 118.156V130.462L49.1058 129.706" stroke="#85CEE4" stroke-width="0.2339" stroke-miterlimit="10" stroke-linecap="round"/>
<path d="M44.0099 118.347V130.601L39.7344 131.109V119.566L44.0099 118.347Z" stroke="#85CEE4" stroke-width="0.2339" stroke-miterlimit="10" stroke-linecap="round"/>
<path d="M40.4046 119.375V131.023" stroke="#85CEE4" stroke-width="0.2339" stroke-miterlimit="10" stroke-linecap="round"/>
<path d="M45.772 117.907L45.7605 130.318" stroke="#85CEE4" stroke-width="0.2339" stroke-miterlimit="10" stroke-linecap="round"/>
<path d="M59.2802 114.972L53.9821 116.243V129.174L59.5633 128.226L59.2802 114.972Z" stroke="#85CEE4" stroke-width="0.2339" stroke-miterlimit="10" stroke-linecap="round"/>
<path d="M66.5023 127.325L60.6437 128.082V114.637L66.5023 113.198" stroke="#85CEE4" stroke-width="0.2339" stroke-miterlimit="10" stroke-linecap="round"/>
<path d="M54.6292 116.088V128.978" stroke="#85CEE4" stroke-width="0.2339" stroke-miterlimit="10" stroke-linecap="round"/>
<path d="M61.3775 114.458V127.937" stroke="#85CEE4" stroke-width="0.2339" stroke-miterlimit="10" stroke-linecap="round"/>
<path d="M72.1008 111.951V126.476L77.4509 125.575V110.553L72.1008 111.951Z" stroke="#85CEE4" stroke-width="0.2339" stroke-miterlimit="10" stroke-linecap="round"/>
<path d="M85.6551 123.98L79.1033 125.245V110.033L85.6551 108.062V123.98Z" stroke="#85CEE4" stroke-width="0.2339" stroke-miterlimit="10" stroke-linecap="round"/>
<path d="M72.7479 111.778V126.476" stroke="#85CEE4" stroke-width="0.2339" stroke-miterlimit="10" stroke-linecap="round"/>
<path d="M79.6753 109.865V125.06" stroke="#85CEE4" stroke-width="0.2339" stroke-miterlimit="10" stroke-linecap="round"/>
<path d="M133.107 57.4966L140.092 62.1071L140.19 74.3731L132.835 70.1438L133.107 57.4966Z" stroke="#85CEE4" stroke-width="0.2339" stroke-miterlimit="10" stroke-linecap="round"/>
<path d="M123.695 64.9267L131.408 69.3409L131.304 56.2718L123.886 51.1875" stroke="#85CEE4" stroke-width="0.2339" stroke-miterlimit="10" stroke-linecap="round"/>
<path d="M139.237 61.5525L139.335 73.8126" stroke="#85CEE4" stroke-width="0.2339" stroke-miterlimit="10" stroke-linecap="round"/>
<path d="M130.339 55.613L130.449 68.7514" stroke="#85CEE4" stroke-width="0.2339" stroke-miterlimit="10" stroke-linecap="round"/>
<path d="M133.263 76.6494L140.236 80.2893L140.34 92.5553L132.991 89.3487L133.263 76.6494Z" stroke="#85CEE4" stroke-width="0.2339" stroke-miterlimit="10" stroke-linecap="round"/>
<path d="M123.863 85.4429L131.57 88.7477L131.46 75.6787L123.753 71.4148" stroke="#85CEE4" stroke-width="0.2339" stroke-miterlimit="10" stroke-linecap="round"/>
<path d="M139.387 79.8503L139.485 92.1163" stroke="#85CEE4" stroke-width="0.2339" stroke-miterlimit="10" stroke-linecap="round"/>
<path d="M130.501 75.1528L130.605 88.297" stroke="#85CEE4" stroke-width="0.2339" stroke-miterlimit="10" stroke-linecap="round"/>
<path d="M133.436 98.1423L140.404 100.586L140.508 112.852L133.17 110.905L133.436 98.1423Z" stroke="#85CEE4" stroke-width="0.2339" stroke-miterlimit="10" stroke-linecap="round"/>
<path d="M124.053 108.623L131.749 110.553L131.639 97.4835L123.938 94.5947" stroke="#85CEE4" stroke-width="0.2339" stroke-miterlimit="10" stroke-linecap="round"/>
<path d="M139.555 100.292L139.653 112.552" stroke="#85CEE4" stroke-width="0.2339" stroke-miterlimit="10" stroke-linecap="round"/>
<path d="M130.68 97.1311L130.79 110.269" stroke="#85CEE4" stroke-width="0.2339" stroke-miterlimit="10" stroke-linecap="round"/>
<path d="M163.347 75.8811L167.328 78.5562V88.6844L163.347 86.5466" stroke="#85CEE4" stroke-width="0.2339" stroke-miterlimit="10" stroke-linecap="round"/>
<path d="M169.824 89.9842V79.9485L174.261 82.5195V92.2433L169.824 89.9842Z" stroke="#85CEE4" stroke-width="0.2339" stroke-miterlimit="10" stroke-linecap="round"/>
<path d="M173.481 82.0686L173.475 91.8675" stroke="#85CEE4" stroke-width="0.2339" stroke-miterlimit="10" stroke-linecap="round"/>
<path d="M166.519 78.0129V88.222" stroke="#85CEE4" stroke-width="0.2339" stroke-miterlimit="10" stroke-linecap="round"/>
<path d="M163.341 91.053L167.328 93.2369V103.365L163.341 101.724" stroke="#85CEE4" stroke-width="0.2339" stroke-miterlimit="10" stroke-linecap="round"/>
<path d="M169.824 104.359V94.3174L174.261 96.3453V106.063L169.824 104.359Z" stroke="#85CEE4" stroke-width="0.2339" stroke-miterlimit="10" stroke-linecap="round"/>
<path d="M173.475 95.9873V105.786" stroke="#85CEE4" stroke-width="0.2339" stroke-miterlimit="10" stroke-linecap="round"/>
<path d="M166.519 92.7925L166.513 103.002" stroke="#85CEE4" stroke-width="0.2339" stroke-miterlimit="10" stroke-linecap="round"/>
<path d="M163.341 107.594L167.328 109.143V119.277L163.341 118.266" stroke="#85CEE4" stroke-width="0.2339" stroke-miterlimit="10" stroke-linecap="round"/>
<path d="M169.824 119.866V109.83L174.261 111.153V120.871L169.824 119.866Z" stroke="#85CEE4" stroke-width="0.2339" stroke-miterlimit="10" stroke-linecap="round"/>
<path d="M173.475 110.922V120.721" stroke="#85CEE4" stroke-width="0.2339" stroke-miterlimit="10" stroke-linecap="round"/>
<path d="M166.513 108.831V119.04" stroke="#85CEE4" stroke-width="0.2339" stroke-miterlimit="10" stroke-linecap="round"/>
<path d="M163.341 122.564L167.328 123.98V134.114L163.341 133.236" stroke="#85CEE4" stroke-width="0.2339" stroke-miterlimit="10" stroke-linecap="round"/>
<path d="M169.824 134.622V124.587L174.261 125.754V135.472L169.824 134.622Z" stroke="#85CEE4" stroke-width="0.2339" stroke-miterlimit="10" stroke-linecap="round"/>
<path d="M173.475 125.552V135.35" stroke="#85CEE4" stroke-width="0.2339" stroke-miterlimit="10" stroke-linecap="round"/>
<path d="M166.513 123.697V133.9" stroke="#85CEE4" stroke-width="0.2339" stroke-miterlimit="10" stroke-linecap="round"/>
<path d="M178.912 85.9399L181.518 87.6617V96.6632L178.912 95.3344" stroke="#85CEE4" stroke-width="0.2339" stroke-miterlimit="10" stroke-linecap="round"/>
<path d="M183.147 97.4951V88.5398L186.047 90.2615V99.0031L183.147 97.4951Z" stroke="#85CEE4" stroke-width="0.2339" stroke-miterlimit="10" stroke-linecap="round"/>
<path d="M185.533 89.9495V98.7546" stroke="#85CEE4" stroke-width="0.2339" stroke-miterlimit="10" stroke-linecap="round"/>
<path d="M180.986 87.3035V96.357" stroke="#85CEE4" stroke-width="0.2339" stroke-miterlimit="10" stroke-linecap="round"/>
<path d="M178.912 99.2976L181.518 100.702V109.697L178.912 108.692" stroke="#85CEE4" stroke-width="0.2339" stroke-miterlimit="10" stroke-linecap="round"/>
<path d="M183.147 110.321V101.366L186.047 102.695V111.436L183.147 110.321Z" stroke="#85CEE4" stroke-width="0.2339" stroke-miterlimit="10" stroke-linecap="round"/>
<path d="M185.533 102.458V111.257" stroke="#85CEE4" stroke-width="0.2339" stroke-miterlimit="10" stroke-linecap="round"/>
<path d="M180.986 100.413V109.461" stroke="#85CEE4" stroke-width="0.2339" stroke-miterlimit="10" stroke-linecap="round"/>
<path d="M178.912 113.863L181.518 114.828V123.83L178.912 123.258" stroke="#85CEE4" stroke-width="0.2339" stroke-miterlimit="10" stroke-linecap="round"/>
<path d="M183.147 124.17V115.209L186.047 116.018V124.76L183.147 124.17Z" stroke="#85CEE4" stroke-width="0.2339" stroke-miterlimit="10" stroke-linecap="round"/>
<path d="M185.533 115.874V124.673" stroke="#85CEE4" stroke-width="0.2339" stroke-miterlimit="10" stroke-linecap="round"/>
<path d="M180.986 114.632V123.68" stroke="#85CEE4" stroke-width="0.2339" stroke-miterlimit="10" stroke-linecap="round"/>
<path d="M178.912 127.042L181.518 128.007L181.512 137.003L178.912 136.437" stroke="#85CEE4" stroke-width="0.2339" stroke-miterlimit="10" stroke-linecap="round"/>
<path d="M183.147 137.338V128.376L186.047 129.151V137.892L183.147 137.338Z" stroke="#85CEE4" stroke-width="0.2339" stroke-miterlimit="10" stroke-linecap="round"/>
<path d="M185.533 129.012V137.817" stroke="#85CEE4" stroke-width="0.2339" stroke-miterlimit="10" stroke-linecap="round"/>
<path d="M180.986 127.811V136.858" stroke="#85CEE4" stroke-width="0.2339" stroke-miterlimit="10" stroke-linecap="round"/>
<path d="M190.167 91.3018L193.899 94.0346V102.291L190.167 100.09" stroke="#85CEE4" stroke-width="0.2339" stroke-miterlimit="10" stroke-linecap="round"/>
<path d="M196.239 103.608V95.4902L200.393 98.1017V105.867L196.239 103.608Z" stroke="#85CEE4" stroke-width="0.2339" stroke-miterlimit="10" stroke-linecap="round"/>
<path d="M199.66 97.6455V105.492" stroke="#85CEE4" stroke-width="0.2339" stroke-miterlimit="10" stroke-linecap="round"/>
<path d="M193.137 93.4854V101.822" stroke="#85CEE4" stroke-width="0.2339" stroke-miterlimit="10" stroke-linecap="round"/>
<path d="M190.167 103.804L193.899 105.994V114.25L190.167 112.592" stroke="#85CEE4" stroke-width="0.2339" stroke-miterlimit="10" stroke-linecap="round"/>
<path d="M196.239 115.232V107.115L200.393 109.143V116.908L196.239 115.232Z" stroke="#85CEE4" stroke-width="0.2339" stroke-miterlimit="10" stroke-linecap="round"/>
<path d="M199.66 108.79V116.636" stroke="#85CEE4" stroke-width="0.2339" stroke-miterlimit="10" stroke-linecap="round"/>
<path d="M193.137 105.555V113.886" stroke="#85CEE4" stroke-width="0.2339" stroke-miterlimit="10" stroke-linecap="round"/>
<path d="M190.167 117.434L193.899 118.953V127.21L190.167 126.222" stroke="#85CEE4" stroke-width="0.2339" stroke-miterlimit="10" stroke-linecap="round"/>
<path d="M196.233 127.781L196.239 119.664L200.393 120.975V128.74L196.233 127.781Z" stroke="#85CEE4" stroke-width="0.2339" stroke-miterlimit="10" stroke-linecap="round"/>
<path d="M199.66 120.744V128.59" stroke="#85CEE4" stroke-width="0.2339" stroke-miterlimit="10" stroke-linecap="round"/>
<path d="M193.137 118.647V126.985" stroke="#85CEE4" stroke-width="0.2339" stroke-miterlimit="10" stroke-linecap="round"/>
<path d="M190.167 129.769L193.899 131.04L193.893 139.296L190.167 138.557" stroke="#85CEE4" stroke-width="0.2339" stroke-miterlimit="10" stroke-linecap="round"/>
<path d="M196.233 139.713V131.595L200.393 132.641V140.406L196.233 139.713Z" stroke="#85CEE4" stroke-width="0.2339" stroke-miterlimit="10" stroke-linecap="round"/>
<path d="M199.66 132.456L199.654 140.302" stroke="#85CEE4" stroke-width="0.2339" stroke-miterlimit="10" stroke-linecap="round"/>
<path d="M193.137 130.786V139.123" stroke="#85CEE4" stroke-width="0.2339" stroke-miterlimit="10" stroke-linecap="round"/>
<path d="M145.696 66.5154L151.659 70.2824L151.699 81.4332L145.737 78.3133" stroke="#85CEE4" stroke-width="0.2339" stroke-miterlimit="10" stroke-linecap="round"/>
<path d="M153.057 71.0566L153.097 82.1208L159.268 85.0096L159.233 74.7486L153.057 71.0566Z" stroke="#85CEE4" stroke-width="0.2339" stroke-miterlimit="10" stroke-linecap="round"/>
<path d="M158.268 74.1768L158.309 84.5592" stroke="#85CEE4" stroke-width="0.2339" stroke-miterlimit="10" stroke-linecap="round"/>
<path d="M150.509 69.5662L150.573 80.8499" stroke="#85CEE4" stroke-width="0.2339" stroke-miterlimit="10" stroke-linecap="round"/>
<path d="M145.76 83.623L151.717 86.6794L151.757 97.836L145.8 95.421" stroke="#85CEE4" stroke-width="0.2339" stroke-miterlimit="10" stroke-linecap="round"/>
<path d="M153.115 87.292L153.155 98.3562L159.326 100.529L159.285 90.2733L153.115 87.292Z" stroke="#85CEE4" stroke-width="0.2339" stroke-miterlimit="10" stroke-linecap="round"/>
<path d="M158.326 89.811L158.361 100.193" stroke="#85CEE4" stroke-width="0.2339" stroke-miterlimit="10" stroke-linecap="round"/>
<path d="M150.573 86.0962L150.63 97.3799" stroke="#85CEE4" stroke-width="0.2339" stroke-miterlimit="10" stroke-linecap="round"/>
<path d="M145.823 102.608L151.78 104.792L151.821 115.949L145.87 114.406" stroke="#85CEE4" stroke-width="0.2339" stroke-miterlimit="10" stroke-linecap="round"/>
<path d="M153.178 105.203L153.219 116.267L159.384 117.567L159.349 107.306L153.178 105.203Z" stroke="#85CEE4" stroke-width="0.2339" stroke-miterlimit="10" stroke-linecap="round"/>
<path d="M158.384 106.982L158.425 117.359" stroke="#85CEE4" stroke-width="0.2339" stroke-miterlimit="10" stroke-linecap="round"/>
<path d="M150.636 104.376L150.694 115.66" stroke="#85CEE4" stroke-width="0.2339" stroke-miterlimit="10" stroke-linecap="round"/>
<path d="M145.887 119.467L151.838 121.201L151.878 132.357L145.927 131.265" stroke="#85CEE4" stroke-width="0.2339" stroke-miterlimit="10" stroke-linecap="round"/>
<path d="M153.236 121.507L153.277 132.571L159.441 133.415L159.407 123.154L153.236 121.507Z" stroke="#85CEE4" stroke-width="0.2339" stroke-miterlimit="10" stroke-linecap="round"/>
<path d="M158.442 122.899L158.482 133.282" stroke="#85CEE4" stroke-width="0.2339" stroke-miterlimit="10" stroke-linecap="round"/>
<path d="M150.694 120.871L150.752 132.155" stroke="#85CEE4" stroke-width="0.2339" stroke-miterlimit="10" stroke-linecap="round"/>
<path d="M133.592 117.081L140.554 118.653L140.652 130.919L133.326 129.896L133.592 117.081Z" stroke="#85CEE4" stroke-width="0.2339" stroke-miterlimit="10" stroke-linecap="round"/>
<path d="M124.221 128.792L131.905 129.722L131.795 116.653L124.105 114.764" stroke="#85CEE4" stroke-width="0.2339" stroke-miterlimit="10" stroke-linecap="round"/>
<path d="M139.699 118.462L139.803 130.728" stroke="#85CEE4" stroke-width="0.2339" stroke-miterlimit="10" stroke-linecap="round"/>
<path d="M130.836 116.423L130.946 129.567" stroke="#85CEE4" stroke-width="0.2339" stroke-miterlimit="10" stroke-linecap="round"/>
<path d="M118.201 49.7891L118.235 63.8056L109.453 59.2644L109.419 44.491L118.201 49.7891Z" stroke="#85CEE4" stroke-width="0.2339" stroke-miterlimit="10" stroke-linecap="round"/>
<path d="M96.0029 51.7882L106.744 57.7854L106.715 42.7347L95.9682 35.6802L96.0029 51.7882Z" stroke="#85CEE4" stroke-width="0.2339" stroke-miterlimit="10" stroke-linecap="round"/>
<path d="M117.137 49.1536L117.172 63.3666" stroke="#85CEE4" stroke-width="0.2339" stroke-miterlimit="10" stroke-linecap="round"/>
<path d="M105.773 42.1338L105.808 57.1961" stroke="#85CEE4" stroke-width="0.2339" stroke-miterlimit="10" stroke-linecap="round"/>
<path d="M118.247 70.3693L118.276 84.3858L109.499 80.873L109.465 66.0996L118.247 70.3693Z" stroke="#85CEE4" stroke-width="0.2339" stroke-miterlimit="10" stroke-linecap="round"/>
<path d="M96.0491 75.026L106.79 79.7116L106.761 64.6666L96.0144 58.9121L96.0491 75.026Z" stroke="#85CEE4" stroke-width="0.2339" stroke-miterlimit="10" stroke-linecap="round"/>
<path d="M117.184 69.8608L117.213 84.0681" stroke="#85CEE4" stroke-width="0.2339" stroke-miterlimit="10" stroke-linecap="round"/>
<path d="M105.819 64.1753L105.854 79.2376" stroke="#85CEE4" stroke-width="0.2339" stroke-miterlimit="10" stroke-linecap="round"/>
<path d="M118.299 93.7396L118.328 107.756L109.551 105.514L109.517 90.741L118.299 93.7396Z" stroke="#85CEE4" stroke-width="0.2339" stroke-miterlimit="10" stroke-linecap="round"/>
<path d="M96.1069 101.69L106.842 104.758L106.813 89.7126L96.0722 85.5815L96.1069 101.69Z" stroke="#85CEE4" stroke-width="0.2339" stroke-miterlimit="10" stroke-linecap="round"/>
<path d="M117.236 93.3818L117.265 107.595" stroke="#85CEE4" stroke-width="0.2339" stroke-miterlimit="10" stroke-linecap="round"/>
<path d="M105.877 89.3604L105.906 104.423" stroke="#85CEE4" stroke-width="0.2339" stroke-miterlimit="10" stroke-linecap="round"/>
<path d="M118.339 113.88L118.368 127.897L109.598 126.585L109.563 111.806L118.339 113.88Z" stroke="#85CEE4" stroke-width="0.2339" stroke-miterlimit="10" stroke-linecap="round"/>
<path d="M96.1531 124.216L106.888 126.112L106.859 111.067L96.1184 108.108L96.1531 124.216Z" stroke="#85CEE4" stroke-width="0.2339" stroke-miterlimit="10" stroke-linecap="round"/>
<path d="M117.276 113.638L117.305 127.845" stroke="#85CEE4" stroke-width="0.2339" stroke-miterlimit="10" stroke-linecap="round"/>
<path d="M105.923 110.812L105.952 125.881" stroke="#85CEE4" stroke-width="0.2339" stroke-miterlimit="10" stroke-linecap="round"/>
<g opacity="0.5">
<path d="M4.28284 69.693L15.6706 60.963L27.093 52.285L49.9493 34.9347L72.8808 17.6885L84.3494 9.06824L95.8585 0.5L84.4707 9.23002L73.0425 17.9023L50.192 35.2583L27.2547 52.4988L15.7861 61.119L4.28284 69.693Z" fill="white"/>
</g>
<g opacity="0.5">
<path d="M66.5023 2.23364L85.6089 14.852L104.687 27.5166L142.836 52.8516L180.911 78.3021L199.948 91.0244L218.951 103.805L199.839 91.192L180.767 78.5216L142.617 53.1867L104.536 27.7419L85.5049 15.0138L66.5023 2.23364Z" fill="white"/>
</g>
<g opacity="0.5">
<path d="M10.7365 139.447L35.823 135.576L60.9153 131.774L111.1 124.159L161.308 116.689L186.411 112.95L211.521 109.276L186.44 113.147L161.348 116.954L111.163 124.564L60.9557 132.04L35.8519 135.772L10.7365 139.447Z" fill="white"/>
</g>
<g opacity="0.5">
<path d="M228.565 170.207L64.0063 187.892L228.519 169.802C228.629 169.791 228.733 169.871 228.744 169.981C228.756 170.091 228.675 170.195 228.565 170.207Z" fill="white"/>
</g>
<g opacity="0.5">
<path d="M0.486903 173.858L117.137 188.129L0.434905 174.257C0.325129 174.245 0.244244 174.141 0.255799 174.031C0.273132 173.922 0.371351 173.841 0.486903 173.858Z" fill="white"/>
</g>
<g opacity="0.5">
<path d="M206.119 143.67L206.321 16.0364L206.523 143.67C206.523 143.78 206.431 143.872 206.321 143.872C206.211 143.872 206.119 143.78 206.119 143.67Z" fill="white"/>
</g>
<g opacity="0.5">
<path d="M11.9498 25.084L12.0769 44.5835L12.1289 64.0888L12.2155 103.088L12.1289 142.093L12.0827 161.592L11.9498 181.092L11.8169 161.592L11.7707 142.093L11.6782 103.088L11.7707 64.0888L11.8169 44.5835L11.9498 25.084Z" fill="white"/>
</g>
</svg>
