<svg width="18" height="18" viewBox="0 0 18 18" fill="none" xmlns="http://www.w3.org/2000/svg">
<path d="M12.84 0.494992C12.2534 0.560617 11.7867 1.03312 11.7067 1.61062L10.68 5.90249C10.5334 6.50624 10.84 7.13624 11.4134 7.39874L12.2 7.75312C11.6134 9.26249 10.32 10.2994 10.32 10.2994C10.32 10.2994 9.25336 11.5725 7.73336 12.15L7.37336 11.3756C7.24346 11.1012 7.02116 10.8794 6.74415 10.7478C6.46713 10.6163 6.15242 10.583 5.85336 10.6537L1.49336 11.6644C0.906691 11.7431 0.426691 12.2025 0.360024 12.78C0.226691 13.8562 0.266691 15.5362 1.49336 16.4287C1.49336 16.4287 7.02669 20.2612 13.7467 13.6462C20.4667 7.03124 16.5734 1.58437 16.5734 1.58437C15.6534 0.376867 13.9467 0.350617 12.8667 0.468742L12.84 0.494992Z" fill="black"/>
</svg>
