<svg width="296" height="316" viewBox="0 0 296 316" fill="none" xmlns="http://www.w3.org/2000/svg">
<g opacity="0.45">
<path d="M141.308 310.579V314.801H140.797V311.115H140.772L139.742 311.8V311.28L140.797 310.579H141.308ZM143.842 314.859C143.6 314.859 143.382 314.811 143.188 314.714C142.994 314.618 142.839 314.486 142.722 314.319C142.605 314.151 142.542 313.96 142.531 313.746H143.025C143.045 313.937 143.131 314.095 143.285 314.22C143.44 314.343 143.626 314.405 143.842 314.405C144.015 314.405 144.169 314.365 144.303 314.284C144.439 314.203 144.546 314.091 144.623 313.95C144.701 313.807 144.74 313.645 144.74 313.465C144.74 313.281 144.7 313.117 144.619 312.973C144.539 312.827 144.429 312.712 144.289 312.628C144.149 312.544 143.989 312.502 143.809 312.501C143.679 312.499 143.547 312.519 143.411 312.56C143.275 312.6 143.163 312.652 143.075 312.715L142.597 312.657L142.852 310.579H145.046V311.033H143.281L143.133 312.278H143.157C143.244 312.209 143.352 312.152 143.483 312.107C143.614 312.061 143.75 312.039 143.891 312.039C144.149 312.039 144.38 312.101 144.582 312.224C144.785 312.347 144.944 312.514 145.06 312.727C145.177 312.94 145.235 313.184 145.235 313.457C145.235 313.726 145.175 313.967 145.054 314.178C144.934 314.389 144.769 314.555 144.559 314.677C144.349 314.798 144.11 314.859 143.842 314.859ZM147.431 314.859C147.12 314.859 146.856 314.774 146.637 314.605C146.419 314.435 146.252 314.188 146.136 313.865C146.021 313.541 145.963 313.149 145.963 312.69C145.963 312.234 146.021 311.844 146.136 311.521C146.253 311.197 146.421 310.95 146.639 310.779C146.859 310.607 147.123 310.522 147.431 310.522C147.739 310.522 148.002 310.607 148.221 310.779C148.44 310.95 148.608 311.197 148.724 311.521C148.84 311.844 148.899 312.234 148.899 312.69C148.899 313.149 148.841 313.541 148.726 313.865C148.61 314.188 148.443 314.435 148.225 314.605C148.006 314.774 147.742 314.859 147.431 314.859ZM147.431 314.405C147.739 314.405 147.978 314.257 148.148 313.96C148.319 313.663 148.404 313.24 148.404 312.69C148.404 312.325 148.365 312.013 148.287 311.756C148.21 311.499 148.098 311.304 147.953 311.169C147.808 311.034 147.634 310.967 147.431 310.967C147.126 310.967 146.888 311.117 146.716 311.418C146.544 311.718 146.458 312.142 146.458 312.69C146.458 313.056 146.497 313.366 146.574 313.622C146.65 313.878 146.761 314.072 146.905 314.205C147.051 314.339 147.226 314.405 147.431 314.405ZM151.059 314.859C150.749 314.859 150.484 314.774 150.265 314.605C150.047 314.435 149.88 314.188 149.765 313.865C149.649 313.541 149.591 313.149 149.591 312.69C149.591 312.234 149.649 311.844 149.765 311.521C149.881 311.197 150.049 310.95 150.268 310.779C150.487 310.607 150.751 310.522 151.059 310.522C151.367 310.522 151.63 310.607 151.849 310.779C152.069 310.95 152.236 311.197 152.352 311.521C152.468 311.844 152.527 312.234 152.527 312.69C152.527 313.149 152.469 313.541 152.354 313.865C152.238 314.188 152.071 314.435 151.853 314.605C151.634 314.774 151.37 314.859 151.059 314.859ZM151.059 314.405C151.367 314.405 151.606 314.257 151.776 313.96C151.947 313.663 152.032 313.24 152.032 312.69C152.032 312.325 151.993 312.013 151.915 311.756C151.838 311.499 151.726 311.304 151.581 311.169C151.436 311.034 151.263 310.967 151.059 310.967C150.754 310.967 150.516 311.117 150.344 311.418C150.172 311.718 150.086 312.142 150.086 312.69C150.086 313.056 150.125 313.366 150.202 313.622C150.279 313.878 150.389 314.072 150.533 314.205C150.679 314.339 150.854 314.405 151.059 314.405Z" fill="white"/>
<path d="M290.092 161.86H294.313V162.371H290.628V162.396L291.312 163.427H290.793L290.092 162.371V161.86ZM294.371 159.327C294.371 159.568 294.323 159.786 294.227 159.98C294.131 160.174 293.999 160.329 293.831 160.446C293.663 160.563 293.472 160.627 293.258 160.638V160.143C293.449 160.124 293.607 160.037 293.732 159.883C293.856 159.728 293.918 159.542 293.918 159.327C293.918 159.153 293.877 158.999 293.796 158.865C293.715 158.729 293.604 158.622 293.462 158.545C293.319 158.467 293.158 158.428 292.978 158.428C292.794 158.428 292.629 158.468 292.485 158.549C292.339 158.629 292.225 158.739 292.141 158.879C292.057 159.019 292.014 159.179 292.013 159.359C292.012 159.489 292.032 159.621 292.073 159.757C292.113 159.893 292.164 160.005 292.227 160.093L292.17 160.572L290.092 160.316V158.123H290.545V159.887L291.79 160.036V160.011C291.722 159.924 291.665 159.816 291.619 159.685C291.574 159.555 291.551 159.419 291.551 159.277C291.551 159.019 291.613 158.788 291.737 158.586C291.859 158.383 292.027 158.224 292.24 158.108C292.453 157.991 292.696 157.933 292.969 157.933C293.239 157.933 293.479 157.993 293.691 158.114C293.901 158.234 294.067 158.399 294.19 158.609C294.311 158.819 294.371 159.059 294.371 159.327ZM294.371 155.737C294.371 156.048 294.287 156.312 294.118 156.531C293.947 156.749 293.701 156.916 293.378 157.032C293.053 157.147 292.662 157.205 292.203 157.205C291.746 157.205 291.357 157.147 291.034 157.032C290.709 156.915 290.462 156.747 290.292 156.529C290.12 156.309 290.034 156.045 290.034 155.737C290.034 155.429 290.12 155.166 290.292 154.948C290.462 154.728 290.709 154.56 291.034 154.445C291.357 154.328 291.746 154.269 292.203 154.269C292.662 154.269 293.053 154.327 293.378 154.443C293.701 154.558 293.947 154.725 294.118 154.943C294.287 155.162 294.371 155.427 294.371 155.737ZM293.918 155.737C293.918 155.429 293.769 155.19 293.472 155.02C293.176 154.849 292.752 154.764 292.203 154.764C291.837 154.764 291.526 154.803 291.269 154.882C291.012 154.959 290.816 155.07 290.681 155.216C290.547 155.36 290.479 155.534 290.479 155.737C290.479 156.042 290.63 156.281 290.931 156.452C291.23 156.624 291.654 156.71 292.203 156.71C292.568 156.71 292.879 156.672 293.134 156.595C293.39 156.518 293.584 156.407 293.718 156.263C293.851 156.117 293.918 155.942 293.918 155.737ZM294.371 152.109C294.371 152.42 294.287 152.684 294.118 152.903C293.947 153.121 293.701 153.288 293.378 153.404C293.053 153.519 292.662 153.577 292.203 153.577C291.746 153.577 291.357 153.519 291.034 153.404C290.709 153.287 290.462 153.119 290.292 152.901C290.12 152.681 290.034 152.417 290.034 152.109C290.034 151.801 290.12 151.538 290.292 151.32C290.462 151.1 290.709 150.932 291.034 150.817C291.357 150.7 291.746 150.641 292.203 150.641C292.662 150.641 293.053 150.699 293.378 150.814C293.701 150.93 293.947 151.097 294.118 151.315C294.287 151.534 294.371 151.798 294.371 152.109ZM293.918 152.109C293.918 151.801 293.769 151.562 293.472 151.392C293.176 151.221 292.752 151.136 292.203 151.136C291.837 151.136 291.526 151.175 291.269 151.254C291.012 151.331 290.816 151.442 290.681 151.587C290.547 151.732 290.479 151.906 290.479 152.109C290.479 152.414 290.63 152.653 290.931 152.824C291.23 152.996 291.654 153.082 292.203 153.082C292.568 153.082 292.879 153.044 293.134 152.967C293.39 152.89 293.584 152.779 293.718 152.635C293.851 152.489 293.918 152.314 293.918 152.109Z" fill="white"/>
<path d="M2.46478 161.86H6.68652V162.371H3.00074V162.396L3.68513 163.427H3.16565L2.46478 162.371V161.86ZM6.74424 159.327C6.74424 159.568 6.69614 159.786 6.59994 159.98C6.50375 160.174 6.37182 160.329 6.20416 160.446C6.0365 160.563 5.84547 160.627 5.63109 160.638V160.143C5.82211 160.124 5.98015 160.037 6.10521 159.883C6.22889 159.728 6.29073 159.542 6.29073 159.327C6.29073 159.153 6.25019 158.999 6.16911 158.865C6.08803 158.729 5.97671 158.622 5.83517 158.545C5.69224 158.467 5.53077 158.428 5.35074 158.428C5.16659 158.428 5.00236 158.468 4.85806 158.549C4.71239 158.629 4.59764 158.739 4.51381 158.879C4.42998 159.019 4.38738 159.179 4.386 159.359C4.38463 159.489 4.40455 159.621 4.44578 159.757C4.48564 159.893 4.53717 160.005 4.60039 160.093L4.54267 160.572L2.46478 160.316V158.123H2.91829V159.887L4.16337 160.036V160.011C4.09466 159.924 4.03763 159.816 3.99227 159.685C3.94692 159.555 3.92425 159.419 3.92425 159.277C3.92425 159.019 3.98609 158.788 4.10977 158.586C4.23208 158.383 4.39974 158.224 4.61276 158.108C4.82577 157.991 5.06901 157.933 5.34249 157.933C5.61185 157.933 5.85234 157.993 6.06398 158.114C6.27424 158.234 6.44053 158.399 6.56284 158.609C6.68377 158.819 6.74424 159.059 6.74424 159.327ZM6.74424 155.737C6.74424 156.048 6.65973 156.312 6.49069 156.531C6.32028 156.749 6.0736 156.916 5.75065 157.032C5.42632 157.147 5.03466 157.205 4.57565 157.205C4.11939 157.205 3.72979 157.147 3.40684 157.032C3.08251 156.915 2.83514 156.747 2.66473 156.529C2.49295 156.309 2.40706 156.045 2.40706 155.737C2.40706 155.429 2.49295 155.166 2.66473 154.948C2.83514 154.728 3.08251 154.56 3.40684 154.445C3.72979 154.328 4.11939 154.269 4.57565 154.269C5.03466 154.269 5.42632 154.327 5.75065 154.443C6.0736 154.558 6.32028 154.725 6.49069 154.943C6.65973 155.162 6.74424 155.427 6.74424 155.737ZM6.29073 155.737C6.29073 155.429 6.14231 155.19 5.84547 155.02C5.54863 154.849 5.12536 154.764 4.57565 154.764C4.2101 154.764 3.89882 154.803 3.64184 154.882C3.38485 154.959 3.18902 155.07 3.05434 155.216C2.91966 155.36 2.85232 155.534 2.85232 155.737C2.85232 156.042 3.0028 156.281 3.30377 156.452C3.60336 156.624 4.02732 156.71 4.57565 156.71C4.94121 156.71 5.25179 156.672 5.5074 156.595C5.76302 156.518 5.95748 156.407 6.09078 156.263C6.22408 156.117 6.29073 155.942 6.29073 155.737ZM6.74424 152.109C6.74424 152.42 6.65973 152.684 6.49069 152.903C6.32028 153.121 6.0736 153.288 5.75065 153.404C5.42632 153.519 5.03466 153.577 4.57565 153.577C4.11939 153.577 3.72979 153.519 3.40684 153.404C3.08251 153.287 2.83514 153.119 2.66473 152.901C2.49295 152.681 2.40706 152.417 2.40706 152.109C2.40706 151.801 2.49295 151.538 2.66473 151.32C2.83514 151.1 3.08251 150.932 3.40684 150.817C3.72979 150.7 4.11939 150.641 4.57565 150.641C5.03466 150.641 5.42632 150.699 5.75065 150.814C6.0736 150.93 6.32028 151.097 6.49069 151.315C6.65973 151.534 6.74424 151.798 6.74424 152.109ZM6.29073 152.109C6.29073 151.801 6.14231 151.562 5.84547 151.392C5.54863 151.221 5.12536 151.136 4.57565 151.136C4.2101 151.136 3.89882 151.175 3.64184 151.254C3.38485 151.331 3.18902 151.442 3.05434 151.587C2.91966 151.732 2.85232 151.906 2.85232 152.109C2.85232 152.414 3.0028 152.653 3.30377 152.824C3.60336 152.996 4.02732 153.082 4.57565 153.082C4.94121 153.082 5.25179 153.044 5.5074 152.967C5.76302 152.89 5.95748 152.779 6.09078 152.635C6.22408 152.489 6.29073 152.314 6.29073 152.109Z" fill="white"/>
<path d="M141.308 1.97723V6.19897H140.797V2.51319H140.772L139.742 3.19758V2.6781L140.797 1.97723H141.308ZM143.842 6.25669C143.6 6.25669 143.382 6.20859 143.188 6.1124C142.994 6.0162 142.839 5.88427 142.722 5.71661C142.605 5.54895 142.542 5.35792 142.531 5.14354H143.025C143.045 5.33456 143.131 5.4926 143.285 5.61766C143.44 5.74134 143.626 5.80319 143.842 5.80319C144.015 5.80319 144.169 5.76265 144.303 5.68156C144.439 5.60048 144.546 5.48917 144.623 5.34762C144.701 5.20469 144.74 5.04322 144.74 4.86319C144.74 4.67904 144.7 4.51481 144.619 4.37051C144.539 4.22484 144.429 4.11009 144.289 4.02626C144.149 3.94243 143.989 3.89983 143.809 3.89845C143.679 3.89708 143.547 3.91701 143.411 3.95823C143.275 3.99809 143.163 4.04962 143.075 4.11284L142.597 4.05512L142.852 1.97723H145.046V2.43074H143.281L143.133 3.67582H143.157C143.244 3.60711 143.352 3.55008 143.483 3.50473C143.614 3.45938 143.75 3.4367 143.891 3.4367C144.149 3.4367 144.38 3.49854 144.582 3.62223C144.785 3.74454 144.944 3.9122 145.06 4.12521C145.177 4.33822 145.235 4.58146 145.235 4.85494C145.235 5.1243 145.175 5.3648 145.054 5.57643C144.934 5.78669 144.769 5.95298 144.559 6.07529C144.349 6.19623 144.11 6.25669 143.842 6.25669ZM147.431 6.25669C147.12 6.25669 146.856 6.17218 146.637 6.00314C146.419 5.83273 146.252 5.58605 146.136 5.2631C146.021 4.93877 145.963 4.54711 145.963 4.0881C145.963 3.63185 146.021 3.24224 146.136 2.91929C146.253 2.59496 146.421 2.34759 146.639 2.17718C146.859 2.0054 147.123 1.91951 147.431 1.91951C147.739 1.91951 148.002 2.0054 148.221 2.17718C148.44 2.34759 148.608 2.59496 148.724 2.91929C148.84 3.24224 148.899 3.63185 148.899 4.0881C148.899 4.54711 148.841 4.93877 148.726 5.2631C148.61 5.58605 148.443 5.83273 148.225 6.00314C148.006 6.17218 147.742 6.25669 147.431 6.25669ZM147.431 5.80319C147.739 5.80319 147.978 5.65477 148.148 5.35792C148.319 5.06108 148.404 4.63781 148.404 4.0881C148.404 3.72255 148.365 3.41128 148.287 3.15429C148.21 2.8973 148.098 2.70147 147.953 2.56679C147.808 2.43211 147.634 2.36477 147.431 2.36477C147.126 2.36477 146.888 2.51525 146.716 2.81622C146.544 3.11581 146.458 3.53977 146.458 4.0881C146.458 4.45366 146.497 4.76424 146.574 5.01985C146.65 5.27547 146.761 5.46993 146.905 5.60323C147.051 5.73653 147.226 5.80319 147.431 5.80319ZM151.059 6.25669C150.749 6.25669 150.484 6.17218 150.265 6.00314C150.047 5.83273 149.88 5.58605 149.765 5.2631C149.649 4.93877 149.591 4.54711 149.591 4.0881C149.591 3.63185 149.649 3.24224 149.765 2.91929C149.881 2.59496 150.049 2.34759 150.268 2.17718C150.487 2.0054 150.751 1.91951 151.059 1.91951C151.367 1.91951 151.63 2.0054 151.849 2.17718C152.069 2.34759 152.236 2.59496 152.352 2.91929C152.468 3.24224 152.527 3.63185 152.527 4.0881C152.527 4.54711 152.469 4.93877 152.354 5.2631C152.238 5.58605 152.071 5.83273 151.853 6.00314C151.634 6.17218 151.37 6.25669 151.059 6.25669ZM151.059 5.80319C151.367 5.80319 151.606 5.65477 151.776 5.35792C151.947 5.06108 152.032 4.63781 152.032 4.0881C152.032 3.72255 151.993 3.41128 151.915 3.15429C151.838 2.8973 151.726 2.70147 151.581 2.56679C151.436 2.43211 151.263 2.36477 151.059 2.36477C150.754 2.36477 150.516 2.51525 150.344 2.81622C150.172 3.11581 150.086 3.53977 150.086 4.0881C150.086 4.45366 150.125 4.76424 150.202 5.01985C150.279 5.27547 150.389 5.46993 150.533 5.60323C150.679 5.73653 150.854 5.80319 151.059 5.80319Z" fill="white"/>
<path d="M282.18 29.529V283.089" stroke="white" stroke-miterlimit="10"/>
<path d="M285.1 29.529H279.19" stroke="white" stroke-miterlimit="10"/>
<path d="M285.1 283.089H279.19" stroke="white" stroke-miterlimit="10"/>
<path d="M33.7802 10.399H265.55" stroke="white" stroke-miterlimit="10"/>
<path d="M33.7802 7.46899V13.379" stroke="white" stroke-miterlimit="10"/>
<path d="M265.55 7.46899V13.379" stroke="white" stroke-miterlimit="10"/>
<path d="M33.7802 304.939H265.55" stroke="white" stroke-miterlimit="10"/>
<path d="M33.7802 302.019V307.929" stroke="white" stroke-miterlimit="10"/>
<path d="M265.55 302.019V307.929" stroke="white" stroke-miterlimit="10"/>
<path d="M14.1401 29.529V283.089" stroke="white" stroke-miterlimit="10"/>
<path d="M17.0602 29.529H11.1602" stroke="white" stroke-miterlimit="10"/>
<path d="M17.0602 283.089H11.1602" stroke="white" stroke-miterlimit="10"/>
<path d="M46.7801 258.679L40.8601 273.069" stroke="white" stroke-width="0.5" stroke-miterlimit="10"/>
<path d="M51.2601 258.679L45.3501 273.069" stroke="white" stroke-width="0.5" stroke-miterlimit="10"/>
<path d="M55.7401 258.679L49.8301 273.069" stroke="white" stroke-width="0.5" stroke-miterlimit="10"/>
<path d="M60.2201 258.679L54.3101 273.069" stroke="white" stroke-width="0.5" stroke-miterlimit="10"/>
<path d="M64.7101 258.679L58.79 273.069" stroke="white" stroke-width="0.5" stroke-miterlimit="10"/>
<path d="M69.1901 258.679L63.2701 273.069" stroke="white" stroke-width="0.5" stroke-miterlimit="10"/>
<path d="M73.6601 258.679L67.7601 273.069" stroke="white" stroke-width="0.5" stroke-miterlimit="10"/>
<path d="M78.2401 258.679L72.2401 273.069" stroke="white" stroke-width="0.5" stroke-miterlimit="10"/>
<path d="M82.4901 258.679L76.7201 273.069" stroke="white" stroke-width="0.5" stroke-miterlimit="10"/>
<path d="M87.1201 258.679L81.2001 273.069" stroke="white" stroke-width="0.5" stroke-miterlimit="10"/>
<path d="M91.6001 258.679L85.6901 273.069" stroke="white" stroke-width="0.5" stroke-miterlimit="10"/>
<path d="M96.0802 258.679L90.1702 273.069" stroke="white" stroke-width="0.5" stroke-miterlimit="10"/>
<path d="M100.57 258.679L94.6501 273.069" stroke="white" stroke-width="0.5" stroke-miterlimit="10"/>
<path d="M104.99 258.679L99.1301 273.069" stroke="white" stroke-width="0.5" stroke-miterlimit="10"/>
<path d="M109.79 258.679L103.61 273.069" stroke="white" stroke-width="0.5" stroke-miterlimit="10"/>
<path d="M113.98 258.679L108.1 273.069" stroke="white" stroke-width="0.5" stroke-miterlimit="10"/>
<path d="M118.49 258.679L112.58 273.069" stroke="white" stroke-width="0.5" stroke-miterlimit="10"/>
<path d="M122.98 258.679L117.06 273.069" stroke="white" stroke-width="0.5" stroke-miterlimit="10"/>
<path d="M127.46 258.679L121.54 273.069" stroke="white" stroke-width="0.5" stroke-miterlimit="10"/>
<path d="M131.94 258.679L126.03 273.069" stroke="white" stroke-width="0.5" stroke-miterlimit="10"/>
<path d="M114.26 38.529L108.35 52.909" stroke="white" stroke-width="0.5" stroke-miterlimit="10"/>
<path d="M118.74 38.529L112.83 52.909" stroke="white" stroke-width="0.5" stroke-miterlimit="10"/>
<path d="M123.22 38.529L117.31 52.909" stroke="white" stroke-width="0.5" stroke-miterlimit="10"/>
<path d="M127.71 38.529L121.79 52.909" stroke="white" stroke-width="0.5" stroke-miterlimit="10"/>
<path d="M132.19 38.529L126.27 52.909" stroke="white" stroke-width="0.5" stroke-miterlimit="10"/>
<path d="M136.67 38.529L130.76 52.909" stroke="white" stroke-width="0.5" stroke-miterlimit="10"/>
<path d="M141.14 38.529L135.24 52.909" stroke="white" stroke-width="0.5" stroke-miterlimit="10"/>
<path d="M145.72 38.529L139.72 52.909" stroke="white" stroke-width="0.5" stroke-miterlimit="10"/>
<path d="M149.97 38.529L144.2 52.909" stroke="white" stroke-width="0.5" stroke-miterlimit="10"/>
<path d="M154.6 38.529L148.69 52.909" stroke="white" stroke-width="0.5" stroke-miterlimit="10"/>
<path d="M159.08 38.529L153.17 52.909" stroke="white" stroke-width="0.5" stroke-miterlimit="10"/>
<path d="M163.56 38.529L157.65 52.909" stroke="white" stroke-width="0.5" stroke-miterlimit="10"/>
<path d="M168.06 38.529L162.13 52.909" stroke="white" stroke-width="0.5" stroke-miterlimit="10"/>
<path d="M172.47 38.529L166.61 52.909" stroke="white" stroke-width="0.5" stroke-miterlimit="10"/>
<path d="M177.28 38.529L171.1 52.909" stroke="white" stroke-width="0.5" stroke-miterlimit="10"/>
<path d="M181.46 38.529L175.58 52.909" stroke="white" stroke-width="0.5" stroke-miterlimit="10"/>
<path d="M185.98 38.529L180.06 52.909" stroke="white" stroke-width="0.5" stroke-miterlimit="10"/>
<path d="M190.46 38.529L184.54 52.909" stroke="white" stroke-width="0.5" stroke-miterlimit="10"/>
<path d="M194.94 38.529L189.03 52.909" stroke="white" stroke-width="0.5" stroke-miterlimit="10"/>
<path d="M199.42 38.529L193.51 52.909" stroke="white" stroke-width="0.5" stroke-miterlimit="10"/>
<path d="M199.36 38.529L193.44 52.909" stroke="white" stroke-width="0.5" stroke-miterlimit="10"/>
<path d="M203.84 38.529L197.92 52.909" stroke="white" stroke-width="0.5" stroke-miterlimit="10"/>
<path d="M208.32 38.529L202.41 52.909" stroke="white" stroke-width="0.5" stroke-miterlimit="10"/>
<path d="M212.8 38.529L206.89 52.909" stroke="white" stroke-width="0.5" stroke-miterlimit="10"/>
<path d="M217.29 38.529L211.37 52.909" stroke="white" stroke-width="0.5" stroke-miterlimit="10"/>
<path d="M221.77 38.529L215.85 52.909" stroke="white" stroke-width="0.5" stroke-miterlimit="10"/>
<path d="M226.24 38.529L220.34 52.909" stroke="white" stroke-width="0.5" stroke-miterlimit="10"/>
<path d="M230.82 38.529L224.82 52.909" stroke="white" stroke-width="0.5" stroke-miterlimit="10"/>
<path d="M235.07 38.529L229.3 52.909" stroke="white" stroke-width="0.5" stroke-miterlimit="10"/>
<path d="M239.7 38.529L233.78 52.909" stroke="white" stroke-width="0.5" stroke-miterlimit="10"/>
<path d="M244.18 38.529L238.26 52.909" stroke="white" stroke-width="0.5" stroke-miterlimit="10"/>
<path d="M248.66 38.529L242.75 52.909" stroke="white" stroke-width="0.5" stroke-miterlimit="10"/>
<path d="M253.15 38.529L247.23 52.909" stroke="white" stroke-width="0.5" stroke-miterlimit="10"/>
<path d="M257.57 38.529L251.71 52.909" stroke="white" stroke-width="0.5" stroke-miterlimit="10"/>
<path d="M262.37 38.529L256.19 52.909" stroke="white" stroke-width="0.5" stroke-miterlimit="10"/>
<path d="M266.56 38.529L260.68 52.909" stroke="white" stroke-width="0.5" stroke-miterlimit="10"/>
<path d="M137.12 170.239H121.46V194.189H137.12V170.239Z" stroke="white" stroke-width="0.5" stroke-miterlimit="10"/>
<path d="M133.14 164.319C133.14 166.439 131.42 168.169 129.29 168.169C127.16 168.169 125.44 166.449 125.44 164.319C125.44 162.189 127.16 160.469 129.29 160.469C131.42 160.479 133.14 162.199 133.14 164.319Z" stroke="white" stroke-width="0.5" stroke-miterlimit="10"/>
<path d="M133.14 200.069C133.14 202.189 131.42 203.919 129.29 203.919C127.16 203.919 125.44 202.199 125.44 200.069C125.44 197.939 127.16 196.219 129.29 196.219C131.42 196.219 133.14 197.949 133.14 200.069Z" stroke="white" stroke-width="0.5" stroke-miterlimit="10"/>
<path d="M147.1 187.809C147.1 189.939 145.38 191.659 143.25 191.659C141.12 191.659 139.4 189.939 139.4 187.809C139.4 185.689 141.12 183.959 143.25 183.959C145.38 183.959 147.1 185.679 147.1 187.809Z" stroke="white" stroke-width="0.5" stroke-miterlimit="10"/>
<path d="M147.1 177.499C147.1 179.619 145.38 181.349 143.25 181.349C141.12 181.349 139.4 179.629 139.4 177.499C139.4 175.379 141.12 173.649 143.25 173.649C145.38 173.649 147.1 175.379 147.1 177.499Z" stroke="white" stroke-width="0.5" stroke-miterlimit="10"/>
<path d="M119.06 187.809C119.06 189.939 117.34 191.659 115.21 191.659C113.08 191.659 111.36 189.939 111.36 187.809C111.36 185.689 113.08 183.959 115.21 183.959C117.34 183.959 119.06 185.679 119.06 187.809Z" stroke="white" stroke-width="0.5" stroke-miterlimit="10"/>
<path d="M119.06 177.499C119.06 179.619 117.34 181.349 115.21 181.349C113.08 181.349 111.36 179.629 111.36 177.499C111.36 175.379 113.08 173.649 115.21 173.649C117.34 173.659 119.06 175.379 119.06 177.499Z" stroke="white" stroke-width="0.5" stroke-miterlimit="10"/>
<path d="M204.28 156.819C204.28 155.929 205.01 155.199 205.9 155.199H217.12C218.01 155.199 218.74 155.929 218.74 156.819C218.74 157.709 218.01 158.439 217.12 158.439H205.9C205.01 158.429 204.28 157.709 204.28 156.819Z" stroke="white" stroke-width="0.5" stroke-miterlimit="10"/>
<path d="M204.28 184.209C204.28 183.319 205.01 182.589 205.9 182.589H217.12C218.01 182.589 218.74 183.319 218.74 184.209C218.74 185.099 218.01 185.829 217.12 185.829H205.9C205.01 185.819 204.28 185.089 204.28 184.209Z" stroke="white" stroke-width="0.5" stroke-miterlimit="10"/>
<path d="M218.4 158.009V183.019" stroke="white" stroke-width="0.5" stroke-miterlimit="10"/>
<path d="M214.67 158.429V182.589" stroke="white" stroke-width="0.5" stroke-miterlimit="10"/>
<path d="M205.04 158.009V182.589" stroke="white" stroke-width="0.5" stroke-miterlimit="10"/>
<path d="M205.04 170.299H214.67" stroke="white" stroke-width="0.5" stroke-miterlimit="10"/>
<path d="M195.83 189.699C196.72 189.699 197.45 190.429 197.45 191.319V202.539C197.45 203.429 196.72 204.159 195.83 204.159C194.94 204.159 194.21 203.429 194.21 202.539V191.319C194.21 190.429 194.94 189.699 195.83 189.699Z" stroke="white" stroke-width="0.5" stroke-miterlimit="10"/>
<path d="M168.44 189.699C169.33 189.699 170.06 190.429 170.06 191.319V202.539C170.06 203.429 169.33 204.159 168.44 204.159C167.55 204.159 166.82 203.429 166.82 202.539V191.319C166.83 190.429 167.55 189.699 168.44 189.699Z" stroke="white" stroke-width="0.5" stroke-miterlimit="10"/>
<path d="M194.64 203.819H169.63" stroke="white" stroke-width="0.5" stroke-miterlimit="10"/>
<path d="M194.21 200.089H170.06" stroke="white" stroke-width="0.5" stroke-miterlimit="10"/>
<path d="M194.64 190.459H170.06" stroke="white" stroke-width="0.5" stroke-miterlimit="10"/>
<path d="M182.35 190.459V200.089" stroke="white" stroke-width="0.5" stroke-miterlimit="10"/>
<path d="M71.9402 151.579C70.6802 151.579 69.6501 150.549 69.6501 149.289V143.139C69.6501 141.879 70.6802 140.849 71.9402 140.849C73.2002 140.849 74.2301 141.879 74.2301 143.139V149.289C74.2301 150.549 73.2002 151.579 71.9402 151.579Z" stroke="white" stroke-width="0.5" stroke-miterlimit="10"/>
<path d="M69.6401 142.589H67.7101C65.7101 142.589 64.0901 144.209 64.0901 146.209C64.0901 148.209 65.7101 149.829 67.7101 149.829H69.6401" stroke="white" stroke-width="0.5" stroke-miterlimit="10"/>
<path d="M52.4985 35.6746V72.3346H79.8885V35.6746H52.4985Z" stroke="white" stroke-width="0.5" stroke-miterlimit="10"/>
<path d="M65.47 39.529V42.259C65.47 43.049 64.82 43.699 64.03 43.699H56.82C56.03 43.699 55.38 43.049 55.38 42.259V39.529C55.38 38.739 56.03 38.089 56.82 38.089H64.03C64.82 38.089 65.47 38.739 65.47 39.529Z" stroke="white" stroke-width="0.5" stroke-miterlimit="10"/>
<path d="M77.49 39.529V42.259C77.49 43.049 76.84 43.699 76.05 43.699H68.84C68.05 43.699 67.4 43.049 67.4 42.259V39.529C67.4 38.739 68.05 38.089 68.84 38.089H76.05C76.84 38.089 77.49 38.739 77.49 39.529Z" stroke="white" stroke-width="0.5" stroke-miterlimit="10"/>
<path d="M79.8824 238.197V201.537H52.4925L52.4925 238.197H79.8824Z" stroke="white" stroke-width="0.5" stroke-miterlimit="10"/>
<path d="M66.9102 235.769V233.039C66.9102 232.249 67.5602 231.599 68.3502 231.599H75.5602C76.3502 231.599 77.0002 232.249 77.0002 233.039V235.769C77.0002 236.559 76.3502 237.209 75.5602 237.209H68.3502C67.5602 237.199 66.9102 236.559 66.9102 235.769Z" stroke="white" stroke-width="0.5" stroke-miterlimit="10"/>
<path d="M54.8901 235.769V233.039C54.8901 232.249 55.5401 231.599 56.3301 231.599H63.5401C64.3301 231.599 64.9801 232.249 64.9801 233.039V235.769C64.9801 236.559 64.3301 237.209 63.5401 237.209H56.3301C55.5401 237.199 54.8901 236.559 54.8901 235.769Z" stroke="white" stroke-width="0.5" stroke-miterlimit="10"/>
<path d="M36.025 29.5301V30.9001L101.825 30.9001V29.5301L36.025 29.5301Z" fill="white"/>
<path d="M101.136 64.246V65.616H124.516V64.246H101.136Z" fill="white"/>
<path d="M149.935 64.2451V65.6151H238.985V64.2451H149.935Z" fill="white"/>
<path d="M36.708 115.209V116.579H83.438V115.209H36.708Z" fill="white"/>
<path d="M101.133 115.214V116.584H156.523V115.214H101.133Z" fill="white"/>
<path d="M192.092 115.213V116.583H222.632V115.213H192.092Z" fill="white"/>
<path d="M171.213 115.214V116.584H177.173V115.214H171.213Z" fill="white"/>
<path d="M36.7083 166.655V168.025H83.3483V166.655H36.7083Z" fill="white"/>
<path d="M101.13 211.604V212.974H238.98V211.604H101.13Z" fill="white"/>
<path d="M139.384 281.713V283.083H238.974V281.713H139.384Z" fill="white"/>
<path d="M139.39 265.876V267.246H238.98V265.876H139.39Z" fill="white"/>
<path d="M139.387 250.04V251.41H238.977V250.04H139.387Z" fill="white"/>
<path d="M238.98 75.963V77.333H265.55V75.963H238.98Z" fill="white"/>
<path d="M238.986 148.138V149.508H265.556V148.138H238.986Z" fill="white"/>
<path d="M238.985 154.308V155.678H265.555V154.308H238.985Z" fill="white"/>
<path d="M238.984 160.479V161.849H265.554V160.479H238.984Z" fill="white"/>
<path d="M238.983 166.65V168.02H265.553V166.65H238.983Z" fill="white"/>
<path d="M238.982 172.821V174.191H265.552V172.821H238.982Z" fill="white"/>
<path d="M238.981 178.992V180.362H265.551V178.992H238.981Z" fill="white"/>
<path d="M37.3901 154.259H36.0201V186.649H37.3901V154.259Z" fill="white"/>
<path d="M37.3901 102.779H36.0201V128.849H37.3901V102.779Z" fill="white"/>
<path d="M37.3901 65.619H36.0201V77.369H37.3901V65.619Z" fill="white"/>
<path d="M37.3901 29.529H36.0201V40.209H37.3901V29.529Z" fill="white"/>
<path d="M37.3901 212.059H36.0201V248.369H37.3901V212.059Z" fill="white"/>
<path d="M239.66 64.239H238.29V84.359H239.66V64.239Z" fill="white"/>
<path d="M239.66 99.959H238.29V117.689H239.66V99.959Z" fill="white"/>
<path d="M239.66 143.099H238.29V149.509H239.66V143.099Z" fill="white"/>
<path d="M223.31 64.929H221.94V116.579H223.31V64.929Z" fill="white"/>
<path d="M239.66 148.129H238.29V283.079H239.66V148.129Z" fill="white"/>
<path d="M140.76 211.599H139.39V283.089H140.76V211.599Z" fill="white"/>
<path d="M265.55 77.329H264.18V180.359H265.55V77.329Z" fill="white"/>
<path d="M102.5 29.529H101.13V116.579H102.5V29.529Z" fill="white"/>
<path d="M76.8 133.949H75.4301V168.019H76.8V133.949Z" fill="white"/>
<path d="M175.11 64.239H173.74V116.579H175.11V64.239Z" fill="white"/>
<path d="M102.5 166.649H101.13V232.069H102.5V166.649Z" fill="white"/>
<path d="M102.5 212.289H101.13V248.379H102.5V212.289Z" fill="white"/>
<path d="M36.0264 247V248.37H56.4864V247H36.0264Z" fill="white"/>
<path d="M81.895 247.009V248.379H102.505V247.009H81.895Z" fill="white"/>
<path d="M81.8901 244.809H56.4801V250.559H81.8901V244.809Z" stroke="white" stroke-width="0.5" stroke-miterlimit="10"/>
<path d="M39.5873 212.063L39.5873 186.653H33.8373L33.8373 212.063H39.5873Z" stroke="white" stroke-width="0.5" stroke-miterlimit="10"/>
<path d="M39.5862 154.262L39.5862 128.852H33.8362L33.8362 154.262H39.5862Z" stroke="white" stroke-width="0.5" stroke-miterlimit="10"/>
<path d="M39.5835 65.6196L39.5835 40.2096H33.8335L33.8335 65.6196H39.5835Z" stroke="white" stroke-width="0.5" stroke-miterlimit="10"/>
<path d="M149.93 62.059H124.52V67.809H149.93V62.059Z" stroke="white" stroke-width="0.5" stroke-miterlimit="10"/>
<path d="M241.856 143.093V117.683H236.106V143.093H241.856Z" stroke="white" stroke-width="0.5" stroke-miterlimit="10"/>
<path d="M39.5813 102.777L39.5813 77.3674H33.8313L33.8313 102.777H39.5813Z" stroke="white" stroke-width="0.5" stroke-miterlimit="10"/>
<path d="M76.4501 134.729C66.4301 134.729 58.3101 126.609 58.3101 116.589" stroke="white" stroke-width="0.5" stroke-miterlimit="10"/>
<path d="M82.9901 115.599C82.9901 105.579 91.1101 97.459 101.13 97.459" stroke="white" stroke-width="0.5" stroke-miterlimit="10"/>
<path d="M156.02 115.599C156.02 105.579 164.14 97.459 174.16 97.459" stroke="white" stroke-width="0.5" stroke-miterlimit="10"/>
<path d="M192.31 115.599C192.31 105.579 184.19 97.459 174.17 97.459" stroke="white" stroke-width="0.5" stroke-miterlimit="10"/>
<path d="M101.13 185.479C91.1101 185.479 82.9901 177.359 82.9901 167.339" stroke="white" stroke-width="0.5" stroke-miterlimit="10"/>
<path d="M73.2301 101.459H55.3801V111.599H73.2301V101.459Z" stroke="white" stroke-width="0.5" stroke-miterlimit="10"/>
<path d="M73.2301 171.339H55.3801V181.479H73.2301V171.339Z" stroke="white" stroke-width="0.5" stroke-miterlimit="10"/>
<path d="M95.09 35.819H83.03V45.959H95.09V35.819Z" stroke="white" stroke-width="0.5" stroke-miterlimit="10"/>
<path d="M182.35 178.989C176.58 178.989 171.86 174.269 171.86 168.499C171.86 162.729 176.58 158.009 182.35 158.009C188.12 158.009 192.84 162.729 192.84 168.499C192.84 174.269 188.12 178.989 182.35 178.989Z" stroke="white" stroke-width="0.5" stroke-miterlimit="10"/>
<path d="M163.47 241.169C158.31 241.169 154.1 236.949 154.1 231.799C154.1 226.639 158.32 222.429 163.47 222.429C168.63 222.429 172.84 226.649 172.84 231.799C172.84 236.949 168.62 241.169 163.47 241.169Z" stroke="white" stroke-width="0.5" stroke-miterlimit="10"/>
<path d="M176.92 229.029H175.23V234.549H176.92V229.029Z" stroke="white" stroke-width="0.5" stroke-miterlimit="10"/>
<path d="M174.05 240.568L172.994 239.249L168.685 242.698L169.741 244.017L174.05 240.568Z" stroke="white" stroke-width="0.5" stroke-miterlimit="10"/>
<path d="M163.213 245.511L163.583 243.862L158.197 242.652L157.827 244.301L163.213 245.511Z" stroke="white" stroke-width="0.5" stroke-miterlimit="10"/>
<path d="M152.588 240.162L154.107 239.421L151.686 234.46L150.167 235.201L152.588 240.162Z" stroke="white" stroke-width="0.5" stroke-miterlimit="10"/>
<path d="M150.135 228.526L151.663 229.249L154.023 224.259L152.495 223.536L150.135 228.526Z" stroke="white" stroke-width="0.5" stroke-miterlimit="10"/>
<path d="M157.669 219.365L158.06 221.01L163.43 219.734L163.04 218.09L157.669 219.365Z" stroke="white" stroke-width="0.5" stroke-miterlimit="10"/>
<path d="M169.567 219.507L168.527 220.839L172.879 224.235L173.919 222.903L169.567 219.507Z" stroke="white" stroke-width="0.5" stroke-miterlimit="10"/>
<path d="M234.4 215.609H191.16V229.029H234.4V215.609Z" stroke="white" stroke-width="0.5" stroke-miterlimit="10"/>
<path d="M238.98 149.509H102.06V166.649" stroke="white" stroke-width="0.5" stroke-miterlimit="10" stroke-linecap="round" stroke-dasharray="1 1"/>
<path d="M101.13 87.059H39.5801" stroke="white" stroke-width="0.5" stroke-miterlimit="10" stroke-linecap="round" stroke-dasharray="1 1"/>
<path d="M55.6781 144.421C60.1071 142.544 62.1758 137.432 60.2988 133.003C58.4218 128.574 53.3098 126.505 48.8809 128.382C44.4519 130.259 42.3832 135.371 44.2602 139.8C46.1372 144.229 51.2492 146.298 55.6781 144.421Z" stroke="white" stroke-width="0.5" stroke-miterlimit="10" stroke-linecap="round" stroke-dasharray="1 1"/>
<path d="M41.0601 116.579C41.0601 119.289 43.2501 121.479 45.9601 121.479H47.3901C50.1001 121.479 52.2901 119.289 52.2901 116.579" stroke="white" stroke-width="0.5" stroke-miterlimit="10"/>
<path d="M62.88 156.819H47.88C45.89 156.819 44.28 158.429 44.28 160.419C44.28 162.409 45.89 164.019 47.88 164.019H62.88C64.87 164.019 66.48 162.409 66.48 160.419C66.49 158.429 64.87 156.819 62.88 156.819Z" stroke="white" stroke-width="0.5" stroke-miterlimit="10"/>
<path d="M212.66 81.119H198.32V105.939H212.66V81.119Z" stroke="white" stroke-width="0.5" stroke-miterlimit="10"/>
<path d="M188.5 67.799H177.18V73.139H188.5V67.799Z" stroke="white" stroke-width="0.5" stroke-miterlimit="10"/>
<path d="M203.99 67.799H192.67V73.139H203.99V67.799Z" stroke="white" stroke-width="0.5" stroke-miterlimit="10"/>
<path d="M219.47 67.799H208.15V73.139H219.47V67.799Z" stroke="white" stroke-width="0.5" stroke-miterlimit="10"/>
<path d="M114.26 72.329H103.97V110.289H114.26V72.329Z" stroke="white" stroke-width="0.5" stroke-miterlimit="10"/>
<path d="M108.56 95.559C108.56 96.329 107.93 96.959 107.16 96.959C106.39 96.959 105.76 96.329 105.76 95.559C105.76 94.789 106.39 94.159 107.16 94.159C107.93 94.159 108.56 94.789 108.56 95.559Z" stroke="white" stroke-width="0.5" stroke-miterlimit="10"/>
<path d="M112.46 95.559C112.46 96.329 111.83 96.959 111.06 96.959C110.29 96.959 109.66 96.329 109.66 95.559C109.66 94.789 110.29 94.159 111.06 94.159C111.84 94.159 112.46 94.789 112.46 95.559Z" stroke="white" stroke-width="0.5" stroke-miterlimit="10"/>
<path d="M108.56 99.349C108.56 100.119 107.93 100.749 107.16 100.749C106.39 100.749 105.76 100.119 105.76 99.349C105.76 98.579 106.39 97.949 107.16 97.949C107.93 97.949 108.56 98.579 108.56 99.349Z" stroke="white" stroke-width="0.5" stroke-miterlimit="10"/>
<path d="M112.46 99.349C112.46 100.119 111.83 100.749 111.06 100.749C110.29 100.749 109.66 100.119 109.66 99.349C109.66 98.579 110.29 97.949 111.06 97.949C111.84 97.949 112.46 98.579 112.46 99.349Z" stroke="white" stroke-width="0.5" stroke-miterlimit="10"/>
<path d="M103.97 92.289H114.26" stroke="white" stroke-width="0.5" stroke-miterlimit="10"/>
<path d="M103.97 102.409H114.26" stroke="white" stroke-width="0.5" stroke-miterlimit="10"/>
<path d="M111.82 88.199H106.4C105.87 88.199 105.43 87.769 105.43 87.229V80.709C105.43 80.179 105.86 79.739 106.4 79.739H111.82C112.35 79.739 112.79 80.169 112.79 80.709V87.229C112.79 87.769 112.35 88.199 111.82 88.199Z" stroke="white" stroke-width="0.5" stroke-miterlimit="10"/>
<path d="M146.166 101.905C151.477 96.5934 151.477 87.9825 146.166 82.6714C140.855 77.3603 132.244 77.3603 126.933 82.6714C121.622 87.9825 121.622 96.5934 126.933 101.905C132.244 107.216 140.855 107.216 146.166 101.905Z" stroke="white" stroke-width="0.5" stroke-miterlimit="10" stroke-linecap="round" stroke-dasharray="1 1"/>
</g>
</svg>
