<svg width="118" height="130" viewBox="0 0 118 130" fill="none" xmlns="http://www.w3.org/2000/svg">
<path d="M116.45 10.0347V118.598" stroke="#85CEE4" stroke-miterlimit="10"/>
<path d="M117.7 10.0347H115.17" stroke="#85CEE4" stroke-miterlimit="10"/>
<path d="M117.7 118.598H115.17" stroke="#85CEE4" stroke-miterlimit="10"/>
<path d="M10.0961 1.84399H109.33" stroke="#85CEE4" stroke-miterlimit="10"/>
<path d="M10.0961 0.5896V3.12" stroke="#85CEE4" stroke-miterlimit="10"/>
<path d="M109.33 0.5896V3.12" stroke="#85CEE4" stroke-miterlimit="10"/>
<path d="M10.0961 127.953H109.33" stroke="#85CEE4" stroke-miterlimit="10"/>
<path d="M10.0961 126.703V129.233" stroke="#85CEE4" stroke-miterlimit="10"/>
<path d="M109.33 126.703V129.233" stroke="#85CEE4" stroke-miterlimit="10"/>
<path d="M1.68716 10.0347V118.598" stroke="#85CEE4" stroke-miterlimit="10"/>
<path d="M2.93737 10.0347H0.411255" stroke="#85CEE4" stroke-miterlimit="10"/>
<path d="M2.93737 118.598H0.411255" stroke="#85CEE4" stroke-miterlimit="10"/>
<path d="M15.6621 108.146L13.1274 114.308" stroke="#85CEE4" stroke-width="0.5" stroke-miterlimit="10"/>
<path d="M17.5803 108.146L15.0499 114.308" stroke="#85CEE4" stroke-width="0.5" stroke-miterlimit="10"/>
<path d="M19.4984 108.146L16.968 114.308" stroke="#85CEE4" stroke-width="0.5" stroke-miterlimit="10"/>
<path d="M21.4165 108.146L18.8861 114.308" stroke="#85CEE4" stroke-width="0.5" stroke-miterlimit="10"/>
<path d="M23.3389 108.146L20.8043 114.308" stroke="#85CEE4" stroke-width="0.5" stroke-miterlimit="10"/>
<path d="M25.2571 108.146L22.7224 114.308" stroke="#85CEE4" stroke-width="0.5" stroke-miterlimit="10"/>
<path d="M27.1709 108.146L24.6448 114.308" stroke="#85CEE4" stroke-width="0.5" stroke-miterlimit="10"/>
<path d="M29.1319 108.146L26.563 114.308" stroke="#85CEE4" stroke-width="0.5" stroke-miterlimit="10"/>
<path d="M30.9515 108.146L28.4811 114.308" stroke="#85CEE4" stroke-width="0.5" stroke-miterlimit="10"/>
<path d="M32.9339 108.146L30.3992 114.308" stroke="#85CEE4" stroke-width="0.5" stroke-miterlimit="10"/>
<path d="M34.852 108.146L32.3216 114.308" stroke="#85CEE4" stroke-width="0.5" stroke-miterlimit="10"/>
<path d="M36.7702 108.146L34.2398 114.308" stroke="#85CEE4" stroke-width="0.5" stroke-miterlimit="10"/>
<path d="M38.6926 108.146L36.1579 114.308" stroke="#85CEE4" stroke-width="0.5" stroke-miterlimit="10"/>
<path d="M40.585 108.146L38.076 114.308" stroke="#85CEE4" stroke-width="0.5" stroke-miterlimit="10"/>
<path d="M42.6402 108.146L39.9942 114.308" stroke="#85CEE4" stroke-width="0.5" stroke-miterlimit="10"/>
<path d="M44.4341 108.146L41.9166 114.308" stroke="#85CEE4" stroke-width="0.5" stroke-miterlimit="10"/>
<path d="M46.3651 108.146L43.8347 114.308" stroke="#85CEE4" stroke-width="0.5" stroke-miterlimit="10"/>
<path d="M48.2875 108.146L45.7529 114.308" stroke="#85CEE4" stroke-width="0.5" stroke-miterlimit="10"/>
<path d="M50.2057 108.146L47.671 114.308" stroke="#85CEE4" stroke-width="0.5" stroke-miterlimit="10"/>
<path d="M52.1238 108.146L49.5934 114.308" stroke="#85CEE4" stroke-width="0.5" stroke-miterlimit="10"/>
<path d="M44.554 13.8882L42.0237 20.0451" stroke="#85CEE4" stroke-width="0.5" stroke-miterlimit="10"/>
<path d="M46.4722 13.8882L43.9418 20.0451" stroke="#85CEE4" stroke-width="0.5" stroke-miterlimit="10"/>
<path d="M48.3903 13.8882L45.8599 20.0451" stroke="#85CEE4" stroke-width="0.5" stroke-miterlimit="10"/>
<path d="M50.3127 13.8882L47.778 20.0451" stroke="#85CEE4" stroke-width="0.5" stroke-miterlimit="10"/>
<path d="M52.2309 13.8882L49.6962 20.0451" stroke="#85CEE4" stroke-width="0.5" stroke-miterlimit="10"/>
<path d="M54.149 13.8882L51.6186 20.0451" stroke="#85CEE4" stroke-width="0.5" stroke-miterlimit="10"/>
<path d="M56.0629 13.8882L53.5367 20.0451" stroke="#85CEE4" stroke-width="0.5" stroke-miterlimit="10"/>
<path d="M58.0238 13.8882L55.4549 20.0451" stroke="#85CEE4" stroke-width="0.5" stroke-miterlimit="10"/>
<path d="M59.8435 13.8882L57.373 20.0451" stroke="#85CEE4" stroke-width="0.5" stroke-miterlimit="10"/>
<path d="M61.8258 13.8882L59.2954 20.0451" stroke="#85CEE4" stroke-width="0.5" stroke-miterlimit="10"/>
<path d="M63.744 13.8882L61.2136 20.0451" stroke="#85CEE4" stroke-width="0.5" stroke-miterlimit="10"/>
<path d="M65.6621 13.8882L63.1317 20.0451" stroke="#85CEE4" stroke-width="0.5" stroke-miterlimit="10"/>
<path d="M67.5888 13.8882L65.0498 20.0451" stroke="#85CEE4" stroke-width="0.5" stroke-miterlimit="10"/>
<path d="M69.477 13.8882L66.968 20.0451" stroke="#85CEE4" stroke-width="0.5" stroke-miterlimit="10"/>
<path d="M71.5364 13.8882L68.8904 20.0451" stroke="#85CEE4" stroke-width="0.5" stroke-miterlimit="10"/>
<path d="M73.3261 13.8882L70.8085 20.0451" stroke="#85CEE4" stroke-width="0.5" stroke-miterlimit="10"/>
<path d="M75.2614 13.8882L72.7267 20.0451" stroke="#85CEE4" stroke-width="0.5" stroke-miterlimit="10"/>
<path d="M77.1795 13.8882L74.6448 20.0451" stroke="#85CEE4" stroke-width="0.5" stroke-miterlimit="10"/>
<path d="M79.0976 13.8882L76.5672 20.0451" stroke="#85CEE4" stroke-width="0.5" stroke-miterlimit="10"/>
<path d="M81.0158 13.8882L78.4854 20.0451" stroke="#85CEE4" stroke-width="0.5" stroke-miterlimit="10"/>
<path d="M80.9901 13.8882L78.4554 20.0451" stroke="#85CEE4" stroke-width="0.5" stroke-miterlimit="10"/>
<path d="M82.9082 13.8882L80.3735 20.0451" stroke="#85CEE4" stroke-width="0.5" stroke-miterlimit="10"/>
<path d="M84.8263 13.8882L82.2959 20.0451" stroke="#85CEE4" stroke-width="0.5" stroke-miterlimit="10"/>
<path d="M86.7445 13.8882L84.2141 20.0451" stroke="#85CEE4" stroke-width="0.5" stroke-miterlimit="10"/>
<path d="M88.6669 13.8882L86.1322 20.0451" stroke="#85CEE4" stroke-width="0.5" stroke-miterlimit="10"/>
<path d="M90.585 13.8882L88.0504 20.0451" stroke="#85CEE4" stroke-width="0.5" stroke-miterlimit="10"/>
<path d="M92.4989 13.8882L89.9728 20.0451" stroke="#85CEE4" stroke-width="0.5" stroke-miterlimit="10"/>
<path d="M94.4598 13.8882L91.8909 20.0451" stroke="#85CEE4" stroke-width="0.5" stroke-miterlimit="10"/>
<path d="M96.2795 13.8882L93.8091 20.0451" stroke="#85CEE4" stroke-width="0.5" stroke-miterlimit="10"/>
<path d="M98.2619 13.8882L95.7272 20.0451" stroke="#85CEE4" stroke-width="0.5" stroke-miterlimit="10"/>
<path d="M100.18 13.8882L97.6453 20.0451" stroke="#85CEE4" stroke-width="0.5" stroke-miterlimit="10"/>
<path d="M102.098 13.8882L99.5677 20.0451" stroke="#85CEE4" stroke-width="0.5" stroke-miterlimit="10"/>
<path d="M104.021 13.8882L101.486 20.0451" stroke="#85CEE4" stroke-width="0.5" stroke-miterlimit="10"/>
<path d="M105.913 13.8882L103.404 20.0451" stroke="#85CEE4" stroke-width="0.5" stroke-miterlimit="10"/>
<path d="M107.968 13.8882L105.322 20.0451" stroke="#85CEE4" stroke-width="0.5" stroke-miterlimit="10"/>
<path d="M109.762 13.8882L107.245 20.0451" stroke="#85CEE4" stroke-width="0.5" stroke-miterlimit="10"/>
<path d="M54.3417 70.2805H47.6367V80.5348H54.3417V70.2805Z" stroke="#85CEE4" stroke-width="0.5" stroke-miterlimit="10"/>
<path d="M52.6376 67.7458C52.6376 68.6535 51.9012 69.3942 50.9892 69.3942C50.0772 69.3942 49.3408 68.6578 49.3408 67.7458C49.3408 66.8338 50.0772 66.0974 50.9892 66.0974C51.9012 66.1017 52.6376 66.8381 52.6376 67.7458Z" stroke="#85CEE4" stroke-width="0.5" stroke-miterlimit="10"/>
<path d="M52.6376 83.0525C52.6376 83.9601 51.9012 84.7009 50.9892 84.7009C50.0772 84.7009 49.3408 83.9644 49.3408 83.0525C49.3408 82.1405 50.0772 81.4041 50.9892 81.4041C51.9012 81.4041 52.6376 82.1448 52.6376 83.0525Z" stroke="#85CEE4" stroke-width="0.5" stroke-miterlimit="10"/>
<path d="M58.6147 77.8032C58.6147 78.7151 57.8782 79.4516 56.9663 79.4516C56.0543 79.4516 55.3179 78.7151 55.3179 77.8032C55.3179 76.8955 56.0543 76.1548 56.9663 76.1548C57.8782 76.1548 58.6147 76.8912 58.6147 77.8032Z" stroke="#85CEE4" stroke-width="0.5" stroke-miterlimit="10"/>
<path d="M58.6147 73.3889C58.6147 74.2966 57.8782 75.0373 56.9663 75.0373C56.0543 75.0373 55.3179 74.3008 55.3179 73.3889C55.3179 72.4812 56.0543 71.7405 56.9663 71.7405C57.8782 71.7405 58.6147 72.4812 58.6147 73.3889Z" stroke="#85CEE4" stroke-width="0.5" stroke-miterlimit="10"/>
<path d="M46.6092 77.8032C46.6092 78.7151 45.8727 79.4516 44.9608 79.4516C44.0488 79.4516 43.3124 78.7151 43.3124 77.8032C43.3124 76.8955 44.0488 76.1548 44.9608 76.1548C45.8727 76.1548 46.6092 76.8912 46.6092 77.8032Z" stroke="#85CEE4" stroke-width="0.5" stroke-miterlimit="10"/>
<path d="M46.6092 73.3889C46.6092 74.2966 45.8727 75.0373 44.9608 75.0373C44.0488 75.0373 43.3124 74.3008 43.3124 73.3889C43.3124 72.4812 44.0488 71.7405 44.9608 71.7405C45.8727 71.7448 46.6092 72.4812 46.6092 73.3889Z" stroke="#85CEE4" stroke-width="0.5" stroke-miterlimit="10"/>
<path d="M83.0966 64.5347C83.0966 64.1536 83.4091 63.8411 83.7902 63.8411H88.5941C88.9751 63.8411 89.2877 64.1536 89.2877 64.5347C89.2877 64.9157 88.9751 65.2283 88.5941 65.2283H83.7902C83.4091 65.224 83.0966 64.9157 83.0966 64.5347Z" stroke="#85CEE4" stroke-width="0.5" stroke-miterlimit="10"/>
<path d="M83.0966 76.2617C83.0966 75.8807 83.4091 75.5681 83.7902 75.5681H88.5941C88.9751 75.5681 89.2877 75.8807 89.2877 76.2617C89.2877 76.6428 88.9751 76.9553 88.5941 76.9553H83.7902C83.4091 76.9511 83.0966 76.6385 83.0966 76.2617Z" stroke="#85CEE4" stroke-width="0.5" stroke-miterlimit="10"/>
<path d="M89.1421 65.0442V75.7524" stroke="#85CEE4" stroke-width="0.5" stroke-miterlimit="10"/>
<path d="M87.5451 65.2239V75.5681" stroke="#85CEE4" stroke-width="0.5" stroke-miterlimit="10"/>
<path d="M83.4219 65.0442V75.5682" stroke="#85CEE4" stroke-width="0.5" stroke-miterlimit="10"/>
<path d="M83.4219 70.3062H87.5451" stroke="#85CEE4" stroke-width="0.5" stroke-miterlimit="10"/>
<path d="M79.4787 78.6123C79.8597 78.6123 80.1723 78.9249 80.1723 79.3059V84.1098C80.1723 84.4909 79.8597 84.8034 79.4787 84.8034C79.0976 84.8034 78.7851 84.4909 78.7851 84.1098V79.3059C78.7851 78.9249 79.0976 78.6123 79.4787 78.6123Z" stroke="#85CEE4" stroke-width="0.5" stroke-miterlimit="10"/>
<path d="M67.7515 78.6123C68.1326 78.6123 68.4451 78.9249 68.4451 79.3059V84.1098C68.4451 84.4909 68.1326 84.8034 67.7515 84.8034C67.3704 84.8034 67.0579 84.4909 67.0579 84.1098V79.3059C67.0622 78.9249 67.3704 78.6123 67.7515 78.6123Z" stroke="#85CEE4" stroke-width="0.5" stroke-miterlimit="10"/>
<path d="M78.9692 84.658H68.261" stroke="#85CEE4" stroke-width="0.5" stroke-miterlimit="10"/>
<path d="M78.7851 83.0608H68.4451" stroke="#85CEE4" stroke-width="0.5" stroke-miterlimit="10"/>
<path d="M78.9692 78.9377H68.4451" stroke="#85CEE4" stroke-width="0.5" stroke-miterlimit="10"/>
<path d="M73.7072 78.9377V83.0609" stroke="#85CEE4" stroke-width="0.5" stroke-miterlimit="10"/>
<path d="M26.4345 62.2911C25.895 62.2911 25.454 61.8501 25.454 61.3106V58.6775C25.454 58.138 25.895 57.697 26.4345 57.697C26.974 57.697 27.415 58.138 27.415 58.6775V61.3106C27.415 61.8501 26.974 62.2911 26.4345 62.2911Z" stroke="#85CEE4" stroke-width="0.5" stroke-miterlimit="10"/>
<path d="M25.4497 58.4419H24.6234C23.7671 58.4419 23.0735 59.1355 23.0735 59.9918C23.0735 60.8481 23.7671 61.5417 24.6234 61.5417H25.4497" stroke="#85CEE4" stroke-width="0.5" stroke-miterlimit="10"/>
<path d="M18.1105 12.6659V28.3621H29.8377V12.6659H18.1105Z" stroke="#85CEE4" stroke-width="0.5" stroke-miterlimit="10"/>
<path d="M23.6644 14.3163V15.4851C23.6644 15.8234 23.3861 16.1017 23.0478 16.1017H19.9608C19.6226 16.1017 19.3443 15.8234 19.3443 15.4851V14.3163C19.3443 13.978 19.6226 13.6997 19.9608 13.6997H23.0478C23.3861 13.6997 23.6644 13.978 23.6644 14.3163Z" stroke="#85CEE4" stroke-width="0.5" stroke-miterlimit="10"/>
<path d="M28.8108 14.3163V15.4851C28.8108 15.8234 28.5325 16.1017 28.1942 16.1017H25.1072C24.769 16.1017 24.4907 15.8234 24.4907 15.4851V14.3163C24.4907 13.978 24.769 13.6997 25.1072 13.6997H28.1942C28.5325 13.6997 28.8108 13.978 28.8108 14.3163Z" stroke="#85CEE4" stroke-width="0.5" stroke-miterlimit="10"/>
<path d="M29.8351 99.3773L29.8351 83.6812H18.1079L18.1079 99.3773H29.8351Z" stroke="#85CEE4" stroke-width="0.5" stroke-miterlimit="10"/>
<path d="M24.2809 98.3377V97.1688C24.2809 96.8305 24.5592 96.5522 24.8974 96.5522H27.9844C28.3227 96.5522 28.601 96.8305 28.601 97.1688V98.3377C28.601 98.6759 28.3227 98.9542 27.9844 98.9542H24.8974C24.5592 98.9499 24.2809 98.6759 24.2809 98.3377Z" stroke="#85CEE4" stroke-width="0.5" stroke-miterlimit="10"/>
<path d="M19.1345 98.3377V97.1688C19.1345 96.8305 19.4128 96.5522 19.751 96.5522H22.838C23.1762 96.5522 23.4545 96.8305 23.4545 97.1688V98.3377C23.4545 98.6759 23.1762 98.9542 22.838 98.9542H19.751C19.4128 98.9499 19.1345 98.6759 19.1345 98.3377Z" stroke="#85CEE4" stroke-width="0.5" stroke-miterlimit="10"/>
<path d="M11.0573 10.0353V10.6218L39.2299 10.6218V10.0353L11.0573 10.0353Z" fill="#85CEE4"/>
<path d="M38.9348 24.8988V25.4854H48.945V24.8988H38.9348Z" fill="#85CEE4"/>
<path d="M59.8284 24.8988V25.4854L97.9556 25.4854V24.8988L59.8284 24.8988Z" fill="#85CEE4"/>
<path d="M11.3497 46.7191V47.3057H31.3574V46.7191H11.3497Z" fill="#85CEE4"/>
<path d="M38.9337 46.7215V47.3081H62.6492V46.7215H38.9337Z" fill="#85CEE4"/>
<path d="M77.8781 46.7208V47.3074H90.954V46.7208H77.8781Z" fill="#85CEE4"/>
<path d="M68.9389 46.7215V47.3081H71.4907V46.7215H68.9389Z" fill="#85CEE4"/>
<path d="M11.3498 68.7459V69.3325H31.319V68.7459H11.3498Z" fill="#85CEE4"/>
<path d="M38.9325 87.9913V88.5779H97.9537V87.9913H38.9325Z" fill="#85CEE4"/>
<path d="M55.3109 118.008V118.595H97.9509V118.008H55.3109Z" fill="#85CEE4"/>
<path d="M55.3137 111.228V111.815H97.9537V111.228H55.3137Z" fill="#85CEE4"/>
<path d="M55.3121 104.447V105.034H97.9521V104.447H55.3121Z" fill="#85CEE4"/>
<path d="M97.9537 29.9159V30.5024H109.33V29.9159H97.9537Z" fill="#85CEE4"/>
<path d="M97.956 60.8177V61.4043H109.332V60.8177H97.956Z" fill="#85CEE4"/>
<path d="M97.9557 63.4596V64.0461H109.332V63.4596H97.9557Z" fill="#85CEE4"/>
<path d="M97.9553 66.1019V66.6885H109.331V66.1019H97.9553Z" fill="#85CEE4"/>
<path d="M97.9549 68.744V69.3306H109.331V68.744H97.9549Z" fill="#85CEE4"/>
<path d="M97.9545 71.3858V71.9724H109.331V71.3858H97.9545Z" fill="#85CEE4"/>
<path d="M97.9541 74.0282V74.6147H109.33V74.0282H97.9541Z" fill="#85CEE4"/>
<path d="M11.6417 63.4385H11.0552V77.3064H11.6417V63.4385Z" fill="#85CEE4"/>
<path d="M11.6417 41.3972H11.0552V52.5592H11.6417V41.3972Z" fill="#85CEE4"/>
<path d="M11.6417 25.4868H11.0552V30.5176H11.6417V25.4868Z" fill="#85CEE4"/>
<path d="M11.6417 10.0347H11.0552V14.6074H11.6417V10.0347Z" fill="#85CEE4"/>
<path d="M11.6417 88.186H11.0552V103.732H11.6417V88.186Z" fill="#85CEE4"/>
<path d="M98.2447 24.896H97.6581V33.5105H98.2447V24.896Z" fill="#85CEE4"/>
<path d="M98.2447 40.1897H97.6581V47.7809H98.2447V40.1897Z" fill="#85CEE4"/>
<path d="M98.2447 58.6604H97.6581V61.4049H98.2447V58.6604Z" fill="#85CEE4"/>
<path d="M91.2444 25.1914H90.6578V47.3056H91.2444V25.1914Z" fill="#85CEE4"/>
<path d="M98.2447 60.814H97.6581V118.594H98.2447V60.814Z" fill="#85CEE4"/>
<path d="M55.9002 87.989H55.3136V118.598H55.9002V87.989Z" fill="#85CEE4"/>
<path d="M109.33 30.5005H108.743V74.6133H109.33V30.5005Z" fill="#85CEE4"/>
<path d="M39.5189 10.0347H38.9324V47.3056H39.5189V10.0347Z" fill="#85CEE4"/>
<path d="M28.5153 54.7427H27.9288V69.3299H28.5153V54.7427Z" fill="#85CEE4"/>
<path d="M70.6073 24.896H70.0207V47.3056H70.6073V24.896Z" fill="#85CEE4"/>
<path d="M39.5189 68.7432H38.9324V96.7531H39.5189V68.7432Z" fill="#85CEE4"/>
<path d="M39.5189 88.2844H38.9324V103.737H39.5189V88.2844Z" fill="#85CEE4"/>
<path d="M11.0579 103.146V103.733H19.8179V103.146H11.0579Z" fill="#85CEE4"/>
<path d="M30.6967 103.15V103.736H39.521V103.15H30.6967Z" fill="#85CEE4"/>
<path d="M30.6947 102.208H19.8152V104.67H30.6947V102.208Z" stroke="#85CEE4" stroke-width="0.5" stroke-miterlimit="10"/>
<path d="M12.5825 88.1878L12.5825 77.3083H10.1206L10.1206 88.1878H12.5825Z" stroke="#85CEE4" stroke-width="0.5" stroke-miterlimit="10"/>
<path d="M12.582 63.44L12.582 52.5605H10.1201L10.1201 63.44H12.582Z" stroke="#85CEE4" stroke-width="0.5" stroke-miterlimit="10"/>
<path d="M12.5809 25.4871L12.5809 14.6077H10.119L10.119 25.4871H12.5809Z" stroke="#85CEE4" stroke-width="0.5" stroke-miterlimit="10"/>
<path d="M59.8264 23.9626H48.9469V26.4245H59.8264V23.9626Z" stroke="#85CEE4" stroke-width="0.5" stroke-miterlimit="10"/>
<path d="M99.1848 58.658V47.7786H96.7229V58.658H99.1848Z" stroke="#85CEE4" stroke-width="0.5" stroke-miterlimit="10"/>
<path d="M12.5799 41.3965L12.5799 30.5171H10.118L10.118 41.3965H12.5799Z" stroke="#85CEE4" stroke-width="0.5" stroke-miterlimit="10"/>
<path d="M28.3655 55.0768C24.0754 55.0768 20.5988 51.6002 20.5988 47.3101" stroke="#85CEE4" stroke-width="0.5" stroke-miterlimit="10"/>
<path d="M31.1656 46.8859C31.1656 42.5958 34.6422 39.1191 38.9324 39.1191" stroke="#85CEE4" stroke-width="0.5" stroke-miterlimit="10"/>
<path d="M62.4338 46.8859C62.4338 42.5958 65.9104 39.1191 70.2005 39.1191" stroke="#85CEE4" stroke-width="0.5" stroke-miterlimit="10"/>
<path d="M77.9716 46.8859C77.9716 42.5958 74.495 39.1191 70.2048 39.1191" stroke="#85CEE4" stroke-width="0.5" stroke-miterlimit="10"/>
<path d="M38.9324 76.8056C34.6422 76.8056 31.1656 73.3289 31.1656 69.0388" stroke="#85CEE4" stroke-width="0.5" stroke-miterlimit="10"/>
<path d="M26.9868 40.832H19.3443V45.1735H26.9868V40.832Z" stroke="#85CEE4" stroke-width="0.5" stroke-miterlimit="10"/>
<path d="M26.9868 70.7515H19.3443V75.093H26.9868V70.7515Z" stroke="#85CEE4" stroke-width="0.5" stroke-miterlimit="10"/>
<path d="M36.3463 12.7278H31.1827V17.0693H36.3463V12.7278Z" stroke="#85CEE4" stroke-width="0.5" stroke-miterlimit="10"/>
<path d="M73.7072 74.0269C71.2367 74.0269 69.2158 72.006 69.2158 69.5355C69.2158 67.0651 71.2367 65.0442 73.7072 65.0442C76.1776 65.0442 78.1985 67.0651 78.1985 69.5355C78.1985 72.006 76.1776 74.0269 73.7072 74.0269Z" stroke="#85CEE4" stroke-width="0.5" stroke-miterlimit="10"/>
<path d="M65.6236 100.65C63.4143 100.65 61.6118 98.843 61.6118 96.638C61.6118 94.4288 63.4186 92.6262 65.6236 92.6262C67.8328 92.6262 69.6354 94.433 69.6354 96.638C69.6354 98.843 67.8286 100.65 65.6236 100.65Z" stroke="#85CEE4" stroke-width="0.5" stroke-miterlimit="10"/>
<path d="M71.3822 95.4519H70.6587V97.8153H71.3822V95.4519Z" stroke="#85CEE4" stroke-width="0.5" stroke-miterlimit="10"/>
<path d="M70.1535 100.392L69.7014 99.8274L67.8562 101.304L68.3084 101.869L70.1535 100.392Z" stroke="#85CEE4" stroke-width="0.5" stroke-miterlimit="10"/>
<path d="M65.5134 102.508L65.6719 101.802L63.3659 101.285L63.2074 101.991L65.5134 102.508Z" stroke="#85CEE4" stroke-width="0.5" stroke-miterlimit="10"/>
<path d="M60.9643 100.219L61.6146 99.9014L60.578 97.7774L59.9277 98.0947L60.9643 100.219Z" stroke="#85CEE4" stroke-width="0.5" stroke-miterlimit="10"/>
<path d="M59.914 95.2367L60.5681 95.5461L61.5787 93.4096L60.9246 93.1002L59.914 95.2367Z" stroke="#85CEE4" stroke-width="0.5" stroke-miterlimit="10"/>
<path d="M63.1399 91.3146L63.307 92.0186L65.6064 91.4726L65.4393 90.7686L63.1399 91.3146Z" stroke="#85CEE4" stroke-width="0.5" stroke-miterlimit="10"/>
<path d="M68.2341 91.3749L67.7889 91.9453L69.652 93.3995L70.0972 92.8291L68.2341 91.3749Z" stroke="#85CEE4" stroke-width="0.5" stroke-miterlimit="10"/>
<path d="M95.9926 89.7061H77.4792V95.4519H95.9926V89.7061Z" stroke="#85CEE4" stroke-width="0.5" stroke-miterlimit="10"/>
<path d="M97.9536 61.4048H39.3305V68.7434" stroke="#85CEE4" stroke-width="0.5" stroke-miterlimit="10" stroke-linecap="round" stroke-dasharray="1 1"/>
<path d="M38.9324 34.6665H12.5794" stroke="#85CEE4" stroke-width="0.5" stroke-miterlimit="10" stroke-linecap="round" stroke-dasharray="1 1"/>
<path d="M19.4719 59.2263C21.3681 58.4227 22.2539 56.2339 21.4502 54.3377C20.6466 52.4414 18.4579 51.5557 16.5616 52.3593C14.6653 53.163 13.7796 55.3517 14.5832 57.248C15.3869 59.1442 17.5756 60.03 19.4719 59.2263Z" stroke="#85CEE4" stroke-width="0.5" stroke-miterlimit="10" stroke-linecap="round" stroke-dasharray="1 1"/>
<path d="M13.2131 47.3057C13.2131 48.466 14.1507 49.4036 15.311 49.4036H15.9233C17.0836 49.4036 18.0213 48.466 18.0213 47.3057" stroke="#85CEE4" stroke-width="0.5" stroke-miterlimit="10"/>
<path d="M22.5554 64.5347H16.1331C15.2811 64.5347 14.5917 65.224 14.5917 66.076C14.5917 66.9281 15.2811 67.6174 16.1331 67.6174H22.5554C23.4075 67.6174 24.0968 66.9281 24.0968 66.076C24.1011 65.224 23.4075 64.5347 22.5554 64.5347Z" stroke="#85CEE4" stroke-width="0.5" stroke-miterlimit="10"/>
<path d="M86.6845 32.1233H80.5448V42.7501H86.6845V32.1233Z" stroke="#85CEE4" stroke-width="0.5" stroke-miterlimit="10"/>
<path d="M76.3403 26.4204H71.4936V28.7068H76.3403V26.4204Z" stroke="#85CEE4" stroke-width="0.5" stroke-miterlimit="10"/>
<path d="M82.9725 26.4204H78.1257V28.7068H82.9725V26.4204Z" stroke="#85CEE4" stroke-width="0.5" stroke-miterlimit="10"/>
<path d="M89.6002 26.4204H84.7535V28.7068H89.6002V26.4204Z" stroke="#85CEE4" stroke-width="0.5" stroke-miterlimit="10"/>
<path d="M44.5541 28.3599H40.1483V44.6126H44.5541V28.3599Z" stroke="#85CEE4" stroke-width="0.5" stroke-miterlimit="10"/>
<path d="M42.1136 38.3057C42.1136 38.6354 41.8438 38.9051 41.5142 38.9051C41.1845 38.9051 40.9147 38.6354 40.9147 38.3057C40.9147 37.976 41.1845 37.7063 41.5142 37.7063C41.8438 37.7063 42.1136 37.976 42.1136 38.3057Z" stroke="#85CEE4" stroke-width="0.5" stroke-miterlimit="10"/>
<path d="M43.7834 38.3057C43.7834 38.6354 43.5136 38.9051 43.1839 38.9051C42.8543 38.9051 42.5845 38.6354 42.5845 38.3057C42.5845 37.976 42.8543 37.7063 43.1839 37.7063C43.5179 37.7063 43.7834 37.976 43.7834 38.3057Z" stroke="#85CEE4" stroke-width="0.5" stroke-miterlimit="10"/>
<path d="M42.1136 39.9288C42.1136 40.2584 41.8438 40.5282 41.5142 40.5282C41.1845 40.5282 40.9147 40.2584 40.9147 39.9288C40.9147 39.5991 41.1845 39.3293 41.5142 39.3293C41.8438 39.3293 42.1136 39.5991 42.1136 39.9288Z" stroke="#85CEE4" stroke-width="0.5" stroke-miterlimit="10"/>
<path d="M43.7834 39.9288C43.7834 40.2584 43.5136 40.5282 43.1839 40.5282C42.8543 40.5282 42.5845 40.2584 42.5845 39.9288C42.5845 39.5991 42.8543 39.3293 43.1839 39.3293C43.5179 39.3293 43.7834 39.5991 43.7834 39.9288Z" stroke="#85CEE4" stroke-width="0.5" stroke-miterlimit="10"/>
<path d="M40.1483 36.9058H44.5541" stroke="#85CEE4" stroke-width="0.5" stroke-miterlimit="10"/>
<path d="M40.1483 41.2388H44.5541" stroke="#85CEE4" stroke-width="0.5" stroke-miterlimit="10"/>
<path d="M43.5093 35.1544H41.1887C40.9618 35.1544 40.7734 34.9703 40.7734 34.7391V31.9475C40.7734 31.7206 40.9575 31.5322 41.1887 31.5322H43.5093C43.7363 31.5322 43.9247 31.7163 43.9247 31.9475V34.7391C43.9247 34.9703 43.7363 35.1544 43.5093 35.1544Z" stroke="#85CEE4" stroke-width="0.5" stroke-miterlimit="10"/>
<path d="M58.2148 41.0227C60.4888 38.7487 60.4888 35.0619 58.2148 32.7879C55.9408 30.5139 52.254 30.5139 49.9801 32.7879C47.7061 35.0619 47.7061 38.7487 49.98 41.0227C52.254 43.2966 55.9408 43.2966 58.2148 41.0227Z" stroke="#85CEE4" stroke-width="0.5" stroke-miterlimit="10" stroke-linecap="round" stroke-dasharray="1 1"/>
</svg>
