<svg width="25" height="21" viewBox="0 0 25 21" fill="none" xmlns="http://www.w3.org/2000/svg">
<path fill-rule="evenodd" clip-rule="evenodd" d="M22.014 0.3888C22.3091 0.264603 22.6321 0.221768 22.9493 0.264754C23.2666 0.307739 23.5665 0.434975 23.8179 0.633216C24.0693 0.831457 24.263 1.09346 24.3788 1.39195C24.4946 1.69043 24.5282 2.0145 24.4762 2.33041L21.768 18.7577C21.5053 20.3423 19.7667 21.251 18.3135 20.4617C17.0979 19.8013 15.2924 18.7839 13.6684 17.7224C12.8564 17.191 10.3691 15.4894 10.6748 14.2786C10.9375 13.2433 15.1169 9.35293 17.5051 7.03995C18.4424 6.13124 18.015 5.60703 16.908 6.4429C14.1592 8.51825 9.7458 11.6743 8.28661 12.5627C6.99937 13.346 6.32828 13.4797 5.52584 13.346C4.06187 13.1024 2.70418 12.7251 1.59605 12.2653C0.0986477 11.6444 0.171488 9.58578 1.59486 8.98634L22.014 0.3888Z" fill="#85CEE4"/>
</svg>
