<svg width="534" height="534" viewBox="0 0 534 534" fill="none" xmlns="http://www.w3.org/2000/svg">
<path d="M281.577 490.696L286.035 483.843L286.538 483.801L292.116 489.715C292.145 489.681 292.168 489.663 292.184 489.661L291.384 480.143L294.015 479.922L295.356 495.898L294.83 495.942L286.554 487.148C286.159 487.807 285.041 489.498 283.198 492.222C281.255 495.083 280.15 496.741 279.883 497.197L279.405 497.237L278.063 481.261L280.694 481.04L281.096 485.824C281.196 487.212 281.323 488.823 281.477 490.657C281.512 490.686 281.545 490.699 281.577 490.696Z" fill="white"/>
<path d="M265.826 481.454L273.169 481.573L272.911 497.411L270.128 497.366L270.227 491.271L266.268 491.206C265.212 491.189 264.294 491.022 263.515 490.705C262.736 490.405 262.143 489.995 261.735 489.476C261.311 488.973 261 488.44 260.801 487.877C260.602 487.313 260.508 486.728 260.518 486.12C260.542 484.648 261.064 483.496 262.086 482.665C263.092 481.833 264.339 481.429 265.826 481.454ZM266.445 489.169L270.26 489.231L270.352 483.616L267.52 483.57C266.528 483.553 265.735 483.62 265.14 483.771C263.919 484.103 263.297 484.941 263.275 486.285C263.261 487.165 263.554 487.857 264.154 488.363C264.737 488.885 265.501 489.153 266.445 489.169ZM255.658 497.13L255.916 481.292L258.675 481.337L258.417 497.175L255.658 497.13Z" fill="white"/>
<path d="M228.843 494.176L231.087 478.496L233.796 478.883L231.861 492.401L239.25 493.459L241.185 479.941L243.917 480.332L241.672 496.012L228.843 494.176Z" fill="white"/>
<path d="M218.79 475.681C221.297 476.275 223.104 477.493 224.214 479.334C225.319 481.191 225.599 483.272 225.053 485.576C224.522 487.818 223.288 489.523 221.35 490.692C219.412 491.861 217.291 492.172 214.987 491.626C212.621 491.065 210.865 489.836 209.72 487.936C208.556 486.049 208.241 483.977 208.776 481.719C209.315 479.446 210.528 477.727 212.415 476.563C214.283 475.411 216.408 475.117 218.79 475.681ZM222.344 484.934C222.739 483.268 222.567 481.772 221.829 480.446C221.091 479.121 219.897 478.262 218.246 477.871C216.643 477.491 215.204 477.734 213.93 478.6C212.656 479.465 211.826 480.715 211.438 482.35C211.058 483.954 211.243 485.428 211.993 486.773C212.744 488.118 213.92 488.981 215.524 489.361C217.128 489.741 218.574 489.5 219.864 488.638C221.137 487.772 221.964 486.538 222.344 484.934Z" fill="white"/>
<path d="M190.632 477.732L197.467 473.247L197.944 473.41L200.677 481.067C200.718 481.047 200.746 481.04 200.761 481.045L203.853 472.007L206.35 472.862L201.161 488.031L200.661 487.86L196.615 476.481C195.989 476.927 194.285 478.027 191.504 479.781C188.575 481.62 186.896 482.694 186.469 483.005L186.015 482.849L191.204 467.68L193.702 468.535L192.148 473.076C191.683 474.388 191.152 475.915 190.556 477.656C190.576 477.696 190.601 477.722 190.632 477.732Z" fill="white"/>
<path d="M179.26 462.313C181.603 463.385 183.138 464.932 183.866 466.955C184.588 468.992 184.456 471.087 183.47 473.241C182.511 475.336 180.968 476.767 178.839 477.535C176.71 478.302 174.569 478.193 172.416 477.208C170.205 476.196 168.723 474.646 167.971 472.56C167.198 470.482 167.294 468.388 168.26 466.278C169.232 464.154 170.757 462.706 172.836 461.933C174.893 461.167 177.034 461.294 179.26 462.313ZM180.939 472.082C181.651 470.525 181.775 469.025 181.31 467.58C180.845 466.135 179.842 465.06 178.299 464.354C176.801 463.668 175.343 463.626 173.924 464.226C172.506 464.826 171.447 465.89 170.748 467.417C170.062 468.916 169.955 470.398 170.428 471.864C170.901 473.329 171.887 474.405 173.385 475.091C174.884 475.777 176.349 475.823 177.782 475.23C179.201 474.63 180.253 473.58 180.939 472.082Z" fill="white"/>
<path d="M156.327 460.396L152.591 466.747L150.212 465.348L153.948 458.997L144.771 462.148L142.103 460.578L151.744 457.394L149.678 446.657L152.492 448.312L154.215 458.542L158.243 451.694L160.622 453.093L156.594 459.941C157.172 459.779 158.793 459.201 161.457 458.206C164.178 457.209 165.817 456.632 166.373 456.476L169.186 458.131L158.798 461.543L160.68 471.504L158.032 469.947C157.909 469.114 157.627 467.527 157.183 465.188C156.689 462.651 156.404 461.054 156.327 460.396Z" fill="white"/>
<path d="M142.774 444.339L136.124 439.528L137.404 437.759L146.291 444.187L137.006 457.021L128.548 450.902L129.828 449.133L136.05 453.634L138.568 450.153L132.91 446.06L134.162 444.329L139.82 448.423L142.774 444.339Z" fill="white"/>
<path d="M118.148 434.445L126.154 432.788L126.537 433.115L126.263 441.24C126.308 441.237 126.336 441.24 126.349 441.251L132.547 433.983L134.556 435.696L124.152 447.894L123.75 447.551L124.171 435.482C123.426 435.666 121.437 436.062 118.205 436.671C114.805 437.304 112.849 437.686 112.338 437.817L111.973 437.506L122.377 425.308L124.385 427.021L121.27 430.673C120.355 431.722 119.3 432.946 118.106 434.346C118.109 434.391 118.123 434.424 118.148 434.445Z" fill="white"/>
<path d="M101.364 416.252L101.435 416.186C101.027 415.277 100.918 414.406 101.108 413.576C101.287 412.733 101.704 412.007 102.361 411.398C103.323 410.506 104.453 410.101 105.752 410.183C107.017 410.276 108.144 410.856 109.134 411.923L113.95 417.113L102.321 427.903L97.8971 423.136C96.9503 422.115 96.4465 421.055 96.3858 419.954C96.3251 418.854 96.7346 417.895 97.6143 417.079C98.0951 416.633 98.6781 416.332 99.3633 416.177C100.037 416.009 100.705 416.034 101.364 416.252ZM104.015 413.498C103.452 414.02 103.196 414.65 103.248 415.388C103.288 416.137 103.634 416.863 104.287 417.567L106.703 420.17L110.521 416.628L107.974 413.884C107.223 413.074 106.507 412.691 105.827 412.733C105.147 412.753 104.543 413.008 104.015 413.498ZM99.7404 421.982L102.058 424.48L105.225 421.542L103.021 419.167C102.61 418.676 102.101 418.351 101.496 418.192C100.89 418.034 100.283 418.215 99.6751 418.736C99.1825 419.193 98.9423 419.71 98.9547 420.288C98.9561 420.854 99.218 421.419 99.7404 421.982Z" fill="white"/>
<path d="M94.729 394.665L96.4451 396.827L94.8676 399.703L99.1802 405.135L102.325 404.232L103.981 406.319L86.9143 410.644L86.6009 410.25L94.729 394.665ZM90.5769 407.461L90.6366 407.536L97.1653 405.724L93.8226 401.513L90.5769 407.461Z" fill="white"/>
<path d="M77.4109 386.388L85.5615 387.026L85.8387 387.447L83.312 395.175C83.3563 395.184 83.3829 395.195 83.3917 395.208L91.3693 389.955L92.8213 392.16L79.4316 400.977L79.1413 400.536L82.9073 389.062C82.1398 389.031 80.1194 388.857 76.8462 388.541C73.4045 388.202 71.4196 388.025 70.8916 388.008L70.6276 387.608L84.0173 378.79L85.4692 380.995L81.4603 383.635C80.289 384.387 78.9349 385.269 77.3982 386.281C77.389 386.326 77.3933 386.361 77.4109 386.388Z" fill="white"/>
<path d="M58.3034 364.154L72.5042 357.136L73.7163 359.589L67.2829 362.768L70.547 369.374L76.9804 366.195L78.2031 368.669L64.0023 375.686L62.7796 373.212L68.5675 370.352L65.3034 363.746L59.5155 366.607L58.3034 364.154Z" fill="white"/>
<path d="M65.4923 340.187L66.5148 342.751L64.1773 345.053L66.7468 351.495L70.018 351.534L71.005 354.008L53.4151 353.247L53.2284 352.779L65.4923 340.187ZM57.8382 351.25L57.8737 351.339L64.6478 351.48L62.6561 346.486L57.8382 351.25Z" fill="white"/>
<path d="M44.9751 328.667L60.3807 323.976L61.1707 326.57L50.8161 329.723L50.8371 329.792L64.4514 336.685L64.5982 337.168L49.2615 341.838L48.4645 339.22L58.7732 336.081L58.7452 335.989L45.1219 329.149L44.9751 328.667ZM45.8784 335.341C46.1767 336.321 46.093 337.199 45.6272 337.977C45.1462 338.759 44.4075 339.327 43.4113 339.68L42.9849 338.28C43.6184 338.053 44.0752 337.714 44.3553 337.26C44.6155 336.796 44.6617 336.289 44.4939 335.738C44.3168 335.156 43.988 334.763 43.5074 334.558C43.0269 334.353 42.4659 334.323 41.8243 334.468L41.4049 333.091C42.3831 332.843 43.2952 332.9 44.1412 333.261C44.9824 333.607 45.5615 334.301 45.8784 335.341Z" fill="white"/>
<path d="M41.2734 311.902L43.4054 311.428L44.4523 316.138L57.8062 313.169L58.4052 315.863L45.0513 318.832L46.1034 323.564L43.9714 324.038L41.2734 311.902Z" fill="white"/>
<path d="M38.2109 294.172L54.1447 291.837L54.538 294.52L43.8283 296.09L43.8388 296.161L56.2695 305.012L56.3425 305.511L40.48 307.835L40.0833 305.128L50.7454 303.566L50.7315 303.471L38.284 294.671L38.2109 294.172Z" fill="white"/>
<path d="M36.5816 266.19L52.6801 265.772L52.7506 268.483L41.9302 268.764L41.9321 268.836L53.2186 279.106L53.2317 279.61L37.2051 280.026L37.134 277.291L47.9064 277.011L47.9039 276.915L36.5947 266.694L36.5816 266.19Z" fill="white"/>
<path d="M37.1699 256.052L37.8859 245.228L51.5121 246.129L51.6563 243.95L57.5953 244.343L57.4353 246.761L53.6516 246.511L52.7518 260.113L56.5355 260.364L56.3771 262.758L50.4381 262.366L50.5696 260.378C49.855 259.545 48.983 258.91 47.9536 258.473C46.8923 258.034 45.5537 257.665 43.938 257.366L37.1699 256.052ZM39.7601 248.166L39.3767 253.961L43.3475 254.657C45.2176 254.989 46.7313 255.378 47.8884 255.823C49.0157 256.234 49.9733 256.787 50.7613 257.48L51.3268 248.931L39.7601 248.166Z" fill="white"/>
<path d="M52.6359 237.066L53.8603 228.95L56.0199 229.276L54.3837 240.121L38.7209 237.758L40.2783 227.435L42.4379 227.76L41.2922 235.355L45.5402 235.995L46.582 229.09L48.6941 229.408L47.6523 236.314L52.6359 237.066Z" fill="white"/>
<path d="M59.6783 212.533L59.0621 215.223L55.8305 215.788L54.282 222.549L56.9511 224.441L56.3563 227.038L42.3183 216.411L42.4309 215.92L59.6783 212.533ZM47.0922 217.283L47.0708 217.377L52.5639 221.343L53.7641 216.103L47.0922 217.283Z" fill="white"/>
<path d="M63.378 200.332L50.2093 196.206L48.7885 200.74L56.4301 203.965C58.1953 204.752 59.425 205.59 60.1192 206.478C60.8239 207.387 61.0515 208.64 60.8022 210.239L58.6543 210.672C58.7449 209.527 58.5775 208.67 58.1522 208.101C57.7317 207.516 56.9275 206.979 55.7395 206.49L46.14 202.451L49.1179 192.946L64.2104 197.675L63.378 200.332Z" fill="white"/>
<path d="M68.6095 186.163L65.8507 192.969L51.1486 187.01L52.1944 184.43L57.8439 186.72L59.3225 183.072C60.0738 181.218 61.0864 180.041 62.3604 179.538C63.6343 179.036 64.9015 179.041 66.1619 179.551C67.5261 180.104 68.4118 181.007 68.8191 182.26C69.2323 183.498 69.1624 184.799 68.6095 186.163ZM61.168 183.95L59.7345 187.486L64.9392 189.596L66.4628 185.837C66.7994 185.006 66.8445 184.256 66.598 183.587C66.3575 182.902 65.8294 182.395 65.0139 182.064C64.1983 181.734 63.4391 181.754 62.7362 182.125C62.0393 182.481 61.5166 183.09 61.168 183.95Z" fill="white"/>
<path d="M63.7 159.172L77.8775 166.236L76.6574 168.685L70.2345 165.485L66.9486 172.08L73.3714 175.28L72.1406 177.75L57.963 170.686L59.1939 168.216L64.9723 171.095L68.2582 164.5L62.4798 161.621L63.7 159.172Z" fill="white"/>
<path d="M84.4749 155.404C83.1207 157.595 81.395 158.927 79.2977 159.399C77.1868 159.862 75.1242 159.471 73.1098 158.227C71.1498 157.015 69.9209 155.306 69.4229 153.099C68.925 150.891 69.2984 148.78 70.5432 146.766C71.8217 144.697 73.5426 143.419 75.706 142.932C77.8641 142.422 79.93 142.777 81.9035 143.997C83.8907 145.225 85.1391 146.918 85.6487 149.076C86.1531 151.212 85.7618 153.321 84.4749 155.404ZM74.5733 155.858C76.0297 156.758 77.5034 157.067 78.9944 156.785C80.4855 156.503 81.6768 155.64 82.5684 154.197C83.4347 152.795 83.6581 151.353 83.2384 149.872C82.8188 148.39 81.8944 147.207 80.4653 146.324C79.0633 145.458 77.6058 145.168 76.0928 145.456C74.5797 145.743 73.39 146.588 72.5236 147.99C71.6573 149.392 71.4297 150.841 71.841 152.336C72.2606 153.818 73.1714 154.992 74.5733 155.858Z" fill="white"/>
<path d="M91.0692 141.004L95.9283 134.388L97.6884 135.681L91.1954 144.521L78.4293 135.144L84.6098 126.73L86.3699 128.023L81.8234 134.212L85.2857 136.755L89.4202 131.127L91.1417 132.391L87.0072 138.02L91.0692 141.004Z" fill="white"/>
<path d="M106.13 125.529L104.263 127.593L92.5331 116.984L96.397 112.712C97.642 111.335 98.9882 110.622 100.436 110.572C101.882 110.5 103.139 110.947 104.207 111.913C105.382 112.975 105.978 114.248 105.996 115.731C106.002 117.203 105.446 118.557 104.33 119.791L102.286 122.051L106.13 125.529ZM97.5769 114.556L95.9508 116.354L100.685 120.636L102.408 118.732C103.202 117.853 103.556 116.997 103.469 116.164C103.358 115.308 102.994 114.601 102.377 114.043C101.677 113.41 100.898 113.126 100.04 113.192C99.1708 113.247 98.3497 113.701 97.5769 114.556Z" fill="white"/>
<path d="M114.892 113.044L120.805 107.353L122.32 108.926L114.417 116.532L103.433 105.119L110.955 97.8796L112.47 99.4531L106.936 104.779L109.915 107.874L114.947 103.031L116.429 104.57L111.397 109.413L114.892 113.044Z" fill="white"/>
<path d="M128.284 83.2876L130.439 81.5636L140.348 93.9518L124.736 106.44L114.827 94.0516L116.982 92.3276L125.543 103.029L130.097 99.3861L121.537 88.6846L123.711 86.9456L132.271 97.6471L136.844 93.9891L128.284 83.2876Z" fill="white"/>
<path d="M145.803 87.6344L152.658 83.1202L153.86 84.9442L144.699 90.9764L135.988 77.7471L144.707 72.0054L145.908 73.8294L139.494 78.0532L141.857 81.6411L147.69 77.8001L148.864 79.5841L143.031 83.4251L145.803 87.6344Z" fill="white"/>
<path d="M160.805 62.7568L168.455 76.627L166.059 77.9484L162.594 71.6648L156.142 75.2232L159.607 81.5068L157.191 82.8398L149.541 68.9696L151.957 67.6366L155.075 73.2898L161.527 69.7314L158.409 64.0782L160.805 62.7568Z" fill="white"/>
<path d="M178.441 54.2046L185.025 68.901L182.551 70.0099L178.125 60.132L178.059 60.1614L172.926 74.5322L172.466 74.7383L165.911 60.1076L168.408 58.9889L172.814 68.823L172.902 68.7838L177.981 54.4107L178.441 54.2046Z" fill="white"/>
<path d="M191.605 64.0472L199.339 61.2988L200.07 63.3567L189.735 67.0293L184.431 52.1037L194.268 48.6079L195 50.6658L187.763 53.2375L189.202 57.2855L195.782 54.9469L196.498 56.9596L189.917 59.2982L191.605 64.0472Z" fill="white"/>
<path d="M210.217 43.9536L220.788 41.5179L223.854 54.8252L225.982 54.3349L227.319 60.1349L224.956 60.6791L224.105 56.984L210.821 60.0448L211.672 63.74L209.334 64.2788L207.997 58.4788L209.938 58.0315C210.53 57.1071 210.887 56.0891 211.008 54.9774C211.122 53.8346 211.09 52.4464 210.911 50.813L210.217 43.9536ZM218.515 44.1597L212.855 45.4638L213.334 49.4664C213.555 51.3529 213.62 52.9144 213.527 54.1508C213.458 55.3488 213.205 56.425 212.768 57.3795L221.118 55.4557L218.515 44.1597Z" fill="white"/>
<path d="M240.056 54.4032L238.161 40.734L233.454 41.3866L233.803 49.6732C233.845 51.6057 233.613 53.0756 233.106 54.0827C232.586 55.1078 231.55 55.8492 229.998 56.3066L228.689 54.5499C229.763 54.1425 230.467 53.6249 230.8 52.9973C231.148 52.3674 231.29 51.4108 231.225 50.1276L230.776 39.7227L240.642 38.3547L242.814 54.0208L240.056 54.4032Z" fill="white"/>
<path d="M250.487 53.2874L247.324 53.4671L251.797 47.1552C250.531 46.8745 249.539 46.338 248.821 45.5454C248.102 44.7369 247.713 43.8055 247.653 42.7512C247.559 41.1059 248.039 39.8126 249.091 38.8714C250.174 37.9124 251.483 37.3893 253.016 37.3021L259.03 36.9603L259.928 52.7509L257.172 52.9075L256.396 39.2495L253.569 39.4102C252.562 39.4674 251.764 39.8012 251.174 40.4117C250.599 41.0213 250.339 41.7973 250.392 42.7398C250.439 43.5544 250.873 44.283 251.695 44.9254C252.55 45.5979 253.7 45.9493 255.144 45.9794L255.163 46.3148L250.487 53.2874Z" fill="white"/>
<path d="M280.42 44.3944L280.416 44.4903C281.344 44.8542 282.031 45.399 282.477 46.1248C282.94 46.8513 283.15 47.662 283.108 48.5571C283.046 49.8676 282.523 50.9483 281.538 51.799C280.571 52.6185 279.36 52.9941 277.905 52.9258L270.833 52.5936L271.577 36.747L278.074 37.0522C279.465 37.1175 280.567 37.5217 281.381 38.2647C282.195 39.0077 282.574 39.9786 282.517 41.1772C282.487 41.8325 282.281 42.4556 281.901 43.0464C281.537 43.6379 281.043 44.0873 280.42 44.3944ZM280.457 48.2163C280.493 47.4491 280.234 46.8203 279.681 46.3298C279.128 45.8233 278.372 45.5475 277.413 45.5025L273.865 45.3358L273.62 50.5381L277.36 50.7138C278.463 50.7656 279.243 50.5379 279.699 50.0307C280.17 49.5403 280.423 48.9355 280.457 48.2163ZM277.566 39.1667L274.162 39.0068L273.959 43.3221L277.196 43.4741C277.834 43.5361 278.424 43.4116 278.967 43.1008C279.51 42.7899 279.817 42.2357 279.886 41.4381C279.918 40.7668 279.727 40.2293 279.313 39.8254C278.916 39.4223 278.333 39.2027 277.566 39.1667Z" fill="white"/>
<path d="M300.045 55.0754L297.306 54.7363L296.415 51.5789L289.532 50.7267L287.922 53.5744L285.278 53.2471L294.42 38.2004L294.92 38.2623L300.045 55.0754ZM294.039 43.0382L293.944 43.0264L290.557 48.8947L295.892 49.5553L294.039 43.0382Z" fill="white"/>
<path d="M323.297 43.6441L325.99 44.2502L322.506 59.727L303.002 55.3369L306.486 39.8601L309.178 40.4662L306.169 53.8357L311.859 55.1164L314.868 41.7469L317.584 42.3582L314.575 55.7277L320.288 57.0136L323.297 43.6441Z" fill="white"/>
<path d="M330.828 59.9961L338.632 62.5374L337.956 64.6141L327.527 61.2183L332.431 46.1566L342.358 49.3889L341.682 51.4656L334.379 49.0878L333.049 53.1727L339.69 55.335L339.029 57.3661L332.388 55.2038L330.828 59.9961Z" fill="white"/>
<path d="M361.373 56.6091L355.159 71.4659L352.657 70.4194L356.833 60.4337L356.767 60.4059L342.774 66.4939L342.309 66.2994L348.495 51.5091L351.02 52.5648L346.861 62.5062L346.95 62.5433L360.908 56.4146L361.373 56.6091ZM355.656 53.0474C354.712 52.6523 354.089 52.0275 353.787 51.1729C353.492 50.3036 353.525 49.3725 353.889 48.3798L355.239 48.9447C355.009 49.577 354.98 50.1456 355.15 50.6504C355.341 51.1467 355.703 51.506 356.234 51.7282C356.795 51.9628 357.308 51.9605 357.772 51.7211C358.236 51.4817 358.617 51.0687 358.915 50.482L360.243 51.0377C359.81 51.9491 359.184 52.6153 358.367 53.0364C357.564 53.4636 356.66 53.4673 355.656 53.0474Z" fill="white"/>
<path d="M377.474 79.5006L376.31 81.5997C374.921 81.5979 373.408 81.1433 371.771 80.2357C369.49 78.9714 368.074 77.3177 367.523 75.2746C366.979 73.2533 367.285 71.2001 368.44 69.115C369.573 67.0719 371.213 65.7307 373.36 65.0914C375.521 64.46 377.672 64.7376 379.813 65.9244C381.254 66.7233 382.303 67.5701 382.96 68.4646L381.808 70.5427C381.085 69.5379 380.156 68.7214 379.022 68.0931C377.567 67.2864 376.065 67.0757 374.516 67.461C372.995 67.8619 371.788 68.867 370.896 70.4763C370.02 72.0576 369.777 73.5513 370.169 74.9574C370.574 76.3712 371.567 77.5163 373.149 78.3928C374.422 79.0987 375.864 79.4679 377.474 79.5006Z" fill="white"/>
<path d="M381.929 83.3826L388.816 87.8489L387.628 89.6813L378.425 83.7132L387.045 70.4235L395.804 76.1043L394.615 77.9367L388.172 73.7577L385.834 77.362L391.694 81.1623L390.532 82.9544L384.672 79.1541L381.929 83.3826Z" fill="white"/>
<path d="M407.347 92.2285L399.428 94.2614L399.03 93.9528L398.92 85.8238C398.875 85.8295 398.846 85.8274 398.834 85.8176L392.985 93.3697L390.898 91.7532L400.714 79.0779L401.132 79.4012L401.281 91.477C402.017 91.2579 403.985 90.7683 407.184 90.0081C410.551 89.2153 412.486 88.7411 412.991 88.5857L413.371 88.8796L403.554 101.555L401.467 99.9384L404.406 96.1435C405.271 95.0527 406.267 93.7799 407.393 92.3252C407.388 92.2803 407.372 92.2481 407.347 92.2285Z" fill="white"/>
<path d="M412.863 109.814L407.47 104.829L418.24 93.1802L420.284 95.0702L416.146 99.5462L419.036 102.218C420.504 103.576 421.248 104.939 421.268 106.309C421.288 107.678 420.836 108.862 419.913 109.86C418.913 110.941 417.756 111.451 416.44 111.389C415.136 111.338 413.944 110.813 412.863 109.814ZM417.563 103.635L414.761 101.044L410.948 105.168L413.926 107.921C414.584 108.529 415.27 108.837 415.984 108.843C416.709 108.859 417.37 108.545 417.968 107.899C418.565 107.253 418.814 106.535 418.715 105.746C418.628 104.969 418.244 104.265 417.563 103.635Z" fill="white"/>
<path d="M441.321 115.966L429.436 126.833L427.606 124.831L435.594 117.527L435.546 117.474L420.29 117.114L419.95 116.742L431.781 105.924L433.628 107.943L425.675 115.215L425.74 115.286L440.981 115.594L441.321 115.966Z" fill="white"/>
<path d="M457.841 137.396L444.763 146.793L443.181 144.591L451.971 138.274L451.929 138.216L436.82 136.069L436.526 135.659L449.546 126.304L451.142 128.526L442.391 134.814L442.447 134.892L457.547 136.986L457.841 137.396Z" fill="white"/>
<path d="M451.857 158.12L463.683 151.009L461.234 146.936L453.751 150.512C451.99 151.31 450.547 151.673 449.422 151.603C448.275 151.527 447.186 150.866 446.156 149.618L447.257 147.724C448.054 148.552 448.806 148.996 449.514 149.055C450.23 149.129 451.166 148.883 452.32 148.32L461.713 143.82L466.845 152.356L453.291 160.506L451.857 158.12Z" fill="white"/>
<path d="M476.646 170.671L462.181 177.751L460.989 175.315L470.711 170.557L470.679 170.492L456.142 165.85L455.921 165.398L470.32 158.349L471.523 160.807L461.844 165.544L461.887 165.631L476.424 170.219L476.646 170.671Z" fill="white"/>
<path d="M468.937 194.54L466.703 188.253L481.629 182.949L485.237 193.103L483.27 193.802L480.601 186.294L476.825 187.636L478.143 191.345C478.496 192.34 478.661 193.258 478.637 194.098C478.628 194.934 478.452 195.633 478.109 196.196C477.787 196.769 477.396 197.248 476.938 197.631C476.48 198.015 475.965 198.308 475.392 198.512C473.884 199.048 472.574 198.919 471.46 198.126C470.346 197.334 469.505 196.138 468.937 194.54ZM476.172 191.892L474.903 188.319L469.633 190.192L470.847 193.607C471.195 194.587 471.682 195.288 472.308 195.711C472.949 196.128 473.706 196.182 474.581 195.871C475.41 195.576 475.956 195.06 476.22 194.321C476.504 193.591 476.488 192.782 476.172 191.892Z" fill="white"/>
<path d="M491.497 213.845L475.922 217.942L475.233 215.319L485.7 212.566L485.682 212.496L472.342 205.086L472.214 204.599L487.718 200.52L488.414 203.166L477.993 205.908L478.017 206L491.368 213.358L491.497 213.845Z" fill="white"/>
<path d="M477.356 226.249C476.992 224.25 477.018 222.521 477.436 221.063L479.797 220.633C479.278 222.159 479.172 223.764 479.479 225.448C479.748 226.927 480.214 228.013 480.877 228.706C481.54 229.398 482.328 229.661 483.241 229.495C484.012 229.354 484.549 228.907 484.85 228.153C485.152 227.398 485.201 226.462 484.998 225.345L484.649 223.432L486.68 223.062L487.011 224.88C487.192 225.872 487.541 226.63 488.059 227.153C488.596 227.69 489.164 227.903 489.762 227.794C490.423 227.674 490.891 227.255 491.167 226.538C491.443 225.821 491.485 224.935 491.293 223.881C491.184 223.282 490.956 222.519 490.607 221.59C490.287 220.722 489.921 220.008 489.51 219.448L491.8 219.031C492.198 219.609 492.577 220.394 492.936 221.386C493.263 222.286 493.492 223.098 493.624 223.822C493.931 225.506 493.84 226.97 493.351 228.214C492.875 229.439 491.976 230.172 490.654 230.413C489.961 230.539 489.249 230.425 488.518 230.07C487.805 229.729 487.244 229.196 486.836 228.474L486.742 228.491C486.696 229.491 486.383 230.313 485.8 230.956C485.237 231.611 484.498 232.022 483.585 232.189C482.106 232.458 480.791 232.072 479.642 231.029C478.511 229.999 477.749 228.406 477.356 226.249Z" fill="white"/>
<path d="M496.646 248.214L480.891 249.843L480.609 247.121L487.747 246.383L486.989 239.054L479.851 239.792L479.567 237.047L495.323 235.418L495.607 238.163L489.185 238.827L489.943 246.156L496.365 245.492L496.646 248.214Z" fill="white"/>
<path d="M483.574 258.363L483.787 266.568L481.604 266.625L481.319 255.66L497.154 255.249L497.425 265.686L495.242 265.742L495.042 258.065L490.748 258.176L490.929 265.158L488.794 265.214L488.613 258.232L483.574 258.363Z" fill="white"/>
<path d="M484.272 281.819L481.875 281.716C481.256 280.472 480.987 278.915 481.067 277.045C481.18 274.439 482.027 272.434 483.609 271.029C485.174 269.639 487.148 268.995 489.53 269.098C491.863 269.199 493.796 270.067 495.327 271.702C496.857 273.354 497.569 275.402 497.464 277.848C497.393 279.495 497.104 280.811 496.597 281.798L494.223 281.696C494.799 280.6 495.115 279.404 495.17 278.109C495.242 276.447 494.76 275.009 493.723 273.795C492.685 272.613 491.247 271.983 489.409 271.903C487.602 271.825 486.157 272.276 485.074 273.254C483.99 274.248 483.41 275.648 483.332 277.455C483.269 278.909 483.582 280.364 484.272 281.819Z" fill="white"/>
<path d="M479.338 298.555L479.667 295.815L482.821 294.912L483.647 288.025L480.793 286.426L481.11 283.781L496.192 292.866L496.132 293.366L479.338 298.555ZM491.352 292.503L491.364 292.408L485.483 289.043L484.842 294.381L491.352 292.503Z" fill="white"/>
</svg>
