<svg width="25" height="25" viewBox="0 0 25 25" fill="none" xmlns="http://www.w3.org/2000/svg">
<path d="M2.18 2.18C0.5 3.876 0.5 6.588 0.5 12.02V12.98C0.5 18.404 0.5 21.116 2.18 22.82C3.876 24.5 6.588 24.5 12.02 24.5H12.98C18.404 24.5 21.116 24.5 22.82 22.82C24.5 21.124 24.5 18.412 24.5 12.98V12.02C24.5 6.596 24.5 3.884 22.82 2.18C21.124 0.5 18.412 0.5 12.98 0.5H12.02C6.596 0.5 3.884 0.5 2.18 2.18ZM4.548 7.804H7.3C7.388 12.38 9.404 14.316 11.004 14.716V7.804H13.588V11.748C15.164 11.58 16.828 9.78 17.388 7.796H19.964C19.7538 8.82296 19.3342 9.79556 18.7313 10.6531C18.1284 11.5106 17.3552 12.2347 16.46 12.78C17.4592 13.2772 18.3417 13.9806 19.0491 14.8438C19.7566 15.7071 20.2729 16.7105 20.564 17.788H17.724C17.116 15.892 15.596 14.42 13.588 14.22V17.788H13.268C7.796 17.788 4.676 14.044 4.548 7.804Z" fill="#85CEE4"/>
</svg>
