<svg width="27" height="23" viewBox="0 0 27 23" fill="none" xmlns="http://www.w3.org/2000/svg">
<path fill-rule="evenodd" clip-rule="evenodd" d="M13.5 0.833496C14.64 0.833496 15.8093 0.86283 16.9426 0.91083L18.2813 0.974829L19.5626 1.05083L20.7626 1.13216L21.8586 1.2175C23.0482 1.30802 24.1677 1.81541 25.0199 2.6503C25.8721 3.48519 26.4024 4.59402 26.5173 5.7815L26.5706 6.34816L26.6706 7.5615C26.764 8.81883 26.8333 10.1895 26.8333 11.5002C26.8333 12.8108 26.764 14.1815 26.6706 15.4388L26.5706 16.6522L26.5173 17.2188C26.4023 18.4065 25.8719 19.5155 25.0194 20.3504C24.1669 21.1853 23.0471 21.6926 21.8573 21.7828L20.764 21.8668L19.564 21.9495L18.2813 22.0255L16.9426 22.0895C15.7957 22.1392 14.6479 22.165 13.5 22.1668C12.352 22.165 11.2042 22.1392 10.0573 22.0895L8.71863 22.0255L7.43729 21.9495L6.23729 21.8668L5.14129 21.7828C3.95171 21.6923 2.83223 21.1849 1.98002 20.35C1.12781 19.5151 0.597547 18.4063 0.482626 17.2188L0.429293 16.6522L0.329293 15.4388C0.227736 14.1283 0.173479 12.8146 0.166626 11.5002C0.166626 10.1895 0.235959 8.81883 0.329293 7.5615L0.429293 6.34816L0.482626 5.7815C0.597502 4.59423 1.12757 3.48557 1.97951 2.6507C2.83144 1.81584 3.95061 1.30832 5.13996 1.2175L6.23463 1.13216L7.43463 1.05083L8.71729 0.974829L10.056 0.91083C11.2033 0.861132 12.3515 0.835349 13.5 0.833496ZM10.8333 8.26683V14.7335C10.8333 15.3495 11.5 15.7335 12.0333 15.4268L17.6333 12.1935C17.7551 12.1234 17.8564 12.0223 17.9267 11.9006C17.9971 11.7789 18.0342 11.6408 18.0342 11.5002C18.0342 11.3596 17.9971 11.2214 17.9267 11.0997C17.8564 10.978 17.7551 10.877 17.6333 10.8068L12.0333 7.57483C11.9116 7.50459 11.7736 7.46763 11.6332 7.46765C11.4927 7.46767 11.3547 7.50468 11.2331 7.57496C11.1114 7.64523 11.0105 7.7463 10.9403 7.86798C10.8701 7.98967 10.8332 8.12769 10.8333 8.26816V8.26683Z" fill="#85CEE4"/>
</svg>
